<svg xmlns="http://www.w3.org/2000/svg" viewBox="0 0 500 500"><g id="freepik--Shadows--inject-84"><ellipse id="freepik--Shadow--inject-84" cx="358.67" cy="440.23" rx="30.08" ry="17.37" style="fill:#e0e0e0"></ellipse><ellipse id="freepik--shadow--inject-84" cx="401.67" cy="457.6" rx="30.08" ry="17.37" style="fill:#e0e0e0"></ellipse><path id="freepik--shadow--inject-84" d="M451.05,436.24c5.49,3.18,5.49,8.32,0,11.5s-14.41,3.17-19.91,0-5.5-8.32,0-11.5S445.55,433.07,451.05,436.24Z" style="fill:#e0e0e0"></path><path id="freepik--shadow--inject-84" d="M433.71,416.39c5.5,3.17,5.5,8.32,0,11.49s-14.41,3.18-19.9,0-5.5-8.32,0-11.49S428.22,413.21,433.71,416.39Z" style="fill:#e0e0e0"></path><ellipse id="freepik--shadow--inject-84" cx="398.55" cy="430.99" rx="14.08" ry="8.13" style="fill:#e0e0e0"></ellipse><polygon id="freepik--shadow--inject-84" points="26.4 420.17 354.83 230.51 471.6 297.92 143.17 487.6 26.4 420.17" style="fill:#e0e0e0"></polygon></g><g id="freepik--Floor--inject-84"><g id="freepik--floor--inject-84"><polygon points="141.84 463.83 35.4 402.37 356.16 217.12 462.6 278.58 141.84 463.83" style="fill:#FFC100"></polygon><polygon points="141.84 463.83 35.4 402.37 356.16 217.12 462.6 278.58 141.84 463.83" style="fill:#fff;opacity:0.6000000000000001"></polygon><polygon points="35.4 402.37 35.4 418.29 141.84 479.75 141.84 463.83 35.4 402.37" style="fill:#FFC100"></polygon><polygon points="35.4 402.37 35.4 418.29 141.84 479.75 141.84 463.83 35.4 402.37" style="opacity:0.15"></polygon><polygon points="141.84 479.75 462.6 294.5 462.6 278.58 141.84 463.83 141.84 479.75" style="fill:#FFC100"></polygon><polygon points="231.99 347.39 237.04 350.3 223.82 355.02 231.99 347.39" style="fill:#FFC100"></polygon><polygon points="265.85 347.66 270.9 350.58 257.68 355.3 265.85 347.66" style="fill:#FFC100"></polygon><polygon points="299.66 347.96 304.71 350.88 291.49 355.6 299.66 347.96" style="fill:#FFC100"></polygon><polygon points="236.05 311.24 231 308.32 222.83 315.95 236.05 311.24" style="fill:#FFC100"></polygon><polygon points="236.57 330.76 231.52 327.84 223.35 335.48 236.57 330.76" style="fill:#FFC100"></polygon></g></g><g id="freepik--Screen--inject-84"><g id="freepik--match-score--inject-84"><polygon points="170.34 48.64 68.79 107.27 68.79 188.5 170.34 129.87 170.34 48.64" style="fill:#455a64"></polygon><polygon points="170.34 48.64 162.91 44.29 61.35 102.92 68.79 107.27 170.34 48.64" style="fill:#37474f"></polygon><polygon points="61.35 102.92 61.35 184.15 68.79 188.5 68.79 107.27 61.35 102.92" style="fill:#263238"></polygon><polygon points="73.79 110.16 165.34 57.3 165.34 126.99 73.79 179.84 73.79 110.16" style="fill:#FFC100"></polygon><polygon points="73.79 110.16 165.34 57.3 165.34 126.99 73.79 179.84 73.79 110.16" style="opacity:0.2"></polygon><path d="M85.73,121.92a.41.41,0,0,1-.18,0,.35.35,0,0,1-.17-.3v-9.38a.36.36,0,0,1,.17-.3l65-37.52a.34.34,0,0,1,.34,0,.33.33,0,0,1,.17.3v9.38a.34.34,0,0,1-.17.3l-65,37.52A.41.41,0,0,1,85.73,121.92Zm.34-9.53V121l64.3-37.12V75.26Z" style="fill:#fafafa"></path><path d="M85.73,162.47a.39.39,0,0,1-.18,0,.36.36,0,0,1-.17-.3v-9.38a.35.35,0,0,1,.17-.3l65-37.53a.34.34,0,0,1,.34,0,.35.35,0,0,1,.17.3v9.38a.33.33,0,0,1-.17.3l-65,37.53A.38.38,0,0,1,85.73,162.47Zm.34-9.52v8.58l64.3-37.13v-8.58Z" style="fill:#fafafa"></path><path d="M80.3,147a.39.39,0,0,1-.18,0,.36.36,0,0,1-.17-.3v-13a.36.36,0,0,1,.17-.3L91.34,127a.36.36,0,0,1,.35,0,.38.38,0,0,1,.17.3v13a.34.34,0,0,1-.17.3L80.47,147A.38.38,0,0,1,80.3,147Zm.34-13.1V146.1L91.17,140V127.86Z" style="fill:#fafafa"></path><path d="M97.13,137.33a.41.41,0,0,1-.18-.05.36.36,0,0,1-.17-.3V124a.38.38,0,0,1,.17-.3l11.22-6.47a.32.32,0,0,1,.35,0,.33.33,0,0,1,.17.3v13a.33.33,0,0,1-.17.3L97.3,137.28A.34.34,0,0,1,97.13,137.33Zm.34-13.11v12.16L108,130.3V118.14Z" style="fill:#fafafa"></path><path d="M114,127.61a.37.37,0,0,1-.35-.35v-13a.34.34,0,0,1,.18-.3L125,107.53a.34.34,0,0,1,.34,0,.33.33,0,0,1,.17.3v13a.33.33,0,0,1-.17.3l-11.22,6.48A.34.34,0,0,1,114,127.61Zm.34-13.1v12.16l10.53-6.08V108.43Z" style="fill:#fafafa"></path><path d="M130.79,117.89a.26.26,0,0,1-.17,0,.33.33,0,0,1-.18-.29v-13a.34.34,0,0,1,.18-.3l11.22-6.48a.34.34,0,0,1,.34,0,.34.34,0,0,1,.17.3v13a.36.36,0,0,1-.18.3L131,117.84A.26.26,0,0,1,130.79,117.89Zm.35-13.1V117l10.52-6.08V98.71Z" style="fill:#fafafa"></path><path d="M147.62,108.17a.33.33,0,0,1-.17,0,.35.35,0,0,1-.18-.3v-13a.35.35,0,0,1,.18-.3l11.22-6.48a.34.34,0,0,1,.34,0,.36.36,0,0,1,.18.3v13a.36.36,0,0,1-.17.3l-11.23,6.48A.33.33,0,0,1,147.62,108.17Zm.35-13.1v12.16l10.53-6.08V89Z" style="fill:#fafafa"></path><path d="M78.63,82.49H74.84V98.77h0c0,.31.12.62.54.86a2.92,2.92,0,0,0,2.67,0,.87.87,0,0,0,.54-.86h0Z" style="fill:#455a64"></path><path d="M74.84,82.49c0,.57.85,1,1.89,1s1.9-.47,1.9-1-.85-1-1.9-1S74.84,81.91,74.84,82.49Z" style="fill:#37474f"></path><path d="M151.74,40.27H148V56.55h0a.9.9,0,0,0,.54.87,3,3,0,0,0,2.68,0,.9.9,0,0,0,.54-.87h0Z" style="fill:#455a64"></path><path d="M148,40.27c0,.58.85,1,1.89,1s1.89-.47,1.89-1-.84-1-1.89-1S148,39.7,148,40.27Z" style="fill:#37474f"></path></g></g><g id="freepik--Poster--inject-84"><g id="freepik--poster--inject-84"><polygon points="408.44 43.91 469.13 79.01 469.13 184.7 408.44 149.6 408.44 43.91" style="fill:#f0f0f0"></polygon><path d="M467.11,91.74c0-5.41-5.06-14.52-7.13-15.72L406.92,45.33V150.44l60.19,34.81Z" style="fill:#fafafa"></path><path d="M407.17,45.76l52.68,30.48c1.81,1,7,9.87,7,15.5v93.07l-59.69-34.52V45.76m-.5-.87V150.58l60.69,35.1V91.74c0-5.58-5.19-14.74-7.26-15.93L406.67,44.89Z" style="fill:#e0e0e0"></path><path d="M460.1,75.81c3.35,2.7.87,9.52.87,9.52s6.39-.17,6.39,6.83h0C467.36,82.47,464.07,78.09,460.1,75.81Z" style="fill:#e0e0e0"></path><path d="M431.49,136.74a6.14,6.14,0,0,1-1.76-1.5,4.78,4.78,0,0,1-1.11-2.28c-3.14-13.31-4.87-21.84-5.16-25.42s.83-7.58,1.63-10.55c.3-1.1.56-2,.68-2.73a31,31,0,0,0,.39-6.84c-.06-1.58-.15-3.37-.42-5.83-.23-2.16-.56-4.5-.87-6.11,0-.22-.07-.45-.09-.68a4.06,4.06,0,0,1,.51-2.62,1.34,1.34,0,0,1,1.69-.52,2.11,2.11,0,0,1,.34.16c1.28.74,2.36,2.84,2.53,4.89a4.75,4.75,0,0,1,0,.65c-.05,1.47,0,3.7.1,5.82.12,2.39.33,4.23.52,5.87A43.83,43.83,0,0,0,432,96.62c.24.82.67,2,1.17,3.43,1.36,3.78,3.21,9,3.49,12.47s-.13,11.31-1.24,23a1.73,1.73,0,0,1-.8,1.62A3.21,3.21,0,0,1,431.49,136.74Z" style="fill:#fafafa"></path><path d="M427.32,72.16h0a6.06,6.06,0,0,1,2.31,4.47c0,.19,0,.37,0,.58-.05,1.49,0,3.73.1,5.87.12,2.41.33,4.27.53,5.91a44.43,44.43,0,0,0,1.57,7.68c.25.84.69,2.06,1.19,3.47,1.34,3.74,3.17,8.87,3.45,12.3s-.13,11.24-1.24,22.87v.1a1.48,1.48,0,0,1-.71,1.34,3.13,3.13,0,0,1-3-.35,6,6,0,0,1-1.68-1.43,4.28,4.28,0,0,1-1-2v-.06l0-.05c-3.11-13.23-4.84-21.73-5.13-25.27s.82-7.45,1.62-10.39c.3-1.11.56-2.06.69-2.77a31.15,31.15,0,0,0,.39-6.93c-.06-1.59-.15-3.41-.42-5.87-.23-2.18-.57-4.54-.87-6.15a6,6,0,0,1-.09-.63c-.17-2.06.74-3.34,2-2.86a1.41,1.41,0,0,1,.31.14m0-.68a2.53,2.53,0,0,0-.37-.18c-1.52-.57-2.59,1-2.39,3.42,0,.25.06.5.1.74.31,1.64.64,4,.86,6.06.26,2.34.35,4.08.42,5.79a30.08,30.08,0,0,1-.39,6.74c-.42,2.47-2.71,8.46-2.31,13.41s3.43,18.1,5.16,25.45a5.53,5.53,0,0,0,1.24,2.6,6.79,6.79,0,0,0,1.85,1.57,3.36,3.36,0,0,0,3.31.37,2,2,0,0,0,.88-1.79c.62-6.47,1.64-18.11,1.24-23s-3.82-13.09-4.69-16a43.24,43.24,0,0,1-1.53-7.46c-.21-1.77-.4-3.54-.52-5.83-.11-2-.15-4.27-.1-5.78a5.68,5.68,0,0,0,0-.71c-.18-2.26-1.38-4.52-2.75-5.31Z" style="fill:#455a64"></path><path d="M426,87.88a3.58,3.58,0,0,0,.82,1.8c1,1.23,2.55,1.81,3.42,1.29a1.33,1.33,0,0,0,.57-1.27c0-.2,0-.4-.07-.59-.08-.65-.15-1.29-.22-2a1.29,1.29,0,0,1-.55,1.22c-.84.5-2.32,0-3.29-1.24a3.49,3.49,0,0,1-.79-1.64c0,.62.07,1.22.09,1.82C426,87.5,426,87.69,426,87.88Z" style="fill:#FFC100"></path><path d="M426.77,96.21c1.35,1.63,3.37,2.39,4.52,1.7a1.94,1.94,0,0,0,.69-2.25l0-.11c-.2-.73-.37-1.41-.51-2a1.53,1.53,0,0,1-.66,1.59c-1,.61-2.76,0-3.92-1.47a3.89,3.89,0,0,1-1-2.26c0,.56-.11,1.16-.2,1.79,0,0,0,0,0,0A4.14,4.14,0,0,0,426.77,96.21Z" style="fill:#FFC100"></path><path d="M425.33,147.71a4.14,4.14,0,0,1-.61-.42,4,4,0,0,1-1.32-2c-4.78-12.83-7.59-21.17-8.38-24.84s-.41-8.37-.14-11.84c.1-1.28.19-2.39.19-3.17a39.4,39.4,0,0,0-.68-7.4c-.29-1.66-.65-3.54-1.25-6-.53-2.2-1.17-4.55-1.68-6.12-.07-.22-.14-.45-.19-.68a5.68,5.68,0,0,1,.06-3A1.59,1.59,0,0,1,412.76,81a1.79,1.79,0,0,1,.9.27,6.16,6.16,0,0,1,2.39,3.92c.05.24.08.47.11.69.18,1.58.54,3.93,1,6.12.47,2.49.93,4.36,1.35,6a44.55,44.55,0,0,0,2.51,7.39c.34.77.9,1.88,1.55,3.16,1.77,3.45,4.19,8.19,5,11.8s1.58,12,2.34,24.83a2.66,2.66,0,0,1-.46,2A3.09,3.09,0,0,1,425.33,147.71Z" style="fill:#fafafa"></path><path d="M413.66,81.64h0a5.63,5.63,0,0,1,2.18,3.58,4,4,0,0,1,.1.62c.18,1.6.55,4,1,6.18.47,2.5.93,4.39,1.36,6a44.72,44.72,0,0,0,2.54,7.49c.35.79.92,1.91,1.58,3.2,1.74,3.42,4.14,8.11,4.9,11.63s1.57,12,2.33,24.73v.12a2.2,2.2,0,0,1-.43,1.7,3,3,0,0,1-3.87.43,4.49,4.49,0,0,1-.57-.4,3.47,3.47,0,0,1-1.16-1.69l0-.06,0-.06c-4.75-12.74-7.55-21-8.34-24.68s-.39-8.23-.12-11.67c.1-1.3.19-2.42.19-3.21a39.57,39.57,0,0,0-.69-7.51c-.29-1.66-.65-3.55-1.25-6-.54-2.21-1.19-4.57-1.7-6.16-.07-.23-.13-.43-.17-.63a5.25,5.25,0,0,1,0-2.72c.26-.72.72-1.13,1.3-1.13a1.67,1.67,0,0,1,.83.24m0-.68a2,2,0,0,0-1-.29c-1.44,0-2.16,2.06-1.62,4.59q.09.38.21.75c.52,1.61,1.16,3.95,1.67,6.07.58,2.38.92,4.17,1.24,6a38.73,38.73,0,0,1,.67,7.3c0,2.78-1.14,10.06,0,15.14s5.75,17.79,8.39,24.88a4.47,4.47,0,0,0,1.49,2.24,3.9,3.9,0,0,0,.64.45,3.21,3.21,0,0,0,4.22-.48,2.93,2.93,0,0,0,.51-2.26c-.42-7.1-1.26-19.84-2.35-24.92s-5.36-12.32-6.57-15.09A44.86,44.86,0,0,1,418.67,98c-.46-1.79-.89-3.58-1.34-6-.4-2.12-.77-4.46-.95-6.08a6.86,6.86,0,0,0-.12-.75,6.65,6.65,0,0,0-2.6-4.26Z" style="fill:#455a64"></path><path d="M414.28,98.64a3,3,0,0,0,1,1.57,2.25,2.25,0,0,0,3.22,0,2,2,0,0,0,.32-1.57c-.05-.22-.11-.42-.15-.6-.17-.66-.33-1.31-.49-2a1.89,1.89,0,0,1-.31,1.52,2.16,2.16,0,0,1-3.1,0,2.85,2.85,0,0,1-.94-1.43c.13.64.24,1.28.35,1.9C414.21,98.24,414.24,98.44,414.28,98.64Z" style="fill:#FFC100"></path><path d="M416.25,107.13c1.44,1.18,3.35,1.17,4.26,0a2.72,2.72,0,0,0,.27-2.66.42.42,0,0,0,0-.1q-.44-1.05-.75-2a2.29,2.29,0,0,1-.35,2c-.8,1-2.45,1.06-3.7,0a3.32,3.32,0,0,1-1.19-2c0,.61.07,1.26.08,2v0A3.75,3.75,0,0,0,416.25,107.13Z" style="fill:#FFC100"></path><ellipse cx="443.46" cy="137.36" rx="10.65" ry="19.93" transform="translate(-20.78 136.17) rotate(-17.06)" style="fill:#fafafa"></ellipse><path d="M443.46,155.78c-6.59-3.81-12-15.17-12-25.33s5.37-15.32,12-11.51,12,15.17,12,25.32S450.06,159.58,443.46,155.78Zm0-36.16c-6.35-3.67-11.52,1.31-11.52,11.09s5.17,20.71,11.52,24.38S455,153.79,455,144,449.81,123.29,443.46,119.62Z" style="fill:#455a64"></path><path d="M446.24,129.4c-.33.59-1.21.1-2-1.09s-1.09-2.63-.75-3.22,1.21-.1,2,1.09S446.58,128.81,446.24,129.4Z" style="fill:#fafafa"></path><path d="M445.4,129.85a3.84,3.84,0,0,1-1.24-1.33c-.86-1.37-1.22-3-.82-3.73s1.4-.2,2.27,1.18,1.22,3,.82,3.73h0c-.2.35-.56.41-1,.17Zm-1-4.53c-.29-.16-.53-.16-.66.06-.26.46.06,1.71.69,2.71a3.32,3.32,0,0,0,1,1.08h0c.29.16.52.14.64-.07h0c.26-.46-.06-1.71-.7-2.71A3.2,3.2,0,0,0,444.37,125.32Z" style="fill:#455a64"></path><path d="M450.91,138.26c-.43.41-1.29-.34-1.92-1.69s-.8-2.76-.38-3.17,1.29.34,1.93,1.68S451.34,137.85,450.91,138.26Z" style="fill:#fafafa"></path><path d="M450.28,138.6a4.31,4.31,0,0,1-1.45-1.88c-.73-1.55-.9-3.15-.37-3.66.26-.25.64-.17,1.08.21a5.08,5.08,0,0,1,1.16,1.66,7.38,7.38,0,0,1,.64,2.15,1.85,1.85,0,0,1-.27,1.51A.61.61,0,0,1,450.28,138.6Zm-1-4.86c-.19-.11-.35-.12-.47,0-.33.32-.16,1.55.37,2.69s1.28,1.83,1.61,1.5.17-1.55-.37-2.69A3.46,3.46,0,0,0,449.24,133.74Z" style="fill:#455a64"></path><path d="M450.78,131.55c-.33.41-1.1-.2-1.71-1.36s-.84-2.42-.51-2.83,1.09.21,1.7,1.36S451.11,131.15,450.78,131.55Z" style="fill:#fafafa"></path><path d="M450.2,131.92a4,4,0,0,1-1.27-1.55c-.72-1.36-1-2.82-.54-3.33.21-.26.55-.22.95.1a4.54,4.54,0,0,1,1.07,1.41,6.64,6.64,0,0,1,.68,1.89,1.87,1.87,0,0,1-.14,1.43h0A.54.54,0,0,1,450.2,131.92Zm-1.07-4.24c-.14-.08-.3-.13-.4,0-.25.3,0,1.37.49,2.33s1.14,1.52,1.39,1.22h0a1.29,1.29,0,0,0,.05-.83,5,5,0,0,0-.54-1.5,3.7,3.7,0,0,0-.85-1.12A.71.71,0,0,0,449.13,127.68Z" style="fill:#455a64"></path><path d="M453.74,134.87a.44.44,0,0,1-.19-.27c-.07-.2,0-.39.07-.43l9.79-3.66-11.15-4.78a.47.47,0,0,1-.22-.31.44.44,0,0,1,0-.37l7.34-8.37-10.72,1.55c-.08,0-.19-.08-.26-.23a.56.56,0,0,1,0-.42l7.45-14.88-9.94,8.75c-.07.06-.17,0-.26-.09a.73.73,0,0,1-.12-.42l2.56-26.71L440,106.09c0,.1-.12.14-.21.07a.55.55,0,0,1-.2-.34l-5-25.19.5,23.68c0,.19-.09.29-.21.23a.57.57,0,0,1-.23-.46l-.55-26c0-.17.07-.27.18-.24a.46.46,0,0,1,.25.37l5.3,26.72L448.32,82c.05-.13.16-.14.27,0a.63.63,0,0,1,.15.46l-2.67,27.91L456.72,101c.09-.07.21,0,.3.15a.62.62,0,0,1,.05.47l-7.91,15.78,11-1.59c.1,0,.21.09.28.26a.48.48,0,0,1,0,.43l-7.69,8.77,11.53,4.94a.5.5,0,0,1,.24.36c0,.17,0,.32-.1.35l-10.6,4A.15.15,0,0,1,453.74,134.87Z" style="fill:#455a64"></path></g></g><g id="freepik--bowling-2--inject-84"><g id="freepik--bowling-pins--inject-84"><g id="freepik--bowling-pin--inject-84"><path d="M409.62,390.65c0-6.33,5.9-15.38,7.23-18.85a28.36,28.36,0,0,0,2-9.08,62.75,62.75,0,0,0-.67-15h0a5.63,5.63,0,0,1-.1-.93,5.7,5.7,0,0,1,11.4,0,5.63,5.63,0,0,1-.1.93h0a62.75,62.75,0,0,0-.67,15,28.36,28.36,0,0,0,2,9.08c1.33,3.47,7.23,12.52,7.23,18.85s-4.19,22.21-6.61,31.05h0a3.94,3.94,0,0,1-2.2,2.81,11.78,11.78,0,0,1-10.66,0,3.92,3.92,0,0,1-2.19-2.81h0C413.81,412.86,409.62,397,409.62,390.65Z" style="fill:#f5f5f5"></path><path d="M423.76,342.07a4.71,4.71,0,0,1,4.7,4.7,4.17,4.17,0,0,1-.08.75,62.51,62.51,0,0,0-.81,7.71,61.32,61.32,0,0,0,.12,7.55,29.6,29.6,0,0,0,2,9.38c.38,1,1.11,2.39,1.94,4,2.21,4.27,5.23,10.12,5.23,14.49,0,4.53-2.21,14.89-6.58,30.79l0,.08v.08a3,3,0,0,1-1.7,2,10.8,10.8,0,0,1-9.66,0,3,3,0,0,1-1.7-2.05v-.08l0-.07c-4.37-15.91-6.58-26.26-6.58-30.79,0-4.37,3-10.22,5.23-14.49.83-1.61,1.56-3,1.94-4a29.6,29.6,0,0,0,2-9.38,63.28,63.28,0,0,0-.69-15.24,4.61,4.61,0,0,1,4.62-5.47m0-1a5.7,5.7,0,0,0-5.7,5.7,5.63,5.63,0,0,0,.1.93,62.75,62.75,0,0,1,.67,15,28.36,28.36,0,0,1-2,9.08c-1.33,3.47-7.23,12.52-7.23,18.85s4.19,22.21,6.62,31.05a3.92,3.92,0,0,0,2.19,2.81,11.82,11.82,0,0,0,10.66,0,3.94,3.94,0,0,0,2.2-2.81c2.42-8.84,6.61-24.71,6.61-31.05s-5.9-15.38-7.23-18.85a28.36,28.36,0,0,1-2-9.08,62.75,62.75,0,0,1,.67-15,5.63,5.63,0,0,0,.1-.93,5.7,5.7,0,0,0-5.7-5.7Z" style="fill:#e0e0e0"></path><path d="M418.78,363.45a2.54,2.54,0,0,0,1.45,2,7.84,7.84,0,0,0,7.06,0,2.49,2.49,0,0,0,1.44-1.95c0-.27,0-.52-.05-.75-.05-.82-.09-1.63-.13-2.47a2.45,2.45,0,0,1-1.39,1.89,7.54,7.54,0,0,1-6.8,0,2.49,2.49,0,0,1-1.39-1.79c0,.81-.08,1.59-.13,2.37C418.82,363,418.8,363.2,418.78,363.45Z" style="fill:#FFC100"></path><path d="M419.09,374a10.32,10.32,0,0,0,9.34,0c1.56-.9,2.18-2.14,1.85-3.3a.5.5,0,0,0,0-.13,23.82,23.82,0,0,1-.73-2.43,2.81,2.81,0,0,1-1.7,2.43,9,9,0,0,1-8.11,0,2.73,2.73,0,0,1-1.66-2.5c-.2.76-.44,1.58-.75,2.47l0,0C416.87,371.81,417.47,373.11,419.09,374Z" style="fill:#FFC100"></path><path d="M426.44,424.51c-2.65,0-4.76-.13-7.65-12.52s-4.47-24.14-.24-35.29c4.58-12.09,3.73-18.88,2.84-25.33-.78-5.68.48-11,5-9.65a5.6,5.6,0,0,0-8.19,6,62.75,62.75,0,0,1,.67,15,28.36,28.36,0,0,1-2,9.08c-1.33,3.47-7.23,12.52-7.23,18.85s4.19,22.21,6.61,31.05a3.94,3.94,0,0,0,2.2,2.81,11.78,11.78,0,0,0,10.66,0,3.92,3.92,0,0,0,2.19-2.81C430.92,423,429.09,424.51,426.44,424.51Z" style="opacity:0.15"></path></g><g id="freepik--bowling-pin--inject-84"><path d="M384.41,399.18c0-6.34,5.9-15.39,7.23-18.85a28.36,28.36,0,0,0,2-9.09,62.7,62.7,0,0,0-.67-15h0a4.92,4.92,0,0,1-.1-.94,5.7,5.7,0,0,1,11.4,0,5.88,5.88,0,0,1-.1.94h0a61.33,61.33,0,0,0-.79,7.57,63.15,63.15,0,0,0,.11,7.44,28.92,28.92,0,0,0,2,9.09c1.34,3.46,7.24,12.51,7.24,18.85s-4.19,22.21-6.62,31.05h0a3.91,3.91,0,0,1-2.19,2.8,11.78,11.78,0,0,1-10.66,0,3.92,3.92,0,0,1-2.2-2.8h0C388.6,421.38,384.41,405.51,384.41,399.18Z" style="fill:#f5f5f5"></path><path d="M398.55,350.6a4.7,4.7,0,0,1,4.7,4.69,5.18,5.18,0,0,1-.08.75,62.69,62.69,0,0,0-.81,7.72,61.37,61.37,0,0,0,.12,7.55,29.6,29.6,0,0,0,2,9.38c.38,1,1.1,2.39,1.94,4,2.21,4.27,5.23,10.12,5.23,14.49,0,4.53-2.21,14.89-6.58,30.79l0,.07v.08a3,3,0,0,1-1.7,2.05,10.8,10.8,0,0,1-9.66,0,3,3,0,0,1-1.7-2.05V430l0-.08c-4.37-15.9-6.58-26.26-6.58-30.78s3-10.22,5.23-14.49c.83-1.61,1.55-3,1.94-4a29.88,29.88,0,0,0,2-9.38,61.64,61.64,0,0,0,.11-7.55,60.41,60.41,0,0,0-.8-7.7,4.48,4.48,0,0,1-.08-.77,4.7,4.7,0,0,1,4.7-4.69m0-1a5.7,5.7,0,0,0-5.7,5.69,4.92,4.92,0,0,0,.1.94,62.7,62.7,0,0,1,.67,15,28.36,28.36,0,0,1-2,9.09c-1.33,3.46-7.23,12.51-7.23,18.85s4.19,22.2,6.61,31.05a3.92,3.92,0,0,0,2.2,2.8,11.74,11.74,0,0,0,10.66,0,3.91,3.91,0,0,0,2.19-2.8c2.43-8.84,6.62-24.72,6.62-31.05s-5.9-15.39-7.24-18.85a28.92,28.92,0,0,1-2-9.09,63.15,63.15,0,0,1-.11-7.44,61.33,61.33,0,0,1,.79-7.57,5.88,5.88,0,0,0,.1-.94,5.7,5.7,0,0,0-5.7-5.69Z" style="fill:#e0e0e0"></path><path d="M393.57,372a2.52,2.52,0,0,0,1.45,2,7.9,7.9,0,0,0,7.06,0,2.51,2.51,0,0,0,1.44-2c0-.26,0-.51,0-.75-.05-.81-.09-1.62-.13-2.46a2.46,2.46,0,0,1-1.39,1.89,7.6,7.6,0,0,1-6.8,0,2.49,2.49,0,0,1-1.39-1.79c0,.8-.08,1.59-.13,2.36Z" style="fill:#FFC100"></path><path d="M393.87,382.57a10.4,10.4,0,0,0,9.35,0c1.56-.91,2.18-2.14,1.85-3.31l0-.13a23.09,23.09,0,0,1-.73-2.43,2.82,2.82,0,0,1-1.7,2.43,8.92,8.92,0,0,1-8.11,0,2.75,2.75,0,0,1-1.67-2.49c-.19.76-.43,1.57-.74,2.47l0,0C391.66,380.34,392.26,381.64,393.87,382.57Z" style="fill:#FFC100"></path><path d="M401.14,433c-2.66,0-4.76-.14-7.66-12.52s-4.46-24.14-.24-35.29c4.58-12.09,3.73-18.89,2.85-25.33-.78-5.68.48-11,5-9.66a5.63,5.63,0,0,0-2.58-.64,5.7,5.7,0,0,0-5.7,5.69,5.87,5.87,0,0,0,.09.94,59.45,59.45,0,0,1,.79,7.57,61.05,61.05,0,0,1-.11,7.44,28.64,28.64,0,0,1-2,9.09c-1.33,3.46-7.23,12.51-7.23,18.85s4.18,22.21,6.61,31.05a3.9,3.9,0,0,0,2.2,2.8,11.78,11.78,0,0,0,10.66,0,3.91,3.91,0,0,0,2.19-2.8C405.62,431.54,403.79,433,401.14,433Z" style="opacity:0.15"></path></g><g id="freepik--bowling-pin--inject-84"><path d="M426.89,410.19c0-6.34,5.9-15.38,7.23-18.85a28.36,28.36,0,0,0,2-9.09,62.7,62.7,0,0,0-.67-15h0a5.88,5.88,0,0,1-.1-.94,5.7,5.7,0,0,1,11.4,0,5.88,5.88,0,0,1-.1.94h0a62.7,62.7,0,0,0-.67,15,28.56,28.56,0,0,0,2,9.09c1.34,3.47,7.24,12.51,7.24,18.85s-4.19,22.21-6.61,31.05h0a3.94,3.94,0,0,1-2.2,2.81,11.78,11.78,0,0,1-10.66,0,4,4,0,0,1-2.2-2.81h0C431.08,432.39,426.89,416.52,426.89,410.19Z" style="fill:#f5f5f5"></path><path d="M441,361.61a4.7,4.7,0,0,1,4.7,4.69,5.47,5.47,0,0,1-.08.76,62.3,62.3,0,0,0-.81,7.71,61.37,61.37,0,0,0,.12,7.55,29.6,29.6,0,0,0,2,9.38c.38,1,1.1,2.39,1.94,4,2.21,4.27,5.23,10.12,5.23,14.49,0,4.53-2.21,14.89-6.58,30.79l0,.07v.08a3,3,0,0,1-1.7,2.05,10.8,10.8,0,0,1-9.66,0,3,3,0,0,1-1.7-2.05v-.08l0-.08c-4.37-15.9-6.58-26.25-6.58-30.78,0-4.37,3-10.22,5.23-14.49.83-1.61,1.55-3,1.94-4a29.6,29.6,0,0,0,2-9.38,63.43,63.43,0,0,0,.12-7.55,61.73,61.73,0,0,0-.81-7.69,4.61,4.61,0,0,1,4.62-5.47m0-1a5.7,5.7,0,0,0-5.7,5.69,5.88,5.88,0,0,0,.1.94,62.7,62.7,0,0,1,.67,15,28.36,28.36,0,0,1-2,9.09c-1.33,3.46-7.23,12.51-7.23,18.85s4.19,22.2,6.61,31.05a4,4,0,0,0,2.2,2.81,11.82,11.82,0,0,0,10.66,0,3.94,3.94,0,0,0,2.2-2.81c2.42-8.84,6.61-24.72,6.61-31.05s-5.9-15.39-7.23-18.85a28.36,28.36,0,0,1-2-9.09,62.7,62.7,0,0,1,.67-15,5.88,5.88,0,0,0,.1-.94,5.7,5.7,0,0,0-5.7-5.69Z" style="fill:#e0e0e0"></path><path d="M436.05,383a2.54,2.54,0,0,0,1.45,2,7.9,7.9,0,0,0,7.06,0,2.49,2.49,0,0,0,1.44-2c0-.26,0-.51-.05-.75-.05-.81-.09-1.62-.13-2.46a2.46,2.46,0,0,1-1.39,1.89,7.6,7.6,0,0,1-6.8,0,2.49,2.49,0,0,1-1.39-1.79c0,.8-.08,1.59-.13,2.36Z" style="fill:#FFC100"></path><path d="M436.36,393.58a10.38,10.38,0,0,0,9.34,0c1.56-.9,2.18-2.14,1.85-3.31l0-.13a23.09,23.09,0,0,1-.73-2.43,2.81,2.81,0,0,1-1.7,2.43,8.92,8.92,0,0,1-8.11,0,2.72,2.72,0,0,1-1.66-2.49c-.2.76-.44,1.57-.75,2.47,0,0,0,0,0,0C434.14,391.35,434.74,392.65,436.36,393.58Z" style="fill:#FFC100"></path><path d="M443.71,444.05c-2.65,0-4.76-.13-7.65-12.52s-4.47-24.14-.24-35.29c4.58-12.09,3.73-18.89,2.84-25.33-.78-5.68.48-11,4.95-9.66a5.57,5.57,0,0,0-2.58-.64,5.7,5.7,0,0,0-5.7,5.69,5.88,5.88,0,0,0,.1.94,62.7,62.7,0,0,1,.67,15,28.36,28.36,0,0,1-2,9.09c-1.33,3.47-7.23,12.51-7.23,18.85s4.18,22.21,6.61,31.05a3.94,3.94,0,0,0,2.2,2.81,11.78,11.78,0,0,0,10.66,0,3.92,3.92,0,0,0,2.19-2.81C448.19,442.56,446.36,444.05,443.71,444.05Z" style="opacity:0.15"></path></g></g></g><g id="freepik--bowling-1--inject-84"><path id="freepik--shadow--inject-84" d="M116.08,419.46c-5.84-3.37-15.32-3.37-21.16,0s-5.84,8.85,0,12.22,15.32,3.37,21.16,0S121.92,422.84,116.08,419.46Zm29.76-6.3c-3.86-2.23-9.31-3-14.25-2.26,1.52-2.94.27-6.26-3.76-8.58-5.84-3.38-15.32-3.38-21.16,0s-5.84,8.84,0,12.21c3.86,2.23,9.31,3,14.25,2.26-1.52,2.94-.26,6.26,3.76,8.58,5.84,3.38,15.32,3.38,21.16,0S151.69,416.53,145.84,413.16Zm32.55-6.44c-3.7-2.14-8.85-2.92-13.62-2.35,1.15-2.82-.15-5.91-4-8.11s-8.86-2.91-13.63-2.34c1.16-2.82-.15-5.91-4-8.11-5.85-3.37-15.32-3.37-21.16,0s-5.85,8.84,0,12.22c3.7,2.13,8.85,2.91,13.62,2.34-1.16,2.82.15,5.91,4,8.11s8.86,2.92,13.63,2.35c-1.16,2.82.15,5.91,4,8.1,5.85,3.38,15.32,3.38,21.16,0S184.24,410.09,178.39,406.72Z" style="fill:#FFC100;opacity:0.30000000000000004"></path><g id="freepik--bowling-pin--inject-84"><g id="freepik--bowling-pin--inject-84"><path d="M143.24,364.65c0-5.46-5.08-13.26-6.23-16.25a24.75,24.75,0,0,1-1.71-7.83,52.65,52.65,0,0,1-.09-6.41,50.35,50.35,0,0,1,.68-6.53h0a5.29,5.29,0,0,0,.08-.8,4.91,4.91,0,0,0-9.82,0,5.29,5.29,0,0,0,.08.8h0a52.17,52.17,0,0,1,.68,6.53,50.52,50.52,0,0,1-.1,6.41,24.67,24.67,0,0,1-1.7,7.83c-1.15,3-6.24,10.79-6.24,16.25s3.61,19.13,5.7,26.76h0a3.38,3.38,0,0,0,1.89,2.41,10.13,10.13,0,0,0,9.19,0,3.35,3.35,0,0,0,1.89-2.42h0C139.64,383.78,143.24,370.1,143.24,364.65Z" style="fill:#f5f5f5"></path><path d="M131.06,322.92a3.92,3.92,0,0,1,3.91,3.91,3.68,3.68,0,0,1-.07.62,51.89,51.89,0,0,0-.69,6.66,53.58,53.58,0,0,0,.09,6.53,26,26,0,0,0,1.78,8.12c.33.87.95,2.07,1.67,3.46,1.9,3.67,4.49,8.69,4.49,12.43s-1.9,12.8-5.66,26.49l0,.08v.08a2.5,2.5,0,0,1-1.4,1.66,9.21,9.21,0,0,1-8.19,0,2.49,2.49,0,0,1-1.39-1.66v-.08l0-.08c-3.76-13.69-5.67-22.6-5.67-26.49,0-3.74,2.6-8.76,4.49-12.43a36.6,36.6,0,0,0,1.68-3.46,25.64,25.64,0,0,0,1.77-8.12,55.59,55.59,0,0,0-.59-13.17,4.14,4.14,0,0,1-.07-.64,3.91,3.91,0,0,1,3.91-3.91m0-1a4.91,4.91,0,0,0-4.91,4.91,5.29,5.29,0,0,0,.08.8,52.17,52.17,0,0,1,.68,6.53,50.52,50.52,0,0,1-.1,6.41,24.67,24.67,0,0,1-1.7,7.83c-1.15,3-6.24,10.79-6.24,16.25s3.61,19.13,5.7,26.76a3.38,3.38,0,0,0,1.89,2.41,10.15,10.15,0,0,0,9.19,0,3.35,3.35,0,0,0,1.89-2.42c2.1-7.62,5.7-21.3,5.7-26.75s-5.08-13.26-6.23-16.25a24.75,24.75,0,0,1-1.71-7.83,52.65,52.65,0,0,1-.09-6.41,50.35,50.35,0,0,1,.68-6.53,5.29,5.29,0,0,0,.08-.8,4.91,4.91,0,0,0-4.91-4.91Z" style="fill:#e0e0e0"></path><path d="M135.35,341.21a2.19,2.19,0,0,1-1.25,1.69,6.78,6.78,0,0,1-6.08,0,2.15,2.15,0,0,1-1.25-1.68c0-.23,0-.44,0-.65,0-.7.08-1.4.11-2.12a2.1,2.1,0,0,0,1.2,1.63,6.57,6.57,0,0,0,5.86,0,2.21,2.21,0,0,0,1.2-1.54c0,.69.07,1.37.11,2C135.31,340.78,135.33,341,135.35,341.21Z" style="fill:#FFC100"></path><path d="M135.09,350.33a8.94,8.94,0,0,1-8.06,0c-1.34-.78-1.87-1.84-1.59-2.85l0-.11a21.79,21.79,0,0,0,.64-2.09,2.4,2.4,0,0,0,1.45,2.09,7.69,7.69,0,0,0,7,0,2.35,2.35,0,0,0,1.44-2.15c.17.66.37,1.36.65,2.13v0C137,348.41,136.48,349.53,135.09,350.33Z" style="fill:#FFC100"></path><path d="M133.37,393.82c-2.29,0-4.11-.11-6.6-10.79s-3.84-20.8-.2-30.41c3.94-10.41,3.21-16.27,2.45-21.82-.68-4.9.41-9.45,4.27-8.33a5,5,0,0,0-2.23-.55,4.91,4.91,0,0,0-4.91,4.91,5.29,5.29,0,0,0,.08.8,52.17,52.17,0,0,1,.68,6.53,50.52,50.52,0,0,1-.1,6.41,24.67,24.67,0,0,1-1.7,7.83c-1.15,3-6.24,10.79-6.24,16.25s3.61,19.13,5.7,26.76a3.38,3.38,0,0,0,1.89,2.41,10.13,10.13,0,0,0,9.19,0,3.35,3.35,0,0,0,1.89-2.42C137.23,392.54,135.65,393.82,133.37,393.82Z" style="opacity:0.15"></path></g><g id="freepik--bowling-pin--inject-84"><path d="M161.62,375.26c0-5.46-5.09-13.26-6.23-16.25a24.75,24.75,0,0,1-1.71-7.83,54.39,54.39,0,0,1,.58-12.94h0a4.26,4.26,0,0,0,.08-.8,4.91,4.91,0,1,0-9.81,0,4.26,4.26,0,0,0,.08.8h0a54.39,54.39,0,0,1,.58,12.94,24.75,24.75,0,0,1-1.71,7.83c-1.15,3-6.23,10.79-6.23,16.25s3.61,19.13,5.7,26.76h0a3.36,3.36,0,0,0,1.89,2.41,10.13,10.13,0,0,0,9.19,0,3.4,3.4,0,0,0,1.89-2.42h0C158,394.39,161.62,380.71,161.62,375.26Z" style="fill:#f5f5f5"></path><path d="M149.43,333.53a3.91,3.91,0,0,1,3.91,3.91,3.59,3.59,0,0,1-.06.62,53.79,53.79,0,0,0-.7,6.66,55.39,55.39,0,0,0,.1,6.53,25.93,25.93,0,0,0,1.77,8.12c.33.87,1,2.07,1.68,3.46,1.89,3.67,4.49,8.69,4.49,12.43s-1.91,12.8-5.66,26.49l0,.08v.08a2.5,2.5,0,0,1-1.4,1.66,9.21,9.21,0,0,1-8.19,0,2.5,2.5,0,0,1-1.4-1.66v-.08l0-.08c-3.76-13.69-5.66-22.6-5.66-26.49s2.6-8.76,4.49-12.43c.72-1.39,1.34-2.59,1.68-3.46a25.93,25.93,0,0,0,1.77-8.12,55.39,55.39,0,0,0,.1-6.53,52.81,52.81,0,0,0-.7-6.64,4,4,0,0,1-.06-.64,3.91,3.91,0,0,1,3.9-3.91m0-1a4.9,4.9,0,0,0-4.9,4.91,4.26,4.26,0,0,0,.08.8,54.39,54.39,0,0,1,.58,12.94,24.75,24.75,0,0,1-1.71,7.83c-1.15,3-6.23,10.79-6.23,16.25s3.61,19.13,5.7,26.76a3.36,3.36,0,0,0,1.89,2.41,10.15,10.15,0,0,0,9.19,0,3.4,3.4,0,0,0,1.89-2.42c2.09-7.62,5.7-21.3,5.7-26.75S156.53,362,155.39,359a24.75,24.75,0,0,1-1.71-7.83,54.39,54.39,0,0,1,.58-12.94,4.26,4.26,0,0,0,.08-.8,4.9,4.9,0,0,0-4.91-4.91Z" style="fill:#e0e0e0"></path><path d="M153.72,351.82a2.15,2.15,0,0,1-1.24,1.69,6.8,6.8,0,0,1-6.09,0,2.14,2.14,0,0,1-1.24-1.68c0-.23,0-.44,0-.65.05-.7.08-1.4.12-2.12a2.1,2.1,0,0,0,1.2,1.63,6.57,6.57,0,0,0,5.86,0,2.17,2.17,0,0,0,1.19-1.54c0,.69.07,1.37.12,2C153.69,351.39,153.71,351.6,153.72,351.82Z" style="fill:#FFC100"></path><path d="M153.46,360.94a8.92,8.92,0,0,1-8.05,0c-1.35-.78-1.88-1.84-1.6-2.85a.49.49,0,0,0,0-.11,21.55,21.55,0,0,0,.63-2.09,2.41,2.41,0,0,0,1.46,2.09,7.69,7.69,0,0,0,7,0,2.35,2.35,0,0,0,1.44-2.15c.17.66.37,1.36.64,2.13,0,0,0,0,0,0C155.37,359,154.85,360.14,153.46,360.94Z" style="fill:#FFC100"></path><path d="M151.74,404.43c-2.28,0-4.1-.11-6.59-10.79s-3.85-20.8-.21-30.41c3.95-10.41,3.22-16.27,2.45-21.82-.67-4.9.42-9.45,4.27-8.33a4.88,4.88,0,0,0-7.13,4.36,4.26,4.26,0,0,0,.08.8,54.39,54.39,0,0,1,.58,12.94,24.75,24.75,0,0,1-1.71,7.83c-1.15,3-6.23,10.79-6.23,16.25s3.61,19.13,5.7,26.76a3.36,3.36,0,0,0,1.89,2.41,10.13,10.13,0,0,0,9.19,0,3.4,3.4,0,0,0,1.89-2.42C155.61,403.15,154,404.43,151.74,404.43Z" style="opacity:0.15"></path></g><g id="freepik--bowling-pin--inject-84"><path d="M180,385.87c0-5.46-5.09-13.26-6.24-16.25a24.67,24.67,0,0,1-1.7-7.83,50.52,50.52,0,0,1-.1-6.41,52.17,52.17,0,0,1,.68-6.53h0a5.29,5.29,0,0,0,.08-.8,4.91,4.91,0,1,0-9.82,0,5.29,5.29,0,0,0,.08.8h0a50.35,50.35,0,0,1,.68,6.53,52.65,52.65,0,0,1-.09,6.41,24.75,24.75,0,0,1-1.71,7.83c-1.15,3-6.23,10.79-6.23,16.25s3.6,19.13,5.7,26.76h0a3.33,3.33,0,0,0,1.89,2.41,10.13,10.13,0,0,0,9.19,0,3.4,3.4,0,0,0,1.89-2.42h0C176.39,405,180,391.32,180,385.87Z" style="fill:#f5f5f5"></path><path d="M167.81,344.14a3.91,3.91,0,0,1,3.91,3.91,5,5,0,0,1-.06.62,53.58,53.58,0,0,0-.7,6.66,55.39,55.39,0,0,0,.1,6.53,25.64,25.64,0,0,0,1.77,8.12,36.6,36.6,0,0,0,1.68,3.46c1.89,3.67,4.49,8.69,4.49,12.43s-1.91,12.8-5.67,26.49l0,.08v.08a2.49,2.49,0,0,1-1.39,1.66,9.21,9.21,0,0,1-8.19,0,2.48,2.48,0,0,1-1.4-1.66v-.08l0-.08c-3.76-13.69-5.66-22.6-5.66-26.49s2.59-8.76,4.49-12.43c.72-1.39,1.34-2.59,1.67-3.46a25.64,25.64,0,0,0,1.77-8.12,51.35,51.35,0,0,0,.1-6.53,53,53,0,0,0-.69-6.64,4.14,4.14,0,0,1-.07-.64,3.92,3.92,0,0,1,3.91-3.91m0-1a4.91,4.91,0,0,0-4.91,4.91,5.29,5.29,0,0,0,.08.8,50.35,50.35,0,0,1,.68,6.53,52.65,52.65,0,0,1-.09,6.41,24.75,24.75,0,0,1-1.71,7.83c-1.15,3-6.23,10.79-6.23,16.25s3.6,19.13,5.7,26.76a3.33,3.33,0,0,0,1.89,2.41,10.15,10.15,0,0,0,9.19,0,3.4,3.4,0,0,0,1.89-2.42c2.09-7.62,5.7-21.3,5.7-26.75s-5.09-13.26-6.24-16.25a24.67,24.67,0,0,1-1.7-7.83,50.52,50.52,0,0,1-.1-6.41,52.17,52.17,0,0,1,.68-6.53,5.29,5.29,0,0,0,.08-.8,4.91,4.91,0,0,0-4.91-4.91Z" style="fill:#e0e0e0"></path><path d="M172.1,362.43a2.15,2.15,0,0,1-1.24,1.69,6.8,6.8,0,0,1-6.09,0,2.14,2.14,0,0,1-1.24-1.68c0-.23,0-.44,0-.65.05-.7.08-1.4.11-2.12a2.13,2.13,0,0,0,1.2,1.63,6.57,6.57,0,0,0,5.86,0,2.19,2.19,0,0,0,1.2-1.54c0,.69.07,1.37.11,2C172.07,362,172.09,362.21,172.1,362.43Z" style="fill:#FFC100"></path><path d="M171.84,371.55a8.92,8.92,0,0,1-8.05,0c-1.35-.78-1.88-1.84-1.6-2.85a.49.49,0,0,1,0-.11,21.55,21.55,0,0,0,.63-2.09,2.41,2.41,0,0,0,1.46,2.09,7.69,7.69,0,0,0,7,0,2.34,2.34,0,0,0,1.43-2.15c.17.66.38,1.36.65,2.13,0,0,0,0,0,0C173.75,369.63,173.23,370.75,171.84,371.55Z" style="fill:#FFC100"></path><path d="M170.12,415c-2.28,0-4.1-.11-6.59-10.79s-3.85-20.8-.21-30.41c4-10.41,3.21-16.27,2.45-21.82-.67-4.9.41-9.45,4.27-8.33a4.89,4.89,0,0,0-7.14,4.36,5.29,5.29,0,0,0,.08.8,50.35,50.35,0,0,1,.68,6.53,52.65,52.65,0,0,1-.09,6.41,24.75,24.75,0,0,1-1.71,7.83c-1.15,3-6.23,10.79-6.23,16.25s3.6,19.13,5.7,26.76a3.33,3.33,0,0,0,1.89,2.41,10.13,10.13,0,0,0,9.19,0,3.4,3.4,0,0,0,1.89-2.42C174,413.76,172.41,415,170.12,415Z" style="opacity:0.15"></path></g><g id="freepik--bowling-pin--inject-84"><path d="M128.36,381.48c0-5.46-5.08-13.25-6.23-16.24a24.81,24.81,0,0,1-1.71-7.83,54.64,54.64,0,0,1-.1-6.41,53.9,53.9,0,0,1,.68-6.53h0a4.27,4.27,0,0,0,.09-.81,4.91,4.91,0,1,0-9.82,0,4.28,4.28,0,0,0,.08.81h0A53.9,53.9,0,0,1,112,351a54.64,54.64,0,0,1-.1,6.41,24.81,24.81,0,0,1-1.71,7.83c-1.14,3-6.23,10.78-6.23,16.24s3.61,19.14,5.7,26.76h0a3.37,3.37,0,0,0,1.89,2.42,10.19,10.19,0,0,0,9.19,0,3.4,3.4,0,0,0,1.89-2.42h0C124.75,400.62,128.36,386.94,128.36,381.48Z" style="fill:#f5f5f5"></path><path d="M116.18,339.75a3.92,3.92,0,0,1,3.91,3.91,3.68,3.68,0,0,1-.07.63,53.58,53.58,0,0,0-.7,6.66,55.48,55.48,0,0,0,.1,6.53,26,26,0,0,0,1.77,8.12c.34.86,1,2.07,1.68,3.46,1.89,3.67,4.49,8.69,4.49,12.42,0,3.89-1.9,12.8-5.66,26.5l0,.07v.08a2.46,2.46,0,0,1-1.4,1.66,9.13,9.13,0,0,1-8.19,0,2.46,2.46,0,0,1-1.4-1.66v-.08l0-.07c-3.75-13.69-5.66-22.61-5.66-26.5,0-3.73,2.6-8.75,4.49-12.42.72-1.39,1.35-2.6,1.68-3.46a25.75,25.75,0,0,0,1.77-8.12A55.48,55.48,0,0,0,113,351a53,53,0,0,0-.7-6.65,3.81,3.81,0,0,1-.06-.64,3.92,3.92,0,0,1,3.91-3.91m0-1a4.91,4.91,0,0,0-4.91,4.91,4.28,4.28,0,0,0,.08.81A53.9,53.9,0,0,1,112,351a54.64,54.64,0,0,1-.1,6.41,24.81,24.81,0,0,1-1.71,7.83c-1.14,3-6.23,10.78-6.23,16.24s3.61,19.14,5.7,26.76a3.37,3.37,0,0,0,1.89,2.42,10.15,10.15,0,0,0,9.19,0,3.4,3.4,0,0,0,1.89-2.42c2.09-7.62,5.7-21.3,5.7-26.76s-5.08-13.25-6.23-16.24a24.81,24.81,0,0,1-1.71-7.83,54.64,54.64,0,0,1-.1-6.41,53.9,53.9,0,0,1,.68-6.53,4.27,4.27,0,0,0,.09-.81,4.91,4.91,0,0,0-4.91-4.91Z" style="fill:#e0e0e0"></path><path d="M120.46,358a2.16,2.16,0,0,1-1.24,1.7,6.8,6.8,0,0,1-6.09,0,2.13,2.13,0,0,1-1.24-1.69c0-.22,0-.44,0-.64,0-.7.07-1.4.11-2.13a2.09,2.09,0,0,0,1.2,1.63,6.5,6.5,0,0,0,5.86,0,2.18,2.18,0,0,0,1.2-1.54c0,.69.06,1.37.11,2C120.43,357.61,120.45,357.83,120.46,358Z" style="fill:#FFC100"></path><path d="M120.2,367.17a8.92,8.92,0,0,1-8,0c-1.35-.78-1.88-1.84-1.59-2.85l0-.11a20.89,20.89,0,0,0,.63-2.1,2.44,2.44,0,0,0,1.46,2.1,7.69,7.69,0,0,0,7,0,2.35,2.35,0,0,0,1.44-2.15c.17.65.37,1.36.64,2.12,0,0,0,0,0,0C122.11,365.25,121.59,366.37,120.2,367.17Z" style="fill:#FFC100"></path><path d="M118.48,410.66c-2.28,0-4.1-.11-6.59-10.79s-3.85-20.8-.21-30.41c3.95-10.42,3.22-16.27,2.46-21.83-.68-4.89.41-9.45,4.26-8.32a4.86,4.86,0,0,0-7.13,4.35,4.28,4.28,0,0,0,.08.81A53.9,53.9,0,0,1,112,351a54.64,54.64,0,0,1-.1,6.41,24.81,24.81,0,0,1-1.71,7.83c-1.14,3-6.23,10.78-6.23,16.24s3.61,19.14,5.7,26.76a3.37,3.37,0,0,0,1.89,2.42,10.19,10.19,0,0,0,9.19,0,3.4,3.4,0,0,0,1.89-2.42C122.35,409.38,120.77,410.66,118.48,410.66Z" style="opacity:0.15"></path></g><g id="freepik--bowling-pin--inject-84"><path d="M146.74,392.09c0-5.46-5.09-13.25-6.24-16.24a24.73,24.73,0,0,1-1.7-7.83,50.59,50.59,0,0,1-.1-6.41,52,52,0,0,1,.68-6.53h0a4.28,4.28,0,0,0,.08-.81,4.91,4.91,0,1,0-9.82,0,5.29,5.29,0,0,0,.08.81h0a50.16,50.16,0,0,1,.68,6.53,52.73,52.73,0,0,1-.09,6.41,24.81,24.81,0,0,1-1.71,7.83c-1.15,3-6.23,10.78-6.23,16.24s3.6,19.14,5.7,26.76h0a3.35,3.35,0,0,0,1.89,2.42,10.19,10.19,0,0,0,9.19,0,3.4,3.4,0,0,0,1.89-2.42h0C143.13,411.23,146.74,397.55,146.74,392.09Z" style="fill:#f5f5f5"></path><path d="M134.55,350.36a3.92,3.92,0,0,1,3.91,3.91,3.61,3.61,0,0,1-.06.63,53.58,53.58,0,0,0-.7,6.66,55.48,55.48,0,0,0,.1,6.53,25.75,25.75,0,0,0,1.77,8.12c.33.86,1,2.07,1.68,3.46,1.89,3.67,4.49,8.69,4.49,12.42,0,3.89-1.91,12.8-5.67,26.5l0,.07v.08a2.45,2.45,0,0,1-1.39,1.66,9.13,9.13,0,0,1-8.19,0,2.44,2.44,0,0,1-1.4-1.66v-.08l0-.07c-3.76-13.69-5.66-22.61-5.66-26.5,0-3.73,2.59-8.75,4.49-12.42.72-1.39,1.34-2.6,1.67-3.46a25.82,25.82,0,0,0,1.78-8.12,53.66,53.66,0,0,0,.09-6.53,51.33,51.33,0,0,0-.69-6.65,3.82,3.82,0,0,1,3.84-4.55m0-1a4.91,4.91,0,0,0-4.91,4.91,5.29,5.29,0,0,0,.08.81,51.83,51.83,0,0,1,.69,6.53,54.64,54.64,0,0,1-.1,6.41,24.81,24.81,0,0,1-1.71,7.83c-1.15,3-6.23,10.78-6.23,16.24s3.6,19.14,5.7,26.76a3.35,3.35,0,0,0,1.89,2.42,10.15,10.15,0,0,0,9.19,0,3.4,3.4,0,0,0,1.89-2.42c2.09-7.62,5.7-21.3,5.7-26.76s-5.09-13.25-6.24-16.24a24.73,24.73,0,0,1-1.7-7.83,50.59,50.59,0,0,1-.1-6.41,52,52,0,0,1,.68-6.53,4.28,4.28,0,0,0,.08-.81,4.91,4.91,0,0,0-4.91-4.91Z" style="fill:#e0e0e0"></path><path d="M138.84,368.65a2.16,2.16,0,0,1-1.24,1.7,6.8,6.8,0,0,1-6.09,0,2.13,2.13,0,0,1-1.24-1.69c0-.22,0-.44,0-.64.05-.7.08-1.4.12-2.13a2.1,2.1,0,0,0,1.19,1.63,6.5,6.5,0,0,0,5.86,0,2.12,2.12,0,0,0,1.2-1.54c0,.69.07,1.37.12,2C138.81,368.22,138.83,368.44,138.84,368.65Z" style="fill:#FFC100"></path><path d="M138.58,377.78a8.92,8.92,0,0,1-8.05,0c-1.35-.78-1.88-1.84-1.6-2.85l0-.11a20.89,20.89,0,0,0,.63-2.1,2.43,2.43,0,0,0,1.46,2.1,7.69,7.69,0,0,0,7,0,2.37,2.37,0,0,0,1.44-2.15c.16.65.37,1.36.64,2.12,0,0,0,0,0,0C140.49,375.86,140,377,138.58,377.78Z" style="fill:#FFC100"></path><path d="M136.86,421.27c-2.28,0-4.1-.11-6.59-10.79s-3.85-20.8-.21-30.41c3.95-10.42,3.22-16.27,2.45-21.83-.67-4.89.42-9.45,4.27-8.32a4.87,4.87,0,0,0-7.14,4.35,5.29,5.29,0,0,0,.08.81,50.16,50.16,0,0,1,.68,6.53,52.73,52.73,0,0,1-.09,6.41,24.81,24.81,0,0,1-1.71,7.83c-1.15,3-6.23,10.78-6.23,16.24s3.6,19.14,5.7,26.76a3.35,3.35,0,0,0,1.89,2.42,10.19,10.19,0,0,0,9.19,0,3.4,3.4,0,0,0,1.89-2.42C140.73,420,139.15,421.27,136.86,421.27Z" style="opacity:0.15"></path></g><g id="freepik--bowling-pin--inject-84"><path d="M117.25,398.94c0-5.46-5.09-13.26-6.23-16.24a24.8,24.8,0,0,1-1.71-7.84,54.55,54.55,0,0,1-.1-6.41,53.72,53.72,0,0,1,.68-6.52h0a4.37,4.37,0,0,0,.09-.81,4.91,4.91,0,0,0-9.82,0,4.36,4.36,0,0,0,.08.81h0a53.72,53.72,0,0,1,.68,6.52,54.55,54.55,0,0,1-.1,6.41,24.8,24.8,0,0,1-1.71,7.84c-1.14,3-6.23,10.78-6.23,16.24s3.61,19.14,5.7,26.76h0a3.39,3.39,0,0,0,1.89,2.42,10.19,10.19,0,0,0,9.19,0,3.42,3.42,0,0,0,1.89-2.42h0C113.64,418.08,117.25,404.4,117.25,398.94Z" style="fill:#f5f5f5"></path><path d="M105.07,357.21a3.91,3.91,0,0,1,3.9,3.91,3.5,3.5,0,0,1-.06.62,53.76,53.76,0,0,0-.7,6.67,55.26,55.26,0,0,0,.1,6.52,26,26,0,0,0,1.77,8.13c.34.86,1,2.06,1.68,3.46,1.89,3.67,4.49,8.69,4.49,12.42,0,3.89-1.91,12.8-5.66,26.49l0,.08v.08a2.46,2.46,0,0,1-1.4,1.66,9.21,9.21,0,0,1-8.19,0,2.46,2.46,0,0,1-1.4-1.66v-.08l0-.08c-3.76-13.68-5.66-22.6-5.66-26.49,0-3.73,2.6-8.75,4.49-12.42.72-1.4,1.34-2.6,1.68-3.46a26,26,0,0,0,1.77-8.13,55.26,55.26,0,0,0,.1-6.52,53,53,0,0,0-.7-6.65,3.87,3.87,0,0,1,3.85-4.55m0-1a4.91,4.91,0,0,0-4.91,4.91,4.36,4.36,0,0,0,.08.81,53.72,53.72,0,0,1,.68,6.52,54.55,54.55,0,0,1-.1,6.41,24.8,24.8,0,0,1-1.71,7.84c-1.14,3-6.23,10.78-6.23,16.24s3.61,19.14,5.7,26.76a3.39,3.39,0,0,0,1.89,2.42,10.23,10.23,0,0,0,9.19,0,3.42,3.42,0,0,0,1.89-2.42c2.09-7.62,5.7-21.3,5.7-26.76s-5.09-13.26-6.23-16.24a24.8,24.8,0,0,1-1.71-7.84,54.55,54.55,0,0,1-.1-6.41,53.72,53.72,0,0,1,.68-6.52,4.36,4.36,0,0,0,.08-.81,4.9,4.9,0,0,0-4.9-4.91Z" style="fill:#e0e0e0"></path><path d="M109.35,375.5a2.18,2.18,0,0,1-1.24,1.7,6.8,6.8,0,0,1-6.09,0,2.16,2.16,0,0,1-1.24-1.69c0-.23,0-.44,0-.64.05-.7.08-1.41.12-2.13a2.1,2.1,0,0,0,1.2,1.63,6.5,6.5,0,0,0,5.86,0,2.13,2.13,0,0,0,1.19-1.54q0,1,.12,2C109.32,375.07,109.34,375.28,109.35,375.5Z" style="fill:#FFC100"></path><path d="M109.09,384.63a8.92,8.92,0,0,1-8,0c-1.35-.78-1.88-1.85-1.59-2.85l0-.12a20,20,0,0,0,.63-2.09,2.4,2.4,0,0,0,1.46,2.09,7.69,7.69,0,0,0,7,0,2.33,2.33,0,0,0,1.44-2.15c.17.66.37,1.36.64,2.13,0,0,0,0,0,0C111,382.7,110.48,383.82,109.09,384.63Z" style="fill:#FFC100"></path><path d="M107.37,428.12c-2.28,0-4.1-.12-6.59-10.79s-3.85-20.81-.21-30.41c4-10.42,3.22-16.28,2.45-21.83-.67-4.9.42-9.45,4.27-8.32a4.78,4.78,0,0,0-2.22-.56,4.91,4.91,0,0,0-4.91,4.91,4.36,4.36,0,0,0,.08.81,53.72,53.72,0,0,1,.68,6.52,54.55,54.55,0,0,1-.1,6.41,24.8,24.8,0,0,1-1.71,7.84c-1.14,3-6.23,10.78-6.23,16.24s3.61,19.14,5.7,26.76a3.39,3.39,0,0,0,1.89,2.42,10.19,10.19,0,0,0,9.19,0,3.42,3.42,0,0,0,1.89-2.42C111.24,426.83,109.66,428.12,107.37,428.12Z" style="opacity:0.15"></path></g></g></g><g id="freepik--Balls--inject-84"><g id="freepik--Ball--inject-84"><circle cx="358.37" cy="421.87" r="26.64" transform="translate(-193.34 376.97) rotate(-45)" style="fill:#FFC100"></circle><path d="M331.73,421.87a26.65,26.65,0,0,1,16.4-24.6c0,.05-15.09,16.39-4.91,32.79S376.47,442,382,434.24a26.64,26.64,0,0,1-50.23-12.37Z" style="opacity:0.2"></path><path d="M349.32,406.4c.49.84,1.92.92,3.21.18s1.92-2,1.44-2.87-1.93-.92-3.21-.18S348.83,405.55,349.32,406.4Z" style="opacity:0.30000000000000004"></path><path d="M340.12,407.51c.57.63,1.79.44,2.74-.42s1.27-2.06.7-2.68-1.79-.44-2.74.42S339.56,406.89,340.12,407.51Z" style="opacity:0.30000000000000004"></path><path d="M341.55,415c.68.67,2.05.39,3.07-.63s1.3-2.4.63-3.07-2-.39-3.06.63S340.88,414.34,341.55,415Z" style="opacity:0.30000000000000004"></path></g><g id="freepik--ball--inject-84"><circle cx="401.67" cy="439.94" r="26.64" transform="translate(-158.49 642.68) rotate(-67.5)" style="fill:#455a64"></circle><path d="M375,439.94a26.63,26.63,0,0,1,16.39-24.59s-15.09,16.39-4.91,32.79,33.26,11.94,38.74,4.17A26.63,26.63,0,0,1,375,439.94Z" style="opacity:0.2"></path><path d="M410.54,424.35c-.49.84-1.92.93-3.21.19s-1.92-2-1.44-2.87,1.93-.93,3.21-.19S411,423.5,410.54,424.35Z" style="fill:#263238"></path><path d="M419.74,425.46c-.57.63-1.79.44-2.74-.42s-1.27-2.05-.7-2.68,1.79-.44,2.74.42S420.3,424.84,419.74,425.46Z" style="fill:#263238"></path><path d="M418.31,433c-.68.67-2.05.39-3.07-.63s-1.3-2.4-.63-3.07,2-.39,3.06.63S419,432.29,418.31,433Z" style="fill:#263238"></path></g></g><g id="freepik--Character--inject-84"><path id="freepik--shadow--inject-84" d="M387.94,247c-15.49-1.37-20.65,3.82-44.51,18s-57.54,30.12-71,37.63-30.22,19.28-10,30.2C301,353.58,335,307.91,365.28,286.48c15.37-10.9,27.93-10.25,36-22.52C406,256.78,397.32,247.87,387.94,247Z" style="fill:#FFC100;opacity:0.30000000000000004"></path><g id="freepik--character--inject-84"><g id="freepik--Bottom--inject-84"><path d="M374.32,210.64c-3-.94-5.95-1.69-12.47-4.07l-6.79,15.65s10,.8,14.32,4,6,5.69,8.1,9.35a39.11,39.11,0,0,0,2.74-15.35c-.2-7-4.61-9.1-4.61-9.1Z" style="fill:#ffa8a7"></path><path d="M387.12,212.58c.52-.16,1.63.63,1.63.63.73,1,1,2.4.69,4.9s-.39,4.46.75,6.48c2.41,4.29,5.17,9.19,5.6,15.14.28,3.83.18,7.55-3.67,12.07s-11.09,5.94-15.51,4.62c-1.25-.38-.94-1.84-.94-1.84s13.61-10.86,11.05-21.45A44.1,44.1,0,0,1,387.12,212.58Z" style="fill:#263238"></path><path d="M370.77,227.41c1.85,2.58,7.19,7.94,6.82,12.72-.57,7.51-2.88,8.41-3.06,11.39-.13,2.32.83,3.88,4.46,3.74,8.31-.33,14.11-4.3,14.8-11.07A26.94,26.94,0,0,0,390.08,228a16.49,16.49,0,0,1-2.19-10.72c.47-3.15-.77-4.65-.77-4.65a58.45,58.45,0,0,0-9.34-1.86c-1.92-.23-2.72-1.67-3.46-.08l.59.3c.56.36,1.18,1.2.24,3.58-1.45,3.72-.25,3.26-.22,3.92a15.83,15.83,0,0,0-4.6,4.49C368,226.15,369.41,225.52,370.77,227.41Z" style="fill:#FFC100"></path><path d="M369.77,222.55c-2.92,3-1.44,3,.46,5.38s3.32,3.68,4.83,5.91a17.64,17.64,0,0,1,2.77,5.55c.55,1.89.13,4.75,3.68,2.9,2.62-1.37,3.91-3.59,0-11.74s-7.41-10.33-6.61-12.11A23.54,23.54,0,0,0,369.77,222.55Z" style="fill:#37474f"></path><path d="M387.12,212.58l-.06,0a60.86,60.86,0,0,0-9.25-1.83c.28,1.28,2.52,1.88,2.27,3.17-.38,2-1.4,3.93-1.12,5.95a9.21,9.21,0,0,0,1.51,3.48c3.5,5.72,7.41,11.55,8,18.23a8.88,8.88,0,0,0,.48,2.71c.63,1.48,2.63,2.39,4.28,2.42a11.8,11.8,0,0,0,.53-2.5A26.94,26.94,0,0,0,390.08,228h0a16.49,16.49,0,0,1-2.19-10.72,9,9,0,0,0,.1-1.1,7.5,7.5,0,0,0-.12-1.66A4.46,4.46,0,0,0,387.12,212.58Z" style="opacity:0.2"></path><path d="M366.29,207.6c-8.21-1.66-27.57-12.78-40.23-13.77s-14-.06-16.24-4.05-3.21-32.52-3.21-32.52l-31.63,7c2.65,22.43,13.66,44.42,22,50s15.37,4,27.72,5.84,39.72,4.48,39.72,4.48C370.29,213.92,366.29,207.6,366.29,207.6Z" style="fill:#263238"></path><path d="M305.19,290.62a102.69,102.69,0,0,1-1.9-14l-17.09,3.53s2.26,7.61,2.57,10a18.48,18.48,0,0,1-1.63,9.66,14.6,14.6,0,0,0,12.05.65c6.73-2.56,6.46-8.19,6.46-8.19Z" style="fill:#ffa8a7"></path><path d="M309.84,301.9c.49.35-.1,2.74-.1,2.74-.52,1.07-1.76,2.13-4.18,3.55s-4.85,3.37-5.9,5.74c-2.24,5-2.16,9.19-7.21,13.54a18.64,18.64,0,0,1-14.2,4.95c-6.63-.44-8.42-2.92-9.33-3.82s-.55-4.21-.55-4.21,15,.17,22.77-9.17A49.14,49.14,0,0,1,309.84,301.9Z" style="fill:#263238"></path><path d="M287.51,296.89c-1.08,3.38-3.14,9.2-10.29,16.66s-11.8,10.83-7.21,14.08,11.46,4.18,18,.29,8.16-8.72,10-13.13a18.34,18.34,0,0,1,8.15-9.11c3.15-1.68,3.66-3.78,3.66-3.78s.7-2.61-2.42-8.12c-1.07-1.89-.31-3.56-2.23-3.16l.12.73c.05.73-.3,1.85-3.05,2.6-4.3,1.17-5.22.44-5.79.91,0,0,0-1.29-4.41-1.21S288.3,294.41,287.51,296.89Z" style="fill:#FFC100"></path><path d="M292,292.9c-4.65-.63-3.73,1.51-4.52,4a36.18,36.18,0,0,1-3.72,8.26,70.43,70.43,0,0,1-4.18,7.77c-2,3.12-2.76,3.8.49,4.4s5.18.44,9.91-8.46,4.33-13.53,6.46-14C296.47,294.86,296.42,293.49,292,292.9Z" style="fill:#37474f"></path><path d="M298,314.79a18.34,18.34,0,0,1,8.15-9.11c3.15-1.68,3.66-3.78,3.66-3.78s.7-2.6-2.41-8.09a11,11,0,0,1-3.46,2.65c-2,1-4.46,1.37-6.08,3a10.4,10.4,0,0,0-2.12,3.68c-2.79,6.94-5.42,14.34-11,19.34a10,10,0,0,0-2.12,2.23,4.86,4.86,0,0,0,.54,5.28,18.44,18.44,0,0,0,4.8-2C294.53,324,296.16,319.2,298,314.79Z" style="opacity:0.2"></path><path d="M322.15,143.92c10.43,11.36,11.1,28.69,6.75,37.9-6.07,12.85-29.2,40.37-31.87,44.1s-1.27,4.55,3.16,16.45,2.47,34.14,4.42,42.28c0,0-4.05,6.29-16.19,5.49,0,0-9.08-26-12.64-37.92s-7.9-17.69-6.36-27.62,18.35-45.12,18.35-45.12-10-5.34-11.71-15.2Z" style="fill:#37474f"></path><path d="M316.33,147.61c7.45,12.6,11.21,21.5.49,38.9-5.88,9.54-13.49,19.8-19.6,28.05-6.39,8.6-9.45,12.79-9.4,14a9.47,9.47,0,0,0,1.39,3.49,77.34,77.34,0,0,1,6.82,18.3c2.42,9.37,4,25.83,4.82,37.44.34-.19.67-.38,1-.58-.87-11.62-2.42-27.81-4.81-37.11a78.2,78.2,0,0,0-6.91-18.51,9.25,9.25,0,0,1-1.27-3.07c0-1,4.46-7,9.19-13.39,6.13-8.26,13.76-18.54,19.66-28.12,11-17.87,7.16-27-.49-39.92Z" style="fill:#455a64"></path></g><g id="freepik--Top--inject-84"><path d="M233.15,176c3-3.21,15.39-15.54,18.94-18.44s4.76-4.35,7.25-9.56,11.58-28.94,11.58-28.94-5.35-20.1-9.76-18.14c-4.19,1.86-5.71,3.27-8.18,10.26S243,140.67,243,140.67s-18.28,25-20.5,27.2c-2.92,2.94-6.44,3.22-8.76,4.2s-4.57,4.24-6.24,5.65c-1.51,1.27-3.06,2.06-2.9,2.77s1.46,2.12,4.32,1.11,4.26-3,4.54-2.82-2.81,4.33-5.39,6.07-3.93,2.51-4.68,3.85a2.38,2.38,0,0,0-.14,2.34,3.2,3.2,0,0,0,.21,3.06c1,1.23,6.32,2.35,10,1A29.27,29.27,0,0,0,223,189C225.77,186.44,230.13,179.24,233.15,176Z" style="fill:#ffa8a7"></path><g id="freepik--Chest--inject-84"><path d="M324.38,146c-4.37-5.8-6.07-8-8.21-12.44-1.89-3.9-2.79-8.32-3.41-13.22-.68-5.3-4-17.79-6.24-22.13s-13.45-6.24-26-3.58c-4.87,1-13.8,3.25-19.31,6.34-2.11,5.08-7.94,21.3-5.87,29.59,2.66,10.65,10.9,11,10.9,11s4.93,5.32,6.54,8.74c1.11,2.37.59,5.64,2.15,14.29,0,0,4.61,9.72,27.23,1.38C320.79,159,324.38,146,324.38,146Z" style="fill:#FFC100"></path><path d="M274.72,138.9c3.47,3.18,16,4.11,22.31-4.79C296.54,141.21,282.35,147.76,274.72,138.9Z" style="opacity:0.2"></path></g><g id="freepik--Head--inject-84"><path d="M266.86,46.93c2.6,3.15,6.32.9,9.34-.23a8.43,8.43,0,0,1,10.53,6.59,8.09,8.09,0,0,1,8.61,3.85c.72,1,.75,2.38,1.55,3.35,2.2,1.38,4.37,3.26,3.87,6.18,0-1.88-2.23-2.43-3.78-2.46,4.44,2.21,1.63,4.51,1.84,7.81.26,1.18,1.31,2,2,3,1.12,1.58,1.68,4.42,0,5.76-1,.63-2.26.24-3.34.62-3.89,1.69-.57,7.72-4.18,9.64a4.66,4.66,0,0,0-1.85-4c.51,4-4.14,6.06-7.54,5.14a10.5,10.5,0,0,0-3.1-.43,1.64,1.64,0,0,0-1.05.43,5.28,5.28,0,0,1-3.89,0C270,87.67,264.64,82.44,259,77.71A18.82,18.82,0,0,0,257,76.16a8.73,8.73,0,0,1-1.31-2.58c-1.6,3.54-8.61,2-8-2,1.6,2.85,4.49,0,2.89-2.49-2.39-2.79-5.14-5.29-3.51-9.35.8-2.26,3.51-2.7,4.93-4.31,1.43-5.24,5.52-8.75,11-6.31a3.64,3.64,0,0,0-4.69-2A6.68,6.68,0,0,1,266.86,46.93Z" style="fill:#37474f"></path><path d="M255.47,63.58c-1.3,1.85-3.4,6.6-2,20,1,9.69,4.23,11.35,7.75,12.51a17.48,17.48,0,0,0,7.65.07l1.57,3.77s-3.59,7-1.77,14.69a70.07,70.07,0,0,0,9.73-6.19c7.92-6.47,10.23-10,10.23-10l-3.79-14.57c.89,1.37,4.63,2.62,7.23-.83,2.91-3.87,1.86-8.47-.87-10s-5.9.23-6.94,3.39c-.45,2.9-3.55,2.9-4.17-.83-4.07-1.6-4.72-6-3.64-10.78-3-2.58-9.61.63-13.85.79C258.54,65.75,257.67,61.31,255.47,63.58Z" style="fill:#ffa8a7"></path><path d="M267.18,62.59a2.43,2.43,0,0,0-.92-.5l-3.51-.6a6.87,6.87,0,0,0-2.62,1.75,3.25,3.25,0,0,0-.77,2.95,4.13,4.13,0,0,0,1.78,2.12,7.48,7.48,0,0,1,1.19.88,1.7,1.7,0,0,1,.54,1.34,1.57,1.57,0,0,1-.95,1.17,3.67,3.67,0,0,1-1.54.25,5.32,5.32,0,0,0,3.52.07,3,3,0,0,0,2-2.74c-.05-1.1-.87-2.08-.85-3.18a2.22,2.22,0,0,1,1.36-2c.37-.14.81-.22,1-.56A.84.84,0,0,0,267.18,62.59Z" style="fill:#37474f"></path><path d="M263.25,73.27l-.69,10.61-6.15-2.18C258.81,77.07,261.17,74.18,263.25,73.27Z" style="fill:#f28f8f"></path><path d="M268.89,96.15c8.16-1.72,12.61-4.11,14.31-10.26,0,0,.06,4.48-2.55,7.23-3.35,3.52-10.93,5.06-10.93,5.06Z" style="fill:#f28f8f"></path><path d="M264.05,87.25l5-2.11a2.58,2.58,0,0,1-1.33,3.51A2.85,2.85,0,0,1,264.05,87.25Z" style="fill:#b16668"></path><path d="M266.55,88.86a2.86,2.86,0,0,0,1.15-.21,2.56,2.56,0,0,0,1.57-2.25A3.12,3.12,0,0,0,266.55,88.86Z" style="fill:#f28f8f"></path><path d="M270.24,76.05a1.79,1.79,0,1,1-2-1.59A1.79,1.79,0,0,1,270.24,76.05Z" style="fill:#263238"></path><path d="M258.68,76a1.79,1.79,0,1,1-1.7-1.86A1.77,1.77,0,0,1,258.68,76Z" style="fill:#263238"></path><path d="M254.84,72.57,259,71.36a2.09,2.09,0,0,0-2.62-1.51A2.26,2.26,0,0,0,254.84,72.57Z" style="fill:#263238"></path><path d="M271.65,72.08l-4.2-1.32a2.12,2.12,0,0,1,2.69-1.46A2.29,2.29,0,0,1,271.65,72.08Z" style="fill:#263238"></path></g><path d="M350.9,148c-2.95-4.46-14.66-19-14.66-19l-27.18-9.88A22.68,22.68,0,0,1,299,109.36c-3.87-7.15-2.44-13.08-.15-14.52,5.82.41,9.74,1.76,18.92,5.8s16.69,8.14,22.48,11.06c6.6,3.32,7.17,4,9.27,7.45,4.82,8,11.6,22.85,12.92,24.77a99,99,0,0,1,5.42,8.43c.67,1.25,1.11,5.11,1.18,7.41s-.75,3-.75,3-.15,4-1.06,4.88a5,5,0,0,1-.7.59s-.28,2.51-1.62,3a5.86,5.86,0,0,1-1.48,3c-1.58,1.88-2.17,2.42-3.1,3.63s-2.93,0-2.17-2.57,2.61-5.17,2.29-7a40.35,40.35,0,0,0-1.54-6.77c-.65-1.42-1.44-.6-1.77,1.59s-.22,2.25-.45,4.66-2.72,3.52-3.22,3-.35-2.44-.58-5.22a43.61,43.61,0,0,1-.16-7.09C352.92,153.44,353.56,152,350.9,148Z" style="fill:#ffa8a7"></path></g></g><g id="freepik--ball--inject-84"><circle cx="182.35" cy="226.23" r="22.48" transform="translate(-72.69 87) rotate(-22.5)" style="fill:#FFC100"></circle><path d="M204.83,226.23A22.48,22.48,0,0,0,191,205.47s12.74,13.83,4.15,27.67-28.07,10.09-32.7,3.53a22.48,22.48,0,0,0,42.39-10.44Z" style="opacity:0.2"></path><path d="M190,213.17c-.41.71-1.63.78-2.71.16s-1.63-1.71-1.21-2.42,1.62-.79,2.7-.16S190.4,212.46,190,213.17Z" style="opacity:0.30000000000000004"></path><path d="M197.75,214.11c-.48.53-1.51.37-2.31-.35s-1.07-1.74-.6-2.27,1.52-.37,2.32.36S198.23,213.58,197.75,214.11Z" style="opacity:0.30000000000000004"></path><path d="M196.54,220.44c-.57.57-1.72.33-2.59-.54s-1.1-2-.53-2.58,1.73-.33,2.59.53S197.11,219.87,196.54,220.44Z" style="opacity:0.30000000000000004"></path></g></g></svg>