<svg xmlns="http://www.w3.org/2000/svg" viewBox="0 0 500 500"><g id="freepik--background-complete--inject-131"><path d="M407.28,259c.71-5.16-6.57-9.4-12-9.84-2.61-.21-5.32.19-7.79-.67-5.36-1.87-7.49-8.79-12.72-11-3.9-1.65-8.4-.18-12.19,1.73s-7.52,4.3-11.75,4.57c-3.68.24-7.68-1.13-10.9.67-2.4,1.34-3.65,4.1-5.86,5.73s-5,1.94-7.67,2.08-5.47.17-7.91,1.29-4.46,3.71-4,6.35Z" style="fill:#ebebeb"></path><path d="M455.5,288.23c.41-3-3.78-5.4-6.92-5.66-1.5-.12-3.06.11-4.48-.38-3.08-1.08-4.31-5.05-7.32-6.32-2.24-.95-4.83-.1-7,1s-4.33,2.48-6.77,2.63c-2.11.14-4.41-.65-6.26.39-1.38.77-2.1,2.36-3.37,3.29a8,8,0,0,1-4.41,1.2,12.39,12.39,0,0,0-4.55.74,3.6,3.6,0,0,0-2.28,3.65Z" style="fill:#f5f5f5"></path><path d="M447.12,170.93c.66-4.79-6.09-8.73-11.17-9.13-2.42-.2-4.93.17-7.23-.63-5-1.73-7-8.15-11.8-10.19-3.62-1.53-7.8-.17-11.31,1.6s-7,4-10.91,4.24c-3.41.22-7.12-1-10.11.62-2.23,1.25-3.39,3.81-5.44,5.32s-4.63,1.8-7.12,1.93-5.07.16-7.34,1.2-4.14,3.44-3.67,5.89Z" style="fill:#f5f5f5"></path><path d="M334.22,82.43a15,15,0,0,1-1.11,1.28,27.42,27.42,0,0,0-2.72,3.69,26.94,26.94,0,0,0-4,14.35,1,1,0,0,1,0,.18l-.49,0a24,24,0,0,0-6.61-13.16,33,33,0,0,0-4.82-3.91s.14,0,.39.18.63.32,1.08.62a21.24,21.24,0,0,1,3.6,2.86,23.65,23.65,0,0,1,6.85,13.34l-.5,0v-.18a26.47,26.47,0,0,1,4.25-14.55A24.11,24.11,0,0,1,333,83.58c.37-.41.7-.68.91-.88A1.5,1.5,0,0,1,334.22,82.43Z" style="fill:#e0e0e0"></path><path d="M92.4,411.83c8.77,0,18.64,7.23,25.58,12.84s14.42,11.9,23.35,11.94c5,0,9.84-2,14.8-3s10.8-.46,14,3.45c3.38,4.11,2.45,10.15,3.88,15.28,2.85,10.19,14.5,15.17,25,16.29a69.89,69.89,0,0,0,39.29-7.37c7.48-3.87,14.67-9.23,23.08-9.7,9.5-.52,18.22,5.39,27.68,6.44,19.16,2.11,34.83-15.44,53.71-19.31,11.43-2.34,23.2.5,34.85,1.06a90.35,90.35,0,0,0,70.22-29.11Z" style="fill:#f5f5f5"></path><path d="M273.84,398.55c.49-.66-21-34.61-21-34.61l-15.4-2.44-15.86,20.74-6.74-3.16-47.11,18.4-33-42.07-5,5.24L116.42,341l-8.49,18.81L94.84,392.26,86,385.65l-24.61,25H296.73S273.34,399.22,273.84,398.55Z" style="fill:#ebebeb"></path><path d="M225.24,36.8C212.18,45.16,203.11,59,189.32,66.14,175,73.51,158,72.41,142,73.6s-33.92,6.28-41.41,20.54c-8.13,15.49-.91,36.18-10.48,50.81-11,16.87-37.77,16.07-50.41,31.78-8.54,10.63-8.15,25.59-8.23,39.23-.34,60.44-14.66,118.53,3.33,176.22l47.36-58.29L57.24,282.23,81.72,240.8l60.65-29,16-17.22,8.77-25.48,36.9-34.61,41-41.89,22.26-49.05c1.06,0,37.76-11.07,37.76-11.07C277.54,26,249,21.56,225.24,36.8Z" style="fill:#ebebeb"></path></g><g id="freepik--Birds--inject-131"><path d="M399.07,205.21s-.86-.3-2.47-.66a19.67,19.67,0,0,0-6.9-.26,18.55,18.55,0,0,0-9.3,4,19.33,19.33,0,0,0-6.56,10.42l0,.12-.19.74-.29-.71a20.7,20.7,0,0,0-7.86-9.48,19.86,19.86,0,0,0-9.59-3.2,21.15,21.15,0,0,0-6.86.62c-1.58.42-2.42.79-2.44.74a5.37,5.37,0,0,1,.6-.29,16.1,16.1,0,0,1,1.79-.63A20.42,20.42,0,0,1,365.72,209a21,21,0,0,1,8.08,9.69l-.48,0,0-.11a19.61,19.61,0,0,1,6.76-10.67,18.63,18.63,0,0,1,9.54-4,19.05,19.05,0,0,1,7,.42,15.79,15.79,0,0,1,1.81.58A2.68,2.68,0,0,1,399.07,205.21Z" style="fill:#263238"></path><path d="M467.61,134.56s-.49-.14-1.37-.32a11.15,11.15,0,0,0-3.77-.11,10.12,10.12,0,0,0-5.06,2.21,10.54,10.54,0,0,0-3.57,5.68v.06l-.2.74-.28-.7a11.29,11.29,0,0,0-4.28-5.18,10.88,10.88,0,0,0-5.22-1.76,11.82,11.82,0,0,0-3.76.3c-.87.22-1.33.41-1.35.37s.1-.08.32-.18a6.47,6.47,0,0,1,1-.37,10.84,10.84,0,0,1,3.83-.48,11.18,11.18,0,0,1,5.46,1.74,11.59,11.59,0,0,1,4.48,5.37l-.47,0v-.07a10.84,10.84,0,0,1,3.77-5.92,10.49,10.49,0,0,1,9.17-1.93,6.8,6.8,0,0,1,1,.34C467.51,134.49,467.62,134.54,467.61,134.56Z" style="fill:#263238"></path><path d="M394.68,92.2s-.48.54-1.33,1.51a32.22,32.22,0,0,0-8.05,21.38v.22l-.5,0a27.86,27.86,0,0,0-3.11-9.22,28.86,28.86,0,0,0-8.84-9.88c-1.05-.72-1.65-1.09-1.63-1.13a2.55,2.55,0,0,1,.46.23c.29.17.75.38,1.28.74a26.18,26.18,0,0,1,4.25,3.39,28.3,28.3,0,0,1,4.89,6.43,27.9,27.9,0,0,1,3.2,9.36l-.5,0v-.22a31.35,31.35,0,0,1,5-17.21,28.46,28.46,0,0,1,3.4-4.32c.43-.47.82-.8,1.06-1A2,2,0,0,1,394.68,92.2Z" style="fill:#263238"></path></g><g id="freepik--Sun--inject-131"><path d="M404.06,330.22l-.31-.08-.89-.3c-.78-.25-1.92-.68-3.42-1.12a90,90,0,0,0-12.87-3.06c-1.38-.21-2.83-.45-4.34-.59s-3.1-.28-4.74-.4a79.14,79.14,0,0,0-21.91,1.88,68,68,0,0,0-11.82,3.77c-2,.79-3.85,1.77-5.71,2.68s-3.63,2-5.32,3.05a99.07,99.07,0,0,0-9.49,6.63,85.78,85.78,0,0,0-13.88,13.81l-1.25,1.61c-.39.54-.75,1.08-1.1,1.6a33.81,33.81,0,0,0-1.92,3c-.55,1-1.09,1.84-1.53,2.69s-.76,1.64-1.1,2.35l-.46,1c-.12.33-.22.63-.33.92l-.51,1.43c-.13.38-.24.67-.32.88a2.85,2.85,0,0,1-.12.3s0-.11.08-.31.17-.51.29-.89l.48-1.45.31-.92.45-1c.33-.71.69-1.51,1.08-2.37s1-1.74,1.5-2.72a35.13,35.13,0,0,1,1.9-3c.36-.52.71-1.07,1.1-1.61l1.25-1.63A84,84,0,0,1,323,342.42a96.68,96.68,0,0,1,9.51-6.68c1.69-1.1,3.52-2,5.34-3.06s3.74-1.91,5.73-2.69a67.4,67.4,0,0,1,11.89-3.79A84,84,0,0,1,367,324.46a82.64,82.64,0,0,1,10.52-.09c1.64.12,3.23.21,4.75.42s3,.39,4.35.61a86.81,86.81,0,0,1,12.87,3.18c1.5.46,2.63.91,3.4,1.19l.88.33Z" style="fill:#FFC100"></path><path d="M427.11,337.91a10.13,10.13,0,0,1-1.75-.82c-1.06-.53-2.53-1.27-4.18-2s-3.16-1.4-4.26-1.86a12.09,12.09,0,0,1-1.76-.8A9.82,9.82,0,0,1,417,333c1.12.4,2.66,1,4.31,1.77s3.12,1.54,4.15,2.13A9.58,9.58,0,0,1,427.11,337.91Z" style="fill:#FFC100"></path><path d="M461.56,405.89a2.91,2.91,0,0,1-.06-.74c0-.56,0-1.23-.05-2,0-1.8-.07-4.1-.12-6.66s-.16-4.85-.21-6.65c0-.79-.05-1.46-.06-2a3.33,3.33,0,0,1,0-.74,2.52,2.52,0,0,1,.12.73c.05.48.11,1.17.18,2,.12,1.7.25,4.05.32,6.66s.06,5,0,6.66c0,.85-.05,1.54-.08,2A2.77,2.77,0,0,1,461.56,405.89Z" style="fill:#FFC100"></path><path d="M371.22,315.33l-.16,0-.47.05-1.82.18-1.31.13-1.55.2c-1.12.15-2.39.29-3.78.55l-2.19.38c-.76.13-1.54.32-2.35.49-1.63.32-3.35.79-5.16,1.25A96,96,0,0,0,330,327.88c-1.61.95-3.16,1.83-4.54,2.76-.69.45-1.38.87-2,1.31l-1.82,1.28c-1.17.8-2.16,1.6-3.06,2.28l-1.24.95-1,.84-1.42,1.16-.37.29c-.09.06-.13.1-.14.09l.11-.12.35-.32,1.37-1.21,1-.86c.37-.31.78-.63,1.22-1,.89-.7,1.88-1.52,3-2.33l1.81-1.3c.63-.45,1.31-.88,2-1.34,1.37-.94,2.92-1.83,4.53-2.8a101.45,101.45,0,0,1,10.94-5.39,103.81,103.81,0,0,1,11.55-3.92c1.82-.45,3.54-.91,5.19-1.22.81-.16,1.6-.34,2.36-.47l2.2-.36c1.4-.25,2.68-.36,3.79-.5.56-.06,1.08-.13,1.56-.17l1.32-.09,1.82-.11.48,0Z" style="fill:#FFC100"></path><path d="M422.79,418.47c0,.1-21.24.18-47.42.18s-47.42-.08-47.42-.18,21.22-.19,47.42-.19S422.79,418.36,422.79,418.47Z" style="fill:#FFC100"></path><path d="M396.88,424.33c0,.1-10.29.19-23,.19s-23-.09-23-.19,10.29-.18,23-.18S396.88,424.23,396.88,424.33Z" style="fill:#FFC100"></path><path d="M388.57,430.69c0,.1-4.82.18-10.76.18s-10.76-.08-10.76-.18,4.82-.19,10.76-.19S388.57,430.59,388.57,430.69Z" style="fill:#FFC100"></path><path d="M445.33,376.83l-50.86.5a3.59,3.59,0,0,1,2.27-3.65,12.67,12.67,0,0,1,4.55-.74,8.07,8.07,0,0,0,4.41-1.19c1.27-.94,2-2.53,3.37-3.3,1.85-1,4.15-.25,6.27-.39,2.43-.15,4.58-1.53,6.76-2.63s4.76-1.94,7-1c3,1.27,4.23,5.25,7.31,6.32,1.42.49,3,.27,4.48.39a8.33,8.33,0,0,1,1.5.27A76.86,76.86,0,0,0,301.54,393l.78,0c2.15-.12,4.4-.39,6.13-1.67s2.78-3.51,4.69-4.58c2.58-1.44,5.77-.35,8.71-.53,3.39-.22,6.38-2.14,9.4-3.66s6.63-2.7,9.75-1.38c4.17,1.76,5.88,7.29,10.16,8.78,2,.69,4.15.37,6.23.54,4.37.35,10.19,3.75,9.63,7.87l-66.64.66a76.67,76.67,0,0,0-.89,11.71H453.18A76.51,76.51,0,0,0,445.33,376.83Z" style="fill:#FFC100"></path></g><g id="freepik--Sea--inject-131"><path d="M478.85,410.59c0,.15-80,.26-178.62.26s-178.64-.11-178.64-.26,80-.26,178.64-.26S478.85,410.45,478.85,410.59Z" style="fill:#263238"></path></g><g id="freepik--Character--inject-131"><path d="M460,70.33s-.44-.11-1.22-.27a10.08,10.08,0,0,0-3.35-.09,9.08,9.08,0,0,0-4.47,2,9.31,9.31,0,0,0-3.15,5l0,.05-.19.75-.29-.71a10,10,0,0,0-3.78-4.58,9.76,9.76,0,0,0-4.62-1.57,12.63,12.63,0,0,0-4.53.58,3.43,3.43,0,0,1,1.15-.5,9.58,9.58,0,0,1,3.4-.43,9.84,9.84,0,0,1,4.85,1.53,10.35,10.35,0,0,1,4,4.78l-.48,0,0-.06a9.61,9.61,0,0,1,3.35-5.27,9.21,9.21,0,0,1,4.72-1.95,9.1,9.1,0,0,1,3.43.25A4,4,0,0,1,460,70.33Z" style="fill:#e0e0e0"></path><path d="M176.5,161.05a2.54,2.54,0,0,1-.11.39l-.38,1.12c-.31,1-.9,2.43-1.45,4.33a113.27,113.27,0,0,0-3.82,16.32c-.58,3.49-1,7.35-1.25,11.5a120.44,120.44,0,0,0,0,13.28,109.77,109.77,0,0,0,19.67,56.79,117.85,117.85,0,0,0,8.18,10.46c2.78,3.1,5.48,5.89,8.09,8.28A112.16,112.16,0,0,0,218.58,294c1.61,1.16,2.95,1.92,3.81,2.51l1,.65.33.23a2,2,0,0,1-.36-.19l-1-.6c-.88-.56-2.24-1.3-3.87-2.43a108.34,108.34,0,0,1-13.23-10.35c-2.64-2.38-5.36-5.17-8.17-8.26a120.19,120.19,0,0,1-8.25-10.47,109.4,109.4,0,0,1-19.75-57,118.45,118.45,0,0,1,0-13.33c.3-4.17.71-8,1.32-11.54a107.52,107.52,0,0,1,4-16.32c.58-1.9,1.2-3.32,1.54-4.3.18-.47.32-.84.43-1.11A2,2,0,0,1,176.5,161.05Z" style="fill:#455a64"></path><path d="M216.15,324.26s-.11.18-.35.53l-1.08,1.5c-1,1.32-2.32,3.3-4.26,5.72A189.11,189.11,0,0,1,193,351.55l-3.06,3c-1.06,1-2.17,2-3.29,3-2.21,2.07-4.67,4-7.14,6.15-5.08,4.09-10.66,8.25-16.78,12.28a199.9,199.9,0,0,1-19.91,11.45,238.39,238.39,0,0,1-22.64,9.79,199.38,199.38,0,0,1-48.77,11.92,172.37,172.37,0,0,1-21.56.91,174.81,174.81,0,0,1-18.31-1.41l.2-.19A61.37,61.37,0,0,1,29.8,431.8,60.26,60.26,0,0,1,27,439.87s0-.18.17-.53l.55-1.54c.47-1.37,1.16-3.39,1.86-6.05a61.75,61.75,0,0,0,1.78-23.32l0-.22.23,0a178.1,178.1,0,0,0,18.27,1.34,173.83,173.83,0,0,0,21.5-1A200.37,200.37,0,0,0,120,396.67a237.31,237.31,0,0,0,22.59-9.76,200.3,200.3,0,0,0,19.88-11.39c6.11-4,11.69-8.15,16.77-12.21,2.47-2.11,4.93-4.06,7.14-6.12,1.12-1,2.24-2,3.3-3l3.06-2.93a196.22,196.22,0,0,0,17.56-19.41c2-2.39,3.35-4.35,4.34-5.65l1.12-1.48C216,324.42,216.15,324.26,216.15,324.26Z" style="fill:#455a64"></path><path d="M245.4,200.6s-2.75-7.21-19.2-9.2l-8.87-19.77-13.27-37.15-9.86,9.58,1.88,5.4c2.06,5.92-.43,28.57,5.62,37.67s9,13.47,9,13.47L236.78,225l8.62-14.52Z" style="fill:#ffbe9d"></path><path d="M326.79,229.38a2,2,0,0,1-.7.45,3.18,3.18,0,0,1-2.36-.09,4.4,4.4,0,0,1-2.55-2.72,12.39,12.39,0,0,1-.4-5c.08-1.8.28-3.9-.72-5.77s-3.08-3-4.82-4.79a8.66,8.66,0,0,1-2-3.25,19.93,19.93,0,0,1-.79-3.85c-.18-1.31-.32-2.65-.62-4a8.62,8.62,0,0,0-1.65-3.64c-1.72-2.12-4.46-3.14-6.17-5.32a13.61,13.61,0,0,1-2.5-7.23c-.24-2.43-.21-4.74-.53-6.86a12.39,12.39,0,0,0-2-5.5,12.07,12.07,0,0,0-6.91-4.79,15.56,15.56,0,0,0-3.13-.4,5.6,5.6,0,0,1,.82-.06,10.52,10.52,0,0,1,2.36.27,12,12,0,0,1,7.16,4.77,12.76,12.76,0,0,1,2.13,5.65c.34,2.15.33,4.48.58,6.87a13.24,13.24,0,0,0,2.41,7c1.59,2,4.32,3,6.19,5.3a9.2,9.2,0,0,1,1.74,3.85,38.87,38.87,0,0,1,.62,4,19.57,19.57,0,0,0,.76,3.76,8.15,8.15,0,0,0,1.84,3.08c1.64,1.7,3.78,2.89,4.85,4.92a7.3,7.3,0,0,1,.79,3.09,24.9,24.9,0,0,1-.08,2.9,12.41,12.41,0,0,0,.31,4.85,4.25,4.25,0,0,0,2.34,2.63,3.14,3.14,0,0,0,2.25.17A6,6,0,0,0,326.79,229.38Z" style="fill:#263238"></path><path d="M288.66,166.74c3.41-.38,6.67,1.91,8.46,4.84s2.38,6.4,2.89,9.8,1,6.87,2.6,9.9c1.46,2.77,3.83,5.1,4.68,8.12,1,3.57-.23,7.72,1.66,10.92,1.19,2,3.48,3.31,4.39,5.48s.25,4.84,1.26,7c.68,1.44,2,2.48,2.73,3.91,1,2.07.47,4.53-.09,6.76l-6.07,2.28-2.6-8.47.33,9.76-5.06,1.2L299,239.37s-1.26-12.42-2.32-16.86-1.83-4-3.13-7.85.22-9.22-.46-12.19-2-4.84-3.42-8.59-.87-6.14-1.05-10.33-3.36-9.37-3.36-9.37Z" style="fill:#263238"></path><path d="M287.72,175.62a12.15,12.15,0,0,0,2.37-7.64,6.21,6.21,0,0,0-.5-2.6,2.87,2.87,0,0,0-2-1.65,1.9,1.9,0,0,0-2.14,1.17l-.64,0c.92,1,.6,2.57.23,3.87l-1.44,5.08a3.1,3.1,0,0,0,.09,2.7,2,2,0,0,0,2.17.51A4.07,4.07,0,0,0,287.72,175.62Z" style="fill:#FFC100"></path><path d="M285.05,155.17c-.79-4.69-3-7.07-6.58-10.21a24.65,24.65,0,0,0-15.27-5.77c-5.71-.15-9.12-.08-13.58,3.5a20,20,0,0,0-5.36,7.74c-3,6.69-2.52,14.33-1.61,21.59s2.45,14.13,8.4,18.4l25-3.87c5.51-2,7.35-8.34,8.91-14S286,161,285.05,155.17Z" style="fill:#263238"></path><path d="M243.5,159.83c.4-5.53,10.75-13.86,17.61-13.22l4.17,1.33a17.68,17.68,0,0,1,14.57,16.55l.28,5.91,1,36.57a180.08,180.08,0,0,1-24.67,3.91l-.88-15.57s-9.74-1.38-11.69-12.81C242.94,176.81,243,167.46,243.5,159.83Z" style="fill:#ffbe9d"></path><path d="M247.67,168.93a1.49,1.49,0,0,0,1.44,1.47,1.41,1.41,0,0,0,1.5-1.34,1.48,1.48,0,0,0-1.44-1.47A1.41,1.41,0,0,0,247.67,168.93Z" style="fill:#263238"></path><path d="M246,164.67c.18.19,1.28-.65,2.86-.66s2.75.76,2.92.56-.11-.43-.62-.79a4.05,4.05,0,0,0-2.33-.69,3.85,3.85,0,0,0-2.28.77C246.06,164.24,245.89,164.58,246,164.67Z" style="fill:#263238"></path><path d="M261.74,168.93a1.47,1.47,0,0,0,1.43,1.47,1.41,1.41,0,0,0,1.5-1.34,1.46,1.46,0,0,0-1.43-1.47A1.41,1.41,0,0,0,261.74,168.93Z" style="fill:#263238"></path><path d="M261.53,164.78c.18.19,1.28-.65,2.86-.67s2.75.77,2.92.57-.1-.43-.62-.79a4,4,0,0,0-2.33-.69,3.85,3.85,0,0,0-2.28.77C261.6,164.34,261.44,164.69,261.53,164.78Z" style="fill:#263238"></path><path d="M255.93,176.57a10.25,10.25,0,0,0-2.57-.43c-.41,0-.79-.12-.86-.39a2,2,0,0,1,.25-1.2c.37-1,.76-2,1.16-3.09,1.61-4.39,2.76-8,2.58-8.07s-1.62,3.45-3.22,7.84l-1.11,3.11a2.34,2.34,0,0,0-.19,1.59,1,1,0,0,0,.67.58,3.11,3.11,0,0,0,.69.09A10.58,10.58,0,0,0,255.93,176.57Z" style="fill:#263238"></path><path d="M255.61,195.31a30.3,30.3,0,0,0,15.68-4.3s-3.65,8.07-15.52,7.17Z" style="fill:#eb996e"></path><path d="M256.64,180.37a2.86,2.86,0,0,1,2.55-1.09,2.62,2.62,0,0,1,1.8.94,1.64,1.64,0,0,1,.15,1.88,1.9,1.9,0,0,1-2.07.55,5.87,5.87,0,0,1-2-1.18,1.68,1.68,0,0,1-.46-.46.53.53,0,0,1,0-.59" style="fill:#eb996e"></path><path d="M260.6,177.61c-.26,0-.24,1.7-1.7,2.93s-3.28,1.07-3.29,1.31.41.33,1.18.34a4.27,4.27,0,0,0,2.75-1,3.71,3.71,0,0,0,1.31-2.47C260.91,178,260.71,177.59,260.6,177.61Z" style="fill:#263238"></path><path d="M261.12,160.32c.16.43,1.73.2,3.59.4s3.36.69,3.6.3c.11-.18-.15-.58-.76-1a6.32,6.32,0,0,0-5.49-.54C261.39,159.77,261.05,160.11,261.12,160.32Z" style="fill:#263238"></path><path d="M246,159.25c.28.35,1.36,0,2.67-.07s2.42.22,2.68-.16c.1-.19-.07-.54-.56-.88a3.73,3.73,0,0,0-2.19-.56,3.66,3.66,0,0,0-2.12.75C246,158.7,245.84,159.07,246,159.25Z" style="fill:#263238"></path><path d="M277.64,174.54a3.42,3.42,0,0,1,5.06-2.8c1.18.72,2.05,2.11,1.89,4.76-.44,7.05-7.43,5.15-7.43,4.95S277.43,177.46,277.64,174.54Z" style="fill:#ffbe9d"></path><path d="M279.47,178.91s.12.09.32.2a1.21,1.21,0,0,0,.91.08,3,3,0,0,0,1.59-2.63,4.12,4.12,0,0,0-.22-1.78,1.44,1.44,0,0,0-.87-1,.63.63,0,0,0-.74.29c-.11.19-.07.33-.11.34s-.15-.12-.07-.41a.75.75,0,0,1,.31-.42.93.93,0,0,1,.69-.14,1.74,1.74,0,0,1,1.21,1.18,4.18,4.18,0,0,1,.29,2c-.14,1.42-.95,2.7-2,2.93a1.33,1.33,0,0,1-1.11-.26C279.47,179.08,279.44,178.92,279.47,178.91Z" style="fill:#eb996e"></path><path d="M281.22,155.69a20.41,20.41,0,0,0-9.26-9.33c-3.17-1.55-9.26-4-12.52-2.68l2.35,3a13.42,13.42,0,0,0,6,9.89c1.77,1.13,3.91,1.94,5,3.74,1.54,2.62.15,6.15,1.44,8.9.47,1,1.29,1.89,1.31,3,0,2.07-2.63,3.22-3.05,5.24s1.49,3.64,2.23,5.54a5.23,5.23,0,0,1-1.31,5.59c1.49,0,2.65-1.44,2.92-2.91a13.63,13.63,0,0,0-.32-4.44,6.08,6.08,0,0,1,.61-4.33c.8-1.15,2.2-1.71,3.28-2.61a9.57,9.57,0,0,0,2.9-5.51A20.41,20.41,0,0,0,281.22,155.69Z" style="fill:#263238"></path><path d="M249.58,425.47s47.66,29.7,48,28.86,3.87-19.49,3.87-19.49L270,404.65S248.39,417.21,249.58,425.47Z" style="fill:#ffbe9d"></path><path d="M290,451.87l1.15.69s-3.82,24.25-.24,26.67l23-39-13.27-7.12C299.88,440.54,296.61,446.78,290,451.87Z" style="fill:#FFC100"></path><g style="opacity:0.6000000000000001"><path d="M302.44,439.55a1.85,1.85,0,0,1,2.46,0A1.78,1.78,0,0,1,305,442a2,2,0,0,1-2.61,0,1.83,1.83,0,0,1,.23-2.54" style="fill:#fff"></path></g><g style="opacity:0.6000000000000001"><path d="M313.89,440.28l-3.19-1.71-20.86,38s-.27,2.18,1.06,2.7Z" style="fill:#fff"></path></g><path d="M291.17,452.76c.19.11.84-.79,2-1.37s2.25-.6,2.28-.82-1.24-.58-2.63.14S291,452.7,291.17,452.76Z" style="fill:#263238"></path><path d="M290.45,457.85c.16.15,1-.48,2.15-.66s2.15.15,2.25,0-.9-1-2.37-.71S290.27,457.74,290.45,457.85Z" style="fill:#263238"></path><path d="M294,463.05c.14-.15-.65-1-2-1.1s-2.27.52-2.16.69,1,0,2.08.08S293.84,463.23,294,463.05Z" style="fill:#263238"></path><path d="M77.73,298.93s50-21.38,55.56-24.19c0,0,10,8.42,9.23,18.05l0,7.22L82.88,315.63Z" style="fill:#ffbe9d"></path><path d="M80.67,296.4l-1.21.58s-18.23-16.43-22.22-14.75l20.09,40.52,13.21-7.24C84.77,310.87,81.33,304.72,80.67,296.4Z" style="fill:#FFC100"></path><g style="opacity:0.6000000000000001"><path d="M84.2,313.55a1.85,1.85,0,0,1-1.32,2.08,1.78,1.78,0,0,1-2.08-1.29,2,2,0,0,1,1.41-2.2,1.85,1.85,0,0,1,2,1.58" style="fill:#fff"></path></g><g style="opacity:0.6000000000000001"><path d="M77.33,322.75,80.51,321l-20.42-38.2s-1.68-1.41-2.85-.58Z" style="fill:#fff"></path></g><path d="M79.28,296.9c-.2.1.2,1.14,0,2.43s-.73,2.22-.56,2.36,1.16-.72,1.32-2.28S79.44,296.77,79.28,296.9Z" style="fill:#263238"></path><path d="M75.41,293.52c-.21.05-.13,1.07-.63,2.16s-1.29,1.72-1.19,1.91,1.29-.23,1.89-1.6S75.6,293.43,75.41,293.52Z" style="fill:#263238"></path><path d="M69.13,293.63c0,.2,1.17,0,2-1.06s.8-2.19.6-2.19-.5.86-1.2,1.71S69.05,293.42,69.13,293.63Z" style="fill:#263238"></path><path d="M250.61,424.61a2,2,0,0,1-2.78.08c-3.13-2.75-10.5-9.64-14-16.21-4.49-8.47-4.8-29.83-3.92-44.08.49-8,5.82-28.32,5.82-28.32l2.24-4.84L253.49,290l29.82,10.16s-.23,17.43,1,22.62.12,13.82-2.6,19-8.8,8.53-8.8,8.53l-4.23,13.78a52.48,52.48,0,0,0-2.95,9.05c-1.38,5.7-2.55,9.42-2.55,9.42s-2.4,8.27-2.4,9l11.27,12.36-21.47,20.73" style="fill:#263238"></path><polygon points="237.9 267.43 241.96 260.57 241.96 254.58 286.29 255.62 281.74 287.06 237.9 267.43" style="fill:#ffbe9d"></polygon><path d="M159,303.53c3.43,1.06,32.55,12.53,36.44,14.13,2.6,1.07,8,3.61,8,3.61s14.77,7.61,22.38,10.93,8.56,5.95,16.16,5.23,12.6,0,19.25-8.08,9.27-20,8.8-27.09l.05-6.66-41.65-14s-4.75,1.68-4.51,4.53l-6.64-3a3.43,3.43,0,0,0-2.16-3.39c-1.59-.64-25.31-9.82-40.84-15.82a45,45,0,0,0-32.53-.14c-3,1.16-5.31,2.45-6.1,3.8-2.81,4.81-2.41,7.22-2.41,7.22L142.56,300s3.37,2.37,7.05,1l2.52-1.15Z" style="fill:#263238"></path><path d="M224.06,285.92c-.71,9.66-3.91,28.28-9.11,41.12l-10.71-5.39c-1.31-12.82,4.75-28.77,13.09-38.58Z" style="fill:#455a64"></path><path d="M269.36,275.19c9.76,4.1,13.88,8.65,13.88,8.65l-.34,26.07-44.39-16.5-10-11.83,8.52-14S250.79,267.39,269.36,275.19Z" style="fill:#263238"></path><path d="M237,267.62l-4.72,7.73c17.7.43,35.26,7,50.81,19.65l.15-11.16S268,268.61,237,267.62Z" style="fill:#455a64"></path><path d="M259.41,282.33c-1-1-3.65-2-5-2.44A89.84,89.84,0,0,0,242,276.8a31.3,31.3,0,0,0-12.68.38,4.81,4.81,0,0,0-2.89,1.65c-.63.94-.1,2.88,1,3.21l1-.46a5.68,5.68,0,0,1,3.56-2.37,22.76,22.76,0,0,1,4.51.2c3.57.25,5.53.84,8.9,1.28a41.08,41.08,0,0,1,7.14,1.82c2,.7,4.82.8,6.1,2.53Z" style="fill:#FFC100"></path><path d="M258.05,286.63c-.13-.09.56-1.28.91-2.92s.22-3,.37-3a4.7,4.7,0,0,1,.13,3.13A4.78,4.78,0,0,1,258.05,286.63Z" style="fill:#455a64"></path><path d="M263.29,289.78c-.13-.08.56-1.28.9-2.91s.22-3,.38-3a4.87,4.87,0,0,1,.13,3.14A4.79,4.79,0,0,1,263.29,289.78Z" style="fill:#455a64"></path><path d="M264.65,285.92s16.4,9.53,19,12.2l-.26,4.24L264,289.18a12.43,12.43,0,0,0,.68-2.55" style="fill:#FFC100"></path><path d="M272,354.82a1,1,0,0,1,0-2c1.88,0,6.88-6.73,8-11.44.91-3.95,1.05-8.31.44-14.15A35.37,35.37,0,0,0,278,317c-.43-1.24-.95-2.7-1.56-4.57-.38-1.14-.83-2.73-1.31-4.41-.56-2-1.13-4-1.6-5.31a23.67,23.67,0,0,1-1.07-6.32c-5.28,7-13.25,14.37-21.57,17.41-9.11,3.33-20.57,3.31-30.67,0a1,1,0,0,1,.63-1.9c9.69,3.22,20.66,3.25,29.35.07,9.26-3.38,18.09-12.37,23-20a3.67,3.67,0,0,1,.49-.76,1,1,0,0,1,1.61,1.17l-.38.61c-.83,1.91-.33,6.62.55,9.14.48,1.37,1.07,3.43,1.63,5.42.48,1.66.92,3.23,1.29,4.34.61,1.84,1.12,3.3,1.55,4.53A37.62,37.62,0,0,1,282.36,327c.63,6.06.48,10.63-.48,14.8C280.77,346.6,275.45,354.82,272,354.82Z" style="fill:#e0e0e0"></path><path d="M153.65,270.86a5.48,5.48,0,0,1,.19,1.13c.09.74.19,1.8.29,3.12a92.16,92.16,0,0,1,.16,10.32,73.38,73.38,0,0,1-1.17,10.27c-.24,1.3-.47,2.34-.65,3.06a5,5,0,0,1-.34,1.1,5.5,5.5,0,0,1,.14-1.14c.13-.84.3-1.87.49-3.08a97.89,97.89,0,0,0,1-10.23c.17-4,.09-7.65,0-10.28q-.07-1.85-.12-3.12A4.45,4.45,0,0,1,153.65,270.86Z" style="fill:#455a64"></path><path d="M268.71,364.09c-14.42,2.34-27.13-2.17-36.47-13.41l2.5-10.79c8.92,10.67,24.35,15.72,37.78,12.12Z" style="fill:#455a64"></path><path d="M260.94,391.68a63.42,63.42,0,0,0-7.64.61,59.89,59.89,0,0,0-7.38,2.07,7.3,7.3,0,0,1,2-1.05,25.24,25.24,0,0,1,5.27-1.53,25.62,25.62,0,0,1,5.47-.39A8.09,8.09,0,0,1,260.94,391.68Z" style="fill:#455a64"></path><path d="M260.81,391.52c0,.08-1.17-.45-3.06-1.09a30.12,30.12,0,0,0-7.61-1.5,33.85,33.85,0,0,0-7.76.45c-2,.34-3.17.67-3.2.58a2.88,2.88,0,0,1,.82-.32,20.72,20.72,0,0,1,2.31-.62,28.43,28.43,0,0,1,7.86-.61,26.67,26.67,0,0,1,7.71,1.67,21,21,0,0,1,2.18,1A3.23,3.23,0,0,1,260.81,391.52Z" style="fill:#455a64"></path><path d="M277.34,293.68,283.46,319c.56,2.32,1.2,4.78,2.91,6.44,2.82,2.73,7.32,2.32,11.19,1.73,2.26-.35,5-1.11,5.52-3.33a5.84,5.84,0,0,0-.21-2.65q-2.24-9.57-4.48-19.15a7.72,7.72,0,0,0-7.16-5.92,68.46,68.46,0,0,1-13.68-2.45" style="fill:#FFC100"></path><path d="M270,307.51a1.93,1.93,0,0,1,0,.55c0,.36-.05.88-.11,1.56a57.54,57.54,0,0,1-.82,5.7,40.32,40.32,0,0,1-2.52,8.17,28,28,0,0,1-5.85,8.68,19.93,19.93,0,0,1-4.34,3.3,23.13,23.13,0,0,1-4.7,1.94,28,28,0,0,1-8.48,1,24.29,24.29,0,0,1-5.71-.82,12.64,12.64,0,0,1-1.49-.48,1.87,1.87,0,0,1-.51-.22c0-.05.73.21,2.05.5a26.36,26.36,0,0,0,5.66.65,28.38,28.38,0,0,0,8.35-1.14,20.52,20.52,0,0,0,8.81-5.15,28,28,0,0,0,5.77-8.5,40.84,40.84,0,0,0,2.59-8.06c.52-2.36.8-4.3,1-5.64.09-.63.16-1.14.22-1.55A2.28,2.28,0,0,1,270,307.51Z" style="fill:#455a64"></path><path d="M255.08,293.83c-.07.06-1.19-1.21-3.23-3a39.77,39.77,0,0,0-3.75-2.95,37,37,0,0,0-5.06-2.91A34.72,34.72,0,0,0,232.88,282c-2.7-.35-4.4-.32-4.4-.42a4.61,4.61,0,0,1,1.2-.08,25.53,25.53,0,0,1,3.25.13,31.88,31.88,0,0,1,10.33,2.84,35.76,35.76,0,0,1,5.12,3,36.25,36.25,0,0,1,3.72,3.08,29,29,0,0,1,2.25,2.35A5.9,5.9,0,0,1,255.08,293.83Z" style="fill:#455a64"></path><path d="M259.56,292.3c-.05.07-1.38-.83-3.62-2.13a67.71,67.71,0,0,0-9.11-4.39,72.19,72.19,0,0,0-9.65-3c-2.53-.6-4.11-.87-4.1-1a5.27,5.27,0,0,1,1.13.09c.73.08,1.77.26,3,.51a58.56,58.56,0,0,1,9.76,2.87,56.36,56.36,0,0,1,9.11,4.56c1.1.7,2,1.29,2.55,1.73A4.81,4.81,0,0,1,259.56,292.3Z" style="fill:#455a64"></path><path d="M221.59,308.51a1,1,0,0,1-1-.68,8.3,8.3,0,0,0-5.68-4.94,17.29,17.29,0,0,0-8.23.05,1,1,0,0,1-.41-1.95,19,19,0,0,1,9.19,0,10.28,10.28,0,0,1,7,6.22,1,1,0,0,1-.62,1.27A.93.93,0,0,1,221.59,308.51Z" style="fill:#e0e0e0"></path><g style="opacity:0.30000000000000004"><path d="M294.92,298.82a6.32,6.32,0,0,0-2-.51,64.56,64.56,0,0,1-15.2-4.13l.22.28a19.88,19.88,0,0,0,14.78,7.93,4.83,4.83,0,0,0,2.14-.27,1.93,1.93,0,0,0,1.23-1.66A2,2,0,0,0,294.92,298.82Z"></path></g><g style="opacity:0.30000000000000004"><path d="M152.52,299.76a20.15,20.15,0,0,0,1.42-24.55,130.09,130.09,0,0,1-1.7,24.54"></path></g><g style="opacity:0.30000000000000004"><path d="M231.41,354.66s10.92-9,15.91-12.63,13.77-6.19,16.65-14.22c0,0-4.38,9.74-18.69,10.48a20,20,0,0,1-9.77-1.35Z"></path></g><g style="opacity:0.30000000000000004"><path d="M237.61,398c-.44.51-.88,1.19-.6,1.8a1.29,1.29,0,0,0,1.56.54,4,4,0,0,0,1.47-1c5.32-4.93,13.18-8.07,20.42-7.63C252.72,389.3,242.88,391.85,237.61,398Z"></path></g><path d="M286.73,253.2s4-43.75,0-50.66c-2.16-3.76-39.42,4.52-39.42,4.52s-8.17,8.14-10.81,19.06C235.08,232,242,248.68,242,248.68v5.9L286,257Z" style="fill:#FFC100"></path><g style="opacity:0.30000000000000004"><path d="M272.47,221.05c-4.78.22-9.3-2.08-13.37-4.6s-8.11-5.35-12.78-6.4l.79,2.48A21.44,21.44,0,0,0,266,226c8.21.24,17.2-8,18.74-15.94C281.36,214,277.67,220.81,272.47,221.05Z"></path></g><path d="M212.19,126.39l11.52,45.36,29.51,15.73s19.23.28,33.51,15.06l-.46,3.52a23.38,23.38,0,0,1-20.43,17.29c-.37,0-.74.05-1.12.06,0,0-52.86-28.44-57.66-35.65s-6.61-49.49-6.61-49.49Z" style="fill:#ffbe9d"></path><path d="M286.73,202.54l-.14-.11-.4-.36-1.52-1.39c-.64-.64-1.52-1.3-2.53-2.12s-2.25-1.63-3.6-2.58a53.8,53.8,0,0,0-10.61-5.2c-1.06-.43-2.19-.72-3.33-1.1s-2.34-.64-3.58-.89a46,46,0,0,0-7.81-1.07h-.06l-.05,0-18.82-10L223.6,172l-.1-.05,0-.11c-3.25-12.94-6.1-24.28-8.15-32.41-1-4-1.78-7.27-2.34-9.54-.26-1.09-.46-2-.61-2.57-.06-.27-.11-.49-.14-.67a.93.93,0,0,1,0-.23.74.74,0,0,1,.08.22l.19.66c.17.61.4,1.46.69,2.54.6,2.26,1.44,5.49,2.49,9.5L224,171.69l-.12-.17,10.68,5.7,18.81,10-.11,0a45.44,45.44,0,0,1,7.9,1.11c1.24.25,2.43.61,3.6.92s2.29.69,3.35,1.12a53,53,0,0,1,10.63,5.34c1.35,1,2.61,1.78,3.58,2.65a31.9,31.9,0,0,1,2.5,2.18l1.47,1.46.37.38C286.7,202.48,286.74,202.53,286.73,202.54Z" style="fill:#eb996e"></path><g style="opacity:0.30000000000000004"><path d="M242,248.68c0,.77,0,2.44,0,3.22,8-.38,15.44-2.72,23-5.46A65.87,65.87,0,0,1,242,248.68Z"></path></g><path d="M200.45,138.27a1.4,1.4,0,0,1,0,.3c0,.23,0,.52.07.89.06.82.13,2,.23,3.44.2,3,.49,7.29.94,12.62s1,11.66,2.07,18.64A71,71,0,0,0,206.08,185a12.54,12.54,0,0,0,1.15,2.59,11.45,11.45,0,0,0,2,2.09,59.32,59.32,0,0,0,4.77,3.65c6.69,4.63,13.37,8.61,19.43,12.23s11.61,6.75,16.26,9.39l11,6.21c1.28.72,2.29,1.28,3,1.69l.78.44.25.17a1.1,1.1,0,0,1-.28-.12l-.8-.4-3-1.61c-2.64-1.4-6.44-3.46-11.11-6.06s-10.22-5.72-16.32-9.3-12.77-7.56-19.49-12.22a58.45,58.45,0,0,1-4.82-3.69,11.91,11.91,0,0,1-2.06-2.19,13,13,0,0,1-1.2-2.71,47.88,47.88,0,0,1-1.38-5.52q-.53-2.73-.9-5.36c-1-7-1.54-13.36-2-18.68s-.64-9.66-.77-12.64c-.06-1.47-.1-2.62-.13-3.44,0-.37,0-.67,0-.9A1.36,1.36,0,0,1,200.45,138.27Z" style="fill:#eb996e"></path><path d="M34.88,407a8.35,8.35,0,0,0-1-3.38,20.37,20.37,0,0,0-5.12-6.38l0-.05-1.61,1.39.22.13a18,18,0,0,1,4.72,5.85,6.2,6.2,0,0,1,.73,2.58,2.09,2.09,0,0,1-.75,1.88c-.81.52-2.1.08-3-.38a18.09,18.09,0,0,1-6.79-5.88L20.76,404a19.45,19.45,0,0,0,7.45,6.4,7,7,0,0,0,3,.83,3.59,3.59,0,0,0,2-.55A4,4,0,0,0,34.88,407Z" style="fill:#455a64"></path><path d="M181.87,173.09a6.89,6.89,0,0,1-3-.84,20,20,0,0,1-7.54-6.53l1.32-1.26a19.3,19.3,0,0,0,7.11,6c.94.46,2.22.91,3,.39a2.11,2.11,0,0,0,.75-1.88,6.24,6.24,0,0,0-.73-2.59,18,18,0,0,0-4.72-5.85l-.65-.61,1.37-1.46.65.61a20.14,20.14,0,0,1,5.12,6.38,8.35,8.35,0,0,1,1,3.38,4,4,0,0,1-1.67,3.7A3.6,3.6,0,0,1,181.87,173.09Z" style="fill:#455a64"></path><path d="M317.89,20.67s-.27.27-.81.78l-2.44,2.27-9.54,8.81v0h0L267.33,43.69l.1-.08C261.18,57.4,253.66,74,245.21,92.68v0l0,0-35.6,36.7-4.82,5c-.82.83-1.61,1.7-2.46,2.5l-2.59,2.39-10.52,9.76-21.84,20.23.06-.1-8.76,25.47,0,.06,0,0-16,17.22,0,0-.05,0-1,.49L81.83,241l.1-.1c-8.63,14.49-16.92,28.4-24.8,41.61v-.23l25.17,51.5.06.11-.09.1L34.86,392.24h0L20.89,404l-3.61,3c-.81.68-1.23,1-1.23,1l1.2-1.05,3.56-3.05,13.9-11.8h0L82,333.77l0,.21L56.72,282.52l-.06-.11.06-.11L81.5,240.67l0-.06.07,0,59.63-28.53,1-.49-.08.06,16-17.23,0,.09c3-8.75,6-17.38,8.77-25.47l0-.06.05,0,21.84-20.22,10.53-9.75,2.59-2.39c.85-.8,1.64-1.67,2.46-2.49l4.82-5C222,116,234,103.68,244.87,92.45l0,.06c8.48-18.65,16-35.26,22.31-49l0-.07.07,0,37.78-11,0,0,9.6-8.75,2.47-2.23Z" style="fill:#263238"></path></g></svg>
