<svg xmlns="http://www.w3.org/2000/svg" viewBox="0 0 500 500"><g id="freepik--Shadows--inject-144"><ellipse id="freepik--Shadow--inject-144" cx="307.64" cy="388.39" rx="32.1" ry="55.6" transform="translate(-88.06 686.57) rotate(-88.62)" style="fill:#e0e0e0"></ellipse><ellipse id="freepik--shadow--inject-144" cx="197.81" cy="390.12" rx="32.1" ry="55.6" transform="translate(-196.97 578.46) rotate(-88.62)" style="fill:#e0e0e0"></ellipse><ellipse id="freepik--shadow--inject-144" cx="98.22" cy="411.88" rx="32.1" ry="55.6" transform="translate(-315.91 500.13) rotate(-88.62)" style="fill:#e0e0e0"></ellipse><ellipse id="freepik--shadow--inject-144" cx="399.29" cy="410.31" rx="32.1" ry="55.6" transform="translate(-20.53 799.59) rotate(-88.62)" style="fill:#e0e0e0"></ellipse></g><g id="freepik--Circles--inject-144"><g id="freepik--circles--inject-144"><g style="opacity:0.4"><path d="M92.35,196.82a43.74,43.74,0,1,1,43.74-43.74A43.79,43.79,0,0,1,92.35,196.82Zm0-86.57a42.83,42.83,0,1,0,42.83,42.83A42.87,42.87,0,0,0,92.35,110.25Z" style="fill:#FFC100"></path></g><g style="opacity:0.4"><path d="M400.79,194.19a42.48,42.48,0,1,1,42.48-42.47A42.52,42.52,0,0,1,400.79,194.19Zm0-84a41.57,41.57,0,1,0,41.56,41.57A41.61,41.61,0,0,0,400.79,110.15Z" style="fill:#FFC100"></path></g><g style="opacity:0.4"><path d="M308.56,171.92a43.54,43.54,0,1,1,43.53-43.53A43.58,43.58,0,0,1,308.56,171.92Zm0-86.15a42.62,42.62,0,1,0,42.62,42.62A42.66,42.66,0,0,0,308.56,85.77Z" style="fill:#FFC100"></path></g><path d="M366.29,104.35a12,12,0,1,1,12-12A12,12,0,0,1,366.29,104.35Zm0-23.12a11.1,11.1,0,1,0,11.1,11.1A11.11,11.11,0,0,0,366.29,81.23Z" style="fill:#FFC100"></path><path d="M458.5,195.24a9.63,9.63,0,1,1,9.63-9.63A9.64,9.64,0,0,1,458.5,195.24Zm0-18.34a8.72,8.72,0,1,0,8.72,8.71A8.72,8.72,0,0,0,458.5,176.9Z" style="fill:#FFC100"></path><path d="M127.76,98a9.63,9.63,0,1,1,9.63-9.63A9.64,9.64,0,0,1,127.76,98Zm0-18.34a8.71,8.71,0,1,0,8.71,8.71A8.73,8.73,0,0,0,127.76,79.63Z" style="fill:#FFC100"></path><path d="M256.86,88.8a15.92,15.92,0,1,1,15.91-15.92A15.93,15.93,0,0,1,256.86,88.8Zm0-30.91a15,15,0,1,0,15,15A15,15,0,0,0,256.86,57.89Z" style="fill:#FFC100"></path><path d="M251.8,153.87a7.35,7.35,0,1,1,7.34-7.35A7.36,7.36,0,0,1,251.8,153.87Zm0-13.78a6.44,6.44,0,1,0,6.43,6.43A6.44,6.44,0,0,0,251.8,140.09Z" style="fill:#FFC100"></path><path d="M39.24,196a7.35,7.35,0,1,1,7.34-7.35A7.36,7.36,0,0,1,39.24,196Zm0-13.78a6.44,6.44,0,1,0,6.43,6.43A6.45,6.45,0,0,0,39.24,182.21Z" style="fill:#FFC100"></path><g style="opacity:0.4"><path d="M193.21,166a44.21,44.21,0,1,1,44.21-44.21A44.26,44.26,0,0,1,193.21,166Zm0-87.5a43.3,43.3,0,1,0,43.3,43.29A43.34,43.34,0,0,0,193.21,78.45Z" style="fill:#FFC100"></path></g></g></g><g id="freepik--Hearts--inject-144"><g id="freepik--hearts--inject-144"><path id="freepik--Heart--inject-144" d="M94.06,81.72l1.58-1.6c1.21-1.22,3.94-4.41,3.23-7.62a3.49,3.49,0,0,0-6.84.07,3.49,3.49,0,0,0-6.23,2.82c.71,3.22,4.53,5,6.14,5.55Z" style="fill:#FFC100"></path><path id="freepik--heart--inject-144" d="M251.43,112.18l2.17-.59c1.66-.45,5.62-1.84,6.61-5a3.5,3.5,0,0,0-6-3.36,3.49,3.49,0,0,0-6.8-.68c-1,3.14,1.45,6.56,2.54,7.88Z" style="fill:#FFC100"></path><path id="freepik--heart--inject-144" d="M458.31,91.34l1.43-1.74c1.09-1.33,3.51-4.75,2.5-7.89a3.49,3.49,0,0,0-6.8.71,3.49,3.49,0,0,0-5.94,3.39c1,3.13,5,4.5,6.63,5Z" style="fill:#FFC100"></path><path id="freepik--heart--inject-144" d="M456.93,271.2l2.1-.82c1.6-.63,5.39-2.43,6.05-5.66A3.49,3.49,0,0,0,458.8,262a3.5,3.5,0,0,0-6.84.05c-.66,3.23,2.13,6.36,3.36,7.56Z" style="fill:#FFC100;opacity:0.4"></path><path id="freepik--heart--inject-144" d="M51.33,266.28l1.11-1.95c.84-1.5,2.65-5.29,1.12-8.21A3.5,3.5,0,0,0,47,258a3.5,3.5,0,0,0-5.28,4.35c1.53,2.92,5.67,3.6,7.38,3.75Z" style="fill:#FFC100;opacity:0.4"></path></g></g><g id="freepik--Stars--inject-144"><g id="freepik--stars--inject-144"><path d="M310.55,65.49a1.12,1.12,0,0,1-.31,0,.92.92,0,0,1-.61-.77l-.26-2.12-1.9-1a.92.92,0,0,1-.49-.84.9.9,0,0,1,.53-.82l1.94-.9.36-2.11a1,1,0,0,1,.65-.74.92.92,0,0,1,.94.26L312.86,58l2.11-.32a.93.93,0,0,1,.95,1.37l-1,1.87.95,1.91a.94.94,0,0,1-.09,1,1,1,0,0,1-.92.35l-2.1-.41-1.52,1.49A.91.91,0,0,1,310.55,65.49Zm.18-8.92-.14,0a.45.45,0,0,0-.33.37l-.4,2.35-2.16,1a.48.48,0,0,0-.27.42.45.45,0,0,0,.26.42l2.1,1.11.29,2.36a.48.48,0,0,0,.8.28l1.69-1.67,2.34.46a.47.47,0,0,0,.51-.67l-1.06-2.13,1.16-2.08a.46.46,0,0,0,0-.5.44.44,0,0,0-.45-.19l-2.36.34-1.61-1.74A.48.48,0,0,0,310.73,56.57Z" style="fill:#FFC100"></path><path d="M259.42,193.54a1.12,1.12,0,0,1-.31,0,.92.92,0,0,1-.61-.76l-.26-2.13-1.9-1a.93.93,0,0,1,0-1.66l1.94-.9.36-2.11a.92.92,0,0,1,.65-.73.9.9,0,0,1,.94.26l1.46,1.56,2.11-.31a.92.92,0,0,1,.9.39.93.93,0,0,1,.05,1l-1,1.86.95,1.92a.93.93,0,0,1-1,1.32l-2.1-.41-1.52,1.5A.94.94,0,0,1,259.42,193.54Zm.18-8.91a.32.32,0,0,0-.14,0,.45.45,0,0,0-.33.37l-.4,2.34-2.15,1a.46.46,0,0,0-.28.41.47.47,0,0,0,.26.43l2.1,1.1.29,2.36a.47.47,0,0,0,.31.39.47.47,0,0,0,.49-.11l1.69-1.66,2.34.45a.45.45,0,0,0,.46-.17.48.48,0,0,0,.05-.5l-1.06-2.13,1.16-2.08a.44.44,0,0,0,0-.49.45.45,0,0,0-.45-.2l-2.35.35-1.62-1.74A.48.48,0,0,0,259.6,184.63Z" style="fill:#FFC100"></path><path d="M42.08,116.63a.89.89,0,0,1-.31-.06.91.91,0,0,1-.61-.76l-.26-2.12-1.89-1a.92.92,0,0,1-.5-.85.91.91,0,0,1,.54-.81l1.93-.91.36-2.1a.93.93,0,0,1,.65-.74.92.92,0,0,1,.94.26l1.46,1.56,2.12-.31a.93.93,0,0,1,.89.39.91.91,0,0,1,.05,1l-1,1.87,1,1.91a.92.92,0,0,1-.09,1,1,1,0,0,1-.92.35l-2.09-.42-1.53,1.5A1,1,0,0,1,42.08,116.63Zm.18-8.92-.14,0a.45.45,0,0,0-.33.37l-.39,2.35-2.16,1a.45.45,0,0,0-.27.42.44.44,0,0,0,.25.42l2.11,1.1.28,2.36a.46.46,0,0,0,.32.39.45.45,0,0,0,.48-.11l1.7-1.66,2.33.46a.47.47,0,0,0,.47-.18.46.46,0,0,0,0-.49L45.9,112,47.05,110a.47.47,0,0,0,0-.5.49.49,0,0,0-.46-.2l-2.35.35-1.62-1.74A.45.45,0,0,0,42.26,107.71Z" style="fill:#FFC100"></path><path d="M429.68,48.73a.84.84,0,0,1-.58-.22l-1.59-1.36-2,.58a.91.91,0,0,1-1.09-1.23l.79-2-1.14-1.78a.91.91,0,0,1,0-1,.89.89,0,0,1,.84-.45l2.08.14,1.31-1.68a.91.91,0,0,1,.91-.33.89.89,0,0,1,.69.68h0l.49,2.07,1.95.74a.89.89,0,0,1,.58.76.94.94,0,0,1-.42.89l-1.78,1.14-.1,2.13a.94.94,0,0,1-.56.82A.92.92,0,0,1,429.68,48.73Zm-2.06-2.09,1.78,1.53a.45.45,0,0,0,.46.07.47.47,0,0,0,.28-.42l.12-2.37,2-1.27a.47.47,0,0,0-.07-.84L430,42.52l-.56-2.31a.45.45,0,0,0-.34-.34.46.46,0,0,0-.45.17l-1.46,1.87-2.32-.16a.48.48,0,0,0-.42.23.47.47,0,0,0,0,.51l1.27,2-.88,2.21a.46.46,0,0,0,.08.49.43.43,0,0,0,.45.13Z" style="fill:#FFC100"></path><path d="M99.48,46.17a.91.91,0,0,1-.6-.22l-1.63-1.37-2.06.57a.93.93,0,0,1-1.11-1.24l.8-2L93.7,40.14a.93.93,0,0,1,0-1,.91.91,0,0,1,.86-.45l2.13.15L98,37.18a.92.92,0,0,1,.92-.32.9.9,0,0,1,.7.68l.52,2.07,2,.75a1,1,0,0,1,.6.78.93.93,0,0,1-.44.88l-1.81,1.13-.09,2.13a.92.92,0,0,1-.56.81A.8.8,0,0,1,99.48,46.17Zm-2.12-2.09,1.82,1.52a.46.46,0,0,0,.49.08.47.47,0,0,0,.28-.41l.11-2.38,2-1.26a.45.45,0,0,0,.22-.45.47.47,0,0,0-.3-.39L99.76,40l-.57-2.31a.47.47,0,0,0-.83-.18l-1.48,1.86-2.37-.17a.49.49,0,0,0-.44.23.47.47,0,0,0,0,.5l1.32,2-.9,2.21a.47.47,0,0,0,.09.49.46.46,0,0,0,.47.14Z" style="fill:#FFC100"></path><path d="M207.14,54.75a.94.94,0,0,1-.59-.22l-1.64-1.37-2.06.57a1,1,0,0,1-.94-.28.93.93,0,0,1-.17-1l.8-2-1.18-1.78a.93.93,0,0,1,0-1,.92.92,0,0,1,.86-.46l2.14.15,1.33-1.67a.92.92,0,0,1,1.62.35l.52,2.08,2,.75a.93.93,0,0,1,.6.78.92.92,0,0,1-.43.87l-1.82,1.14-.09,2.13a.93.93,0,0,1-.55.81A1,1,0,0,1,207.14,54.75ZM205,52.65l1.82,1.53a.47.47,0,0,0,.77-.34l.11-2.37,2-1.26a.46.46,0,0,0,.22-.45.44.44,0,0,0-.3-.39l-2.23-.84-.57-2.3a.48.48,0,0,0-.36-.35.43.43,0,0,0-.46.17l-1.49,1.86-2.37-.17a.47.47,0,0,0-.42.73l1.31,2-.9,2.21a.47.47,0,0,0,.09.48.46.46,0,0,0,.48.15Z" style="fill:#FFC100"></path><path d="M464.2,149a.88.88,0,0,1-.59-.22L462,147.4l-2.06.57a.93.93,0,0,1-.94-.28.91.91,0,0,1-.16-1l.8-2L458.43,143a.92.92,0,0,1,.84-1.43l2.13.15,1.33-1.68a.92.92,0,0,1,.92-.32.91.91,0,0,1,.71.68l.51,2.07,2,.75a.93.93,0,0,1,.17,1.66L465.23,146l-.1,2.14a.91.91,0,0,1-.55.8A.84.84,0,0,1,464.2,149Zm-2.12-2.09,1.82,1.52a.47.47,0,0,0,.49.08.45.45,0,0,0,.28-.41l.11-2.38,2-1.26A.48.48,0,0,0,467,144a.46.46,0,0,0-.31-.4l-2.22-.83-.58-2.31a.45.45,0,0,0-.35-.35.49.49,0,0,0-.47.17l-1.48,1.86-2.38-.17a.48.48,0,0,0-.43.23.45.45,0,0,0,0,.5l1.31,2-.89,2.21a.47.47,0,0,0,.56.63Z" style="fill:#FFC100"></path></g></g><g id="freepik--musical-notes--inject-144"><g id="freepik--musical-notes--inject-144"><path id="freepik--musical-note--inject-144" d="M354.94,45.86a4.14,4.14,0,0,1,.75-1.63,8.61,8.61,0,0,1,1.71-1.7,16.46,16.46,0,0,0,2.41-2.15,4,4,0,0,0,1.05-3,4.12,4.12,0,0,1-1.36,1.3c-1.29.77-3.16.75-4.59,1.24-2.12.73-3.23,2.26-4.21,4.44,1.54,1.22,3.06,2.49,4.59,3.74l3.6,2.94,1.6,1.38a4.17,4.17,0,0,0-1.41,1.08,3.33,3.33,0,1,0,4.68-.48Z" style="fill:#FFC100;opacity:0.5"></path><path id="freepik--musical-note--inject-144" d="M51.29,59.87a4.26,4.26,0,0,1,1.79.14,9.26,9.26,0,0,1,2.19,1,17.28,17.28,0,0,0,2.84,1.53,4,4,0,0,0,3.14,0,4.12,4.12,0,0,1-1.68-.82c-1.18-1-1.8-2.71-2.75-3.88-1.43-1.74-3.24-2.24-5.63-2.42-.61,1.88-1.28,3.74-1.92,5.61-.51,1.46-1,2.93-1.52,4.39,0,.14-.73,2-.73,2a4.1,4.1,0,0,0-1.51-1,3.32,3.32,0,1,0,2.07,4.23Z" style="fill:#FFC100;opacity:0.5"></path><path id="freepik--musical-note--inject-144" d="M406.14,68.58,408.34,79a2.72,2.72,0,0,0-.94,0,2.78,2.78,0,1,0,3.3,2.14l-2-9.32,8.86-4.46h0l2,9.23a2.7,2.7,0,0,0-.94,0,2.78,2.78,0,1,0,3.3,2.14h0l-3.29-15.41Z" style="fill:#FFC100"></path><path id="freepik--musical-note--inject-144" d="M152.35,45.76l2.55,12.06a3.09,3.09,0,0,0-1.09,0,3.23,3.23,0,1,0,3.83,2.48l-2.29-10.81,10.28-5.17h0l2.29,10.71a3.14,3.14,0,0,0-1.1,0,3.23,3.23,0,1,0,3.83,2.48h0L166.83,39.7Z" style="fill:#FFC100"></path></g></g><g id="freepik--character-3--inject-144"><g id="freepik--Character--inject-144"><g id="freepik--Botom--inject-144"><path d="M330.62,362.39c.17-4.15,1.53-46,1.53-46l-20,14.74c4,23.8,5,31,5.2,35h0a3.09,3.09,0,0,0-.08,1c.21,4.73,5.92,7.09,10.43,10.09a83.09,83.09,0,0,0,12.14,6.94c3.24,1.41,9.71,1.32,10.44-.65-5.49-3.69-11.83-7.7-16.24-12C331.94,369.52,330.41,367.37,330.62,362.39Z" style="fill:#ffbda7"></path><path d="M356.68,388.36c.25,0,.75,2.84-.59,4.11-1.55,1.46-6.16,3.94-12.41,3.34s-9.68-2.43-12.24-4.46-6.17-4.88-9-5.41c-2.63-.5-5.52-1.6-6.38-2.39s-.89-4.44-.89-4.44Z" style="fill:#263238"></path><path d="M317.27,365s-.67,0-.8.84c-.16,1-.34,4-.68,5.63-.49,2.31-.87,7.06-.46,8.92s4.72,3,7.48,4a34.85,34.85,0,0,1,9,5.34c3,2.35,9.24,4.58,13.29,4.5,6.19-.13,10.12-2,11.27-4.28,1.43-2.85.88-4.82-6.35-7.92a84,84,0,0,1-8.06-4.44,23.69,23.69,0,0,1-9.35-10.78,2.77,2.77,0,0,0-1.08-1.47,2.27,2.27,0,0,0-1.39-.08,30.47,30.47,0,0,0-5.64,1.33c-.94.5-2.27,1.08-2.2,2.33a4,4,0,0,0,.32,1.25c.09.25.17.58,0,.74s-.48,0-.67-.16a19,19,0,0,1-2-2.27,7,7,0,0,0-1.17-1.13,12.75,12.75,0,0,1-1.24-.75S317.32,365.55,317.27,365Z" style="fill:#FFC100"></path><path d="M317.27,365s-.67,0-.8.84c-.16,1-.34,4-.68,5.63-.49,2.31-.87,7.06-.46,8.92s4.72,3,7.48,4a34.85,34.85,0,0,1,9,5.34c3,2.35,9.24,4.58,13.29,4.5,6.19-.13,10.12-2,11.27-4.28,1.43-2.85.88-4.82-6.35-7.92a84,84,0,0,1-8.06-4.44,23.69,23.69,0,0,1-9.35-10.78,2.77,2.77,0,0,0-1.08-1.47,2.27,2.27,0,0,0-1.39-.08,30.47,30.47,0,0,0-5.64,1.33c-.94.5-2.27,1.08-2.2,2.33a4,4,0,0,0,.32,1.25c.09.25.17.58,0,.74s-.48,0-.67-.16a19,19,0,0,1-2-2.27,7,7,0,0,0-1.17-1.13,12.75,12.75,0,0,1-1.24-.75S317.32,365.55,317.27,365Z" style="opacity:0.30000000000000004"></path><path d="M350.26,382c-8.93,1-12.67,6.82-11.53,11.07a20.79,20.79,0,0,0,6.4,1.13c6.19-.13,10.38-2,11.53-4.29C358,387.18,356.69,384.18,350.26,382Z" style="fill:#fafafa"></path><path d="M338.1,383.25a.39.39,0,0,1-.28-.09.44.44,0,0,1-.08-.62,10.36,10.36,0,0,1,8-3.53.44.44,0,1,1-.06.88,9.62,9.62,0,0,0-7.2,3.19A.44.44,0,0,1,338.1,383.25Z" style="fill:#f0f0f0"></path><path d="M334.49,381.08a.46.46,0,0,1-.28-.1.44.44,0,0,1-.08-.62,10.38,10.38,0,0,1,8-3.53.43.43,0,0,1,.4.47.42.42,0,0,1-.46.41,9.63,9.63,0,0,0-7.21,3.19A.46.46,0,0,1,334.49,381.08Z" style="fill:#f0f0f0"></path><path d="M330.93,378.29a.45.45,0,0,1-.37-.72,10.45,10.45,0,0,1,8-3.53.45.45,0,0,1,.41.47.45.45,0,0,1-.47.42,9.68,9.68,0,0,0-7.21,3.18A.44.44,0,0,1,330.93,378.29Z" style="fill:#f0f0f0"></path><path d="M327.41,375.49a.49.49,0,0,1-.28-.09.45.45,0,0,1-.09-.62c1.63-2.26,5.45-3.85,8.71-3.61a.44.44,0,0,1,.4.48.43.43,0,0,1-.46.41c-2.94-.22-6.5,1.24-7.95,3.25A.44.44,0,0,1,327.41,375.49Z" style="fill:#f0f0f0"></path><path d="M296.47,329.47l-21.25-4.14c-.29,13.11.41,30.82.22,43.12,0,2.32-.92,18-.15,22.77,1.15,7.2,10.81,6.53,11.53,2.27s1-22.44,1.16-24.32c.28-7.89,4.51-21.22,7.37-35.3C295.49,333.17,296.34,330.14,296.47,329.47Z" style="fill:#ffbda7"></path><path d="M290.3,396.58c0,4.21-.55,7-2.08,9.59s-4.65,3.51-7.92,3-7.53-2.22-8.7-5.78-1.14-6.06-.67-10Z" style="fill:#263238"></path><path d="M275.45,367c-1.32.17-1.34,5.82-1.73,11.5-.42,6.09-2.3,8.71-2.7,13.71-.46,5.71,0,8.22,2.52,11.51s10.66,6.19,14.26,1.06c2.93-4.18,2.77-8.62,2.1-14.25a128.31,128.31,0,0,1-1.25-14.37c0-4.26.63-8.23-.55-8.64-.05.63-.08,1.43-.14,2s0,2.78-.76,2.84a7,7,0,0,1-.12-1.59,1.76,1.76,0,0,0-.46-1.35,5.17,5.17,0,0,0-2.1-.65c-1.33-.15-2.66-.28-4-.31-.67,0-1.33,0-2,0a6.17,6.17,0,0,0-1.66.31,1.15,1.15,0,0,0-.69.62,1.58,1.58,0,0,0,0,.65,4.62,4.62,0,0,1-.09,1.17c0,.17-.16.38-.35.35s-.23-.19-.24-.33c-.05-.68,0-1.18,0-2,0-.37,0-.87,0-1.24S275.45,367.31,275.45,367Z" style="fill:#FFC100"></path><path d="M275.45,367c-1.32.17-1.34,5.82-1.73,11.5-.42,6.09-2.3,8.71-2.7,13.71-.46,5.71,0,8.22,2.52,11.51s10.66,6.19,14.26,1.06c2.93-4.18,2.77-8.62,2.1-14.25a128.31,128.31,0,0,1-1.25-14.37c0-4.26.63-8.23-.55-8.64-.05.63-.08,1.43-.14,2s0,2.78-.76,2.84a7,7,0,0,1-.12-1.59,1.76,1.76,0,0,0-.46-1.35,5.17,5.17,0,0,0-2.1-.65c-1.33-.15-2.66-.28-4-.31-.67,0-1.33,0-2,0a6.17,6.17,0,0,0-1.66.31,1.15,1.15,0,0,0-.69.62,1.58,1.58,0,0,0,0,.65,4.62,4.62,0,0,1-.09,1.17c0,.17-.16.38-.35.35s-.23-.19-.24-.33c-.05-.68,0-1.18,0-2,0-.37,0-.87,0-1.24S275.45,367.31,275.45,367Z" style="opacity:0.30000000000000004"></path><path d="M270.87,395.46c0,3.53.39,5.92,2.33,8.5,2.48,3.29,11.3,6.16,14.9,1,1.79-2.55,2.13-5.47,2.2-8.43C287.69,392.93,274.36,392,270.87,395.46Z" style="fill:#fafafa"></path><path d="M286.48,390.62l-.16,0a21.88,21.88,0,0,0-11.53-.39.5.5,0,0,1-.61-.29.43.43,0,0,1,.33-.54,22.58,22.58,0,0,1,12.18.41.42.42,0,0,1,.27.56A.52.52,0,0,1,286.48,390.62Z" style="fill:#f0f0f0"></path><path d="M274.83,386a.51.51,0,0,1-.44-.27.42.42,0,0,1,.27-.57c5.84-2.12,11.9.21,12.16.31a.41.41,0,0,1,.25.57.54.54,0,0,1-.66.22c-.05,0-5.94-2.28-11.37-.3A.52.52,0,0,1,274.83,386Z" style="fill:#f0f0f0"></path><path d="M274.91,382a.53.53,0,0,1-.44-.26.43.43,0,0,1,.26-.58,17.09,17.09,0,0,1,12.4.27.4.4,0,0,1,.2.58.52.52,0,0,1-.66.19,16.31,16.31,0,0,0-11.55-.24A.52.52,0,0,1,274.91,382Z" style="fill:#f0f0f0"></path><path d="M275,377.47a.49.49,0,0,1-.43-.25.42.42,0,0,1,.25-.58c6-2.38,12.23.27,12.5.38a.41.41,0,0,1,.22.58.53.53,0,0,1-.67.2c-.06,0-6.07-2.58-11.65-.36A.53.53,0,0,1,275,377.47Z" style="fill:#ebebeb"></path><path d="M282.11,227.7c0,23.84-3.29,71.58-3.29,71.58-.3,2.94-4.29,15.47-4.22,26.06.09,16.62,0,29.21,0,29.21s9.35,3.48,16.12.8c0,0,8.14-35.49,10.4-46.56C303.81,295.6,310.7,271,310.7,271l.18,34.71a94.63,94.63,0,0,0,.15,21c1,7,4.17,26.4,4.17,26.4s8.58,1.55,15.93-.8c0,0,5-44,5.39-50.4s1.81-33.05.23-73.66Z" style="fill:#FFC100"></path><path d="M282.11,227.7c0,23.84-3.29,71.58-3.29,71.58-.3,2.94-4.29,15.47-4.22,26.06.09,16.62,0,29.21,0,29.21s9.35,3.48,16.12.8c0,0,8.14-35.49,10.4-46.56C303.81,295.6,310.7,271,310.7,271l.18,34.71a94.63,94.63,0,0,0,.15,21c1,7,4.17,26.4,4.17,26.4s8.58,1.55,15.93-.8c0,0,5-44,5.39-50.4s1.81-33.05.23-73.66Z" style="fill:#fff;opacity:0.65"></path><path d="M310.7,271l3.76-22.57a20.24,20.24,0,0,0,12.64-5.41s-.59,5.2-10.65,8.54L313,270.33l-2.12,35.42Z" style="fill:#FFC100;opacity:0.5"></path></g><g id="freepik--Top--inject-144"><path d="M348.52,213.47c-3-.65-6-6.22-7.23-8.09-1.51-2.35-10-18-13.5-27.2s2.23-17.81,5.15-21.68c6.55,1.6,10.22,9.75,13.24,18.76L354.67,194" style="fill:#ffbda7"></path><path d="M354.62,194.29c6.65-2.12,20.92-5.75,23.2-6.62,2.95-1.13,3.49-2,4.22-3.31a20.45,20.45,0,0,1,1.81-3.3,24,24,0,0,1,3.83-5.68,15.34,15.34,0,0,0,1.4-2.28c.12-.2.26-.41.48-.45a.74.74,0,0,1,.53.16c1,.66,1,1.34,1,2.5a10.14,10.14,0,0,1-1.22,3.51c-.42.87-.92,1.78-.41,2.34s1.56.11,2.16-.16a30.8,30.8,0,0,0,2.87-1.63,57,57,0,0,0,7.47-5.56c1.21-1,4.87-6.09,6.12-3.59.72,1.44.16,2.36-.41,3.92a1.47,1.47,0,0,1,1.18.86,2.18,2.18,0,0,1,.19,1.48,8.12,8.12,0,0,1-.68,2.42c2.89,2.16-1.53,8.4-3.18,9.93-6.82,6.34-9.4,6.89-15.75,8.89-1.61.5-4.84,1.56-8.94,3.22-4.65,1.89-8.64,4-24.87,10.38-3.57,1.41-5.74,2.77-8.47,1.53" style="fill:#ffbda7"></path><path d="M330.94,154.61c-3.29,1.43-2.24,3-4.83,8.89s-.11,12.4,2.4,18.27,11.44,23.39,13.36,26.39,4,5.85,6.61,6.23,5.56-1.15,8.12-2.09c0,0-2.86-13.76-.53-19.06l-1.5-.43s-7.29-18.15-10.28-24.82S340.35,156.71,330.94,154.61Z" style="fill:#e0e0e0"></path><path d="M355.09,193l6.21-1.38a25.28,25.28,0,0,0-.25,9.29,28,28,0,0,0,2.62,7.82,69.66,69.66,0,0,1-9.06,4.64S348.44,200.88,355.09,193Z" style="fill:#ebebeb"></path><path d="M284.05,156.42a21.27,21.27,0,0,0-4.3,7.74c-.57,2.11-1.62,2.38.16,14.08A166.3,166.3,0,0,1,282,201.46c.69,20.83-1.83,24.3.44,28.54,6.68,7.82,38.4,10.7,54,.16,2.25-1.61.58-4.08.61-9.68.09-13.91-.31-33.41-.9-43-.89-14.31-2.11-20.13-5.22-22.91-6.17-2-13.87-3.43-13.87-3.43l-22.33,1.14Z" style="fill:#f0f0f0"></path><path d="M285.62,157.07c2.6,3.3,5.72,11.46,8.13,20.65L301,197c6.25-3.08,19.83-8.79,22-10,2.75-1.56,3.16-2.46,3.68-3.9a21.14,21.14,0,0,1,1.3-3.54c.94-3.08,1.62-3.81,2.95-6.18a16.25,16.25,0,0,0,1.05-2.46.82.82,0,0,1,.4-.52.72.72,0,0,1,.55.09c1,.51,1.22,1.17,1.35,2.32a10.1,10.1,0,0,1-.69,3.65c-.28.92-.65,1.9-.06,2.38.91.55,1.72-.35,2.17-.76,1.81-2,6.73-8.08,8.87-10.36a3.53,3.53,0,0,1,1.71-1.2c1.14-.26,1.82.57,1.63,1.73a3.29,3.29,0,0,1-.54,1.21c-1.22,1.94-4.84,6.57-5.66,7.82-.3.47-.75,1.32-.32,1.66.7.79,2.09,0,3.08-.69,4.11-2.78,5.15-3.26,7.91-5a1.9,1.9,0,0,1,2.53.21,1.5,1.5,0,0,1-.27,2c-.42.43-1.61,1.41-2.57,2.17-1.63,1.29-6.73,5.11-6.73,5.11,1.22.46,1.74,2.49.23,4.13a3.83,3.83,0,0,1-1,4.31c-1.39,1.42-5.25,3.37-8.58,4a14.2,14.2,0,0,0-6,2.51c-4.07,2.94-10.33,7.2-25.42,16-3.32,1.92-8,3.12-10.93,2.29s-5.6-6.6-6.68-8.55c-1.35-2.45-8.79-18.61-11.66-28S273.46,161,285.62,157.07Z" style="fill:#ffbda7"></path><path d="M285.57,155.84c-3.38,1.22-8.26,2.35-11.24,8.06S273.58,177,275.69,183s9.85,24.09,11.58,27.22,3.59,6.11,6.18,6.65,6.19-.64,8.3-1.91c0,0-2-13.55.68-18.69l-1.47-.52L292,170.52S288.48,160.42,285.57,155.84Z" style="fill:#e0e0e0"></path><path d="M301.47,196l6.62-2.25s-1.75,5.8-1.2,10.54a22.74,22.74,0,0,0,2,7.5c-2.88,2.05-6,3.93-9.28,4.51C299.64,216.27,294.3,203.43,301.47,196Z" style="fill:#ebebeb"></path><path d="M319.86,104.07c-6.77-4.66-10.15-7.64-13.13-7s-3.79,2.69-6.73,3.53-11.33,3.51-12.17,10.46,2.66,17.19,2.66,17.19S299.06,109.53,319.86,104.07Z" style="fill:#37474f"></path><ellipse cx="310.24" cy="124.59" rx="29.65" ry="23.15" transform="translate(-10.53 218.82) rotate(-38.25)" style="fill:#455a64"></ellipse><g id="freepik--Head--inject-144"><path d="M328.94,122.62c2.08-4.76,0-11.09-2.44-14.06-3.6-4.29-9.18-6.14-17.61-5.62-6.4.4-14.08,3.26-15.28,9.83-5.93,3-3.82,11.24-2.24,14.71,3.32,7.28,8,13,8.13,16.84Z" style="fill:#263238"></path><path d="M328.16,140.18c-1.66,3.41-4.26,6.87-7.65,7.26a31.86,31.86,0,0,1-3.42-.12l.13,4.65c4.55,3.9,2.88,9-.15,13.61-3.77-4.19-8.08-5.68-11.85-7.34a12,12,0,0,1-5.49-5.32l-.48-15.71s-2.07,2.35-5.48.13c-2.34-1.53-4.42-5.7-2.32-9.11a4.4,4.4,0,0,1,6.82-.92c1,1.09,1.55,3,2.42,2.75a3.16,3.16,0,0,0,2.1-2.14,19.15,19.15,0,0,0,1.1-6.91,9.34,9.34,0,0,0,2.64-2,8.51,8.51,0,0,0,2.3-5.29c7.3-2.29,15.7-1.21,18.74,1.14,1.75,3.07,1.81,10.23,2.1,14.35C330,133.64,329.56,137.3,328.16,140.18Z" style="fill:#ffbda7"></path><path d="M317.09,147.32c-3.74-.21-11.26-2-13.26-4s-2.85-6.36-2.85-6.36.3,5.39,1.85,7.77,5.46,3.42,7.83,4a57.84,57.84,0,0,0,6.5,1Z" style="fill:#f0997a"></path><path d="M317.07,165.59c-2-1.2-6.27-6.1-8.42-3.83s-3.3,2.91-4.72,2.48-4.55-3.51-6.59-5.77a13.12,13.12,0,0,1-2.7-5.5,36.67,36.67,0,0,0,2.89-4c1-1.73.76-2.21,2-2.3l.11,3.25s.79,1.78,4.3,4.18S314.54,160.06,317.07,165.59Z" style="fill:#e0e0e0"></path><path d="M317.07,165.59c1.16-1.06,3.06-6,3.56-5.88.75.22,2.08,3.63,2.73,2.84,1-1.26.71-7-1-9.11s-4-5.38-5.3-5.6l.16,4.14a12.45,12.45,0,0,1,1.26,4.94C318.47,158.67,317.31,163.92,317.07,165.59Z" style="fill:#e0e0e0"></path><path d="M313.63,126.87c.21.84-.39,1.21-1.2,1.42s-1.52.16-1.73-.69a1.51,1.51,0,1,1,2.93-.73Z" style="fill:#263238"></path><path d="M311.92,123l-3.06,2.07a1.93,1.93,0,0,1,.52-2.63A1.8,1.8,0,0,1,311.92,123Z" style="fill:#263238"></path><path d="M327.27,123.59l-3.35-1.6a1.77,1.77,0,0,1,2.42-.92A1.94,1.94,0,0,1,327.27,123.59Z" style="fill:#263238"></path><path d="M325.67,127.07c-.15.86-.87,1.05-1.7.9s-1.43-.57-1.28-1.42a1.51,1.51,0,1,1,3,.52Z" style="fill:#263238"></path><polygon points="317.16 123.79 318.25 134.65 324.08 132.9 317.16 123.79" style="fill:#f0997a"></polygon><path d="M314.72,136.92l6.25,1.39a3.15,3.15,0,0,1-3.75,2.54A3.35,3.35,0,0,1,314.72,136.92Z" style="fill:#b16668"></path><path d="M317.22,140.85a2.58,2.58,0,0,0,.39,0,2.9,2.9,0,0,0-2.91-2.83A3.3,3.3,0,0,0,317.22,140.85Z" style="fill:#f0997a"></path></g><path d="M323.92,106.16l-16.74,6.47c.4,4.69,6.75,10.11,10.85,10.41a6.59,6.59,0,0,1-1.46-3.86s.15,1.51,4.4,3.79a18.52,18.52,0,0,0,10.14,1.75S332.34,110.92,323.92,106.16Z" style="fill:#263238"></path><path d="M307.52,113.09c2.09,3.6,2.83,12.53-6.95,17C297.85,128.17,294.74,118.42,307.52,113.09Z" style="fill:#263238"></path><path d="M325.68,107.39c-12.2-5.36-34.28,7.84-34.23,20.84l-3.07-7.59a23.39,23.39,0,0,1,12.6-17C313.8,97.18,326.19,106.66,325.68,107.39Z" style="fill:#455a64"></path></g></g></g><g id="freepik--character-4--inject-144"><g id="freepik--Chartacter--inject-144"><g id="freepik--Bottom--inject-144"><path d="M430.66,394.53a14.32,14.32,0,0,1-12.79-.29l-5.08-37.93,18.44-1.09Z" style="fill:#ffbda7"></path><path d="M433.4,400.28l-.71-3.16s-1.38-.78-2,2.07.26,15.67-3,19.64-16.12-1.88-16.29-4.5c0,1.1-.45,6.23,1.76,9.87s10.12,2.63,13,1.46,4.49-4.07,5.54-7,.52-4.6.36-9.76A39.47,39.47,0,0,1,433.4,400.28Z" style="fill:#f0f0f0"></path><path d="M416.29,391.53c-.07.74-.15,1.49-.22,2.23-.14,1.49-.29,3-.57,4.45-1,5.25-3.62,11.2-4,16.53a12.6,12.6,0,0,0,1.22,5.95c1.18,2.37,4.05,4.7,6.33,4.87,4.59.35,6.47-.91,8.24-3,3.68-4.35,4.76-7.13,4.12-12.25a30.84,30.84,0,0,1-.4-7.55c.12-1.3,1.6-4.89,1.69-5.63a24.49,24.49,0,0,0-.48-5.26c-.06-.32-.26-1.31-.32-1.62-.27-1.61.13-2.51-.39-3.23a1,1,0,0,0-.71-.39l-.14,1.88c-.14,1.15-.52,1-.58,1.86-.1,1.22.1,2.56-.05,2.89s-.24,0-.59-.3-.73-.19-1.17.66a7,7,0,0,0-.22-2.47c-.75-1-4.61-2.35-5.76-2.39C420.25,388.7,416.41,390.19,416.29,391.53Z" style="fill:#37474f"></path><path d="M430.73,399.18c-1.57,3.2-.44,10.64-1.2,10.25a7,7,0,0,1-1.75-1.92l-1.15,2.36s1.53,3.52,1.46,4.46-1.37,3-3.95,4-7.16.12-8.65-.64a7.54,7.54,0,0,1-3.07-4.49c-.09-1.09,1.26-2.8,1.26-2.8V407.2l-.7.31a36,36,0,0,0-1.48,7.23,12.6,12.6,0,0,0,1.22,5.95c1.18,2.37,4.05,4.7,6.33,4.87,4.59.35,6.47-.91,8.24-3,3.68-4.35,4.76-7.13,4.12-12.25a30.84,30.84,0,0,1-.4-7.55c.12-1.3,1.6-4.89,1.69-5.63a24.49,24.49,0,0,0-.48-5.26C432.62,394.89,432.3,396,430.73,399.18Z" style="fill:#FFC100"></path><path d="M430.73,399.18c-1.57,3.2-.44,10.64-1.2,10.25a7,7,0,0,1-1.75-1.92l-1.15,2.36s1.53,3.52,1.46,4.46-1.37,3-3.95,4-7.16.12-8.65-.64a7.54,7.54,0,0,1-3.07-4.49c-.09-1.09,1.26-2.8,1.26-2.8V407.2l-.7.31a36,36,0,0,0-1.48,7.23,12.6,12.6,0,0,0,1.22,5.95c1.18,2.37,4.05,4.7,6.33,4.87,4.59.35,6.47-.91,8.24-3,3.68-4.35,4.76-7.13,4.12-12.25a30.84,30.84,0,0,1-.4-7.55c.12-1.3,1.6-4.89,1.69-5.63a24.49,24.49,0,0,0-.48-5.26C432.62,394.89,432.3,396,430.73,399.18Z" style="opacity:0.25"></path><path d="M419.67,411.63c-1.94-.25-4.65-.53-4.47-4.15s.16-8.54.16-8.54v0c-.43,2-1.07,4.13-1.7,6.26h0s-1.35,5.47,0,7.34,10,2.18,12,.89,2.5-4.14,3.13-9.18,1.29-11,1.29-11c-.19.39-.24,0-.59-.3s-.73-.19-1.17.66c-.41,3.3-1.9,13.11-2.39,15.16S421.64,411.87,419.67,411.63Z" style="fill:#FFC100"></path><path d="M414.06,410.11l.21,1.48a21.52,21.52,0,0,1,12.26-3l.54-1.76C418,406.13,414.06,410.11,414.06,410.11Z" style="fill:#e0e0e0"></path><path d="M414.75,405.2l-.15,2c5.68-3.65,13-3.11,13-3.11l.36-2C418.89,401.47,414.75,405.2,414.75,405.2Z" style="fill:#e0e0e0"></path><path d="M415.23,401.18l-.12,2A25.12,25.12,0,0,1,428.2,399l.31-1.6C419.43,396.71,415.23,401.18,415.23,401.18Z" style="fill:#e0e0e0"></path><path d="M415.47,396.41l-.15,2c5.82-4.21,13.63-2.74,13.63-2.74l.28-1.89C420.55,392.17,415.47,396.41,415.47,396.41Z" style="fill:#e0e0e0"></path><path d="M414.76,424.14c1,.42.47-3.45,2.2-3.6s6.24-.59,6.44.48.66,3.61,1.47,3.36,3.59-.32,5-2.79,2.58-4.66,2.42-7.63-.64-8.5,0-10.61a31.38,31.38,0,0,1,1.08-3.07l.24,1.25a2.19,2.19,0,0,1-.1,1.19,17.3,17.3,0,0,0-.94,7.36c.43,4.41.7,6.75-1.6,11.06s-3.3,6.92-11.47,7c-7.19,0-8.73-7.83-8.12-12.37C411.78,418.43,411.71,422.78,414.76,424.14Z" style="fill:#455a64"></path><path d="M414.27,411.59a79.53,79.53,0,0,1,11.34.71l.49-1.54a24.9,24.9,0,0,0-12-.65Z" style="fill:#f5f5f5"></path><path d="M426.1,410.76s-1.32-4.54-11.35-5.56a2.52,2.52,0,0,0-.15,2s7.63.76,11,5.06Z" style="fill:#f5f5f5"></path><path d="M427.07,406.78s-1.81-4.58-11.84-5.6a2,2,0,0,0-.12,2s8,1.05,11.42,5.34Z" style="fill:#f5f5f5"></path><path d="M428,402.13s-2.47-4.7-12.5-5.72a3.05,3.05,0,0,0-.15,2s8.9,1.39,12.29,5.68Z" style="fill:#f5f5f5"></path><path d="M428.51,397.36S426,393.22,416,392.2a2.18,2.18,0,0,0-.14,1.86s9,.6,12.37,4.9Z" style="fill:#f5f5f5"></path><path d="M391.39,389c-3.07,6.15-8.37,4.21-14.28.12l-1.22-41.32L394.26,353Z" style="fill:#ffbda7"></path><path d="M395.9,403.4c-2.09,2.1-6.76,2-10.88,3a12.66,12.66,0,0,0-2.15.81h0c-3.69,1.74-7.91,5.09-14.79,5.6-8.27.6-14.61-1.93-15.87-3.18s-1.11-2.11-1.09-3.78c1.66,2.36,6.35,3.76,12,3.9s9.32-2,15-5.67c4.79-3,7-3.08,9.42-3.41.46-.06.93-.13,1.42-.24,2.94-.66,6.07-1.82,6.75-3.38a.43.43,0,0,0,.07-.16A19.42,19.42,0,0,1,395.9,403.4Z" style="fill:#f0f0f0"></path><path d="M380.63,386.37a7.13,7.13,0,0,0-2.82-2,4.84,4.84,0,0,0-3.31,1.71c-.64.71-1.5,2.3-2.61,3.49-3.69,3.93-4.81,5.19-11.26,8.57-1.73.91-6.46,3.16-8.17,4.13a3.46,3.46,0,0,0,.68,5.94c2.67,1.45,11.68,3.51,18.67.65,7.19-2.94,9.53-6.68,14.72-7.18,3.31-.33,8.33-2,9.12-3.58.6-3.57-.36-4.52-1.28-7.47-.44-1.41-.49-2.88-.87-4.28-.12-.45.2-2-.43-2.67a1.8,1.8,0,0,0-1.21-.61c0,.16-.15,1.44-.15,1.44a8,8,0,0,1-1,.74c-.72.54-.75,1.17-.11,2.61s-.36,2.48-2.18,1.71a27.8,27.8,0,0,1-2.64-1.61,5,5,0,0,0-2.75-.71c-1.15.24-1.59,1.67-2.57,2.76C381.17,388.88,381.87,387.87,380.63,386.37Z" style="fill:#37474f"></path><path d="M371.81,408.88c7.19-2.94,9.53-6.68,14.72-7.18,3.31-.32,8.33-2,9.12-3.58a9.44,9.44,0,0,0-.81-6.09c-.48,3.31-3.43,2.86-7.25,3s-8.66,6.25-11.06,6.12-7.64-2.12-7.64-2.12l-2.56,1.62c1,1.71,5.91,2.28,4.19,3.22s-3.55.45-9.39.91c-3.57.28-7.4-2-6.51-3.64-.88.44-1.65.84-2.16,1.13a3.46,3.46,0,0,0,.68,5.94C355.81,409.68,364.82,411.74,371.81,408.88Z" style="fill:#FFC100"></path><path d="M371.81,408.88c7.19-2.94,9.53-6.68,14.72-7.18,3.31-.32,8.33-2,9.12-3.58a9.44,9.44,0,0,0-.81-6.09c-.48,3.31-3.43,2.86-7.25,3s-8.66,6.25-11.06,6.12-7.64-2.12-7.64-2.12l-2.56,1.62c1,1.71,5.91,2.28,4.19,3.22s-3.55.45-9.39.91c-3.57.28-7.4-2-6.51-3.64-.88.44-1.65.84-2.16,1.13a3.46,3.46,0,0,0,.68,5.94C355.81,409.68,364.82,411.74,371.81,408.88Z" style="opacity:0.25"></path><path d="M395.9,403.4c-2.09,2.1-6.76,2-10.88,3a12.66,12.66,0,0,0-2.15.81h0c-.87.39-.85-.3-.06-1.37a27.63,27.63,0,0,1,4.77-5.17,5.83,5.83,0,0,1,2.78-1.24c3.29-.43,5-1.58,5.39-2.38a.43.43,0,0,0,.07-.16A19.42,19.42,0,0,1,395.9,403.4Z" style="fill:#e0e0e0"></path><path d="M394.77,401.72c.07,1.2.06,1.42-.95,1.77a41.45,41.45,0,0,1-5.86,1.4c-2.09.31-1.72-.33-1.74-.73s3.55-2.36,4.45-2.74S394.77,401.72,394.77,401.72Z" style="fill:#FFC100"></path><path d="M385,406.42a12.66,12.66,0,0,0-2.15.81h0c-3.69,1.74-7.91,5.09-14.79,5.6a35.68,35.68,0,0,1-4,.06l-1.43-.1c-2.41-.12-4.46-.67-5.95-2.18-.68-.69.39-4-.33-4.42a11.69,11.69,0,0,1-5.28-1.53s-1.14,4,.13,5.68c2.35,2.85,10.61,4.34,17.19,3.72,6.94-.65,10.83-3.65,13.86-5.27,3.36-1.79,6.62-1.52,9.62-2.28a8.7,8.7,0,0,0,4.06-1.9l-.05-1.22C393.81,405.5,389.14,405.36,385,406.42Z" style="fill:#455a64"></path><path d="M380.56,393.52a64.4,64.4,0,0,1,6.46-4.71c-.47-.3-.94-.62-1.28-.83a5,5,0,0,0-2.75-.71c-1.15.24-1.59,1.67-2.57,2.76-2.28,2.92-11.51,8.35-13.85,9.3s-5.46-1.42-5.46-1.42l-.06,0-.42.22c-.75.39-2.06,1-3.45,1.72h0a9,9,0,0,0,8.94,2.43C371.68,400.84,377.63,396,380.56,393.52Z" style="fill:#FFC100"></path><path d="M363.23,396.73c2-1.14,6.06-1,8.75,1.34l-1.49.85a7,7,0,0,0-4.79-1.12,55.81,55.81,0,0,0-5.78.73Z" style="fill:#e0e0e0"></path><path d="M366.65,394.58c2.05-1.15,7.34-1,9.21.47l-1.38,1.24a9.82,9.82,0,0,0-5.06-.82,43.27,43.27,0,0,0-5.18.65Z" style="fill:#e0e0e0"></path><path d="M369.33,392.26c2.05-1.15,7.71-1.42,10,.18l-1.45,1.27s-1-.74-4.26-.83a18.78,18.78,0,0,0-6.06.94Z" style="fill:#e0e0e0"></path><path d="M372.13,389.12c2.05-1.14,8.15-1.94,10.84.38-.17.65-1,1.07-1.78,1.27,0,0-.95-.72-4.25-.81a20.73,20.73,0,0,0-6.39,1Z" style="fill:#e0e0e0"></path><path d="M359.92,398.53s4.11.76,6.5,2.72a2.19,2.19,0,0,0,1.38-.81,8,8,0,0,0-5.93-2.95A2,2,0,0,0,359.92,398.53Z" style="fill:#f5f5f5"></path><path d="M363.23,396.73a5.58,5.58,0,0,1,3.5,4.36,2.54,2.54,0,0,0,1.49-.86s-.94-3.22-3.35-4.45A2.21,2.21,0,0,0,363.23,396.73Z" style="fill:#f5f5f5"></path><path d="M366.65,394.58s3.37,1.3,3.84,4.34c0,0,1.13-.22,1.49-.85a6.09,6.09,0,0,0-3.8-4.73A1.9,1.9,0,0,0,366.65,394.58Z" style="fill:#f5f5f5"></path><path d="M369.93,391.65s3.59,1.23,4.55,4.64c0,0,1.13-.41,1.38-1.24a8.22,8.22,0,0,0-4.53-4.87A1.77,1.77,0,0,0,369.93,391.65Z" style="fill:#f5f5f5"></path><path d="M372.89,388.34s4.08,1.94,5,5.35c0,0,1.13-.42,1.38-1.25,0,0-1.85-4.55-5.24-5.79A2,2,0,0,0,372.89,388.34Z" style="fill:#f5f5f5"></path><path d="M426.6,237.67c.91,24,2.37,40.19,2.44,84.44a191.75,191.75,0,0,1,2.48,24.21c.36,11.07.06,33.07.06,33.07s-7.67,3.59-15.7.57c0,0-7.08-35.64-9.59-51.08-2.21-13.56-5.53-40.14-5.53-40.14L397.82,324s.38,9.61-.44,21.57c-.5,7.26-4.63,31.5-4.63,31.5A20.43,20.43,0,0,1,375.94,376s-1.83-47.37-2-53.95c-.18-7.5,2.5-90.8,2.5-90.8Z" style="fill:#37474f"></path><path d="M413.76,371.25l1.61,9.78a25.37,25.37,0,0,0,9.38,1.13,13.85,13.85,0,0,0,7.2-2.46l.2-9.83S426.82,373.29,413.76,371.25Z" style="fill:#455a64"></path><path d="M375.23,366.28l.29,9.9s.37,2.2,8.81,3c7.53.69,8.78-2,8.78-2l1.77-9.71S387.91,370.05,375.23,366.28Z" style="fill:#455a64"></path><path d="M400.76,288.74l-3.55-22.09s-9.74-1.14-15.36-6.63c0,0,0,5.58,11.81,9.8l4.2,20.68,0,33.45Z" style="fill:#263238"></path></g><g id="freepik--top--inject-144"><path d="M376.08,193.11c.47-7.77,1.33-18.16,13.27-19.13l15.51-1.38c3.84.83,20.77,5.61,20.77,5.61l-.49,31.29s1,24.51,1.24,37.44c-10.75,7.46-39.22,4.5-51.18-2.05C375.27,233.16,375.63,200.46,376.08,193.11Z" style="fill:#fafafa"></path><path d="M384,174.57c-6.81,1.69-10.13,3.28-13.31,12.24s-3.9,15.6-6.21,26.8c-1.52,7.35-.62,8.26.32,12.49,1.51,6.83,10.78,31.64,10.78,31.64Z" style="fill:#FFC100"></path><path d="M384,174.57c-6.81,1.69-10.13,3.28-13.31,12.24s-3.9,15.6-6.21,26.8c-1.52,7.35-.62,8.26.32,12.49,1.51,6.83,10.78,31.64,10.78,31.64Z" style="opacity:0.30000000000000004"></path><path d="M383.58,253.69l.16,3.73s-4.09.13-8.75-3.37l-.3-4.59Z" style="fill:#455a64"></path><path d="M373.76,202.64c0-9.79,1.25-18.3,4.7-23s5.62-6.13,14.25-6.35l0,1a6.25,6.25,0,0,0-3.43,2.86,46,46,0,0,0-5.27,13.71c-2.1,9.6-1.66,30.82-1.32,42.25s.85,20.62.85,20.62-7-1.41-8.89-4.23c-1.78-4.22-.1-5.23-.23-8C373.81,228.57,373.75,209.8,373.76,202.64Z" style="fill:#FFC100"></path><path d="M427.94,249.4a24.93,24.93,0,0,1,.45,4.43c-.16,1.07-1.18,1.8-5.46,3.34-4.67,1.69-14,2.85-18.05,1.63l-.66-4.47Z" style="fill:#455a64"></path><path d="M404.23,189.52c.9-4.71,3.6-10.12,4.08-14.84a15,15,0,0,0,.07-1.63l17.22,5c4,1.67,5.32,3.74,5.11,8.11l-2.8,32s-.82,19-.75,22.1,2.71,4.74,1.11,8.65c-6.25,7.37-24,5.46-24,5.46S403.48,243.41,403,217C402.71,202.26,402.93,196.22,404.23,189.52Z" style="fill:#FFC100"></path><path d="M407,261.41c.09-.36.43-.42.76-.48.71-.11,1.4-.21,2.1-.35a25.72,25.72,0,0,0,3.18-1.05,35,35,0,0,1,4.41-1.06,17.78,17.78,0,0,0,2.06-.69,6.44,6.44,0,0,0,2.83-1.89,16.46,16.46,0,0,0,1.84-2.62,18.61,18.61,0,0,0,1.09-2.19l10.38,6.66c-.49.75-1.5,2.89-2.14,4.05-2.74,5-2.78,8.22-7.89,13.15a18.6,18.6,0,0,1-9.21-6,12.5,12.5,0,0,1-1.68-3.29c.35-.41.92-1.32-.25-1.45a9.68,9.68,0,0,0-1-.05c-.78,0-1.57,0-2.35,0a5.12,5.12,0,0,1-2.9-.69C407.57,263,406.76,262.32,407,261.41Z" style="fill:#ffbda7"></path><path d="M425.6,178.06c6.28,1.63,10.07,3.78,12.25,9.76s10.64,23.37,13,29.35,2.43,8.77,1.17,12.74c-1.78,5.59-7.39,16.14-8.81,19.43a10.76,10.76,0,0,1-4.84,4.89A20.68,20.68,0,0,0,426,247.38s-1.08-2.29,1.25-7.29a165.7,165.7,0,0,0,5.82-15.85L422.33,208.1S415.26,183.63,425.6,178.06Z" style="fill:#FFC100"></path><path d="M425.6,178.06c6.28,1.63,10.07,3.78,12.25,9.76s10.64,23.37,13,29.35,2.43,8.77,1.17,12.74c-1.78,5.59-7.39,16.14-8.81,19.43a10.76,10.76,0,0,1-4.84,4.89A20.68,20.68,0,0,0,426,247.38s-1.08-2.29,1.25-7.29a165.7,165.7,0,0,0,5.82-15.85L422.33,208.1S415.26,183.63,425.6,178.06Z" style="opacity:0.30000000000000004"></path><path d="M433.05,224.24c1.45-1.64,9.18-2.65,11.84-1.63,0,0-3.31-3.57-13.24-.48Z" style="opacity:0.30000000000000004"></path><path d="M438.33,254.23l-3.58,5.68a15.19,15.19,0,0,0-11.46-6.4l2.69-6.13C431.67,247.76,436.26,250.35,438.33,254.23Z" style="fill:#455a64"></path><path d="M392.58,126.53c12.34-2.47,20.47,4.38,22.59,11.89,3.29,11.64-5.58,21.91-7.36,28.39l-29.92-23.67C377.46,138.37,380.23,129,392.58,126.53Z" style="fill:#e0e0e0"></path><path d="M400.59,142.92c3.93-.83,4.85,1,5.07,3.5a39.36,39.36,0,0,0,.57,6.11,4.32,4.32,0,0,0,.61,1.6,2,2,0,0,0,1.41.9c.77.05,1.09-.42,1.33-1a5.86,5.86,0,0,1,1.68-3.24c1.32-1.11,4.84-2.3,6.46,1.41s-1.55,8.53-4.22,9.71a3.78,3.78,0,0,1-5.12-1.84V173.2c-6,10.5-20.06,6.93-17.27,3.05l0-5.24a15.72,15.72,0,0,1-4-.47c-2.35-.47-6.81-4.8-7.95-8.59-.89-2.94-1.28-12.71-.94-17.37a28.51,28.51,0,0,1,.7-5.64c1.64-1.36,6.85-1.29,9.33,1.12C392.17,137.5,397.66,137.73,400.59,142.92Z" style="fill:#ffbda7"></path><path d="M412.59,164.87a2.21,2.21,0,0,1-1.08-.29,2.17,2.17,0,0,1,.52-4,.21.21,0,0,1,.26.14.22.22,0,0,1-.15.26,1.71,1.71,0,0,0-1.07.82,1.74,1.74,0,0,0-.18,1.34,1.81,1.81,0,0,0,.83,1.07,1.74,1.74,0,0,0,1.34.17,1.76,1.76,0,0,0,1.07-.82,1.79,1.79,0,0,0,.17-1.34.21.21,0,0,1,.15-.25.2.2,0,0,1,.25.14,2.17,2.17,0,0,1-1.53,2.67A1.93,1.93,0,0,1,412.59,164.87Z" style="fill:#263238"></path><path d="M391.15,171a16,16,0,0,0,6.51-1.3c3.14-1.59,5.48-2.42,8.48-9.71a19.69,19.69,0,0,1-5,10.2c-2.87,2.93-10,2.93-10,2.93Z" style="fill:#f0997a"></path><path d="M393.41,150.92c.22.81,1,.91,1.75.7s1.3-.65,1.09-1.47a1.47,1.47,0,1,0-2.84.77Z" style="fill:#263238"></path><path d="M384,150.57c-.22.81-1,.91-1.75.7s-1.31-.65-1.09-1.46a1.5,1.5,0,0,1,1.81-1.1A1.51,1.51,0,0,1,384,150.57Z" style="fill:#263238"></path><path d="M394.09,146l3.33,1.93a2,2,0,0,0-.73-2.7A1.88,1.88,0,0,0,394.09,146Z" style="fill:#263238"></path><path d="M393.9,159.8l-5.16,2.46a3,3,0,0,0,3.92,1.37A2.78,2.78,0,0,0,393.9,159.8Z" style="fill:#b16668"></path><path d="M394.21,161.29a2.19,2.19,0,0,0-.85-.17,2.3,2.3,0,0,0-2.31,2.31,2.22,2.22,0,0,0,0,.45,2.86,2.86,0,0,0,1.57-.25A2.71,2.71,0,0,0,394.21,161.29Z" style="fill:#f28f8f"></path><path d="M380.43,146.42l3.34-1.77a1.82,1.82,0,0,0-2.5-.77A1.92,1.92,0,0,0,380.43,146.42Z" style="fill:#263238"></path><polygon points="388.5 148.02 387.51 159.24 382 157.07 388.5 148.02" style="fill:#f0997a"></polygon><path d="M379,141.26c1.8-4.34,6.46-7.74,9.23-1.2,3.9-5.52,10.6-4.71,12,2.32a24.33,24.33,0,0,1-.51,11.9s4.35-2.1,4.56-8.16c0,0,.65,4.4.12,6.14,0,0,9.84-.12,13.06-4.73,0,0,1.38-11.8-4.75-14.71-.59-5.21-8.47-11.85-22-8.59s-15.56,10.42-15.56,10.42a17.33,17.33,0,0,1,4.23-2.09,14.4,14.4,0,0,0-4.4,9.36,11.63,11.63,0,0,0,3.66,9.45S377.25,145.6,379,141.26Z" style="fill:#f0f0f0"></path><path d="M413,133.7l4.29-3.18a2.8,2.8,0,0,0-3.84-.56A2.61,2.61,0,0,0,413,133.7Z" style="fill:#f0f0f0"></path><path d="M412.42,133.38l5,1.88a2.8,2.8,0,0,0-1.61-3.52A2.6,2.6,0,0,0,412.42,133.38Z" style="fill:#f0f0f0"></path><path d="M390.38,135.82a.21.21,0,0,1-.13,0,.2.2,0,0,1,0-.29c4.62-5.72,16.87-6.21,21.64-3.26a.2.2,0,0,1-.21.35c-4.55-2.8-16.69-2.3-21.11,3.17A.21.21,0,0,1,390.38,135.82Z" style="fill:#e0e0e0"></path><path d="M403.14,198c.21-9.88.1-11.14,1.05-14s4.19-11,4.19-15.86c0,0,.85-.21,1.17,1.79a12.62,12.62,0,0,0,1.35,3.8A98.75,98.75,0,0,1,406.78,187C404.07,193.91,403.77,193.73,403.14,198Z" style="fill:#455a64"></path><path d="M391.15,171c-.85,0-4,3.6-6.56,9.67s-1.7,19.53-1.7,19.53a58.07,58.07,0,0,1,4.39-18.67c2.24-5.12,3.84-6,3.84-6Z" style="fill:#455a64"></path></g></g></g><g id="freepik--character-2--inject-144"><g id="freepik--character--inject-144"><g id="freepik--botom--inject-144"><path d="M175.48,364.42c-.17-4.25-1.57-47.05-1.57-47.05l20.46,15.08c-4.13,24.37-5.08,31.72-5.32,35.79h0a3.33,3.33,0,0,1,.08,1.05c-.21,4.84-6.06,7.25-10.67,10.32a85.28,85.28,0,0,1-12.43,7.1c-3.32,1.45-9.94,1.36-10.68-.66,5.61-3.77,12.1-7.88,16.62-12.25C174.13,371.71,175.69,369.51,175.48,364.42Z" style="fill:#ffbda7"></path><path d="M148.81,391c-.26,0-.77,2.91.61,4.21,1.58,1.49,6.3,4,12.69,3.42s9.91-2.49,12.53-4.56,6.31-5,9.21-5.55c2.7-.5,5.64-1.63,6.53-2.44s.91-4.55.91-4.55Z" style="fill:#263238"></path><path d="M189.14,367.06s.69,0,.82.86c.16,1,.34,4.05.7,5.76.49,2.36.89,7.22.46,9.12s-4.82,3.08-7.65,4.06a35.53,35.53,0,0,0-9.24,5.47c-3.08,2.4-9.46,4.69-13.6,4.6-6.33-.13-10.36-2-11.54-4.38-1.45-2.92-.9-4.94,6.5-8.1a87.08,87.08,0,0,0,8.25-4.55,24.3,24.3,0,0,0,9.58-11,2.85,2.85,0,0,1,1.1-1.51,2.36,2.36,0,0,1,1.42-.08,31.88,31.88,0,0,1,5.77,1.36c1,.51,2.32,1.11,2.25,2.38a4.08,4.08,0,0,1-.32,1.28c-.1.26-.18.6,0,.76s.49,0,.69-.16a19.87,19.87,0,0,0,2-2.33,7.61,7.61,0,0,1,1.19-1.15,10.85,10.85,0,0,0,1.28-.77S189.09,367.65,189.14,367.06Z" style="fill:#455a64"></path><path d="M155.38,384.44c9.14,1,13,7,11.8,11.33a21.23,21.23,0,0,1-6.55,1.16c-6.33-.13-10.62-2-11.8-4.39C147.46,389.79,148.8,386.72,155.38,384.44Z" style="fill:#fafafa"></path><path d="M167.82,385.77a.46.46,0,0,0,.29-.1.46.46,0,0,0,.08-.63,10.62,10.62,0,0,0-8.15-3.62.45.45,0,0,0-.41.49.44.44,0,0,0,.47.42,9.84,9.84,0,0,1,7.38,3.26A.46.46,0,0,0,167.82,385.77Z" style="fill:#f0f0f0"></path><path d="M171.51,383.54a.52.52,0,0,0,.29-.09.46.46,0,0,0,.09-.64,10.63,10.63,0,0,0-8.16-3.62.46.46,0,0,0-.41.49.44.44,0,0,0,.48.42,9.81,9.81,0,0,1,7.37,3.26A.48.48,0,0,0,171.51,383.54Z" style="fill:#f0f0f0"></path><path d="M175.16,380.68a.4.4,0,0,0,.29-.09.46.46,0,0,0,.09-.64,10.67,10.67,0,0,0-8.16-3.61.45.45,0,0,0,.07.9,9.87,9.87,0,0,1,7.37,3.27A.44.44,0,0,0,175.16,380.68Z" style="fill:#f0f0f0"></path><path d="M178.77,377.82a.51.51,0,0,0,.28-.09.47.47,0,0,0,.1-.64c-1.67-2.31-5.58-3.94-8.92-3.69a.45.45,0,0,0-.41.49.44.44,0,0,0,.47.42c3-.22,6.65,1.27,8.13,3.32A.48.48,0,0,0,178.77,377.82Z" style="fill:#f0f0f0"></path><path d="M210.42,330.72l21.75-4.24c.3,13.42-.42,31.55-.22,44.14,0,2.37.94,18.4.16,23.3-1.18,7.37-11.07,6.68-11.8,2.32s-1.07-23-1.19-24.89c-.29-8.07-4.61-21.71-7.55-36.13C211.43,334.52,210.56,331.41,210.42,330.72Z" style="fill:#ffbda7"></path><path d="M216.74,399.4c0,4.31.57,7.2,2.13,9.82s4.76,3.59,8.11,3,7.71-2.27,8.9-5.92,1.17-6.19.68-10.22Z" style="fill:#263238"></path><path d="M231.94,369.08c1.35.17,1.37,6,1.77,11.77.43,6.24,2.35,8.92,2.76,14,.48,5.84,0,8.41-2.57,11.78S223,413,219.3,407.75c-3-4.28-2.84-8.82-2.15-14.59a132.45,132.45,0,0,0,1.28-14.71c0-4.35-.65-8.42.57-8.83.05.64.08,1.45.14,2.08s0,2.84.78,2.91A7.42,7.42,0,0,0,220,373a1.79,1.79,0,0,1,.47-1.38,5.11,5.11,0,0,1,2.15-.66c1.36-.16,2.72-.29,4.08-.32a19.84,19.84,0,0,1,2,0,6.16,6.16,0,0,1,1.71.32,1.13,1.13,0,0,1,.7.63,1.83,1.83,0,0,1,0,.66,4,4,0,0,0,.09,1.2c0,.18.16.39.35.36s.24-.19.25-.34c.05-.69,0-1.21,0-2,0-.38,0-.9,0-1.27S231.94,369.45,231.94,369.08Z" style="fill:#455a64"></path><path d="M236.63,398.26c0,3.61-.4,6.06-2.39,8.7-2.53,3.37-11.57,6.31-15.25,1.06-1.83-2.61-2.17-5.59-2.25-8.62C219.41,395.67,233.05,394.75,236.63,398.26Z" style="fill:#fafafa"></path><path d="M220.65,393.3a.51.51,0,0,0,.17,0,22.41,22.41,0,0,1,11.8-.39.5.5,0,0,0,.62-.3.43.43,0,0,0-.34-.55,23.14,23.14,0,0,0-12.46.41.43.43,0,0,0-.28.58A.51.51,0,0,0,220.65,393.3Z" style="fill:#f0f0f0"></path><path d="M232.57,388.54a.49.49,0,0,0,.45-.27.44.44,0,0,0-.28-.59c-6-2.17-12.17.22-12.44.32a.43.43,0,0,0-.25.59.56.56,0,0,0,.67.23c.06,0,6.09-2.34,11.64-.31Z" style="fill:#f0f0f0"></path><path d="M232.5,384.45a.51.51,0,0,0,.44-.27.42.42,0,0,0-.27-.58,17.42,17.42,0,0,0-12.68.27.41.41,0,0,0-.21.6.56.56,0,0,0,.68.19,16.69,16.69,0,0,1,11.82-.25A.54.54,0,0,0,232.5,384.45Z" style="fill:#f0f0f0"></path><path d="M232.39,379.85a.5.5,0,0,0,.44-.26.43.43,0,0,0-.26-.59c-6.14-2.43-12.52.27-12.78.39a.43.43,0,0,0-.23.6.54.54,0,0,0,.68.2c.06,0,6.22-2.64,11.92-.38A.62.62,0,0,0,232.39,379.85Z" style="fill:#ebebeb"></path><path d="M225.12,226.57c0,24.4,3.38,73.26,3.38,73.26.3,3,4.38,15.83,4.31,26.67-.09,17,0,29.89,0,29.89s-9.57,3.57-16.49.82c0,0-8.34-36.32-10.65-47.65-2.75-13.5-9.81-38.63-9.81-38.63l-.17,35.52a97.28,97.28,0,0,1-.16,21.47c-1,7.14-4.27,27-4.27,27s-10,3.05-17.54.65c0,0-3.84-46.46-4.28-53s-2.45-40.15-.83-81.71Z" style="fill:#FFC100"></path><path d="M225.12,226.57c0,24.4,3.38,73.26,3.38,73.26.3,3,4.38,15.83,4.31,26.67-.09,17,0,29.89,0,29.89s-9.57,3.57-16.49.82c0,0-8.34-36.32-10.65-47.65-2.75-13.5-9.81-38.63-9.81-38.63l-.17,35.52a97.28,97.28,0,0,1-.16,21.47c-1,7.14-4.27,27-4.27,27s-10,3.05-17.54.65c0,0-3.84-46.46-4.28-53s-2.45-40.15-.83-81.71Z" style="opacity:0.30000000000000004"></path><path d="M195.86,270.93,192,247.83a20.7,20.7,0,0,1-12.94-5.54s.6,5.33,10.9,8.74l3.53,19.17,2.18,36.25Z" style="opacity:0.30000000000000004"></path></g><g id="freepik--top--inject-144"><path d="M139.46,160.94a21.54,21.54,0,0,1,.19-3.4c.6-5.46-1.26-10.75-3.4-15.68-.36-.84-.74-1.68-1.12-2.52a11.82,11.82,0,0,1-.51-1.23c-.12-.4-.24-.74-.77-.74a1.53,1.53,0,0,0-1,.48,4.46,4.46,0,0,0-1.21,3.42,22.1,22.1,0,0,0,.62,3.68c.19.94-.8.47-1.23.18-2.12-1.41-3.82-5.09-4.89-7.36a32.91,32.91,0,0,0-2-4.48,5.09,5.09,0,0,0-2.29-2c-.65-.25-1.33-.26-1.56.58a3.46,3.46,0,0,0,.12,1.59,3.77,3.77,0,0,1-.26,3,8.44,8.44,0,0,0-1.19,1.87,26.21,26.21,0,0,0-.28,2.81,19.85,19.85,0,0,1-1,2.18,7,7,0,0,0,.18,2.88,22.27,22.27,0,0,0,1.78,5.69,42.94,42.94,0,0,0,4.72,7.71,12,12,0,0,1,2.41,4.39,25.72,25.72,0,0,1,.41,5c0,2.11,0,4.23,0,6.34.26,22.87,2.28,24.55,4.51,28.38,1.34,2.32,6,5.15,14.12-.54,9-6.31,27.33-23.7,27.33-23.7l8.21-26.28s-2.82.2-6.4.52c-3.34.29-7.29,2.82-10.22,5.94-6.08,6.46-21.8,23.27-21.8,23.27S139.82,164,139.46,160.94Z" style="fill:#ffbda7"></path><path d="M141.07,169l-.59-3.92a9.76,9.76,0,0,1-6.28,4.68,17.3,17.3,0,0,1-7.88.45l.2,4.58a18.53,18.53,0,0,0,8.07-.56A12.69,12.69,0,0,0,141.07,169Z" style="fill:#fafafa"></path><path d="M180,150c-11.34,3.11-11.55,3.17-16,7.81-5,5.22-20.8,22.22-20.8,22.22l-1.94-13.13s-1,3.64-7.24,5.41-8-.6-8-.6.69,16.39,1.4,24.17c.92,10.07,4.52,11.8,7.27,12.37s5.82-.76,11.48-4.55S175.7,178.6,175.7,178.6Z" style="fill:#FFC100"></path><path d="M180,150c-11.34,3.11-11.55,3.17-16,7.81-5,5.22-20.8,22.22-20.8,22.22l-1.94-13.13s-1,3.64-7.24,5.41-8-.6-8-.6.69,16.39,1.4,24.17c.92,10.07,4.52,11.8,7.27,12.37s5.82-.76,11.48-4.55S175.7,178.6,175.7,178.6Z" style="opacity:0.30000000000000004"></path><path d="M132,148.7a16.53,16.53,0,0,0,.36,9.14,9.63,9.63,0,0,1-1.71-4.65C130.53,150.59,131.14,149.56,132,148.7Z" style="fill:#f0997a"></path><path d="M170.13,169.09c1.19-8.62,4.69-19.58,18.05-20.11l14.88.19c4.24,1.1,20.09,6,20.09,6l1,34.44s1,22.08.73,36.52c-12.35,7.82-39.2,10.36-56.08-2.44C168.27,211.79,169,177.62,170.13,169.09Z" style="fill:#f0f0f0"></path><path d="M166.87,181c1.58-14.44,2.54-21.7,6.54-26.87,2.44-3.15,5.35-4,16.16-6.79l0,1.64a9.08,9.08,0,0,0-3.77,3.53,42.32,42.32,0,0,0-6.61,14.39c-2.8,10.61-4.19,34.25-4.34,47s.61,33,.61,33-6.7-1.12-10.27-5.78C165.14,241.11,165.69,191.87,166.87,181Z" style="fill:#FFC100"></path><path d="M175.1,203.67c-1.72-8.14-5.15-11-4.74-13.78S176.25,178,176.25,178a26,26,0,0,1-3-2.52c-.79-1.3,1-8.08,5.34-15.78,3.72-6.66,6.62-11.28,11-13.37l0,2.69a54.66,54.66,0,0,0-8.65,18.82C178,179.23,176.43,191.07,175.1,203.67Z" style="fill:#455a64"></path><path d="M192.14,101.34c9.63-1.69,16.17,2.47,19.86,7.76,4,.27,6.13,3.64,6.51,7.71,1.28,13.71-9.79,19.53-11.77,26.12l-30-25C176.38,113.08,179.46,103.56,192.14,101.34Z" style="fill:#263238"></path><path d="M217.05,107.32l-5.37,1.85a3,3,0,0,0,3.71,1.8A2.78,2.78,0,0,0,217.05,107.32Z" style="fill:#263238"></path><path d="M212.74,103.69l-1.08,5.57a3,3,0,0,0,3.41-2.32A2.77,2.77,0,0,0,212.74,103.69Z" style="fill:#263238"></path><path d="M195.36,114.18c1.26-.93,3.06-1.36,5.39.35a7,7,0,0,1,2.3,3.31c.58,1.76.58,2.41.77,5.28.12,1.95,1.07,6.52,4.13,5.15.91-.41,1.4-1.35,2.2-1.89a4.66,4.66,0,0,1,7.09,1.82c1.61,4-1.8,8.68-4.56,9.83a3.87,3.87,0,0,1-5.19-2l-.33,13.45c-7.13,8.93-16.22,7.08-17,11.16a35,35,0,0,1-.74-8.46l.17-5.36a16.25,16.25,0,0,1-4.1-.58c-2.39-.54-6.85-5.07-7.92-9-.84-3-1-13-.54-17.8a12.74,12.74,0,0,1,.92-2.65C181.33,112.2,192.49,108.8,195.36,114.18Z" style="fill:#ffbda7"></path><path d="M190.16,160.63c.81-1.65,1.73-2.07,4.13-.21a21,21,0,0,1,3.36,3.24s10.38-7.91,11-11.14a7.82,7.82,0,0,0-1.41-5.8,26.11,26.11,0,0,1-10,8.69C192.07,157.68,190.72,157.49,190.16,160.63Z" style="fill:#e0e0e0"></path><path d="M211.89,139.56a1.76,1.76,0,0,1-.88-.26,1.78,1.78,0,0,1,.51-3.26.16.16,0,0,1,.2.12.17.17,0,0,1-.12.21,1.44,1.44,0,0,0-1.06,1.75,1.45,1.45,0,0,0,2.81-.69.17.17,0,0,1,.12-.21.18.18,0,0,1,.21.13,1.79,1.79,0,0,1-1.31,2.16A2,2,0,0,1,211.89,139.56Z" style="fill:#455a64"></path><path d="M189.59,146.81a16.64,16.64,0,0,0,6.7-1.17c3.24-1.55,5.66-2.34,8.91-9.73a20.11,20.11,0,0,1-5.38,10.31c-3,2.94-10.3,2.76-10.3,2.76Z" style="fill:#f0997a"></path><path d="M192.4,126.31c.2.83,1,1,1.77.76s1.35-.64,1.15-1.47a1.5,1.5,0,1,0-2.92.71Z" style="fill:#263238"></path><path d="M182.76,125.72c-.24.83-1,.91-1.8.68s-1.32-.7-1.08-1.53a1.5,1.5,0,1,1,2.88.85Z" style="fill:#263238"></path><path d="M193.21,121.25l3.36,2.06a2.06,2.06,0,0,0-.68-2.78A1.92,1.92,0,0,0,193.21,121.25Z" style="fill:#263238"></path><path d="M192.68,135.41l-5.34,2.39a3.07,3.07,0,0,0,4,1.5A2.86,2.86,0,0,0,192.68,135.41Z" style="fill:#b16668"></path><path d="M193,136.94a2.35,2.35,0,0,0-3.3,2.11,2.49,2.49,0,0,0,0,.47,3,3,0,0,0,1.61-.22A2.81,2.81,0,0,0,193,136.94Z" style="fill:#f28f8f"></path><polygon points="187.44 123.22 186.15 134.68 180.57 132.32 187.44 123.22" style="fill:#f0997a"></polygon><path d="M195.36,114.18c.55-1-.08-2.87-.86-3.56a4.43,4.43,0,0,0-3.61-.62c-2.19.66-3.22,4.2-4.1,6s-1.39,3.3-2.78,4.6a8.19,8.19,0,0,1-4.52,2.11,6.91,6.91,0,0,0,1.08-2.91,9.3,9.3,0,0,0-.08-2.39,13.87,13.87,0,0,1-1.44,4.34,12.25,12.25,0,0,1-3.12,3.6c-.64.48-1,.58-1.33.09a7.92,7.92,0,0,1-1-2.92,28.32,28.32,0,0,1-.18-6.17c.51-7.28,3.89-10.71,5.77-12.15,6-4.6,15.46-6.34,23.09-5.37,4.29.55,10.46,4.1,9.68,10.24C208.05,108.48,197.2,110.92,195.36,114.18Z" style="fill:#37474f"></path><path d="M202.83,163.54c1.37-5.81,3.11-13,4.38-16l16.2,5.83c4.44,2,7.92,5.34,6.81,12.82l-4.7,32.89,1.35,41.74C220,251.55,198,250.53,198,250.53s-.49-15.11.17-44.55C198.52,189.48,201.08,171,202.83,163.54Z" style="fill:#FFC100"></path><path d="M207.31,143.58l-.08,3.14c-1.07,2.75-3.43,9.33-4.09,12-1.94,7.83-5,19.14-5,47.25,1.81-9.55,8.42-10.71,8.68-13.09s-3.45-10.35-3.9-12,4-.87,5.3-2.38,3.94-29.12,3.94-29.12a7.39,7.39,0,0,1-3.06-3.1C208.46,144.51,208.23,143.91,207.31,143.58Z" style="fill:#455a64"></path><path d="M190.16,160.63c-.17-.91-.43-3.48-.59-5.84s0-7,0-7A13.08,13.08,0,0,0,186,152c-1.75,3.45-2.77,6.37-2.86,8.67,1.65-2.13,4-2.82,5-2.61C189.59,158.3,190.16,160.63,190.16,160.63Z" style="fill:#e0e0e0"></path><path d="M203.62,249.13c.08-.39.43-.48.78-.56.74-.16,1.46-.31,2.19-.5a26.65,26.65,0,0,0,3.3-1.31,38.67,38.67,0,0,1,4.6-1.39,18,18,0,0,0,2.14-.85,6.8,6.8,0,0,0,2.87-2.18,17,17,0,0,0,1.78-2.87,19.15,19.15,0,0,0,1-2.38q6.24-.3,10.63,7.72c-.47.82-.91,1.55-1.29,2.17-3.19,5.14-2.86,10.19-7.92,15.51-3.19-.48-7.41-3.34-9.69-6a13.76,13.76,0,0,1-2-3.37c.35-.46.89-1.45-.35-1.52a7.69,7.69,0,0,0-1.09,0c-.82.07-1.65.13-2.48.14a5.38,5.38,0,0,1-3.11-.56C204.31,250.74,203.41,250.1,203.62,249.13Z" style="fill:#ffbda7"></path><path d="M222.05,236.42l-1.17,2.79a19.34,19.34,0,0,1,6.3,3.5,28.21,28.21,0,0,1,5.12,5.12l2.84-4.51A16.46,16.46,0,0,0,222.05,236.42Z" style="fill:#fafafa"></path><path d="M223.41,153.39c9.42,2.7,11.59,4.61,13.22,11,1.48,5.76,9.71,31.87,11.24,38.21s2.28,7.5-.51,16.12c-3.07,9.46-12.41,29.12-12.41,29.12a24.32,24.32,0,0,0-13.71-10.34l7.83-28.8L219,179.34S215.65,161.43,223.41,153.39Z" style="fill:#FFC100"></path><path d="M223.41,153.39c9.42,2.7,11.59,4.61,13.22,11,1.48,5.76,9.71,31.87,11.24,38.21s2.28,7.5-.51,16.12c-3.07,9.46-12.41,29.12-12.41,29.12a24.32,24.32,0,0,0-13.71-10.34l7.83-28.8L219,179.34S215.65,161.43,223.41,153.39Z" style="opacity:0.30000000000000004"></path></g></g></g><g id="freepik--character-1--inject-144"><g id="freepik--chartacter--inject-144"><g id="freepik--bottom--inject-144"><path d="M63,396.05a17.28,17.28,0,0,0,14.12.75c-.59-6.27,3.22-19.67,6.49-39.2l-20.25-.82,0,31.37Z" style="fill:#ffbda7"></path><path d="M60.28,402.92a15.06,15.06,0,0,1,.53-4.89s1.44-.2,1.85,2.67-1.15,15.63,1.83,19.78,16.2-1,16.52-3.57c0,1.1.1,6.25-2.31,9.75s-10.26,2-13,.72-4.25-4.31-5.13-7.32-.25-4.63.2-9.78A33.62,33.62,0,0,0,60.28,402.92Z" style="fill:#f0f0f0"></path><path d="M77.52,393.87l.09,2.25c.06,1.49.12,3,.31,4.46.68,5.3,3,11.4,3.07,16.74a12.66,12.66,0,0,1-1.55,5.87c-1.32,2.3-4.32,4.47-6.61,4.51-4.59.08-6.4-1.28-8-3.48-3.43-4.55-4.35-7.39-3.42-12.46a30.81,30.81,0,0,0,.84-7.52c-.05-1.3-1.33-5-1.37-5.71a23.59,23.59,0,0,1,.78-5.23c.07-.32.33-1.29.4-1.6.36-1.59,0-2.51.58-3.2a1,1,0,0,1,.73-.35l0,1.88c.07,1.16.45,1,.47,1.9,0,1.22-.25,2.55-.11,2.88s.23.06.6-.27.74-.15,1.13.73a7.13,7.13,0,0,1,.36-2.46c.81-.95,4.73-2.08,5.88-2.05C73.72,390.82,77.47,392.53,77.52,393.87Z" style="fill:#fafafa"></path><path d="M62.66,400.7c1.39,3.27-.16,10.63.62,10.3a7,7,0,0,0,1.85-1.82l1,2.41S64.43,415,64.44,416s1.19,3.09,3.72,4.18,7.14.52,8.67-.16a7.51,7.51,0,0,0,3.32-4.3c.15-1.09-1.1-2.86-1.1-2.86l.19-3.17.69.36a37,37,0,0,1,1.06,7.3,12.66,12.66,0,0,1-1.55,5.87c-1.32,2.3-4.32,4.47-6.61,4.51-4.59.08-6.4-1.28-8-3.48-3.43-4.55-4.35-7.39-3.42-12.46a30.81,30.81,0,0,0,.84-7.52c-.05-1.3-1.33-5-1.37-5.71a23.59,23.59,0,0,1,.78-5.23C61,396.3,61.28,397.42,62.66,400.7Z" style="fill:#455a64"></path><path d="M73,413.75c2-.14,4.67-.27,4.69-3.89s.34-8.54.34-8.54v0c.32,2,.83,4.18,1.35,6.34h0s1,5.54-.37,7.33-10.07,1.61-12,.21-2.26-4.27-2.6-9.35-.65-11.07-.65-11.07c.15.4.23.06.6-.27s.74-.15,1.13.73c.22,3.32,1.15,13.19,1.53,15.27S71,413.88,73,413.75Z" style="fill:#FFC100"></path><path d="M78.69,412.55,78.4,414a21.5,21.5,0,0,0-12.07-3.74l-.44-1.79C75,408.35,78.69,412.55,78.69,412.55Z" style="fill:#37474f"></path><path d="M78.28,407.61l0,2.05c-5.46-4-12.81-3.85-12.81-3.85l-.25-2C74.36,403.65,78.28,407.61,78.28,407.61Z" style="fill:#37474f"></path><path d="M78,403.56v2a25.18,25.18,0,0,0-12.83-5L65,399C74.09,398.86,78,403.56,78,403.56Z" style="fill:#37474f"></path><path d="M78.06,398.79l0,2c-5.56-4.54-13.45-3.51-13.45-3.51l-.18-1.91C73.23,394.27,78.06,398.79,78.06,398.79Z" style="fill:#37474f"></path><path d="M77.19,426.51c-1,.38-.28-3.46-2-3.71s-6.19-.94-6.46.11-.86,3.57-1.65,3.27-3.58-.52-4.86-3.07-2.31-4.8-2-7.75,1.35-8.37.82-10.51-.79-2-.79-2a4.46,4.46,0,0,0-.29,1.5c.1.38.17.63.29,1,.35,1.17.42,2.75-.1,6.1-.69,4.38-1.09,6.7,1,11.13s2.9,7.1,11.05,7.61c7.18.44,9.16-7.32,8.81-11.89C80.49,421,80.31,425.33,77.19,426.51Z" style="fill:#37474f"></path><path d="M78.4,414a79.84,79.84,0,0,0-11.37.06l-.4-1.57a25,25,0,0,1,12.06,0Z" style="fill:#455a64"></path><path d="M66.63,412.51s1.58-4.45,11.65-4.9a2.53,2.53,0,0,1,0,2.05S70.65,410,67,414.08Z" style="fill:#455a64"></path><path d="M65.89,408.49S68,404,78,403.56a2,2,0,0,1,0,2s-8.08.59-11.7,4.69Z" style="fill:#455a64"></path><path d="M65.25,403.79s2.74-4.55,12.81-5a3.09,3.09,0,0,1,0,2s-9,.88-12.59,5Z" style="fill:#455a64"></path><path d="M65,399s2.75-4,12.82-4.44a2.22,2.22,0,0,1,0,1.87s-9,.09-12.63,4.18Z" style="fill:#455a64"></path><path d="M103.12,390.34c2.92,6.21,8.27,4.39,14.27.43l2.13-41.28L101,354.29Z" style="fill:#ffbda7"></path><path d="M98.29,404.62c2,2.14,6.72,2.1,10.81,3.25a13.38,13.38,0,0,1,2.13.86h0c3.65,1.83,7.79,5.27,14.67,5.92,8.24.79,14.64-1.6,15.93-2.82s1.15-2.09,1.17-3.76c-1.71,2.32-6.43,3.62-12.08,3.63s-9.27-2.25-14.91-6c-4.73-3.14-7-3.23-9.35-3.62a13.49,13.49,0,0,1-1.41-.28c-2.92-.72-6-1.94-6.68-3.52a.64.64,0,0,1-.06-.16A19.52,19.52,0,0,0,98.29,404.62Z" style="fill:#f0f0f0"></path><path d="M113.93,387.93a7.06,7.06,0,0,1,2.86-1.92,4.88,4.88,0,0,1,3.28,1.78c.62.72,1.45,2.34,2.53,3.55,3.6,4,4.69,5.29,11.06,8.81,1.72,1,6.4,3.31,8.08,4.31a3.46,3.46,0,0,1-.81,5.93c-2.7,1.39-11.75,3.25-18.68.23-7.12-3.1-9.38-6.88-14.56-7.5-3.3-.4-8.28-2.22-9-3.78-.52-3.58.46-4.51,1.45-7.44.47-1.4.55-2.87,1-4.26.13-.45-.15-2,.49-2.66a1.81,1.81,0,0,1,1.22-.58c0,.16.12,1.44.12,1.44a7.66,7.66,0,0,0,1,.76c.7.56.72,1.2,0,2.62s.3,2.48,2.14,1.75a26.89,26.89,0,0,0,2.68-1.55,5.09,5.09,0,0,1,2.76-.65c1.15.27,1.55,1.71,2.5,2.82C113.33,390.42,112.65,389.4,113.93,387.93Z" style="fill:#fafafa"></path><path d="M122.25,410.62c-7.12-3.1-9.38-6.88-14.56-7.5-3.3-.4-8.28-2.22-9-3.78-.43-3,.17-4.11.94-6.07.42,3.32,3.37,2.94,7.19,3.18s8.52,6.44,10.93,6.36,7.67-1.94,7.67-1.94l2.53,1.67c-1,1.69-6,2.15-4.26,3.12s3.54.53,9.37,1.12c3.56.36,7.44-1.82,6.58-3.5.88.46,1.64.88,2.14,1.18a3.46,3.46,0,0,1-.81,5.93C138.23,411.78,129.18,413.64,122.25,410.62Z" style="fill:#455a64"></path><path d="M98.29,404.62c2,2.14,6.72,2.1,10.81,3.25a13.38,13.38,0,0,1,2.13.86h0c.86.41.85-.28.09-1.36a27.42,27.42,0,0,0-4.66-5.28,5.74,5.74,0,0,0-2.75-1.3c-3.28-.5-4.92-1.69-5.34-2.5a.64.64,0,0,1-.06-.16A19.52,19.52,0,0,0,98.29,404.62Z" style="fill:#e0e0e0"></path><path d="M99.46,403c-.1,1.19-.09,1.41.9,1.79a42.53,42.53,0,0,0,5.83,1.53c2.09.36,1.73-.29,1.75-.69s-3.49-2.44-4.38-2.84S99.46,403,99.46,403Z" style="fill:#FFC100"></path><path d="M109.1,407.87a13.38,13.38,0,0,1,2.13.86h0c3.65,1.83,7.79,5.27,14.67,5.92a33.88,33.88,0,0,0,4,.15l1.43-.06c2.42-.07,4.48-.57,6-2.05.69-.68-.3-4,.43-4.41a11.65,11.65,0,0,0,5.3-1.42s1.06,4-.24,5.68c-2.42,2.79-10.71,4.1-17.27,3.34-6.93-.81-10.75-3.89-13.74-5.57-3.32-1.87-6.59-1.67-9.57-2.5a8.7,8.7,0,0,1-4-2l.07-1.21C100.33,406.76,105,406.72,109.1,407.87Z" style="fill:#37474f"></path><path d="M113.84,395.08a63.89,63.89,0,0,0-6.35-4.86l1.3-.8a5.09,5.09,0,0,1,2.76-.65c1.15.27,1.55,1.71,2.5,2.82,2.22,3,11.33,8.6,13.65,9.6s5.49-1.3,5.49-1.3l.06,0,.41.23c.75.41,2,1.09,3.42,1.8h0a9,9,0,0,1-9,2.23C122.55,402.59,116.72,397.65,113.84,395.08Z" style="fill:#FFC100"></path><path d="M131.09,398.67c-2-1.19-6-1.12-8.77,1.14l1.47.89a7,7,0,0,1,4.82-1,55.49,55.49,0,0,1,5.76.86Z" style="fill:#37474f"></path><path d="M127.73,396.44c-2-1.19-7.32-1.2-9.23.27l1.36,1.27a9.75,9.75,0,0,1,5.08-.7,42.9,42.9,0,0,1,5.16.75Z" style="fill:#37474f"></path><path d="M125.09,394.06c-2-1.19-7.67-1.58-10,0l1.43,1.3s1-.72,4.27-.74a18.79,18.79,0,0,1,6,1.07Z" style="fill:#37474f"></path><path d="M122.37,390.87c-2-1.2-8.11-2.13-10.85.14.16.65,1,1.09,1.75,1.3,0,0,1-.69,4.27-.72a21,21,0,0,1,6.37,1.15Z" style="fill:#37474f"></path><path d="M134.37,400.54s-4.13.67-6.56,2.57a2.21,2.21,0,0,1-1.37-.83,8,8,0,0,1,6-2.82A2,2,0,0,1,134.37,400.54Z" style="fill:#455a64"></path><path d="M131.09,398.67A5.57,5.57,0,0,0,127.5,403s-1.12-.25-1.47-.89c0,0,1-3.2,3.45-4.38A2.21,2.21,0,0,1,131.09,398.67Z" style="fill:#455a64"></path><path d="M127.73,396.44s-3.4,1.23-3.94,4.26c0,0-1.12-.25-1.47-.89a6.09,6.09,0,0,1,3.9-4.64A1.89,1.89,0,0,1,127.73,396.44Z" style="fill:#455a64"></path><path d="M124.51,393.44s-3.62,1.15-4.65,4.54c0,0-1.13-.44-1.36-1.27a8.27,8.27,0,0,1,4.64-4.77A1.77,1.77,0,0,1,124.51,393.44Z" style="fill:#455a64"></path><path d="M121.62,390.07s-4.12,1.84-5.15,5.23c0,0-1.13-.44-1.36-1.27,0,0,2-4.52,5.37-5.68A2,2,0,0,1,121.62,390.07Z" style="fill:#455a64"></path><path d="M69.17,239.27c-1.39,24.84-1.28,34.83-2.23,80.58A73.4,73.4,0,0,0,63,343.42c0,13.12,0,28.52,0,28.52s9.74,6.45,17.88,2c0,0,7-30.43,9.85-46.34,2.49-14,5.19-34.46,5.19-34.46l2.42,29.24a85.27,85.27,0,0,0-.09,21.33c1.32,11.63,3.16,25.63,3.16,25.63s8.5,5.53,17.66.92c0,0,2.21-42.76,2.5-49.56.33-7.76,0-86.58,0-86.58Z" style="fill:#37474f"></path><path d="M84.25,361.27a30.67,30.67,0,0,1-10.89.88,21.64,21.64,0,0,1-10.85-3.7l.19,13.84a18.86,18.86,0,0,0,9.09,3.06,18.59,18.59,0,0,0,9.45-1.26Z" style="fill:#455a64"></path><path d="M99.49,356.54A28.68,28.68,0,0,0,110.66,359c6.72.2,9.44-2.46,9.44-2.46l-.87,13.78s-2.5,2-8.38,2A22.18,22.18,0,0,1,101,370Z" style="fill:#455a64"></path><path d="M121.62,317.7s-11.2-1.07-17.58,2.2c0,0,12,2.08,17.53.77C121.59,320.07,121.61,319.06,121.62,317.7Z" style="fill:#ffbda7"></path><path d="M105.54,321.9s8.53,3.57,14.3,1.83c0,0-1.73,2.3-7.15,1.6S105.54,321.9,105.54,321.9Z" style="fill:#ffbda7"></path><path d="M69.76,321.69c4.32-1.05,13-2.66,20,2.24a54.21,54.21,0,0,0-9.62-1.28C74.14,322.31,69.76,321.69,69.76,321.69Z" style="fill:#ffbda7"></path><path d="M72.49,323.89c4.09,2,15.93,1,15.93,1a15.16,15.16,0,0,1-7.81,1.64A15.49,15.49,0,0,1,72.49,323.89Z" style="fill:#ffbda7"></path><path d="M95.92,293.11l5.32-27s10.23-.66,16-6.23c0,0-.29,6.35-13.21,9.41l-5.16,24.53-.54,28.57Z" style="fill:#263238"></path></g><g id="freepik--top--inject-144"><path d="M109.5,176.08c4.32-.15,10.14.53,13.27,4.35,3.73,4.54,4.74,7.46,8,20.79,2.18,8.82,5.7,28.39,2.38,31.5s-11.53,1.85-11.53,1.85Z" style="fill:#ffbda7"></path><path d="M121.93,215c4.26,1.07,8.86,8.14,8.86,8.14s0-3.67-4.72-7.86A33.48,33.48,0,0,1,121.93,215Z" style="fill:#f0997a"></path><path d="M107.32,175.81c7.89-1.05,13.51.72,17.53,6.54,4.29,6.21,10.51,37.41,9.67,42.48,0,0-4.52-8.41-13.2-9.83S107.32,175.81,107.32,175.81Z" style="fill:#FFC100"></path><path d="M117,209c8.23-.94,13.87,1.12,16.23,3.36s.85,4.15,1.7,5.05,1.41,9.7-.42,9.33l0-1.9s-4.3-7.49-12.59-9.82Z" style="fill:#FFC100"></path><path d="M117,209c8.23-.94,13.87,1.12,16.23,3.36s.85,4.15,1.7,5.05,1.41,9.7-.42,9.33l0-1.9s-4.3-7.49-12.59-9.82Z" style="opacity:0.2"></path><path d="M132.19,217.4c-5-3.28-9.08-3.55-11.1-3.42l-1-1.17C124.21,212.15,129.61,214.82,132.19,217.4Z" style="opacity:0.1"></path><path d="M134.68,215.77c0,.69-.08,1.25.28,1.63a18.5,18.5,0,0,0-11-5.9S128.35,210.85,134.68,215.77Z" style="opacity:0.1"></path><path d="M88.67,175.09c-5,.42-16.26,1.52-20.18,2.25-3.43,1.36-2.58,3.72-2.73,7.83-.52,14.13,1.5,42.32,1.5,42.32,0,12.14-1.4,18.93.45,22.29,6.73,6.88,37.75,11.76,54.32,1.08,1.1-.77.61-5.09.58-11.23,0-11.44-.75-29.34-2.26-43.25-1.57-14.49-9.84-20.32-12.43-20.56Z" style="fill:#f0f0f0"></path><path d="M79.71,175.94h0c3.43-.36,6.8-.67,9-.85l13.43.51c2.23,3.91,2.72,7.84-2,9.4C95,186.67,83.65,185.85,79.71,175.94Z" style="fill:#FFC100"></path><path d="M72.55,220.68l2.2-18.43c2.3-14.73-2.42-23.77-4.43-25.21-5.78.94-9.27,1.1-12.73,13.69-1.27,4.66-1.44,10.33-2.22,19.14-.62,7-.73,14.12-.71,22.28,0,5.87,2.56,7,9.83,7.49,6.08.39,25.2-1.63,35.91-3.52,4.32-.77,10.69-2.37,14-3.23,2.45-.63,11.79-2.52,11.43-6.19a3.3,3.3,0,0,0-1.75-2.42,8.61,8.61,0,0,0-2.95-.88,48.12,48.12,0,0,0-13.61-.23c-3.4.42-6.64,1-10,1.22S87.28,220.25,84,220.33C77.82,220.49,72.55,220.68,72.55,220.68Z" style="fill:#ffbda7"></path><path d="M63.27,228.05s.52-5.21,9.28-7.37c0,0,5.27-.19,11.44-.35,3.29-.08,10.24,4.27,13.53,4.06s6.65-.8,10-1.22a48.12,48.12,0,0,1,13.61.23,8.61,8.61,0,0,1,2.95.88,3.3,3.3,0,0,1,1.75,2.42c.36,3.67-9,5.56-11.43,6.19-1.77.45-4.39,1.11-7.09,1.75-9.77-3.53-31-12.85-34.83-12.19C68.25,223.19,64.58,225.37,63.27,228.05Z" style="fill:#f0997a"></path><path d="M55.53,197.54c1.14-10.69,1.93-12.65,4.14-16.1s7.06-4.82,12.14-4.6c5.6,8.28,3.92,22.91,3.92,22.91l-3.18,20.93c-5.62,1.88-12,5.79-18,13.24a20.43,20.43,0,0,1-.42-5.42S54.38,208.22,55.53,197.54Z" style="fill:#FFC100"></path><path d="M76.46,221.19c8,1.57,35.07,13,47.59,13.61,3.91-1,4.43-2.89,5.85-8.06s-4.27-11.16-8-11.73c-37.12-.49-49.19,4.44-49.19,4.44l-.19,1.23S74.14,220.82,76.46,221.19Z" style="fill:#ffbda7"></path><polygon points="72.74 219.45 72.55 220.68 74.19 220.87 74.08 219.02 72.74 219.45" style="fill:#f0997a"></polygon><path d="M72.55,220.68a47,47,0,0,0-10.76,6.38c-4.61,3.86-6.53,7.24-6.82,8l.51,1.31s-.78.66-1.43-.65-.27-2.85-.62-3.5-1.32-2.66-.71-4,.21-2.76.22-3.76-.06-4.39,7.39-8,12.46-3.1,13.27-2.67c.43.74.19,1,.15,1.95a5.19,5.19,0,0,1-.35,2.54C72.92,219,73.38,219.67,72.55,220.68Z" style="fill:#FFC100"></path><path d="M72.55,220.68a47,47,0,0,0-10.76,6.38c-4.61,3.86-6.53,7.24-6.82,8l.51,1.31s-.78.66-1.43-.65-.27-2.85-.62-3.5-1.32-2.66-.71-4,.21-2.76.22-3.76-.06-4.39,7.39-8,12.46-3.1,13.27-2.67c.43.74.19,1,.15,1.95a5.19,5.19,0,0,1-.35,2.54C72.92,219,73.38,219.67,72.55,220.68Z" style="opacity:0.2"></path><path d="M57.13,228.18s.9-3.08,7-6.7a22.21,22.21,0,0,1,9.35-3.35.91.91,0,0,1-.07.14,2.18,2.18,0,0,0-.28,1C70.65,219.16,60.82,223.11,57.13,228.18Z" style="opacity:0.15"></path><path d="M53,225.49h0c7.27-6.76,13.2-7.32,13.2-7.32A24.56,24.56,0,0,0,53,227.48h0A6.45,6.45,0,0,0,53,225.49Z" style="opacity:0.15"></path><path d="M98.53,148.87l-23.91-1.11C70.11,151.38,61.74,159,61.8,161h0l0,1.41h0a.48.48,0,0,0,0,.17c.89,1.59,4,2.49,8.7,2.44,5.62-.06,14.33-.81,16.57-2.84,3.37-3.07,11.4-12,11.4-12l-1.2-.06Z" style="fill:#FFC100"></path><path d="M74.66,149.11C70,152.89,61,161,61.89,162.59s4,2.49,8.7,2.44c5.62-.06,14.33-.81,16.57-2.84,3.37-3.07,11.4-12,11.4-12Z" style="fill:#FFC100"></path><path d="M74.65,149.11C69.93,152.89,61,161,61.88,162.59s3.95,2.49,8.7,2.44c5.62-.06,14.33-.81,16.57-2.84,3.37-3.07,11.4-12,11.4-12Z" style="opacity:0.30000000000000004"></path><path d="M74.66,149.11c-.06.69,2.42,2.06,2.42,2.06l-.8-4.16A2.47,2.47,0,0,0,74.66,149.11Z" style="fill:#263238"></path><path d="M75.55,138.47c1.29-2.85,5-3.47,5-3.47s1.07-2.06,4.74-4.39,9.12-2.88,15.27-3.07c7.17-.22,12.68,5,13.79,11.82a11.27,11.27,0,0,1,.8,3.45c.25,7.86-5.85,13-13.71,13.2a14.22,14.22,0,0,1-12.69-7,68.51,68.51,0,0,0-5.54,5.41l.42,5.3-.8,6.74A34.07,34.07,0,0,0,80.9,162a44.64,44.64,0,0,1-4.12-8.75C74.63,147,74.43,140.94,75.55,138.47Z" style="fill:#FFC100"></path><path d="M75.55,138.47c1.29-2.85,5-3.47,5-3.47s1.07-2.06,4.74-4.39,9.12-2.88,15.27-3.07c7.17-.22,12.68,5,13.79,11.82a11.27,11.27,0,0,1,.8,3.45c.25,7.86-5.85,13-13.71,13.2a14.22,14.22,0,0,1-12.69-7,68.51,68.51,0,0,0-5.54,5.41l.42,5.3-.8,6.74A34.07,34.07,0,0,0,80.9,162a44.64,44.64,0,0,1-4.12-8.75C74.63,147,74.43,140.94,75.55,138.47Z" style="fill:#fff;opacity:0.4"></path><path d="M83.38,153.6c-1.25,1.14-2.37-1.7-3.48-2.8s-4.66-2.52-6.3,1.23,1.78,9,4.52,10a3.52,3.52,0,0,0,4.35-1.59l-.12,16.41c4.26,7.19,12.18,7.31,16,6.8s4.53-4.51,1.65-7.64l.1-5.22a27.28,27.28,0,0,0,6.15.13c3.49-.65,5.24-3.34,6.19-7.16,1.52-6.14,1.91-16.4-.76-28.16-4-2.92-17.57-2.73-25.65,2.71C85.67,150.07,84.64,152.45,83.38,153.6Z" style="fill:#ffbda7"></path><path d="M113.2,136c2.22,3.41,1.45,10.09-2.48,11a6.12,6.12,0,0,0-1.2-6.12,5.76,5.76,0,0,1-.07,2.38,5,5,0,0,1-1.41,2.59c-.81.67-2.46,1.69-3.58,1.56a8.25,8.25,0,0,0,.15-1.93A6.76,6.76,0,0,0,104,143a8.82,8.82,0,0,1-1.38,2.34,6.55,6.55,0,0,1-4.82,1.86,8,8,0,0,0-.28-1.93,5.49,5.49,0,0,0-1.09-2.43,7.29,7.29,0,0,1-2,3.57,10.82,10.82,0,0,1-4.16,2c-1,.3-2,.48-3,.8a8.44,8.44,0,0,0-1.68.61,1.71,1.71,0,0,0-.79.89,10.72,10.72,0,0,1,0-14.75Z" style="fill:#FFC100"></path><path d="M113.2,136c2.22,3.41,1.45,10.09-2.48,11a6.12,6.12,0,0,0-1.2-6.12,5.76,5.76,0,0,1-.07,2.38,5,5,0,0,1-1.41,2.59c-.81.67-2.46,1.69-3.58,1.56a8.25,8.25,0,0,0,.15-1.93A6.76,6.76,0,0,0,104,143a8.82,8.82,0,0,1-1.38,2.34,6.55,6.55,0,0,1-4.82,1.86,8,8,0,0,0-.28-1.93,5.49,5.49,0,0,0-1.09-2.43,7.29,7.29,0,0,1-2,3.57,10.82,10.82,0,0,1-4.16,2c-1,.3-2,.48-3,.8a8.44,8.44,0,0,0-1.68.61,1.71,1.71,0,0,0-.79.89,10.72,10.72,0,0,1,0-14.75Z" style="fill:#fff;opacity:0.4"></path><path d="M100.09,170.76s-8.13-1.34-10.91-2.71a8.91,8.91,0,0,1-3.89-3.62,12.27,12.27,0,0,0,2.28,4.35c2.08,2.49,12.52,4,12.52,4Z" style="fill:#f0997a"></path><path d="M96.66,150.49c-.25.94-1.08,1-2,.72s-1.55-.65-1.3-1.59a1.73,1.73,0,0,1,2.09-1.28A1.75,1.75,0,0,1,96.66,150.49Z" style="fill:#263238"></path><path d="M95.13,144.52l-3.45,1.66a2,2,0,0,1,.93-2.62A1.87,1.87,0,0,1,95.13,144.52Z" style="fill:#455a64"></path><path d="M95.94,159.63l5.61,1.91a2.91,2.91,0,0,1-3.71,2A3.1,3.1,0,0,1,95.94,159.63Z" style="fill:#b16668"></path><path d="M97.84,163.49a2.71,2.71,0,0,0,1.54.07,2.66,2.66,0,0,0-3.51-2.36A3,3,0,0,0,97.84,163.49Z" style="fill:#f28f8f"></path><path d="M111.56,145.84l-3.45-1.72a1.84,1.84,0,0,1,2.52-.91A2,2,0,0,1,111.56,145.84Z" style="fill:#455a64"></path><path d="M109.88,149.51c.23.87-.46,1.13-1.29,1.35s-1.51.32-1.74-.54a1.59,1.59,0,0,1,1.09-2A1.61,1.61,0,0,1,109.88,149.51Z" style="fill:#263238"></path><polygon points="101.55 147.01 102.57 157.9 107.78 156.4 101.55 147.01" style="fill:#f0997a"></polygon><path d="M93.82,123.63c9.87-1.3,16.18,2.72,19.46,10.62a15.47,15.47,0,0,1,1.07,5.11c-6-4.26-19.09-3.05-27.33.61a35.87,35.87,0,0,0-11,7.56,7.3,7.3,0,0,0-1.41,1.7,21,21,0,0,1-1.18-5.9C72.86,131.87,82.25,125.16,93.82,123.63Z" style="fill:#37474f"></path><path d="M111,134.56a24.55,24.55,0,0,0-13.68-.8c-.6-3.25-1.07-6.61,6.05-6.09C109.08,128.09,111,134.56,111,134.56Z" style="fill:#FFC100"></path><path d="M111,134.56a24.55,24.55,0,0,0-13.68-.8c-.6-3.25-1.07-6.61,6.05-6.09C109.08,128.09,111,134.56,111,134.56Z" style="fill:#fff;opacity:0.4"></path><circle cx="79.39" cy="160.11" r="0.9" style="fill:#37474f"></circle><path d="M79.39,163.59a.32.32,0,0,0,.32-.32V160.1a.32.32,0,0,0-.63,0v3.17A.32.32,0,0,0,79.39,163.59Z" style="fill:#37474f"></path><path d="M79.49,162.44c1.6.58.86,2.3.29,3.34a1.89,1.89,0,0,0,.13,2.39C77.83,167.71,77.25,162.44,79.49,162.44Z" style="fill:#37474f"></path><path d="M88.82,203.54l-2.64-2.92-.37.46.31,2.24-2.13.05-1.08-7.62,2.15-.1.34,2.47,2.3-2.77,1.7,1.34L87.5,199l2.92,3.16Z" style="fill:#FFC100"></path><path d="M90.48,201.18l-.36-2.05,3.91-.21.3,2.05Z" style="fill:#FFC100"></path><path d="M98.51,195.21a3.15,3.15,0,0,1,1.35.94,3.07,3.07,0,0,1,.67,1.57,2.8,2.8,0,0,1-.23,1.54,3,3,0,0,1-1,1.21,2.78,2.78,0,0,1-1.51.5,2,2,0,0,1-.59-.06l.31,1.86-2.13.1-1.12-7a2.26,2.26,0,0,1,1-.59,5.22,5.22,0,0,1,1.49-.31A4.41,4.41,0,0,1,98.51,195.21Zm-.31,3.33a.86.86,0,0,0,.25-.72.93.93,0,0,0-.41-.64,1.26,1.26,0,0,0-.85-.24,1.18,1.18,0,0,0-.61.21l.26,1.63a1.5,1.5,0,0,0,.56.11A1.12,1.12,0,0,0,98.2,198.54Z" style="fill:#FFC100"></path><path d="M103.81,202.07a5.07,5.07,0,0,1-1.7-1.42,4.13,4.13,0,0,1-.84-2,3.57,3.57,0,0,1,.3-2,3.79,3.79,0,0,1,3.27-2.16,4.22,4.22,0,0,1,2.07.45,4.74,4.74,0,0,1,1.67,1.38,4,4,0,0,1,.81,1.93,3.72,3.72,0,0,1-1.56,3.58,3.66,3.66,0,0,1-1.93.65A4.23,4.23,0,0,1,103.81,202.07Zm2.7-1.92a1.75,1.75,0,0,0,.77-1.74,1.91,1.91,0,0,0-.39-.94,2.16,2.16,0,0,0-.8-.64,2.22,2.22,0,0,0-1-.2,1.87,1.87,0,0,0-.95.3,1.63,1.63,0,0,0-.61.72,1.75,1.75,0,0,0-.12,1,2,2,0,0,0,.39.95,2.11,2.11,0,0,0,.79.66,2,2,0,0,0,1,.22A1.93,1.93,0,0,0,106.51,200.15Z" style="fill:#FFC100"></path><path d="M113.83,194.49a3.27,3.27,0,0,1,1.36.94,3,3,0,0,1,.66,1.58,2.69,2.69,0,0,1-.22,1.53,3,3,0,0,1-1,1.21,2.84,2.84,0,0,1-1.5.51,2,2,0,0,1-.59-.07l.3,1.86-2.13.1-1.12-7a2.31,2.31,0,0,1,1-.59,5.52,5.52,0,0,1,1.48-.31A4.35,4.35,0,0,1,113.83,194.49Zm-.3,3.34a.85.85,0,0,0,.24-.73.93.93,0,0,0-.4-.64,1.35,1.35,0,0,0-.85-.24,1.25,1.25,0,0,0-.61.22l.26,1.62a1.28,1.28,0,0,0,.55.11A1.18,1.18,0,0,0,113.53,197.83Z" style="fill:#FFC100"></path></g></g></g></svg>