<svg xmlns="http://www.w3.org/2000/svg" viewBox="0 0 500 500"><g id="freepik--background-complete--inject-259"><g><g><path d="M443.92039,277.7483h-180.7461c-3.2324,0-5.86229-2.4335-5.86229-5.4246V28.7062c0-2.9911,2.62989-5.4242,5.86229-5.4242h180.7461c3.2324,0,5.8623,2.4331,5.8623,5.4242v243.6175c0,2.9911-2.6299,5.4246-5.8623,5.4246ZM263.17429,23.5133c-3.0947,0-5.61229,2.3297-5.61229,5.1929v243.6175c0,2.8637,2.51759,5.1933,5.61229,5.1933h180.7461c3.0947,0,5.6123-2.3296,5.6123-5.1933V28.7062c0-2.8632-2.5176-5.1929-5.6123-5.1929h-180.7461Z" style="fill:#e0e0e0;"></path><path d="M235.49269,277.7483H54.7461c-3.2324,0-5.8618-2.4335-5.8618-5.4246V28.7062c0-2.9911,2.6294-5.4242,5.8618-5.4242H235.49269c3.2324,0,5.86231,2.4331,5.86231,5.4242v243.6175c0,2.9911-2.62991,5.4246-5.86231,5.4246ZM54.7461,23.5133c-3.0942,0-5.6118,2.3297-5.6118,5.1929v243.6175c0,2.8637,2.5176,5.1933,5.6118,5.1933H235.49269c3.0947,0,5.61231-2.3296,5.61231-5.1933V28.7062c0-2.8632-2.51761-5.1929-5.61231-5.1929H54.7461Z" style="fill:#e0e0e0;"></path></g><rect x="0" y="293.5217" width="500" height=".25" style="fill:#e0e0e0;"></rect><rect x="51.6724" y="307.7862" width="16.06" height=".25" style="fill:#e0e0e0;"></rect><rect x="170.3524" y="305.0762" width="53.53" height=".25" style="fill:#e0e0e0;"></rect><rect x="68.7324" y="317.0762" width="36.25" height=".25" style="fill:#e0e0e0;"></rect><rect x="378.35239" y="304.9462" width="43.19" height=".25" style="fill:#e0e0e0;"></rect><rect x="430.45239" y="304.9462" width="6.33" height=".25" style="fill:#e0e0e0;"></rect><rect x="316.21239" y="311.1762" width="53.89" height=".25" style="fill:#e0e0e0;"></rect></g><path d="M78.8002,53.0443c-1.5001-1.1332-3.6888-1.2617-5.3111-.3115-2.1533-4.3513-8.154-6.2718-12.4337-3.9791-1.1165-4.6889-5.7363-8.2931-10.556-8.2352-4.8198,.0581-9.3516,3.7722-10.355,8.4868-.1594,.7493-.2649,1.57-.8008,2.1174-.8705,.8891-2.3239,.5907-3.5646,.494-3.9033-.3045-7.8309,2.4358-8.8923,6.2043l53.7529-.1958c.4709-1.8199-.3395-3.4476-1.8394-4.5809Z" style="fill:#f0f0f0;"></path><path d="M463.58749,63.2754c-1.5-1.1333-3.6887-1.2617-5.3111-.3115-2.1532-4.3514-8.1539-6.2718-12.4336-3.9792-1.1165-4.6889-5.7364-8.2931-10.5561-8.2352-4.81969,.0581-9.3515,3.7723-10.3549,8.4868-.1594,.7493-.2649,1.57-.8009,2.1174-.8704,.8892-2.32389,.5907-3.5645,.494-3.90339-.3044-7.8309,2.4359-8.89239,6.2043l53.753-.1957c.47079-1.82-.33951-3.4477-1.83951-4.5809Z" style="fill:#f0f0f0;"></path><path d="M83.7269,186.6368c-1.2552-.9483-3.0867-1.0558-4.4442-.2606-1.8018-3.6411-6.823-5.2481-10.4042-3.3297-.9343-3.9236-4.8-6.9394-8.8331-6.891-4.033,.0486-7.8251,3.1565-8.6647,7.1016-.1334,.6269-.2217,1.3137-.6701,1.7717-.7284,.7441-1.9447,.4943-2.9828,.4134-3.2662-.2548-6.5527,2.0383-7.4409,5.1916l44.9792-.1638c.394-1.5229-.2841-2.8849-1.5392-3.8332Z" style="fill:#f0f0f0;"></path><path d="M253.09869,188.3631c-1.9235-1.4532-4.7298-1.6179-6.8101-.3994-2.7611-5.5797-10.4555-8.0421-15.9431-5.1023-1.4317-6.0124-7.3556-10.634-13.5357-10.5597-6.1801,.0745-11.991,4.837-13.2776,10.8823-.2045,.9607-.3398,2.0131-1.0269,2.715-1.1162,1.1402-2.9799,.7575-4.5708,.6334-5.0049-.3903-10.0412,3.1234-11.4022,7.9555l68.9252-.2509c.6037-2.3337-.4354-4.4208-2.3588-5.8739Z" style="fill:#f0f0f0;"></path><g><path d="M79.0498,144.7827c-.1811-.657-.2894-1.4103-.3385-2.2398-.276-4.646-4.7114-3.9099-8.4849-4.5404-2.9479-.4923,4.858-7.9396-1.086-10.342-1.1041-.4461-2.3038-.9505-2.8683-1.9991-.7465-1.3867,.0088-3.2119,1.2945-4.1212,1.2859-.9093,2.9382-1.1021,4.5128-1.1316,.9695-1.1788,.181-2.9524-.7573-4.156-.9381-1.204-2.0872-2.5733-1.7316-4.0575,.5368-2.241,3.6687-2.3215,5.9318-1.886,.8361-1.3541,.8197-3.0473,1.2255-4.5862,.4056-1.5389,1.6295-3.154,3.2091-2.9615,1.4884,.1814,2.3977,1.8616,3.8571,2.2056,1.6946,.3993,3.1621-1.0993,4.4916-2.2237,1.3294-1.1244,3.6547-1.8262,4.5704-.3453,.5482,.8868,.2198,2.1227,.7896,2.9956,.9874,1.5132,3.3291,.5741,4.7829-.4988,1.4539-1.0729,3.7699-2.0446,4.7929-.5553,.3133,.4562,.3821,1.0311,.5634,1.5541,.6876,1.9847,2.8333,2.9734,4.5041,4.2462,1.6709,1.273,2.995,3.8043,1.5808,5.3577-.6977,.7663-1.9246,1.0766-2.2714,2.0532-.4332,1.2202,.814,2.3139,1.8005,3.1531,1.6424,1.3971,1.9401,5.577-.2312,6.7201-.9115,.4799-2.2484,.6273-2.4722,1.633-.1998,.8989,.7124,1.5988,1.3188,2.292,1.6649,1.9041,.96,5.3321-1.3209,6.425-.5216,.2498-1.1621,.4547-1.3551,.9997-.1382,.3899,.0126,.815,.1245,1.2134,.2115,.7539,.2829,1.5471,.2089,2.3267-.0251,.2669-.0799,.5558-.2831,.7304-.1844,.1583-.4455,.1829-.6883,.1938-3.1356,.1397-4.6483-.9702-6.5623,1.7585-.1839,.2621-.3764,.5323-.653,.6934-.2591,.151-.5666,.1909-.8654,.2157-2.1556,.1776-3.5646-1.1679-5.5344-1.4187-2.7332-.3484-3.3122,1.0609-5.72,2.1928-3.788,1.7808-5.624,.6835-6.3353-1.8969Z" style="fill:#ebebeb;"></path><path d="M115.1632,140.8806c-.1811-.6571-.2894-1.4105-.3385-2.24-.276-4.646-4.7113-3.9099-8.4849-4.5402-2.9478-.4926,4.858-7.9397-1.0861-10.3421-1.1039-.4462-2.3038-.9506-2.8683-1.9992-.7463-1.3867,.009-3.2119,1.2947-4.1212s2.938-1.1019,4.5127-1.1315c.9694-1.1787,.1811-2.9524-.7572-4.1562-.9383-1.2039-2.0874-2.5731-1.7319-4.0574,.537-2.241,3.669-2.3216,5.932-1.886,.8362-1.354,.8197-3.0473,1.2254-4.5861,.4057-1.5389,1.6295-3.1541,3.2093-2.9615,1.4882,.1812,2.3976,1.8616,3.8569,2.2055,1.6948,.3994,3.1622-1.0994,4.4917-2.2237,1.3295-1.1244,3.6546-1.8261,4.5703-.3451,.5483,.8866,.2198,2.1225,.7896,2.9955,.9876,1.5131,3.3293,.574,4.7831-.4988,1.4538-1.0729,3.7699-2.0448,4.7928-.5554,.3132,.4562,.3822,1.0311,.5633,1.5541,.6879,1.9846,2.8334,2.9733,4.5043,4.2462,1.671,1.2729,2.9948,3.8045,1.5807,5.3576-.6977,.7663-1.9246,1.0768-2.2713,2.0535-.4333,1.22,.8139,2.3139,1.8006,3.153,1.6422,1.397,1.9398,5.577-.2313,6.7201-.9117,.4798-2.2485,.6272-2.4722,1.6328-.1999,.8992,.7124,1.5987,1.3186,2.2921,1.665,1.9041,.9602,5.3322-1.3209,6.4249-.5215,.2499-1.1619,.4547-1.355,.9998-.1383,.39,.0126,.8149,.1244,1.2133,.2118,.7541,.283,1.5472,.209,2.3269-.0252,.2667-.0799,.5558-.2831,.7303-.1844,.1584-.4454,.183-.6883,.1938-3.1357,.1399-4.6483-.9701-6.5623,1.7584-.1838,.2622-.3765,.5325-.6531,.6936-.259,.1508-.5664,.1909-.8652,.2155-2.1558,.1778-3.5647-1.1677-5.5343-1.4187-2.7334-.3482-3.3125,1.0611-5.7201,2.1929-3.788,1.7809-5.624,.6837-6.3354-1.8967Z" style="fill:#ebebeb;"></path><path d="M118.6435,117.8821c-.1812-.6571-.2894-1.4105-.3386-2.24-.2761-4.646-4.7113-3.9098-8.4849-4.5402-2.9478-.4926,4.8579-7.9396-1.0861-10.3421-1.104-.4463-2.3038-.9507-2.8681-1.9992-.7465-1.3866,.0087-3.2119,1.2946-4.1212,1.2858-.9092,2.9381-1.102,4.5126-1.1314,.9695-1.179,.181-2.9524-.7572-4.1564-.9383-1.2037-2.0873-2.573-1.7318-4.0572,.537-2.2411,3.669-2.3216,5.9319-1.8861,.8362-1.3539,.8198-3.0472,1.2254-4.5861,.4058-1.5388,1.6295-3.1541,3.2093-2.9615,1.4883,.1814,2.3976,1.8615,3.857,2.2055,1.6946,.3994,3.1621-1.0994,4.4917-2.2237,1.3295-1.1245,3.6545-1.8261,4.5703-.3451,.5482,.8866,.2199,2.1225,.7897,2.9955,.9874,1.5132,3.329,.574,4.7829-.4989,1.4539-1.0728,3.7698-2.0446,4.7927-.5553,.3134,.4562,.3823,1.0311,.5635,1.5541,.6878,1.9848,2.8332,2.9734,4.5042,4.2462,1.6709,1.2729,2.9948,3.8043,1.5807,5.3576-.6976,.7664-1.9246,1.0768-2.2712,2.0534-.4333,1.2202,.8138,2.3139,1.8003,3.1531,1.6423,1.397,1.9402,5.577-.2311,6.72-.9117,.48-2.2485,.6273-2.4722,1.6329-.2,.8991,.7125,1.5988,1.3186,2.2921,1.665,1.9042,.9603,5.3321-1.3209,6.425-.5215,.2498-1.1619,.4546-1.355,.9997-.1382,.39,.0126,.8151,.1245,1.2134,.2116,.754,.2829,1.5471,.2091,2.3268-.0254,.2667-.0801,.5557-.2833,.7303-.1844,.1583-.4454,.183-.6883,.1938-3.1356,.1397-4.6482-.9701-6.5624,1.7585-.1838,.2622-.3763,.5323-.653,.6934-.259,.1511-.5665,.1909-.8653,.2156-2.1556,.1777-3.5645-1.1678-5.5342-1.4187-2.7334-.3482-3.3124,1.061-5.7201,2.1929-3.7881,1.7809-5.624,.6837-6.3353-1.8967Z" style="fill:#ebebeb;"></path><path d="M142.4326,129.3374c-.1811-.6571-.2893-1.4105-.3385-2.24-.2759-4.6461-4.7114-3.9098-8.4848-4.5401-2.9478-.4927,4.8579-7.9397-1.0861-10.3423-1.104-.4461-2.3038-.9505-2.8682-1.9991-.7465-1.3867,.0087-3.2119,1.2946-4.1212,1.2857-.9093,2.938-1.102,4.5126-1.1316,.9695-1.1787,.181-2.9523-.7572-4.156-.9383-1.204-2.0873-2.5732-1.7318-4.0575,.537-2.241,3.6689-2.3214,5.9319-1.886,.8361-1.3541,.8199-3.0474,1.2255-4.5861,.4056-1.5389,1.6296-3.1541,3.2093-2.9616,1.4882,.1814,2.3976,1.8618,3.8568,2.2056,1.6948,.3994,3.1623-1.0993,4.4918-2.2237,1.3294-1.1244,3.6546-1.8262,4.5703-.3451,.5482,.8866,.2198,2.1225,.7897,2.9955,.9875,1.5132,3.329,.574,4.7829-.4987,1.4538-1.073,3.7698-2.0449,4.7927-.5555,.3134,.4562,.3822,1.0311,.5635,1.5541,.6878,1.9847,2.8333,2.9734,4.5042,4.2462,1.6709,1.273,2.9948,3.8043,1.5808,5.3577-.6978,.7662-1.9246,1.0766-2.2714,2.0533-.4334,1.2202,.8139,2.3139,1.8004,3.1531,1.6424,1.397,1.9402,5.577-.2312,6.72-.9115,.48-2.2484,.6273-2.4721,1.633-.1999,.8991,.7125,1.5986,1.3187,2.2921,1.6649,1.904,.9602,5.3321-1.321,6.4249-.5214,.2498-1.1619,.4547-1.355,.9997-.1382,.39,.0128,.815,.1245,1.2134,.2117,.7541,.283,1.5472,.209,2.3267-.0253,.2668-.08,.5558-.2831,.7304-.1844,.1583-.4456,.183-.6884,.1938-3.1357,.1397-4.6483-.9701-6.5623,1.7584-.184,.2622-.3764,.5324-.653,.6936-.2591,.1509-.5664,.191-.8654,.2156-2.1556,.1776-3.5645-1.1678-5.5341-1.4187-2.7335-.3483-3.3125,1.0609-5.7203,2.1928-3.7879,1.7809-5.624,.6837-6.3353-1.8967Z" style="fill:#ebebeb;"></path><path d="M166.4756,124.0465c-.1812-.6574-.2894-1.4107-.3385-2.24-.276-4.6462-4.7115-3.9099-8.4849-4.5402-2.9478-.4927,4.8579-7.9397-1.086-10.3422-1.1041-.4462-2.3038-.9506-2.8683-1.9991-.7465-1.3867,.0088-3.212,1.2946-4.1212,1.2857-.9093,2.938-1.1022,4.5127-1.1315,.9695-1.1788,.1811-2.9524-.7574-4.1562-.9381-1.2039-2.0872-2.5732-1.7315-4.0574,.5368-2.2412,3.6688-2.3216,5.9318-1.8861,.8361-1.3539,.8197-3.0472,1.2255-4.5861,.4055-1.5388,1.6295-3.1541,3.2092-2.9615,1.4883,.1813,2.3976,1.8617,3.8569,2.2054,1.6947,.3996,3.1622-1.0993,4.4917-2.2236,1.3295-1.1245,3.6546-1.8261,4.5703-.345,.5483,.8865,.2199,2.1224,.7897,2.9954,.9874,1.5132,3.329,.5741,4.7829-.4988,1.4538-1.0728,3.7698-2.0447,4.7928-.5553,.3134,.4562,.3823,1.0311,.5635,1.5541,.6877,1.9846,2.8333,2.9733,4.5041,4.2462,1.671,1.2728,2.995,3.8044,1.5807,5.3576-.6975,.7663-1.9245,1.0767-2.2713,2.0533-.4333,1.2202,.814,2.3139,1.8005,3.1529,1.6424,1.3972,1.9401,5.5773-.2312,6.7202-.9116,.48-2.2485,.6273-2.4722,1.6329-.1999,.8991,.7125,1.5988,1.3188,2.2921,1.6648,1.9042,.9601,5.3323-1.3209,6.425-.5215,.2499-1.1621,.4546-1.3552,.9996-.1381,.3901,.0128,.8151,.1245,1.2134,.2116,.7542,.283,1.5473,.2091,2.3269-.0253,.2668-.08,.5558-.2832,.7303-.1843,.1584-.4455,.1831-.6883,.1939-3.1357,.1398-4.6484-.9702-6.5624,1.7584-.1838,.2621-.3763,.5323-.653,.6935-.2591,.1509-.5664,.191-.8653,.2156-2.1556,.1778-3.5646-1.1678-5.5342-1.4187-2.7334-.3482-3.3124,1.0609-5.7203,2.1929-3.788,1.7809-5.6239,.6835-6.3352-1.8967Z" style="fill:#ebebeb;"></path><path d="M166.7893,149.7649c-.1425-.5174-.2278-1.1106-.2665-1.7637-.2174-3.6583-3.7099-3.0786-6.6811-3.575-2.3211-.3878,3.8252-6.2515-.8551-8.1433-.8693-.3513-1.8141-.7484-2.2585-1.5741-.5877-1.0919,.0069-2.5291,1.0194-3.245,1.0123-.716,2.3135-.8679,3.5532-.8911,.7634-.928,.1427-2.3246-.5962-3.2726-.7388-.9477-1.6435-2.026-1.3636-3.1946,.4228-1.7649,2.889-1.8281,4.6708-1.4852,.6584-1.0661,.6455-2.3994,.965-3.6112,.3194-1.2116,1.2831-2.4834,2.527-2.3318,1.1718,.1429,1.8878,1.466,3.0368,1.7368,1.3345,.3143,2.4899-.8658,3.5369-1.751,1.0467-.8854,2.8775-1.4379,3.5985-.2717,.4317,.6981,.1732,1.6712,.6219,2.3585,.7775,1.1916,2.6214,.4521,3.766-.3928,1.1448-.8448,2.9684-1.6099,3.774-.4371,.2466,.3591,.3008,.8118,.4436,1.2235,.5416,1.5628,2.2308,2.3412,3.5465,3.3436,1.3157,1.0023,2.3581,2.9955,1.2447,4.2186-.5492,.6033-1.5155,.8478-1.7885,1.6168-.3412,.9608,.641,1.8219,1.4177,2.4826,1.2932,1.1001,1.5277,4.3914-.1821,5.2915-.7176,.3779-1.7703,.4939-1.9465,1.2857-.1574,.7079,.561,1.2588,1.0384,1.8048,1.3108,1.4993,.756,4.1986-1.0402,5.059-.4105,.1967-.9149,.358-1.067,.7871-.1088,.3071,.0101,.6418,.0981,.9555,.1666,.5937,.2228,1.2183,.1647,1.8321-.0201,.21-.0631,.4376-.2231,.5751-.1452,.1246-.3507,.1441-.542,.1526-2.4691,.11-3.66-.7639-5.1671,1.3846-.1449,.2064-.2964,.4192-.5142,.5462-.204,.1188-.4461,.1502-.6814,.1698-1.6973,.1398-2.8066-.9196-4.3576-1.1173-2.1523-.2741-2.6083,.8354-4.504,1.7268-2.9827,1.4022-4.4284,.5382-4.9885-1.4937Z" style="fill:#ebebeb;"></path><path d="M180.2611,140.8806c-.1812-.6571-.2895-1.4105-.3384-2.24-.2761-4.646-4.7114-3.9099-8.485-4.5402-2.9478-.4926,4.858-7.9397-1.086-10.3421-1.104-.4462-2.304-.9506-2.8683-1.9992-.7464-1.3867,.0087-3.2119,1.2945-4.1212s2.9381-1.1019,4.5127-1.1315c.9695-1.1787,.1812-2.9524-.7571-4.1562-.9384-1.2039-2.0874-2.5731-1.7318-4.0574,.5369-2.241,3.6689-2.3216,5.9318-1.886,.8362-1.354,.8199-3.0473,1.2255-4.5861,.4057-1.5389,1.6296-3.1541,3.2093-2.9615,1.4882,.1812,2.3976,1.8616,3.857,2.2055,1.6947,.3994,3.1621-1.0994,4.4915-2.2237,1.3296-1.1244,3.6547-1.8261,4.5704-.3451,.5481,.8866,.2199,2.1225,.7897,2.9955,.9875,1.5131,3.3291,.574,4.7829-.4988,1.4538-1.0729,3.7698-2.0448,4.7929-.5554,.31331,.4562,.3821,1.0311,.5634,1.5541,.6877,1.9846,2.8332,2.9733,4.5042,4.2462,1.6708,1.2729,2.99471,3.8045,1.58071,5.3576-.69771,.7663-1.92461,1.0768-2.27141,2.0535-.4332,1.22,.8141,2.3139,1.8005,3.153,1.6425,1.397,1.9401,5.577-.2313,6.7201-.9114,.4798-2.2484,.6272-2.472,1.6328-.2,.8992,.7124,1.5987,1.3186,2.2921,1.665,1.9041,.9602,5.3322-1.321,6.4249-.52139,.2499-1.1619,.4547-1.355,.9998-.1381,.39,.0128,.8149,.1245,1.2133,.2117,.7541,.283,1.5472,.20911,2.3269-.02521,.2667-.08,.5558-.28321,.7303-.1844,.1584-.4454,.183-.6882,.1938-3.1358,.1399-4.6484-.9701-6.56259,1.7584-.18371,.2622-.37631,.5325-.65291,.6936-.25909,.1508-.5664,.1909-.8654,.2155-2.1555,.1778-3.5645-1.1677-5.5341-1.4187-2.7333-.3482-3.3124,1.0611-5.7201,2.1929-3.7881,1.7809-5.624,.6837-6.3354-1.8967Z" style="fill:#ebebeb;"></path><path d="M142.4326,101.0478c-.1811-.6572-.2893-1.4104-.3385-2.2398-.2759-4.6461-4.7114-3.9099-8.4848-4.5404-2.9478-.4925,4.8579-7.9395-1.0861-10.342-1.104-.4462-2.3038-.9507-2.8682-1.9991-.7465-1.3866,.0087-3.2119,1.2946-4.1212,1.2857-.9094,2.938-1.1022,4.5126-1.1315,.9695-1.1789,.181-2.9525-.7572-4.1563-.9383-1.2037-2.0873-2.5731-1.7318-4.0573,.537-2.241,3.6689-2.3215,5.9319-1.886,.8361-1.3541,.8199-3.0473,1.2255-4.5862,.4056-1.5389,1.6296-3.154,3.2093-2.9615,1.4882,.1815,2.3976,1.8616,3.8568,2.2056,1.6948,.3994,3.1623-1.0994,4.4918-2.2237,1.3294-1.1246,3.6546-1.8261,4.5703-.3452,.5482,.8867,.2198,2.1226,.7897,2.9955,.9875,1.5131,3.329,.574,4.7829-.4988,1.4538-1.0729,3.7698-2.0446,4.7927-.5553,.3134,.4562,.3822,1.0311,.5635,1.554,.6878,1.9847,2.8333,2.9733,4.5042,4.2463,1.6709,1.2729,2.9948,3.8043,1.5808,5.3576-.6978,.7663-1.9246,1.0767-2.2714,2.0534-.4334,1.2202,.8139,2.3138,1.8004,3.153,1.6424,1.3971,1.9402,5.577-.2312,6.7201-.9115,.4799-2.2484,.6273-2.4721,1.6328-.1999,.8991,.7125,1.5988,1.3187,2.2922,1.6649,1.9042,.9602,5.3321-1.321,6.425-.5214,.2498-1.1619,.4546-1.355,.9997-.1382,.39,.0128,.8149,.1245,1.2133,.2117,.754,.283,1.5472,.209,2.3268-.0253,.2668-.08,.5558-.2831,.7304-.1844,.1583-.4456,.183-.6884,.1938-3.1357,.1397-4.6483-.9703-6.5623,1.7585-.184,.2622-.3764,.5322-.653,.6935-.2591,.1508-.5664,.1908-.8654,.2155-2.1556,.1777-3.5645-1.1678-5.5341-1.4187-2.7335-.3483-3.3125,1.061-5.7203,2.1929-3.7879,1.7809-5.624,.6836-6.3353-1.8969Z" style="fill:#ebebeb;"></path><path d="M111.5458,102.6274c-.1811-.6573-.2893-1.4106-.3385-2.24-.2759-4.6461-4.7114-3.9099-8.4848-4.5402-2.9478-.4926,4.8578-7.9396-1.0861-10.342-1.104-.4462-2.3038-.9507-2.8682-1.9993-.7464-1.3866,.0087-3.212,1.2946-4.1212,1.2857-.9093,2.938-1.102,4.5126-1.1315,.9695-1.1786,.1811-2.9524-.7573-4.1562-.9381-1.2037-2.0873-2.5731-1.7316-4.0574,.5369-2.2412,3.6688-2.3216,5.9318-1.886,.8362-1.354,.8197-3.0473,1.2255-4.5862,.4056-1.5388,1.6295-3.154,3.2091-2.9614,1.4884,.1814,2.3978,1.8617,3.857,2.2055,1.6948,.3995,3.1623-1.0993,4.4918-2.2237,1.3294-1.1244,3.6546-1.8261,4.5703-.3451,.5482,.8867,.2199,2.1224,.7896,2.9955,.9875,1.5131,3.3291,.5741,4.7831-.4989,1.4536-1.0729,3.7697-2.0446,4.7927-.5552,.3133,.4563,.3822,1.0311,.5634,1.5541,.6878,1.9846,2.8333,2.9733,4.5042,4.2461,1.6709,1.2729,2.9949,3.8044,1.5807,5.3576-.6976,.7664-1.9246,1.0768-2.2713,2.0534-.4333,1.2201,.8139,2.3139,1.8005,3.153,1.6423,1.397,1.94,5.5772-.2313,6.7201-.9115,.48-2.2484,.6273-2.4721,1.633-.1999,.8991,.7125,1.5988,1.3187,2.292,1.6649,1.9042,.9602,5.3323-1.3209,6.425-.5214,.2499-1.162,.4547-1.3552,.9995-.1381,.3903,.0127,.8152,.1246,1.2136,.2117,.754,.2829,1.5472,.2089,2.3268-.0252,.2667-.0799,.5558-.2831,.7304-.1843,.1583-.4454,.1828-.6883,.1939-3.1357,.1396-4.6483-.9703-6.5623,1.7582-.1839,.2621-.3764,.5325-.6531,.6935-.259,.1511-.5665,.191-.8653,.2156-2.1556,.1779-3.5645-1.1677-5.5341-1.4186-2.7335-.3483-3.3125,1.061-5.7202,2.193-3.7881,1.7808-5.6241,.6834-6.3354-1.8969Z" style="fill:#ebebeb;"></path><path d="M92.7848,115.2672c-.181-.6571-.2892-1.4103-.3384-2.2398-.2761-4.6461-4.7114-3.9098-8.4851-4.5403-2.9477-.4925,4.8581-7.9395-1.0859-10.3421-1.1039-.446-2.3037-.9506-2.8682-1.999-.7465-1.3868,.0088-3.212,1.2946-4.1213s2.9381-1.102,4.5127-1.1316c.9695-1.1787,.181-2.9523-.7573-4.156-.9382-1.2038-2.0873-2.5732-1.7317-4.0575,.5369-2.241,3.6688-2.3214,5.9318-1.8859,.8363-1.3541,.8198-3.0473,1.2256-4.5862,.4056-1.5389,1.6294-3.154,3.2091-2.9616,1.4884,.1814,2.3976,1.8616,3.8569,2.2056,1.6949,.3994,3.1624-1.0994,4.4918-2.2237,1.3295-1.1245,3.6546-1.8262,4.5703-.3451,.5483,.8867,.2198,2.1225,.7897,2.9956,.9875,1.5131,3.3291,.5739,4.7831-.4989,1.4537-1.0728,3.7697-2.0448,4.7926-.5553,.3134,.4561,.3823,1.031,.5634,1.554,.6878,1.9847,2.8334,2.9733,4.5043,4.2462,1.6709,1.273,2.9947,3.8044,1.5807,5.3577-.6976,.7662-1.9247,1.0767-2.2714,2.0534-.4332,1.2201,.814,2.3138,1.8006,3.1529,1.6423,1.3971,1.94,5.577-.2313,6.7201-.9115,.48-2.2485,.6273-2.4721,1.6329-.2,.899,.7124,1.5988,1.3187,2.2922,1.6649,1.904,.9601,5.3321-1.3209,6.425-.5215,.2498-1.1621,.4545-1.3552,.9996-.1382,.3899,.0126,.815,.1245,1.2134,.2116,.7541,.2828,1.5472,.209,2.3268-.0252,.2667-.0799,.5556-.2832,.7303-.1842,.1584-.4454,.183-.6882,.1938-3.1358,.1398-4.6483-.9701-6.5623,1.7584-.1839,.2622-.3764,.5324-.6532,.6936-.259,.1509-.5664,.1909-.8652,.2156-2.1556,.1777-3.5646-1.1678-5.5344-1.4188-2.7332-.3482-3.3122,1.061-5.72,2.193-3.7881,1.7808-5.624,.6836-6.3354-1.897Z" style="fill:#ebebeb;"></path><path d="M98.4729,131.2432s7.846,11.0926,10.5516,14.6099c2.7053,3.5171,16.2328,25.4318,18.0741,39.9264,.1966,1.5469,.39,2.8785,.5789,4.0429-5.8187,38.406-4.9054,108.6725-4.7005,120.7028h18.4339c.1697-13.5649,1.7361-137.5656,2.3139-141.3521,.611-4.0057,8.3172-19.2617,20.2216-25.53,11.904-6.2682,22.1912-27.0097,22.1912-27.0097h-3.7939s-7.0341,12.716-17.0446,19.7503c-1.4538,1.0217-2.9593,1.8717-4.5039,2.67,.3588-11.4588-3.9812-22.4203-3.9812-22.4203l-2.0478,1.8939c2.7656,11.3253,2.4018,18.579,1.5647,22.7459-3.3599,1.6833-6.8453,3.6324-10.3507,6.9269-10.3837-13.5024-16.2227-44.3822-16.2227-44.3822l-2.6589,1.4525s.8643,8.387,3.4332,18.9384c1.9456,7.9925,7.6709,23.0403,10.335,29.873-2.6475,3.6771-5.2774,8.431-7.8436,14.7236-.2908-.4477-.6193-.8547-1.002-1.2006-6.7639-6.1154-19.4798-35.0089-19.4798-35.0089-3.0755-6.717,1.6235-24.3495,1.6235-24.3495h-3.5497l-1.5907,15.4214-8.9285-9.7399-1.6231,1.3528,9.4692,12.1749,4.8699,15.4249-12.716-14.0723-1.6231,2.435Z" style="fill:#e6e6e6;"></path></g><g><path d="M340.39959,177.1507c-.1579-.5726-.2523-1.2292-.295-1.9522-.24059-4.0494-4.1065-3.4078-7.3954-3.9573-2.5695-.4292,4.2341-6.9201-.9467-9.014-.9622-.3889-2.008-.8286-2.5-1.7426-.6506-1.2086,.0077-2.7994,1.1284-3.5919s2.5609-.9606,3.9333-.9864c.8451-1.0274,.1577-2.5732-.6601-3.6223-.8176-1.0494-1.8192-2.2429-1.5092-3.5365,.4679-1.9533,3.1977-2.0234,5.17-1.6438,.7289-1.1802,.7146-2.656,1.0682-3.9973s1.4203-2.7491,2.7972-2.5812c1.2971,.158,2.0898,1.6225,3.36171,1.9223,1.47709,.3481,2.75609-.9582,3.91489-1.9382s3.1853-1.5916,3.9834-.3009c.478,.773,.19171,1.8501,.6884,2.611,.8606,1.3189,2.9016,.5004,4.1687-.4348,1.2672-.9351,3.2859-1.782,4.1775-.484,.273,.3976,.33311,.8986,.491,1.3546,.5994,1.7298,2.4695,2.5915,3.9258,3.7009,1.4564,1.1095,2.6104,3.3159,1.3778,4.6697-.6081,.668-1.6774,.9385-1.9797,1.7897-.3776,1.0634,.7094,2.0167,1.5693,2.7481,1.4315,1.2178,1.69091,4.861-.2016,5.8573-.7944,.4183-1.9597,.5467-2.1546,1.4233-.1743,.7835,.6209,1.3935,1.1493,1.9976,1.4512,1.6597,.83681,4.6476-1.15119,5.6001-.45461,.2177-1.01291,.3963-1.18111,.8713-.1206,.3399,.011,.7104,.1085,1.0576,.1844,.6572,.2464,1.3485,.1821,2.028-.0219,.2325-.0697,.4844-.2467,.6366-.16079,.1379-.3883,.1594-.6,.1688-2.7331,.1219-4.0515-.8455-5.7196,1.5328-.1603,.2284-.32819,.464-.5693,.6044-.2258,.1315-.4938,.1664-.7542,.188-1.8788,.1547-3.1069-1.0179-4.82369-1.2366-2.38231-.3037-2.887,.9247-4.98551,1.9113-3.3017,1.5522-4.9019,.5958-5.5219-1.6534Z" style="fill:#ebebeb;"></path><path d="M371.87589,173.7497c-.1578-.5728-.2522-1.2294-.2951-1.9524-.2405-4.0495-4.1063-3.4079-7.3954-3.9573-2.5693-.4293,4.2342-6.9201-.9466-9.0141-.9622-.3888-2.0079-.8286-2.4999-1.7424-.6505-1.2086,.0077-2.7995,1.1283-3.592,1.1207-.7927,2.5609-.9605,3.9333-.9863,.8449-1.0273,.1579-2.5734-.66-3.6225-.8178-1.0492-1.8193-2.2427-1.5094-3.5364,.468-1.9533,3.19791-2.0235,5.1702-1.6439,.7288-1.1801,.7145-2.6559,1.0681-3.9973,.35361-1.3413,1.4202-2.749,2.7972-2.5812,1.2972,.1581,2.0898,1.6227,3.3617,1.9223,1.4771,.3482,2.7561-.9581,3.9149-1.9381,1.15881-.98,3.1854-1.5916,3.9835-.3008,.4778,.7727,.1916,1.85,.6882,2.6109,.8608,1.3189,2.9018,.5003,4.1689-.4348,1.2671-.9352,3.2857-1.7821,4.1773-.484,.2731,.3977,.3332,.8987,.4911,1.3544,.5995,1.73,2.4695,2.5916,3.9259,3.7011,1.4563,1.1095,2.6103,3.316,1.3778,4.6696-.6082,.6679-1.6775,.9386-1.9797,1.7898-.3777,1.0634,.7093,2.0168,1.5693,2.7482,1.4314,1.2176,1.6908,4.8609-.2016,5.8572-.7945,.4183-1.9597,.5467-2.1547,1.4232-.17419,.7836,.6209,1.3934,1.1493,1.9978,1.4512,1.6595,.8369,4.6475-1.1513,5.5999-.4545,.2178-1.0127,.3963-1.181,.8713-.1205,.34,.0109,.7104,.1085,1.0577,.1845,.6572,.2466,1.3485,.1821,2.0281-.022,.2324-.0696,.4843-.24679,.6364-.16071,.138-.38821,.1595-.59981,.169-2.73319,.1219-4.0515-.8456-5.7198,1.5326-.1602,.2285-.3281,.4641-.5692,.6046-.2258,.1314-.4937,.1664-.7541,.1878-1.8789,.155-3.107-1.0178-4.8237-1.2366-2.3825-.3034-2.8871,.9249-4.9856,1.9114-3.3017,1.5522-4.9019,.5958-5.5219-1.6532Z" style="fill:#ebebeb;"></path><path d="M374.90929,153.7042c-.158-.5727-.25229-1.2293-.2951-1.9523-.2406-4.0495-4.1064-3.4078-7.3954-3.9572-2.5694-.4294,4.2341-6.9201-.9466-9.0141-.9623-.389-2.0081-.8286-2.4999-1.7426-.6507-1.2085,.00771-2.7994,1.1283-3.5919,1.1208-.7925,2.5609-.9607,3.9333-.9863,.845-1.0275,.1577-2.5733-.66-3.6226-.81789-1.0491-1.8193-2.2426-1.5095-3.5362,.468-1.9534,3.1978-2.0236,5.1703-1.644,.7288-1.1801,.7145-2.6559,1.068-3.9972,.3537-1.3413,1.42031-2.7491,2.79731-2.5812,1.29709,.1581,2.08969,1.6225,3.36169,1.9223,1.477,.3481,2.7561-.9582,3.9149-1.9383,1.1588-.98,3.1853-1.5915,3.98341-.3007,.47789,.7729,.19179,1.85,.68829,2.6109,.86071,1.3189,2.9016,.5003,4.1688-.4348,1.2672-.9352,3.2858-1.7821,4.1774-.484,.2731,.3976,.3331,.8987,.491,1.3545,.5996,1.7299,2.46951,2.5916,3.926,3.701,1.4563,1.1094,2.6102,3.3158,1.3777,4.6696-.6081,.668-1.6775,.9386-1.9797,1.7898-.3776,1.0634,.7094,2.0167,1.5692,2.7481,1.4315,1.2177,1.6911,4.861-.2014,5.8573-.7947,.4184-1.9598,.5466-2.1548,1.4232-.1743,.7836,.621,1.3935,1.1494,1.9978,1.4512,1.6596,.8368,4.6475-1.1514,5.6-.45449,.2177-1.0127,.3962-1.181,.8713-.12049,.3399,.011,.7104,.10851,1.0576,.18449,.6571,.24659,1.3484,.18219,2.0281-.0221,.2324-.0698,.4843-.2468,.6365-.1607,.1379-.3882,.1594-.6,.1688-2.733,.1219-4.0513-.8455-5.7196,1.5327-.1602,.2285-.3281,.464-.5693,.6045-.2257,.1316-.4937,.1664-.7542,.1879-1.8788,.1549-3.1068-1.0179-4.8236-1.2365-2.3824-.3036-2.8871,.9247-4.9855,1.9113-3.3017,1.5521-4.9019,.5957-5.5219-1.6533Z" style="fill:#ebebeb;"></path><path d="M395.64379,163.6886c-.15779-.5727-.2522-1.2293-.295-1.9523-.2406-4.0496-4.1064-3.4078-7.3954-3.9572-2.5693-.4293,4.2342-6.9202-.9467-9.0142-.9622-.3889-2.0079-.8285-2.4998-1.7424-.6507-1.2087,.0075-2.7995,1.1283-3.5922,1.1206-.7924,2.5609-.9604,3.9332-.9861,.845-1.0273,.1578-2.5733-.66-3.6225s-1.8192-2.2427-1.50939-3.5364c.46809-1.9534,3.19769-2.0234,5.17019-1.6439,.72881-1.1802,.7146-2.6561,1.0681-3.9973,.3536-1.3412,1.4205-2.749,2.7972-2.5812,1.2972,.1581,2.0899,1.6226,3.3617,1.9223,1.4772,.3482,2.7562-.9581,3.915-1.9381,1.15881-.98,3.1853-1.5917,3.9834-.3008,.4779,.7728,.1917,1.85,.68841,2.6108,.86059,1.319,2.90159,.5004,4.16869-.4346,1.2672-.9353,3.2858-1.7823,4.1774-.4841,.2731,.3976,.3331,.8987,.491,1.3545,.5995,1.7298,2.4696,2.5916,3.9258,3.701,1.4565,1.1095,2.6104,3.3158,1.3779,4.6697-.6081,.6679-1.6774,.9385-1.97979,1.7897-.37761,1.0635,.70949,2.0168,1.56929,2.7481,1.4316,1.2177,1.6911,4.861-.2015,5.8573-.7945,.4183-1.95979,.5468-2.1546,1.4232-.1743,.7837,.6209,1.3934,1.1493,1.9978,1.4511,1.6595,.8368,4.6475-1.1514,5.5999-.4544,.2178-1.0127,.3964-1.1809,.8713-.1206,.34,.011,.7104,.1085,1.0577,.1845,.6571,.2465,1.3485,.1821,2.0279-.0221,.2325-.0697,.4844-.24679,.6366-.16061,.1381-.38841,.1595-.59991,.169-2.73309,.1217-4.0515-.8456-5.7197,1.5326-.1603,.2285-.3282,.4641-.5692,.6045-.2258,.1316-.4937,.1664-.75419,.1879-1.87891,.1549-3.10691-1.0178-4.82361-1.2365-2.3825-.3036-2.8871,.9247-4.9857,1.9113-3.3016,1.5522-4.9019,.5958-5.5219-1.6533Z" style="fill:#ebebeb;"></path><path d="M416.59959,159.0771c-.1579-.5729-.2522-1.2295-.295-1.9523-.24059-4.0496-4.10659-3.4079-7.3955-3.9573-2.5693-.4293,4.2342-6.9201-.9465-9.0141-.9624-.3889-2.0081-.8286-2.5-1.7426-.65059-1.2085,.0077-2.7995,1.1283-3.5919,1.1207-.7926,2.5609-.9606,3.9333-.9863,.8451-1.0273,.15781-2.5733-.66-3.6225-.8178-1.0492-1.8193-2.2427-1.5094-3.5364,.468-1.9534,3.1978-2.0235,5.17021-1.6439,.72879-1.1801,.71449-2.6559,1.06819-3.9972,.3535-1.3413,1.4202-2.7491,2.797-2.5812,1.2973,.158,2.08981,1.6226,3.3617,1.9222,1.4772,.3482,2.7562-.9581,3.915-1.9382,1.1587-.98,3.1854-1.5915,3.9834-.3007,.4779,.7729,.19171,1.8499,.6884,2.6109,.8606,1.3188,2.9016,.5004,4.1687-.4347,1.2672-.9352,3.2858-1.7822,4.1775-.484,.27311,.3976,.33311,.8986,.491,1.3545,.5994,1.7298,2.4695,2.5915,3.9259,3.701,1.4564,1.1093,2.6103,3.3158,1.3777,4.6695-.608,.668-1.67749,.9386-1.9797,1.7897-.3776,1.0635,.7094,2.0168,1.5694,2.7482,1.4314,1.2177,1.6909,4.8611-.2017,5.8572-.79449,.4184-1.9597,.5467-2.1546,1.4233-.1743,.7837,.6209,1.3935,1.1494,1.9977,1.4511,1.6597,.8368,4.6477-1.15129,5.6-.45451,.2178-1.01291,.3963-1.18111,.8713-.1205,.3401,.011,.7105,.1085,1.0576,.1844,.6573,.2465,1.3486,.1821,2.0282-.022,.2324-.0697,.4844-.2467,.6365-.1607,.1379-.3883,.1594-.6,.1689-2.7331,.1219-4.0515-.8456-5.7196,1.5326-.1603,.2285-.32819,.4641-.5693,.6045-.2258,.1315-.4937,.1665-.7542,.1879-1.8789,.155-3.1069-1.0177-4.8236-1.2365-2.3824-.3035-2.88709,.9247-4.9857,1.9114-3.3016,1.5522-4.9018,.5957-5.5218-1.6533Z" style="fill:#ebebeb;"></path><path d="M416.873,181.4933c-.12421-.4511-.19861-.9681-.23231-1.5372-.1895-3.1887-3.2335-2.6834-5.8232-3.116-2.023-.338,3.334-5.4489-.7453-7.0977-.7577-.3063-1.58119-.6524-1.9685-1.372-.5123-.9517,.0061-2.2044,.8885-2.8284,.8824-.6241,2.0164-.7564,3.097-.7767,.6654-.8088,.1243-2.0262-.5197-2.8523-.6438-.8261-1.43249-1.7659-1.18849-2.7845,.36859-1.5381,2.518-1.5933,4.07109-1.2944,.57391-.9293,.5625-2.0913,.841-3.1475,.2784-1.056,1.1184-2.1645,2.2025-2.0324,1.02141,.1245,1.6455,1.2777,2.6469,1.5137,1.1632,.274,2.1702-.7545,3.0828-1.5261,.9123-.7717,2.5081-1.2533,3.1365-.2369,.37621,.6085,.1509,1.4567,.542,2.0558,.6776,1.0385,2.2847,.3939,3.2824-.3424,.99781-.7363,2.5873-1.4032,3.2894-.381,.215,.313,.2622,.7076,.3866,1.0664,.472,1.3621,1.9444,2.0406,3.0912,2.9142,1.1467,.8736,2.0553,2.6109,1.0849,3.677-.4788,.5259-1.3209,.7389-1.5589,1.4091-.29739,.8375,.5587,1.588,1.23561,2.1639,1.12729,.9589,1.33159,3.8275-.15861,4.6121-.6255,.3293-1.5431,.4304-1.6966,1.1205-.1372,.6171,.4889,1.0973,.905,1.5731,1.1425,1.3068,.6589,3.6595-.9066,4.4094-.3578,.1715-.7975,.312-.93,.686-.0948,.2677,.00881,.5595,.0856,.8329,.14521,.5175,.1941,1.0619,.1435,1.5968-.0175,.1831-.055,.3814-.1945,.5013-.1265,.1086-.3056,.1257-.4724,.133-2.152,.0959-3.19-.6658-4.5035,1.2068-.1264,.1798-.2585,.3653-.4483,.476-.1779,.1035-.3888,.1309-.5938,.148-1.4794,.122-2.4464-.8015-3.7982-.9737-1.8758-.239-2.2734,.7281-3.92559,1.505-2.59981,1.2221-3.85991,.4691-4.348-1.3018Z" style="fill:#ebebeb;"></path><path d="M428.615,173.7497c-.15791-.5728-.25231-1.2294-.295-1.9524-.24061-4.0495-4.10651-3.4079-7.39551-3.9573-2.5693-.4293,4.2342-6.9201-.9466-9.0141-.9622-.3888-2.008-.8286-2.49989-1.7424-.65061-1.2086,.00749-2.7995,1.12829-3.592,1.1206-.7927,2.5608-.9605,3.9331-.9863,.8451-1.0273,.158-2.5734-.6598-3.6225-.8179-1.0492-1.8194-2.2427-1.5093-3.5364,.468-1.9533,3.19771-2.0235,5.17-1.6439,.7289-1.1801,.71471-2.6559,1.0681-3.9973,.3537-1.3413,1.4204-2.749,2.7973-2.5812,1.2971,.1581,2.0897,1.6227,3.3616,1.9223,1.4773,.3482,2.7562-.9581,3.9149-1.9381,1.15881-.98,3.1854-1.5916,3.9835-.3008,.4779,.7727,.1917,1.85,.6884,2.6109,.8607,1.3189,2.9016,.5003,4.1688-.4348,1.26711-.9352,3.2857-1.7821,4.1774-.484,.2731,.3977,.3331,.8987,.4911,1.3544,.5994,1.73,2.4694,2.5916,3.9258,3.7011,1.4563,1.1095,2.6102,3.316,1.3777,4.6696-.6081,.6679-1.6775,.9386-1.9797,1.7898-.3776,1.0634,.7096,2.0168,1.5694,2.7482,1.43141,1.2176,1.6909,4.8609-.20159,5.8572-.79451,.4183-1.95981,.5467-2.15471,1.4232-.17429,.7836,.6209,1.3934,1.1493,1.9978,1.4512,1.6595,.8368,4.6475-1.1513,5.5999-.4545,.2178-1.0128,.3963-1.181,.8713-.1205,.34,.011,.7104,.1084,1.0577,.1845,.6572,.2467,1.3485,.18231,2.0281-.02211,.2324-.06971,.4843-.24691,.6364-.1606,.138-.3882,.1595-.5998,.169-2.7332,.1219-4.0516-.8456-5.7199,1.5326-.1602,.2285-.3281,.4641-.5691,.6046-.2258,.1314-.4937,.1664-.7542,.1878-1.8788,.155-3.1068-1.0178-4.8235-1.2366-2.3824-.3034-2.8872,.9249-4.9858,1.9114-3.3017,1.5522-4.90179,.5958-5.52179-1.6532Z" style="fill:#ebebeb;"></path><path d="M395.64379,139.0316c-.15779-.5729-.2522-1.2294-.295-1.9523-.2406-4.0495-4.1064-3.4077-7.3954-3.9573-2.5693-.4293,4.2342-6.9201-.9467-9.014-.9622-.389-2.0079-.8287-2.4998-1.7425-.6507-1.2086,.0075-2.7994,1.1283-3.592,1.1206-.7927,2.5609-.9606,3.9332-.9862,.845-1.0275,.1578-2.5734-.66-3.6226s-1.8192-2.2428-1.50939-3.5365c.46809-1.9532,3.19769-2.0233,5.17019-1.6437,.72881-1.1802,.7146-2.656,1.0681-3.9972,.3536-1.3414,1.4205-2.7491,2.7972-2.5813,1.2972,.1581,2.0899,1.6225,3.3617,1.9223,1.4772,.3481,2.7562-.9582,3.915-1.9382,1.15881-.9801,3.1853-1.5916,3.9834-.3007,.4779,.7728,.1917,1.8499,.68841,2.6108,.86059,1.3188,2.90159,.5002,4.16869-.4348,1.2672-.935,3.2858-1.7821,4.1774-.484,.2731,.3976,.3331,.8988,.491,1.3544,.5995,1.7299,2.4696,2.5916,3.9258,3.7011,1.4565,1.1095,2.6104,3.3158,1.3779,4.6697-.6081,.6679-1.6774,.9385-1.97979,1.7897-.37761,1.0635,.70949,2.0168,1.56929,2.7482,1.4316,1.2177,1.6911,4.8609-.2015,5.8572-.7945,.4182-1.95979,.5467-2.1546,1.4231-.1743,.7837,.6209,1.3935,1.1493,1.9979,1.4511,1.6597,.8368,4.6475-1.1514,5.6-.4544,.2178-1.0127,.3962-1.1809,.8713-.1206,.34,.011,.7103,.1085,1.0575,.1845,.6572,.2465,1.3485,.1821,2.0281-.0221,.2325-.0697,.4844-.24679,.6366-.16061,.138-.38841,.1594-.59991,.1689-2.73309,.1218-4.0515-.8457-5.7197,1.5327-.1603,.2284-.3282,.4639-.5692,.6044-.2258,.1316-.4937,.1664-.75419,.1879-1.87891,.1549-3.10691-1.0178-4.82361-1.2365-2.3825-.3036-2.8871,.9248-4.9857,1.9113-3.3016,1.5522-4.9019,.5959-5.5219-1.6533Z" style="fill:#ebebeb;"></path><path d="M368.72289,140.4083c-.1578-.5728-.2521-1.2294-.29489-1.9523-.24061-4.0496-4.10651-3.4079-7.39541-3.9573-2.5693-.4293,4.2341-6.9201-.94659-9.0141-.96231-.3888-2.008-.8286-2.5-1.7425-.65051-1.2085,.00759-2.7995,1.12839-3.592,1.12061-.7926,2.5608-.9606,3.9331-.9863,.8451-1.0272,.158-2.5733-.6599-3.6225-.8178-1.0491-1.8194-2.2427-1.5093-3.5363,.468-1.9534,3.19771-2.0235,5.17-1.644,.729-1.18,.7146-2.6559,1.0682-3.9972s1.4203-2.7491,2.7972-2.5812c1.2972,.1581,2.0897,1.6227,3.3617,1.9223,1.4772,.3482,2.7561-.9581,3.9149-1.9381,1.15871-.98,3.1854-1.5916,3.9835-.3008,.4779,.7727,.1917,1.8499,.6883,2.6109,.8607,1.3188,2.9016,.5002,4.16891-.4349,1.267-.9351,3.28559-1.7821,4.17729-.484,.2731,.3978,.3331,.8988,.491,1.3545,.5995,1.7299,2.4696,2.5916,3.9258,3.7011,1.4564,1.1094,2.6104,3.3159,1.37791,4.6696-.60811,.6679-1.67761,.9385-1.97981,1.7897-.3776,1.0635,.7094,2.0168,1.5693,2.7482,1.4316,1.2177,1.691,4.861-.20149,5.8572-.79451,.4183-1.95981,.5467-2.15471,1.4232-.1742,.7837,.621,1.3935,1.1494,1.9978,1.451,1.6596,.8368,4.6476-1.1513,5.6-.4545,.2178-1.0129,.3963-1.1812,.8712-.1204,.3401,.0112,.7105,.1086,1.0577,.1845,.6573,.2465,1.3485,.1821,2.0281-.022,.2324-.0697,.4844-.2467,.6365-.1607,.138-.3883,.1595-.6,.169-2.7331,.1218-4.0515-.8457-5.7197,1.5326-.1603,.2285-.3281,.464-.5692,.6043-.2259,.1317-.4937,.1666-.7541,.188-1.8789,.155-3.1069-1.0178-4.8237-1.2365-2.3824-.3035-2.8871,.9249-4.9856,1.9114-3.3017,1.5522-4.90189,.5957-5.522-1.6533Z" style="fill:#ebebeb;"></path><path d="M352.37089,151.4252c-.1577-.5728-.2521-1.2292-.2948-1.9522-.2408-4.0496-4.1066-3.4079-7.3957-3.9574-2.5691-.4292,4.2343-6.9201-.9465-9.0141-.9621-.3888-2.00789-.8285-2.49989-1.7423-.65061-1.2088,.00769-2.7996,1.12839-3.5922,1.1207-.7925,2.5608-.9604,3.9332-.9861,.845-1.0275,.1579-2.5734-.66-3.6225-.8178-1.0492-1.8193-2.2428-1.5093-3.5365,.4679-1.9533,3.19771-2.0234,5.1701-1.6437,.7289-1.1802,.7145-2.6562,1.0682-3.9974,.3535-1.3413,1.4202-2.749,2.7971-2.5813,1.2972,.1581,2.0897,1.6226,3.3616,1.9224,1.4773,.3481,2.7562-.9583,3.915-1.9381,1.1588-.9801,3.1853-1.5917,3.9836-.3009,.4778,.7729,.1916,1.8499,.6882,2.611,.8607,1.3187,2.9017,.5002,4.16891-.4349,1.26709-.935,3.28569-1.7821,4.17719-.4839,.2732,.3975,.3333,.8987,.4911,1.3544,.5996,1.7299,2.4695,2.5916,3.9259,3.701,1.4563,1.1095,2.6102,3.3159,1.3779,4.6698-.60809,.6679-1.6777,.9385-1.9798,1.7897-.3777,1.0634,.7094,2.0167,1.5692,2.7481,1.43151,1.2176,1.691,4.8609-.2014,5.8572-.7946,.4183-1.9598,.5467-2.1548,1.4233-.1742,.7835,.621,1.3934,1.1494,1.9977,1.4511,1.6596,.8369,4.6475-1.1513,5.6-.4546,.2178-1.0129,.3962-1.1812,.8713-.1204,.3399,.0111,.7103,.1086,1.0576,.1844,.6572,.2465,1.3485,.18221,2.028-.02211,.2324-.06971,.4844-.24691,.6366-.1606,.138-.3883,.1594-.5998,.1689-2.7331,.1218-4.0515-.8456-5.7198,1.5326-.1602,.2284-.328,.4641-.5692,.6046-.2258,.1315-.4937,.1664-.7541,.1879-1.8789,.1549-3.1069-1.0179-4.8237-1.2367-2.3823-.3035-2.887,.9248-4.9857,1.9115-3.3016,1.5521-4.90179,.5958-5.5219-1.6534Z" style="fill:#ebebeb;"></path><path d="M357.32859,165.3497s6.8386,9.6683,9.1968,12.734c2.3579,3.0655,14.1485,22.1662,15.7533,34.7998,.17131,1.3482,.34,2.5088,.5047,3.5236-5.0717,33.4747-4.2756,94.7187-4.097,105.2042h16.0669c.1479-11.8231,1.5132-119.9017,2.0168-123.202,.5325-3.4913,7.2491-16.7885,17.625-22.2518,10.3756-5.4633,19.3418-23.5416,19.3418-23.5416h-3.3067s-6.1309,11.0831-14.8561,17.2143c-1.26709,.8905-2.5792,1.6314-3.9255,2.3272,.3127-9.9875-3.47-19.5415-3.47-19.5415l-1.7849,1.6507c2.4105,9.871,2.0934,16.1934,1.3638,19.8252-2.9284,1.4673-5.9663,3.1661-9.0217,6.0376-9.0504-11.7687-14.1396-38.6834-14.1396-38.6834l-2.3175,1.2659s.75331,7.3101,2.9924,16.5068c1.6958,6.966,6.686,20.0817,9.008,26.0371-2.3076,3.205-4.5998,7.3484-6.8365,12.8331-.2535-.3902-.5397-.745-.8733-1.0466-5.8954-5.33-16.9786-30.5135-16.9786-30.5135-2.6805-5.8546,1.4151-21.2229,1.4151-21.2229h-3.094l-1.3864,13.4411-7.782-8.4892-1.4148,1.1791,8.25341,10.6116,4.24449,13.4444-11.0831-12.2654-1.4148,2.1222Z" style="fill:#e6e6e6;"></path></g></g><g id="freepik--Shadow--inject-259"><ellipse cx="252.944" cy="427.68943" rx="199.4087" ry="15.84525" style="fill:#f5f5f5;"></ellipse></g><g id="freepik--Fence--inject-259"><g><g><rect x="32.3468" y="232.505" width="6.342" height="13.2943" style="fill:#263238;"></rect><rect x="32.3468" y="232.505" width="6.342" height="13.2943" style="fill:#fff; opacity:.4;"></rect><rect x="241.26979" y="232.505" width="6.3419" height="13.2943" style="fill:#263238;"></rect><rect x="241.26979" y="232.505" width="6.3419" height="13.2943" style="fill:#fff; opacity:.4;"></rect><rect x="459.48279" y="232.505" width="6.342" height="13.2943" style="fill:#263238;"></rect><rect x="459.48279" y="232.505" width="6.342" height="13.2943" style="fill:#fff; opacity:.4;"></rect><rect x="17.7397" y="225.0015" width="464.22289" height="7.5035" style="fill:#263238;"></rect><rect x="17.7397" y="225.0015" width="464.22289" height="7.5035" style="fill:#fff; opacity:.4;"></rect><rect x="459.48279" y="232.505" width="6.342" height="2.9688" style="opacity:.3;"></rect><rect x="241.26979" y="232.505" width="6.3419" height="2.9688" style="opacity:.3;"></rect><rect x="32.3468" y="232.505" width="6.342" height="2.9688" style="opacity:.3;"></rect><rect x="121.551" y="232.505" width="6.3419" height="13.2943" style="fill:#263238;"></rect><rect x="121.551" y="232.505" width="6.3419" height="13.2943" style="fill:#fff; opacity:.4;"></rect><rect x="121.551" y="232.505" width="6.3419" height="2.9688" style="opacity:.3;"></rect><rect x="361.55809" y="232.505" width="6.342" height="13.2943" style="fill:#263238;"></rect><rect x="361.55809" y="232.505" width="6.342" height="13.2943" style="fill:#fff; opacity:.4;"></rect><rect x="361.55809" y="232.505" width="6.342" height="2.9688" style="opacity:.3;"></rect></g><g><rect x="18.0693" y="241.9742" width="464.43549" height="84.7975" style="fill:#FFC100;"></rect><rect x="18.0693" y="241.9742" width="464.43549" height="84.7975" style="fill:#fff; opacity:.4;"></rect><polygon points="165.4233 241.5115 67.7879 326.7717 18.0693 326.7717 18.0693 241.5115 165.4233 241.5115" style="fill:#fff; opacity:.2;"></polygon><polygon points="100.2319 326.7717 195.6733 241.9742 223.938 241.9742 130.9671 326.7717 100.2319 326.7717" style="fill:#fff; opacity:.4;"></polygon><polygon points="320.76589 326.7717 416.20729 241.9742 444.472 241.9742 351.50119 326.7717 320.76589 326.7717" style="fill:#fff; opacity:.4;"></polygon><polygon points="179.4109 326.7717 274.85229 241.9742 362.40079 241.9742 275.59529 326.7717 179.4109 326.7717" style="fill:#fff; opacity:.2;"></polygon><polygon points="382.61889 326.7717 467.54129 241.9742 482.29219 241.9742 482.29219 326.7717 382.61889 326.7717" style="fill:#fff; opacity:.2;"></polygon></g></g></g><g id="freepik--Sun--inject-259"><g><path d="M335.93617,91.98795c0,2.8198-4.07813,5.05956-4.77412,7.65634s1.66864,6.66589,.31227,9.01295c-1.35625,2.34682-6.03221,2.3022-7.96861,4.22969-1.93652,1.9275-1.84726,6.59444-4.22993,7.96873-2.38254,1.37417-6.32668-1.0263-9.01271-.31239-2.68603,.71403-4.84545,4.77412-7.65634,4.77412s-5.05968-4.07801-7.65647-4.77412c-2.59678-.69599-6.65699,1.67766-9.01283,.31239s-2.29341-6.03233-4.22981-7.96873c-1.93628-1.9364-6.58553-1.83824-7.96861-4.22969-1.38319-2.39145,1.02606-6.35374,.31227-9.03075-.71391-2.67713-4.77412-4.83655-4.77412-7.65646s4.07789-5.05066,4.77412-7.64744c.69599-2.59678-1.66876-6.66589-.31227-9.01283,1.35625-2.34682,6.03221-2.3022,7.96861-4.2386,1.9364-1.93652,1.84727-6.58566,4.22981-7.96885,2.38255-1.38307,6.3268,1.03508,9.01283,.31227,2.68592-.72269,4.84545-4.76521,7.65634-4.76521s5.05968,4.07825,7.65646,4.76521c2.59666,.68732,6.65699-1.66864,9.01271-.31227,2.35596,1.35637,2.29341,6.03233,4.22981,7.96885,1.9364,1.9364,6.58554,1.84715,7.96873,4.2386,1.38319,2.39157-1.0263,6.3268-.31227,9.01283,.71379,2.68592,4.77412,4.85447,4.77412,7.66536Z" style="fill:#FFC100;"></path><path d="M335.93617,91.98795c0,2.8198-4.07813,5.05956-4.77412,7.65634s1.66864,6.66589,.31227,9.01295c-1.35625,2.34682-6.03221,2.3022-7.96861,4.22969-1.93652,1.9275-1.84726,6.59444-4.22993,7.96873-2.38254,1.37417-6.32668-1.0263-9.01271-.31239-2.68603,.71403-4.84545,4.77412-7.65634,4.77412s-5.05968-4.07801-7.65647-4.77412c-2.59678-.69599-6.65699,1.67766-9.01283,.31239s-2.29341-6.03233-4.22981-7.96873c-1.93628-1.9364-6.58553-1.83824-7.96861-4.22969-1.38319-2.39145,1.02606-6.35374,.31227-9.03075-.71391-2.67713-4.77412-4.83655-4.77412-7.65646s4.07789-5.05066,4.77412-7.64744c.69599-2.59678-1.66876-6.66589-.31227-9.01283,1.35625-2.34682,6.03221-2.3022,7.96861-4.2386,1.9364-1.93652,1.84727-6.58566,4.22981-7.96885,2.38255-1.38307,6.3268,1.03508,9.01283,.31227,2.68592-.72269,4.84545-4.76521,7.65634-4.76521s5.05968,4.07825,7.65646,4.76521c2.59666,.68732,6.65699-1.66864,9.01271-.31227,2.35596,1.35637,2.29341,6.03233,4.22981,7.96885,1.9364,1.9364,6.58554,1.84715,7.96873,4.2386,1.38319,2.39157-1.0263,6.3268-.31227,9.01283,.71379,2.68592,4.77412,4.85447,4.77412,7.66536Z" style="fill:#fff; opacity:.5;"></path><path d="M293.49076,69.97994c12.15249-5.03369,26.08459,.73705,31.1184,12.88966,5.03368,12.15249-.73718,26.08471-12.88967,31.1184-12.15249,5.03381-26.08471-.73717-31.11828-12.88966-5.03381-12.15249,.73705-26.08459,12.88954-31.1184Z" style="fill:#FFC100;"></path><path d="M293.49076,69.97994c12.15249-5.03369,26.08459,.73705,31.1184,12.88966,5.03368,12.15249-.73718,26.08471-12.88967,31.1184-12.15249,5.03381-26.08471-.73717-31.11828-12.88966-5.03381-12.15249,.73705-26.08459,12.88954-31.1184Z" style="fill:#fff; opacity:.7;"></path></g></g><g id="freepik--Plants--inject-259"><g><path d="M455.84831,338.30503c-.5937-.9977-1.9165-2.2239-2.8437-2.9224-.9271-.6986-2.1984-1.0468-3.2727-.6069-1.3713,.5615-2.0035,2.2436-1.8123,3.7129,.1915,1.4694,.8922,3.3266,1.7279,4.5503,3.5664,5.222,6.8676,10.0013,12.3722,13.8868,0-6.4859-2.8793-13.0889-6.1714-18.6207Z" style="fill:#FFC100;"></path><path d="M474.00702,339.20403c-1.23151-.6746-3.52211,.2816-4.64591,1.1235-2.22809,1.6694-3.5852,3.4179-4.94309,5.8485-1.72441,3.0859-1.92451,7.4198-2.14331,10.1718,4.359-3.5384,8.799-7.1669,11.7838-11.9222,.5209-.8298,1.00451-1.7213,1.0981-2.6965,.0935-.9751-.2905-2.0544-1.14959-2.5251Z" style="fill:#FFC100;"></path><path d="M462.6709,359.67969c-.11523,0-.21875-.08008-.24414-.19727-1.0332-4.77344-2.8623-9.29883-5.4375-13.44824-.07227-.11719-.03613-.27148,.08105-.34473,.11621-.07324,.27148-.03613,.34473,.08105,2.60449,4.19824,4.45508,8.77637,5.5,13.60645,.0293,.13477-.05664,.26758-.19141,.29688-.01758,.00391-.03516,.00586-.05273,.00586Z" style="fill:#263238;"></path><path d="M462.09668,357.01758c-.02832,0-.05664-.00488-.08496-.01465-.12988-.04688-.19727-.19043-.15039-.32031,1.16797-3.22266,2.87402-6.19336,5.07129-8.82812,.08984-.10645,.24707-.12012,.35254-.03223,.10645,.08887,.12012,.24609,.03223,.35254-2.16016,2.58984-3.83789,5.50977-4.98535,8.67773-.03711,.10156-.13281,.16504-.23535,.16504Z" style="fill:#263238;"></path></g><g><path d="M41.38998,311.69472c-.5937-.9977-1.9165-2.2239-2.8437-2.9224-.9271-.6986-2.1984-1.0468-3.2727-.6069-1.3713,.5615-2.0035,2.2436-1.8123,3.7129,.1915,1.4694,.8922,3.3266,1.7279,4.5503,3.5664,5.222,6.8676,10.0013,12.3722,13.8868,0-6.4859-2.8793-13.0889-6.1714-18.6207Z" style="fill:#FFC100;"></path><path d="M59.54868,312.59372c-1.2315-.6746-3.5221,.2816-4.6459,1.1235-2.2281,1.6694-3.5852,3.4179-4.9431,5.8485-1.7244,3.0859-1.9245,7.4198-2.1433,10.1718,4.359-3.5384,8.799-7.1669,11.7838-11.9222,.5209-.8298,1.0045-1.7213,1.0981-2.6965,.0935-.9751-.2905-2.0544-1.1496-2.5251Z" style="fill:#FFC100;"></path><path d="M48.21289,333.06934c-.11523,0-.21875-.08008-.24414-.19727-1.03369-4.77441-2.86279-9.29883-5.43701-13.44727-.07275-.11719-.03662-.27148,.08057-.34473,.11768-.07129,.271-.03613,.34424,.08105,2.60449,4.19727,4.45508,8.77441,5.50049,13.60547,.0293,.13477-.05615,.26758-.19141,.29688-.01758,.00391-.03564,.00586-.05273,.00586Z" style="fill:#263238;"></path><path d="M47.63867,330.40723c-.02832,0-.05713-.00488-.08496-.01465-.12988-.04688-.19727-.19043-.1499-.32031,1.16797-3.22266,2.87402-6.19336,5.07129-8.82812,.08936-.10645,.24658-.11914,.35205-.03223,.10596,.08887,.12012,.24609,.03174,.35254-2.15967,2.58984-3.83691,5.50977-4.98535,8.67773-.03662,.10156-.13281,.16504-.23486,.16504Z" style="fill:#263238;"></path></g></g><g id="freepik--Character--inject-259"><g><g><ellipse cx="123.81105" cy="377.69348" rx="47.50585" ry="45.19692" transform="translate(-269.65538 321.42882) rotate(-63.71245)" style="fill:#263238;"></ellipse><ellipse cx="123.7981" cy="377.68708" rx="41.47383" ry="39.45807" transform="translate(-269.6572 321.41603) rotate(-63.7128)" style="opacity:.5;"></ellipse><path d="M129.7689,381.14438c-2.4728,4.2829-7.6677,5.9129-11.6033,3.6407-3.9355-2.2722-5.1214-7.5861-2.6486-11.869,2.4727-4.2829,7.6676-5.9129,11.6032-3.6407,3.9355,2.2721,5.1214,7.5861,2.6487,11.869Z" style="fill:#263238;"></path></g><path d="M263.18939,323.80088s11.195-1.7818,14.183-.7486c2.988,1.0331,39.8908,23.3816,40.4091,23.6565,4.672,2.4788,17.3436,9.7323,36.0352,17.9721,18.85831,8.3132,25.8589,9.2033,25.8589,9.2033,0,0,.8707,7.5442,.8707,7.4019,0,0-60.48829-4.8396-60.9151-4.9819-.4269-.1423-8.1103-14.2286-16.3628-21.0583-8.2526-6.8297-41.6748-17.5778-41.5308-18.5375,.1439-.9598,1.4518-12.9075,1.4518-12.9075Z" style="fill:#263238;"></path><g><path d="M390.03709,311.44628c-30.8323,0-55.8268,26.0219-55.8268,58.1215s24.9945,58.1216,55.8268,58.1216,55.8268-26.0219,55.8268-58.1216-24.9944-58.1215-55.8268-58.1215Zm0,111.0037c-28.0529,0-50.7943-23.6762-50.7943-52.8822s22.7414-52.8821,50.7943-52.8821,50.7943,23.6761,50.7943,52.8821-22.74139,52.8822-50.7943,52.8822Z" style="fill:#263238;"></path><path d="M390.03709,311.44628c-30.8323,0-55.8268,26.0219-55.8268,58.1215s24.9945,58.1216,55.8268,58.1216,55.8268-26.0219,55.8268-58.1216-24.9944-58.1215-55.8268-58.1215Zm0,113.5865c-29.4066,0-53.2453-24.8186-53.2453-55.4339s23.8387-55.4339,53.2453-55.4339,53.2453,24.8186,53.2453,55.4339-23.8387,55.4339-53.2453,55.4339Z" style="opacity:.5;"></path></g><g><circle cx="390.35939" cy="368.29158" r="16.2835" style="fill:#263238;"></circle><g style="opacity:.4;"><circle cx="390.35939" cy="368.29158" r="16.2835" style="fill:#fff;"></circle></g><circle cx="390.35939" cy="368.79978" r="7.1367" style="fill:#263238;"></circle></g><path d="M268.15389,323.16208s1.57211,9.2226-2.839,15.1672l-3.4223-1.2136s3.2741-13.4249,3.2668-13.5796c-.0073-.1548,2.9945-.374,2.9945-.374Z" style="opacity:.3;"></path><path d="M251.71969,303.53018c-.8132,.1355-28.0126-4.0552-28.8561,26.3103,0,0-.241,17.0344,20.9185,22.8781l2.45691-7.1766,2.61649-36.7133,2.8642-5.2985Z" style="fill:#263238;"></path><path d="M136.7506,388.62418s39.0834,19.8588,77.3169,21.1772c38.2336,1.3184,82.00451-2.6368,93.3427-7.9104,11.3382-5.2736,16.61181-20.3033,16.61181-20.3033l-36.38781-23.4675-6.0646,4.7462s27.68641,21.3581,23.4675,25.0496c-4.2189,3.6915-6.8557,5.5373-6.8557,5.5373,0,0-8.70139-1.8458-29.0048-2.3732-20.3033-.5273-75.9499,3.228-77.00459,3.228s-53.0883-14.4329-53.0883-14.4329l-2.3331,8.749Z" style="fill:#263238;"></path><g><g><g><g><g><path d="M152.7057,365.32228s-1.8734-8.2835-11.7797-16.3857c.7197-1.5146-2.8302-2.6583-3.5809-3.6672l19.7407-.9775c1.9043,3.4611,7.3739,8.9165,9.8859,11.0811l-1.1769,8.1719-13.0891,1.7774Z" style="fill:#fdad6a;"></path><path d="M160.4579,348.67978l-9.2068,3.6916c2.4299,1.9805,6.6462,3.4077,12.3574-.1717,0,0-2.4631-2.3929-3.1506-3.5199Z" style="opacity:.2;"></path></g><g><path d="M150.8417,312.36058c3.836,2.0813,8.4573,10.5955,2.3437,12.6405-6.1132,2.045-8.9372-16.2179-2.3437-12.6405Z" style="fill:#263238;"></path><path d="M132.6055,338.61608c6.9794,8.1359,10.7516,12.8654,18.3526,13.9388,30.2583,.4607,10.0372-43.2007-11.1707-37.9202-10.7156,2.9704-14.1611,15.8453-7.1819,23.9814Z" style="fill:#fdad6a;"></path><path d="M120.7531,332.23848s7.5567-6.0827,8.8828-7.0159c1.3258-.9332,5.6871,3.1633,6.4509,4.8886,.7636,1.7254-.9896,3.7298-.0198,5.2223,.85,1.2656,5.3198,3.7735,5.5915,6.0017-.4692,1.2377-7.1219,1.237-7.1219,1.237l-2.2442,2.7652s-14.823-6.1155-11.5393-13.0989Z" style="fill:#263238;"></path><path d="M134.6169,348.27798c4.4523,3.813,14.3153,1.4489,8.997-5.0401-4.753-6.5698-16.0869-2.1149-8.997,5.0401Z" style="fill:#fdad6a;"></path><path d="M146.7983,331.74308c1.5447,2.0741,3.6233,.4391,2.0543-1.5866-1.5445-2.0741-3.6224-.439-2.0543,1.5866Z" style="fill:#263238;"></path><path d="M155.3692,325.53538c1.5444,2.0741,3.623,.4394,2.0544-1.5864-1.5447-2.0743-3.6227-.4389-2.0544,1.5864Z" style="fill:#263238;"></path><path d="M152.2224,327.15558s6.0462,2.2476,8.2687,3.344c-.3847,2.0172-2.8612,3.0947-2.8612,3.0947l-5.4075-6.4387Z" style="fill:#fe7f3a;"></path><path d="M141.4346,329.33928c.1726-.0458,.317-.1814,.3665-.3679,.5915-2.2173,2.3738-2.8397,2.3917-2.8458,1.4172-2.0026-2.6557-.734-3.3779,2.5878-.1097,.369,.255,.733,.6197,.6259Z" style="fill:#263238;"></path></g><path d="M134.78125,344.69434l-.02148-.00098c-.1377-.01172-.23975-.13281-.22803-.27051,.08984-1.05469,.65381-1.79297,1.5874-2.07812,1.4458-.4375,3.67627,.29883,4.68604,1.55078,.08643,.10742,.06982,.26562-.03809,.35156-.10596,.08594-.26416,.06934-.35156-.03711-.8833-1.0957-2.8999-1.77441-4.1499-1.38672-.74658,.22754-1.16211,.78027-1.23584,1.64258-.01123,.12988-.12012,.22852-.24854,.22852Z" style="opacity:.2;"></path></g><path d="M156.3653,318.98808c.2643-.2911,.0747-.8091-.3216-.8481-2.8026-.3673-4.3278,1.4287-4.4065,1.5001-.4314,.4956,.3476,1.1821,.7749,.672,.0947-.5073,1.9718-1.1941,3.9532-1.324Z" style="fill:#263238;"></path></g><g><path d="M158.2542,337.46298c-.2221,1.5125-.3341,3.039-.3354,4.5678-.2637,.0434-.5327,.0944-.799,.1248-3.618,.5464-5.4799-.3878-6.434-1.6067-.4566-.604-.7646-1.3069-.8996-2.052-.086-.4179-.1134-.8458-.0817-1.2713,2.0929,.8571,5.4956,.6104,7.313,.3986,.7785-.1275,1.2367-.1612,1.2367-.1612Z" style="fill:#263238;"></path><path d="M157.0082,337.60728l-.1364,1.346c-3.4002,.5049-5.8589,.4136-7.0949-.4733-.0861-.418-.1136-.8459-.0818-1.2714,2.1082,.8675,5.4957,.6104,7.3131,.3987Z" style="fill:#fff;"></path><path d="M157.1708,342.15948c-3.618,.5462-5.48-.3879-6.434-1.6068,1.3783-.1827,2.7781-.1201,4.1347,.185,.8958,.2229,1.6996,.7201,2.2993,1.4218Z" style="fill:#fd504e;"></path></g></g><path d="M134.6862,349.53348c.3686-.2889,7.5275-8.1915,7.1427-9.6024s-5.9521-6.2513-7.0479-7.6331c-.7984-1.0066-.3338-3.5876,0-3.9907,.7785-.9401,9.3713-13.8606,17.7-12.8501l4.4585,4.8094s-.2063-2.6592-.6354-4.6211c-.3338-1.5258-6.1792-9.5275-16.4228-8.8768-5.8743,.3731-11.4341,2.8597-16.2951,8.4639-4.5175,5.2082-8.2864,12.3033-5.1158,19.8954,5.5147,13.2051,16.2158,14.4055,16.2158,14.4055Z" style="fill:#FFC100;"></path><path d="M134.6862,349.53348c.3686-.2889,7.5275-8.1915,7.1427-9.6024s-5.9521-6.2513-7.0479-7.6331c-.7984-1.0066-.3338-3.5876,0-3.9907,.7785-.9401,9.3713-13.8606,17.7-12.8501l4.4585,4.8094s-.2063-2.6592-.6354-4.6211c-.3338-1.5258-6.1792-9.5275-16.4228-8.8768-5.8743,.3731-11.4341,2.8597-16.2951,8.4639-4.5175,5.2082-8.2864,12.3033-5.1158,19.8954,5.5147,13.2051,16.2158,14.4055,16.2158,14.4055Z" style="opacity:.2;"></path><path d="M140.0068,343.28498l4.1565,4.0895-2.1422,2.4873,1.4831,1.3508,2.3033-1.6044s10.1502,5.3278,16.4753-.2086c0,0-7.8871,1.4585-13.5162-1.1275-3.9133-1.7979-7.4444-6.8907-7.4444-6.8907l-1.3154,1.9036Z" style="fill:#263238;"></path><path d="M117.5529,332.09308s10.9902-3.544,11.0506-3.4755c.0605,.0685,4.6562,8.1202,4.4798,8.9926s-6.7385,8.1266-6.7385,8.1266c0,0-4.3207-3.3825-6.4304-7.2128s-2.3615-6.4309-2.3615-6.4309Z" style="fill:#fff; opacity:.5;"></path></g><path d="M252.70249,362.73768c-.6667,.653-10.3332,29.2517-10.3332,29.2517,0,0-23.5711,4.7324-45.1095,3.3505-22.218-1.4254-37.4939-8.317-40.908-10.305-5.6648-3.2984-3.5774-20.1553-3.5774-20.1553l14.0496-9.3915-2.6164-2.6485s14.9895-3.3722,30.9893,.6091,11.6728,3.2346,22.006,4.2377,35.4996,5.0513,35.4996,5.0513Z" style="fill:#FFC100;"></path><path d="M179.4673,390.68598s8.3135,2.2427,21.153,.6345c12.8395-1.6082,17.3424-3.3235,22.9174-8.3625,5.575-5.0389,17.2345-22.0766,17.2345-22.0766l-3.0826-.5594-39.0249,25.1625-19.1974,5.2015Z" style="opacity:.3;"></path><path d="M161.2962,367.17048s7.1741-6.1686,18.3337-.8046c0,0,15.0266,6.3759,25.8992,6.1884,2.9696-.0512,9.0732-2.2116,11.3667-4.2493l21.514-21.7601,6.566,5.1341s-16.5202,29.2791-30.97,34.8313c-6.4627,2.4832-24.8105,4.932-35.8107,3.7251-11.0002-1.2068-21.7497-8.4488-21.9091-12.4718-.1594-4.023,2.6292-9.1414,5.0102-10.5931Z" style="fill:#fdad6a;"></path><path d="M205.918,372.33398h0c-10.7645-.2082-26.1199-6.193-26.1199-6.193-11.1596-5.364-19.796,.7646-19.796,.7646-2.381,1.4517-4.1091,7.183-3.7234,11.188,.6045,6.2779,10.9089,11.265,21.9091,12.4719,7.8335,.8595,19.39-.1355,27.7302-1.6761v-16.5554Z" style="fill:#263238;"></path><path d="M176.5087,379.08448c-.5457,2.3003-3.6131,3.5423-6.8512,2.774-3.238-.7682-5.4206-3.2557-4.8748-5.556,.5457-2.3003,3.6131-3.5423,6.8511-2.774,3.2381,.7682,5.4206,3.2557,4.8749,5.556Z" style="fill:#fff;"></path><circle cx="247.65452" cy="327.16561" r="18.37638" transform="translate(-127.35198 493.71956) rotate(-76.82311)" style="fill:#263238;"></circle><circle cx="247.65452" cy="327.16561" r="18.37638" transform="translate(-127.35198 493.71956) rotate(-76.82311)" style="fill:#fff; opacity:.4;"></circle><circle cx="247.65452" cy="327.16561" r="11.54118" transform="translate(-127.4655 493.46374) rotate(-76.78403)" style="fill:#263238;"></circle><circle cx="247.65449" cy="328.02468" r="4.9724" style="fill:#FFC100;"></circle><path d="M247.26419,326.91908c-1.32319,.7068-1.79719,2.3684-1.0441,3.6658,2.68291,4.6219,8.3626,14.3787,8.4748,14.3388,.14711-.0523,4.8565-2.7675,4.69311-2.6422-.12611,.0967-5.94391-9.8332-8.58811-14.3626-.7182-1.2302-2.2793-1.6709-3.5357-.9998h0Z" style="fill:#FFC100;"></path><rect x="315.69174" y="249.74384" width=".99932" height="138.88634" transform="translate(-49.74134 579.86033) rotate(-80.73442)" style="fill:#263238;"></rect><path d="M282.24949,364.02938h.0001c1.2273,.6978,2.7873,.2812,3.503-.9358,2.0961-3.5638,6.217-10.583,8.3265-14.2638,.7521-1.3124,.3287-2.9845-.9559-3.7831h0c-1.3704-.8518-3.175-.3777-3.9497,1.0378l-7.9134,14.459c-.67709,1.2372-.2367,2.7889,.9894,3.4859Z" style="fill:#263238;"></path><circle cx="384.87049" cy="334.96568" r="4.3242" style="fill:#263238;"></circle><path d="M381.37819,337.50828c-.0093-.0049-4.3341,5.9262-2.3879,12.3053,1.9461,6.3791,9.4064,4.6492,9.082,4.8654-.32429,.2163,13.515-2.6709,13.515-2.6709,0,0-1.4912-5.5687-1.8156-5.4606-.3243,.1081-16.0129,4.5713-15.42169-.4235,.52049-4.3988,3.06679-7.6228,2.71339-7.436-.3535,.1869-5.6852-1.1797-5.6852-1.1797Z" style="fill:#263238;"></path><g><ellipse cx="101.5568" cy="380.91203" rx="47.50587" ry="45.19694" transform="translate(-284.94046 303.27424) rotate(-63.7132)" style="opacity:.3;"></ellipse><ellipse cx="97.34472" cy="380.91203" rx="47.50588" ry="45.19697" transform="translate(-287.28735 299.49864) rotate(-63.71334)" style="fill:#263238;"></ellipse><ellipse cx="97.33177" cy="380.90563" rx="41.47381" ry="39.45807" transform="translate(-287.28873 299.48301) rotate(-63.71327)" style="fill:#fff; opacity:.5;"></ellipse><path d="M103.3025,384.36298c-2.4727,4.2829-7.6676,5.9129-11.6032,3.6407-3.9355-2.2722-5.1214-7.5862-2.6487-11.8691,2.4728-4.2829,7.6677-5.9129,11.6033-3.6407,3.9355,2.2722,5.1214,7.5862,2.6486,11.8691Z" style="fill:#263238;"></path></g><path d="M52.72361,356.06246c2.95459-10.37177,11.77933-18.75473,21.31943-23.28178,.87162-.41361,.1113-1.70728-.75708-1.29521-9.88457,4.69051-18.95264,13.45002-22.00877,24.17822-.26494,.93003,1.18198,1.32706,1.44642,.39876h0Z" style="fill:#263238;"></path><g><path d="M312.90889,394.36248s-1.641,.0498,24.0038,.0498,42.9787,.3291,56.276-1.1529c13.2972-1.4819,20.6582-1.6009,20.6582-1.6009l-2.8494-10.2324s-52.7217-1.2399-56.1777-2.6504c-4.7512-1.9393-12.2074-3.3022-20.6421-1.8779l-17.4195-3.1641-3.8493,20.6288Z" style="fill:#fdad6a;"></path><path d="M410.82929,391.84738s-14.6029,1.2362-18.0855,1.46l-.1261-12.3953,20.1365,.376,3.0581,6.9361-4.983,3.6232Z" style="fill:#FFC100;"></path><path d="M410.82929,391.84738s-14.6029,1.2362-18.0855,1.46l-.1261-12.3953,20.1365,.376,3.0581,6.9361-4.983,3.6232Z" style="fill:#fff; opacity:.5;"></path><g><g><path d="M410.74859,380.43218c-.6529,1.656-.478,2.7801,.8547,3.1603-.1504,.8108,.0993,1.6466,.6306,2.2626,2.2923,2.6569,.99311,3.9867-1.939,5.6794-.4228,1.394,1.0605,2.1217,1.4566,2.3305l8.7412,4.7178c.7284,.4029,1.6198,.1095,1.99131-.6557,.06609-.1361,.11279-.2819,.13839-.433,.8069-4.3517,1.1887-6.4106,2.193-11.8267l3.0713-16.5643c.8375-4.5155-3.3033-6.4034-4.0472-4.6315-3.3031,7.9773-6.7346,13.3851-9.5207,15.4612-.4927,.3901-2.2227,.2544-3.5702,.4994Z" style="fill:#FFC100;"></path><path d="M426.75579,368.57668c.12021,3.191-3.3032,7.0121-4.0325,10.9219-.72929,3.9096,.7789,4.181,.0103,11.0945-.76859,6.9135-3.3378,7.3976-3.3378,7.3976l.0007,.0005,1.0962,.5916c.7284,.4029,1.6198,.1095,1.99131-.6558,.06609-.136,.11279-.2819,.13839-.4329,.8069-4.3517,1.1887-6.4106,2.193-11.8267l3.0713-16.5642c.4467-2.4089-.5248-4.0608-1.64-4.8174,.13731,.5415,.4194,1.9093,.5091,4.2909Z" style="fill:#263238;"></path><path d="M419.18539,391.73127c.6779-2.29124,.60831-4.76788-.2089-7.01408-.16372-.45-.88878-.25571-.72321,.19938,.77475,2.12951,.85205,4.44154,.2089,6.61532-.13722,.46378,.58636,.6619,.72321,.19938h0Z" style="fill:#fff;"></path></g><path d="M418.00725,379.41322c-.47913-.54634-.95827-1.09266-1.4374-1.639-.12976-.14797-.39945-.14257-.53033,0-.14483,.15777-.13841,.3725,0,.53033,.47913,.54634,.95827,1.09266,1.4374,1.639,.12976,.14797,.39945,.14257,.53033,0,.14483-.15777,.13841-.3725,0-.53033h0Z"></path><path d="M419.53919,377.61341c-.45138-.63541-1.00636-1.17802-1.65553-1.61023-.16367-.10897-.42225-.03737-.51307,.13453-.0996,.18851-.04014,.39678,.13453,.51307,.07213,.04802,.14336,.09735,.21334,.14844,.0344,.02511,.07262,.04909,.10409,.07781-.03087-.02818-.04328-.03374-.0041-.00276l.05075,.04058c.1347,.10901,.26449,.22409,.38885,.34475,.12125,.11765,.23735,.24061,.34784,.36842,.05666,.06554,.11184,.13236,.16548,.20039,.03119,.03955,.02596,.02563-.00287-.00403,.01478,.0152,.02648,.03494,.03911,.05189,.02848,.03821,.05639,.07682,.08399,.11567,.0578,.08136,.12488,.14501,.22411,.17233,.08976,.02472,.20929,.01356,.28896-.0378,.15833-.10208,.25603-.34204,.13453-.51307h0Z"></path><path d="M420.97849,375.54651c-.45138-.63541-1.00636-1.17802-1.65553-1.61023-.16367-.10897-.42225-.03737-.51307,.13453-.0996,.18851-.04014,.39678,.13453,.51307,.07213,.04802,.14336,.09735,.21335,.14844,.0344,.02511,.07263,.04908,.10409,.07781-.03087-.02819-.04328-.03374-.0041-.00276l.05075,.04058c.1347,.10901,.26449,.22409,.38885,.34475,.12125,.11765,.23735,.24061,.34783,.36842,.05666,.06554,.11184,.13236,.16548,.20039,.03119,.03955,.02596,.02563-.00287-.00403,.01478,.0152,.02648,.03494,.03911,.05189,.02848,.03821,.05639,.07682,.08399,.11567,.0578,.08136,.12488,.14501,.22411,.17233,.08976,.02472,.20929,.01356,.28896-.0378,.15833-.10208,.25603-.34204,.13453-.51307h0Z"></path></g></g><path d="M244.94859,361.30688l-1.6144,3.374-8.3859,28.7125s15.171,5.0514,54.5605-.4649c3.5924-.5031,27.635,1.7973,27.635,1.7973l2.3693-20.3799c-4.9764-4.0761-74.5645-13.039-74.5645-13.039Z" style="fill:#FFC100;"></path><path d="M390.86035,375.60547c-2.18066,0-4.08789-.72656-4.43164-.86523l-143.84424-28.70801,.19531-.98047,143.89209,28.71777c.13965,.04688,4.50098,1.83398,7.46289,.00781,1.65918-1.02441,2.60254-3.01562,2.80273-5.91895,.48047-6.96191-13.23633-15.33789-13.375-15.42188l.51758-.85547c.58691,.35449,14.37695,8.78223,13.85547,16.3457-.22461,3.24609-1.32715,5.50195-3.2793,6.7041-1.19141,.7334-2.53906,.97461-3.7959,.97461Z" style="fill:#263238;"></path><path d="M238.28009,346.87488s12.4297-11.6505,16.0717-11.9307,8.8248,1.6809,9.105,2.8015c.2801,1.1206-.5604,1.5273-.5604,1.5273,0,0,2.5214,.4338,2.2413,2.1147-.2802,1.6809-1.821,2.2412-1.821,2.2412,0,0,.7004,2.3813-.8405,3.502l-1.1649,.2391s.9974,2.6431-1.5474,2.6863c-2.7906,.0474-14.8292,1.9328-14.8292,1.9328l-6.6546-5.1142Z" style="fill:#fdad6a;"></path><path d="M234.6408,393.59276c1.48322-10.74141,4.2644-22.21535,10.50929-31.25294,.55008-.79607-.74945-1.54689-1.29521-.75708-6.31363,9.13707-9.16108,20.75246-10.66051,31.61126-.13036,.94404,1.31475,1.35231,1.44642,.39876h0Z" style="fill:#263238;"></path><path d="M319.02369,378.55498c-.495-.314-36.511-3.8636-44.1029-2.6185s-18.36179,4.2466-18.36179,4.2466l61.65909,5.3014,.8056-6.9295Z" style="fill:#fff; opacity:.5;"></path><path d="M393.34219,373.18028s1.0475,2.6853,3.2589,3.1467,29.8547,3.3514,29.8547,3.3514l.5231-2.6135s-26.8174-1.4417-28.9811-2.8048-2.2114-3.2912-2.2114-3.2912l-3.1687,1.8623" style="fill:#263238;"></path><polygon points="408.87629 377.06488 405.82089 392.26738 415.01729 395.62768 418.45489 378.03938 408.87629 377.06488" style="fill:#263238;"></polygon><path d="M260.09689,363.49698l-3.53789,34.1738,20.54069-.774s-3.9171-32.0025-4.5023-32.0453-11.6593-1.2468-12.5005-1.3545Z" style="fill:#263238;"></path><path d="M282.946,326.03888s1.12609,6.3638,2.81839,8.056c1.6923,1.6923,40.9532,20.6449,40.9532,20.6449l.907-2.7307-44.67859-25.9702Z" style="fill:#FFC100;"></path><path d="M125.8671,313.60778c4.21128,.29661,8.24905,1.8408,11.60493,4.3977,.38382,.29244,.75784-.3586,.37854-.6476-3.46216-2.63788-7.64437-4.19448-11.98347-4.5001-.48166-.03393-.47954,.71622,0,.75h0Z" style="fill:#263238;"></path><path d="M128.9073,311.02488c4.03276,.27422,7.93223,1.79018,11.08483,4.32217,.37283,.29944,.90681-.22797,.53033-.53033-3.31815-2.66494-7.36773-4.25302-11.61516-4.54183-.48178-.03276-.47975,.71738,0,.75h0Z" style="fill:#263238;"></path><g><path d="M414.80265,330.20168c7.92976,5.79257,13.97019,13.97816,17.18683,23.25398,.31433,.90644,1.76389,.51673,1.44642-.39876-3.35437-9.673-9.61081-18.1127-17.87617-24.15042-.7804-.57007-1.52963,.73087-.75708,1.29521h0Z" style="fill:#263238;"></path><path d="M412.81782,327.23615c-1.58228-1.25582-3.32771-2.23907-5.22785-2.92838-.36939-.134-.83753,.1504-.92259,.52383-.09626,.42262,.12834,.77912,.52383,.92259,1.58794,.57605,3.2429,1.49254,4.56595,2.54262,.31698,.25158,.7512,.30946,1.06066,0,.2611-.2611,.31899-.80749,0-1.06066h0Z" style="fill:#263238;"></path></g><path d="M393.65919,381.64738l-.102,11.18c-.0044,.48274,.74559,.48316,.75,0l.102-11.18c.0044-.48274-.74559-.48316-.75,0h0Z" style="fill:#fff;"></path><path d="M395.76069,381.52458l-.102,11.18c-.0044,.48274,.74559,.48316,.75,0l.102-11.18c.0044-.48274-.74559-.48316-.75,0h0Z" style="fill:#fff;"></path></g></g></svg>
