<svg xmlns="http://www.w3.org/2000/svg" viewBox="0 0 500 500"><g id="freepik--Floor--inject-359"><g id="freepik--floor--inject-359"><ellipse id="freepik--floor--inject-359" cx="253.83" cy="322.38" rx="227.63" ry="140.06" style="fill:#FFC100"></ellipse><ellipse id="freepik--floor--inject-359" cx="253.83" cy="322.38" rx="227.63" ry="140.06" style="fill:#fff;opacity:0.6"></ellipse></g></g><g id="freepik--Shadows--inject-359"><g id="freepik--shadows--inject-359" style="opacity:0.1"><path d="M209.58,357.8l113.2-65.36c2.39-1.38,2.39-3.62,0-5L161.51,194.33c-24.9,6.8-48.23,16.46-68.64,29-21.23,13.06-37.38,28.07-48.47,44.08L200.92,357.8A9.57,9.57,0,0,0,209.58,357.8Z"></path><path d="M190.57,345.32c5.36,3.09,5.36,8.1,0,11.2s-14,3.09-19.39,0-5.36-8.11,0-11.2S185.21,342.23,190.57,345.32Z"></path><ellipse cx="257.51" cy="321.15" rx="21.33" ry="12.32"></ellipse><ellipse cx="285.35" cy="306.16" rx="21.33" ry="12.32"></ellipse><path d="M145.89,319.52c5.35,3.09,5.35,8.11,0,11.2s-14,3.09-19.4,0-5.35-8.11,0-11.2S140.53,316.43,145.89,319.52Z"></path><path d="M316.49,272.62c5.36,3.09,5.36,8.1,0,11.19s-14,3.1-19.39,0-5.35-8.1,0-11.19S311.14,269.53,316.49,272.62Z"></path><path d="M271.81,246.82c5.36,3.09,5.36,8.11,0,11.2s-14,3.09-19.39,0-5.36-8.11,0-11.2S266.46,243.73,271.81,246.82Z"></path></g><ellipse id="freepik--Shadow--inject-359" cx="179.61" cy="279.82" rx="22.22" ry="12.83" style="opacity:0.2"></ellipse><g id="freepik--Waves--inject-359"><path d="M246.55,318s-.16,2.58,3.77,4.46,10.39,1.27,10.39,1.27a19.46,19.46,0,0,1-10.48-.42C245.16,321.45,246.55,318,246.55,318Z" style="opacity:0.30000000000000004"></path><path d="M246.38,313s-4.2,3.42-1.83,8.12a4.34,4.34,0,0,1-1.32-5A4.73,4.73,0,0,1,246.38,313Z" style="opacity:0.30000000000000004"></path><path d="M268.56,314.88a5.46,5.46,0,0,1-3.36,6.86,5.2,5.2,0,0,0,4.33-2.65C270.48,317.09,268.56,314.88,268.56,314.88Z" style="opacity:0.30000000000000004"></path></g><g id="freepik--waves--inject-359"><path d="M275.55,302.43s-.17,2.58,3.76,4.46,10.39,1.27,10.39,1.27a19.46,19.46,0,0,1-10.48-.42C274.15,305.87,275.55,302.43,275.55,302.43Z" style="opacity:0.30000000000000004"></path><path d="M275.37,297.45s-4.2,3.42-1.83,8.11a4.32,4.32,0,0,1-1.32-5A4.73,4.73,0,0,1,275.37,297.45Z" style="opacity:0.30000000000000004"></path><path d="M297.55,299.3a5.45,5.45,0,0,1-3.35,6.86,5.19,5.19,0,0,0,4.32-2.66C299.47,301.51,297.55,299.3,297.55,299.3Z" style="opacity:0.30000000000000004"></path></g><g id="freepik--waves--inject-359"><path d="M401.72,336.28s-.15,2.28,3.32,3.94,9.18,1.12,9.18,1.12-5.22,1.85-9.69.2S401.72,336.28,401.72,336.28Z" style="opacity:0.15"></path><path d="M400.05,331s-3.71,3-1.62,7.16c0,0-2.79-1.82-1.74-4.61A4.1,4.1,0,0,1,400.05,331Z" style="opacity:0.15"></path><path d="M421.16,333.51s1.63,4.61-3.49,6.52c0,0,3.48-.35,4.57-2.63C423.09,335.64,421.16,333.51,421.16,333.51Z" style="opacity:0.15"></path><path d="M399.18,324.52s14.15-3.55,23.28,2.37,5.71,12,5.71,12,5.65-8.09-4.33-13.51C410.37,318.09,399.18,324.52,399.18,324.52Z" style="opacity:0.15"></path><path d="M391.49,335.27s-2.78,7.31,8.73,11c10.48,3.32,21.54-.61,21.54-.61s-7.54,6.78-21.71,2.34C387,343.88,391.49,335.27,391.49,335.27Z" style="opacity:0.15"></path></g></g><g id="freepik--Clouds--inject-359"><g id="freepik--clouds--inject-359"><path d="M105.65,54.54l-8.49,4.9a10.88,10.88,0,0,0,.07-1.13V55.86c0-4.38-3.07-6.15-6.86-4a13.13,13.13,0,0,0-4.09,3.93c-.62-5.5-4.93-7.55-10.18-4.53-5.66,3.28-10.26,11.23-10.26,17.78v3.68A9.64,9.64,0,0,0,66.71,77l-7,4.07a8.4,8.4,0,0,0-3.8,6.59c0,2.42,1.7,3.41,3.8,2.19l46-26.54a8.43,8.43,0,0,0,3.8-6.6C109.45,54.31,107.75,53.32,105.65,54.54Z" style="fill:#ebebeb"></path><path d="M142,79.26l-6.4,3.7a8.24,8.24,0,0,0,.05-.85V80.26c0-3.3-2.32-4.64-5.18-3a10,10,0,0,0-3.08,3c-.47-4.16-3.73-5.7-7.68-3.42a17.13,17.13,0,0,0-7.75,13.42V93a7.32,7.32,0,0,0,.66,3.22l-5.32,3.07a6.35,6.35,0,0,0-2.88,5c0,1.84,1.29,2.58,2.88,1.66l34.7-20a6.35,6.35,0,0,0,2.87-5C144.83,79.09,143.55,78.35,142,79.26Z" style="fill:#ebebeb"></path></g></g><g id="freepik--Plants--inject-359"><g id="freepik--Bullrush--inject-359"><path d="M49.36,185c-.13.09.7,1.34,1.72,3.8a92.08,92.08,0,0,1,5.09,15A111.85,111.85,0,0,1,58,244.41a2,2,0,0,0,2.91-.91c.58-10.15.83-24.79-3.66-40.06a77.33,77.33,0,0,0-5.7-14.65A29.21,29.21,0,0,0,49.36,185Z" style="fill:#FFC100"></path><path d="M49.36,185c-.13.09.7,1.34,1.72,3.8a92.08,92.08,0,0,1,5.09,15A111.85,111.85,0,0,1,58,244.41a2,2,0,0,0,2.91-.91c.58-10.15.83-24.79-3.66-40.06a77.33,77.33,0,0,0-5.7-14.65A29.21,29.21,0,0,0,49.36,185Z" style="opacity:0.30000000000000004"></path><path d="M66.47,182.33c-.15,0,.27,1.48.5,4.14a91.31,91.31,0,0,1,.35,15.86A111.66,111.66,0,0,1,56.9,241.59a2,2,0,0,0,3,0c3.6-9.5,8.22-23.4,8.52-39.31a77.43,77.43,0,0,0-1-15.69A28.85,28.85,0,0,0,66.47,182.33Z" style="fill:#FFC100"></path><path d="M66.47,182.33c-.15,0,.27,1.48.5,4.14a91.31,91.31,0,0,1,.35,15.86A111.66,111.66,0,0,1,56.9,241.59a2,2,0,0,0,3,0c3.6-9.5,8.22-23.4,8.52-39.31a77.43,77.43,0,0,0-1-15.69A28.85,28.85,0,0,0,66.47,182.33Z" style="opacity:0.30000000000000004"></path><path d="M22.19,201.55c-.07.15,1.31.74,3.51,2.25a90.89,90.89,0,0,1,12.46,9.81,112,112,0,0,1,23.67,33,2,2,0,0,0,1.93-2.35c-5-8.82-12.84-21.23-24.93-31.57a76.52,76.52,0,0,0-12.77-9.16A28,28,0,0,0,22.19,201.55Z" style="fill:#FFC100"></path><path d="M22.19,201.55c-.07.15,1.31.74,3.51,2.25a90.89,90.89,0,0,1,12.46,9.81,112,112,0,0,1,23.67,33,2,2,0,0,0,1.93-2.35c-5-8.82-12.84-21.23-24.93-31.57a76.52,76.52,0,0,0-12.77-9.16A28,28,0,0,0,22.19,201.55Z" style="opacity:0.30000000000000004"></path><path d="M21.25,178.73c-.13.18,1.54,1.34,4,3.93a125.05,125.05,0,0,1,13.85,16.4A151.66,151.66,0,0,1,61.5,249.23a2.72,2.72,0,0,0,3.2-2.58C60.41,233.59,53.48,215,40.27,198a104.08,104.08,0,0,0-14.42-15.61C24.37,181.16,21.38,178.56,21.25,178.73Z" style="fill:#FFC100"></path><path d="M21.25,178.73c-.13.18,1.54,1.34,4,3.93a125.05,125.05,0,0,1,13.85,16.4A151.66,151.66,0,0,1,61.5,249.23a2.72,2.72,0,0,0,3.2-2.58C60.41,233.59,53.48,215,40.27,198a104.08,104.08,0,0,0-14.42-15.61C24.37,181.16,21.38,178.56,21.25,178.73Z" style="opacity:0.2"></path><path d="M26.44,183.88s-.76,1.06.71,3,5.51,6.41,7.12,8c1,1,4.08-.78,2.77-2.59a60.48,60.48,0,0,0-6.87-7.81c-1.6-1.44-2.44-1.76-3.27-1.11l.12.1c.1.09.07.29-.08.45a.34.34,0,0,1-.39.11Z" style="fill:#b16668"></path><path d="M52.65,173c-.17.09.71,1.67,1.69,4.72A110.22,110.22,0,0,1,59,196.22,134.37,134.37,0,0,1,57.28,245a2.42,2.42,0,0,0,3.57-.82c1.66-12.09,3.37-29.62-.54-48.34a92.73,92.73,0,0,0-5.43-18.09C54.2,176.16,52.82,172.92,52.65,173Z" style="fill:#FFC100"></path><path d="M52.65,173c-.17.09.71,1.67,1.69,4.72A110.22,110.22,0,0,1,59,196.22,134.37,134.37,0,0,1,57.28,245a2.42,2.42,0,0,0,3.57-.82c1.66-12.09,3.37-29.62-.54-48.34a92.73,92.73,0,0,0-5.43-18.09C54.2,176.16,52.82,172.92,52.65,173Z" style="opacity:0.2"></path><path d="M54.79,179.15s-1,.55-.61,2.66c.38,1.95,1.91,7.27,2.58,9.14.42,1.18,3.56,1,3.22-1a53.73,53.73,0,0,0-2.43-8.91c-.72-1.78-1.26-2.36-2.18-2.16l.05.13c0,.11-.05.25-.24.32a.29.29,0,0,1-.35-.06Z" style="fill:#b16668"></path><path d="M28.92,168.17c-.15.16,1.37,1.51,3.55,4.38a122.65,122.65,0,0,1,11.82,17.91,151.05,151.05,0,0,1,16.32,52.45s2.61.85,3.48-2.2c-2.73-13.46-7.43-32.71-18.55-51.14a103.26,103.26,0,0,0-12.49-17.2C31.73,170.94,29.07,168,28.92,168.17Z" style="fill:#FFC100"></path><path d="M28.92,168.17c-.15.16,1.37,1.51,3.55,4.38a122.65,122.65,0,0,1,11.82,17.91,151.05,151.05,0,0,1,16.32,52.45s2.61.85,3.48-2.2c-2.73-13.46-7.43-32.71-18.55-51.14a103.26,103.26,0,0,0-12.49-17.2C31.73,170.94,29.07,168,28.92,168.17Z" style="opacity:0.2"></path></g><g id="freepik--bullrush--inject-359"><path d="M161.27,127.73c.14,0-.18,1.28-.31,3.57a79.86,79.86,0,0,0,.16,13.62,96,96,0,0,0,10.09,33.38,1.73,1.73,0,0,1-2.61.09c-3.36-8-7.74-19.85-8.45-33.49a65.44,65.44,0,0,1,.45-13.49A25.08,25.08,0,0,1,161.27,127.73Z" style="fill:#FFC100"></path><path d="M161.27,127.73c.14,0-.18,1.28-.31,3.57a79.86,79.86,0,0,0,.16,13.62,96,96,0,0,0,10.09,33.38,1.73,1.73,0,0,1-2.61.09c-3.36-8-7.74-19.85-8.45-33.49a65.44,65.44,0,0,1,.45-13.49A25.08,25.08,0,0,1,161.27,127.73Z" style="opacity:0.30000000000000004"></path><path d="M146.65,130.43c.14,0,.21,1.28.78,3.5a78.62,78.62,0,0,0,4.23,12.95,96.08,96.08,0,0,0,19.62,28.82,1.74,1.74,0,0,1-2.47.87c-5.61-6.68-13.32-16.62-18.09-29.42a67,67,0,0,1-3.61-13A24.44,24.44,0,0,1,146.65,130.43Z" style="fill:#FFC100"></path><path d="M146.65,130.43c.14,0,.21,1.28.78,3.5a78.62,78.62,0,0,0,4.23,12.95,96.08,96.08,0,0,0,19.62,28.82,1.74,1.74,0,0,1-2.47.87c-5.61-6.68-13.32-16.62-18.09-29.42a67,67,0,0,1-3.61-13A24.44,24.44,0,0,1,146.65,130.43Z" style="opacity:0.30000000000000004"></path><path d="M188,133.39c.09.1-.86,1-2.21,2.82a78.46,78.46,0,0,0-7.3,11.5,96.25,96.25,0,0,0-9.77,33.47,1.72,1.72,0,0,1-2.23-1.35c1.58-8.58,4.35-20.85,11.2-32.67a65.76,65.76,0,0,1,7.73-11.06A24.13,24.13,0,0,1,188,133.39Z" style="fill:#FFC100"></path><path d="M188,133.39c.09.1-.86,1-2.21,2.82a78.46,78.46,0,0,0-7.3,11.5,96.25,96.25,0,0,0-9.77,33.47,1.72,1.72,0,0,1-2.23-1.35c1.58-8.58,4.35-20.85,11.2-32.67a65.76,65.76,0,0,1,7.73-11.06A24.13,24.13,0,0,1,188,133.39Z" style="opacity:0.30000000000000004"></path><path d="M182.25,114.64c.16.11-.86,1.52-2.15,4.34a106.59,106.59,0,0,0-6.54,17.22,130,130,0,0,0-3.83,47A2.34,2.34,0,0,1,166.4,182c-.24-11.79.09-28.8,5.95-46.33a89.51,89.51,0,0,1,7.23-16.75A34.66,34.66,0,0,1,182.25,114.64Z" style="fill:#FFC100"></path><path d="M182.25,114.64c.16.11-.86,1.52-2.15,4.34a106.59,106.59,0,0,0-6.54,17.22,130,130,0,0,0-3.83,47A2.34,2.34,0,0,1,166.4,182c-.24-11.79.09-28.8,5.95-46.33a89.51,89.51,0,0,1,7.23-16.75A34.66,34.66,0,0,1,182.25,114.64Z" style="opacity:0.2"></path><path d="M179.51,120.29s.92.64.29,2.62-2.65,6.76-3.5,8.49c-.54,1.08-3.53.52-3-1.32a54.19,54.19,0,0,1,3.34-8.27c.89-1.63,1.48-2.13,2.34-1.84l-.07.12c-.06.1,0,.26.2.34a.29.29,0,0,0,.34,0Z" style="fill:#b16668"></path><path d="M155.19,119c.17,0-.1,1.55,0,4.3a94.93,94.93,0,0,0,1.5,16.31,115.62,115.62,0,0,0,15.28,39,2.08,2.08,0,0,1-3.12.35c-4.79-9.32-11.16-23-13.33-39.31a80,80,0,0,1-.76-16.2A31.11,31.11,0,0,1,155.19,119Z" style="fill:#FFC100"></path><path d="M155.19,119c.17,0-.1,1.55,0,4.3a94.93,94.93,0,0,0,1.5,16.31,115.62,115.62,0,0,0,15.28,39,2.08,2.08,0,0,1-3.12.35c-4.79-9.32-11.16-23-13.33-39.31a80,80,0,0,1-.76-16.2A31.11,31.11,0,0,1,155.19,119Z" style="opacity:0.2"></path><path d="M155.21,124.53s1,.15,1.25,2,.52,6.43.52,8.14c0,1.08-2.62,1.8-2.9.12a47.93,47.93,0,0,1-.57-7.91c.08-1.65.36-2.27,1.16-2.38v.12c0,.1.12.2.29.2a.25.25,0,0,0,.26-.16Z" style="fill:#b16668"></path><path d="M173,108.27c.17.09-.68,1.61-1.62,4.56a106.06,106.06,0,0,0-4.48,17.87,130.06,130.06,0,0,0,1.72,47.13,2.33,2.33,0,0,1-3.44-.79c-1.63-11.68-3.3-28.61.46-46.7a89.16,89.16,0,0,1,5.21-17.49C171.55,111.32,172.87,108.18,173,108.27Z" style="fill:#FFC100"></path><path d="M173,108.27c.17.09-.68,1.61-1.62,4.56a106.06,106.06,0,0,0-4.48,17.87,130.06,130.06,0,0,0,1.72,47.13,2.33,2.33,0,0,1-3.44-.79c-1.63-11.68-3.3-28.61.46-46.7a89.16,89.16,0,0,1,5.21-17.49C171.55,111.32,172.87,108.18,173,108.27Z" style="opacity:0.2"></path></g></g><g id="freepik--Dock--inject-359"><g id="freepik--dock--inject-359"><path d="M299.41,230.59V277h0a3.65,3.65,0,0,0,2.14,3,11.44,11.44,0,0,0,10.32,0,3.62,3.62,0,0,0,2.13-3V230.59Z" style="fill:#263238"></path><polygon points="302 233.57 302.44 237.03 303.03 233.94 302 233.57" style="fill:#455a64"></polygon><polygon points="304.01 234.24 304.31 236.67 304.73 234.5 304.01 234.24" style="fill:#455a64"></polygon><path d="M301.55,233.57a11.38,11.38,0,0,0,10.32,0c2.84-1.64,2.84-4.31,0-5.95a11.41,11.41,0,0,0-10.32,0C298.7,229.26,298.7,231.93,301.55,233.57Z" style="fill:#37474f"></path><path d="M254.73,204.9v46.37h0a3.61,3.61,0,0,0,2.14,3,11.36,11.36,0,0,0,10.31,0,3.61,3.61,0,0,0,2.14-3V204.9Z" style="fill:#263238"></path><polygon points="257.32 207.88 257.75 211.34 258.35 208.25 257.32 207.88" style="fill:#455a64"></polygon><polygon points="259.32 208.54 259.63 210.97 260.05 208.81 259.32 208.54" style="fill:#455a64"></polygon><path d="M256.87,207.88a11.42,11.42,0,0,0,10.31,0c2.85-1.65,2.85-4.31,0-6a11.42,11.42,0,0,0-10.31,0C254,203.56,254,206.23,256.87,207.88Z" style="fill:#37474f"></path><path d="M74.28,254.49l117-67.55a4,4,0,0,0,1.78-3.09v-3.62a4,4,0,0,0-1.79-3.09l-23.23-13.41a4,4,0,0,0-3.57,0l-117,67.55a4,4,0,0,0-1.79,3.1V238a3.94,3.94,0,0,0,1.79,3.09l23.22,13.41A3.94,3.94,0,0,0,74.28,254.49Z" style="fill:#263238"></path><path d="M47.49,233.35l23.22,13.4a3.94,3.94,0,0,0,3.57,0l117-67.55a1.09,1.09,0,0,0,0-2.06l-23.23-13.41a4,4,0,0,0-3.57,0l-117,67.55A1.09,1.09,0,0,0,47.49,233.35Z" style="fill:#455a64"></path><path d="M72.5,247.18v7.73a3.79,3.79,0,0,1-1.8-.42L47.49,241.08A4,4,0,0,1,45.7,238v-3.61a4,4,0,0,1,1.46-2.85c-.65.56-.53,1.31.33,1.83l23.21,13.4A3.58,3.58,0,0,0,72.5,247.18Z" style="fill:#37474f"></path><path d="M104.42,271.89l117-67.55a4,4,0,0,0,1.78-3.09v-3.61a3.94,3.94,0,0,0-1.78-3.1l-23.23-13.4a3.94,3.94,0,0,0-3.57,0l-117,67.55a3.93,3.93,0,0,0-1.79,3.08v3.62a3.94,3.94,0,0,0,1.79,3.09l23.22,13.41A3.94,3.94,0,0,0,104.42,271.89Z" style="fill:#263238"></path><path d="M77.63,250.75l23.22,13.41a4,4,0,0,0,3.57,0l117-67.55a1.09,1.09,0,0,0,0-2.07l-23.23-13.4a3.94,3.94,0,0,0-3.57,0l-117,67.55A1.09,1.09,0,0,0,77.63,250.75Z" style="fill:#455a64"></path><path d="M102.64,264.58v7.74a3.8,3.8,0,0,1-1.8-.43L77.62,258.48a4,4,0,0,1-1.78-3.1v-3.61a4,4,0,0,1,1.45-2.85c-.64.56-.52,1.32.33,1.83l23.22,13.4A3.58,3.58,0,0,0,102.64,264.58Z" style="fill:#37474f"></path><path d="M134.56,289.29l117-67.55a3.92,3.92,0,0,0,1.78-3.09V215a3.92,3.92,0,0,0-1.79-3.09l-23.23-13.41a3.94,3.94,0,0,0-3.57,0l-117,67.55a3.94,3.94,0,0,0-1.79,3.09v3.61a3.94,3.94,0,0,0,1.79,3.09L131,289.29A3.94,3.94,0,0,0,134.56,289.29Z" style="fill:#263238"></path><path d="M107.77,268.15,131,281.56a3.94,3.94,0,0,0,3.57,0l117-67.55a1.09,1.09,0,0,0,0-2.06l-23.23-13.41a3.94,3.94,0,0,0-3.57,0l-117,67.55A1.09,1.09,0,0,0,107.77,268.15Z" style="fill:#455a64"></path><path d="M132.78,282v7.74a3.8,3.8,0,0,1-1.8-.43l-23.21-13.41a3.91,3.91,0,0,1-1.78-3.1v-3.61a4,4,0,0,1,1.45-2.85c-.65.56-.53,1.32.33,1.83L131,281.55A3.58,3.58,0,0,0,132.78,282Z" style="fill:#37474f"></path><path d="M164.7,306.69l117-67.55a3.92,3.92,0,0,0,1.79-3.09v-3.61a3.94,3.94,0,0,0-1.79-3.09l-23.22-13.41a3.94,3.94,0,0,0-3.57,0l-117,67.55a4,4,0,0,0-1.78,3.09v3.61a3.92,3.92,0,0,0,1.78,3.09l23.22,13.41A3.94,3.94,0,0,0,164.7,306.69Z" style="fill:#263238"></path><path d="M137.91,285.55,161.13,299a3.94,3.94,0,0,0,3.57,0l117-67.55a1.09,1.09,0,0,0,0-2.06l-23.22-13.41a3.94,3.94,0,0,0-3.57,0l-117,67.55A1.09,1.09,0,0,0,137.91,285.55Z" style="fill:#455a64"></path><path d="M162.92,299.39v7.73a3.73,3.73,0,0,1-1.79-.43l-23.22-13.41a3.91,3.91,0,0,1-1.78-3.1v-3.61a4,4,0,0,1,1.45-2.85c-.64.56-.53,1.32.33,1.83L161.13,299A3.62,3.62,0,0,0,162.92,299.39Z" style="fill:#37474f"></path><path d="M194.85,324.09l117-67.54a4,4,0,0,0,1.79-3.1v-3.61a4,4,0,0,0-1.78-3.09l-23.23-13.41a3.94,3.94,0,0,0-3.57,0l-117,67.55a4,4,0,0,0-1.78,3.09v3.61a4,4,0,0,0,1.78,3.1l23.23,13.4A3.94,3.94,0,0,0,194.85,324.09Z" style="fill:#263238"></path><path d="M168.05,303l23.22,13.41a4,4,0,0,0,3.58,0l117-67.55a1.09,1.09,0,0,0,0-2.06l-23.23-13.41a3.94,3.94,0,0,0-3.57,0l-117,67.55A1.09,1.09,0,0,0,168.05,303Z" style="fill:#455a64"></path><path d="M193.07,316.79v7.73a3.74,3.74,0,0,1-1.8-.43l-23.22-13.4a4,4,0,0,1-1.78-3.11V304a4,4,0,0,1,1.45-2.85c-.64.56-.53,1.32.33,1.83l23.22,13.41A3.63,3.63,0,0,0,193.07,316.79Z" style="fill:#37474f"></path><path d="M173.58,303.2v46.37h0a3.61,3.61,0,0,0,2.14,3,11.42,11.42,0,0,0,10.31,0,3.61,3.61,0,0,0,2.14-3V303.2Z" style="fill:#263238"></path><polygon points="176.17 306.17 176.6 309.63 177.19 306.55 176.17 306.17" style="fill:#455a64"></polygon><polygon points="178.17 306.84 178.48 309.27 178.9 307.1 178.17 306.84" style="fill:#455a64"></polygon><path d="M175.72,306.17a11.36,11.36,0,0,0,10.31,0c2.85-1.64,2.85-4.31,0-5.95a11.36,11.36,0,0,0-10.31,0C172.87,301.86,172.87,304.53,175.72,306.17Z" style="fill:#37474f"></path><path d="M128.9,277.5v46.38h0a3.62,3.62,0,0,0,2.13,3,11.38,11.38,0,0,0,10.32,0,3.63,3.63,0,0,0,2.14-3V277.5Z" style="fill:#263238"></path><polygon points="131.49 280.48 131.92 283.94 132.51 280.85 131.49 280.48" style="fill:#455a64"></polygon><polygon points="133.49 281.15 133.8 283.58 134.21 281.41 133.49 281.15" style="fill:#455a64"></polygon><path d="M131,280.48a11.44,11.44,0,0,0,10.32,0c2.85-1.65,2.85-4.31,0-6a11.44,11.44,0,0,0-10.32,0C128.19,276.17,128.19,278.83,131,280.48Z" style="fill:#37474f"></path></g></g><g id="freepik--Character--inject-359"><g id="freepik--character--inject-359"><path d="M244,150.25c6.75.68,11.31,5,13.68,16.47,2.6,12.65,3.85,38.64,3.85,38.64L283.65,207s6.22,1.39,7.59,6.6-1.89,13.91-5.85,16.07-7.91.93-10.47.05-7.12-8.55-7.12-8.55-27.92-.25-28-.24S244,150.25,244,150.25Z" style="fill:#b16668"></path><path d="M241.42,149.81s5.78,0,9.71,2.73,6.1,6.77,7.53,17c1.47,10.65,2.92,26.08,2.92,26.08s-5,6.32-18.51,3.29Z" style="fill:#FFC100"></path><path d="M241.42,149.81s5.78,0,9.71,2.73,6.1,6.77,7.53,17c1.47,10.65,2.92,26.08,2.92,26.08s-5,6.32-18.51,3.29Z" style="opacity:0.5"></path><g id="freepik--Bottom--inject-359"><path d="M268.41,263c5.13,3.45,18.45-4.77,21.38-9.57s3.28-7.59-.46-10.25S261.52,252.24,268.41,263Z" style="fill:#FFC100"></path><path d="M268.41,263c5.13,3.45,18.45-4.77,21.38-9.57s3.28-7.59-.46-10.25S261.52,252.24,268.41,263Z" style="opacity:0.1"></path><path d="M264,261.71c1.24,1.15,3.63,4.59-5.24,10.82s-13.77,8.77-19.41,5.7S252.32,254.73,264,261.71Z" style="fill:#FFC100"></path><path d="M264,261.71c1.24,1.15,3.63,4.59-5.24,10.82s-13.77,8.77-19.41,5.7S252.32,254.73,264,261.71Z" style="opacity:0.1"></path><path d="M294.41,299.55c0,1.34-.87,2.66-2.62,3.67a14,14,0,0,1-12.69,0,4.74,4.74,0,0,1-2.59-3.17c-.9-5.07-1.6-14.93-2.31-21a68.49,68.49,0,0,1,.1-13.67l-26.88-16.8c.6.55,16.88,13.36,20.36,18,1.64,2.17,2.33,5.37,2.07,9-.6,8.6-2.45,26-3.66,38.74h0v0c0,.46-.07.92-.1,1.37h0a5,5,0,0,1-2.47,2.75,14,14,0,0,1-12.62,0,5.08,5.08,0,0,1-2.43-2.61v0l-.15-.74h0c-.85-4.4-1.57-13.69-1.84-16.92a167.43,167.43,0,0,1-.73-18.53s-27.88-15.8-36.46-22.12c-18.16-13.39-16.62-17.75-17.35-34.64,0,0,48.46-10.56,52.12-7.46,6.41,5.42,49.54,27.38,52.42,35.63C297.54,253.87,295.58,282.79,294.41,299.55Z" style="fill:#b16668"></path><path d="M256.89,255.84a74.69,74.69,0,0,1,7.14,5.87s-5.74-2.42-14.67,3.22c-4.7,3-9.52,9.18-10,13.3,0,0-29-15.4-37.77-23.91s-10.16-17.77-9.58-31.43l52.78-7s15.76,8.72,27.33,16c13.53,8.48,17.19,11.39,17.19,11.39s-3.72-1-10.67,3.5c-10,6.51-11.16,14.22-10.25,16.32Z" style="fill:#FFC100"></path><path d="M256.89,255.84a74.69,74.69,0,0,1,7.14,5.87s-5.74-2.42-14.67,3.22c-4.7,3-9.52,9.18-10,13.3,0,0-29-15.4-37.77-23.91s-10.16-17.77-9.58-31.43l52.78-7s15.76,8.72,27.33,16c13.53,8.48,17.19,11.39,17.19,11.39s-3.72-1-10.67,3.5c-10,6.51-11.16,14.22-10.25,16.32Z" style="fill:#fff;opacity:0.7000000000000001"></path><path d="M256.89,255.84l-17.11-14.79s5.56-4.69,8.14-10.24a14.24,14.24,0,0,1-4.67,10.24l14.27,13.84L268.41,263Z" style="opacity:0.1"></path></g><g id="freepik--Top--inject-359"><path d="M225.35,149.09a82.68,82.68,0,0,0-19.29,2.21c-3.87,1.17-5.1,5.34-7.61,10.38-2.37,4.75-4.12,14.73-5.22,32.36-.94,15-1.2,28.85-1.2,28.85,7.38,8,47.75,6.57,56.83-4.77a24.62,24.62,0,0,0-.69-5.25,30.33,30.33,0,0,1,.58-14.69c2.69-9.39,5.07-21.3,5.35-26.42.68-12.47-2.22-21-12.68-21.95Z" style="fill:#FFC100"></path><path d="M225.35,149.09a82.68,82.68,0,0,0-19.29,2.21c-3.87,1.17-5.1,5.34-7.61,10.38-2.37,4.75-4.12,14.73-5.22,32.36-.94,15-1.2,28.85-1.2,28.85,7.38,8,47.75,6.57,56.83-4.77a24.62,24.62,0,0,0-.69-5.25,30.33,30.33,0,0,1,.58-14.69c2.69-9.39,5.07-21.3,5.35-26.42.68-12.47-2.22-21-12.68-21.95Z" style="opacity:0.30000000000000004"></path><path d="M256.75,116.49c-.74,8.34-7.6,14.54-15.33,13.85s-13.39-8-12.65-16.33,7.61-14.54,15.33-13.85S257.49,108.16,256.75,116.49Z" style="fill:#263238"></path><path d="M214.09,122.11c-.69-7.83-.66-11.34,1.4-13.1a5.63,5.63,0,0,1,4.77-1.22l0,14h0l1,10.13-.59,8.75a4.26,4.26,0,0,1-3.51-2.91c-.88-2.24-2.34-10.94-2.89-14.32h-.09c0-.46-.08-.9-.12-1.33Z" style="fill:#263238"></path><path d="M221.65,124.82c-1,.46-2.11-1.4-3.13-2.68s-4.54-3.21-6.72.49.81,9.27,3.62,10.43c4.84,2,5.87-1.12,5.87-1.12l-1.21,18a47.12,47.12,0,0,0,13.27,15.24c2.2-2.78,4.51-10.76,3-14.28l.47-5.46a31.85,31.85,0,0,0,6.68.94c3.71-.25,6.27-2.93,7.74-6.8,2.35-6.2,3.91-11.4,3.29-23.28-.71-13.62-16.6-16.09-25.71-11.43S221.65,124.82,221.65,124.82Z" style="fill:#b16668"></path><path d="M221.51,126.35c-.46,0-1.94-3.08-3-4.21-1.44-1.57,1.74-14.35,1.74-14.35s-1.16-5.05,2.24-8c3.66-3.22,9.64-1.94,14-1.58,5.66.46,11.15,1,16.46-1.5a2.71,2.71,0,0,1,2.2-.37c2.42,1.12-.39,5.64-.94,7a5.64,5.64,0,0,0,3-1c.67-.41,1.56-1.07,1.67.23.42,5-3.17,9-7.74,10.33-3.18,1-6.6.57-9.87,0-2.25-.41-4.47-1.08-6.73-1.36-1.87-.24-3.75-.69-5.58-1.11-1.67-.38-2.18,1.23-3.49,5.63C224.31,119.86,223.06,126.46,221.51,126.35Z" style="fill:#263238"></path><path d="M220.18,108.8l-5.25-3.45a3,3,0,0,1,4.29-1A3.31,3.31,0,0,1,220.18,108.8Z" style="fill:#263238"></path><path d="M236.79,145.43s-6.68-2.33-9.41-4.11a9.41,9.41,0,0,1-3.6-4.26,12.85,12.85,0,0,0,1.84,4.81c1.85,2.86,11,5.73,11,5.73Z" style="fill:#9a4a4d"></path><path d="M236.86,124.81a1.65,1.65,0,1,1-1.37-1.94A1.67,1.67,0,0,1,236.86,124.81Z" style="fill:#263238"></path><path d="M234.94,118.64l-3.53,1.92a2.1,2.1,0,0,1,.84-2.79A2,2,0,0,1,234.94,118.64Z" style="fill:#263238"></path><path d="M236.63,135.62l4.12,2.3a2.32,2.32,0,0,1-3.19,1A2.46,2.46,0,0,1,236.63,135.62Z" style="fill:#9a4a4d"></path><path d="M251.93,121.12l-3.55-1.93a1.94,1.94,0,0,1,2.68-.87A2.14,2.14,0,0,1,251.93,121.12Z" style="fill:#263238"></path><path d="M250.55,125.49a1.66,1.66,0,0,1-1.88,1.43,1.71,1.71,0,1,1,1.88-1.43Z" style="fill:#263238"></path><polygon points="242.44 123.77 241.49 133.63 246.86 132.66 242.44 123.77" style="fill:#9a4a4d"></polygon></g><path d="M276.46,201.37c-3.52-2-6.68-2.16-8.94-.74-.47.29-1,.55-1.64.91a4.9,4.9,0,0,0-.48.31l-.08.05,0,0a4.92,4.92,0,0,0-.61.5l-.13.12a6.6,6.6,0,0,0-.49.55l-.17.22c-.13.18-.26.37-.38.57l-.18.33c-.1.19-.2.37-.29.57l-.18.47c-.07.19-.14.37-.2.56s-.1.41-.15.62a4.56,4.56,0,0,0-.13.53c-.05.26-.08.54-.12.81l-.06.46q-.06.66-.06,1.38c0,7.91,5.56,17.53,12.41,21.49.43.24.85.46,1.27.66.25.11.49.2.74.29a5.21,5.21,0,0,0,.5.2c.17.06.33.09.5.14s.48.15.71.2l.27,0c.3.05.6.1.89.13h.06a6.46,6.46,0,0,0,4-1c.61-.35,1.14-.61,1.82-1,2.18-1.31,3.52-4.06,3.52-7.94C288.87,215,283.31,205.33,276.46,201.37Zm-3.54,23.84c-2.13-1.66-5.11-6.67-6.28-9.48a21.87,21.87,0,0,0,2.17,1.33c3.23,1.67,3.14-.59,4.46,1s1.06,5.41,0,7.4A1.75,1.75,0,0,1,272.92,225.21Zm6.29-14.7a4.4,4.4,0,0,0-.53.24l-1.9,1.09a2.32,2.32,0,0,0-.95.94c-1.6-1.62-3.45-6.82-3.31-9.27,2.79,1,7.4,4.81,8.12,6.3a2.7,2.7,0,0,1,.13.36A7.83,7.83,0,0,0,279.21,210.51Zm-9.41-1.63c1,3.75,2.61,4.32,2.71,5.54-2.44-.39-6.41-2.76-6.67-5.12A9.38,9.38,0,0,1,268,203C269,203.46,268.94,205.81,269.8,208.88Zm7,19.66c-1.29-1.18.14-2.33.8-4.77a6.65,6.65,0,0,0,0-3.56c2.54,2,6.35,7.27,5.37,8.83,0,.06-.09.1-.13.16C280.69,229.76,277.71,229.38,276.81,228.54Zm6.06-8.15c-2.7-3.61-3.77-2.36-4.42-4.29a2.47,2.47,0,0,1,.87-2.58,3.18,3.18,0,0,1,3.91,1.31c1.32,2.34,2,6.6,2.11,9.25C284.7,223.12,283.89,221.75,282.87,220.39Z" style="fill:#e0e0e0"></path><path d="M276.46,201.37c-3.52-2-6.68-2.16-8.94-.74-.47.29-1,.55-1.64.91a4.9,4.9,0,0,0-.48.31l-.08.05,0,0a4.92,4.92,0,0,0-.61.5l-.13.12a6.6,6.6,0,0,0-.49.55l-.17.22c-.13.18-.26.37-.38.57l-.18.33c-.1.19-.2.37-.29.57l-.18.47c-.07.19-.14.37-.2.56s-.1.41-.15.62a4.56,4.56,0,0,0-.13.53c-.05.26-.08.54-.12.81l-.06.46q-.06.66-.06,1.38c0,7.91,5.56,17.53,12.41,21.49.43.24.85.46,1.27.66.25.11.49.2.74.29a5.21,5.21,0,0,0,.5.2c.17.06.33.09.5.14s.48.15.71.2l.27,0c.3.05.6.1.89.13h.06a6.46,6.46,0,0,0,4-1c.61-.35,1.14-.61,1.82-1,2.18-1.31,3.52-4.06,3.52-7.94C288.87,215,283.31,205.33,276.46,201.37Zm-3.54,23.84c-2.13-1.66-5.11-6.67-6.28-9.48a21.87,21.87,0,0,0,2.17,1.33c3.23,1.67,3.14-.59,4.46,1s1.06,5.41,0,7.4A1.75,1.75,0,0,1,272.92,225.21Zm6.29-14.7a4.4,4.4,0,0,0-.53.24l-1.9,1.09a2.32,2.32,0,0,0-.95.94c-1.6-1.62-3.45-6.82-3.31-9.27,2.79,1,7.4,4.81,8.12,6.3a2.7,2.7,0,0,1,.13.36A7.83,7.83,0,0,0,279.21,210.51Zm-9.41-1.63c1,3.75,2.61,4.32,2.71,5.54-2.44-.39-6.41-2.76-6.67-5.12A9.38,9.38,0,0,1,268,203C269,203.46,268.94,205.81,269.8,208.88Zm7,19.66c-1.29-1.18.14-2.33.8-4.77a6.65,6.65,0,0,0,0-3.56c2.54,2,6.35,7.27,5.37,8.83,0,.06-.09.1-.13.16C280.69,229.76,277.71,229.38,276.81,228.54Zm6.06-8.15c-2.7-3.61-3.77-2.36-4.42-4.29a2.47,2.47,0,0,1,.87-2.58,3.18,3.18,0,0,1,3.91,1.31c1.32,2.34,2,6.6,2.11,9.25C284.7,223.12,283.89,221.75,282.87,220.39Z" style="opacity:0.2"></path><path d="M274.55,202.45c-6.85-3.95-12.41-.74-12.41,7.17s5.56,17.53,12.41,21.49,12.4.74,12.4-7.17S281.4,206.41,274.55,202.45Zm-3.07.85c2.45,0,8.34,4.81,9.16,6.51s-1.35,1.08-3.32,1.78c-2.52.89-1.32,3.32-2.8,2.71C272.36,213.4,269,203.26,271.48,203.3Zm-3.7-.38c1.26.21,1.11,2.69,2,6,1.15,4.14,2.95,4.4,2.69,6-.37,2.27-8.18-1.12-8.56-4.46S266.52,202.7,267.78,202.92ZM271,226.28c-2.68-2.08-6.75-9.56-6.78-11.12s2,.59,4.57,1.9c3.23,1.67,3.14-.59,4.46,1C275.2,220.33,273.7,228.38,271,226.28ZM283,229c-1.28,2-6.75,1.76-8,.58s.15-2.33.81-4.78c.84-3.11-1-4.78.06-5.36C277.34,218.64,284.23,227,283,229Zm-2-7.58c-2.69-3.6-3.76-2.36-4.41-4.29-1-2.81,4.78-5.69,6.67-2.34s2.58,10.66,1.82,11.49S283.1,224.29,281,221.46Z" style="fill:#e0e0e0"></path><path d="M274.55,221.16c2.09,1.21,3.79.23,3.79-2.19a8.39,8.39,0,0,0-3.79-6.57c-2.1-1.21-3.8-.23-3.8,2.19A8.38,8.38,0,0,0,274.55,221.16Z" style="fill:#455a64"></path><path d="M267,206.86l-15.2,31h0a2.69,2.69,0,0,0,.46,2.69,8.48,8.48,0,0,0,6.9,3.39,2.69,2.69,0,0,0,2.4-1.3l15.2-31Z" style="fill:#263238"></path><path d="M267.48,209.55a8.48,8.48,0,0,0,6.9,3.38c2.44-.16,3.31-2,1.95-4a8.5,8.5,0,0,0-6.9-3.38C267,205.73,266.11,207.52,267.48,209.55Z" style="fill:#37474f"></path><path d="M207.33,151c-8.67.59-15.62,7.14-16.66,17-1,9,1.7,37.32,3.88,48.66,2.69,14,5.11,16.37,10.91,17.18,4.38.61,39.77,3.28,44.94,2.88s12.45,2.11,16,0,4.77-6.47,7.25-10.08.12-9,.12-9l-1.77,3.48c-.84.94-5.05,1.64-7.43-.92a5.72,5.72,0,0,1-1.57-5.28l1.54-3.15c-2.6-.65-3.82-.17-6.32,2.3s-1.92,4.9-8,6.65c-5.33,1.54-36.12-5.3-36.12-5.3L211,179.32S209.31,153.71,207.33,151Z" style="fill:#b16668"></path><path d="M208.33,150.81s-11.17.8-14.91,7.3c-5.12,8.93-3.2,24.11-2.54,33.8S192,205.06,192,205.06s3.75,2.71,11.28,1.8S213.68,202,213.68,202L211,168.28S212.22,154.94,208.33,150.81Z" style="fill:#FFC100"></path><path d="M208.33,150.81s-11.17.8-14.91,7.3c-5.12,8.93-3.2,24.11-2.54,33.8S192,205.06,192,205.06s3.75,2.71,11.28,1.8S213.68,202,213.68,202L211,168.28S212.22,154.94,208.33,150.81Z" style="opacity:0.5"></path><g id="freepik--Rod--inject-359"><path d="M411.22,336.05a.54.54,0,0,1-.53-.54V97.21a36.44,36.44,0,0,1-21.26,24.4c-18.08,7.8-30.15,2-33.5,0,.18,4-.21,18-13.23,29.8-12.58,11.42-28.82,10.56-33.06,10.1,1.87,3.87,7.67,19-6.95,34.62-12.3,13.11-26.86,12.31-27,12.3a.53.53,0,0,1-.5-.57.52.52,0,0,1,.57-.5c.14,0,14.21.76,26.15-12,16.31-17.37,6.43-34.1,6.33-34.27a.53.53,0,0,1,0-.58.51.51,0,0,1,.53-.23c.19,0,19.08,3.12,33.19-9.7,14.88-13.52,12.83-29.82,12.81-30a.54.54,0,0,1,.86-.5c.12.1,12.63,9.42,33.36.48a35.6,35.6,0,0,0,21.69-29.5.5.5,0,0,1,.54-.52.53.53,0,0,1,.53.53V335.51A.54.54,0,0,1,411.22,336.05Z" style="fill:#455a64"></path><path d="M270.11,207.5s21.44-43.32,65.08-76.75,78.09-42.49,78.54-41-35.23,11.52-76.34,43.93c-20.19,15.91-40.72,37.38-63.13,76.82,0,0-1,1.06-2.91-.26C269.08,208.59,270.11,207.5,270.11,207.5Z" style="fill:#FFC100"></path><path d="M379.7,105.88c-26.5,12.84-69.08,37.35-106.06,100.39,0,0-1.87,3.25-3.69,2.3a3.31,3.31,0,0,0,1.4,1.62c1.89,1.32,2.91.26,2.91.26,22.41-39.44,42.94-60.91,63.13-76.82a290.87,290.87,0,0,1,42.31-27.75Z" style="opacity:0.2"></path></g></g></g><g id="freepik--Bucket--inject-359"><g id="freepik--bucket--inject-359"><path d="M201,247.22H158.27l3.74,30.7h0c.23,2.42,1.94,4.79,5.13,6.64,6.89,4,18.06,4,24.94,0,3.2-1.85,4.91-4.22,5.14-6.64h0Z" style="fill:#FFC100"></path><path d="M201,247.22H158.27l3.74,30.7h0c.23,2.42,1.94,4.79,5.13,6.64,6.89,4,18.06,4,24.94,0,3.2-1.85,4.91-4.22,5.14-6.64h0Z" style="opacity:0.1"></path><ellipse cx="179.61" cy="246.54" rx="21.38" ry="12.34" style="fill:#FFC100"></ellipse><path d="M179.61,257.12a28.93,28.93,0,0,1-14.23-3.38c-3.47-2-5.38-4.56-5.38-7.2s1.91-5.2,5.38-7.21a31.67,31.67,0,0,1,28.47,0c3.47,2,5.38,4.56,5.38,7.21s-1.91,5.2-5.38,7.2A28.94,28.94,0,0,1,179.61,257.12Z" style="fill:#FFC100"></path><path d="M179.61,257.12a28.93,28.93,0,0,1-14.23-3.38c-3.47-2-5.38-4.56-5.38-7.2s1.91-5.2,5.38-7.21a31.67,31.67,0,0,1,28.47,0c3.47,2,5.38,4.56,5.38,7.21s-1.91,5.2-5.38,7.2A28.94,28.94,0,0,1,179.61,257.12Z" style="opacity:0.1"></path><path d="M179.61,249.77a28.93,28.93,0,0,0-14.23,3.38l-.47.3c.16.09.3.2.47.29a31.67,31.67,0,0,0,28.47,0c.17-.09.31-.2.47-.29l-.47-.3A28.94,28.94,0,0,0,179.61,249.77Z" style="fill:#f28f8f"></path><path d="M158.6,249.89l-1.27,1.46a11.37,11.37,0,0,0,2.91,17.3A22.2,22.2,0,0,0,188.08,264l4.37-5a1,1,0,0,1,1.58,1.36l-4.38,5.05a24.27,24.27,0,0,1-30.45,5.13A13.45,13.45,0,0,1,155.76,250l2.5-2.89Z" style="fill:#e0e0e0"></path></g></g></svg>
