<svg xmlns="http://www.w3.org/2000/svg" viewBox="0 0 500 500"><g id="freepik--Trees--inject-430"><g id="freepik--Pines--inject-430"><g id="freepik--Pine--inject-430"><path d="M63.53,238c-6.29,4.64-35.13,4-41.62,0-.57-2.51-.28-8.11.62-15.46l7.74,4.16-7-9.81c1-7.13,2.44-15.36,4.11-23.79l4.79,2.67-4.09-6.15q.48-2.37,1-4.74l5.46,2.68-4.69-6.27c1.39-6.37,2.87-12.62,4.36-18.35l4.35,1.27s-1.63-2.46-3.36-5c1.52-5.64,3.05-10.65,4.49-14.62a3.24,3.24,0,0,1,6.09,0c1.92,5.34,4,12.59,6.09,20.72L48,171.76l4.47-4c.93,3.75,1.85,7.67,2.73,11.64L49,190.49l7.44-5.21c1.24,5.83,2.38,11.69,3.39,17.3l-6,6,6.7-2.16c.13.69.24,1.36.35,2l-6.19,8.34L61.59,213C63.45,224.94,64.33,234.48,63.53,238Z" style="fill:#e0e0e0"></path><path d="M44.25,211.2,53,194.67l-8.93,11-1.38-51.29-1.07,31.21-6.26-9,6.06,14.67-1.08,31.61-11.92-11,11.76,15.58-1,45.71c0,1.84,6.25,1.84,6.25,0l-1.21-61.9Z" style="fill:#f0f0f0"></path></g><g id="freepik--pine--inject-430"><path d="M107.65,199.07c-5.26,3.88-29.37,3.34-34.81,0-.37-1.64-.31-4.84.09-9.1l6.26,2.27L73.37,186c.67-5.46,1.71-12.08,3-19.06l3.53,1.47-3.07-3.9c.13-.69.27-1.38.4-2.07l8.41,4.29-7.27-9.92c1.13-5.44,2.34-10.89,3.6-16l5.47,4.57-4.74-7.49c.35-1.36.7-2.7,1-4l4.84,2.63-4-5.81c1.05-3.72,2.09-7,3.07-9.75a2.7,2.7,0,0,1,5.09,0c1.47,4.07,3.06,9.48,4.64,15.56-1.37,3.19-2.46,5.69-2.46,5.69l3.49-1.62c.38,1.55.76,3.14,1.13,4.74-1.65,5.07-3.71,11.42-3.71,11.55.1-.19,2.54-4.56,4.51-8.07C105.14,169.88,108.92,193.52,107.65,199.07Z" style="fill:#e0e0e0"></path><path d="M91.52,176.67l7.35-13.82L91.4,172l-1.15-42.9-.9,26.1-5.23-7.55,5.07,12.27-.91,26.43-10-9.18,9.83,13L87.31,236c0,1.55,5.23,1.55,5.23,0l-1-59.35Z" style="fill:#f0f0f0"></path></g><g id="freepik--pine--inject-430"><path d="M453.72,215.67c-5.7,4.21-31.81,3.63-37.69,0a28.79,28.79,0,0,1-.12-7.21l8.91,4.09-8.52-8.44c.51-4.74,1.34-10.49,2.4-16.72l3.26,1.74-3-3.42c.61-3.51,1.29-7.17,2-10.86l5.3,4.26L421.58,172c.15-.77.31-1.54.47-2.3l7.25,6-6.14-11.19c1.14-5.18,2.33-10.27,3.53-15l4.73,3.6c-.11-.2-2-3.42-3.9-6.77,1.56-5.93,3.13-11.19,4.59-15.24a2.94,2.94,0,0,1,5.52,0c1.4,3.86,2.88,8.8,4.37,14.38h0l-2.89,6.34,3.45-4.22c.93,3.58,1.85,7.37,2.75,11.26l-6.2,13.65,7.33-8.66c.11.53.23,1.07.34,1.61l-3,7.05,3.47-4.8c1.26,6,2.42,11.93,3.41,17.59l-8.59,10.35,9.3-6.2c.21,1.3.42,2.58.61,3.83l-4.36,4.83,4.88-1.41C453.81,205.78,454.36,212.87,453.72,215.67Z" style="fill:#e0e0e0"></path><path d="M453.72,215.67c-5.7,4.21-31.81,3.63-37.69,0a28.79,28.79,0,0,1-.12-7.21l8.91,4.09-8.52-8.44c.51-4.74,1.34-10.49,2.4-16.72l3.26,1.74-3-3.42c.61-3.51,1.29-7.17,2-10.86l5.3,4.26L421.58,172c.15-.77.31-1.54.47-2.3l7.25,6-6.14-11.19c1.14-5.18,2.33-10.27,3.53-15l4.73,3.6c-.11-.2-2-3.42-3.9-6.77,1.56-5.93,3.13-11.19,4.59-15.24a2.94,2.94,0,0,1,5.52,0c1.4,3.86,2.88,8.8,4.37,14.38h0l-2.89,6.34,3.45-4.22c.93,3.58,1.85,7.37,2.75,11.26l-6.2,13.65,7.33-8.66c.11.53.23,1.07.34,1.61l-3,7.05,3.47-4.8c1.26,6,2.42,11.93,3.41,17.59l-8.59,10.35,9.3-6.2c.21,1.3.42,2.58.61,3.83l-4.36,4.83,4.88-1.41C453.81,205.78,454.36,212.87,453.72,215.67Z" style="opacity:0.15"></path><path d="M436.25,191.43l7.95-15-8.08,9.91-1.25-46.44-1,28.26L428.24,160l5.49,13.28-1,28.62L422,192l10.64,14.11-.9,49.48c0,1.67,5.65,1.67,5.65,0l-1.1-64.13Z" style="fill:#e0e0e0"></path></g><g id="freepik--pine--inject-430"><path d="M482,231.64c-6.44,4-35.07,4.6-41.32,0-.56-2.5-.27-8.11.63-15.47l8.1,3.46L442,211.34c.72-5.05,1.64-10.68,2.72-16.55l5,2.17L445,193c.26-1.36.52-2.73.78-4.12l8.29,4.78-7.44-9c.92-4.58,1.9-9.18,2.93-13.67l4.27,2.3-3.49-6c1.06-4.38,3.09-12.22,4.17-16.07l4.35,3.46-3.68-5.84c1.08-3.74,2.15-7.1,3.17-9.93a3.22,3.22,0,0,1,6.05,0c1.56,4.31,3.22,9.86,4.88,16.12h0l-3.38,7.68,4.5-3.41c1.17,4.62,2.32,9.51,3.44,14.51h0l-5.67,14.29L475,179q.6,2.86,1.19,5.73l-4,7.93,4.62-5c1.11,5.65,2.11,11.2,2.95,16.37h0l-9.24,14.52,10-9.56c.24,1.56.45,3.07.64,4.53l-7,8.56,7.52-4C482.37,224.52,482.57,229.36,482,231.64Z" style="fill:#e0e0e0"></path><path d="M472.12,196.23l-8.68,12.28-.91-26.5,4.68-15.84L462.36,177l-1-28.39-1.1,41-4.87-5.82,4.72,11.19-.62,23.25-10.07-10L459.34,225l-.67,51.57c0,1.83,6.2,1.83,6.2,0l-1.15-60.15Z" style="fill:#f0f0f0"></path></g><g id="freepik--pine--inject-430"><path d="M312.15,171.9c-5.5,3.39-29.94,3.93-35.28,0-.48-2.12-.24-6.84.51-13l6.93,4.09-6.27-9c.71-5,1.65-10.59,2.76-16.39l4.74,3.24-4.15-6.33c.14-.66.26-1.31.39-2l5.79,3.75-5.05-7.32c1-5,2.15-10,3.3-14.73l6.4,4.22-5.64-7.32q.48-1.92,1-3.75l4.68,3.52-3.91-6.39c1.24-4.51,2.46-8.52,3.62-11.72a2.74,2.74,0,0,1,5.16,0c1,2.69,2,5.94,3,9.6h0l-2.28,6,2.82-3.84,0-.06c1.53,5.58,3.08,11.92,4.52,18.45L301.52,136l4.94-7.39c.93,4.5,1.8,9,2.58,13.32h0l-5.36,18,6.66-10.35C312,160.23,312.85,168.82,312.15,171.9Z" style="fill:#e0e0e0"></path><path d="M312.15,171.9c-5.5,3.39-29.94,3.93-35.28,0-.48-2.12-.24-6.84.51-13l6.93,4.09-6.27-9c.71-5,1.65-10.59,2.76-16.39l4.74,3.24-4.15-6.33c.14-.66.26-1.31.39-2l5.79,3.75-5.05-7.32c1-5,2.15-10,3.3-14.73l6.4,4.22-5.64-7.32q.48-1.92,1-3.75l4.68,3.52-3.91-6.39c1.24-4.51,2.46-8.52,3.62-11.72a2.74,2.74,0,0,1,5.16,0c1,2.69,2,5.94,3,9.6h0l-2.28,6,2.82-3.84,0-.06c1.53,5.58,3.08,11.92,4.52,18.45L301.52,136l4.94-7.39c.93,4.5,1.8,9,2.58,13.32h0l-5.36,18,6.66-10.35C312,160.23,312.85,168.82,312.15,171.9Z" style="opacity:0.15"></path><path d="M303.68,141.67l-7.41,10.48-.78-22.62,4-13.53-4.15,9.24L294.51,101l-.94,35-4.16-5,4,9.56-.53,19.85-8.6-8.55,8.44,14.36L292.19,205c0,1.56,5.3,1.56,5.3,0l-1-46Z" style="fill:#e0e0e0"></path></g><g id="freepik--pine--inject-430"><path d="M134.5,188.05c-5.95,3.65-32.32,4.24-38.08,0a20.27,20.27,0,0,1-.23-4.8l6.14,2.74-5.71-8.77c.36-3.63.93-7.9,1.66-12.55l6,3.12L99,160.18c.12-.73.25-1.48.39-2.24l9.69,5.62-8.45-12.49c1.3-6.9,2.81-14.07,4.39-20.89l5.62,4.23-4.48-9.06c.21-.87.43-1.72.63-2.57l5.55,4.41-4.24-9.45c1.54-5.88,3.1-11.1,4.56-15.13a3,3,0,0,1,5.58,0c1.39,3.87,2.88,8.82,4.38,14.41L121,127.19l3.2-4.25c1.4,5.67,2.8,11.77,4.07,17.88L124,153.94l5.41-7.17c1.23,6.17,2.32,12.24,3.18,17.77l-2.43,6,3-1.84c.22,1.46.41,2.89.58,4.24l-5.3,8.82,5.77-4.66C134.82,182.23,134.94,186.13,134.5,188.05Z" style="fill:#e0e0e0"></path><path d="M134.5,188.05c-5.95,3.65-32.32,4.24-38.08,0a20.27,20.27,0,0,1-.23-4.8l6.14,2.74-5.71-8.77c.36-3.63.93-7.9,1.66-12.55l6,3.12L99,160.18c.12-.73.25-1.48.39-2.24l9.69,5.62-8.45-12.49c1.3-6.9,2.81-14.07,4.39-20.89l5.62,4.23-4.48-9.06c.21-.87.43-1.72.63-2.57l5.55,4.41-4.24-9.45c1.54-5.88,3.1-11.1,4.56-15.13a3,3,0,0,1,5.58,0c1.39,3.87,2.88,8.82,4.38,14.41L121,127.19l3.2-4.25c1.4,5.67,2.8,11.77,4.07,17.88L124,153.94l5.41-7.17c1.23,6.17,2.32,12.24,3.18,17.77l-2.43,6,3-1.84c.22,1.46.41,2.89.58,4.24l-5.3,8.82,5.77-4.66C134.82,182.23,134.94,186.13,134.5,188.05Z" style="opacity:0.15"></path><path d="M114.06,163.56l-8-15.12,8.17,10,1.26-46.9,1,28.54,5.72-8.26-5.54,13.41,1,28.91,10.9-10-10.75,14.25.91,53c0,1.69-5.72,1.69-5.72,0l1.11-67.85Z" style="fill:#e0e0e0"></path></g><g id="freepik--pine--inject-430"><path d="M334.74,175.09c-5.09,3.15-27.69,3.64-32.63,0-.38-1.65-.27-5,.18-9.49l5.06,1-4.71-4.08c.22-1.74.47-3.59.76-5.53l9.38,3.74-8.93-6.61c.95-6,2.18-12.6,3.57-19.23l7.25,5.8-6.58-9c.57-2.64,1.17-5.28,1.78-7.84l5.89,3.69-5.19-6.63c.56-2.29,1.13-4.51,1.69-6.64l3.5,3.83L313.44,110c.89-3.08,1.76-5.85,2.59-8.15a2.54,2.54,0,0,1,4.78,0c1.39,3.84,2.89,8.94,4.38,14.69h0l-2.65,5.68,3.47-2.4c1.11,4.47,2.2,9.22,3.21,14h0l-5.33,11,6.19-6.78c.47,2.3.92,4.59,1.32,6.84L328,150.07l4-2.32c.86,4.82,1.58,9.39,2.11,13.39h0l-5.54,8.77,6.16-3.31C335,170.57,335.09,173.57,334.74,175.09Z" style="fill:#e0e0e0"></path><path d="M317.23,154.1l-6.88-13,7,8.59,1.08-40.21.84,24.46,4.9-7.08-4.75,11.5.85,24.78,9.34-8.61-9.22,12.22.79,40.18c0,1.45-4.9,1.45-4.9,0l1-52.87Z" style="fill:#f0f0f0"></path></g></g></g><g id="freepik--Plants--inject-430"><g id="freepik--Shrubbery--inject-430"><path d="M482.27,281.57a7.66,7.66,0,0,0-4.44-5.06,4.41,4.41,0,0,0,2.6-4.39,11.83,11.83,0,0,0-1.79-5.11,5.79,5.79,0,0,0-.57-10.95c2-2.53,3-6.33,1.05-8.92-1.58-2.13-4.51-2.7-7.16-2.68s-5.37.6-6.75,2.73a5.24,5.24,0,0,0-6.83-4.36,6.89,6.89,0,0,0,1.21-2.53,8.31,8.31,0,0,0-1-6.36,4.65,4.65,0,0,0-2.16-2.07,3.39,3.39,0,0,0-1.1-.07,21.76,21.76,0,0,0-3.52.08A8.7,8.7,0,0,0,439,221.71a7.41,7.41,0,0,0-14.64-1.87,5.45,5.45,0,0,0-10.54,1,7.65,7.65,0,0,0-6.91-8.53,4.89,4.89,0,0,0,3.56-5.19,7.28,7.28,0,0,0-3.79-5.44,4.61,4.61,0,0,0-3.52-8.13,6.48,6.48,0,0,0-6.59-5.53,8.06,8.06,0,0,0-7,5.52A8.12,8.12,0,0,0,378,203a11.45,11.45,0,0,0-5.87-3.25c-2.25-.33-4.81.64-5.73,2.72-.78-2.33-2.09-4.64-4.25-5.8s-5.29-.76-6.51,1.37a9.77,9.77,0,0,0-1.26-3.48,10.23,10.23,0,0,0-1.1-1.51c-.17-.18-.33-.4-.51-.58s-.11-.13-.18-.18-1.11-.65-1.31-.56c2.36-1,2.51-4.66.75-6.53s-4.6-2.26-7.15-2a5.71,5.71,0,1,0-11.41-.07c-1.18-2.47-5-2.48-7-.67s-2.77,4.65-3.32,7.33a7.81,7.81,0,0,0-9.91-1,7.42,7.42,0,0,0-6.08-9c1.79-3.33-1.83-7.54-5.61-7.62s-7.07,2.55-9.59,5.37c-5.38-2.79-12.92,2.33-12.31,8.36-3.81-4.58-12.06-4.22-15.45.68a7.84,7.84,0,0,0-9.46-5.29c1.61-4.93-4.74-10.25-9.31-7.8a5.86,5.86,0,1,0-11.47,1.76c-5.28-.55-9.73,6.12-7.2,10.78a6.67,6.67,0,0,0-9,1.89c.94-2.34-2-5.11-4.3-4a4.93,4.93,0,0,0-9.26-3.3c.05-3-3.78-4.77-6.52-3.68s-4.31,4-5,6.87c-1.79-4.12-8.63-4.52-10.88-.63a9.05,9.05,0,0,0-18-1.74,7.74,7.74,0,0,0-14.14,6c-5.41-.89-9.58,7.12-5.76,11-2.13-2.69-7.13-2-8.48,1.13,1.23-3.1-2-7-5.24-6.33A5.77,5.77,0,1,0,119,190.2c-2-3.57-7.81-2.9-10.43.25s-2.92,7.54-3.12,11.63c-2.09-1.57-5.36.31-6,2.85s.58,5.17,2,7.33a8.17,8.17,0,0,0-9.48,5,4.9,4.9,0,0,0-9-3.45c-.15-3.71-6-4.75-8.49-2s-2.21,7.05-.94,10.54c-2-3.11-7.45-1.59-8.84,1.84s.13,7.37,2.2,10.44c-4.12-1.06-8.56,3.34-7.54,7.48-3.47-3.35-10.49.75-9.28,5.41-1-3.37-6.13-3.86-8.8-1.54s-3.37,6.15-3.45,9.68c-1.2-2.55-5.33-2.12-7,.13s-1.65,5.32-1.49,8.13c-3.56-1.6-7.91,3.1-6.05,6.52A11.24,11.24,0,0,0,25.79,292H480.16C482,290.56,482.81,283.83,482.27,281.57Z" style="fill:#f0f0f0"></path></g></g><g id="freepik--Floor--inject-430"><g id="freepik--Field--inject-430"><ellipse id="freepik--Grass--inject-430" cx="249.7" cy="341.83" rx="244.73" ry="149.77" style="fill:#FFC100"></ellipse><ellipse id="freepik--grass--inject-430" cx="249.7" cy="341.83" rx="244.73" ry="149.77" style="fill:#fff;opacity:0.4"></ellipse><g style="opacity:0.30000000000000004"><path d="M45.62,339.71a7.87,7.87,0,0,0-1.19-2.39,9,9,0,0,0-1.13-1.18c-.27-.23-.67-.61-1-.51-.11,0-.1.25,0,.32.25.33.62.55.84.9a5.09,5.09,0,0,1,.4,1,16.8,16.8,0,0,1,.8,2.65,17.81,17.81,0,0,1,.34,2.51c0,.42.06.83.11,1.25a5.36,5.36,0,0,0,.29,1.13c0,.13.26.36.4.21a4.16,4.16,0,0,0,.75-3A10.39,10.39,0,0,0,45.62,339.71Z" style="fill:#FFC100"></path><path d="M48.7,326.87c-1.78,2.2-1.8,5.4-1.82,8.11,0,1.64,0,3.28.06,4.91a19.09,19.09,0,0,0,.44,5.24c.06.18.44.56.56.21.53-1.43.33-3.33.36-4.84s0-3.22,0-4.83a37.34,37.34,0,0,1,.22-4.36c.15-1.36.46-2.7.63-4.06C49.16,327.08,48.88,326.65,48.7,326.87Z" style="fill:#FFC100"></path><path d="M52.87,335.56c-.92.17-1.59,1.23-2,2a9.86,9.86,0,0,0-.82,2.24,16.94,16.94,0,0,0-.39,2.65c-.08,1-.27,2,.38,2.84.08.09.29.21.41.11.69-.58.52-1.71.58-2.53a18.93,18.93,0,0,1,.38-2.69,11.3,11.3,0,0,1,.74-2.19,10.22,10.22,0,0,0,.92-2.09C53.09,335.79,53,335.52,52.87,335.56Z" style="fill:#FFC100"></path><path d="M112.47,261.8a7.87,7.87,0,0,0-1.19-2.39,9,9,0,0,0-1.13-1.18c-.27-.23-.67-.61-1.05-.51-.11,0-.1.25,0,.32.25.33.62.55.84.9a5.09,5.09,0,0,1,.4,1,18,18,0,0,1,.81,2.65,19.61,19.61,0,0,1,.33,2.51c0,.42.06.83.11,1.25a5.61,5.61,0,0,0,.29,1.14c0,.12.26.35.4.2a4.16,4.16,0,0,0,.75-3A10.39,10.39,0,0,0,112.47,261.8Z" style="fill:#FFC100"></path><path d="M115.55,249c-1.78,2.2-1.8,5.4-1.82,8.11,0,1.64,0,3.28.06,4.91a19.09,19.09,0,0,0,.44,5.24c.06.18.44.56.56.21.53-1.43.33-3.33.36-4.84s0-3.22,0-4.83a37.34,37.34,0,0,1,.22-4.36c.15-1.36.46-2.7.63-4.06C116,249.17,115.74,248.74,115.55,249Z" style="fill:#FFC100"></path><path d="M119.72,257.65c-.92.18-1.59,1.23-2,2a9.61,9.61,0,0,0-.82,2.23,16.89,16.89,0,0,0-.39,2.66,3.79,3.79,0,0,0,.38,2.83c.08.09.29.21.41.11.69-.58.52-1.71.58-2.53a18.93,18.93,0,0,1,.38-2.69,12.27,12.27,0,0,1,.74-2.19,10.14,10.14,0,0,0,.92-2.08C119.94,257.88,119.89,257.62,119.72,257.65Z" style="fill:#FFC100"></path><path d="M136.84,431.91a6.79,6.79,0,0,0-1-2.09,8,8,0,0,0-1-1c-.24-.2-.59-.53-.92-.44-.1,0-.09.21,0,.27.22.29.54.48.73.79a4.48,4.48,0,0,1,.35.85,14.73,14.73,0,0,1,.7,2.32,14.91,14.91,0,0,1,.3,2.2c0,.36.05.72.09,1.09a5.74,5.74,0,0,0,.25,1c0,.11.23.31.36.18a3.7,3.7,0,0,0,.66-2.66A9.06,9.06,0,0,0,136.84,431.91Z" style="fill:#FFC100"></path><path d="M139.54,420.68c-1.56,1.93-1.57,4.72-1.59,7.1,0,1.43,0,2.86.05,4.29a16.78,16.78,0,0,0,.39,4.59c.05.16.38.48.49.18a13.63,13.63,0,0,0,.31-4.24c0-1.41,0-2.81,0-4.22a34.47,34.47,0,0,1,.19-3.81c.14-1.2.41-2.37.56-3.56C140,420.87,139.7,420.49,139.54,420.68Z" style="fill:#FFC100"></path><path d="M143.19,428.28c-.81.16-1.39,1.08-1.75,1.76a8,8,0,0,0-.71,1.95,14,14,0,0,0-.35,2.32,3.31,3.31,0,0,0,.33,2.48c.07.09.26.19.36.1.61-.5.46-1.5.51-2.21a16.82,16.82,0,0,1,.33-2.35,10.58,10.58,0,0,1,.65-1.92,9.16,9.16,0,0,0,.8-1.82C143.38,428.49,143.34,428.25,143.19,428.28Z" style="fill:#FFC100"></path><path d="M362.4,379.78a6.6,6.6,0,0,0-1-2.09,6.87,6.87,0,0,0-1-1c-.23-.2-.58-.54-.91-.45-.1,0-.09.22,0,.28.22.29.54.48.73.79a4.48,4.48,0,0,1,.35.85,14.73,14.73,0,0,1,.7,2.32,16.24,16.24,0,0,1,.3,2.19c0,.37.05.73.09,1.09a5.63,5.63,0,0,0,.25,1c0,.11.23.31.36.17a3.68,3.68,0,0,0,.66-2.65A9.06,9.06,0,0,0,362.4,379.78Z" style="fill:#FFC100"></path><path d="M365.1,368.55c-1.56,1.93-1.57,4.72-1.59,7.1,0,1.43,0,2.86.05,4.29a16.67,16.67,0,0,0,.39,4.58c.05.16.38.49.49.19a13.65,13.65,0,0,0,.31-4.24c0-1.41,0-2.82,0-4.22a34.78,34.78,0,0,1,.19-3.82c.14-1.19.41-2.36.56-3.55C365.5,368.74,365.26,368.35,365.1,368.55Z" style="fill:#FFC100"></path><path d="M368.75,376.15c-.81.15-1.39,1.07-1.75,1.75a8.07,8.07,0,0,0-.71,2,14,14,0,0,0-.35,2.32,3.32,3.32,0,0,0,.33,2.48c.07.08.26.19.36.1.61-.51.46-1.5.51-2.21a16.82,16.82,0,0,1,.33-2.35,11,11,0,0,1,.65-1.93,8.68,8.68,0,0,0,.8-1.82C368.94,376.36,368.9,376.12,368.75,376.15Z" style="fill:#FFC100"></path><path d="M355,379.86a6.44,6.44,0,0,1,2.12-3.26c.24-.21.61-.56.95-.47.1,0,.1.22.05.29a10.09,10.09,0,0,0-.77.83,4.64,4.64,0,0,0-.37.89,15.68,15.68,0,0,0-.73,2.42,17.74,17.74,0,0,0-.31,2.29c0,.39-.05.76-.1,1.14a4.66,4.66,0,0,1-.26,1c0,.12-.24.33-.37.19a3.87,3.87,0,0,1-.69-2.78A9.05,9.05,0,0,1,355,379.86Z" style="fill:#FFC100"></path><path d="M352.21,368.12c1.64,2,1.65,4.93,1.67,7.42,0,1.49,0,3-.05,4.49a17.85,17.85,0,0,1-.41,4.79c-.05.16-.4.5-.51.19a14.57,14.57,0,0,1-.33-4.43c0-1.47,0-2.94,0-4.42a35.24,35.24,0,0,0-.2-4c-.14-1.25-.42-2.47-.58-3.72C351.79,368.31,352.05,367.92,352.21,368.12Z" style="fill:#FFC100"></path><path d="M348.4,376.06c.84.16,1.46,1.13,1.83,1.84a9.07,9.07,0,0,1,.75,2,15.32,15.32,0,0,1,.36,2.43A3.46,3.46,0,0,1,351,385c-.07.09-.27.2-.38.11-.63-.53-.47-1.57-.52-2.32a18.44,18.44,0,0,0-.35-2.46,11,11,0,0,0-.68-2,8.74,8.74,0,0,1-.84-1.91C348.2,376.28,348.24,376,348.4,376.06Z" style="fill:#FFC100"></path><path d="M396.19,275.88a6.66,6.66,0,0,0-1-2.08,6.89,6.89,0,0,0-1-1c-.23-.2-.58-.54-.91-.45-.09,0-.09.21,0,.28.22.29.54.48.73.79a4.39,4.39,0,0,1,.35.84,14.73,14.73,0,0,1,.7,2.32,17.74,17.74,0,0,1,.3,2.19q0,.54.09,1.08a4.63,4.63,0,0,0,.25,1c0,.12.23.32.35.18a3.63,3.63,0,0,0,.66-2.65A9,9,0,0,0,396.19,275.88Z" style="fill:#FFC100"></path><path d="M398.88,264.68c-1.56,1.92-1.57,4.71-1.59,7.08,0,1.42,0,2.85,0,4.28a16.6,16.6,0,0,0,.39,4.57c0,.16.38.48.49.18a14.13,14.13,0,0,0,.31-4.22c0-1.41,0-2.81,0-4.22a32.13,32.13,0,0,1,.19-3.8c.13-1.19.41-2.36.55-3.54C399.28,264.86,399,264.48,398.88,264.68Z" style="fill:#FFC100"></path><path d="M402.52,272.26c-.81.15-1.39,1.07-1.75,1.75a8.53,8.53,0,0,0-.71,1.94,14.25,14.25,0,0,0-.35,2.33,3.35,3.35,0,0,0,.34,2.47c.06.08.25.19.36.1.6-.51.45-1.5.5-2.21a17,17,0,0,1,.33-2.35,11.58,11.58,0,0,1,.64-1.91,8.44,8.44,0,0,0,.81-1.82C402.7,272.46,402.67,272.23,402.52,272.26Z" style="fill:#FFC100"></path><path d="M299.29,300a6.79,6.79,0,0,0-1-2.09,7.41,7.41,0,0,0-1-1c-.23-.2-.58-.53-.91-.44-.1,0-.09.21,0,.27.21.29.53.48.73.79a5.24,5.24,0,0,1,.35.85,17.06,17.06,0,0,1,.7,2.31,16.21,16.21,0,0,1,.29,2.19c0,.37.05.72.1,1.09a4.23,4.23,0,0,0,.25,1c0,.11.22.31.35.18a3.69,3.69,0,0,0,.66-2.65A8.92,8.92,0,0,0,299.29,300Z" style="fill:#FFC100"></path><path d="M302,288.81c-1.56,1.92-1.57,4.7-1.59,7.07,0,1.43,0,2.86.05,4.28a17.07,17.07,0,0,0,.38,4.58c.06.16.38.48.49.18a13.59,13.59,0,0,0,.31-4.23c0-1.4,0-2.81,0-4.21a32.13,32.13,0,0,1,.19-3.8c.13-1.19.4-2.36.55-3.55C302.39,289,302.15,288.61,302,288.81Z" style="fill:#FFC100"></path><path d="M305.62,296.38c-.8.16-1.39,1.08-1.74,1.75a8.15,8.15,0,0,0-.71,1.95,14,14,0,0,0-.35,2.32,3.33,3.33,0,0,0,.33,2.47c.07.09.26.19.36.1.6-.5.45-1.49.51-2.21a16.89,16.89,0,0,1,.33-2.34,10.82,10.82,0,0,1,.64-1.92,8.36,8.36,0,0,0,.81-1.81C305.81,296.59,305.77,296.35,305.62,296.38Z" style="fill:#FFC100"></path><path d="M453.94,346.69a7.22,7.22,0,0,0-1.08-2.19,8.16,8.16,0,0,0-1-1.08c-.24-.21-.61-.55-.95-.46-.11,0-.1.22-.05.29.23.3.56.5.77.83a4.18,4.18,0,0,1,.36.88,16.18,16.18,0,0,1,.74,2.43,17.74,17.74,0,0,1,.31,2.29c0,.39.05.76.1,1.14a4.66,4.66,0,0,0,.26,1c0,.12.24.33.37.19a3.87,3.87,0,0,0,.69-2.78A9.8,9.8,0,0,0,453.94,346.69Z" style="fill:#FFC100"></path><path d="M456.77,335c-1.64,2-1.65,4.93-1.67,7.42,0,1.49,0,3,0,4.48a17.89,17.89,0,0,0,.41,4.8c.05.16.39.5.51.19a14.57,14.57,0,0,0,.33-4.43c0-1.47,0-2.94,0-4.42a35.24,35.24,0,0,1,.19-4c.15-1.25.43-2.47.59-3.72C457.18,335.14,456.93,334.74,456.77,335Z" style="fill:#FFC100"></path><path d="M460.58,342.89c-.85.16-1.46,1.13-1.84,1.84a9,9,0,0,0-.74,2,14.1,14.1,0,0,0-.36,2.43,3.46,3.46,0,0,0,.35,2.59c.07.09.27.2.37.11.63-.53.48-1.57.53-2.32a16.94,16.94,0,0,1,.35-2.46,11.29,11.29,0,0,1,.67-2,9,9,0,0,0,.85-1.9C460.77,343.11,460.73,342.86,460.58,342.89Z" style="fill:#FFC100"></path><path d="M286.44,448.18a7.06,7.06,0,0,0-1.08-2.18,8.16,8.16,0,0,0-1-1.08c-.24-.21-.61-.56-.95-.46-.1,0-.1.22-.05.28.23.31.56.51.77.83a4.64,4.64,0,0,1,.37.89,17.26,17.26,0,0,1,.73,2.42,17.89,17.89,0,0,1,.31,2.3c0,.38.05.76.1,1.14a4.66,4.66,0,0,0,.26,1c0,.12.24.32.37.18a3.86,3.86,0,0,0,.69-2.78A10,10,0,0,0,286.44,448.18Z" style="fill:#FFC100"></path><path d="M289.27,436.44c-1.64,2-1.65,4.94-1.67,7.42,0,1.5,0,3,0,4.49a17.78,17.78,0,0,0,.41,4.79c.05.17.4.51.51.2a14.62,14.62,0,0,0,.33-4.44c0-1.47,0-2.94,0-4.41a33.32,33.32,0,0,1,.2-4c.14-1.24.42-2.47.58-3.71C289.68,436.64,289.43,436.24,289.27,436.44Z" style="fill:#FFC100"></path><path d="M293.08,444.39c-.84.16-1.46,1.12-1.84,1.83a9.41,9.41,0,0,0-.74,2,15.44,15.44,0,0,0-.36,2.44,3.46,3.46,0,0,0,.35,2.59c.07.08.27.19.38.1.62-.53.47-1.57.52-2.31a16.94,16.94,0,0,1,.35-2.46,11.85,11.85,0,0,1,.67-2,9.21,9.21,0,0,0,.85-1.9C293.27,444.6,293.24,444.36,293.08,444.39Z" style="fill:#FFC100"></path></g></g></g><g id="freepik--Clouds--inject-430"><path id="freepik--Cloud--inject-430" d="M328.73,44.6c0-3.51-3.85-6-8.21-6.36-5.14-.49-8.78,1.8-8.91,5.85-3.35-1.38-6.9-.5-6.63,3.2-.87-1-4.14-1-5.32-.7a4.59,4.59,0,0,0-2.92,2.49,3.4,3.4,0,0,0-.31,1.89c-1.95-.64-6.41-1-7.52.76-2,3.2,5.94,3.3,7.53,2.34.34,2.48,8.85,2.89,10.91.6,1.61,1.62,3.93,2,6.42,2.12,4.21.25,6.8-1.17,10.08-2.85,3.57,3,9.75,3.08,13-.38.82.77,3.08,1,4.89.58,1.19-.28,1.47-.79,1.47-.79a10.5,10.5,0,0,0,2.18.66c2.34.49,6.68,0,4.86-2.13-.62-.72-2.89-1.17-3.86-1-1-2-5.1-3.9-7.45-2.21-.09-2.43-2.31-4.32-5.43-4.81C332.43,43.75,329.92,43.61,328.73,44.6Z" style="fill:#f5f5f5"></path><path id="freepik--cloud--inject-430" d="M153.53,36.35c0-3.89-4.26-6.59-9.08-7-5.67-.53-9.7,2-9.84,6.47-3.71-1.53-7.62-.55-7.33,3.53-1-1.11-4.58-1.08-5.88-.77a5.06,5.06,0,0,0-3.23,2.76,3.68,3.68,0,0,0-.34,2.09c-2.16-.71-7.09-1.15-8.32.84-2.19,3.53,6.57,3.65,8.33,2.58.38,2.75,9.79,3.2,12.06.66,1.78,1.79,4.34,2.19,7.1,2.35,4.65.28,7.51-1.3,11.14-3.15,4,3.35,10.78,3.41,14.34-.42.9.85,3.4,1.12,5.41.64,1.31-.31,1.62-.87,1.62-.87a11.55,11.55,0,0,0,2.41.72c2.58.54,7.38,0,5.37-2.35-.69-.79-3.2-1.3-4.26-1-1.13-2.22-5.65-4.31-8.24-2.44-.1-2.68-2.55-4.78-6-5.32C157.63,35.41,154.85,35.25,153.53,36.35Z" style="fill:#f5f5f5"></path><path id="freepik--cloud--inject-430" d="M73.31,72.61c0-3.66-4-6.2-8.56-6.63-5.35-.5-9.14,1.88-9.27,6.1-3.5-1.44-7.19-.52-6.91,3.33-.91-1-4.32-1-5.54-.73A4.8,4.8,0,0,0,40,77.28a3.59,3.59,0,0,0-.32,2c-2-.67-6.68-1.08-7.84.79-2.06,3.33,6.19,3.44,7.85,2.43.36,2.59,9.22,3,11.37.63,1.68,1.69,4.09,2.06,6.69,2.21,4.39.27,7.08-1.22,10.5-3C72,85.5,78.39,85.55,81.74,82c.86.8,3.21,1,5.1.6,1.24-.29,1.53-.82,1.53-.82a11,11,0,0,0,2.27.68c2.44.51,7,0,5.06-2.22-.64-.74-3-1.22-4-1-1.06-2.08-5.32-4.06-7.76-2.3-.09-2.53-2.41-4.5-5.66-5C77.17,71.73,74.55,71.58,73.31,72.61Z" style="fill:#f5f5f5"></path></g><g id="freepik--Sun--inject-430"><circle id="freepik--sun--inject-430" cx="421.96" cy="62.72" r="16.42" transform="translate(8.12 166.25) rotate(-22.5)" style="fill:#f0997a"></circle></g><g id="freepik--Shadows--inject-430"><ellipse id="freepik--Shadow--inject-430" cx="210.4" cy="372.84" rx="68.1" ry="39.32" style="fill:#FFC100;opacity:0.4"></ellipse><path id="freepik--shadow--inject-430" d="M126,398.34c3.42,2,3.42,5.17,0,7.15a13.71,13.71,0,0,1-12.38,0c-3.42-2-3.42-5.18,0-7.15A13.71,13.71,0,0,1,126,398.34Z" style="fill:#FFC100;opacity:0.4"></path></g><g id="freepik--Flag--inject-430"><g id="freepik--flag--inject-430"><path d="M368.37,384.66c5.34,3.08,5.34,8.08,0,11.16s-14,3.08-19.32,0-5.33-8.08,0-11.16S363,381.58,368.37,384.66Z" style="fill:#FFC100"></path><path d="M349.05,394.66c-.32.19-.62.38-.9.58.28.2.58.39.9.58,5.34,3.08,14,3.08,19.32,0,.32-.19.62-.38.91-.58-.29-.2-.59-.39-.91-.58C363,391.58,354.39,391.58,349.05,394.66Z" style="fill:#fafafa"></path><path d="M360.67,107.48c0,.25,0,242.64,0,285V398a21.28,21.28,0,0,1-3.91,0V107.48a1,1,0,0,1,.58-.8,3.07,3.07,0,0,1,2.77,0A1,1,0,0,1,360.67,107.48Z" style="fill:#37474f"></path><path d="M357.33,108.27a.85.85,0,0,1,0-1.6,3.07,3.07,0,0,1,2.77,0,.85.85,0,0,1,0,1.6A3.07,3.07,0,0,1,357.33,108.27Z" style="fill:#263238"></path><path d="M360.67,110.69a24.44,24.44,0,0,1,21.76,7.87c9.68,10.43,20.72,14.06,27.68,9.83-2.72,10.89-16.33,14.52-30.85,7.86-8.36-3.83-17.36-.45-18.59,1.67Z" style="fill:#FFC100"></path><path d="M379.26,136.25c9.18,4.21,18,4.3,23.93,1h0c-8.51,3.22-15.83.46-21.26-2.75-5.72-3.39-10-2.89-14.57-4.27-5.26-1.6-6.69-11.07-6.69-19.58v27.23C361.9,135.8,370.9,132.42,379.26,136.25Z" style="opacity:0.15"></path></g></g><g id="freepik--golf-ball--inject-430"><g id="freepik--Ball--inject-430"><path d="M114.29,392.77a12.29,12.29,0,0,1,2.54,2.76c.89,1.47.59,3,.59,5.51a1.19,1.19,0,0,0,.7,1,3.79,3.79,0,0,0,3.38,0,1.19,1.19,0,0,0,.7-1c0-2.53-.3-4,.59-5.51a12.29,12.29,0,0,1,2.54-2.76Z" style="fill:#37474f"></path><ellipse cx="119.81" cy="390.26" rx="7.02" ry="4.05" style="fill:#455a64"></ellipse><circle cx="119.81" cy="385.63" r="7.81" style="fill:#f5f5f5"></circle><path d="M119.81,393.44a7.81,7.81,0,0,0,7.81-7.81,7.73,7.73,0,0,0-1.75-4.87c1.28,2.29.64,8.47-4,10a7.51,7.51,0,0,1-9.9-5.15A7.81,7.81,0,0,0,119.81,393.44Z" style="fill:#e0e0e0"></path></g></g><g id="freepik--Character--inject-430"><g id="freepik--character--inject-430"><g id="freepik--Bottom--inject-430"><path d="M224.72,315.22c-3.43-14.66-5-19.47-7.87-31.43S207.3,237,207.3,237l-14.78,32.49s4.65,6.5,4.8,21.05c.13,12.6.91,43,.91,43,1.2,5.58,5,12,4,16.51-.69,3.18-3.81,4.85-6.74,5.15-3.59.38-7.51,2.49-10.26,4.74-2.45,2-4.4,4.56-6.84,6.57a20.73,20.73,0,0,1-9.21,4.3c-3.9.75-8.23-.1-11.95-1.45-2.21-.81-5.59-2.51-5.25-5.35a3.05,3.05,0,0,1,.44-1.2c1-1.65,2.8-2.59,4.47-3.56A69.8,69.8,0,0,0,167,351.84a28.1,28.1,0,0,0,4.29-4.08,62.11,62.11,0,0,0,3.54-5.12c1.12-1.82,2.43-4,2.67-6.16s-.57-4.73-1-6.88c-2-10.21-4.52-20.33-6.87-30.47-3-12.76-5.1-19.49-5.89-23.07-2.14-9.7-3.29-12.65,3.36-44,4-19,11.16-50.27,11.16-50.27s6,9.23,24.6,8.7c23.67-.69,29.81-10.13,29.81-10.13,5.52,6.95,15.26,16.87,15.95,38.66.44,13.67-1.55,60-1.55,60S251,293.09,250.9,306l-.16,23.65q-.06,8.54-.11,17.07c0,3,.84,5.68,1.12,8.58.61,6.22,2.44,11.89,3.89,17.92a32.27,32.27,0,0,1-.38,16.27c-1.8,6.71-10.42,10.58-16,5.65a12.82,12.82,0,0,1-4-9.72c0-1.53.23-3.06.39-4.59a78.12,78.12,0,0,0-.6-19.2C232.82,345.94,228.34,330.65,224.72,315.22Z" style="fill:#b16668"></path><path d="M207.3,237l-3.58-17.83s-11.11-2.79-17.1-9.44c0,0,3.32,7.75,13.7,12.42l3.55,13.68-11.35,33.66Z" style="fill:#9a4a4d"></path><path d="M158.63,373.29c0,.66,2.41.84,2.46.18l.95-2.75-3.95-.29Zm6.79.21c0,.65,2.5.52,2.46-.14l.59-2.85-3.95.22Zm-13.1-1.91c-.2.62,2.15,1.38,2.35.75l1.58-2.45-3.77-1.22Zm18.44-1.48,1.53,2.48c.19.63,2.55-.08,2.36-.71l-.1-2.91Zm9.52-1.87-1-2.74L176,367.77l2.23,1.88C178.64,370.19,180.65,368.77,180.28,368.24Z" style="fill:#e0e0e0"></path><path d="M149.77,368.07s.86,2.41,4.75,3.84a17.54,17.54,0,0,0,7,1.1c5,.35,10.89-.26,15-2.74,3.78-2.28,5.33-4.56,7.09-6.67a11.11,11.11,0,0,1,7.81-4.21,20.83,20.83,0,0,0,10.51-2.2,5.06,5.06,0,0,0,2.77-2.95l-.65-7a12.88,12.88,0,0,1-4.32,5c-2.82,1.73-8.92,2-11.71,2.93s-5.71,3.87-8,7.07-8.11,6.63-13.44,6.8-15.71-3-15.71-3Z" style="fill:#e0e0e0"></path><path d="M164.66,352.94l6.86,1.4s11.19-7.76,14.41-12.32,2.69-6.37,1.63-7.4c-1.72-1.66-9.24-3.4-10.57-2.48s.35,3.41-1.67,7A67.38,67.38,0,0,1,164.66,352.94Z" style="fill:#e0e0e0"></path><path d="M176.23,337.27c-1.08,3-6.61,11.27-9.68,14.61l4.86,1.06a97.81,97.81,0,0,0,8.64-6.85,27.44,27.44,0,0,0,4.78-6c1-1.84,2.75-2.91,4.64-2.14s5.28,1.09,6.59.34,2-2.77,2.17-4.64l0-2a1.77,1.77,0,0,1,2.07,1.43,34.2,34.2,0,0,0,1.72,4.82c.59,1.67,2.26,5,2.1,9.08-.41,2.62-1.64,6.14-6.21,7.24s-7.66.67-10.89,2.64-4.19,4.41-7.52,8-10.8,5.88-16,5.39-9-1.44-12.53-4.1c-.35-2.81.44-5.54,2.28-6.92s9.93-5.94,12.43-8.13S175.47,339.55,176.23,337.27Z" style="fill:#f5f5f5"></path><path d="M204.07,346.9c-1.45-.4-5.13,1.88-6.71,4.39s-3.35,7-6,8.1a20.83,20.83,0,0,0,10.51-2.2,5.06,5.06,0,0,0,2.77-2.95C205.06,353,204.81,347,204.07,346.9Z" style="fill:#FFC100"></path><path d="M204.07,346.9c-1.45-.4-5.13,1.88-6.71,4.39s-3.35,7-6,8.1a20.83,20.83,0,0,0,10.51-2.2,5.06,5.06,0,0,0,2.77-2.95C205.06,353,204.81,347,204.07,346.9Z" style="fill:#fff;opacity:0.65"></path><path d="M149.77,368.07c.1-2.21.74-4.11,2-3.78s7.4,2.62,8.55,4,1.12,4.73,1.12,4.73a17.54,17.54,0,0,1-7-1.1C150.63,370.48,149.77,368.07,149.77,368.07Z" style="fill:#FFC100"></path><path d="M149.77,368.07c.1-2.21.74-4.11,2-3.78s7.4,2.62,8.55,4,1.12,4.73,1.12,4.73a17.54,17.54,0,0,1-7-1.1C150.63,370.48,149.77,368.07,149.77,368.07Z" style="fill:#fff;opacity:0.65"></path><path d="M188.86,340.23a.85.85,0,0,1-1,.72.86.86,0,0,1-.72-1,.87.87,0,0,1,1-.72A.86.86,0,0,1,188.86,340.23Z" style="fill:#FFC100"></path><path d="M174.74,352.38c-.13-.35-.45-.52-.75-.72s-.61-.37-.93-.54a10.73,10.73,0,0,0-2-.77A10.91,10.91,0,0,0,169,350a5.18,5.18,0,0,0-2.22.11c-.23.08,0,.49.16.51.7.07,1.42,0,2.13.1a11.42,11.42,0,0,1,1.92.37,11.84,11.84,0,0,1,1.74.68c.28.14.54.28.8.44a5,5,0,0,0,.91.5A.22.22,0,0,0,174.74,352.38Z" style="fill:#FFC100"></path><path d="M174.77,352.32a5.6,5.6,0,0,0-.65-1.72,8.49,8.49,0,0,0-1.05-1.6,8.62,8.62,0,0,0-1.37-1.33,5.68,5.68,0,0,0-.83-.55,2.45,2.45,0,0,0-.91-.38c-.13,0-.11.24,0,.29.47.38,1,.68,1.48,1.06a8.83,8.83,0,0,1,1.26,1.26,8.44,8.44,0,0,1,.91,1.38,7.35,7.35,0,0,1,.34.76c.11.27.17.55.29.81a.4.4,0,0,0,.34.27A.22.22,0,0,0,174.77,352.32Z" style="fill:#FFC100"></path><path d="M177.39,348.74a17.77,17.77,0,0,0-10.14,1.06c-.28.13-.06.66.2.54a18.61,18.61,0,0,1,10-1C177.87,349.4,177.72,348.8,177.39,348.74Z" style="fill:#FFC100"></path><path d="M177.75,349.06a5.75,5.75,0,0,0-.67-1.8,9.19,9.19,0,0,0-1.1-1.66,8.55,8.55,0,0,0-1.43-1.39,7.12,7.12,0,0,0-.86-.57,2.57,2.57,0,0,0-.95-.4c-.14,0-.11.25,0,.3.49.4,1.05.71,1.54,1.11a8.54,8.54,0,0,1,1.31,1.31,8.15,8.15,0,0,1,.95,1.44c.13.26.25.52.36.79s.18.58.29.85a.45.45,0,0,0,.36.28A.23.23,0,0,0,177.75,349.06Z" style="fill:#FFC100"></path><path d="M180.94,345.9a6.58,6.58,0,0,0-1-1.88,10.6,10.6,0,0,0-1.46-1.67,11,11,0,0,0-1.79-1.31,7.48,7.48,0,0,0-1-.49,2.81,2.81,0,0,0-1.1-.29c-.15,0-.09.3,0,.35.6.36,1.26.61,1.86,1a9.78,9.78,0,0,1,2.91,2.69,9.47,9.47,0,0,1,.51.82c.17.29.29.61.46.89a.47.47,0,0,0,.44.25A.25.25,0,0,0,180.94,345.9Z" style="fill:#FFC100"></path><path d="M180.17,345.48c-3.39-.65-6.87.17-10.14,1.07-.3.08-.08.6.19.54,3.31-.74,6.6-1.49,10-1C180.64,346.15,180.5,345.55,180.17,345.48Z" style="fill:#FFC100"></path><path d="M182.92,343c-3.32-1-7.48-1.05-10.2.1-.29.12-.12.64.14.56a17.64,17.64,0,0,1,10-.05C183.33,343.71,183.24,343.1,182.92,343Z" style="fill:#FFC100"></path><path d="M246.41,379.7c-4.67.34-7.22,1.88-7.9-2.41s-4.53-19.44-5.39-23.63.44-6,8.27-7.06,9.33-.57,9.37,3.69.79,23.76.83,26S251.21,379.36,246.41,379.7Z" style="fill:#e0e0e0"></path><path d="M254.09,395.85c3-2.79,4.11-6.42,4.38-10.16a32,32,0,0,0-.71-8.07l-24.22,2.6a42.31,42.31,0,0,0,.5,10.5,10.91,10.91,0,0,0,4.62,7Z" style="fill:#e0e0e0"></path><path d="M244.79,378.67c-2.19.28-4.8.19-5.62-2s-6-23-6-23,.94,14,.72,17.88a117.44,117.44,0,0,0-.14,13.88c.33,3.63,1.7,13.57,12.74,12.57s11.63-14.37,11.6-18-3.35-13.36-3.92-16.23-1.09-7.82-1.29-10.33c-.48-5.93-2.21-4.85-2.21-4.85s.33,22.67-.44,26.86C249.81,377.42,247,378.39,244.79,378.67Z" style="fill:#f5f5f5"></path><path d="M238.66,397.75c.06-1.43-.34-4.51,2.6-4.41,1.78.06,4.12,1.05,9.44-.8,2.28-.79,3.36,1.71,3.39,3.31C252.44,398.58,243.69,402,238.66,397.75Z" style="fill:#FFC100"></path><path d="M238.66,397.75c.06-1.43-.34-4.51,2.6-4.41,1.78.06,4.12,1.05,9.44-.8,2.28-.79,3.36,1.71,3.39,3.31C252.44,398.58,243.69,402,238.66,397.75Z" style="fill:#fff;opacity:0.65"></path><path d="M251.43,374a15.45,15.45,0,0,0-3.46-.34,30.17,30.17,0,0,0-3.43.13,23.52,23.52,0,0,0-3.53.63,10,10,0,0,0-3.42,1.32c-.12.09-.06.45.12.43a16.24,16.24,0,0,0,1.94-.5c.59-.16,1.17-.29,1.76-.41a31.91,31.91,0,0,1,3.37-.53,26.49,26.49,0,0,1,3.33-.13c1.18,0,2.33.25,3.5.29C252.19,374.87,251.77,374.05,251.43,374Z" style="fill:#FFC100"></path><path d="M251.58,374.29a34.32,34.32,0,0,0-5.81-2.61,42.3,42.3,0,0,1,5.58-2.15c.39-.11.15-.65-.18-.81a21.57,21.57,0,0,0-6.15-2.57,55.73,55.73,0,0,1,5.7-2.43h0c.5.2.46-.62.1-.78a38.55,38.55,0,0,0-7.71-2.49l.2-.12a25.56,25.56,0,0,1,3.88-1.56c.67-.2,1.35-.39,2-.55a7.38,7.38,0,0,0,1.94-.5c.11-.07.15-.37,0-.41a6.23,6.23,0,0,0-2.31.16,18,18,0,0,0-2.17.5,23.57,23.57,0,0,0-4.17,1.67c-.3.15-.58.33-.87.5-1.11-.22-2.23-.4-3.35-.53a14.6,14.6,0,0,0-4.17-.14c-.23,0-.16.49.05.54,1.28.28,2.65.27,4,.43.8.1,1.6.22,2.4.35-.54.35-1.06.71-1.57,1.09-1.23.93-2.26,2.05-3.43,3.06a.36.36,0,0,0-.07.1l-.21,0c-.1,0-.14.26,0,.31l.3.09c.15.23.44.39.65.21v0c1,.22,2.13.22,3.12.34s2.22.29,3.32.49c-2.13,1.12-4.21,2.32-6.23,3.63-.33.22.07.93.4.72l.1-.06c1.21.17,2.44.22,3.66.39,1,.15,2,.34,3,.57a31.89,31.89,0,0,0-3,1.71c-.56.38-1.11.76-1.65,1.17a5,5,0,0,0-1.17,1c0,.07-.07.31.07.27a6.07,6.07,0,0,0,1.53-.81c.54-.32,1.09-.63,1.64-.94,1.13-.64,2.26-1.28,3.41-1.86l.51-.24a30.29,30.29,0,0,1,6.59,2.55C251.66,374.73,251.71,374.37,251.58,374.29Zm-11.85-9.06c-.7-.08-1.39-.14-2.08-.19L237,365c.84-.78,1.66-1.57,2.58-2.28a24.22,24.22,0,0,1,2.49-1.63l.34.06a51.08,51.08,0,0,1,7.27,2.18,15.63,15.63,0,0,0-2.29.92c-1.18.51-2.35,1.06-3.5,1.64A40.81,40.81,0,0,0,239.73,365.23Zm4.72,6-.33-.1a26.63,26.63,0,0,0-3.85-.72,19.66,19.66,0,0,0-2.56-.17c2-1.26,4-2.46,6.16-3.55a25.77,25.77,0,0,1,6.29,2.18A41.83,41.83,0,0,0,244.45,371.27Z" style="fill:#FFC100"></path><path d="M178.31,181.77s-11.85,44.85-14.93,65c0,0,1.89,5.89,15.87,10.11s19.34,1.26,19.34,1.26l8.65-20.61,4.53,28s4.68,4.55,19.33,3,18.33-6.4,18.33-6.4.81-32.79.27-42-1.77-26.17-17-39.7C224.28,185.89,190.77,187.41,178.31,181.77Z" style="fill:#FFC100"></path><path d="M188.19,213.42C190.94,221.92,201,227,201,227l2.26,10.6-7.16,21.25a8.7,8.7,0,0,0,2.46-.72l8.65-20.61L205,223.55A29.83,29.83,0,0,1,188.19,213.42Z" style="opacity:0.30000000000000004"></path><path d="M242.68,266c5.16-1.87,6.75-3.92,6.75-3.92s.81-32.79.27-42-1.77-26.17-17-39.7a17.82,17.82,0,0,1-4.23,1.88c7.07,7.46,13.7,19.88,14.27,39.29C243.1,233.27,242.93,251.4,242.68,266Z" style="opacity:0.30000000000000004"></path></g><g id="freepik--Top--inject-430"><path d="M170.49,92.17c-1-1.61-1.33-4.84-.09-6.27a7.57,7.57,0,0,1,4.53-2.43c3.66-.84,3.41-3.53,3.47-4.41.26-3.43,1.35-5.39,3.26-6.65,5.12-3.39,18.4-3.19,17.62,5.66-.11,1.32-.62,2.74,0,3.89a4.12,4.12,0,0,0,1.2,1.19c2.23,1.65,4.61,3.17,6.34,5.33s2.73,5.17,1.71,7.74-3.53,4-4.08,6.6c-.76,3.5,2.63,7.06,1.5,10.46-.91,2.72-3.15,3.21-5.59,3.45-2.81.28-3.92,3.68-7.1,3.32a16.76,16.76,0,0,0-4.17.35,12.05,12.05,0,0,1-5.11-.28,6.55,6.55,0,0,1-3.91-3.13c-.7-1.42-.77-3.15-1.77-4.37-.86-1-2.13-1.63-3.05-2.61a5.85,5.85,0,0,1-1.86-3.62c0-.44,0-2.1.87-2.82a2.47,2.47,0,0,0-1.82,2.15,7.17,7.17,0,0,0,.39,3,6.26,6.26,0,0,1-2.17-9.16c.66-.93,1.62-1.79,1.68-2.93C172.46,94.74,171.47,93.74,170.49,92.17Z" style="fill:#263238"></path><path d="M189.7,70c-5.07,2.49-5.11,12.11.85,16.47S197.34,65.72,189.7,70Z" style="fill:#FFC100"></path><path d="M170.62,136.42c-4.38,14.22-7.79,23.16-8.22,29.47l20.62,4L190.6,140l.64-23.64C182.67,117.89,175.43,120.83,170.62,136.42Z" style="fill:#b16668"></path><path d="M191.24,115.9c-7.53,1.43-13.75,4.21-17.23,11.2s-10.08,26.71-10.08,26.71,5.34,5.24,11.66,7.14S186,162.11,186,162.11l5.26-21.92Z" style="fill:#FFC100"></path><path d="M164.54,152c5.23,5.92,16.69,9.15,22.05,7.55l-1,4c-4.81,2.29-17.9-1.45-22.51-7.41Z" style="fill:#37474f"></path><path id="freepik--Chest--inject-430" d="M244.43,194.21c-1-4-3.92-16.05-4.23-18.4-1.83-13.6,2.19-17.61,2.19-30.87,0-13.11-3.34-24.64-6.36-27.2l-13.63-3.81s-15.68,0-18.53.26c-1.41.14-3.3-.18-5.85.42-2,.47-6.78,1.29-6.78,1.29a73.85,73.85,0,0,0-12.11,17.44c-2.92,6.07-2.91,10.07-2,19.86.4,4.17.56,8.39.25,18.28-.33,10.18-.93,14.12-2.28,19.87C188.57,207.79,227.3,204.2,244.43,194.21Z" style="fill:#FFC100"></path><path id="freepik--chest--inject-430" d="M244.43,194.21c-1-4-3.92-16.05-4.23-18.4-1.83-13.6,2.19-17.61,2.19-30.87,0-13.11-3.34-24.64-6.36-27.2l-13.63-3.81s-15.68,0-18.53.26c-1.41.14-3.3-.18-5.85.42-2,.47-6.78,1.29-6.78,1.29a73.85,73.85,0,0,0-12.11,17.44c-2.92,6.07-2.91,10.07-2,19.86.4,4.17.56,8.39.25,18.28-.33,10.18-.93,14.12-2.28,19.87C188.57,207.79,227.3,204.2,244.43,194.21Z" style="fill:#fff;opacity:0.4"></path><g id="freepik--Head--inject-430"><path d="M240.89,64.48c-.67-6.44-7.9-7-9.83-6.87a9.13,9.13,0,0,1-7.3-3.43,9.18,9.18,0,0,0-8.78-3c-5.2,1.13-4.1,3.33-8.51,4.63-3.94,1.15-6.77-.25-10.44,3a10.06,10.06,0,0,0-3,8.33c-2.72,1.53-6.67,11.14-1.67,22.07,2.57,5.62,5.83,8.32,9.83,13.06l4.06.17c1.47-3.39,4.89-2.6,8.08-3.26,2.06-.82,3.3-3,5.35-3.86s4.46,0,6.69-.35c1.73-.23,3.51-1.18,5.27-.66,4,1.82,10.28-1.47,10-6.19-.1-1.43-.83-2.84-.5-4.24.44-1.82,2.44-2.76,3.56-4.27a4.92,4.92,0,0,0-.06-5.9C240.89,70.42,241.26,68.15,240.89,64.48Z" style="fill:#263238"></path><path d="M201.47,110.77c0-2.12-.41-12.78-.41-12.78-.08.8-3.93,3-7.43-1.07s-3.77-8.44-1.71-11.24c2.26-3.1,7.36-3,9.44,2,1.53,0,4-.29,3.19-8.21,0-9.57,9.29-17.49,17.11-10.88,3-5.37,9.49-3.25,11.89,1.95,1.32,3.25,1.75,4.37,1.12,10.55-.11,1,1.16,3.25,1.06,7.88-.27,11.47-3.27,14.89-6.65,17.2-2,1.37-4.27,2.08-8.51,1.77l.06,2.77h0c.09,1.77.07,2.39,1.74,3,1.15.42,3.42,1.15,3.42,1.15s-5.25,12.29-21,11.45c-9.44-.5-7.68-11.52-7.68-11.52l2.11-.47C201.49,113.85,201.47,112.9,201.47,110.77Z" style="fill:#b16668"></path><path d="M216.1,94.39l6,1.84a3.06,3.06,0,0,1-3.84,2.17A3.27,3.27,0,0,1,216.1,94.39Z" style="fill:#9a4a4d"></path><path d="M216.49,95.76A3.43,3.43,0,0,1,220,98.4a3,3,0,0,1-1.73,0A3.21,3.21,0,0,1,216,95.82,2.32,2.32,0,0,1,216.49,95.76Z" style="fill:#f28f8f"></path><path d="M232.71,77.47l-4.26-2.2a2.3,2.3,0,0,1,3.16-1.09A2.52,2.52,0,0,1,232.71,77.47Z" style="fill:#263238"></path><path d="M211.27,78.27l4.12-2.57a2.33,2.33,0,0,0-3.27-.84A2.55,2.55,0,0,0,211.27,78.27Z" style="fill:#263238"></path><path d="M228,82.44a2.07,2.07,0,0,0,1.86,2.16A1.93,1.93,0,0,0,232,82.81a2.06,2.06,0,0,0-1.86-2.16A1.94,1.94,0,0,0,228,82.44Z" style="fill:#263238"></path><path d="M213.48,82.92a2.06,2.06,0,0,0,1.86,2.16,1.94,1.94,0,0,0,2.13-1.79,2.06,2.06,0,0,0-1.86-2.16A1.93,1.93,0,0,0,213.48,82.92Z" style="fill:#263238"></path><polygon points="229.35 88.98 223.06 92.05 221.66 79.89 229.35 88.98" style="fill:#9a4a4d"></polygon><path d="M220.57,108c-7.61-.7-14.92-2.73-16.81-7.36a7.8,7.8,0,0,0,4.38,6.45,27.51,27.51,0,0,0,12.48,3.14Z" style="fill:#9a4a4d"></path></g><path d="M204.8,126.33c6.06,4.65,15.58,2.06,20.4-3.17a6.46,6.46,0,0,0,.59-8.28C220.76,120.8,212.63,124.21,204.8,126.33Z" style="fill:#37474f"></path><path d="M204.8,126.33s-6.74-2.35-5.57-12l-4.11.86S188.93,130.67,204.8,126.33Z" style="fill:#37474f"></path><path d="M180.48,178c-.56-2.12-2.45-8.22-3-10.19l-15.12-1.9c-.42,4,.56,13.93,2.24,20.49,3.54,13.86,10.8,31.27,10.8,31.27l8.41-23A170,170,0,0,0,180.48,178Z" style="fill:#b16668"></path><path d="M171.84,210.35s2.12,6.56,2.77,9.76a63.73,63.73,0,0,0,2,8.6c.88,2.24,3.85,3.11,7.75-.21s-.48-33.85-.48-33.85-11.42,2.45-14.53,8.87C169.32,203.52,170.75,207.17,171.84,210.35Z" style="fill:#f5f5f5"></path><path d="M185.64,191.52c-6.28-1.51-15.83,3.6-18.92,8.43l2.06,4.23c1.5-2.67,12.56-8.52,17.47-8.16Z" style="fill:#e0e0e0"></path><path d="M197.8,184.68a3.53,3.53,0,0,0-6.47-2.84.06.06,0,0,0,0,0l0,0c-.19.45-11.42,26-11.62,26.48a1.77,1.77,0,0,0,.37,1.74,5.54,5.54,0,0,0,4.57,2,1.75,1.75,0,0,0,1.53-.91c.2-.44,11.43-26,11.62-26.48a0,0,0,0,1,0,0S197.79,184.69,197.8,184.68Z" style="fill:#455a64"></path><path d="M185.78,209.49a1.52,1.52,0,0,1-1.16,2.64,5.54,5.54,0,0,1-4.57-2,1.52,1.52,0,0,1,1.16-2.64A5.48,5.48,0,0,1,185.78,209.49Z" style="fill:#263238"></path><path d="M184.48,210.92a.94.94,0,0,0-.2-.92,2.92,2.92,0,0,0-2.43-1.07,1,1,0,0,0-.82.48c-.1.24-68.2,155.44-68.31,155.67a1,1,0,0,0,.2.93,3,3,0,0,0,2.43,1.07,1,1,0,0,0,.82-.48C116.27,366.36,184.38,211.16,184.48,210.92Z" style="fill:#37474f"></path><path d="M116,365.67a.81.81,0,0,1-.62,1.41,3,3,0,0,1-2.43-1.07.81.81,0,0,1,.62-1.41A3,3,0,0,1,116,365.67Z" style="fill:#263238"></path><path d="M117.85,352.94c-1.23,1.84-4.9,3.68-10.82,6s-11.17,5.53-13.35,10.95c-2,5-2.29,11.21,3,13.47l17.92-19.26Z" style="fill:#455a64"></path><path d="M122.66,351.8c-2.83,6.44-4.61,16.38-10.66,23.92-5.73,7.15-11.68,8.37-13.9,8.18-4.65-.39-3.15-10-.56-14.27s6.8-6.72,11.35-9.15,7.23-3.73,10.08-9.62Z" style="fill:#37474f"></path><path d="M113.26,365.49a11.05,11.05,0,0,0-3.36,2.3c-1.16.91-2.29,1.85-3.43,2.77l-3,2.47c-.49.4-1,.83-1.46,1.25a3.39,3.39,0,0,0-1.27,1.61c0,.06,0,.18.07.2.65.11,1.19-.4,1.68-.77s1.16-.84,1.72-1.28l3.12-2.44c1-.82,2.09-1.63,3.12-2.45l1.62-1.31a5.32,5.32,0,0,0,1.55-1.62C113.7,366,113.59,365.39,113.26,365.49Z" style="fill:#263238"></path><path d="M110.19,364.24a2,2,0,0,0-1,.45l-.9.63-1.9,1.33-1.8,1.31a6.87,6.87,0,0,0-1.76,1.68c0,.09-.08.35.08.33a5.6,5.6,0,0,0,2.13-1l2-1.31c.64-.42,1.26-.85,1.89-1.29l.9-.62a1.67,1.67,0,0,0,.75-.87C110.61,364.61,110.49,364.25,110.19,364.24Z" style="fill:#263238"></path><path d="M111.57,370.7a2.88,2.88,0,0,0-1,.54c-.3.19-.58.44-.87.66-.6.47-1.18,1-1.77,1.43s-1.16.91-1.71,1.39a6.36,6.36,0,0,0-1.53,1.7c-.09.16-.1.64.21.56a6.65,6.65,0,0,0,2-1.11c.64-.43,1.24-.93,1.85-1.4s1.2-.91,1.78-1.38c.28-.22.58-.43.84-.68a2.22,2.22,0,0,0,.75-1C112.16,371.07,111.9,370.66,111.57,370.7Z" style="fill:#263238"></path><path d="M236,118.38c10.58,2.34,12.88,11.35,9.88,31.77-2.73,18.53-3,22.46-4.28,26.72s-2.44,6.11-11.42,12.72c-7.36,5.41-22.67,15.93-29.84,21.77l-9.23-10.68,30.06-31.51s2.54-22.13,4-31.68S230.69,120.6,236,118.38Z" style="fill:#b16668"></path><path d="M236,117.74c6.11,1.77,8.59,4,10.08,7.88s2,8.44,1.42,17-1.77,21.72-1.77,21.72-3.41,1.14-10.86.57-13.48-5.76-13.48-5.76,2.48-17.88,3.19-22.49S228.07,119.74,236,117.74Z" style="fill:#FFC100"></path><path d="M221.76,156.66c4.64,4.85,15.67,7.79,24.18,5.59l-.37,3.64c-4.81,2.78-18.26,1.48-24.59-4.61Z" style="fill:#37474f"></path><path d="M190.91,199.83c-3,1.63-10.9,5.53-12.29,8.79s-2.11,11.11-2.11,11.11l2.66-6.08,4.37-1.89Z" style="fill:#e0e0e0"></path><path d="M195.23,196a74,74,0,0,0-15.4,16.17,32.36,32.36,0,0,0-5,11.36c-.72,4.42,1.3,7.82,3.33,7.86,3.29.07,5.31-1.67,7.92-1.33s5.14.27,6.4-1.11a7.47,7.47,0,0,1,4.47-2.06c1.4-.22,3.27-1.16,4.43-5.3s.65-10.64,5.45-15.34Z" style="fill:#f5f5f5"></path><path d="M188.09,219.4a9.89,9.89,0,0,0-2.32,3.56,24.28,24.28,0,0,0-1.5,3.93c-.14.48.68,1.11.92.55.55-1.3,1.09-2.6,1.73-3.86a16.42,16.42,0,0,0,1.7-3.72C188.68,219.6,188.36,219.19,188.09,219.4Zm7.18-.87a1.93,1.93,0,0,0-.53.88c-.12.27-.23.54-.33.82-.22.59-.42,1.18-.59,1.79s-.32,1.19-.45,1.8a2.7,2.7,0,0,0,.1,1.94.2.2,0,0,0,.12.06c.46-.08.57-.94.67-1.31.15-.63.27-1.26.45-1.88s.36-1.23.57-1.83c.11-.32.22-.62.34-.93a1.83,1.83,0,0,0,.22-.94C195.81,218.73,195.51,218.34,195.27,218.53Z" style="fill:#e0e0e0"></path><path d="M193.22,196.22c1.22,4.74,7.51,10.07,13.5,11.6l4.73-3.43c-3-.26-13-7.89-14.68-12.5Z" style="fill:#e0e0e0"></path></g></g></g></svg>