<svg xmlns="http://www.w3.org/2000/svg" viewBox="0 0 500 500"><g id="freepik--Floor--inject-454"><path d="M410.21,266.15c-89.06-49.82-233-49.82-321.47,0s-88,130.58,1,180.4,233,49.82,321.49,0S499.28,316,410.21,266.15Z" style="fill:#FFC100"></path><path d="M410.21,266.15c-89.06-49.82-233-49.82-321.47,0s-88,130.58,1,180.4,233,49.82,321.49,0S499.28,316,410.21,266.15Z" style="fill:#fff;opacity:0.3"></path></g><g id="freepik--Shadows--inject-454"><path d="M363.24,388.11c-24.76-14.29-64.77-14.29-89.37,0s-24.47,37.47.29,51.77,64.77,14.29,89.37,0S388,402.41,363.24,388.11Z" style="opacity:0.1"></path><path d="M228.19,379.3c-24.75-14.29-64.77-14.29-89.36,0s-24.47,37.47.29,51.77,64.77,14.29,89.37,0S253,393.6,228.19,379.3Z" style="opacity:0.1"></path></g><g id="freepik--Clouds--inject-454"><path d="M92.72,50.47c4.47-2.58,8.24-1.31,9.44,2.7A13.29,13.29,0,0,1,107,47.79c3.5-2,6.35-.39,6.36,3.63v1.85l4.7-2.72c2.45-1.41,4.45-.27,4.45,2.55a9.74,9.74,0,0,1-4.42,7.66l-39.82,23c-2.46,1.42-4.45.29-4.46-2.53a9.76,9.76,0,0,1,4.43-7.68l4.7-2.71v-3.4C82.91,61.2,87.29,53.61,92.72,50.47Z" style="fill:#e6e6e6"></path><path d="M131.74,65.54c3.21-1.86,5.92-1,6.78,1.93A9.61,9.61,0,0,1,142,63.61c2.51-1.45,4.56-.28,4.57,2.61v1.32l3.37-2c1.76-1,3.19-.19,3.2,1.83a7,7,0,0,1-3.18,5.5l-28.58,16.5c-1.76,1-3.19.21-3.2-1.82a7,7,0,0,1,3.18-5.5l3.37-1.95V77.71A15.45,15.45,0,0,1,131.74,65.54Z" style="fill:#e6e6e6"></path></g><g id="freepik--Trees--inject-454"><path d="M261.13,232.33a13.24,13.24,0,0,0-1.65-5.26,4.06,4.06,0,0,0-7.7,1.25,13.36,13.36,0,0,0,0,4.76,7,7,0,0,0-3.37-4,4.74,4.74,0,0,0-5.13.18,5.35,5.35,0,0,0-1.49,5.54,15.72,15.72,0,0,0,2.94,5.26c-1.76-.64-3.9-.93-5.5,0a4.17,4.17,0,0,0-1.7,4.33,6.84,6.84,0,0,0,2.75,4,20.29,20.29,0,0,0,4.38,2.29,3.69,3.69,0,0,0-3.43.8,2.84,2.84,0,0,0-.74,3,4.67,4.67,0,0,0,2.72,2.46,13.3,13.3,0,0,0,16.12-4.37,17.8,17.8,0,0,0,3-9.63C262.53,239.59,261.7,235.69,261.13,232.33Z" style="fill:#455a64"></path><path d="M259.23,51.51l1.07.16a20.52,20.52,0,0,1,5.94,2,21.69,21.69,0,0,1,2.67,1.67,5.69,5.69,0,0,1,1.79,2c1.62,2.92,1.95,6.69,4.52,8.81,1.79,1.47,4.23,1.77,6.49,2.25s4.71,1.39,5.73,3.47c1.31,2.67-.35,5.79-2.09,8.2s-3.72,5.19-3,8.08c.57,2.34,2.76,3.91,5,4.82s4.63,1.38,6.71,2.6a6.41,6.41,0,0,1,3.3,6.69c-.61,3.42-3.92,4.15-5.49,6.88a4.8,4.8,0,0,0,1.5,6.18,12.39,12.39,0,0,0,4.14,1.26,5.48,5.48,0,0,1,3.68,2.1c.76,1.24.23,3.27-1.21,3.47-1.29.19-1.47,2.27-.69,3.3a5.28,5.28,0,0,0,3.41,1.74,30.88,30.88,0,0,1,3.85.62,6.89,6.89,0,0,1,2.84,11.47,13.9,13.9,0,0,1-3.49,2.3,12.62,12.62,0,0,0-3.45,2.35,4.45,4.45,0,0,0-1.34,3.81,2.77,2.77,0,0,0,3,2.29,16,16,0,0,1,7.2,2.27,10.35,10.35,0,0,1,5.29,6.68,6.92,6.92,0,0,1-3.29,7.49,11.37,11.37,0,0,1-5.41.75,12.43,12.43,0,0,0-5.44.64c-1.68.74-3,2.57-2.61,4.36.34,1.41,1.62,2.36,2.75,3.26s2.29,2.11,2.21,3.56-1.5,2.59-2.86,3.28a19.45,19.45,0,0,1-16.66.35c-1.33-.61-2.86-1.49-4.34-.84-1.27.55-1.13,2.26-1.79,3.37-1,1.67-3.13,2.52-4.9,3.13A10.07,10.07,0,0,1,267,188a20.32,20.32,0,0,1-5.73-4.61l-5-5.14c-3.5-3.59-8.55.22-12.45,3.36-1.16.93-2.17,2-3.33,3a7.3,7.3,0,0,1-4,1.79,3.71,3.71,0,0,1-3.65-2c-.55-1.34-.09-3-1-4.17s-2.3-1.07-3.58-.88c-2.16.33-4.24,1.12-6.42,1.27s-4.63-.53-5.72-2.43c-.93-1.63-.62-3.64-.58-5.51s-.47-4.09-2.19-4.82a12,12,0,0,1-4.22-2.76,6.41,6.41,0,0,1-2.21-5.43,6.74,6.74,0,0,1,3.39-4.46,39.59,39.59,0,0,1,5.28-2.34,10.14,10.14,0,0,0,4.6-3.37,6.16,6.16,0,0,0-5-9.59,9.23,9.23,0,0,1-3.85-.92,3.73,3.73,0,0,1-2.49-3.63,4,4,0,0,1,1.72-2.59c.85-.64,1.83-1.1,2.7-1.72a26.87,26.87,0,0,0,4.56-4.78c1.45-1.66,3.22-3.24,5.4-3.61.69-.12,1.39-.12,2.07-.26a2.56,2.56,0,0,0,1.73-1.06c1-1.65-.79-3.17-.59-4.93a4.32,4.32,0,0,1,1.78-3,20.38,20.38,0,0,1,2.38-1.2,3.16,3.16,0,0,0,1.75-1.91c.22-.91-.22-1.86-.12-2.79a12.74,12.74,0,0,1,1.18-2.75,5.17,5.17,0,0,0-1-4.79C231,98,228.76,97,228.05,94.59a5.29,5.29,0,0,1,1.38-5.17c3.37-3.25,9,.27,12.49-3,2.54-2.37,1.58-6.49.13-9.17a30.4,30.4,0,0,1-2-3.83c-.56-1.53-.72-3.61.43-4.92s3.2-1.61,5-1.84,3.84-.69,4.77-2.26a5.93,5.93,0,0,0,.26-4.2,10.32,10.32,0,0,1-.42-3.57,5.57,5.57,0,0,1,1.48-3,7.51,7.51,0,0,1,4.08-2.1A12.27,12.27,0,0,1,259.23,51.51Z" style="fill:#FFC100"></path><path d="M259.23,51.51l1.07.16a20.52,20.52,0,0,1,5.94,2,21.69,21.69,0,0,1,2.67,1.67,5.69,5.69,0,0,1,1.79,2c1.62,2.92,1.95,6.69,4.52,8.81,1.79,1.47,4.23,1.77,6.49,2.25s4.71,1.39,5.73,3.47c1.31,2.67-.35,5.79-2.09,8.2s-3.72,5.19-3,8.08c.57,2.34,2.76,3.91,5,4.82s4.63,1.38,6.71,2.6a6.41,6.41,0,0,1,3.3,6.69c-.61,3.42-3.92,4.15-5.49,6.88a4.8,4.8,0,0,0,1.5,6.18,12.39,12.39,0,0,0,4.14,1.26,5.48,5.48,0,0,1,3.68,2.1c.76,1.24.23,3.27-1.21,3.47-1.29.19-1.47,2.27-.69,3.3a5.28,5.28,0,0,0,3.41,1.74,30.88,30.88,0,0,1,3.85.62,6.89,6.89,0,0,1,2.84,11.47,13.9,13.9,0,0,1-3.49,2.3,12.62,12.62,0,0,0-3.45,2.35,4.45,4.45,0,0,0-1.34,3.81,2.77,2.77,0,0,0,3,2.29,16,16,0,0,1,7.2,2.27,10.35,10.35,0,0,1,5.29,6.68,6.92,6.92,0,0,1-3.29,7.49,11.37,11.37,0,0,1-5.41.75,12.43,12.43,0,0,0-5.44.64c-1.68.74-3,2.57-2.61,4.36.34,1.41,1.62,2.36,2.75,3.26s2.29,2.11,2.21,3.56-1.5,2.59-2.86,3.28a19.45,19.45,0,0,1-16.66.35c-1.33-.61-2.86-1.49-4.34-.84-1.27.55-1.13,2.26-1.79,3.37-1,1.67-3.13,2.52-4.9,3.13A10.07,10.07,0,0,1,267,188a20.32,20.32,0,0,1-5.73-4.61l-5-5.14c-3.5-3.59-8.55.22-12.45,3.36-1.16.93-2.17,2-3.33,3a7.3,7.3,0,0,1-4,1.79,3.71,3.71,0,0,1-3.65-2c-.55-1.34-.09-3-1-4.17s-2.3-1.07-3.58-.88c-2.16.33-4.24,1.12-6.42,1.27s-4.63-.53-5.72-2.43c-.93-1.63-.62-3.64-.58-5.51s-.47-4.09-2.19-4.82a12,12,0,0,1-4.22-2.76,6.41,6.41,0,0,1-2.21-5.43,6.74,6.74,0,0,1,3.39-4.46,39.59,39.59,0,0,1,5.28-2.34,10.14,10.14,0,0,0,4.6-3.37,6.16,6.16,0,0,0-5-9.59,9.23,9.23,0,0,1-3.85-.92,3.73,3.73,0,0,1-2.49-3.63,4,4,0,0,1,1.72-2.59c.85-.64,1.83-1.1,2.7-1.72a26.87,26.87,0,0,0,4.56-4.78c1.45-1.66,3.22-3.24,5.4-3.61.69-.12,1.39-.12,2.07-.26a2.56,2.56,0,0,0,1.73-1.06c1-1.65-.79-3.17-.59-4.93a4.32,4.32,0,0,1,1.78-3,20.38,20.38,0,0,1,2.38-1.2,3.16,3.16,0,0,0,1.75-1.91c.22-.91-.22-1.86-.12-2.79a12.74,12.74,0,0,1,1.18-2.75,5.17,5.17,0,0,0-1-4.79C231,98,228.76,97,228.05,94.59a5.29,5.29,0,0,1,1.38-5.17c3.37-3.25,9,.27,12.49-3,2.54-2.37,1.58-6.49.13-9.17a30.4,30.4,0,0,1-2-3.83c-.56-1.53-.72-3.61.43-4.92s3.2-1.61,5-1.84,3.84-.69,4.77-2.26a5.93,5.93,0,0,0,.26-4.2,10.32,10.32,0,0,1-.42-3.57,5.57,5.57,0,0,1,1.48-3,7.51,7.51,0,0,1,4.08-2.1A12.27,12.27,0,0,1,259.23,51.51Z" style="fill:#fff;opacity:0.2"></path><path d="M207,159.55a6.74,6.74,0,0,1,3.39-4.46,39.59,39.59,0,0,1,5.28-2.34,10.14,10.14,0,0,0,4.6-3.37,6.16,6.16,0,0,0-5-9.59,9.23,9.23,0,0,1-3.85-.92,3.73,3.73,0,0,1-2.49-3.63,4,4,0,0,1,1.72-2.59c.85-.64,1.83-1.1,2.7-1.72a26.87,26.87,0,0,0,4.56-4.78c1.45-1.66,3.22-3.24,5.4-3.61.69-.12,1.39-.12,2.07-.26a2.56,2.56,0,0,0,1.73-1.06c1-1.65-.79-3.17-.59-4.93a4.32,4.32,0,0,1,1.78-3,20.38,20.38,0,0,1,2.38-1.2,3.16,3.16,0,0,0,1.75-1.91c.22-.91-.22-1.86-.12-2.79a12.74,12.74,0,0,1,1.18-2.75,5.17,5.17,0,0,0-1-4.79C231,98,228.76,97,228.05,94.59a5.26,5.26,0,0,1,0-2.89,5.55,5.55,0,0,0,1.32,2.47c1.39,1.48,3.34,2.26,5.17,3.13s3.71,1.94,4.68,3.72c1.35,2.47.56,5.6-.88,8s-3.47,4.45-4.83,6.92-1.92,5.69-.31,8c1.1,1.59,3.15,2.69,3.35,4.62s-1.43,3.31-2,5.08c-.72,2.41.69,4.91.92,7.42a8.06,8.06,0,0,1-1.17,4.86,9.29,9.29,0,0,1-3.17,2.83c-2.37,1.65-4.91,3.56-5.68,6.5a5.38,5.38,0,0,0,1.11,5,5.63,5.63,0,0,0,4,1.59,11.68,11.68,0,0,0,4.3-.92c1.16-.46,2.51-1,3.6-.38a2.72,2.72,0,0,1,1.16,2.67,9.58,9.58,0,0,1-1,2.9,6.1,6.1,0,0,0-.71,3,4.26,4.26,0,0,0,3.37,3.52,13,13,0,0,0,5.22-.35c1.73-.34,3-2.07,4.47-3a8.44,8.44,0,0,1,7.43-.46,12.14,12.14,0,0,1,5.67,5c.8,1.32,1.4,2.75,2.21,4.06a7.44,7.44,0,0,0,3.31,3.12,3.84,3.84,0,0,0,4.27-.72,4.65,4.65,0,0,0,1-2.87c.05-1-.05-2.06,0-3.09a4.19,4.19,0,0,1,1.17-2.78,2.21,2.21,0,0,1,2.82-.22c3.64,3.11,8.39,2.4,12.57,4.75a9,9,0,0,0,2.5,1.12,2.78,2.78,0,0,0,2.56-.65,3.29,3.29,0,0,0,.29-3.33,15,15,0,0,1-1.15-3.32c-.28-2.74,2.19-4.54,4.49-5.3,1.35-.45,2.94-.09,4.36,0l5.39.38a8.74,8.74,0,0,0,4.74-.54,4.91,4.91,0,0,0,1.44-1.2,6.14,6.14,0,0,1-2.88,3.26,11.37,11.37,0,0,1-5.41.75,12.43,12.43,0,0,0-5.44.64c-1.69.74-3,2.57-2.61,4.36.34,1.41,1.62,2.36,2.75,3.26s2.29,2.11,2.21,3.56-1.5,2.59-2.86,3.28a19.45,19.45,0,0,1-16.66.35c-1.33-.61-2.86-1.49-4.34-.84-1.27.55-1.13,2.26-1.79,3.37-1,1.67-3.13,2.52-4.9,3.13A10.07,10.07,0,0,1,267,188a20.32,20.32,0,0,1-5.73-4.61q-2.51-2.57-5-5.14c-3.5-3.59-8.55.22-12.45,3.36-1.16.93-2.17,2-3.33,3a7.3,7.3,0,0,1-4,1.79,3.73,3.73,0,0,1-3.65-2c-.55-1.34-.09-3-1-4.17s-2.3-1.07-3.58-.88c-2.16.33-4.24,1.12-6.42,1.27s-4.63-.53-5.72-2.43c-.93-1.63-.62-3.64-.58-5.51s-.47-4.09-2.19-4.82a12,12,0,0,1-4.22-2.76A6.41,6.41,0,0,1,207,159.55Z" style="opacity:0.1"></path><path d="M282.71,121.51c-7.06,11.42-15.75,26.83-19.36,33.29-.46-28.56-1.13-56.33-2.11-78.68-1.24,23.42-1.85,52.39-2.1,81.94-3.74-7.65-10.4-21.13-16-31.48,4,12.36,12.35,30.5,15.94,38.16-.47,73.53,1.2,82.15,1.2,82.15h4s.3-11.61-.82-86.13C266.48,155.21,277.44,135,282.71,121.51Z" style="fill:#263238"></path><path d="M275.91,249.88,258.35,260c-2.36,0-5,.56-7.24-.11a4.47,4.47,0,0,1-1.46-.65,2,2,0,0,1-.85-1.31,2.1,2.1,0,0,1,1-1.87,6.14,6.14,0,0,1,2.08-.77,9,9,0,0,1-3.41-2.15,2.82,2.82,0,0,1-.69-.92,1.29,1.29,0,0,1,0-1.12,1.85,1.85,0,0,1,1.5-.69,9.72,9.72,0,0,1,4.82.8,17.52,17.52,0,0,1-3.68-4.54,2.67,2.67,0,0,1-.34-2.44,1.79,1.79,0,0,1,1.33-.85,4.06,4.06,0,0,1,1.62.16,9.88,9.88,0,0,1,4.22,2.42,12.57,12.57,0,0,1-2.14-6.63,2.78,2.78,0,0,1,.79-2.31,2,2,0,0,1,1.86-.2,4.52,4.52,0,0,1,1.59,1.09,13.88,13.88,0,0,1,3.44,5.2,12.13,12.13,0,0,1,.77-7.35,4.74,4.74,0,0,1,.95-1.49,2.14,2.14,0,0,1,1.58-.68,2.2,2.2,0,0,1,1.75,1.27,5.47,5.47,0,0,1,.49,2.19,22,22,0,0,1-.37,5.43,11.89,11.89,0,0,1,2.58-4.9,4.84,4.84,0,0,1,1.72-1.4,2.25,2.25,0,0,1,2.14.1,3.17,3.17,0,0,1,1,2.6,13.52,13.52,0,0,1-.87,5.3,8.66,8.66,0,0,1,2.48-2.77,2.36,2.36,0,0,1,2-.59,1.75,1.75,0,0,1,1.14,1.62,4.44,4.44,0,0,1-.51,2A22.14,22.14,0,0,1,275.91,249.88Z" style="fill:#FFC100"></path><path d="M275.91,249.88,258.35,260c-2.36,0-5,.56-7.24-.11a4.47,4.47,0,0,1-1.46-.65,2,2,0,0,1-.85-1.31,2.1,2.1,0,0,1,1-1.87,6.14,6.14,0,0,1,2.08-.77,9,9,0,0,1-3.41-2.15,2.82,2.82,0,0,1-.69-.92,1.29,1.29,0,0,1,0-1.12,1.85,1.85,0,0,1,1.5-.69,9.72,9.72,0,0,1,4.82.8,17.52,17.52,0,0,1-3.68-4.54,2.67,2.67,0,0,1-.34-2.44,1.79,1.79,0,0,1,1.33-.85,4.06,4.06,0,0,1,1.62.16,9.88,9.88,0,0,1,4.22,2.42,12.57,12.57,0,0,1-2.14-6.63,2.78,2.78,0,0,1,.79-2.31,2,2,0,0,1,1.86-.2,4.52,4.52,0,0,1,1.59,1.09,13.88,13.88,0,0,1,3.44,5.2,12.13,12.13,0,0,1,.77-7.35,4.74,4.74,0,0,1,.95-1.49,2.14,2.14,0,0,1,1.58-.68,2.2,2.2,0,0,1,1.75,1.27,5.47,5.47,0,0,1,.49,2.19,22,22,0,0,1-.37,5.43,11.89,11.89,0,0,1,2.58-4.9,4.84,4.84,0,0,1,1.72-1.4,2.25,2.25,0,0,1,2.14.1,3.17,3.17,0,0,1,1,2.6,13.52,13.52,0,0,1-.87,5.3,8.66,8.66,0,0,1,2.48-2.77,2.36,2.36,0,0,1,2-.59,1.75,1.75,0,0,1,1.14,1.62,4.44,4.44,0,0,1-.51,2A22.14,22.14,0,0,1,275.91,249.88Z" style="fill:#fff;opacity:0.6"></path><path d="M410.26,250.06H389.83v38.56h0c0,1.52,1,3,3,4.19a15.91,15.91,0,0,0,14.44,0c2-1.16,3-2.67,3-4.19h0Z" style="fill:#f28f8f"></path><path d="M410.26,250.06H389.83v38.56h0c0,1.52,1,3,3,4.19a15.91,15.91,0,0,0,14.44,0c2-1.16,3-2.67,3-4.19h0Z" style="opacity:0.30000000000000004"></path><path d="M394.59,293.22h0c0-5.48-4.76-6.17-6.13-6.17s-6.13.69-6.13,6.17a3,3,0,0,0,1.81,2.51,9.53,9.53,0,0,0,8.67,0,3,3,0,0,0,1.78-2.51Z" style="fill:#37474f"></path><path d="M392.15,288.16a6.75,6.75,0,0,1,1,2,4.11,4.11,0,0,1-.45,3.37,5.23,5.23,0,0,1-3,1.84,13.42,13.42,0,0,1-5.46.43,9.57,9.57,0,0,0,8.57,0,3,3,0,0,0,1.78-2.51h0A5.63,5.63,0,0,0,392.15,288.16Z" style="opacity:0.30000000000000004"></path><path d="M384.29,296.24h0a4.3,4.3,0,1,0-8.6,0A2.17,2.17,0,0,0,377,298a6.72,6.72,0,0,0,6.08,0,2.16,2.16,0,0,0,1.25-1.76Z" style="fill:#455a64"></path><path d="M382.57,292.69a4.67,4.67,0,0,1,.68,1.38,2.89,2.89,0,0,1-.31,2.37,3.69,3.69,0,0,1-2.08,1.29,9.53,9.53,0,0,1-3.83.3,6.76,6.76,0,0,0,6,0,2.16,2.16,0,0,0,1.25-1.76h0A3.94,3.94,0,0,0,382.57,292.69Z" style="opacity:0.30000000000000004"></path><path d="M417.45,291.74h0a4.66,4.66,0,1,0-9.31,0,2.32,2.32,0,0,0,1.38,1.9,7.21,7.21,0,0,0,6.58,0,2.26,2.26,0,0,0,1.35-1.9Z" style="fill:#455a64"></path><path d="M415.6,287.89a5.09,5.09,0,0,1,.73,1.5A3.1,3.1,0,0,1,416,292a4,4,0,0,1-2.26,1.4,10.17,10.17,0,0,1-4.14.33,7.25,7.25,0,0,0,6.5,0,2.26,2.26,0,0,0,1.35-1.9h0A4.29,4.29,0,0,0,415.6,287.89Z" style="opacity:0.30000000000000004"></path><path d="M468.94,227.58l-61.41-129a8.51,8.51,0,0,0-5.4-4.71,8.1,8.1,0,0,0-9.4,4.36L331.15,227.58a6.37,6.37,0,0,0,4.36,8.95,6.58,6.58,0,0,1,5.16,6.43v1.51a11,11,0,0,0,13.14,11l.94-.18a11,11,0,0,1,12.3,6.59l1.58,3.82a10.9,10.9,0,0,0,15.09,5.52l9-4.67a15.86,15.86,0,0,1,14.65,0l9,4.67a10.9,10.9,0,0,0,15.09-5.52L433,261.9a11,11,0,0,1,12.3-6.59l.94.18a11,11,0,0,0,13.14-10.8V243a6.59,6.59,0,0,1,5.16-6.44A6.37,6.37,0,0,0,468.94,227.58Z" style="fill:#FFC100"></path><path d="M468.94,227.58l-61.41-129a8.51,8.51,0,0,0-5.4-4.71,8.1,8.1,0,0,0-9.4,4.36L331.15,227.58a6.37,6.37,0,0,0,4.36,8.95,6.58,6.58,0,0,1,5.16,6.43v1.51a11,11,0,0,0,13.14,11l.94-.18a11,11,0,0,1,12.3,6.59l1.58,3.82a10.9,10.9,0,0,0,15.09,5.52l9-4.67a15.86,15.86,0,0,1,14.65,0l9,4.67a10.9,10.9,0,0,0,15.09-5.52L433,261.9a11,11,0,0,1,12.3-6.59l.94.18a11,11,0,0,0,13.14-10.8V243a6.59,6.59,0,0,1,5.16-6.44A6.37,6.37,0,0,0,468.94,227.58Z" style="opacity:0.30000000000000004"></path><g style="opacity:0.2"><path d="M349.61,202.71V204a9.39,9.39,0,0,0,11.16,9.36l.8-.15A9.36,9.36,0,0,1,372,218.8l1.33,3.24a9.27,9.27,0,0,0,12.83,4.69l7.64-4a13.49,13.49,0,0,1,12.45,0l7.64,4A9.27,9.27,0,0,0,426.74,222l1.33-3.24a9.36,9.36,0,0,1,10.45-5.6l.8.15a9.35,9.35,0,0,0,11.16-9.18v-1.46a5.59,5.59,0,0,1,4.07-5.37l-47-98.78a8.51,8.51,0,0,0-5.4-4.71,8.1,8.1,0,0,0-9.4,4.36l-47.19,99.13A5.59,5.59,0,0,1,349.61,202.71Z"></path></g><path d="M455.63,184.35,406.09,80.27a6.89,6.89,0,0,0-4.36-3.8A6.55,6.55,0,0,0,394.14,80L344.46,184.35a5.13,5.13,0,0,0,3.52,7.22,5.32,5.32,0,0,1,4.17,5.2V198a8.91,8.91,0,0,0,10.59,8.89l.76-.15a8.9,8.9,0,0,1,9.93,5.33l1.27,3.08a8.81,8.81,0,0,0,12.18,4.45l7.25-3.77a12.87,12.87,0,0,1,11.83,0l7.25,3.77a8.81,8.81,0,0,0,12.18-4.45l1.27-3.08a8.9,8.9,0,0,1,9.93-5.33l.76.15a8.87,8.87,0,0,0,10.59-8.71v-1.39a5.33,5.33,0,0,1,4.17-5.2A5.13,5.13,0,0,0,455.63,184.35Z" style="fill:#FFC100"></path><path d="M455.63,184.35,406.09,80.27a6.89,6.89,0,0,0-4.36-3.8A6.55,6.55,0,0,0,394.14,80L344.46,184.35a5.13,5.13,0,0,0,3.52,7.22,5.32,5.32,0,0,1,4.17,5.2V198a8.91,8.91,0,0,0,10.59,8.89l.76-.15a8.9,8.9,0,0,1,9.93,5.33l1.27,3.08a8.81,8.81,0,0,0,12.18,4.45l7.25-3.77a12.87,12.87,0,0,1,11.83,0l7.25,3.77a8.81,8.81,0,0,0,12.18-4.45l1.27-3.08a8.9,8.9,0,0,1,9.93-5.33l.76.15a8.87,8.87,0,0,0,10.59-8.71v-1.39a5.33,5.33,0,0,1,4.17-5.2A5.13,5.13,0,0,0,455.63,184.35Z" style="opacity:0.2"></path><g style="opacity:0.2"><path d="M364.71,156v.89a6.57,6.57,0,0,0,7.82,6.56l.56-.11a6.55,6.55,0,0,1,7.32,3.93l.94,2.27a6.47,6.47,0,0,0,9,3.28l5.35-2.77a9.48,9.48,0,0,1,8.73,0l5.35,2.77a6.47,6.47,0,0,0,9-3.28l.94-2.27a6.56,6.56,0,0,1,7.32-3.93l.56.11a6.55,6.55,0,0,0,7.82-6.43v-1a3.93,3.93,0,0,1,3.07-3.84,3.76,3.76,0,0,0,1.51-.71L406.09,80.27a6.89,6.89,0,0,0-4.36-3.8A6.55,6.55,0,0,0,394.14,80l-34,71.45a3.76,3.76,0,0,0,1.51.71A3.93,3.93,0,0,1,364.71,156Z"></path></g><path d="M439.71,138.85,404.36,64.58a4.91,4.91,0,0,0-3.11-2.72,4.69,4.69,0,0,0-5.42,2.51l-35.45,74.48A3.66,3.66,0,0,0,362.9,144a3.8,3.8,0,0,1,3,3.71v.86a6.36,6.36,0,0,0,7.56,6.35l.54-.11a6.34,6.34,0,0,1,7.08,3.8l.91,2.2a6.27,6.27,0,0,0,8.69,3.17l5.18-2.68a9.1,9.1,0,0,1,8.43,0l5.18,2.68a6.27,6.27,0,0,0,8.69-3.17l.91-2.2a6.34,6.34,0,0,1,7.08-3.8l.54.11a6.34,6.34,0,0,0,7.56-6.22v-1a3.8,3.8,0,0,1,3-3.71A3.66,3.66,0,0,0,439.71,138.85Z" style="fill:#FFC100"></path><path d="M144.91,255.91l-16.09-.22-.41,30.39h0a4.05,4.05,0,0,0,2.33,3.33,12.54,12.54,0,0,0,11.38.15c1.58-.89,2.38-2.07,2.39-3.26h0Z" style="fill:#f28f8f"></path><path d="M144.91,255.91l-16.09-.22-.41,30.39h0a4.05,4.05,0,0,0,2.33,3.33,12.54,12.54,0,0,0,11.38.15c1.58-.89,2.38-2.07,2.39-3.26h0Z" style="opacity:0.30000000000000004"></path><path d="M132.12,289.75h0a4.84,4.84,0,1,0-9.67-.13,2.41,2.41,0,0,0,1.4,2,7.51,7.51,0,0,0,6.83.09,2.4,2.4,0,0,0,1.44-2Z" style="fill:#37474f"></path><path d="M130.25,285.74a5.11,5.11,0,0,1,.73,1.57,3.2,3.2,0,0,1-.38,2.65,4.18,4.18,0,0,1-2.36,1.42,10.63,10.63,0,0,1-4.31.28,7.5,7.5,0,0,0,6.75,0,2.4,2.4,0,0,0,1.44-2h0A4.48,4.48,0,0,0,130.25,285.74Z" style="opacity:0.30000000000000004"></path><path d="M124,292h0a3.39,3.39,0,1,0-6.77-.09,1.68,1.68,0,0,0,1,1.4,5.29,5.29,0,0,0,4.79.06,1.67,1.67,0,0,0,1-1.37Z" style="fill:#455a64"></path><path d="M122.65,289.21a3.7,3.7,0,0,1,.52,1.1,2.26,2.26,0,0,1-.27,1.85,2.87,2.87,0,0,1-1.65,1,7.34,7.34,0,0,1-3,.2,5.28,5.28,0,0,0,4.73,0,1.67,1.67,0,0,0,1-1.37h0A3.11,3.11,0,0,0,122.65,289.21Z" style="opacity:0.30000000000000004"></path><path d="M150.15,288.82h0a3.67,3.67,0,1,0-7.34-.1,1.82,1.82,0,0,0,1.06,1.52,5.72,5.72,0,0,0,5.19.07,1.82,1.82,0,0,0,1.09-1.49Z" style="fill:#455a64"></path><path d="M148.73,285.78a4.32,4.32,0,0,1,.56,1.19,2.45,2.45,0,0,1-.3,2,3.13,3.13,0,0,1-1.79,1.08,8,8,0,0,1-3.27.21,5.72,5.72,0,0,0,5.13,0,1.82,1.82,0,0,0,1.09-1.49h0A3.39,3.39,0,0,0,148.73,285.78Z" style="opacity:0.30000000000000004"></path><path d="M191.39,238.81l-47-102.31a6.72,6.72,0,0,0-4.21-3.77,6.39,6.39,0,0,0-7.46,3.33L82.81,237.36a5,5,0,0,0,3.35,7.1,5.18,5.18,0,0,1,4,5.12v1.19a8.71,8.71,0,0,0,10.23,8.82l.75-.13a8.66,8.66,0,0,1,9.62,5.33l1.2,3a8.61,8.61,0,0,0,11.84,4.51l7.14-3.59a12.53,12.53,0,0,1,11.55.16l7,3.77a8.6,8.6,0,0,0,12-4.19l1.28-3a8.68,8.68,0,0,1,9.76-5.07l.74.15a8.68,8.68,0,0,0,10.47-8.37v-1.36a5.21,5.21,0,0,1,4.14-5A5,5,0,0,0,191.39,238.81Z" style="fill:#FFC100"></path><path d="M191.39,238.81l-47-102.31a6.72,6.72,0,0,0-4.21-3.77,6.39,6.39,0,0,0-7.46,3.33L82.81,237.36a5,5,0,0,0,3.35,7.1,5.18,5.18,0,0,1,4,5.12v1.19a8.71,8.71,0,0,0,10.23,8.82l.75-.13a8.66,8.66,0,0,1,9.62,5.33l1.2,3a8.61,8.61,0,0,0,11.84,4.51l7.14-3.59a12.53,12.53,0,0,1,11.55.16l7,3.77a8.6,8.6,0,0,0,12-4.19l1.28-3a8.68,8.68,0,0,1,9.76-5.07l.74.15a8.68,8.68,0,0,0,10.47-8.37v-1.36a5.21,5.21,0,0,1,4.14-5A5,5,0,0,0,191.39,238.81Z" style="opacity:0.30000000000000004"></path><g style="opacity:0.2"><path d="M97.62,218l0,1a7.4,7.4,0,0,0,8.7,7.49l.63-.11a7.38,7.38,0,0,1,8.18,4.52l1,2.57a7.29,7.29,0,0,0,10.05,3.83l6.07-3a10.63,10.63,0,0,1,9.81.13l6,3.2A7.29,7.29,0,0,0,158.19,234l1.09-2.54a7.38,7.38,0,0,1,8.29-4.31l.63.14a7.38,7.38,0,0,0,8.89-7.12l0-1.15a4.4,4.4,0,0,1,3.26-4.19l-36-78.33a6.72,6.72,0,0,0-4.21-3.77,6.39,6.39,0,0,0-7.46,3.33L94.47,213.68A4.42,4.42,0,0,1,97.62,218Z"></path></g><path d="M181.35,204.61l-37.94-82.54a5.4,5.4,0,0,0-3.4-3,5.15,5.15,0,0,0-6,2.68L93.76,203.44a4,4,0,0,0,2.69,5.72,4.2,4.2,0,0,1,3.23,4.14v1a7,7,0,0,0,8.25,7.12l.6-.11a7,7,0,0,1,7.77,4.3l1,2.43a6.93,6.93,0,0,0,9.55,3.64l5.76-2.89a10.1,10.1,0,0,1,9.31.12l5.68,3a7,7,0,0,0,9.65-3.38l1-2.42a7,7,0,0,1,7.88-4.09l.59.13a7,7,0,0,0,8.44-6.76l0-1.09a4.18,4.18,0,0,1,3.33-4.05A4,4,0,0,0,181.35,204.61Z" style="fill:#FFC100"></path><path d="M181.35,204.61l-37.94-82.54a5.4,5.4,0,0,0-3.4-3,5.15,5.15,0,0,0-6,2.68L93.76,203.44a4,4,0,0,0,2.69,5.72,4.2,4.2,0,0,1,3.23,4.14v1a7,7,0,0,0,8.25,7.12l.6-.11a7,7,0,0,1,7.77,4.3l1,2.43a6.93,6.93,0,0,0,9.55,3.64l5.76-2.89a10.1,10.1,0,0,1,9.31.12l5.68,3a7,7,0,0,0,9.65-3.38l1-2.42a7,7,0,0,1,7.88-4.09l.59.13a7,7,0,0,0,8.44-6.76l0-1.09a4.18,4.18,0,0,1,3.33-4.05A4,4,0,0,0,181.35,204.61Z" style="opacity:0.2"></path><g style="opacity:0.2"><path d="M110,181.29V182a5.18,5.18,0,0,0,6.09,5.25l.44-.08a5.16,5.16,0,0,1,5.73,3.17l.72,1.8a5.11,5.11,0,0,0,7,2.68l4.25-2.13a7.44,7.44,0,0,1,6.87.09l4.19,2.24a5.12,5.12,0,0,0,7.12-2.49l.76-1.78a5.16,5.16,0,0,1,5.81-3l.44.09a5.17,5.17,0,0,0,6.23-5V182a3.1,3.1,0,0,1,2.46-3,2.88,2.88,0,0,0,1.19-.54l-25.94-56.43a5.4,5.4,0,0,0-3.4-3,5.15,5.15,0,0,0-6,2.68l-27.55,56a3,3,0,0,0,1.18.58A3.09,3.09,0,0,1,110,181.29Z"></path></g><path d="M169.29,168.58l-27.08-58.9a3.86,3.86,0,0,0-2.42-2.17,3.7,3.7,0,0,0-4.3,1.92l-28.71,58.32a2.88,2.88,0,0,0,1.92,4.08,3,3,0,0,1,2.31,2.95v.69a5,5,0,0,0,5.89,5.08l.43-.08a5,5,0,0,1,5.54,3.07l.69,1.74a4.94,4.94,0,0,0,6.81,2.59l4.11-2.06a7.2,7.2,0,0,1,6.65.09l4,2.17a5,5,0,0,0,6.88-2.41l.74-1.72a5,5,0,0,1,5.62-2.92l.43.09a5,5,0,0,0,6-4.83v-.78a3,3,0,0,1,2.38-2.89A2.89,2.89,0,0,0,169.29,168.58Z" style="fill:#FFC100"></path><path d="M67.47,161.43c.32,0,.63.08.94.14a17.84,17.84,0,0,1,5.22,1.79A19.67,19.67,0,0,1,76,164.83a5.05,5.05,0,0,1,1.58,1.8c1.41,2.57,1.7,5.88,4,7.75,1.57,1.29,3.71,1.55,5.7,2s4.14,1.22,5,3.05c1.15,2.34-.31,5.09-1.84,7.21s-3.26,4.56-2.64,7.1c.5,2,2.43,3.43,4.38,4.23s4.07,1.21,5.9,2.28a5.64,5.64,0,0,1,2.9,5.88c-.54,3-3.45,3.65-4.82,6.05a4.19,4.19,0,0,0,1.31,5.42,10.71,10.71,0,0,0,3.64,1.11,4.78,4.78,0,0,1,3.23,1.85c.67,1.09.2,2.87-1.06,3.05s-1.3,2-.6,2.9a4.61,4.61,0,0,0,3,1.52,25.6,25.6,0,0,1,3.38.55,6.06,6.06,0,0,1,2.5,10.08,12.75,12.75,0,0,1-3.07,2,11.12,11.12,0,0,0-3,2.06,3.94,3.94,0,0,0-1.18,3.34,2.45,2.45,0,0,0,2.63,2,14.09,14.09,0,0,1,6.34,2,9.1,9.1,0,0,1,4.64,5.87,6.08,6.08,0,0,1-2.89,6.58,9.94,9.94,0,0,1-4.76.66,10.79,10.79,0,0,0-4.77.56c-1.48.66-2.68,2.27-2.3,3.84.3,1.24,1.43,2.06,2.42,2.86s2,1.85,1.94,3.12-1.32,2.28-2.51,2.89a17.08,17.08,0,0,1-14.63.31c-1.17-.54-2.52-1.32-3.82-.75-1.12.49-1,2-1.58,3-.88,1.47-2.74,2.22-4.3,2.75a8.75,8.75,0,0,1-6.32-.43,17.65,17.65,0,0,1-5-4l-4.39-4.52c-3.08-3.15-7.51.19-10.94,2.95-1,.82-1.9,1.79-2.92,2.61a6.35,6.35,0,0,1-3.53,1.57,3.23,3.23,0,0,1-3.2-1.79c-.49-1.17-.08-2.67-.87-3.66s-2-.94-3.14-.77c-1.89.28-3.72,1-5.64,1.11s-4.07-.47-5-2.13c-.82-1.43-.55-3.2-.52-4.85s-.41-3.59-1.92-4.23a10.51,10.51,0,0,1-3.7-2.42,5.64,5.64,0,0,1-2-4.78,6,6,0,0,1,3-3.92,35.7,35.7,0,0,1,4.64-2,8.79,8.79,0,0,0,4-3A5.41,5.41,0,0,0,28.81,239a8,8,0,0,1-3.38-.82A3.26,3.26,0,0,1,23.24,235a3.58,3.58,0,0,1,1.51-2.28c.75-.56,1.6-1,2.37-1.51a23.86,23.86,0,0,0,4-4.2,8.65,8.65,0,0,1,4.74-3.17c.61-.11,1.22-.1,1.82-.23a2.28,2.28,0,0,0,1.53-.93c.87-1.45-.7-2.79-.53-4.33a3.8,3.8,0,0,1,1.57-2.65,17,17,0,0,1,2.09-1.05A2.8,2.8,0,0,0,43.89,213c.19-.8-.2-1.63-.11-2.45a11.36,11.36,0,0,1,1-2.42,4.55,4.55,0,0,0-.9-4.2c-1.27-1.64-3.21-2.46-3.83-4.61a4.67,4.67,0,0,1,1.22-4.55c3-2.86,7.89.24,11-2.63,2.23-2.07,1.39-5.7.11-8a27.69,27.69,0,0,1-1.76-3.37c-.5-1.34-.64-3.17.37-4.32s2.82-1.41,4.41-1.61,3.37-.61,4.18-2a5.14,5.14,0,0,0,.23-3.69,9,9,0,0,1-.36-3.14,4.87,4.87,0,0,1,1.29-2.59,6.64,6.64,0,0,1,3.59-1.84A10.33,10.33,0,0,1,67.47,161.43Z" style="fill:#FFC100"></path><path d="M67.47,161.43c.32,0,.63.08.94.14a17.84,17.84,0,0,1,5.22,1.79A19.67,19.67,0,0,1,76,164.83a5.05,5.05,0,0,1,1.58,1.8c1.41,2.57,1.7,5.88,4,7.75,1.57,1.29,3.71,1.55,5.7,2s4.14,1.22,5,3.05c1.15,2.34-.31,5.09-1.84,7.21s-3.26,4.56-2.64,7.1c.5,2,2.43,3.43,4.38,4.23s4.07,1.21,5.9,2.28a5.64,5.64,0,0,1,2.9,5.88c-.54,3-3.45,3.65-4.82,6.05a4.19,4.19,0,0,0,1.31,5.42,10.71,10.71,0,0,0,3.64,1.11,4.78,4.78,0,0,1,3.23,1.85c.67,1.09.2,2.87-1.06,3.05s-1.3,2-.6,2.9a4.61,4.61,0,0,0,3,1.52,25.6,25.6,0,0,1,3.38.55,6.06,6.06,0,0,1,2.5,10.08,12.75,12.75,0,0,1-3.07,2,11.12,11.12,0,0,0-3,2.06,3.94,3.94,0,0,0-1.18,3.34,2.45,2.45,0,0,0,2.63,2,14.09,14.09,0,0,1,6.34,2,9.1,9.1,0,0,1,4.64,5.87,6.08,6.08,0,0,1-2.89,6.58,9.94,9.94,0,0,1-4.76.66,10.79,10.79,0,0,0-4.77.56c-1.48.66-2.68,2.27-2.3,3.84.3,1.24,1.43,2.06,2.42,2.86s2,1.85,1.94,3.12-1.32,2.28-2.51,2.89a17.08,17.08,0,0,1-14.63.31c-1.17-.54-2.52-1.32-3.82-.75-1.12.49-1,2-1.58,3-.88,1.47-2.74,2.22-4.3,2.75a8.75,8.75,0,0,1-6.32-.43,17.65,17.65,0,0,1-5-4l-4.39-4.52c-3.08-3.15-7.51.19-10.94,2.95-1,.82-1.9,1.79-2.92,2.61a6.35,6.35,0,0,1-3.53,1.57,3.23,3.23,0,0,1-3.2-1.79c-.49-1.17-.08-2.67-.87-3.66s-2-.94-3.14-.77c-1.89.28-3.72,1-5.64,1.11s-4.07-.47-5-2.13c-.82-1.43-.55-3.2-.52-4.85s-.41-3.59-1.92-4.23a10.51,10.51,0,0,1-3.7-2.42,5.64,5.64,0,0,1-2-4.78,6,6,0,0,1,3-3.92,35.7,35.7,0,0,1,4.64-2,8.79,8.79,0,0,0,4-3A5.41,5.41,0,0,0,28.81,239a8,8,0,0,1-3.38-.82A3.26,3.26,0,0,1,23.24,235a3.58,3.58,0,0,1,1.51-2.28c.75-.56,1.6-1,2.37-1.51a23.86,23.86,0,0,0,4-4.2,8.65,8.65,0,0,1,4.74-3.17c.61-.11,1.22-.1,1.82-.23a2.28,2.28,0,0,0,1.53-.93c.87-1.45-.7-2.79-.53-4.33a3.8,3.8,0,0,1,1.57-2.65,17,17,0,0,1,2.09-1.05A2.8,2.8,0,0,0,43.89,213c.19-.8-.2-1.63-.11-2.45a11.36,11.36,0,0,1,1-2.42,4.55,4.55,0,0,0-.9-4.2c-1.27-1.64-3.21-2.46-3.83-4.61a4.67,4.67,0,0,1,1.22-4.55c3-2.86,7.89.24,11-2.63,2.23-2.07,1.39-5.7.11-8a27.69,27.69,0,0,1-1.76-3.37c-.5-1.34-.64-3.17.37-4.32s2.82-1.41,4.41-1.61,3.37-.61,4.18-2a5.14,5.14,0,0,0,.23-3.69,9,9,0,0,1-.36-3.14,4.87,4.87,0,0,1,1.29-2.59,6.64,6.64,0,0,1,3.59-1.84A10.33,10.33,0,0,1,67.47,161.43Z" style="fill:#fff;opacity:0.2"></path><path d="M21.56,256.34a6,6,0,0,1,3-3.92,35.7,35.7,0,0,1,4.64-2,8.79,8.79,0,0,0,4-3A5.41,5.41,0,0,0,28.81,239a8,8,0,0,1-3.38-.82A3.26,3.26,0,0,1,23.24,235a3.58,3.58,0,0,1,1.51-2.28c.75-.56,1.6-1,2.37-1.51a23.86,23.86,0,0,0,4-4.2,8.65,8.65,0,0,1,4.74-3.17c.61-.11,1.22-.1,1.82-.23a2.28,2.28,0,0,0,1.53-.93c.87-1.45-.7-2.79-.53-4.33a3.8,3.8,0,0,1,1.57-2.65,17,17,0,0,1,2.09-1.05A2.8,2.8,0,0,0,43.89,213c.19-.8-.2-1.63-.11-2.45a11.36,11.36,0,0,1,1-2.42,4.53,4.53,0,0,0-.91-4.2c-1.26-1.64-3.2-2.46-3.82-4.61a4.57,4.57,0,0,1,0-2.54,4.88,4.88,0,0,0,1.16,2.17,14.43,14.43,0,0,0,4.54,2.74,8.57,8.57,0,0,1,4.11,3.27c1.19,2.17.49,4.92-.77,7s-3,3.92-4.24,6.09-1.69,5-.28,7c1,1.4,2.77,2.37,2.94,4.06s-1.25,2.92-1.71,4.46c-.64,2.13.6,4.32.8,6.52a7.08,7.08,0,0,1-1,4.28,8.34,8.34,0,0,1-2.78,2.49c-2.09,1.44-4.32,3.12-5,5.7a4.77,4.77,0,0,0,1,4.41,4.94,4.94,0,0,0,3.52,1.4,10.3,10.3,0,0,0,3.77-.82c1-.4,2.21-.87,3.17-.33a2.39,2.39,0,0,1,1,2.34,8.37,8.37,0,0,1-.87,2.55,5.34,5.34,0,0,0-.63,2.6,3.77,3.77,0,0,0,3,3.1,11.5,11.5,0,0,0,4.59-.31c1.52-.3,2.65-1.82,3.93-2.6a7.4,7.4,0,0,1,6.52-.4,10.56,10.56,0,0,1,5,4.41c.71,1.16,1.24,2.42,2,3.57a6.56,6.56,0,0,0,2.9,2.74,3.39,3.39,0,0,0,3.76-.63,4.11,4.11,0,0,0,.87-2.52c0-.91,0-1.81,0-2.72a3.69,3.69,0,0,1,1-2.44,2,2,0,0,1,2.48-.19c3.19,2.73,7.37,2.11,11,4.17a7.6,7.6,0,0,0,2.2,1,2.41,2.41,0,0,0,2.25-.56,2.92,2.92,0,0,0,.25-2.94,12.41,12.41,0,0,1-1-2.91c-.25-2.41,1.92-4,3.94-4.66a10.49,10.49,0,0,1,3.83,0l4.74.34a7.7,7.7,0,0,0,4.16-.48,4.3,4.3,0,0,0,1.27-1.05,5.38,5.38,0,0,1-2.53,2.86,9.94,9.94,0,0,1-4.76.66,10.79,10.79,0,0,0-4.77.56c-1.48.66-2.68,2.27-2.3,3.84.3,1.24,1.43,2.06,2.42,2.86s2,1.85,1.94,3.12-1.32,2.28-2.51,2.89a17.08,17.08,0,0,1-14.63.31c-1.17-.54-2.52-1.32-3.82-.75-1.12.49-1,2-1.58,3-.88,1.47-2.74,2.22-4.3,2.75a8.75,8.75,0,0,1-6.32-.43,17.65,17.65,0,0,1-5-4l-4.39-4.52c-3.08-3.15-7.51.19-10.94,2.95-1,.82-1.9,1.79-2.92,2.61a6.35,6.35,0,0,1-3.53,1.57,3.23,3.23,0,0,1-3.2-1.79c-.49-1.17-.08-2.67-.87-3.66s-2-.94-3.14-.77c-1.89.28-3.72,1-5.64,1.11s-4.07-.47-5-2.13c-.82-1.43-.55-3.2-.52-4.85s-.41-3.59-1.92-4.23a10.51,10.51,0,0,1-3.7-2.42A5.64,5.64,0,0,1,21.56,256.34Z" style="opacity:0.1"></path><path d="M88.1,222.93c-6.2,10-13.83,23.57-17,29.24-.4-25.09-1-49.48-1.85-69.12-1.09,20.57-1.63,46-1.84,72-3.29-6.73-9.14-18.57-14.05-27.66,3.54,10.86,10.84,26.8,14,33.53-.42,64.59,1,72.17,1,72.17h3.48s.26-10.2-.71-75.67C73.85,252.53,83.47,234.74,88.1,222.93Z" style="fill:#263238"></path></g><g id="freepik--Rocks--inject-454"><polygon points="48.59 341.89 72.5 321.14 82.44 320.34 96.6 328.52 98.62 335.72 105.03 342.03 107.57 350.64 93.93 355.81 92.48 357.81 83.26 361.58 79.06 367.01 67.45 366.5 62.94 361.52 49.8 359.02 40.26 354.71 41.14 348.76 43.95 342.98 48.59 341.89" style="fill:#FFC100"></polygon><polygon points="48.59 341.89 43.95 342.98 41.14 348.76 51.21 353.83 70.02 356.99 73.91 356.13 78.16 345.3 72.37 354.43 52.54 351.29 45.35 347.7 45.12 343.67 48.59 341.89" style="opacity:0.1"></polygon><polygon points="58.49 333.3 54.56 341.6 64.54 341.59 76.77 345.61 64.91 338.31 59.28 339.54 59.44 335.94 63.97 328.54 58.49 333.3" style="opacity:0.1"></polygon><polygon points="59.77 347.59 65.5 346.33 64.54 341.59 54.56 341.6 59.77 347.59" style="opacity:0.30000000000000004"></polygon><polygon points="73.81 352.17 65.5 346.33 64.54 341.59 76.77 345.61 73.81 352.17" style="opacity:0.4"></polygon><polygon points="72.5 321.14 73.47 330.58 78.31 335.37 82.86 329.35 82.44 320.34 72.5 321.14" style="opacity:0.2"></polygon><polygon points="80.22 337.89 85.16 329.86 82.44 320.34 82.86 329.35 78.31 335.37 80.22 337.89" style="opacity:0.1"></polygon><polygon points="78.16 345.3 80.22 337.89 85.16 329.86 82.44 320.34 96.6 328.52 91.69 334.2 82.89 337.88 78.16 345.3" style="opacity:0.30000000000000004"></polygon><polygon points="79.06 367.01 73.91 356.13 78.16 345.3 82.89 337.88 91.69 334.2 96.6 328.52 98.62 335.72 92.01 334.77 84.88 339.61 81.27 345.2 79.06 367.01" style="opacity:0.4"></polygon><polygon points="83.26 361.58 80.4 353.75 79.06 367.01 83.26 361.58" style="opacity:0.30000000000000004"></polygon><polygon points="92.48 357.81 93.01 350.63 96.11 339.18 104.96 351.63 93.93 355.81 92.48 357.81" style="opacity:0.4"></polygon><polygon points="92.01 334.77 96.11 339.18 104.96 351.63 107.57 350.64 105.03 342.03 98.62 335.72 92.01 334.77" style="opacity:0.30000000000000004"></polygon><polygon points="83.26 361.58 92.48 357.81 93.01 350.63 96.11 339.18 92.01 334.77 84.88 339.61 81.27 345.2 80.4 353.75 83.26 361.58" style="opacity:0.2"></polygon><polygon points="70.02 356.99 67.45 366.5 79.06 367.01 73.91 356.13 70.02 356.99" style="opacity:0.30000000000000004"></polygon><polygon points="62.94 361.52 65.91 356.3 70.02 356.99 67.45 366.5 62.94 361.52" style="opacity:0.4"></polygon><polygon points="54.74 359.96 57.23 354.84 65.91 356.3 62.94 361.52 54.74 359.96" style="opacity:0.30000000000000004"></polygon><polygon points="49.8 359.02 51.21 353.83 57.23 354.84 54.74 359.96 49.8 359.02" style="opacity:0.4"></polygon><polygon points="41.14 348.76 51.21 353.83 49.8 359.02 40.26 354.71 41.14 348.76" style="opacity:0.30000000000000004"></polygon><polygon points="59.44 335.94 59.28 339.54 64.91 338.31 76.77 345.61 73.81 352.17 78.16 345.3 80.22 337.89 78.31 335.37 73.47 330.58 72.5 321.14 63.97 328.54 59.44 335.94" style="opacity:0.05"></polygon><polygon points="384.19 336.98 401.59 321.56 408.88 320.9 419.35 326.8 420.88 332.07 425.63 336.65 427.57 342.96 417.59 346.86 416.54 348.34 409.8 351.18 406.76 355.2 398.23 354.91 394.88 351.29 385.21 349.55 378.18 346.45 378.78 342.08 380.79 337.82 384.19 336.98" style="fill:#FFC100"></polygon><polygon points="384.19 336.98 380.79 337.82 378.78 342.08 386.21 345.73 400.05 347.9 402.89 347.25 405.93 339.26 401.75 346.01 387.17 343.85 381.86 341.27 381.66 338.31 384.19 336.98" style="opacity:0.1"></polygon><polygon points="391.39 330.6 388.58 336.72 395.9 336.64 404.91 339.5 396.15 334.23 392.03 335.18 392.11 332.53 395.39 327.06 391.39 330.6" style="opacity:0.1"></polygon><polygon points="392.45 341.08 396.64 340.11 395.9 336.64 388.58 336.72 392.45 341.08" style="opacity:0.30000000000000004"></polygon><polygon points="402.79 344.34 396.64 340.11 395.9 336.64 404.91 339.5 402.79 344.34" style="opacity:0.4"></polygon><polygon points="401.59 321.56 402.38 328.49 405.97 331.97 409.26 327.51 408.88 320.9 401.59 321.56" style="opacity:0.2"></polygon><polygon points="407.39 333.8 410.95 327.87 408.88 320.9 409.26 327.51 405.97 331.97 407.39 333.8" style="opacity:0.1"></polygon><polygon points="405.93 339.26 407.39 333.8 410.95 327.87 408.88 320.9 419.35 326.8 415.78 331.01 409.35 333.78 405.93 339.26" style="opacity:0.30000000000000004"></polygon><polygon points="406.76 355.2 402.89 347.25 405.93 339.26 409.35 333.78 415.78 331.01 419.35 326.8 420.88 332.07 416.02 331.42 410.82 335.03 408.21 339.17 406.76 355.2" style="opacity:0.4"></polygon><polygon points="409.8 351.18 407.64 345.44 406.76 355.2 409.8 351.18" style="opacity:0.30000000000000004"></polygon><polygon points="416.54 348.34 416.88 343.06 419.06 334.63 425.66 343.71 417.59 346.86 416.54 348.34" style="opacity:0.4"></polygon><polygon points="416.02 331.42 419.06 334.63 425.66 343.71 427.57 342.96 425.63 336.65 420.88 332.07 416.02 331.42" style="opacity:0.30000000000000004"></polygon><polygon points="409.8 351.18 416.54 348.34 416.88 343.06 419.06 334.63 416.02 331.42 410.82 335.03 408.21 339.17 407.64 345.44 409.8 351.18" style="opacity:0.2"></polygon><polygon points="400.05 347.9 398.23 354.91 406.76 355.2 402.89 347.25 400.05 347.9" style="opacity:0.30000000000000004"></polygon><polygon points="394.88 351.29 397.02 347.43 400.05 347.9 398.23 354.91 394.88 351.29" style="opacity:0.4"></polygon><polygon points="388.85 350.2 390.63 346.43 397.02 347.43 394.88 351.29 388.85 350.2" style="opacity:0.30000000000000004"></polygon><polygon points="385.21 349.55 386.21 345.73 390.63 346.43 388.85 350.2 385.21 349.55" style="opacity:0.4"></polygon><polygon points="378.78 342.08 386.21 345.73 385.21 349.55 378.18 346.45 378.78 342.08" style="opacity:0.30000000000000004"></polygon><polygon points="392.11 332.53 392.03 335.18 396.15 334.23 404.91 339.5 402.79 344.34 405.93 339.26 407.39 333.8 405.97 331.97 402.38 328.49 401.59 321.56 395.39 327.06 392.11 332.53" style="opacity:0.05"></polygon><polygon points="416.83 343.29 429.33 332.22 434.57 331.74 442.08 335.98 443.19 339.76 446.6 343.06 447.99 347.59 440.82 350.39 440.07 351.45 435.22 353.49 433.04 356.38 426.91 356.17 424.5 353.57 417.56 352.32 412.5 350.1 412.94 346.96 414.38 343.89 416.83 343.29" style="fill:#FFC100"></polygon><polygon points="416.83 343.29 414.38 343.89 412.94 346.96 418.27 349.58 428.22 351.14 430.26 350.67 432.44 344.93 429.44 349.78 418.96 348.23 415.15 346.37 415.01 344.25 416.83 343.29" style="opacity:0.1"></polygon><polygon points="422 338.71 419.98 343.11 425.24 343.05 431.71 345.1 425.42 341.31 422.45 342 422.52 340.1 424.87 336.17 422 338.71" style="opacity:0.1"></polygon><polygon points="422.76 346.24 425.77 345.54 425.24 343.05 419.98 343.11 422.76 346.24" style="opacity:0.30000000000000004"></polygon><polygon points="430.19 348.58 425.77 345.54 425.24 343.05 431.71 345.1 430.19 348.58" style="opacity:0.4"></polygon><polygon points="429.33 332.22 429.89 337.19 432.47 339.69 434.84 336.49 434.57 331.74 429.33 332.22" style="opacity:0.2"></polygon><polygon points="433.49 341.01 436.05 336.75 434.57 331.74 434.84 336.49 432.47 339.69 433.49 341.01" style="opacity:0.1"></polygon><polygon points="432.44 344.93 433.49 341.01 436.05 336.75 434.57 331.74 442.08 335.98 439.52 339 434.9 340.99 432.44 344.93" style="opacity:0.30000000000000004"></polygon><polygon points="433.04 356.38 430.26 350.67 432.44 344.93 434.9 340.99 439.52 339 442.08 335.98 443.19 339.76 439.69 339.3 435.96 341.89 434.08 344.86 433.04 356.38" style="opacity:0.4"></polygon><polygon points="435.22 353.49 433.68 349.37 433.04 356.38 435.22 353.49" style="opacity:0.30000000000000004"></polygon><polygon points="440.07 351.45 440.31 347.66 441.88 341.6 446.62 348.12 440.82 350.39 440.07 351.45" style="opacity:0.4"></polygon><polygon points="439.69 339.3 441.88 341.6 446.62 348.12 447.99 347.59 446.6 343.06 443.19 339.76 439.69 339.3" style="opacity:0.30000000000000004"></polygon><polygon points="435.22 353.49 440.07 351.45 440.31 347.66 441.88 341.6 439.69 339.3 435.96 341.89 434.08 344.86 433.68 349.37 435.22 353.49" style="opacity:0.2"></polygon><polygon points="428.22 351.14 426.91 356.17 433.04 356.38 430.26 350.67 428.22 351.14" style="opacity:0.30000000000000004"></polygon><polygon points="424.5 353.57 426.04 350.8 428.22 351.14 426.91 356.17 424.5 353.57" style="opacity:0.4"></polygon><polygon points="420.17 352.79 421.45 350.08 426.04 350.8 424.5 353.57 420.17 352.79" style="opacity:0.30000000000000004"></polygon><polygon points="417.56 352.32 418.27 349.58 421.45 350.08 420.17 352.79 417.56 352.32" style="opacity:0.4"></polygon><polygon points="412.94 346.96 418.27 349.58 417.56 352.32 412.5 350.1 412.94 346.96" style="opacity:0.30000000000000004"></polygon><polygon points="422.52 340.1 422.45 342 425.42 341.31 431.71 345.1 430.19 348.58 432.44 344.93 433.49 341.01 432.47 339.69 429.89 337.19 429.33 332.22 424.87 336.17 422.52 340.1" style="opacity:0.05"></polygon></g><g id="freepik--character-2--inject-454"><path d="M349.45,235.43l-2.28.71-1.43-.4.64,19.83,4.38,2.49a.72.72,0,0,0,.21.12,1,1,0,0,0,1-.42,2.65,2.65,0,0,0,.37-1.13A37.57,37.57,0,0,0,349.45,235.43Z" style="fill:#455a64"></path><path d="M349.45,235.43l-2.28.71-1.43-.4.64,19.83,4.38,2.49a.72.72,0,0,0,.21.12,1,1,0,0,0,1-.42,2.65,2.65,0,0,0,.37-1.13A37.57,37.57,0,0,0,349.45,235.43Z" style="opacity:0.2"></path><path d="M349.45,235.43a37.57,37.57,0,0,1,2.92,21.2,2.65,2.65,0,0,1-.37,1.13.84.84,0,0,1-1.59-.32,3.1,3.1,0,0,1,0-1,35.19,35.19,0,0,0-3.27-20.34Z" style="fill:#455a64"></path><polygon points="334.27 297.66 334.27 297.65 334.26 297.66 334.27 297.66" style="fill:#455a64"></polygon><path d="M347.17,236.14l-16.93-4.72-11.58-.78s-3.7,63.3,0,64.56c3.52,1.2,8.17,3.16,14.49,2.58a5.06,5.06,0,0,0,1.09-.12h0a6.05,6.05,0,0,0,1.13-.39c3.61-1.73,8.25-4.22,10.91-6.72A185.47,185.47,0,0,0,347.17,236.14Z" style="fill:#455a64"></path><path d="M349.62,268.82l-12.88,2.94-5,1.13v12.86a3.76,3.76,0,0,0,1.88,3.25l1.89,1.1a3.71,3.71,0,0,0,2.07.49,3.75,3.75,0,0,0,1.69-.49l7.89-4.56A5.59,5.59,0,0,0,350,281,93.64,93.64,0,0,0,349.62,268.82Z" style="fill:#455a64"></path><path d="M336.74,271.76l-5,1.13v12.86a3.76,3.76,0,0,0,1.88,3.25l1.89,1.1a3.71,3.71,0,0,0,2.07.49C335.48,290.52,336.54,283.14,336.74,271.76Z" style="opacity:0.2"></path><path d="M331.76,272.89l12.18-6.38c3.94-1.84,6.06.63,6.05,2.46s-2,8.61-4.6,11.45c-1.9,2.08-5.88-2.55-7.88-5.19a5.15,5.15,0,0,0-3.34-2Z" style="fill:#455a64"></path><path d="M331.76,272.89l12.18-6.38c3.94-1.84,6.06.63,6.05,2.46s-2,8.61-4.6,11.45c-1.9,2.08-5.88-2.55-7.88-5.19a5.15,5.15,0,0,0-3.34-2Z" style="fill:#fff;opacity:0.30000000000000004"></path><path d="M344.54,275.75c.61-.35,1.1-.07,1.1.63a2.38,2.38,0,0,1-1.09,1.9c-.61.35-1.1.07-1.11-.63A2.42,2.42,0,0,1,344.54,275.75Z" style="fill:#455a64"></path><path d="M328.14,294c-6.89-23.38,2.1-62.6,2.1-62.6l-11.58-.78s-3.7,63.3,0,64.56c3.52,1.2,8.17,3.16,14.49,2.58A5.25,5.25,0,0,1,328.14,294Z" style="opacity:0.2"></path><path d="M340.12,234.48a16.77,16.77,0,0,1,7.6-13.17,6.43,6.43,0,0,1,4-1l0-.05c-9.17-.26-36.59-7.38-45.15-13.86h0c-1.41-1-3.46-1-5.76.31a16.77,16.77,0,0,0-7.6,13.17c0,2.77,1.14,4.59,2.9,5.19h0c1.77.74,41.26,12.89,46.65,14.51h0C341.17,238.91,340.13,237.13,340.12,234.48Z" style="fill:#455a64"></path><path d="M340.12,234.48a16.77,16.77,0,0,1,7.6-13.17,6.43,6.43,0,0,1,4-1l0-.05c-9.17-.26-36.59-7.38-45.15-13.86h0c-1.41-1-3.46-1-5.76.31a16.77,16.77,0,0,0-7.6,13.17c0,2.77,1.14,4.59,2.9,5.19h0c1.77.74,41.26,12.89,46.65,14.51h0C341.17,238.91,340.13,237.13,340.12,234.48Z" style="fill:#fff;opacity:0.30000000000000004"></path><path d="M351.74,220.31a6.43,6.43,0,0,0-4,1,16.77,16.77,0,0,0-7.6,13.17c0,2.65,1.05,4.43,2.68,5.1a5.65,5.65,0,0,0,5-.74,16.75,16.75,0,0,0,7.61-13.17C355.37,222.52,353.91,220.61,351.74,220.31Z" style="fill:#455a64"></path><path d="M351.74,220.31a6.43,6.43,0,0,0-4,1,16.77,16.77,0,0,0-7.6,13.17c0,2.65,1.05,4.43,2.68,5.1a5.65,5.65,0,0,0,5-.74,16.75,16.75,0,0,0,7.61-13.17C355.37,222.52,353.91,220.61,351.74,220.31Z" style="fill:#fff;opacity:0.1"></path><path d="M282.78,210.59c.49,1.14,1.83,1.68,2.47,2.74a2.65,2.65,0,1,1-4.64,2.55,7.54,7.54,0,0,0,0,3,3,3,0,0,0,1.9,2.22,5.34,5.34,0,0,0-1.21,5.63,5.41,5.41,0,0,0,4.6,3.5c-.39,2.77,1.41,5.76,3.7,7.38a12,12,0,0,0,8,1.86,26.33,26.33,0,0,0,8-2.35A29,29,0,0,0,317.78,239c2.63-.26,5.37-1,7.19-2.87s2.25-5.32.3-7.1a4,4,0,0,0,4.14,0,3.52,3.52,0,0,0-.61-6.46,3.06,3.06,0,0,0,1.4-2.77,2.87,2.87,0,0,0-2-2.28,2.5,2.5,0,0,1-.68,2.57,2.33,2.33,0,0,1-2.56.12,3.16,3.16,0,0,1-1.31-2.21,10.7,10.7,0,0,1,.05-2.65,19.55,19.55,0,0,0-.88-9c-1.12-2.84-3.52-5.32-6.53-5.84a15.06,15.06,0,0,0-17.57-10.05c-3,.67-6,2.48-7.2,5.34a16.07,16.07,0,0,0-4-.34,5.28,5.28,0,0,0-3.58,1.33,3.2,3.2,0,0,0-.79,3.57c.4.82,1.25,1.56,1.05,2.45s-1.05,1.14-1.46,1.8a2.3,2.3,0,0,0-.05,2.12,7.25,7.25,0,0,0,1.27,1.8c.45.51.92,1.18.67,1.81S283.12,211.2,282.78,210.59Z" style="fill:#263238"></path><path d="M296.39,234.21h-3.62a11.49,11.49,0,0,0-10.45,6.73l-9.2,20.21c-8.38,2.38-14.17,6.83-21.85,7.4-1.49,0-6.74-2.61-8.81-3.67a.75.75,0,0,0-1.07.49h0a1.91,1.91,0,0,0,.7,2l2.44,1.84c-4.93,1-8.79-1.8-10.5.41s-.5,5.69,4.81,7.53,12.08.88,18.78-.64,21.63-5.94,21.63-5.94C292.22,258,296.39,234.21,296.39,234.21Z" style="fill:#f28f8f"></path><path d="M296.39,234.21h-3.62a11.49,11.49,0,0,0-10.45,6.73l-9.2,20.21c-8.38,2.38-14.17,6.83-21.85,7.4-1.49,0-6.74-2.61-8.81-3.67a.75.75,0,0,0-1.07.49h0a1.91,1.91,0,0,0,.7,2l2.44,1.84c-4.93,1-8.79-1.8-10.5.41s-.5,5.69,4.81,7.53,12.08.88,18.78-.64,21.63-5.94,21.63-5.94C292.22,258,296.39,234.21,296.39,234.21Z" style="opacity:0.30000000000000004"></path><path d="M287.5,275.17c-3.31-15.13-5.18-31.17,5.67-40.92C285.79,233,274.17,245,287.5,275.17Z" style="fill:#FFC100"></path><path d="M290.34,397.94a55.3,55.3,0,0,1-1.38,8.85c2.33,6.24,9.63,2.86,9.63,2.86l.16-1,.12-.77c.36-2.24,1.77-6.79,1.77-6.79Z" style="fill:#f28f8f"></path><path d="M290.34,397.94a55.3,55.3,0,0,1-1.38,8.85c2.33,6.24,9.63,2.86,9.63,2.86l.16-1,.12-.77c.36-2.24,1.77-6.79,1.77-6.79Z" style="opacity:0.30000000000000004"></path><path d="M297.75,418c-.94.7-2,1.27-2.92,2-2.6,1.94-4.29,4.41-6.89,6.35a13.38,13.38,0,0,1-9,2.54,16.59,16.59,0,0,1-8.82-3.62,16.49,16.49,0,0,0,.2,2,13.16,13.16,0,0,0,17.46,1.58c2.6-1.93,4.29-4.41,6.89-6.34.94-.7,2-1.27,2.92-2a6.46,6.46,0,0,0,2.16-2.72s-.06-.72-.13-1.82A6.66,6.66,0,0,1,297.75,418Z" style="fill:#f0f0f0"></path><path d="M299.55,408.84a1,1,0,0,0-.68-.94l-.12.77a9.9,9.9,0,0,1-3,0,2.07,2.07,0,0,0-1.77.54l-.28.28c-.15.14-.35.3-.54.22a.37.37,0,0,1-.19-.32,1.23,1.23,0,0,1,.08-.38c.09-.25.18-.57.26-.88a1.42,1.42,0,0,0-.44-1.44,6.47,6.47,0,0,0-3.81-1.54.86.86,0,0,0-.9.71c-.85,4.47-9.11,11.67-11.7,12.09l-.61.11c4.13.5,9.35,2.71,9.77,9.6a13.2,13.2,0,0,0,2.36-1.37c2.6-1.94,4.29-4.41,6.89-6.35.95-.7,2-1.27,2.92-2a6.66,6.66,0,0,0,1.84-2.08A56.83,56.83,0,0,1,299.55,408.84Z" style="fill:#37474f"></path><path d="M275.81,418.1c-3.55.71-5.9,2.45-5.72,7.15a16.59,16.59,0,0,0,8.82,3.62,13.33,13.33,0,0,0,6.67-1.17C285.16,420.81,279.94,418.6,275.81,418.1Z" style="fill:#fff"></path><path d="M338.38,383.1a19.05,19.05,0,0,1,4.87,5.59c4.13,2.54,8.62-4.85,8.62-4.85l-.35-.7c-1.18-2-4-7.07-4-7.07Z" style="fill:#f28f8f"></path><path d="M338.38,383.1a19.05,19.05,0,0,1,4.87,5.59c4.13,2.54,8.62-4.85,8.62-4.85l-.35-.7c-1.18-2-4-7.07-4-7.07Z" style="opacity:0.30000000000000004"></path><path d="M356.45,392c-.36,1.12-.87,2.19-1.24,3.31-1,3.08-.95,6.07-1.95,9.15a13.35,13.35,0,0,1-5.91,7.3,16.49,16.49,0,0,1-9.28,2.14,16.45,16.45,0,0,0,1.29,1.49,13.16,13.16,0,0,0,15.16-8.8c1-3.08,1-6.08,2-9.16.37-1.12.88-2.19,1.24-3.3a6.54,6.54,0,0,0,.19-3.48s-.47-.54-1.15-1.4A6.75,6.75,0,0,1,356.45,392Z" style="fill:#f0f0f0"></path><path d="M352.62,383.52a1,1,0,0,0-1.1-.38l.35.7a9.61,9.61,0,0,1-2.46,1.79,2.07,2.07,0,0,0-1.13,1.47l-.07.38c0,.21-.11.45-.31.49a.36.36,0,0,1-.34-.15,1.05,1.05,0,0,1-.15-.36c-.07-.25-.19-.56-.3-.86a1.42,1.42,0,0,0-1.19-.93,6.65,6.65,0,0,0-4,.95.88.88,0,0,0-.32,1.11c1.89,4.13-.68,14.78-2.56,16.63l-.43.44c3.66-2,9.2-3.21,13.53,2.18a13.3,13.3,0,0,0,1.13-2.49c1-3.08.95-6.07,1.95-9.15.37-1.12.88-2.19,1.24-3.31a6.75,6.75,0,0,0,.31-2.75A59.48,59.48,0,0,1,352.62,383.52Z" style="fill:#37474f"></path><path d="M338.6,404.8c-2.49,2.63-3.4,5.4-.53,9.13a16.49,16.49,0,0,0,9.28-2.14,13.36,13.36,0,0,0,4.78-4.81C347.8,401.59,342.26,402.82,338.6,404.8Z" style="fill:#fff"></path><path d="M323.9,266.51c11.43,24.31,3.34,41.48-5.2,67.86,7.2,5.15,17.54,21,29.7,42.05,0,0-2.82,6.91-10.19,7.26-1.49-1.88-25.29-24.78-25.29-24.78l-11.29,43.62a14.74,14.74,0,0,1-12.14-4s3.64-49.37,5.65-61.47c-5.84-11.11-14.44-30.63-7.79-66.06Z" style="fill:#FFC100"></path><path d="M323.9,266.51c11.43,24.31,3.34,41.48-5.2,67.86,7.2,5.15,17.54,21,29.7,42.05,0,0-2.82,6.91-10.19,7.26-1.49-1.88-25.29-24.78-25.29-24.78l-11.29,43.62a14.74,14.74,0,0,1-12.14-4s3.64-49.37,5.65-61.47c-5.84-11.11-14.44-30.63-7.79-66.06Z" style="opacity:0.30000000000000004"></path><path d="M295.74,333.79c2.22-19.28,4.92-32.35,4.92-32.35-7.36-3.75-9.76-7.77-9.76-7.77,1.27,6.49,7,10,7,10C295.77,314.76,295.74,333.79,295.74,333.79Z" style="opacity:0.2"></path><path d="M312.92,358.9a40.55,40.55,0,0,0,.91-9.78l4.87-14.75-3.53,14.89c.38,3.52.74,9.55,0,11.83Z" style="opacity:0.2"></path><path d="M324.48,256.82c-.05-3.22.14-21.32.14-21.32l-10.55-.92a20.07,20.07,0,0,1-16,7.93,5.57,5.57,0,0,1-3.58-.95,4.36,4.36,0,0,1-1-4.67,9.24,9.24,0,0,1,1.51-2.68h-3.07c-3.69,3.28-9.95,14.21-9.95,21.36,0,2.21,1.41,6.25,3.31,7.37a79.3,79.3,0,0,1-.36,20.32c19.69,12.65,44.14-3.83,44.14-3.83A60.48,60.48,0,0,1,324.48,256.82Z" style="fill:#455a64"></path><path d="M324.48,256.82c-.05-3.22.14-21.32.14-21.32l-10.55-.92a20.07,20.07,0,0,1-16,7.93,5.57,5.57,0,0,1-3.58-.95,4.36,4.36,0,0,1-1-4.67,9.24,9.24,0,0,1,1.51-2.68h-3.07c-3.69,3.28-9.95,14.21-9.95,21.36,0,2.21,1.41,6.25,3.31,7.37a79.3,79.3,0,0,1-.36,20.32c19.69,12.65,44.14-3.83,44.14-3.83A60.48,60.48,0,0,1,324.48,256.82Z" style="fill:#fff;opacity:0.2"></path><path d="M294.5,241.56a5.57,5.57,0,0,0,3.58.95,20.07,20.07,0,0,0,16-7.93l-3.55-.31V222.85l-12.35,4.76v6.6H295a9.24,9.24,0,0,0-1.51,2.68A4.36,4.36,0,0,0,294.5,241.56Z" style="fill:#f28f8f"></path><path d="M294.5,241.56a5.57,5.57,0,0,0,3.58.95,20.07,20.07,0,0,0,16-7.93l-3.55-.31V222.85l-12.35,4.76v6.6H295a9.24,9.24,0,0,0-1.51,2.68A4.36,4.36,0,0,0,294.5,241.56Z" style="opacity:0.30000000000000004"></path><path d="M309.65,223.18c-3.7,7.18-6,7.34-11.48,8v-3.55Z" style="opacity:0.2"></path><path d="M287.27,206.58a44.87,44.87,0,0,0-.2,16.42c.36,2,1,4.22,2.57,5.51,2,1.61,4.85,1.37,7.39,1.05a30,30,0,0,0,8.13-1.83,9.92,9.92,0,0,0,5.7-5.76,3.58,3.58,0,0,0,4.33-.7,6.35,6.35,0,0,0,1.6-4.36c0-1.43-.34-3.06-1.57-3.8a3.3,3.3,0,0,0-2.83-.12A7,7,0,0,0,310,214.7a4.92,4.92,0,0,1-1.13,1,1.37,1.37,0,0,1-1.42,0,2.06,2.06,0,0,1-.6-1.66c-.12-2.5-.38-5.09-1.65-7.23s-3.86-3.72-6.27-3.07c-1.1.3-2.1,1-3.24,1.06a5.16,5.16,0,0,1-2.58-.84l0,0A3.76,3.76,0,0,0,287.27,206.58Z" style="fill:#f28f8f"></path><path d="M287.27,206.58a44.87,44.87,0,0,0-.2,16.42c.36,2,1,4.22,2.57,5.51,2,1.61,4.85,1.37,7.39,1.05a30,30,0,0,0,8.13-1.83,9.92,9.92,0,0,0,5.7-5.76,3.58,3.58,0,0,0,4.33-.7,6.35,6.35,0,0,0,1.6-4.36c0-1.43-.34-3.06-1.57-3.8a3.3,3.3,0,0,0-2.83-.12A7,7,0,0,0,310,214.7a4.92,4.92,0,0,1-1.13,1,1.37,1.37,0,0,1-1.42,0,2.06,2.06,0,0,1-.6-1.66c-.12-2.5-.38-5.09-1.65-7.23s-3.86-3.72-6.27-3.07c-1.1.3-2.1,1-3.24,1.06a5.16,5.16,0,0,1-2.58-.84l0,0A3.76,3.76,0,0,0,287.27,206.58Z" style="opacity:0.30000000000000004"></path><polygon points="295.05 213.31 291.77 218.84 295.68 219.57 295.05 213.31" style="fill:#f28f8f"></polygon><polygon points="295.05 213.31 291.77 218.84 295.68 219.57 295.05 213.31" style="opacity:0.1"></polygon><polygon points="295.05 213.31 291.77 218.84 295.68 219.57 295.05 213.31" style="opacity:0.4"></polygon><path d="M299.46,221.48l-3,1.45a2,2,0,0,0,2.26.64A1.76,1.76,0,0,0,299.46,221.48Z" style="fill:#f28f8f"></path><path d="M299.46,221.48l-3,1.45a2,2,0,0,0,2.26.64A1.76,1.76,0,0,0,299.46,221.48Z" style="opacity:0.5"></path><path d="M297.71,223.67a1.8,1.8,0,0,0,1-.1,1.6,1.6,0,0,0,.8-1.57,1.8,1.8,0,0,0-1.83,1.67Z" style="fill:#f28f8f"></path><path d="M297.71,223.67a1.8,1.8,0,0,0,1-.1,1.6,1.6,0,0,0,.8-1.57,1.8,1.8,0,0,0-1.83,1.67Z" style="opacity:0.1"></path><path d="M300.72,213.53a1.11,1.11,0,0,1-1,1.23,1.13,1.13,0,1,1,1-1.23Z" style="fill:#263238"></path><path d="M291.29,214.11a1.13,1.13,0,1,1-2.24.23,1.13,1.13,0,0,1,2.24-.23Z" style="fill:#263238"></path><path d="M289.75,209.77l-2.3,2a1.59,1.59,0,0,1,.3-1.8A1.9,1.9,0,0,1,289.75,209.77Z" style="fill:#263238"></path><path d="M299.32,208.67l2.66,1.46a1.61,1.61,0,0,0-.66-1.7A1.9,1.9,0,0,0,299.32,208.67Z" style="fill:#263238"></path><path d="M320.1,235.15c-1.13,11.19,2.76,16.69,13,36.14,0,0-2.37,14.32-6.59,22.39-4.19,1.7-6.29,4.6-8.7,5.83a.79.79,0,0,0-.33,1.11c1,1.55,3.56.36,5.91-1-3,4.87-3.86,5.68-5.37,7.2s-.48,4,3.65,4,6.45-3.22,7.21-4.32,5.93-11.43,5.93-11.43l9.31-18.72a10,10,0,0,0,.26-8.42l-10.66-25.06a12.65,12.65,0,0,0-11.64-7.7Z" style="fill:#f28f8f"></path><path d="M320.1,235.15c-1.13,11.19,2.76,16.69,13,36.14,0,0-2.37,14.32-6.59,22.39-4.19,1.7-6.29,4.6-8.7,5.83a.79.79,0,0,0-.33,1.11c1,1.55,3.56.36,5.91-1-3,4.87-3.86,5.68-5.37,7.2s-.48,4,3.65,4,6.45-3.22,7.21-4.32,5.93-11.43,5.93-11.43l9.31-18.72a10,10,0,0,0,.26-8.42l-10.66-25.06a12.65,12.65,0,0,0-11.64-7.7Z" style="opacity:0.30000000000000004"></path><path d="M330.19,283.6c-15.07-10.49-22.69-37.55-15.43-49.37,0,0,3.38-.4,5.61.83-7.93,15.27,2.27,35.05,9.43,43.86Z" style="fill:#FFC100"></path></g><g id="freepik--character-1--inject-454"><path d="M226.37,228.63l-2.43.75-1.51-.42.68,21,4.65,2.64a.71.71,0,0,0,.22.13,1,1,0,0,0,1.1-.44,2.79,2.79,0,0,0,.39-1.2A39.84,39.84,0,0,0,226.37,228.63Z" style="fill:#455a64"></path><path d="M226.37,228.63l-2.43.75-1.51-.42.68,21,4.65,2.64a.71.71,0,0,0,.22.13,1,1,0,0,0,1.1-.44,2.79,2.79,0,0,0,.39-1.2A39.84,39.84,0,0,0,226.37,228.63Z" style="opacity:0.1"></path><path d="M226.37,228.63a39.84,39.84,0,0,1,3.1,22.51,2.79,2.79,0,0,1-.39,1.2,1,1,0,0,1-1.1.44,1,1,0,0,1-.59-.78,3.18,3.18,0,0,1,0-1,37.23,37.23,0,0,0-3.48-21.6Z" style="fill:#455a64"></path><path d="M226.37,228.63a39.84,39.84,0,0,1,3.1,22.51,2.79,2.79,0,0,1-.39,1.2,1,1,0,0,1-1.1.44,1,1,0,0,1-.59-.78,3.18,3.18,0,0,1,0-1,37.23,37.23,0,0,0-3.48-21.6Z" style="fill:#fff;opacity:0.4"></path><polygon points="210.25 294.7 210.25 294.7 210.24 294.7 210.25 294.7" style="fill:#455a64"></polygon><path d="M223.94,229.38l-18-5-12.29-.83s-3.93,67.21,0,68.55c3.73,1.27,8.67,3.35,15.38,2.74a5.65,5.65,0,0,0,1.16-.13h0a5.45,5.45,0,0,0,1.19-.42c3.84-1.83,8.76-4.47,11.58-7.13A196.26,196.26,0,0,0,223.94,229.38Z" style="fill:#455a64"></path><path d="M223.94,229.38l-18-5-12.29-.83s-3.93,67.21,0,68.55c3.73,1.27,8.67,3.35,15.38,2.74a5.65,5.65,0,0,0,1.16-.13h0a5.45,5.45,0,0,0,1.19-.42c3.84-1.83,8.76-4.47,11.58-7.13A196.26,196.26,0,0,0,223.94,229.38Z" style="fill:#fff;opacity:0.4"></path><path d="M226.55,264.08l-13.68,3.12-5.28,1.2v13.65a4,4,0,0,0,2,3.46l2,1.16a4,4,0,0,0,2.19.52,4,4,0,0,0,1.8-.52l8.37-4.83a6,6,0,0,0,3-4.83A100.69,100.69,0,0,0,226.55,264.08Z" style="fill:#455a64"></path><path d="M212.87,267.2l-5.28,1.2v13.65a4,4,0,0,0,2,3.46l2,1.16a4,4,0,0,0,2.19.52C211.53,287.12,212.66,279.28,212.87,267.2Z" style="opacity:0.2"></path><path d="M207.59,268.4l12.93-6.77c4.18-1.95,6.43.67,6.42,2.61s-2.13,9.14-4.88,12.15c-2,2.21-6.24-2.71-8.36-5.5a5.47,5.47,0,0,0-3.56-2.1Z" style="fill:#455a64"></path><path d="M207.59,268.4l12.93-6.77c4.18-1.95,6.43.67,6.42,2.61s-2.13,9.14-4.88,12.15c-2,2.21-6.24-2.71-8.36-5.5a5.47,5.47,0,0,0-3.56-2.1Z" style="fill:#fff;opacity:0.30000000000000004"></path><path d="M221.16,271.44c.64-.37,1.17-.07,1.17.67a2.58,2.58,0,0,1-1.17,2c-.64.37-1.17.07-1.17-.67A2.57,2.57,0,0,1,221.16,271.44Z" style="fill:#455a64"></path><path d="M203.75,290.83C196.43,266,206,224.37,206,224.37l-12.29-.83s-3.93,67.21,0,68.55c3.73,1.27,8.67,3.35,15.38,2.74A5.56,5.56,0,0,1,203.75,290.83Z" style="opacity:0.2"></path><path d="M216.47,227.62c0-5.14,3.59-11.4,8.07-14a6.74,6.74,0,0,1,4.26-1.06l0-.06c-9.74-.27-38.85-7.84-47.93-14.72h0c-1.49-1.1-3.67-1.08-6.11.33-4.47,2.58-8.08,8.84-8.07,14,0,2.94,1.21,4.88,3.07,5.51h0c1.88.79,43.81,13.69,49.53,15.41h0C217.58,232.33,216.47,230.44,216.47,227.62Z" style="fill:#455a64"></path><path d="M228.8,212.58a6.74,6.74,0,0,0-4.26,1.06c-4.48,2.58-8.09,8.84-8.07,14,0,2.82,1.11,4.71,2.84,5.42,1.42.58,3.26.37,5.28-.79,4.47-2.58,8.09-8.84,8.07-14C232.65,214.93,231.11,212.89,228.8,212.58Z" style="fill:#37474f"></path><path d="M184.31,350c5.79,6.68,25.76,23.85,25.75,26.28,6.86.84,8.61-4.41,8.61-4.41l-4-6.31a100.4,100.4,0,0,1-6.32-11.51l-.15-.3a100.68,100.68,0,0,0-9.83-16.66h0Z" style="fill:#ffa8a7"></path><path d="M222.34,379c-.42,1.1-1,2.13-1.41,3.23-1.16,3-1.26,6-2.42,9.05a13.34,13.34,0,0,1-6.27,7,16.56,16.56,0,0,1-9.39,1.66,16.74,16.74,0,0,0,1.22,1.55,13.16,13.16,0,0,0,15.59-8c1.17-3,1.27-6,2.43-9,.42-1.1,1-2.14,1.41-3.24a6.5,6.5,0,0,0,.37-3.46s-.44-.56-1.08-1.46A6.75,6.75,0,0,1,222.34,379Z" style="fill:#f0f0f0"></path><path d="M219,370.34c-.33-.63-1.48-.35-1.48-.35l.51.81a8.67,8.67,0,0,1-2.34,1.48,2.05,2.05,0,0,0-1.2,1.41l-.09.38c0,.2-.14.44-.34.47a.35.35,0,0,1-.33-.17,1.2,1.2,0,0,1-.13-.36c-.06-.26-.16-.57-.26-.88a1.42,1.42,0,0,0-1.14-1,6.49,6.49,0,0,0-4.05.75.85.85,0,0,0-.37,1.08c1.67,4.22-1.45,14.73-3.42,16.48-.16.13-.3.27-.45.41,3.75-1.79,9.35-2.72,13.39,2.88a12.94,12.94,0,0,0,1.26-2.42c1.16-3,1.26-6,2.42-9.05.43-1.1,1-2.13,1.41-3.23a6.75,6.75,0,0,0,.45-2.74A58.23,58.23,0,0,1,219,370.34Z" style="fill:#37474f"></path><path d="M203.86,390.86c-2.62,2.5-3.68,5.23-1,9.1a16.56,16.56,0,0,0,9.39-1.66,13.39,13.39,0,0,0,5-4.56C213.21,388.14,207.61,389.07,203.86,390.86Z" style="fill:#fff"></path><path d="M161.74,350.65l-4.23,50.15c2.75,1.91,8.85.82,8.85.82,2.54-15.77,12.2-26.21,14.85-48.33Z" style="fill:#ffa8a7"></path><path d="M165.23,409.48c-1,.67-2,1.2-3,1.86-2.68,1.82-4.47,4.23-7.15,6.05a13.3,13.3,0,0,1-9.13,2.16,16.48,16.48,0,0,1-8.66-4,17.71,17.71,0,0,0,.11,2,13.15,13.15,0,0,0,17.38,2.3c2.68-1.82,4.47-4.22,7.15-6,1-.66,2-1.19,3-1.85a6.58,6.58,0,0,0,2.28-2.63s0-.72-.06-1.82A6.63,6.63,0,0,1,165.23,409.48Z" style="fill:#f0f0f0"></path><path d="M167.4,400.4a1,1,0,0,0-.64-1l-.15.76a9.72,9.72,0,0,1-3-.08,2,2,0,0,0-1.79.47l-.29.26c-.15.14-.36.29-.55.2a.36.36,0,0,1-.17-.33,1,1,0,0,1,.1-.37c.1-.25.19-.56.29-.87a1.42,1.42,0,0,0-.38-1.46,6.51,6.51,0,0,0-3.75-1.7.87.87,0,0,0-.93.68c-1,4.42-9.58,11.28-12.19,11.59l-.61.09c4.11.67,9.23,3.09,9.36,10a13,13,0,0,0,2.42-1.27c2.68-1.82,4.47-4.23,7.15-6.05,1-.66,2-1.19,3-1.86a6.63,6.63,0,0,0,1.92-2A60.34,60.34,0,0,1,167.4,400.4Z" style="fill:#37474f"></path><path d="M143.3,408.67c-3.58.56-6,2.19-6,6.9a16.48,16.48,0,0,0,8.66,4,13.17,13.17,0,0,0,6.71-.89C152.53,411.76,147.41,409.34,143.3,408.67Z" style="fill:#fff"></path><path d="M157.15,284.19c-1,19.83,2.08,37.6,5.79,43.88a99.78,99.78,0,0,0-2.68,23.49c9.73,6.35,22.86,3.32,22.86,3.32l.56-4.23c9-2.33,14.56-11.61,15.38-14l-7.41-10.44s5.57-17,6.14-20.8l-.18-1.14c2.15-7.9,2.57-16,1.55-20.32Z" style="fill:#455a64"></path><path d="M164.17,323c2.65-10.69,6.83-23.6,6.83-23.6-3.49-1.38-7.25-5.29-7.57-6.56,0,3.65,2.89,7,4.13,7.94A207.51,207.51,0,0,0,164.17,323Z" style="opacity:0.2"></path><path d="M183.68,350.65l6.79-22.54-1.42-.48C186.71,331.76,184.24,345.73,183.68,350.65Z" style="opacity:0.2"></path><path d="M182.51,303.64a.85.85,0,0,0-.92.61c-1,3.42-5,17.88-6.31,22.59a1.69,1.69,0,0,0,1.08,2.06,30.63,30.63,0,0,0,12.5,1,2,2,0,0,0,.78-.27l.18-.12a1.89,1.89,0,0,0,.79-.91l1-2.41s5.57-17,6.14-20.8l-.18-1.14C194.28,304.71,185.17,304,182.51,303.64Z" style="fill:#37474f"></path><path d="M171.88,221.92l-2.31-1.29a11.85,11.85,0,0,0-13.86,1.67l-19.28,17.93s-7.31-13.3-8.65-17.67c-.42-1.39.39-2.88.79-4.27A8.94,8.94,0,0,0,129,214a11.18,11.18,0,0,1,.43-5.58,1,1,0,0,0-1-1.29l-.21,0a2.25,2.25,0,0,0-1.41.57,3.07,3.07,0,0,0-.71,1.36,19.91,19.91,0,0,0-.83,3.9,18.57,18.57,0,0,1-1.57-8,11.52,11.52,0,0,0,0-3.16,2.75,2.75,0,0,0-2-2.2,7.57,7.57,0,0,0-1.14,2.5,2.42,2.42,0,0,0-1.94,0,2.13,2.13,0,0,0-1,1.54,4.64,4.64,0,0,0-3.52,2.9,9.73,9.73,0,0,0-.58,4.58,26.08,26.08,0,0,0,5.23,14.07c2.5,9.49,4.72,20.17,8.27,28.48a7.08,7.08,0,0,0,10.44,3.06,303.45,303.45,0,0,0,25-18.62Z" style="fill:#ffa8a7"></path><path d="M171.88,221.92l-2.31-1.29a11.85,11.85,0,0,0-13.86,1.67l-15.19,14.12c1.51,7.72,8.78,13.09,8.78,13.09l13.12-11.36Z" style="fill:#e0e0e0"></path><path d="M138.37,249.12a19.35,19.35,0,0,0-1.94-8.89l1-.94C138.37,240.49,140.19,243.71,138.37,249.12Z" style="opacity:0.2"></path><path d="M123.48,222.85a5.86,5.86,0,0,1,.17-8.1,4.43,4.43,0,0,0-2.73,3.82A5,5,0,0,0,123.48,222.85Z" style="opacity:0.2"></path><path d="M171.57,219.12l-3.93.42a9.72,9.72,0,0,0-7.13,4.36c-4,6.24-5.92,15.78-4.83,26.12,1.35,12.87.52,35.16.52,35.16,17.07,12.47,40.25,1.44,43-1.27l-2.48-22.44a10.92,10.92,0,0,1,.87-5.2c1.61-3.74,4.49-11.11,4.87-16.82a29.77,29.77,0,0,0-3.11-14.7l-15-5.63Z" style="fill:#f0f0f0"></path><path d="M197.55,256.27a67,67,0,0,0,4.63-14.71c-1.58.95-3.26,1.9-3.92,3.48a27.82,27.82,0,0,0-1.58,16.1A11,11,0,0,1,197.55,256.27Z" style="opacity:0.1"></path><path d="M201.06,258.13,205,272.59l-15.33,12.85a5.83,5.83,0,0,1-3.9,1.35,18.67,18.67,0,0,0-4.68.27c-1.2.27-2.37.66-3.57.94a10.64,10.64,0,0,1-2.57.32,1,1,0,0,0-1,1.45,2.29,2.29,0,0,0,.52.7,4.24,4.24,0,0,0,2.23.87,10,10,0,0,0,3.82-.2,9.82,9.82,0,0,1-4.71,2.93c-1.73.58-3.53.9-5.24,1.51a3.38,3.38,0,0,0-1.69,1.07,1.31,1.31,0,0,0,.21,1.8c.74.46,1.74-.21,2.55.1a3.19,3.19,0,0,0,0,1.41,2,2,0,0,0,.85,1.14,1.43,1.43,0,0,0,1.4,0,5,5,0,0,0,3.24,2.19,9.88,9.88,0,0,0,4,0c5.46-1,8.92-5.77,13.2-9.3.59-.49,15.69-8.91,23.42-13.2a6.63,6.63,0,0,0,3.19-7.44L216,254.18Z" style="fill:#ffa8a7"></path><path d="M214.43,272.27c-1.66-.77-7-1.41-9.42.32l-.4-1.48A8.67,8.67,0,0,1,214.43,272.27Z" style="opacity:0.2"></path><path d="M199.16,224.69l2.17.61a14.18,14.18,0,0,1,9.53,9.07l6.92,20.37c-6.24,6.56-17.46,4.55-17.46,4.55l-2.22-10.37C190.27,235.27,197.46,226.91,199.16,224.69Z" style="fill:#e0e0e0"></path><path d="M198.51,278c-13.49-14.46-15.39-44.69-5.08-55.5,0,0,3.65.35,5.73,2.15-11.81,14.28-5.55,37.42,0,48.32Z" style="fill:#263238"></path><path d="M156.33,260.94c-.06-16.69,1.6-34,15.24-41.82C164.07,216.18,149.11,226.19,156.33,260.94Z" style="fill:#263238"></path><path d="M186.32,170.81c-6.58-3.45-13.47-3.25-15.41.44l-3,5.15,6.43,4.24a22.25,22.25,0,0,0,5,3.54q.72.38,1.44.69l11,7.27,2.92-8.4C196.65,180.05,192.89,174.26,186.32,170.81Z" style="fill:#FFC100"></path><path d="M186.32,170.81c-6.58-3.45-13.47-3.25-15.41.44l-3,5.15,6.43,4.24a22.25,22.25,0,0,0,5,3.54q.72.38,1.44.69l11,7.27,2.92-8.4C196.65,180.05,192.89,174.26,186.32,170.81Z" style="fill:#455a64"></path><ellipse cx="177.3" cy="188.86" rx="14.5" ry="25.81" transform="translate(-72.32 258.09) rotate(-62.31)" style="fill:#37474f"></ellipse><path d="M184.4,209.2v10.22a4.76,4.76,0,0,1-1.56,3.56,13.62,13.62,0,0,1-9.83,3.38,3.41,3.41,0,0,1-2-.62,2.64,2.64,0,0,1-.65-2.78,5.22,5.22,0,0,1,.64-1.35,5.35,5.35,0,0,0,.91-2.91v-9.5Z" style="fill:#ffa8a7"></path><path d="M183.66,209.27l-11.78-.07v8.69a19.18,19.18,0,0,0,7.44-2.73A11.49,11.49,0,0,0,183.66,209.27Z" style="fill:#ff9192"></path><path d="M160.86,191.92a7.27,7.27,0,0,1-4.65-1.51,7.47,7.47,0,0,1-1.85-2.15,1,1,0,0,1,1.07-1.42,7.89,7.89,0,0,0,2.74,0,13,13,0,0,1-2.55-9.68,1.23,1.23,0,0,1,1.74-.92,23.89,23.89,0,0,0,12.16,2.46c2.24-.16,4.44-.63,6.67-.8a12.32,12.32,0,0,1,6.56,1,6.23,6.23,0,0,1,3.59,5.28,3.06,3.06,0,0,1,2.21-1.28,3.37,3.37,0,0,1,2.59.76c-1.29.71-2.55,1.43-3.85,2.14,1.33-.48,3,.56,3.65,1.8a8.81,8.81,0,0,1,.71,4.11,31.75,31.75,0,0,1-.25,5.6,10.78,10.78,0,0,1-2.12,5.11,8.09,8.09,0,0,1-3.84,2.61,10.51,10.51,0,0,1-6.25-.2,24.77,24.77,0,0,1-5.66-2.83A88.64,88.64,0,0,1,160.86,191.92Z" style="fill:#263238"></path><path d="M160.57,188.19a43,43,0,0,0,2.47,23c.67,1.68,1.54,3.42,3.12,4.32s3.69.75,5.57.46a28.23,28.23,0,0,0,8.8-2.47,12,12,0,0,0,6.08-6.56,5.28,5.28,0,0,0,5.34-2.09,10,10,0,0,0,1.72-5.83c0-1.31-.24-2.87-1.42-3.45s-2.42.07-3.38.84a10,10,0,0,0-3.28,4.93c-.87-3.21-2.23-6.31-3.1-9.52a5.39,5.39,0,0,0-1.87-3.34c-1.35-.86-3.1-.37-4.65,0A30.66,30.66,0,0,1,160.57,188.19Z" style="fill:#ffa8a7"></path><polygon points="169.93 197.94 166.18 204.26 170.65 205.1 169.93 197.94" style="fill:#f28f8f"></polygon><path d="M175,207.27l-3.4,1.66a2.21,2.21,0,0,0,2.57.73A2,2,0,0,0,175,207.27Z" style="fill:#f28f8f"></path><path d="M175,207.27l-3.4,1.66a2.21,2.21,0,0,0,2.57.73A2,2,0,0,0,175,207.27Z" style="opacity:0.30000000000000004"></path><path d="M173,209.77a2,2,0,0,0,1.18-.11,1.79,1.79,0,0,0,.91-1.79,2.07,2.07,0,0,0-2.09,1.9Z" style="fill:#f28f8f"></path><path d="M176.41,198.19a1.28,1.28,0,0,1-1.15,1.41A1.29,1.29,0,0,1,175,197,1.28,1.28,0,0,1,176.41,198.19Z" style="fill:#263238"></path><path d="M165.63,198.86a1.29,1.29,0,1,1-1.41-1.15A1.29,1.29,0,0,1,165.63,198.86Z" style="fill:#263238"></path><path d="M163.88,193.89l-2.64,2.25a1.82,1.82,0,0,1,.35-2.06A2.19,2.19,0,0,1,163.88,193.89Z" style="fill:#263238"></path><path d="M174.81,192.64l3,1.67a1.81,1.81,0,0,0-.75-1.95A2.16,2.16,0,0,0,174.81,192.64Z" style="fill:#263238"></path></g></svg>