<svg xmlns="http://www.w3.org/2000/svg" xmlns:xlink="http://www.w3.org/1999/xlink" viewBox="0 0 500 500"><defs><clipPath id="freepik--clip-path--inject-551"><path d="M116,393.32c-3.88.05-8.79-1.25-11.17-2.76-2.61-1.48-4.22-3.45-4.22-5.54,0-1.65-8.19-43.52-8.19-43.52l23.16-26.21,32,24.5s-4.45,29.78-5.55,40.4c-.2,2-9.58,4.58-9.58,4.83,0,3.36-3.38,5.16-5.77,6.31A24.81,24.81,0,0,1,116,393.32Z" style="fill:none"></path></clipPath></defs><g id="freepik--Floor--inject-551"><ellipse id="freepik--floor--inject-551" cx="245.42" cy="353.89" rx="236.11" ry="122.97" style="fill:#f5f5f5"></ellipse></g><g id="freepik--Shadows--inject-551"><ellipse id="freepik--Shadow--inject-551" cx="329.13" cy="374.15" rx="91.98" ry="53.11" style="fill:#e6e6e6"></ellipse><ellipse id="freepik--shadow--inject-551" cx="144.84" cy="353.28" rx="80.27" ry="46.34" style="fill:#e6e6e6"></ellipse><path id="freepik--shadow--inject-551" d="M130.31,412.38c7.55,4.18,7.55,11,0,15.14s-19.8,4.18-27.36,0-7.55-11,0-15.14S122.75,408.19,130.31,412.38Z" style="fill:#e6e6e6"></path><path id="freepik--shadow--inject-551" d="M92.15,376.42c11,6.18,11.08,16.39.24,22.8s-28.5,6.6-39.48.42-11.08-16.38-.24-22.79S81.18,370.24,92.15,376.42Z" style="fill:#e6e6e6"></path></g><g id="freepik--Plants--inject-551"><g id="freepik--plants--inject-551"><path d="M399,362.34c-1.28-14.41-2-27.74,3.74-48.81,4.84-17.68,19.3-36.24,30-36.31,10-.07,13.1,12,5,23.49s-26,33.79-26.07,48.84l-2.51,17.3Z" style="fill:#FFC100"></path><path d="M399,362.34c-1.28-14.41-2-27.74,3.74-48.81,4.84-17.68,19.3-36.24,30-36.31,10-.07,13.1,12,5,23.49s-26,33.79-26.07,48.84l-2.51,17.3Z" style="opacity:0.2"></path><path d="M403.09,358.35a.64.64,0,0,0,.45-.62c-1-33.69,15.62-63.09,30.61-72.87a.64.64,0,1,0-.7-1.07c-15.23,9.94-32.2,39.82-31.19,74a.63.63,0,0,0,.66.62A.51.51,0,0,0,403.09,358.35Z" style="fill:#fff"></path><path d="M413,368.64c.22-5.11,4.18-14.39,12.07-23.17,8.73-9.71,21.17-16.19,22.88-22.53,2.06-7.62-4.81-11.08-15.48-7.94-12.82,3.78-26.15,19.8-26.26,50.46Z" style="fill:#FFC100"></path><path d="M409.68,364.12a.65.65,0,0,0,.44-.54c3-27,19.87-40.28,28.39-43.52a.64.64,0,0,0,.37-.82.63.63,0,0,0-.83-.37c-9.42,3.58-26.17,17-29.2,44.57a.64.64,0,0,0,.56.71A.59.59,0,0,0,409.68,364.12Z" style="fill:#fff"></path></g><g id="freepik--plants--inject-551"><path d="M91.12,328.29S95,307,91.66,287.93s-12.73-34.07-24.72-40.22-26.74,1.08-16.75,14.44,30.22,31.18,28.85,65Z" style="fill:#FFC100"></path><path d="M91.12,328.29S95,307,91.66,287.93s-12.73-34.07-24.72-40.22-26.74,1.08-16.75,14.44,30.22,31.18,28.85,65Z" style="opacity:0.15"></path><path d="M86.62,325.83l.14,0a.73.73,0,0,0,.73-.71c.39-41.46-12.64-62.7-28.19-73.83a.71.71,0,1,0-.83,1.16c15.33,11,28,31.79,27.58,72.66A.72.72,0,0,0,86.62,325.83Z" style="fill:#fff"></path><path d="M30.52,294.61c0,2.69,1.95,4.93,3.83,6.86s3.93,4,4.23,6.65c.6,5.38-6.12,9.63-5.29,15a8.41,8.41,0,0,0,3.92,5.34,54,54,0,0,0,4.95,2.72,22.56,22.56,0,0,0,2.54.89c2.52.69,5.13,1.71,6.77,3.87,2.57,3.41,1.73,8.18,2.35,12.41.74,5.06,3.39,8.25,9.89,11.27l24.71-9.89c6.54-7.19,6.52-22.49-2.28-27.95-1.87-1.16-4.06-1.94-5.47-3.63-1.71-2.05-1.9-4.95-1.75-7.61s.54-5.41-.3-7.94c-1.17-3.52-4.56-5.94-8.14-6.93-4.18-1.16-8.62.15-12.51-1.72s-7.4-4.63-11.48-6.09-8.61-1.51-12.26.84A7.41,7.41,0,0,0,30.52,294.61Z" style="fill:#FFC100"></path><path d="M71.41,319.65a.63.63,0,0,0-.16-.27C61.94,303,45.69,294,40.08,292.15a.6.6,0,0,0-.37,1.15c5.31,1.75,20.41,10,29.62,25.17a33.35,33.35,0,0,0-26.64-.32.61.61,0,0,0,.19,1.14.57.57,0,0,0,.36-.06c.12-.06,12.42-6.19,27.15,1a50.56,50.56,0,0,1,5.94,31.86.6.6,0,0,0,.48.66h0a.6.6,0,0,0,.68-.52A51.67,51.67,0,0,0,71.41,319.65Z" style="fill:#fff"></path></g></g><g id="freepik--Easel--inject-551"><g id="freepik--Canvas--inject-551"><path d="M253.72,312.06l-.16,1.39a2.31,2.31,0,0,0,.77,1.91L264,322.6a2,2,0,0,0,2,.15l96-48.92a2.55,2.55,0,0,0,1.2-1.77l.16-1.38a2.32,2.32,0,0,0-.77-1.92l-9.64-7.24a2,2,0,0,0-2-.15l-96,48.92A2.55,2.55,0,0,0,253.72,312.06Z" style="fill:#37474f"></path><path d="M254.78,311.52l9.64,7.24a2.06,2.06,0,0,0,2,.15l96-48.92a.67.67,0,0,0,.15-1.23l-9.64-7.24a2,2,0,0,0-2-.15l-96,48.92A.67.67,0,0,0,254.78,311.52Z" style="fill:#455a64"></path><path d="M265.37,319.09l-.44,3.84a1.87,1.87,0,0,1-1-.33l-9.63-7.23a2.32,2.32,0,0,1-.78-1.92l.16-1.39a2.58,2.58,0,0,1,1-1.63.64.64,0,0,0,.07,1.09l9.64,7.24A2,2,0,0,0,265.37,319.09Z" style="fill:#263238"></path><path d="M405.65,20.16l-136,69.3L235,290.38l6.93,5.19,136-69.3L412.58,25.36Z" style="fill:#f5f5f5"></path><polygon points="400.11 42.45 391.42 46.88 362.92 214.47 369.85 219.66 400.11 42.45" style="fill:#FFC100"></polygon><polygon points="400.11 42.45 391.42 46.88 362.92 214.47 369.85 219.66 400.11 42.45" style="opacity:0.5"></polygon><polygon points="256.05 268.91 362.92 214.47 369.85 219.66 254.42 278.48 256.05 268.91" style="fill:#FFC100"></polygon><polygon points="256.05 268.91 362.92 214.47 369.85 219.66 254.42 278.48 256.05 268.91" style="opacity:0.15"></polygon><polygon points="272 175.53 378.87 121.08 385.8 126.28 270.37 185.09 272 175.53" style="fill:#FFC100"></polygon><polygon points="272 175.53 378.87 121.08 385.8 126.28 270.37 185.09 272 175.53" style="opacity:0.15"></polygon><path d="M276.55,94.66,242,295.57l136-69.3L412.58,25.36Zm123.56-52.2L385.8,126.28,270.37,185.09l14.31-83.82Zm-145.69,236,14.32-83.83,115.42-58.81-14.31,83.82Z" style="fill:#FFC100"></path><path d="M276.55,94.66,242,295.57l136-69.3L412.58,25.36Zm123.56-52.2L385.8,126.28,270.37,185.09l14.31-83.82Zm-145.69,236,14.32-83.83,115.42-58.81-14.31,83.82Z" style="opacity:0.30000000000000004"></path><polygon points="269.63 89.46 276.55 94.66 241.96 295.57 235.03 290.38 269.63 89.46" style="fill:#e0e0e0"></polygon><path d="M276,97.9c2.1-3.16,4.86-4.09,5.88-1.56l.31.77c1.21,3,4.88,1.14,7-3.56l.54-1.2c2.11-4.7,5.77-6.57,7-3.56l.31.76c1.21,3,4.88,1.14,7-3.56l.53-1.19c2.11-4.7,5.77-6.57,7-3.56l.31.76c1.21,3,4.88,1.14,7-3.56l.53-1.19c2.11-4.7,5.78-6.57,7-3.56l.31.76c1.21,3,4.88,1.14,7-3.56l.53-1.2c2.11-4.7,5.78-6.56,7-3.56l.31.77c1.21,3,4.88,1.14,7-3.56l.53-1.2c2.11-4.7,5.78-6.56,7-3.56l.31.77c1.22,3,4.88,1.14,7-3.56l.53-1.2c2.11-4.7,5.78-6.57,7-3.56l.31.77c1.22,3,4.88,1.14,7-3.56l.54-1.2c2.1-4.7,5.77-6.57,7-3.56l.31.76c1.22,3,4.88,1.15,7-3.56l.54-1.19c2.11-4.7,5.77-6.57,7-3.56l.31.76c1.22,3,4.88,1.14,7-3.56l.54-1.19a9.37,9.37,0,0,1,4-4.75l.32-1.83-136,69.3Z" style="fill:#ebebeb"></path><path d="M378,226.27l9.89-57.42L412.58,25.36l-2.08,1.06a12.89,12.89,0,0,1-1.29,1.92l-.76.94c-3,3.66-4,9.29-1.85,10.73l.54.37c2.11,1.44,1.14,7.07-1.85,10.74l-.77.93c-3,3.67-4,9.3-1.85,10.74l.54.36c2.11,1.45,1.14,7.08-1.85,10.74l-.76.94c-3,3.66-4,9.29-1.85,10.73l.54.37c2.11,1.44,1.14,7.07-1.85,10.74l-.76.93c-3,3.67-4,9.3-1.85,10.74l.53.36c2.12,1.45,1.15,7.07-1.85,10.74l-.76.93c-3,3.67-4,9.3-1.85,10.74l.54.37c2.11,1.44,1.14,7.07-1.85,10.74l-.76.93c-3,3.67-4,9.29-1.85,10.74l.54.36c2.11,1.44,1.14,7.07-1.85,10.74l-.76.93c-3,3.67-4,9.3-1.85,10.74l.53.37c2.11,1.44,1.15,7.07-1.85,10.74l-.76.93c-3,3.66-4,9.29-1.85,10.74l.54.36c2.11,1.44,1.14,7.07-1.85,10.74l-.76.93c-3,3.67-4,9.3-1.85,10.74l.54.37c1,.69,1.31,2.36,1,4.3Z" style="fill:#ebebeb"></path><path d="M243.15,295a14,14,0,0,1,2.83-6.18l.76-.93c3-3.67,4-9.29,1.85-10.74l-.54-.36c-2.11-1.44-1.14-7.07,1.85-10.74l.76-.93c3-3.67,4-9.3,1.85-10.74L252,254c-2.11-1.44-1.14-7.07,1.85-10.73l.77-.94c3-3.66,4-9.29,1.84-10.74l-.53-.36c-2.11-1.44-1.14-7.07,1.85-10.74l.76-.93c3-3.67,4-9.3,1.85-10.74l-.54-.37c-2.11-1.44-1.14-7.07,1.85-10.73l.76-.94c3-3.66,4-9.29,1.85-10.73l-.54-.37c-2.11-1.44-1.14-7.07,1.85-10.74l.76-.93c3-3.67,4-9.3,1.85-10.74l-.53-.37c-2.12-1.44-1.15-7.07,1.84-10.73l.77-.94c3-3.66,4-9.29,1.85-10.73l-.54-.37c-2.11-1.44-1.14-7.07,1.85-10.74l.76-.93c3-3.67,4-9.3,1.85-10.74l-.54-.37c-2.11-1.44-1.14-7.07,1.85-10.73l.76-.94c3-3.66,4-9.29,1.85-10.73l-.54-.37a2.33,2.33,0,0,1-.76-1l-2.11,1.08L242,295.57Z" style="fill:#ebebeb"></path><path d="M378.28,224.44c-1.39.78-2.68.54-3.31-1l-.31-.76c-1.22-3-4.88-1.14-7,3.56l-.54,1.2c-2.1,4.7-5.77,6.56-7,3.56l-.31-.77c-1.22-3-4.88-1.14-7,3.56l-.54,1.2c-2.11,4.7-5.77,6.56-7,3.56l-.31-.77c-1.22-3-4.88-1.14-7,3.56l-.54,1.2c-2.11,4.7-5.77,6.57-7,3.56l-.3-.77c-1.22-3-4.88-1.14-7,3.56l-.54,1.2c-2.11,4.7-5.77,6.57-7,3.56l-.3-.76c-1.22-3-4.88-1.15-7,3.56l-.54,1.19c-2.11,4.7-5.77,6.57-7,3.56l-.31-.76c-1.21-3-4.87-1.14-7,3.56l-.54,1.19c-2.11,4.7-5.77,6.57-7,3.56l-.31-.76c-1.21-3-4.87-1.14-7,3.56l-.54,1.19c-2.11,4.71-5.77,6.57-7,3.56l-.31-.76c-1.21-3-4.88-1.14-7,3.56l-.54,1.2c-2.11,4.7-5.77,6.56-7,3.56l-.31-.77c-1.21-3-4.88-1.14-7,3.56l-.53,1.2c-1.72,3.83-4.48,5.78-6.09,4.73l-.52,3,136-69.3.28-1.64Z" style="fill:#ebebeb"></path><path d="M372.47,224.76a2.74,2.74,0,0,1-1.13,2c-.52.27-.87-.17-.78-1a2.74,2.74,0,0,1,1.12-1.95C372.21,223.51,372.56,224,372.47,224.76Z" style="fill:#455a64"></path><path d="M357.62,232.32a2.7,2.7,0,0,1-1.12,2c-.53.27-.88-.17-.78-1a2.73,2.73,0,0,1,1.12-2C357.37,231.07,357.72,231.51,357.62,232.32Z" style="fill:#455a64"></path><path d="M342.78,239.89a2.74,2.74,0,0,1-1.12,2c-.53.27-.88-.17-.79-1a2.74,2.74,0,0,1,1.13-2C342.52,238.63,342.87,239.07,342.78,239.89Z" style="fill:#455a64"></path><path d="M327.94,247.45a2.76,2.76,0,0,1-1.13,2c-.52.26-.87-.18-.78-1a2.79,2.79,0,0,1,1.12-2C327.68,246.19,328,246.64,327.94,247.45Z" style="fill:#455a64"></path><path d="M313.09,255a2.72,2.72,0,0,1-1.12,2c-.53.27-.88-.18-.78-1a2.72,2.72,0,0,1,1.12-2C312.84,253.76,313.19,254.2,313.09,255Z" style="fill:#455a64"></path><path d="M298.25,262.57a2.76,2.76,0,0,1-1.12,2c-.53.27-.88-.17-.79-1a2.72,2.72,0,0,1,1.13-2C298,261.32,298.34,261.76,298.25,262.57Z" style="fill:#455a64"></path><path d="M283.41,270.14a2.74,2.74,0,0,1-1.13,1.95c-.52.27-.87-.17-.78-1a2.76,2.76,0,0,1,1.12-2C283.15,268.88,283.5,269.32,283.41,270.14Z" style="fill:#455a64"></path><path d="M268.56,277.7a2.71,2.71,0,0,1-1.12,1.95c-.53.27-.88-.17-.78-1a2.7,2.7,0,0,1,1.12-2C268.31,276.44,268.66,276.88,268.56,277.7Z" style="fill:#455a64"></path><path d="M253.72,285.26a2.79,2.79,0,0,1-1.12,2c-.53.26-.88-.18-.79-1a2.76,2.76,0,0,1,1.13-2C253.46,284,253.81,284.45,253.72,285.26Z" style="fill:#455a64"></path><path d="M405,33.59a2.75,2.75,0,0,1-1.12,2c-.53.26-.88-.18-.78-1a2.72,2.72,0,0,1,1.12-2C404.73,32.33,405.08,32.78,405,33.59Z" style="fill:#455a64"></path><path d="M390.14,41.15a2.76,2.76,0,0,1-1.13,2c-.52.27-.87-.18-.78-1a2.76,2.76,0,0,1,1.13-2C389.88,39.9,390.23,40.34,390.14,41.15Z" style="fill:#455a64"></path><path d="M375.29,48.71a2.7,2.7,0,0,1-1.12,2c-.53.27-.88-.17-.78-1a2.71,2.71,0,0,1,1.12-2C375,47.46,375.39,47.9,375.29,48.71Z" style="fill:#455a64"></path><path d="M360.45,56.27a2.73,2.73,0,0,1-1.12,2c-.53.27-.88-.17-.78-1a2.7,2.7,0,0,1,1.12-2C360.19,55,360.54,55.46,360.45,56.27Z" style="fill:#455a64"></path><path d="M345.61,63.84a2.72,2.72,0,0,1-1.13,2c-.52.27-.87-.17-.78-1a2.74,2.74,0,0,1,1.13-2C345.35,62.58,345.7,63,345.61,63.84Z" style="fill:#455a64"></path><path d="M330.76,71.4a2.72,2.72,0,0,1-1.12,2c-.53.26-.88-.18-.78-1a2.75,2.75,0,0,1,1.12-2C330.51,70.14,330.86,70.59,330.76,71.4Z" style="fill:#455a64"></path><path d="M315.92,79a2.75,2.75,0,0,1-1.12,2c-.53.27-.88-.18-.78-1a2.72,2.72,0,0,1,1.12-2C315.66,77.71,316,78.15,315.92,79Z" style="fill:#455a64"></path><path d="M301.08,86.52a2.74,2.74,0,0,1-1.13,2c-.52.27-.87-.17-.78-1a2.72,2.72,0,0,1,1.13-1.95C300.82,85.27,301.17,85.71,301.08,86.52Z" style="fill:#455a64"></path><path d="M286.23,94.09a2.7,2.7,0,0,1-1.12,2c-.53.27-.88-.17-.78-1a2.73,2.73,0,0,1,1.12-2C286,92.83,286.33,93.27,286.23,94.09Z" style="fill:#455a64"></path><path d="M279.25,99.74a2.76,2.76,0,0,1-1.13,2c-.52.26-.87-.18-.78-1a2.76,2.76,0,0,1,1.13-2C279,98.48,279.34,98.92,279.25,99.74Z" style="fill:#455a64"></path><path d="M275.34,122.49a2.72,2.72,0,0,1-1.12,2c-.53.27-.88-.18-.78-1a2.75,2.75,0,0,1,1.12-2C275.09,121.23,275.44,121.68,275.34,122.49Z" style="fill:#455a64"></path><path d="M271.44,145.24a2.75,2.75,0,0,1-1.12,2c-.53.27-.88-.17-.79-1a2.76,2.76,0,0,1,1.13-2C271.18,144,271.53,144.43,271.44,145.24Z" style="fill:#455a64"></path><path d="M267.54,168a2.74,2.74,0,0,1-1.13,2c-.52.27-.87-.17-.78-1a2.74,2.74,0,0,1,1.12-2C267.28,166.74,267.63,167.18,267.54,168Z" style="fill:#455a64"></path><path d="M263.63,190.75a2.71,2.71,0,0,1-1.12,1.95c-.53.27-.88-.17-.78-1a2.7,2.7,0,0,1,1.12-2C263.38,189.49,263.73,189.93,263.63,190.75Z" style="fill:#455a64"></path><path d="M259.73,213.5a2.76,2.76,0,0,1-1.13,2c-.52.26-.87-.18-.78-1a2.76,2.76,0,0,1,1.13-2C259.47,212.24,259.82,212.68,259.73,213.5Z" style="fill:#455a64"></path><path d="M255.82,236.25a2.72,2.72,0,0,1-1.12,2c-.53.27-.88-.18-.78-1a2.75,2.75,0,0,1,1.12-2C255.57,235,255.92,235.44,255.82,236.25Z" style="fill:#455a64"></path><path d="M251.92,259a2.79,2.79,0,0,1-1.12,2c-.53.27-.88-.17-.79-1a2.76,2.76,0,0,1,1.13-2C251.66,257.75,252,258.19,251.92,259Z" style="fill:#455a64"></path><path d="M248,281.75a2.7,2.7,0,0,1-1.12,2c-.52.27-.87-.17-.78-1a2.71,2.71,0,0,1,1.12-2C247.76,280.5,248.11,280.94,248,281.75Z" style="fill:#455a64"></path><path d="M409.29,34.11a2.75,2.75,0,0,1-1.12,2c-.53.26-.88-.18-.78-1a2.72,2.72,0,0,1,1.12-2C409,32.85,409.39,33.3,409.29,34.11Z" style="fill:#455a64"></path><path d="M405.39,56.86a2.76,2.76,0,0,1-1.13,2c-.52.27-.87-.18-.78-1a2.76,2.76,0,0,1,1.13-2C405.13,55.61,405.48,56.05,405.39,56.86Z" style="fill:#455a64"></path><path d="M401.48,79.61a2.7,2.7,0,0,1-1.12,2c-.53.27-.88-.17-.78-1a2.71,2.71,0,0,1,1.12-2C401.23,78.36,401.58,78.8,401.48,79.61Z" style="fill:#455a64"></path><path d="M397.58,102.36a2.73,2.73,0,0,1-1.12,2c-.53.27-.88-.17-.79-1a2.74,2.74,0,0,1,1.13-2C397.32,101.11,397.67,101.55,397.58,102.36Z" style="fill:#455a64"></path><path d="M393.68,125.12a2.72,2.72,0,0,1-1.13,1.95c-.52.27-.87-.17-.78-1a2.76,2.76,0,0,1,1.12-2C393.42,123.86,393.77,124.3,393.68,125.12Z" style="fill:#455a64"></path><path d="M389.77,147.87a2.75,2.75,0,0,1-1.12,2c-.53.26-.88-.18-.78-1a2.72,2.72,0,0,1,1.12-2C389.52,146.61,389.87,147.06,389.77,147.87Z" style="fill:#455a64"></path><path d="M385.87,170.62a2.76,2.76,0,0,1-1.13,2c-.52.27-.87-.18-.78-1a2.76,2.76,0,0,1,1.13-2C385.61,169.37,386,169.81,385.87,170.62Z" style="fill:#455a64"></path><path d="M382,193.37a2.7,2.7,0,0,1-1.12,2c-.53.27-.88-.17-.78-1a2.71,2.71,0,0,1,1.12-2C381.71,192.12,382.06,192.56,382,193.37Z" style="fill:#455a64"></path><path d="M378.06,216.12a2.76,2.76,0,0,1-1.12,2c-.53.27-.88-.17-.79-1a2.74,2.74,0,0,1,1.13-2C377.8,214.87,378.15,215.31,378.06,216.12Z" style="fill:#455a64"></path><polygon points="375.55 140.23 268.74 194.65 267.1 204.21 373.92 149.78 375.55 140.23" style="fill:#e0e0e0"></polygon><polygon points="391.42 46.88 284.61 101.31 282.98 110.86 389.8 56.44 391.42 46.88" style="fill:#e0e0e0"></polygon><polygon points="313.3 105.1 252.79 386.06 256.55 388.5 316.76 107.7 313.3 105.1" style="fill:#FFC100"></polygon><polygon points="313.3 105.1 252.79 386.06 256.55 388.5 316.76 107.7 313.3 105.1" style="opacity:0.25"></polygon><polygon points="315.61 113.05 312.07 110.78 312.24 110 316.76 107.7 315.61 113.05" style="opacity:0.2"></polygon><polygon points="256.55 388.5 260.55 386.46 320.75 105.66 316.76 107.7 256.55 388.5" style="fill:#FFC100"></polygon><polygon points="256.55 388.5 260.55 386.46 299.41 205.21 295.42 207.24 256.55 388.5" style="opacity:0.05"></polygon><polygon points="347.92 87.4 352.8 335.1 356.56 337.55 351.39 90 347.92 87.4" style="fill:#FFC100"></polygon><polygon points="347.92 87.4 352.8 335.1 356.56 337.55 351.39 90 347.92 87.4" style="opacity:0.25"></polygon><polygon points="351.48 94.72 348.02 92.5 348.01 91.72 351.39 90 351.48 94.72" style="opacity:0.2"></polygon><polygon points="356.56 337.55 360.56 335.51 355.38 87.96 351.39 90 356.56 337.55" style="fill:#FFC100"></polygon><polygon points="356.56 337.55 360.56 335.51 357.21 175.75 353.25 177.77 356.56 337.55" style="opacity:0.05"></polygon><polygon points="291.87 204.58 301.74 417.85 305.5 420.29 295.42 207.24 291.87 204.58" style="fill:#FFC100"></polygon><polygon points="291.87 204.58 301.74 417.85 305.5 420.29 295.42 207.24 291.87 204.58" style="opacity:0.25"></polygon><polygon points="305.5 420.29 309.5 418.25 299.41 205.21 295.42 207.24 305.5 420.29" style="fill:#FFC100"></polygon><polygon points="305.5 420.29 309.5 418.25 299.41 205.21 295.42 207.24 305.5 420.29" style="fill:#fff;opacity:0.4"></polygon><polygon points="349.65 175.43 401.75 366.89 405.51 369.33 353.25 177.77 349.65 175.43" style="fill:#FFC100"></polygon><polygon points="349.65 175.43 401.75 366.89 405.51 369.33 353.25 177.77 349.65 175.43" style="opacity:0.25"></polygon><polygon points="405.51 369.33 409.51 367.3 357.21 175.75 353.25 177.77 405.51 369.33" style="fill:#FFC100"></polygon><polygon points="405.51 369.33 409.51 367.3 357.21 175.75 353.25 177.77 405.51 369.33" style="fill:#fff;opacity:0.4"></polygon><path d="M296.63,116.55l-1.28-1a2.85,2.85,0,0,1-1-2.37l3.78-22.18a3.09,3.09,0,0,1,1.48-2.18l72.46-37a2.55,2.55,0,0,1,2.44.18l1.27,1a2.85,2.85,0,0,1,1,2.37L373,77.53a3.16,3.16,0,0,1-1.49,2.18l-72.46,37A2.53,2.53,0,0,1,296.63,116.55Z" style="fill:#FFC100"></path><path d="M297.93,115.89l3.78-22.18a3.09,3.09,0,0,1,1.49-2.18l72.46-37c.72-.37,1.22,0,1.13.85L373,77.53a3.16,3.16,0,0,1-1.49,2.18l-72.46,37C298.34,117.1,297.84,116.72,297.93,115.89Z" style="fill:#FFC100"></path><path d="M297.93,115.89l3.78-22.18a3.09,3.09,0,0,1,1.49-2.18l72.46-37c.72-.37,1.22,0,1.13.85L373,77.53a3.16,3.16,0,0,1-1.49,2.18l-72.46,37C298.34,117.1,297.84,116.72,297.93,115.89Z" style="opacity:0.1"></path><polygon points="355.38 87.96 351.39 90 351.48 94.72 355.48 92.68 355.38 87.96" style="opacity:0.2"></polygon><polygon points="315.61 113.05 319.6 111.02 320.75 105.66 316.76 107.7 315.61 113.05" style="opacity:0.2"></polygon><path d="M302.22,92.44l-3.54-2.65a2.93,2.93,0,0,0-.5,1.26l-3.78,22.18a2.81,2.81,0,0,0,1,2.36l1.28,1a2.52,2.52,0,0,0,2.15.3c-.57.14-.93-.24-.85-1l3.78-22.18A3,3,0,0,1,302.22,92.44Z" style="opacity:0.2"></path></g></g><g id="freepik--Chair--inject-551"><g id="freepik--chair--inject-551"><path d="M128.67,246.58V369.72a2,2,0,0,0,1.13,1.85,4.59,4.59,0,0,0,4.28,0,2.07,2.07,0,0,0,1.14-1.85V246.58Z" style="fill:#37474f"></path><path d="M103.26,236.2,86.68,350.52h0a2,2,0,0,0,1.12,2,4.59,4.59,0,0,0,4.28,0,2.15,2.15,0,0,0,1.13-1.72L109.84,236.2Z" style="fill:#37474f"></path><path d="M177.38,350.53l-16.47-113.6-.11-.73h-6.58l16.63,114.62a2.21,2.21,0,0,0,1.13,1.69,4.59,4.59,0,0,0,4.28,0A2,2,0,0,0,177.38,350.53Z" style="fill:#37474f"></path><path d="M100.18,204.15c17.28-10,45.3-10,62.58,0,8.64,5,13,11.52,13,18.06v8c0,6.54-4.31,13.08-13,18.06-17.28,10-45.3,10-62.58,0-8.64-5-13-11.52-13-18.06v-8C87.23,215.67,91.54,209.13,100.18,204.15Z" style="fill:#455a64"></path><path d="M100.18,200.25c17.28-10,45.3-10,62.58,0,8.64,5,13,11.52,13,18.06v8c0,6.54-4.31,13.08-13,18.06-17.28,10-45.3,10-62.58,0-8.64-5-13-11.52-13-18.06v-8C87.23,211.77,91.54,205.23,100.18,200.25Z" style="fill:#FFC100"></path><g style="opacity:0.4"><path d="M100.18,200.25c17.28-10,45.3-10,62.58,0,8.64,5,13,11.52,13,18.06v8c0,6.54-4.31,13.08-13,18.06-17.28,10-45.3,10-62.58,0-8.64-5-13-11.52-13-18.06v-8C87.23,211.77,91.54,205.23,100.18,200.25Z"></path></g><ellipse cx="131.47" cy="218.31" rx="44.25" ry="25.55" style="fill:#FFC100"></ellipse><g style="opacity:0.2"><ellipse cx="131.47" cy="218.31" rx="44.25" ry="25.55"></ellipse></g></g></g><g id="freepik--Character--inject-551"><g id="freepik--character--inject-551"><path d="M161.66,277.28c-5-1.22-9.75,2.36-10.3,3.61-.75,1.69-.94,5.25.65,9.84a30.48,30.48,0,0,1,.75,14c-.8,3.95-3.78,13.72-.29,19.17s12,10.77,15.91,4.25c1.28-2.13,0-10.13-.3-15.91-.64-11.51-.87-22.9-.87-22.9Z" style="fill:#263238"></path><path d="M153.25,279.07c-.63,3.71.66,12.86,4.82,21.71,4.08,8.68,10,20,10.72,26,.42-2.66-.17-7.67-.54-12.12,0-.09,0-.19,0-.29l-.06-.77c0-.11,0-.23,0-.35,0-.33-.05-.65-.07-1v-.06c-.2-3.6-.36-7.18-.49-10.41-.1-2.59-.18-4.94-.24-6.89,0-1,0-1.86-.07-2.61,0-.37,0-.72,0-1,0-1.25,0-2,0-2l-5.55-12.05c-.34-.08-.65-.13-1-.18A11.21,11.21,0,0,0,153.25,279.07Z" style="opacity:0.15"></path><path d="M159.1,286.14a110.58,110.58,0,0,1-.5,16.73c-.75,6.06.1,10.18,1.9,13.12,2,3.23,7.59,5.52,7.58-.8,0-4.4-.87-25.86-.87-25.86Z" style="fill:#b16668"></path><path d="M166.44,319c1-.44,1.64-1.58,1.64-3.78,0-1-.05-2.86-.12-5.15-.14-2.85-.27-5.65-.37-8.22s-.18-4.94-.24-6.89c0-1,0-1.86-.07-2.61,0-.37,0-.72,0-1,0-1.22,0-1.93,0-2h0l-8.11-3.19a112.38,112.38,0,0,1-.41,15.94C161.25,307.48,164.33,313.69,166.44,319Z" style="fill:#9a4a4d"></path><polygon points="190.98 270.83 176.6 292.14 163.84 276.25 175.23 250.63 190.98 270.83" style="fill:#b16668"></polygon><path d="M174.42,252.45l5.92,34.14,2.11-3.12c0-7.84-.12-17.64-.34-24l-6.88-8.83Z" style="fill:#9a4a4d"></path><path d="M189.09,209.24a369.67,369.67,0,0,0-30.78-20.83l-18.95,19.84,16.24,16.56,25,16.79a34.14,34.14,0,0,0-7,10,54.65,54.65,0,0,0-2.2,5.49,44.09,44.09,0,0,0,18,16.37s6-7.07,15.85-23.92c7.84-13.37,6.06-19.44,4.81-21.38C206.65,223,204.24,220.92,189.09,209.24Z" style="fill:#37474f"></path><path d="M181.89,254.77a28.51,28.51,0,0,0-3.34-11h0l-.48.58,0,.07-.47.6-.08.12c-.16.2-.31.41-.47.63l-.09.13-.48.69-.09.13-.5.76-.07.12c-.17.27-.35.55-.52.84a.56.56,0,0,0-.05.08l-.54.94v0c-.19.34-.38.69-.56,1.06l2.27,13.07a43.14,43.14,0,0,0,6,5.52C182.24,263.05,182.1,257.54,181.89,254.77Z" style="fill:#263238"></path><path d="M174.81,237.72c-1.3-1.82-2.67-3.57-4-5.24-5.17-6.33-16.54-19.4-16.54-19.4l-3.35.2,9.67,14.86Z" style="fill:#263238"></path><path d="M169.14,334.69c-1.22-.21-1.53,1.88-2.55,4.47a13.65,13.65,0,0,0-1.23,7.94c.65,3.48,5.9,4.73,8,9.49s5.05,13.18,14.19,16.86,16.92,1.81,19.18-.71,1.15-5.47-4.31-10c-5.8-4.81-7.43-6.22-7.43-6.22Z" style="fill:#263238"></path><path d="M181.66,287.36s2.21,41.56,4.94,49.94a77.81,77.81,0,0,0,9.18,18.6c.87,1.3,2.91,3.79,3.62,4.84a1.85,1.85,0,0,1-.56,2.81c-2.33,1.73-11.2,1.07-15.67-3.26s-8-12.8-10.52-16.15c-1-1.26-1.86-2.54-2.69-3.88a6.2,6.2,0,0,1-1-4.13c.43-2.53.7-3.47.35-5.74-1.22-7.93-10.39-32.63-11-35.77Z" style="fill:#b16668"></path><path d="M103,186.58c-3.11,9.33-5.18,12.49-3.22,22.66s12,19.62,24.43,29.17c10.28,7.9,24.1,18.81,27,21.07,2.53,2,4,4.24,3.56,10.41-.43,6.4.58,15.47,4.77,30.91,5.93,1.29,15.32,1.87,23.46-3.3,0,0-3.13-38.64-4.89-47.28s-29.47-39.42-29.47-39.42,6-13.16,9.72-22.39Z" style="fill:#37474f"></path><path d="M159.84,204.91a16.92,16.92,0,0,1-9,8.37l1.51,1.83S158.28,212.76,159.84,204.91Z" style="fill:#263238"></path><path d="M168.49,120.9c2.84-.87,4.15-2.49,4.7-5.84a10.14,10.14,0,0,0-3.41-9.13,9,9,0,0,0-9.13-1.22c1.87-4.76-2-11.65-7.5-11.23-5,.39-8.2.41-11.26.55,2.84-5.17,6.15-9.5,11.92-10.4a12.87,12.87,0,0,0,9.89-7.54c1.36-3.49.91-7.15-2.11-9.39A8.12,8.12,0,0,0,153.2,54c1.33-3-.28-6.74-3.06-8.47s-6.37-1.73-9.5-.77a35.21,35.21,0,0,0-8.53,4.45l-.15.09c-6.87,4.42-14.71,5.78-20.87,11.54a25.12,25.12,0,0,0-8.2,20.38c.38,8.72,4.84,14.27,9.3,18.75a13.75,13.75,0,0,0-3.54,6.12c-1,4.8,2.26,12,8.39,12.91-1.65,7.38-1.84,14.94,4.78,18.61a18.16,18.16,0,0,0,21-2.87,23.63,23.63,0,0,0,10.28,6.74c4,1.21,8.92,2,12.62.13s7.15-5.89,7.84-10C174.48,126,172.14,121.61,168.49,120.9Z" style="fill:#263238"></path><path d="M118.84,96.17c0,.45-4.22,7.91-10,9s-5-2.82-2.11-5.67A13.38,13.38,0,0,1,118.84,96.17Z" style="fill:#FFC100"></path><path d="M118.84,96.17c0,.45-4.22,7.91-10,9s-5-2.82-2.11-5.67A13.38,13.38,0,0,1,118.84,96.17Z" style="opacity:0.30000000000000004"></path><path d="M119.06,96.1c.3.33,2.79,8.52-.49,13.45s-5.5,1.66-5.55-2.4A13.4,13.4,0,0,1,119.06,96.1Z" style="fill:#FFC100"></path><path d="M119.06,96.1c.3.33,2.79,8.52-.49,13.45s-5.5,1.66-5.55-2.4A13.4,13.4,0,0,1,119.06,96.1Z" style="opacity:0.4"></path><path d="M119.1,97.65V96.51l-.15-.34-.14.1a.93.93,0,0,0,0-.1,12.55,12.55,0,0,0-6.92.26C114,98.85,117.34,99.54,119.1,97.65Z" style="opacity:0.2"></path><path d="M131,49.88c-8.4,5.24-14.47,20.53-11.74,36.13s-8.64-1-8.64-1a20.85,20.85,0,0,1-6.93-12s1.61-7.26,6.19-11.45C116.43,55.57,123.53,53.54,131,49.88Z" style="fill:#FFC100"></path><path d="M131,49.88c-8.4,5.24-14.47,20.53-11.74,36.13s-8.64-1-8.64-1a20.85,20.85,0,0,1-6.93-12s1.61-7.26,6.19-11.45C116.43,55.57,123.53,53.54,131,49.88Z" style="opacity:0.30000000000000004"></path><path d="M216.4,105.65a12.65,12.65,0,0,0-5.85,1c-4.32,3-6.25,7.51-8.91,12.06L181.24,148s-19.86-23.53-24.13-28-6.12-4.57-12.63-5v.87l4.28,26s14.73,15.45,25.54,24.75C183,174.14,187,170,192,163.38c2.91-3.81,12.94-22.1,17.77-31.41a17.51,17.51,0,0,1,6.08-7.08c3.7-2,7.13-2.17,11.19-5.46C233.91,113.88,222.55,106.45,216.4,105.65Z" style="fill:#b16668"></path><path d="M215.65,113.9l10.26,6.38a4,4,0,0,0-1,.62L219.09,118c-1.9-.93-4.22-2.21-4.22-2.21s-4.55.15-6.64-1S215.65,113.9,215.65,113.9Z" style="fill:#9a4a4d"></path><path d="M151.67,145.16l-7.19-30.43c1.83-.3,5.36-1.32,8.33-1.28,1.61,0,3.38.41,5.33,3.07,2.17,3,20.76,27.91,23,30.84l5.25-7.1a15.3,15.3,0,0,0,6.22,9.2c5.42,3.93,6.7,3.32,6.7,3.32s-5.7,9.42-9.34,13.95-7.25,6.31-13.52,1.86C169.85,163.94,151.67,145.16,151.67,145.16Z" style="fill:#455a64"></path><path d="M181.1,147.36A24.74,24.74,0,0,0,177,158.57s-2.25-5.43,2.7-13.09Z" style="fill:#37474f"></path><g id="freepik--Brush--inject-551"><path d="M243.39,125.75h0A209.53,209.53,0,0,0,224.92,113a149,149,0,0,0-22.66-10.79h0a.84.84,0,0,0-.73.13.81.81,0,0,0-.17,1.15.44.44,0,0,0,.13.14h0s10.74,9.66,20,15.27a209.41,209.41,0,0,0,19.85,10.32h0a1,1,0,0,0,.92-.12,3.14,3.14,0,0,0,1.47-2.44A1.06,1.06,0,0,0,243.39,125.75Z" style="fill:#FFC100"></path><path d="M201.31,103.46a.44.44,0,0,0,.13.14h0s10.74,9.66,20,15.27c6.26,3.78,13.08,7.14,16.87,8.94l.93-2.4s-38.13-22.47-37.8-23.1A.81.81,0,0,0,201.31,103.46Z" style="opacity:0.1"></path><path d="M243.28,128c.38.64,2.45,4.12,5.25,5.09a3.05,3.05,0,0,1,.78-.84c1.2-.89,2.17-.12,3.14-.69s.16-2.44.15-2.46h0a8.77,8.77,0,0,0-4.22-3.18,8.91,8.91,0,0,0-5-.19l-2.06,3.44h0Z" style="fill:#455a64"></path><path d="M246.52,135.2c1.32-.2,1.41-1.16,2-2.09-2.8-1-4.87-4.45-5.25-5.09l-1.95,1.17c.19.41.39.85.62,1.31l.18.35c.12.24.26.47.4.71a10.26,10.26,0,0,0,.76,1.09,7,7,0,0,0,.64.71,9.84,9.84,0,0,0,1.67,1.36A6.22,6.22,0,0,0,246.52,135.2Z" style="fill:#37474f"></path><path d="M246.53,135.21a5.17,5.17,0,0,0,.51.18l.05,0,.38.1.15,0,.12,0,.21,0,.26,0a5.49,5.49,0,0,0,.58,0l.57,0a5,5,0,0,0,.56-.06,9,9,0,0,0,3.24-1.17l.21-.14.06,0,.23-.17a9.36,9.36,0,0,0,1.3-1.14q.25-.27.48-.54c.14-.17.26-.34.37-.49l.16-.22c0-.08.09-.14.13-.21s.14-.23.19-.33a2.26,2.26,0,0,0,.14-.29,3.52,3.52,0,0,1-2.92-.83,6.43,6.43,0,0,1-.91-.9s.82,1.89-.15,2.46-1.94-.2-3.14.69a3.05,3.05,0,0,0-.78.84c-.6.93-.69,1.89-2,2.09Z" style="fill:#FFC100"></path><path d="M256.43,130.85a9.31,9.31,0,0,1-6.35,2.51,4.5,4.5,0,0,1-1.55-.25c-.6.93-.69,1.89-2,2.09h0a5.17,5.17,0,0,0,.51.18l.05,0,.38.1.15,0,.12,0,.21,0,.26,0a5.49,5.49,0,0,0,.58,0l.57,0a5,5,0,0,0,.56-.06,9,9,0,0,0,3.24-1.17l.21-.14.06,0,.23-.17a9.36,9.36,0,0,0,1.3-1.14q.25-.27.48-.54c.14-.17.26-.34.37-.49l.16-.22c0-.08.09-.14.13-.21s.14-.23.19-.33a2.26,2.26,0,0,0,.14-.29Z" style="opacity:0.1"></path><path d="M241.33,129.19a1,1,0,0,0,.92-.12,3.14,3.14,0,0,0,1.47-2.44,1.06,1.06,0,0,0-.33-.88c-1.25-1-2.62-2-4.08-3.07a1.27,1.27,0,0,1,.44,1.13,4,4,0,0,1-1.85,3.08,1.3,1.3,0,0,1-1.23.12C238.47,127.87,240.16,128.67,241.33,129.19Z" style="fill:#ebebeb"></path><path d="M239.28,125.41a3.8,3.8,0,0,1-1.38,1.48,1.3,1.3,0,0,1-1.23.12c1.8.86,3.49,1.66,4.66,2.18a1,1,0,0,0,.92-.12,2.88,2.88,0,0,0,1-1V128l-4-2.56Z" style="fill:#e0e0e0"></path></g><path d="M211.94,106.12a20.93,20.93,0,0,1,3.57-1.65,9.86,9.86,0,0,1,4-1,3.2,3.2,0,0,1,1.56.29,4.79,4.79,0,0,1,1.19,1.1c1.91,2.12,4.75,3,6.65,5.11,1.67,1.85,4.24,7.56,2.85,9.25-.86,1.06-3.21-.94-4.24-2.55-.13,1.39-2.16,1.14-3.94-1.44-1.47-2.14-3.21-5-3.21-5Z" style="fill:#b16668"></path><path d="M220.47,107.86a1.66,1.66,0,0,1,.87,1.44,4.36,4.36,0,0,1-.33,1.91l-.61-1Z" style="fill:#9a4a4d"></path><path d="M202.68,117.12c2.2-3.66,3.14-6.69,5.76-7.83,3.51-1.53,4.54-.75,8.72-1.74,5.93-1.4,4,4.16-.93,6.13s-8,1.09-8,1.09S205.71,122.35,202.68,117.12Z" style="fill:#b16668"></path><path d="M106.5,178.72c1-1.61,3.18-5.08,2.74-7.15-.65-3-3.29-11.49-3.29-11.49h0l-2.17-9.24s6-9.38,6.86-14.41.74-8.55-1.52-17.49l10.37-1.87a66.59,66.59,0,0,1,17.34-2.16l7.65-.18s14.18,14.91,16.31,21.46c1.39,4.29,3.07,12.07-3.36,21.35-.77,7-2.24,15-2.07,19s2.44,8.21,2.95,11.91c-2.38,5.18-10.85,13.74-29.29,13.15-19.1-.61-28.31-10.15-28.31-10.15A48.75,48.75,0,0,1,106.5,178.72Z" style="fill:#FFC100"></path><path d="M143.61,157s-4.89,5.63-14.86,3.56-11.64-9.71-11.64-9.71-1,9.71,10.93,12.14C139.78,165.34,143.61,157,143.61,157Z" style="opacity:0.1"></path><path d="M148.38,63c3.16,1.86,7.06,9.8,6.67,26.45-.32,14.11-4.9,17.6-7.19,18.6s-6.73.39-11-.32v8.46s5.95,6.92,5.57,10.8-8.59,4.8-14.16,1a36.13,36.13,0,0,1-9.14-9.57V96.51s-2.35,2.5-6.52-.36a7.7,7.7,0,0,1-2-11.17c1.81-2.13,6.42-2.29,8.64,1,0,0,5.78-.51,14.92-5.53A29.46,29.46,0,0,0,148.38,63Z" style="fill:#b16668"></path><path d="M119.25,91.05h0V83.63H124v2.68A4.74,4.74,0,0,1,119.25,91.05Z" style="fill:#263238"></path><path d="M137.72,85.39a1.77,1.77,0,1,1-1.86-1.76A1.8,1.8,0,0,1,137.72,85.39Z" style="fill:#263238"></path><path d="M138.18,96.62,145,98.8a3.52,3.52,0,0,1-4.44,2.44A3.75,3.75,0,0,1,138.18,96.62Z" style="fill:#9a4a4d"></path><path d="M142.21,101.34A3.2,3.2,0,0,0,139,98.2a3,3,0,0,0-.91.15,3.67,3.67,0,0,0,2.47,2.89A3.29,3.29,0,0,0,142.21,101.34Z" style="fill:#f28f8f"></path><path d="M153.45,80.48,149.86,78a2.1,2.1,0,0,1,3-.61A2.29,2.29,0,0,1,153.45,80.48Z" style="fill:#263238"></path><path d="M152.62,84.24a1.79,1.79,0,0,1-1.68,1.92,1.84,1.84,0,1,1,1.68-1.92Z" style="fill:#263238"></path><polygon points="143.18 83.47 143.46 94.15 149.08 92.41 143.18 83.47" style="fill:#9a4a4d"></polygon><path d="M136.83,107.75c-4.54-.6-13.88-3.28-15.33-7a9.6,9.6,0,0,0,3.27,4.71c2.79,2.39,12.06,5.08,12.06,5.08Z" style="fill:#9a4a4d"></path><path d="M106.7,119.43c-4.33.47-8.36.72-11.33,5.42s-16.55,35-19.68,42S72,178.37,77.47,182.4c5.92,4.34,35.56,19,35.56,19l9.61-10.58L94.36,171.64l13.27-26.25S115,129.4,106.7,119.43Z" style="fill:#b16668"></path><path d="M109,142.87c3.83-12.43,2.1-21.11.11-23.93-9.31-3-13.19.07-16.8,7.68-2.24,4.7-17.95,42-17.95,42-1.77,4-3.39,8.54-1.05,11.36s12.25,7.27,12.25,7.27,3.77-11,11.94-13.44l-2.54-2Z" style="fill:#455a64"></path><path d="M95,171.79a20.87,20.87,0,0,0-9.39-1.24s3.49-2.71,10.35-.74Z" style="fill:#37474f"></path><path d="M113,201.44c6.43,3.85,16.62,10.26,26.22,9.16,12.19-1.39,18.32-9,13.72-12.15s-20.35-2.91-30.33-7.59Z" style="fill:#ffa8a7"></path><path d="M99.38,182.46c8.77-5.08,18.78-6.34,23.88-4.33s5,5.07,5,8c0,2.36,3.77,4.64,12.37,2.25,9.08-2.52,19-2.84,23.23,1.87,5.39,6-4.44,15.74-20.3,21.81-21.77,8.32-46.65,6.47-56.81-4.48C77.14,197.21,93,186.17,99.38,182.46Z" style="fill:#263238"></path><path d="M144.15,199.69c2.55,1.11,6.2.85,8.14-.59s1.44-3.51-1.12-4.62-6.2-.84-8.14.6S141.59,198.58,144.15,199.69Z" style="fill:#FFC100"></path><path d="M127.79,208.85c2.56,1.11,6.21.84,8.15-.6s1.44-3.5-1.12-4.61-6.21-.85-8.15.59S125.23,207.73,127.79,208.85Z" style="fill:#FFC100"></path><path d="M107.12,210.8c2.56,1.11,6.21.85,8.15-.59s1.44-3.51-1.12-4.62-6.21-.84-8.15.6S104.56,209.69,107.12,210.8Z" style="fill:#FFC100"></path><path d="M93.08,202.59c2.56,1.11,6.2.84,8.14-.59s1.44-3.51-1.11-4.62-6.21-.84-8.15.59S90.52,201.48,93.08,202.59Z" style="fill:#FFC100"></path><path d="M102.2,191.1c2.56,1.11,6.21.84,8.15-.59s1.44-3.51-1.12-4.62-6.2-.84-8.14.59S99.65,190,102.2,191.1Z" style="fill:#FFC100"></path><path d="M144.15,199.69c2.55,1.11,6.2.85,8.14-.59s1.44-3.51-1.12-4.62-6.2-.84-8.14.6S141.59,198.58,144.15,199.69Z" style="fill:#fafafa;opacity:0.7000000000000001"></path><path d="M127.79,208.85c2.56,1.11,6.21.84,8.15-.6s1.44-3.5-1.12-4.61-6.21-.85-8.15.59S125.23,207.73,127.79,208.85Z" style="fill:#fafafa;opacity:0.4"></path><path d="M93.08,202.59c2.56,1.11,6.2.84,8.14-.59s1.44-3.51-1.11-4.62-6.21-.84-8.15.59S90.52,201.48,93.08,202.59Z" style="opacity:0.30000000000000004"></path><path d="M102.2,191.1c2.56,1.11,6.21.84,8.15-.59s1.44-3.51-1.12-4.62-6.2-.84-8.14.59S99.65,190,102.2,191.1Z" style="opacity:0.5"></path><path d="M119.55,189c2.85-1.13,3.94-1.51,6.73-2.61a11,11,0,0,1,9.27.22c2.81,1.31,6.88,2.9,6.41,4-.83,1.89-4.39,2.12-8,1.53-2.15-.36-5,1.58-9,2S114.69,191.44,119.55,189Z" style="fill:#b16668"></path><g id="freepik--Lines--inject-551"><path d="M257.76,127.12s-6.2-.7-6.28-9.74,6.31-9.17,7.18-5.35S254.24,121.88,257.76,127.12Z" style="fill:#FFC100"></path><path d="M255.12,136.52c-2.14,2.34-4.82,7.16-2.76,11.67a2.8,2.8,0,0,0,5.4-1.39C257.35,143.53,253.57,142.69,255.12,136.52Z" style="fill:#FFC100"></path><path d="M255.12,136.52c-2.14,2.34-4.82,7.16-2.76,11.67a2.8,2.8,0,0,0,5.4-1.39C257.35,143.53,253.57,142.69,255.12,136.52Z" style="opacity:0.30000000000000004"></path><path d="M251,161.57a34.3,34.3,0,0,0-2.86-6.86,26.2,26.2,0,0,1-2-4.7,9.6,9.6,0,0,1,.35-6.62,12.3,12.3,0,0,1,2.42-3.35c.35-.36.73-.69,1.08-1a12.85,12.85,0,0,0,1-1,.33.33,0,0,0,.07-.13.14.14,0,0,0,0-.15c-.07-.05-.17,0-.25,0-.41.28-.84.53-1.23.83a15.12,15.12,0,0,0-1.37,1.17,12.72,12.72,0,0,0-2.17,2.62,10.19,10.19,0,0,0-1.16,7.5,34.07,34.07,0,0,0,3,7.23,24.82,24.82,0,0,1,2,5.61,9.25,9.25,0,0,1-.2,5.29,6.14,6.14,0,0,1-5,3.48,7.55,7.55,0,0,1-6.72-2.29c-1.39-1.59-1.79-3.93-.13-5.48,1.47-1.38,4.64-1.2,5.31,1a1.63,1.63,0,0,1-.72,1.93,1.27,1.27,0,0,1-1.84-.6c-.18-.31-.92-.5-.85,0,.3,2.41,3.3,2.21,4.39.51,1.33-2.08-.69-4.35-2.71-4.83a5,5,0,0,0-5.84,3c-.87,2.35.44,4.87,2.29,6.32a9.14,9.14,0,0,0,8.45,1.41,7.13,7.13,0,0,0,4.9-4.65A11.62,11.62,0,0,0,251,161.57Z" style="fill:#FFC100"></path><path d="M260.91,121.32a1.89,1.89,0,0,0-.48.36,4.43,4.43,0,0,0-1.18,2.11,7.08,7.08,0,0,0-.17,2.43.52.52,0,0,0,.11.32c.27.23.34-.36.35-.51a2.58,2.58,0,0,1,.29-1,8.57,8.57,0,0,1,1.26-2c.26-.31.87-.73.89-1.17s-.49-.62-.82-.55A1.06,1.06,0,0,0,260.91,121.32Z" style="fill:#FFC100"></path><path d="M258.13,90.9a9.12,9.12,0,0,0-8.44-3.64A12.39,12.39,0,0,0,241,91.35a21,21,0,0,0-2.93,4.73,13.8,13.8,0,0,0-1.11,5.83,14.5,14.5,0,0,0,3.92,10.15c1.37,1.48,2.87,2.85,4.35,4.24.85.81,1.66,1.65,2.44,2.53a7.92,7.92,0,0,1,1.88,3.2,11.74,11.74,0,0,1,.48,2.62c0,.14.15.15.15,0a12.45,12.45,0,0,0-.6-4.38A14.63,14.63,0,0,0,246.3,116c-2.36-2.54-4.58-4.27-6.36-7.31a14.26,14.26,0,0,1-1.7-5.42,14.74,14.74,0,0,1,.47-5.12,15.28,15.28,0,0,1,5.22-7.57,11,11,0,0,1,8.36-1.91A7,7,0,0,1,258,94.39c.42,2.61-.11,5.81-2.62,7.21a6.62,6.62,0,0,1-6.93-.23c-1.57-1.16-2.93-3.68-1.16-5.27a4,4,0,0,1,3.23-.93,1.7,1.7,0,0,1,1.32,1,.76.76,0,0,1-.31,1.07,3,3,0,0,1-1.76.33c-.55,0-.37.61,0,.74,1.31.45,3.39.08,3.49-1.63a2.88,2.88,0,0,0-2.8-2.76c-2.64-.27-5.74,1.63-5.4,4.56a6.41,6.41,0,0,0,5.32,5.2c3,.49,6.43-.53,8.05-3.23A9.41,9.41,0,0,0,258.13,90.9Z" style="fill:#FFC100"></path><path d="M258.13,90.9a9.12,9.12,0,0,0-8.44-3.64A12.39,12.39,0,0,0,241,91.35a21,21,0,0,0-2.93,4.73,13.8,13.8,0,0,0-1.11,5.83,14.5,14.5,0,0,0,3.92,10.15c1.37,1.48,2.87,2.85,4.35,4.24.85.81,1.66,1.65,2.44,2.53a7.92,7.92,0,0,1,1.88,3.2,11.74,11.74,0,0,1,.48,2.62c0,.14.15.15.15,0a12.45,12.45,0,0,0-.6-4.38A14.63,14.63,0,0,0,246.3,116c-2.36-2.54-4.58-4.27-6.36-7.31a14.26,14.26,0,0,1-1.7-5.42,14.74,14.74,0,0,1,.47-5.12,15.28,15.28,0,0,1,5.22-7.57,11,11,0,0,1,8.36-1.91A7,7,0,0,1,258,94.39c.42,2.61-.11,5.81-2.62,7.21a6.62,6.62,0,0,1-6.93-.23c-1.57-1.16-2.93-3.68-1.16-5.27a4,4,0,0,1,3.23-.93,1.7,1.7,0,0,1,1.32,1,.76.76,0,0,1-.31,1.07,3,3,0,0,1-1.76.33c-.55,0-.37.61,0,.74,1.31.45,3.39.08,3.49-1.63a2.88,2.88,0,0,0-2.8-2.76c-2.64-.27-5.74,1.63-5.4,4.56a6.41,6.41,0,0,0,5.32,5.2c3,.49,6.43-.53,8.05-3.23A9.41,9.41,0,0,0,258.13,90.9Z" style="opacity:0.30000000000000004"></path></g></g></g><g id="freepik--Brushes--inject-551"><g id="freepik--Penciles--inject-551"><g id="freepik--pencil-can--inject-551"><g id="freepik--Can--inject-551"><path d="M134.48,385H98.56l4,33.07h0c.18,1.92,1.52,3.8,4.06,5.26,5.46,3.16,14.31,3.16,19.77,0,2.53-1.46,3.88-3.34,4.06-5.26h0Z" style="fill:#37474f"></path><path d="M103.82,377.68c7-4.05,18.41-4.05,25.43,0s7,10.63,0,14.68-18.41,4.06-25.43,0S96.8,381.74,103.82,377.68Z" style="fill:#455a64"></path><path d="M116.53,393.32a23.77,23.77,0,0,1-11.67-2.76c-2.72-1.58-4.22-3.54-4.22-5.54s1.5-4,4.22-5.53a26.05,26.05,0,0,1,23.34,0c2.73,1.57,4.23,3.54,4.23,5.53s-1.5,4-4.23,5.54A23.72,23.72,0,0,1,116.53,393.32Z" style="fill:#263238"></path></g><g style="clip-path:url(#freepik--clip-path--inject-551)"><g id="freepik--brush--inject-551"><path d="M106.68,360.6h0a227.14,227.14,0,0,1,4.9,23.92,161.36,161.36,0,0,1,1.14,27.27v0h0a.89.89,0,0,1-1.66.36A.64.64,0,0,1,111,412h0s-5.09-14.85-6.74-26.56a230,230,0,0,1-1.87-24.26h0a1.15,1.15,0,0,1,.52-.87,3.4,3.4,0,0,1,3.06-.43A1.14,1.14,0,0,1,106.68,360.6Z" style="fill:#FFC100"></path><path d="M106.68,360.6h0a227.14,227.14,0,0,1,4.9,23.92,161.36,161.36,0,0,1,1.14,27.27v0h0a.89.89,0,0,1-1.66.36A.64.64,0,0,1,111,412h0s-5.09-14.85-6.74-26.56a230,230,0,0,1-1.87-24.26h0a1.15,1.15,0,0,1,.52-.87,3.4,3.4,0,0,1,3.06-.43A1.14,1.14,0,0,1,106.68,360.6Z" style="opacity:0.30000000000000004"></path><path d="M111.05,412.2A.64.64,0,0,1,111,412h0s-5.09-14.85-6.74-26.56c-1.11-7.87-1.57-16.13-1.76-20.7l2.8.1s6.23,47.73,7,47.67A.9.9,0,0,1,111.05,412.2Z" style="opacity:0.15"></path><path d="M104.36,359.74c-.47-.66-3.08-4.21-2.85-7.42a3.54,3.54,0,0,0,1.18-.43c1.39-.82,1-2.12,2-2.85s2.51.89,2.52.9h0a9.43,9.43,0,0,1,1.38,5.58,9.63,9.63,0,0,1-1.93,5.08l-4.32.59h0Z" style="fill:#455a64"></path><path d="M98.56,353.43c.76-1.23,1.77-.9,3-1.11-.23,3.21,2.38,6.76,2.85,7.42l-2,1.45-1-1.18-.27-.33c-.18-.22-.36-.46-.54-.71a10.17,10.17,0,0,1-.76-1.22,7.43,7.43,0,0,1-.44-.94,10.3,10.3,0,0,1-.65-2.25A5.44,5.44,0,0,1,98.56,353.43Z" style="fill:#37474f"></path><path d="M98.56,353.42a5.49,5.49,0,0,1,0-.58v-.06c0-.15,0-.29.07-.43l0-.16,0-.13c0-.07,0-.15,0-.22s0-.18.08-.27a6.13,6.13,0,0,1,.22-.6c.08-.19.17-.38.26-.56s.2-.37.3-.54a9.73,9.73,0,0,1,2.55-2.74l.23-.15.06,0,.26-.17a11.14,11.14,0,0,1,1.69-.81c.26-.1.51-.18.75-.25s.45-.12.66-.17l.28-.05.26-.05.41-.05.36,0a3.85,3.85,0,0,0-.42,3.28,7.19,7.19,0,0,0,.51,1.29s-1.53-1.63-2.52-.9-.63,2-2,2.85a3.54,3.54,0,0,1-1.18.43c-1.18.21-2.19-.12-3,1.11Z" style="fill:#FFC100"></path><path d="M107.14,345.37a10.13,10.13,0,0,0-5.22,5.29,4.82,4.82,0,0,0-.41,1.66c-1.18.21-2.19-.12-3,1.11h0a5.49,5.49,0,0,1,0-.58v-.06c0-.15,0-.29.07-.43l0-.16,0-.13c0-.07,0-.15,0-.22s0-.18.08-.27a6.13,6.13,0,0,1,.22-.6c.08-.19.17-.38.26-.56s.2-.37.3-.54a9.73,9.73,0,0,1,2.55-2.74l.23-.15.06,0,.26-.17a11.14,11.14,0,0,1,1.69-.81c.26-.1.51-.18.75-.25s.45-.12.66-.17l.28-.05.26-.05.41-.05.36,0Z" style="opacity:0.1"></path><path d="M102.36,361.19a1.15,1.15,0,0,1,.52-.87,3.4,3.4,0,0,1,3.06-.43,1.14,1.14,0,0,1,.74.71c.44,1.65.89,3.47,1.34,5.38a1.45,1.45,0,0,0-.94-.92,4.33,4.33,0,0,0-3.87.54,1.39,1.39,0,0,0-.65,1.18C102.46,364.61,102.38,362.58,102.36,361.19Z" style="fill:#ebebeb"></path><path d="M105.27,364.85a4,4,0,0,0-2.06.75,1.39,1.39,0,0,0-.65,1.18c-.1-2.17-.18-4.2-.2-5.59a1.15,1.15,0,0,1,.52-.87,3,3,0,0,1,1.48-.58l0,0,.86,5.09Z" style="fill:#e0e0e0"></path></g><g id="freepik--brush--inject-551"><path d="M118.12,336.2h0s1.84,39.31,2,51.43a161.61,161.61,0,0,1-2.37,27.19v.06h0A.89.89,0,0,1,116,415a.7.7,0,0,1-.06-.19h0s-3.14-15.39-3.27-27.21,1.07-51.38,1.07-51.38h0a1.17,1.17,0,0,1,.62-.79,3.42,3.42,0,0,1,3.1,0A1.13,1.13,0,0,1,118.12,336.2Z" style="fill:#FFC100"></path><path d="M113.65,339.83c-.13,4.44-.35,12.45-.55,20.84l-.41,26.94c.13,11.82,3.27,27.21,3.27,27.21h0a.7.7,0,0,0,.06.19.89.89,0,0,0,1.17.48c-.77,0-1-75.25-1-75.25Z" style="opacity:0.1"></path><path d="M115.93,335.05c-.39-.71-2.51-4.56-1.87-7.72a3.65,3.65,0,0,0,1.22-.27c1.49-.64,1.3-2,2.37-2.57s2.38,1.2,2.39,1.22h0a9.48,9.48,0,0,1,.65,5.71,9.63,9.63,0,0,1-2.57,4.78l-4.36,0h0Z" style="fill:#455a64"></path><path d="M111,328.06c.92-1.13,1.88-.68,3.08-.73-.64,3.16,1.48,7,1.87,7.72l-2.17,1.18c-.28-.4-.58-.83-.89-1.3l-.22-.36a8.19,8.19,0,0,1-.45-.77,10.57,10.57,0,0,1-.6-1.31c-.12-.31-.22-.64-.32-1a11.21,11.21,0,0,1-.35-2.31A6,6,0,0,1,111,328.06Z" style="fill:#37474f"></path><path d="M111,328a5.21,5.21,0,0,1,.1-.57s0,0,0-.06.07-.28.11-.41a1,1,0,0,0,0-.16.61.61,0,0,0,0-.12,2,2,0,0,0,.08-.22l.12-.26a5.93,5.93,0,0,1,.29-.56,5.84,5.84,0,0,1,.33-.53c.12-.17.24-.33.37-.49a9.67,9.67,0,0,1,2.88-2.38l.24-.13.07,0L116,322a11.2,11.2,0,0,1,1.78-.59c.27-.07.53-.11.77-.15a6.21,6.21,0,0,1,.68-.08l.29,0h.68a2.55,2.55,0,0,1,.35,0,3.86,3.86,0,0,0-.83,3.2,6.36,6.36,0,0,0,.34,1.35s-1.32-1.81-2.39-1.22-.88,1.93-2.37,2.57a3.65,3.65,0,0,1-1.22.27c-1.2.05-2.16-.4-3.08.73Z" style="fill:#FFC100"></path><path d="M120.53,321.16a10.14,10.14,0,0,0-5.85,4.58,4.62,4.62,0,0,0-.62,1.59c-1.2.05-2.16-.4-3.08.73v0a5.21,5.21,0,0,1,.1-.57s0,0,0-.06.07-.28.11-.41a1,1,0,0,0,0-.16.61.61,0,0,0,0-.12,2,2,0,0,0,.08-.22l.12-.26a5.93,5.93,0,0,1,.29-.56,5.84,5.84,0,0,1,.33-.53c.12-.17.24-.33.37-.49a9.67,9.67,0,0,1,2.88-2.38l.24-.13.07,0L116,322a11.2,11.2,0,0,1,1.78-.59c.27-.07.53-.11.77-.15a6.21,6.21,0,0,1,.68-.08l.29,0h.68a2.55,2.55,0,0,1,.35,0Z" style="opacity:0.1"></path><path d="M113.76,336.23h0s-.06,1.84-.14,4.82a1.74,1.74,0,0,1,.41-.33,4.34,4.34,0,0,1,3.91,0,1.82,1.82,0,0,1,.4.3c-.13-3-.22-4.78-.22-4.78h0a1.13,1.13,0,0,0-.64-.79,3.42,3.42,0,0,0-3.1,0A1.17,1.17,0,0,0,113.76,336.23Z" style="fill:#ebebeb"></path><path d="M113.76,336.23h0s-.06,1.84-.14,4.82a1.74,1.74,0,0,1,.41-.33,4.11,4.11,0,0,1,2.15-.48l-.2-5.15,0,0h0a3.09,3.09,0,0,0-.61.08l-.21,0a2.78,2.78,0,0,0-.73.29A1.17,1.17,0,0,0,113.76,336.23Z" style="fill:#e0e0e0"></path></g><g id="freepik--brush--inject-551"><path d="M124.41,371.34l-2.87,23.3a1.51,1.51,0,0,0,.74,1.36,4.82,4.82,0,0,0,4.33.53,1.52,1.52,0,0,0,1-1.14l2.88-23.29Z" style="fill:#FFC100"></path><path d="M124.41,371.34l-2.87,23.3a1.51,1.51,0,0,0,.74,1.36,4.82,4.82,0,0,0,4.33.53,1.52,1.52,0,0,0,1-1.14l2.88-23.29Z" style="opacity:0.30000000000000004"></path><polygon points="129.8 378.09 123.23 380.88 124.41 371.34 130.53 372.1 129.8 378.09" style="opacity:0.15"></polygon><path d="M135.92,353.8l-.58,4.74,4.39-1.86-1.18,9.75a10.23,10.23,0,0,1-5.58,7.41l-7.72,3.27a3.38,3.38,0,0,1-3.17,0c-.08-.05-3.37-2.49-4.06-3.07a3.33,3.33,0,0,1-.88-3.05l1.19-9.75Z" style="fill:#FFC100"></path><path d="M135.92,353.8l-.58,4.74,4.39-1.86-1.18,9.75a10.23,10.23,0,0,1-5.58,7.41l-7.72,3.27a3.38,3.38,0,0,1-3.17,0c-.08-.05-3.37-2.49-4.06-3.07a3.33,3.33,0,0,1-.88-3.05l1.19-9.75Z" style="opacity:0.4"></path><path d="M125.25,377.11l7.72-3.27a10.23,10.23,0,0,0,5.58-7.41l1.18-9.75-17.58,7.45L121,373.88C120.6,376.82,122.52,378.26,125.25,377.11Z" style="fill:#FFC100"></path><path d="M125.25,377.11l7.72-3.27a10.23,10.23,0,0,0,5.58-7.41l1.18-9.75-17.58,7.45L121,373.88C120.6,376.82,122.52,378.26,125.25,377.11Z" style="opacity:0.30000000000000004"></path><polygon points="122.15 364.13 139.73 356.68 141.49 342.46 123.9 349.91 122.15 364.13" style="fill:#f0f0f0"></polygon><polygon points="122.15 364.13 123.9 349.91 120.09 347.04 118.33 361.25 122.15 364.13" style="fill:#ebebeb"></polygon><polygon points="121.63 368.36 139.22 360.91 138.99 362.85 121.39 370.4 121.63 368.36" style="fill:#fafafa"></polygon><polygon points="121.63 368.36 117.82 365.48 117.57 367.52 121.39 370.4 121.63 368.36" style="fill:#e6e6e6"></polygon><path d="M119.55,351.38s1,3.56,3.67,4.07l.68-5.54L120.09,347Z" style="fill:#FFC100"></path><path d="M119.55,351.38s1,3.56,3.67,4.07l.68-5.54L120.09,347Z" style="opacity:0.1"></path><path d="M123.22,355.45a5.91,5.91,0,0,0,5.67,0c2.13-1.21,3.42-6.23,7.2-5.87,2.66.26,4.11,3.26,4.11,3.26l1.29-10.41-17.59,7.45Z" style="fill:#FFC100"></path><polygon points="141.49 342.46 137.67 339.58 120.09 347.04 123.9 349.91 141.49 342.46" style="fill:#FFC100"></polygon><polygon points="141.49 342.46 137.67 339.58 120.09 347.04 123.9 349.91 141.49 342.46" style="fill:#fff;opacity:0.7000000000000001"></polygon></g></g></g></g></g><g id="freepik--paint-pot--inject-551"><g id="freepik--Paint--inject-551"><path d="M97.26,350.34h-48l2.17,34.14h0c0,3.17,2,6.36,6.18,8.83,8.32,4.92,21.9,5.07,30.33.32,4.25-2.39,6.37-5.57,6.37-8.77Z" style="fill:#37474f"></path><path d="M56.34,339.71c-9.44,5.31-9.53,14.1-.21,19.62s24.54,5.68,34,.37,9.54-14.11.22-19.63S65.78,334.39,56.34,339.71Z" style="fill:#455a64"></path><path d="M95.18,349.93a5.93,5.93,0,0,1-.34,1.88c-.73,2.25-2.69,4.34-5.75,6.07a32.84,32.84,0,0,1-16,3.61,32.72,32.72,0,0,1-15.9-3.95c-2.95-1.75-4.89-3.87-5.57-6.07a6,6,0,0,1-.34-2c.06-2.93,2.2-5.75,6.1-7.92,4.23-2.41,9.93-3.69,16-3.61a32.28,32.28,0,0,1,15.92,3.95C93.12,344.15,95.21,347,95.18,349.93Z" style="fill:#263238"></path><path d="M73.35,353.73c-6-.05-11.74,1.23-16,3.64l-.23.14,0,0a32.72,32.72,0,0,0,15.9,3.95,32.84,32.84,0,0,0,16-3.61l.23-.14,0,0A32.72,32.72,0,0,0,73.35,353.73Z" style="fill:#FFC100"></path><path d="M74.9,361.45a14.64,14.64,0,0,1-4.37-1.64,6.16,6.16,0,0,1-3-3.24,3,3,0,0,1-.18-1.07,3.35,3.35,0,0,1,.34-1.4,29,29,0,0,0-10.34,3.27l-.23.14,0,0a32.72,32.72,0,0,0,15.9,3.95C73.7,361.49,74.3,361.47,74.9,361.45Z" style="fill:#263238;opacity:0.15"></path><path d="M82.36,363.17c.94-.53,1.69-.09,1.68,1a3.73,3.73,0,0,1-1.72,2.91c-.94.53-1.7.09-1.68-1A3.71,3.71,0,0,1,82.36,363.17Z" style="fill:#263238"></path><path d="M49.8,359.87c-2.07,5.31-3.68,12.53,1,15.95.26.19.49.35.75.52l0,2.24c-.61-.38-1.24-.8-1.85-1.24-6.89-5.11-2.67-16.28,0-21.71Z" style="fill:#e0e0e0"></path><path d="M83.16,365.56c-.26.54-6.88,13.2-17.78,15.75a16,16,0,0,1-3.75.44,18.94,18.94,0,0,1-10.15-3.17l0-2.24c4.5,3.12,9,4.2,13.46,3.17,10.06-2.36,16.5-14.7,16.54-14.81a.94.94,0,0,1,1.26-.4A.9.9,0,0,1,83.16,365.56Z" style="fill:#e0e0e0"></path></g></g></svg>
