<svg xmlns="http://www.w3.org/2000/svg" viewBox="0 0 500 500"><g id="freepik--background-complete--inject-946"><rect x="67.75" y="398.99" width="32.41" height="11.19" style="fill:#ebebeb"></rect><path d="M82.08,424.29c-9.61.15-22.91.46-32.41.45h-.45v-.45l0-11.19v-.5h.5c9.56,0,23,.09,32.41.25h.26v.25l-.25,11.19Zm0,0-.25-11.19.25.25c-5.4.06-10.8.16-16.21.18l-16.2.07.5-.5-.05,11.19-.45-.46c9.3,0,23,.29,32.41.46Z" style="fill:#ebebeb"></path><path d="M356.82,184.08c-9.61.15-22.91.47-32.41.46H324v-.46l0-11.19v-.5h.5c9.56,0,23,.09,32.41.25h.26v.24l-.25,11.19Zm0,0-.25-11.19.25.25c-5.4.06-10.8.16-16.2.19l-16.21.06.5-.5,0,11.19-.46-.45c9.31,0,22.95.29,32.41.45Z" style="fill:#ebebeb"></path><rect x="306.33" y="187" width="32.41" height="11.19" style="fill:#ebebeb"></rect><path d="M320.74,184.08c-9.62.15-22.92.47-32.41.46h-.45v-.46l0-11.19v-.5h.51c9.55,0,23,.09,32.41.25H321v.24l-.25,11.19Zm0,0-.25-11.19.25.25c-5.41.06-10.81.16-16.21.19l-16.2.06.5-.5-.05,11.19-.45-.45c9.3,0,22.94.29,32.41.45Z" style="fill:#ebebeb"></path><path d="M450.33,424.29c-9.61.15-22.91.46-32.41.45h-.45v-.45l-.05-11.19v-.5h.5c9.56,0,23,.09,32.41.25h.26v.25l-.25,11.19Zm0,0-.25-11.19.25.25c-5.4.06-10.8.16-16.2.18l-16.21.07.5-.5-.05,11.19-.45-.46c9.31,0,22.95.29,32.41.46Z" style="fill:#ebebeb"></path><path d="M432.25,66.89c-9.61.15-22.91.46-32.41.45h-.45v-.46l-.05-11.18v-.51h.5c9.56,0,23,.08,32.41.24h.26v.25l-.25,11.19Zm0,0L432,55.7l.25.25c-5.4,0-10.8.15-16.2.18l-16.21.06.5-.49,0,11.18-.45-.45c9.31,0,23,.29,32.41.46Z" style="fill:#ebebeb"></path><rect x="417.92" y="69.81" width="32.41" height="11.19" style="fill:#ebebeb"></rect><rect x="57.8" y="55.7" width="32.41" height="11.19" style="fill:#ebebeb"></rect><rect x="92.6" y="109.69" width="122.19" height="7.25" transform="translate(307.38 226.63) rotate(180)" style="fill:#ebebeb"></rect><rect x="198.25" y="116.94" width="7.26" height="24" style="fill:#ebebeb"></rect><rect x="198.25" y="116.94" width="7.26" height="7.42" style="fill:#dbdbdb"></rect><rect x="101.87" y="116.94" width="7.26" height="24" style="fill:#ebebeb"></rect><rect x="101.87" y="116.94" width="7.26" height="7.42" style="fill:#dbdbdb"></rect><rect x="154.96" y="80.75" width="46.24" height="11.64" transform="translate(264.65 -91.51) rotate(90)" style="fill:#c7c7c7"></rect><rect x="175.54" y="57.69" width="5.08" height="11.64" transform="translate(241.6 -114.56) rotate(90)" style="fill:#dbdbdb"></rect><rect x="177.14" y="67.69" width="1.89" height="11.64" transform="translate(251.59 -104.57) rotate(90)" style="fill:#dbdbdb"></rect><rect x="174.81" y="94.53" width="5.08" height="13.09" transform="translate(278.44 -76.27) rotate(90)" style="fill:#dbdbdb"></rect><rect x="141.22" y="78.65" width="53.94" height="8.14" transform="translate(250.91 -85.47) rotate(90)" style="fill:#dbdbdb"></rect><rect x="157.85" y="68.75" width="20.75" height="4.88" transform="translate(239.42 -97.03) rotate(90)" style="fill:#ebebeb"></rect><rect x="101.3" y="83.77" width="53.94" height="8.14" transform="translate(281.24 60.15) rotate(135.33)" style="fill:#c7c7c7"></rect><rect x="115.07" y="88.15" width="20.75" height="4.88" transform="translate(278.35 66.84) rotate(135.33)" style="fill:#dbdbdb"></rect><rect x="136.73" y="82.3" width="40.97" height="13.82" transform="translate(246.43 -68.01) rotate(90)" style="fill:#a6a6a6"></rect><rect x="155.31" y="96.53" width="3.82" height="13.82" transform="translate(260.66 -53.77) rotate(90)" style="fill:#c7c7c7"></rect><rect x="156.48" y="91.38" width="1.48" height="13.82" transform="translate(255.5 -58.93) rotate(90)" style="fill:#c7c7c7"></rect><rect x="169.42" y="85.67" width="38.5" height="9.55" transform="translate(279.12 -98.23) rotate(90)" style="fill:#a6a6a6"></rect><rect x="186.88" y="99.05" width="3.59" height="9.55" transform="translate(292.49 -84.86) rotate(90)" style="fill:#c7c7c7"></rect><rect x="186.88" y="76.15" width="3.59" height="9.55" transform="translate(269.6 -107.75) rotate(90)" style="fill:#c7c7c7"></rect><rect x="187.98" y="81.1" width="1.39" height="9.55" transform="translate(274.55 -102.8) rotate(90)" style="fill:#c7c7c7"></rect><rect x="359.52" y="65.74" width="51.18" height="51.18" style="fill:#fff"></rect><path d="M356.85,63.07v56.51h56.51V63.07Zm53.85,53.85H359.52V65.74H410.7Z" style="fill:#dbdbdb"></path><rect x="378.22" y="78.21" width="17.69" height="39.89" transform="translate(485.23 -288.91) rotate(90)" style="fill:#ebebeb"></rect><rect x="374.89" y="81.11" width="20.44" height="20.44" transform="translate(476.44 -293.78) rotate(90)" style="fill:#c7c7c7"></rect><rect x="413.36" y="63.07" width="2.18" height="56.51" style="fill:#c7c7c7"></rect><rect x="379.52" y="138.41" width="51.18" height="51.18" style="fill:#fff"></rect><rect x="388.31" y="146.6" width="13.36" height="38.61" style="fill:#c7c7c7"></rect><path d="M376.85,135.75v56.51h56.51V135.75Zm53.85,53.84H379.52V138.41H430.7Z" style="fill:#dbdbdb"></path><rect x="394.89" y="153.78" width="20.44" height="20.44" style="fill:#ebebeb"></rect><rect x="433.36" y="135.75" width="2.18" height="56.51" style="fill:#c7c7c7"></rect><rect x="399.52" y="211.09" width="51.18" height="51.18" style="fill:#fff"></rect><rect x="405.19" y="218.06" width="28.08" height="16.79" style="fill:#ebebeb"></rect><path d="M396.85,208.42v56.51h56.51V208.42Zm53.85,53.85H399.52V211.09H450.7Z" style="fill:#dbdbdb"></path><rect x="414.89" y="226.46" width="20.44" height="20.44" style="fill:#c7c7c7"></rect><rect x="453.36" y="208.42" width="2.18" height="56.51" style="fill:#c7c7c7"></rect></g><g id="freepik--Floor--inject-946"><polygon points="44.45 451.3 95.84 451.06 147.23 450.97 250 450.8 352.77 450.97 404.16 451.06 455.55 451.3 404.16 451.55 352.77 451.63 250 451.8 147.23 451.63 95.84 451.55 44.45 451.3" style="fill:#263238"></polygon></g><g id="freepik--Plant--inject-946"><path d="M409.1,223s25.09-3.51,19.22-33.8C428.32,189.24,400.29,195.53,409.1,223Z" style="fill:#FFC727"></path><path d="M409.1,223s25.09-3.51,19.22-33.8C428.32,189.24,400.29,195.53,409.1,223Z" style="opacity:0.1"></path><path d="M410.36,216.72a48,48,0,0,1,1.71-4.51c0-.2.05-.39.07-.58,0-.41.07-.83.1-1.25.07-.9.13-1.81.18-2.71.11-1.81.22-3.62.25-5.43a.08.08,0,1,1,.15,0c0,1.81.05,3.63,0,5.44,0,.9-.09,1.81-.15,2.71,0,.2,0,.4,0,.61a53.66,53.66,0,0,1,5-8.61q1.29-1.8,2.74-3.48c1-1.14,2.06-2.23,3.07-3.36.07-.08.17,0,.11.11a44,44,0,0,0-4.84,6.43c-.76,1.15-1.48,2.33-2.17,3.54l.24-.09.89-.37,2.05-.77,4-1.5c.08,0,.13.11.05.14-1.33.53-2.65,1.09-4,1.66l-2,.84-1,.4a3.06,3.06,0,0,1-.66.24c-.51.91-1,1.82-1.47,2.75a66.71,66.71,0,0,0-3.07,7.23l-.18.52a14.39,14.39,0,0,1,2.06-1l2.6-1.19c1.76-.81,3.5-1.63,5.19-2.58.09,0,.16.09.08.14-1.73.94-3.42,1.94-5.15,2.88q-1.29.7-2.61,1.35a8.15,8.15,0,0,1-2.36.94,29.94,29.94,0,0,0-1.64,7.12c-.28,3.42-.25,6.88-.33,10.31a0,0,0,1,1-.09,0c-.25-3.12-.39-6.26-.41-9.38A27.45,27.45,0,0,1,410.36,216.72Z" style="fill:#263238"></path><path d="M414.23,198.91a30.77,30.77,0,0,1,.25,5.34c0,.05-.08.05-.08,0-.1-1.77-.12-3.54-.32-5.3C414.07,198.85,414.22,198.81,414.23,198.91Z" style="fill:#263238"></path><path d="M421.4,200.42a19.32,19.32,0,0,0,3.23-1.58.07.07,0,1,1,.07.13,12.08,12.08,0,0,1-3.26,1.56C421.38,200.55,421.34,200.45,421.4,200.42Z" style="fill:#263238"></path><path d="M408.29,271.13c0-2.77.08-5.54.11-8.32.05-9.2.13-18.41.29-27.62q.19-11,.51-21.93a.11.11,0,0,1,.07-.09l0-6c0-.05.06-.07.12-.07s.12,0,.12.07q0,3,0,6s.05,0,.05.09c.37,13,.7,26,.78,39,0,2.65,0,5.3,0,7.94q.13,12.72.1,25.45c0,1.35,0,2.7,0,4.05,0,7.77-.08,15.53-.08,23.29,0,.42-.47.63-1,.65s-1.16-.21-1.16-.68c0-8.56-.06-17.12-.06-25.68C408.27,281.92,408.25,276.53,408.29,271.13Z" style="fill:#263238"></path><path d="M418.77,262.71s12.07-8.94,23.53-2.9,13.25,29.33,13.25,29.33-16.82,2.41-27.42-7.68C417.93,271.75,418.77,262.71,418.77,262.71Z" style="fill:#FFC727"></path><path d="M415.48,263.26a14.45,14.45,0,0,1,7-.91,10.76,10.76,0,0,1,1.48-.15l1.7-.12c1.18-.1,2.35-.17,3.52-.25,2.38-.18,4.77-.33,7.15-.57a.08.08,0,0,1,0,.16c-2.35.3-4.69.63-7.05.87-1.21.12-2.42.25-3.64.33l-.88.09,1.07.26a28.81,28.81,0,0,1,5.47,2.23c.95.17,1.89.43,2.83.65,1.49.36,3,.74,4.46,1.13,2.93.77,5.83,1.63,8.74,2.48.09,0,.05.17-.05.14-2.9-.71-5.82-1.36-8.73-2.06-1.42-.33-2.84-.66-4.25-1l-1.11-.26a35.28,35.28,0,0,1,8.58,7.46,46.82,46.82,0,0,1,6,9.4c0,.09-.08.17-.13.08a45.73,45.73,0,0,0-7.21-9.46c.05.16.1.32.16.48.22.71.44,1.42.67,2.13.44,1.42.9,2.84,1.32,4.27,0,.09-.12.13-.15,0-.51-1.38-1-2.77-1.48-4.15l-.71-2c-.13-.35-.25-.71-.36-1.06l-.12-.32a40.89,40.89,0,0,0-4.28-3.65,32,32,0,0,0-6.41-3.67l.12.61c.12.55.25,1.1.36,1.65.24,1.15.46,2.29.68,3.44.46,2.33.74,4.7,1.17,7,0,.1-.12.14-.14,0-.54-2.35-1.24-4.66-1.77-7-.26-1.18-.52-2.36-.77-3.54l-.33-1.65a7.58,7.58,0,0,1-.17-.93l-.66-.27c-3.16-1.17-6.66-2-10-1.37a9.83,9.83,0,0,0-7.26,5.82c-.11.26-.53.1-.47-.17A9.33,9.33,0,0,1,415.48,263.26Z" style="fill:#263238"></path><path d="M434,273.21l1,4.58a33.85,33.85,0,0,1,.84,4.47c0,.06-.08.06-.1,0a34.47,34.47,0,0,1-1-4.5c-.3-1.51-.6-3-.89-4.53A.08.08,0,0,1,434,273.21Z" style="fill:#263238"></path><path d="M445.63,277.09c1.54.78,3,1.67,4.63,2.31a.08.08,0,1,1-.06.14,51.51,51.51,0,0,1-4.61-2.39S445.59,277.07,445.63,277.09Z" style="fill:#263238"></path><path d="M416.06,246.29s14.75.94,21.61-8.79S443,213.88,443,213.88s-15.49,1.89-21.64,8.87S416.06,246.29,416.06,246.29Z" style="fill:#FFC727"></path><path d="M409.14,260.84c.51-1.58,1.14-3.14,1.74-4.69s1.18-3,1.83-4.42a94.53,94.53,0,0,1,4.42-8.69c1-1.79,2.16-3.53,3.31-5.24,0-.26.07-.53.11-.79l.21-1.37c.14-.93.31-1.86.46-2.8.34-2,.76-4.05,1.09-6.09,0-.1.16-.1.15,0-.3,2-.5,4-.78,6.05-.14,1-.27,2-.42,3-.05.36-.11.71-.17,1.07a107.31,107.31,0,0,1,7.3-9.46c.35-.41.72-.81,1.08-1.21,0-.11.09-.22.13-.34.11-.28.22-.56.32-.84.22-.59.43-1.17.64-1.76.42-1.16.79-2.32,1.1-3.51a.08.08,0,0,1,.15.05c-.3,1.21-.61,2.42-1,3.61-.17.58-.36,1.15-.56,1.72,0,.09-.07.18-.11.28,1.89-2.06,3.85-4,5.84-6a.08.08,0,0,1,.11.11,104.48,104.48,0,0,0-10.46,12.8,10.42,10.42,0,0,1,1.1-.28c1.13-.22,2.28-.38,3.42-.52,2.41-.31,4.8-.61,7.2-1a.08.08,0,0,1,0,.15c-2.28.45-4.55,1-6.82,1.49-1.07.24-2.14.45-3.22.66a20.74,20.74,0,0,0-2.59.74c-.24.34-.49.68-.72,1-1.08,1.58-2.12,3.18-3.14,4.81.5-.11,1-.2,1.51-.3,1.14-.22,2.28-.43,3.42-.61,2.25-.37,4.51-.77,6.73-1.27a.08.08,0,0,1,0,.15c-2.26.53-4.49,1.14-6.73,1.74-1.08.29-2.17.55-3.26.79l-1.64.36a3.46,3.46,0,0,1-.67.11c-2.15,3.49-4.18,7.07-6.05,10.72-.82,1.6-1.61,3.23-2.38,4.86s-1.46,3.38-2.19,5.08C409.56,261.35,409,261.21,409.14,260.84Z" style="fill:#263238"></path><path d="M424.23,226.94c.28-1.41.58-2.81.89-4.21,0-.1.17,0,.15,0-.28,1.39-.55,2.77-.8,4.16a40.78,40.78,0,0,1-.83,4.13,0,0,0,0,1-.05,0A30,30,0,0,1,424.23,226.94Z" style="fill:#263238"></path><path d="M432.84,226.53c.68-.34,1.41-.62,2.12-.89l1.12-.44.57-.23a2.65,2.65,0,0,0,.62-.27c.11-.08.18.11.07.13a2.47,2.47,0,0,0-.63.26l-.56.25-1.08.48a21.28,21.28,0,0,1-2.17.86C432.81,226.71,432.76,226.57,432.84,226.53Z" style="fill:#263238"></path><path d="M401,234.69S392,218,378.45,215.43s-21.89,11.39-21.89,11.39,9.9,12.65,22.37,14.86S401,234.69,401,234.69Z" style="fill:#FFC727"></path><path d="M369.35,222.9A36.91,36.91,0,0,1,380,223l-.6-.32c-1-.51-2-1-3-1.56-2.08-1.08-4.19-2.24-6.37-3.11a.08.08,0,1,1,.06-.14c2.12,1,4.33,1.82,6.46,2.8,1.06.49,2.11,1,3.15,1.55.67.36,1.41.69,2.07,1.12a37.69,37.69,0,0,1,8.63,2.86l-1.7-1.84c-1.26-1.39-2.51-2.85-3.9-4.11-.07-.06,0-.17.11-.1,1.42,1.29,2.92,2.48,4.3,3.82.67.66,1.31,1.33,1.93,2,.31.35.63.71.92,1.08a35.75,35.75,0,0,1,18.21,24.58c0,.1-.12.15-.15,0a41,41,0,0,0-10-16.89,39.33,39.33,0,0,0-18.19-10.53,40,40,0,0,0-12.56-1.14A.14.14,0,0,1,369.35,222.9Z" style="fill:#263238"></path><path d="M356.56,226.82s9.91,12.66,22.37,14.86c9.51,1.69,17.33-3.27,20.5-5.71l.69-1.13s-6.43-5.42-18.59-8.54S356.56,226.82,356.56,226.82Z" style="opacity:0.1"></path><path d="M377.24,217a33.32,33.32,0,0,1,3,2,18.07,18.07,0,0,1,2.62,2.4.08.08,0,0,1-.11.11c-.9-.78-1.81-1.57-2.75-2.31a27.51,27.51,0,0,0-2.85-2.06C377.07,217,377.15,216.91,377.24,217Z" style="fill:#263238"></path><path d="M369.79,219.78c.5.21,1,.39,1.52.6l1.51.63c.11,0,.05.22-.06.18l-1.51-.62c-.51-.2-1-.44-1.51-.64C369.65,219.89,369.69,219.74,369.79,219.78Z" style="fill:#263238"></path><path d="M402.74,255.67s-2.38,16.54-14.82,22.33-27.6,0-27.6,0S366.28,242.21,402.74,255.67Z" style="fill:#FFC727"></path><path d="M368.89,267.24c1.14-.13,2.28-.32,3.42-.53l1.67-.32.87-.17,1-.94a50.83,50.83,0,0,1,7.61-5.51,42.59,42.59,0,0,1,4.56-2.34h-.24c-1.36.06-2.73.11-4.09.18-2.73.12-5.46.18-8.19.36-.1,0-.09-.15,0-.15,2.73-.19,5.46-.49,8.19-.73l4-.35,2.05-.18.52-.05c.71-.27,1.43-.52,2.15-.74A19.3,19.3,0,0,1,403,255.2c3.13.8,6.25,2.85,7.06,6.15,0,.11-.15.19-.2.07-1.17-2.75-4.23-4.14-7-4.71a16.37,16.37,0,0,0-5.63-.11,13.87,13.87,0,0,1-.63,2.5c-.34,1.16-.68,2.33-1,3.49-.71,2.32-1.49,4.62-2.17,7a.08.08,0,0,1-.15,0c.58-2.33,1.07-4.67,1.62-7,.28-1.15.57-2.29.85-3.43a18.26,18.26,0,0,1,.63-2.35,28.64,28.64,0,0,0-3.23.76,46.54,46.54,0,0,0-5.64,2.07c-.18,1.18-.44,2.35-.71,3.51-.35,1.46-.72,2.91-1.19,4.33a.07.07,0,0,1-.14,0l.06-.27h0c.28-1.36.58-2.7.86-4.06.23-1.08.45-2.18.68-3.27-1.54.7-3.06,1.46-4.53,2.3,0,.34-.11.68-.16,1-.09.57-.19,1.13-.3,1.7-.23,1.27-.49,2.54-.79,3.81a60.5,60.5,0,0,1-2.14,7.19.07.07,0,0,1,0,.09l-.07.09a.08.08,0,0,1-.13-.08c.58-2.45,1.23-4.88,1.77-7.34.27-1.23.54-2.46.79-3.69.12-.62.23-1.24.35-1.85l.09-.56a53.74,53.74,0,0,0-4.85,3.23,52.83,52.83,0,0,0-7.41,6.77c-.09.1-.26,0-.18-.15.95-1.24,1.89-2.46,3-3.61.63-.67,1.28-1.32,1.94-2l-.21,0c-.58.1-1.16.18-1.75.26-1.15.16-2.3.27-3.46.4C368.83,267.4,368.79,267.25,368.89,267.24Z" style="fill:#263238"></path><path d="M377.63,272.85h0c0-.14,0-.29.07-.43s.12-.36.15-.54h0c.26-1.1.48-2.21.68-3.33,0-.08.13-.06.13,0a13.39,13.39,0,0,1-1,4.32s-.09,0-.08,0Z" style="fill:#263238"></path><path d="M388,272.58a.07.07,0,0,1,.07-.06c.35-1.47.69-2.94,1-4.41.16-.78.32-1.55.47-2.33.08-.42.16-.83.23-1.25a3.57,3.57,0,0,1,.27-1.08.08.08,0,0,1,.14,0,7.63,7.63,0,0,1-.31,2.22c-.16.81-.31,1.62-.49,2.42-.36,1.63-.77,3.26-1.23,4.86a.09.09,0,0,1-.17,0Z" style="fill:#263238"></path><path d="M370,262.48c2.27-.31,4.54-.64,6.82-.92.09,0,.13.14,0,.15-2.27.34-4.55.62-6.82.92C370,262.64,369.92,262.49,370,262.48Z" style="fill:#263238"></path><path d="M409.11,216.88s7.61-33.39-28.26-46.9C380.85,170,370.91,213.93,409.11,216.88Z" style="fill:#FFC727"></path><path d="M401.37,197.94c-.14-.08-.26-.17-.39-.23l-2-1.14-4.16-2.32c-2.74-1.53-5.45-3.13-8.2-4.63-.09,0,0-.17.08-.13,2.76,1.51,5.57,2.91,8.35,4.38l4.11,2.17,1.68.89c-1.2-2.27-2.47-4.49-3.88-6.64-1.87-2.86-3.93-5.58-6.07-8.25a.12.12,0,0,1,.18-.17,57.64,57.64,0,0,1,8.3,10.17c0-.11,0-.23,0-.34,0-.83-.06-1.66-.07-2.5,0-1.63.05-3.26,0-4.89,0-.1.14-.09.15,0,.07,1.6.26,3.2.35,4.8,0,.8.08,1.6.1,2.41,0,.43.06.92,0,1.4.74,1.17,1.45,2.36,2.12,3.57a61.11,61.11,0,0,1,3.21,6.73c0-.83.08-1.67.13-2.5.11-1.82.33-3.64.41-5.47a.07.07,0,1,1,.15,0c0,1.83.05,3.66,0,5.49,0,.91-.05,1.82-.11,2.74,0,.33,0,.68-.07,1a59,59,0,0,1,2.71,9.17,98.11,98.11,0,0,1,1.34,10.09s0,0,0,0a54.37,54.37,0,0,0-1.9-9c-.45-1.57-.91-3.14-1.42-4.69-1.49-.71-2.92-1.58-4.36-2.38l-4.51-2.47c-3-1.64-6-3.31-9.07-4.76-.08,0,0-.17.09-.13,3.12,1.42,6.28,2.76,9.35,4.31,1.53.76,3,1.58,4.52,2.43,1.25.7,2.53,1.4,3.72,2.21-.35-1-.71-2.08-1.11-3.1A89.44,89.44,0,0,0,401.37,197.94Z" style="fill:#263238"></path><path d="M404.39,190.31c0-.1.16-.1.16,0-.13,1.91-.2,3.81-.4,5.71a.09.09,0,0,1-.17,0C404.05,194.11,404.25,192.21,404.39,190.31Z" style="fill:#263238"></path><path d="M387.19,196.68c2.25.91,4.51,1.77,6.75,2.7.06,0,0,.13,0,.11-2.27-.85-4.51-1.78-6.76-2.66C387.06,196.8,387.1,196.65,387.19,196.68Z" style="fill:#263238"></path><path d="M383.78,181.28a58.35,58.35,0,0,1,6.38,3.43c.11.06,0,.22-.1.16-2.08-1.22-4.2-2.38-6.36-3.46C383.61,181.37,383.7,181.24,383.78,181.28Z" style="fill:#263238"></path><rect x="384.32" y="289.09" width="51.74" height="54.54" transform="translate(820.39 632.71) rotate(180)" style="fill:#455a64"></rect><rect x="436.98" y="308.39" width="2.65" height="143.42" style="fill:#263238"></rect><rect x="381.04" y="308.39" width="2.65" height="143.42" style="fill:#263238"></rect><rect x="407.6" y="308.39" width="2.65" height="143.42" style="fill:#263238"></rect><rect x="382.37" y="340.13" width="55.94" height="7.55" transform="translate(820.67 687.81) rotate(180)" style="fill:#263238"></rect></g><g id="freepik--speech-bubble--inject-946"><path d="M326.78,106.59A22.62,22.62,0,0,1,289,120.9l-11.31,1.66,5.66-9.78a22.62,22.62,0,1,1,43.45-6.19Z" style="fill:#fff"></path><path d="M326.78,106.59a22.89,22.89,0,0,1-4.57,11.47,25.48,25.48,0,0,1-2,2.36,27.14,27.14,0,0,1-2.39,2,22.57,22.57,0,0,1-5.45,3,22.83,22.83,0,0,1-6.09,1.45,22.09,22.09,0,0,1-3.15.06,19.44,19.44,0,0,1-3.13-.33,22.71,22.71,0,0,1-11.19-5.52l.27.08L277.72,123l-.82.12.42-.72,5.63-9.8,0,.38a22.89,22.89,0,0,1,28.36-30.38A23.1,23.1,0,0,1,320,87.91,22.78,22.78,0,0,1,326.78,106.59Zm0,0a22.4,22.4,0,0,0-25.66-24.48,22.26,22.26,0,0,0-9.34,3.69A23.42,23.42,0,0,0,285,93.18a22.47,22.47,0,0,0-2.87,9.58,22.7,22.7,0,0,0,1.59,9.85l.09.2-.11.19-5.7,9.76-.4-.6,11.33-1.58.15,0,.11.1A22.36,22.36,0,0,0,300,126.24a19.67,19.67,0,0,0,3.06.37,21.38,21.38,0,0,0,3.1,0,22.37,22.37,0,0,0,6-1.33,21.33,21.33,0,0,0,5.46-2.94,26.64,26.64,0,0,0,2.39-2,25.12,25.12,0,0,0,2.05-2.33A22.71,22.71,0,0,0,326.78,106.59Z" style="fill:#263238"></path><path d="M313.87,108.5a29.65,29.65,0,0,1-9.5,8.25,29.65,29.65,0,0,1-9.5-8.25c-3.35-4.42-3.18-11.35,1.6-12.85,5.29-1.66,7.9,6.3,7.9,6.3s2.63-8,7.89-6.3C317,97.2,317.21,104.08,313.87,108.5Z" style="fill:#FFC727"></path></g><g id="freepik--character-1--inject-946"><polygon points="141.44 335.32 94.04 335.32 66.91 200.06 110.31 180.12 141.44 335.32" style="fill:#FFC727"></polygon><g style="opacity:0.4"><polygon points="141.44 335.32 94.04 335.32 66.91 200.06 110.31 180.12 141.44 335.32"></polygon></g><polygon points="269.4 335.32 141.44 335.32 110.31 180.12 238.27 180.12 269.4 335.32" style="fill:#FFC727"></polygon><polygon points="269.4 335.32 141.44 335.32 110.31 180.12 238.27 180.12 269.4 335.32" style="opacity:0.2"></polygon><rect x="44.45" y="262.75" width="72.65" height="149.07" style="fill:#FFC727"></rect><g style="opacity:0.4"><rect x="44.45" y="262.75" width="72.65" height="149.07"></rect></g><polygon points="304.27 411.82 284.42 411.82 254.85 262.75 304.27 262.75 304.27 411.82" style="fill:#FFC727"></polygon><g style="opacity:0.4"><polygon points="304.27 411.82 284.42 411.82 254.85 262.75 304.27 262.75 304.27 411.82"></polygon></g><rect x="117.11" y="262.75" width="39.92" height="149.07" style="fill:#FFC727"></rect><rect x="117.11" y="262.75" width="39.92" height="149.07" style="opacity:0.2"></rect><rect x="304.27" y="262.75" width="39.92" height="149.07" style="fill:#FFC727"></rect><rect x="304.27" y="262.75" width="39.92" height="149.07" style="opacity:0.2"></rect><rect x="157.03" y="335.32" width="147.25" height="76.5" style="fill:#FFC727"></rect><rect x="157.03" y="335.32" width="147.25" height="76.5" style="opacity:0.2"></rect><rect x="157.03" y="302.25" width="147.25" height="33.38" style="fill:#FFC727"></rect><rect x="157.03" y="302.25" width="147.25" height="33.38" style="opacity:0.2"></rect><path d="M126.89,262.75l15.07-.27,15.07-.19h.45v.46l.17,17.45.06,17.44c0,11.63.09,23.26,0,34.89s0,23.26-.2,34.89-.26,23.26-.5,34.89q-.37-17.44-.51-34.89c-.15-11.63-.16-23.26-.2-34.89s0-23.26,0-34.89l.06-17.44.17-17.45.46.46L142,263Z" style="fill:#263238"></path><path d="M304.27,262.75c.31,11.67.46,23.35.58,35l.17,35-.17,35-.21,17.51-.37,17.51-.37-17.51-.21-17.51-.17-35,.18-35C303.82,286.1,304,274.42,304.27,262.75Z" style="fill:#263238"></path><path d="M304.27,335.32c-12.91.31-25.83.46-38.74.58l-38.74.17-31-.17-19.37-.21L157,335.32,176.4,335l19.37-.21,31-.17,38.74.18C278.44,334.87,291.36,335,304.27,335.32Z" style="fill:#263238"></path><path d="M304.27,302.25c-12.91.31-25.83.46-38.74.58l-38.74.17-31-.17-19.37-.21L157,302.25l19.37-.37,19.37-.21,31-.17,38.74.18C278.44,301.8,291.36,301.94,304.27,302.25Z" style="fill:#263238"></path><polygon points="72.06 411.82 71.08 423.9 68.79 451.8 58.27 451.8 55.97 423.9 54.99 411.82 72.06 411.82" style="fill:#c7c7c7"></polygon><polygon points="54.99 411.82 72.06 411.82 71.08 423.9 55.97 423.9 54.99 411.82" style="fill:#a6a6a6"></polygon><polygon points="145.6 411.82 144.62 423.9 142.33 451.8 131.81 451.8 129.51 423.9 128.53 411.82 145.6 411.82" style="fill:#c7c7c7"></polygon><polygon points="128.53 411.82 145.6 411.82 144.62 423.9 129.51 423.9 128.53 411.82" style="fill:#a6a6a6"></polygon><polygon points="259.85 411.82 258.87 423.9 256.58 451.8 246.06 451.8 243.76 423.9 242.78 411.82 259.85 411.82" style="fill:#c7c7c7"></polygon><polygon points="242.78 411.82 259.85 411.82 258.87 423.9 243.76 423.9 242.78 411.82" style="fill:#a6a6a6"></polygon><polygon points="333.41 411.82 332.43 423.9 330.13 451.8 319.61 451.8 317.32 423.9 316.33 411.82 333.41 411.82" style="fill:#c7c7c7"></polygon><polygon points="333.41 411.82 332.43 423.9 317.32 423.9 316.33 411.82 333.41 411.82" style="fill:#a6a6a6"></polygon><g style="opacity:0.2"><path d="M131.31,246.38a.78.78,0,0,0,0,1.55A.78.78,0,0,0,131.31,246.38Z"></path><path d="M132.64,341.29a.78.78,0,0,0,0,1.55A.78.78,0,0,0,132.64,341.29Z"></path><path d="M84.37,199a1.34,1.34,0,0,0-.12-.24.36.36,0,0,0-.6,0l-.12.24C83.09,200,84.81,200,84.37,199Z"></path><path d="M99.68,343.25l-.12-.24a.36.36,0,0,0-.6,0,1.34,1.34,0,0,0-.12.24C98.4,344.17,100.12,344.17,99.68,343.25Z"></path><path d="M138,251.11a.6.6,0,0,0,0,1.19A.6.6,0,0,0,138,251.11Z"></path><path d="M240.66,365.38a.78.78,0,0,0,0,1.55A.78.78,0,0,0,240.66,365.38Z"></path><path d="M173.19,385.11a.6.6,0,0,0,0,1.19A.6.6,0,0,0,173.19,385.11Z"></path><path d="M88.15,311.27a.6.6,0,0,0,0,1.19A.6.6,0,0,0,88.15,311.27Z"></path><path d="M166,218.05a.82.82,0,0,0-1.16,0,1.13,1.13,0,0,0-.28,1.12.9.9,0,0,0,1.72,0A1.13,1.13,0,0,0,166,218.05Z"></path><path d="M139.13,336.9a.84.84,0,0,0-1.16,0,1.18,1.18,0,0,0-.28,1.12.9.9,0,0,0,1.73,0A1.17,1.17,0,0,0,139.13,336.9Z"></path><path d="M64.11,386.83a.84.84,0,0,0-1.16,0,1.13,1.13,0,0,0-.28,1.12.9.9,0,0,0,1.72,0A1.16,1.16,0,0,0,64.11,386.83Z"></path><path d="M274.84,204.7a.78.78,0,0,0,0-1.55A.78.78,0,0,0,274.84,204.7Z"></path><path d="M285.05,344.9a.78.78,0,0,0,0-1.55A.78.78,0,0,0,285.05,344.9Z"></path><path d="M246.48,241.35a.78.78,0,0,0,0-1.55A.78.78,0,0,0,246.48,241.35Z"></path><path d="M318.72,337.58a1,1,0,0,0,.12.23.35.35,0,0,0,.6,0,1,1,0,0,0,.12-.23C320,336.66,318.28,336.66,318.72,337.58Z"></path><path d="M328.06,271.43l.12.24a.36.36,0,0,0,.6,0,1.34,1.34,0,0,0,.12-.24C329.34,270.51,327.62,270.51,328.06,271.43Z"></path><path d="M325.61,379.07a1.71,1.71,0,0,0,.13.23.35.35,0,0,0,.6,0l.12-.23C326.9,378.15,325.17,378.15,325.61,379.07Z"></path><path d="M222.82,290.84a.82.82,0,0,0,1.16,0,1.15,1.15,0,0,0,.28-1.12.9.9,0,0,0-1.72,0A1.13,1.13,0,0,0,222.82,290.84Z"></path><path d="M335.49,274.93a.84.84,0,0,0,1.16,0,1.13,1.13,0,0,0,.28-1.12.9.9,0,0,0-1.72,0A1.15,1.15,0,0,0,335.49,274.93Z"></path></g><path d="M106.69,340.28c2.78.17,77.61-20.5,79.9-23,.28-.29-4-16.38-4-16.38,4.9-31.24,10.35-59.72,10.35-59.72L140.52,255l-7.41,51s-9.38,7.69-17.06,14.28c0,0,0,0,0,0-4.73,4.05-8.82,7.68-9.67,8.84C104.16,332.19,103.91,340.13,106.69,340.28Z" style="fill:#f7a9a0"></path><path d="M106.23,340.8c2.85.18,79.31-20.9,81.65-23.48.28-.29-2.1-7.1-4-16.73-.25-1.26,1.47-9.27,2.18-17.67l-52,11.79-.81,11.1s-9.59,7.85-17.44,14.58c0,0,0,0,0,0-4.83,4.14-9,7.85-9.88,9C103.65,332.54,103.39,340.65,106.23,340.8Z" style="fill:#dbdbdb"></path><path d="M173.82,317.48a12,12,0,0,1-.59-3,13,13,0,0,1,.94-6.05,12.28,12.28,0,0,1,3.76-4.89,14.83,14.83,0,0,1,5.61-2.55c.11,0,.14.15,0,.18-3.79.89-7,4.27-8.37,7.85a12.38,12.38,0,0,0-.71,5.56,13.11,13.11,0,0,0,.57,2.7,11.86,11.86,0,0,0,.5,1.29c.19.42.42.72.27,1.2a.46.46,0,0,1-.56.27C174.44,319.79,174.05,318.2,173.82,317.48Z" style="opacity:0.2"></path><path d="M111.66,325.46a9.5,9.5,0,0,1,5.55-1.32,24.46,24.46,0,0,1,6,.94,24,24,0,0,1,5.53,2.31,25.82,25.82,0,0,1,2.45,1.61,10,10,0,0,1,2.22,2,.18.18,0,0,1-.22.26,26.07,26.07,0,0,1-2.2-1.45,29.07,29.07,0,0,0-2.55-1.43,31,31,0,0,0-5.31-2.08,18.36,18.36,0,0,0-11.12-.11A.41.41,0,0,1,111.66,325.46Z" style="opacity:0.2"></path><path d="M135.35,302.07c12.38-2.68,44.15-9.62,47.64-10.47.11,0,.14.15,0,.18-12.16,3.61-44,10.31-47.58,10.8A.26.26,0,0,1,135.35,302.07Z" style="opacity:0.2"></path><path d="M181.36,289.7a.63.63,0,0,1-.12-.21l-.06-.26-.09-.49c-.07-.34-.13-.69-.17-1-.08-.69-.14-1.37-.17-2.06,0-.09.15-.11.16,0q.17,1,.39,2c.07.33.13.65.19,1,0,.17.08.35.11.52a1.06,1.06,0,0,1,0,.5A.17.17,0,0,1,181.36,289.7Z" style="opacity:0.2"></path><path d="M176.85,290.8a.63.63,0,0,1-.12-.21,2,2,0,0,1,0-.26c0-.16-.07-.32-.1-.49-.07-.34-.13-.69-.17-1-.08-.68-.14-1.37-.17-2.06,0-.09.15-.11.16,0q.16,1,.39,2c.07.33.13.66.2,1s.07.35.11.52a1.2,1.2,0,0,1,0,.5A.17.17,0,0,1,176.85,290.8Z" style="opacity:0.2"></path><path d="M172.34,291.9a.55.55,0,0,1-.12-.21,2.21,2.21,0,0,1-.05-.25c0-.17-.07-.33-.1-.49-.07-.35-.13-.7-.17-1.05-.08-.68-.13-1.37-.17-2.06,0-.09.15-.11.17,0,.1.68.23,1.35.38,2,.07.33.13.66.2,1s.07.35.11.52a1.06,1.06,0,0,1,0,.5A.18.18,0,0,1,172.34,291.9Z" style="opacity:0.2"></path><path d="M167.84,293a.57.57,0,0,1-.13-.21c0-.08,0-.17-.05-.25s-.07-.33-.1-.49c-.07-.35-.13-.7-.17-1.05-.08-.68-.13-1.37-.17-2.05,0-.1.15-.12.17,0,.1.67.24,1.34.38,2,.07.32.13.65.2,1s.07.35.11.52a1.07,1.07,0,0,1,0,.5A.17.17,0,0,1,167.84,293Z" style="opacity:0.2"></path><path d="M163.33,294.1a.63.63,0,0,1-.13-.2c0-.09,0-.18,0-.26s-.07-.33-.1-.49c-.07-.35-.13-.7-.17-1-.08-.68-.13-1.37-.17-2.05,0-.1.15-.12.17,0,.1.67.24,1.34.38,2,.07.32.13.65.2,1s.07.35.11.52a1.07,1.07,0,0,1,0,.5A.17.17,0,0,1,163.33,294.1Z" style="opacity:0.2"></path><path d="M158.82,295.2a.69.69,0,0,1-.13-.2c0-.09,0-.18-.05-.26s-.07-.33-.1-.49c-.07-.35-.12-.7-.17-1.05-.08-.68-.13-1.37-.17-2.05,0-.1.15-.12.17,0,.11.67.24,1.34.38,2,.07.32.13.65.2,1s.07.35.11.52a1.07,1.07,0,0,1,0,.5A.17.17,0,0,1,158.82,295.2Z" style="opacity:0.2"></path><path d="M154.31,296.3a.51.51,0,0,1-.12-.2c0-.09,0-.18-.06-.26s-.07-.33-.1-.49c-.06-.35-.12-.7-.17-1.05-.08-.68-.13-1.36-.17-2.05a.09.09,0,0,1,.17,0c.11.67.24,1.34.38,2,.07.32.13.65.2,1,0,.17.07.34.11.51a1.07,1.07,0,0,1,0,.5A.17.17,0,0,1,154.31,296.3Z" style="opacity:0.2"></path><path d="M149.8,297.4a.51.51,0,0,1-.12-.2,2.44,2.44,0,0,1-.06-.26c0-.16-.06-.33-.1-.49-.06-.35-.12-.69-.16-1.05-.09-.68-.14-1.36-.18-2,0-.1.16-.12.17,0,.11.67.24,1.34.38,2,.07.32.14.65.2,1,0,.17.07.34.11.51a1.07,1.07,0,0,1,0,.5A.17.17,0,0,1,149.8,297.4Z" style="opacity:0.2"></path><path d="M145.29,298.5a.51.51,0,0,1-.12-.2,2.44,2.44,0,0,1-.06-.26c0-.16-.06-.33-.1-.49-.06-.35-.12-.69-.16-1-.09-.69-.14-1.37-.18-2.06,0-.1.16-.12.17,0,.11.67.24,1.34.38,2,.07.33.14.65.2,1,0,.17.07.34.11.51a1.07,1.07,0,0,1,0,.5A.16.16,0,0,1,145.29,298.5Z" style="opacity:0.2"></path><path d="M140.78,299.61a.63.63,0,0,1-.12-.21l-.06-.26-.09-.49c-.07-.35-.13-.69-.17-1-.09-.69-.14-1.37-.18-2.06,0-.1.16-.12.17,0,.11.67.24,1.34.38,2,.07.33.14.65.2,1,0,.17.08.34.11.52a1,1,0,0,1,0,.49A.17.17,0,0,1,140.78,299.61Z" style="opacity:0.2"></path><path d="M136.27,300.71a.63.63,0,0,1-.12-.21l-.06-.26-.09-.49c-.07-.35-.13-.69-.17-1-.08-.69-.14-1.37-.18-2.06,0-.09.16-.11.17,0,.11.68.24,1.34.38,2,.07.33.14.65.2,1,0,.17.08.34.11.52a1.06,1.06,0,0,1,0,.5A.17.17,0,0,1,136.27,300.71Z" style="opacity:0.2"></path><path d="M186.73,283.2l-54,8s11.7-66,16.8-88.52c4-17.52,27.09-25.4,43.91-11,22.48,19.22,32.49,29.51,43,39.84l2.6-1.66,31.7,4.59s-3.54,37.81-46.58,43.46c-15.55,2-32.92-17-33-16.45C190.82,263.3,186.73,283.2,186.73,283.2Z" style="fill:#455a64"></path><path d="M191,261.62c.55-3.45.71-7,1.07-10.47s.71-6.73,1.05-10.09c.69-6.8,1.47-13.6,2.07-20.41.34-3.82.55-7.65.78-11.48,0-.09.15-.09.15,0q0,5.33-.15,10.65c.12-.64.23-1.28.37-1.92.37-1.73.78-3.46,1.19-5.18,0-.07.12,0,.1,0-.34,1.72-.68,3.43-1.06,5.13-.18.85-.41,1.7-.62,2.55a238.41,238.41,0,0,1-2.61,29.71c-.61,3.87-1.54,7.68-2.16,11.54C191.12,261.79,190.94,261.74,191,261.62Z" style="fill:#263238"></path><path d="M182.77,274.38c1.31-4.6,3.68-18,4.57-22.69,1.81-9.44,3.19-18.93,4.33-28.46.65-5.39,1.14-10.78,1.61-16.19,0,0,.06,0,.06,0-.27,9.56-1.15,19.12-2.37,28.6s-6.56,35.69-8,38.79C182.9,274.54,182.74,274.5,182.77,274.38Z" style="fill:#263238"></path><path d="M198.81,212.37c6.87,6.57,13.83,13.07,20.72,19.62q5.22,5,10.42,10c1.63,1.57,3.24,3.17,4.9,4.71a11.15,11.15,0,0,0,5.37,3,34.24,34.24,0,0,0,7.16.28c2.73,0,5.47,0,8.2-.09.12,0,.12.19,0,.19-2.43.09-4.86.27-7.29.4a61.48,61.48,0,0,1-6.65.22,10.4,10.4,0,0,1-5.53-1.75,39,39,0,0,1-4.82-4.35q-10.42-10.19-20.76-20.47c-3.92-3.89-7.82-7.81-11.76-11.68C198.75,212.38,198.79,212.35,198.81,212.37Z" style="fill:#263238"></path><path d="M185.69,275.6c-3.27.38-6.51,1.08-9.75,1.64s-6.5,1.11-9.75,1.65c-6.48,1.1-28.73,4.21-30.5,4.17-.11,0-.12-.17,0-.21,1.5-.51,16-2.91,19.22-3.41,6.51-1,13-1.78,19.57-2.64,1.87-.24,3.74-.44,5.61-.67s3.74-.39,5.6-.71C185.78,275.4,185.8,275.59,185.69,275.6Z" style="fill:#263238"></path><path d="M265.63,250.52c-5.67,11-17.39,24.2-41.41,27.35-10.95,1.44-22.8-7.56-28.89-12.83Z" style="opacity:0.1"></path><path d="M166.25,461.44c2.81.44,80.93-13.26,83.52-15.6.3-.27-.87-7.34-2.43-17-.91-5.7-2.54-12.69-4.39-19.86-4.94-19-11.63-39.24-11.63-39.24l-51.12,11,12.12,36.12,4.16,12.37s-10.3,6.89-18.75,12.85l0,0c-5.21,3.66-9.72,6.95-10.7,8C164.47,453,163.43,461,166.25,461.44Z" style="fill:#f7a9a0"></path><path d="M166.25,461.44c2.81.44,80.93-13.26,83.52-15.6.3-.27-.87-7.34-2.43-17-.91-5.7-2.54-12.69-4.39-19.86l-49.67,10.73,3.2,9.51s-10.3,6.89-18.75,12.85l0,0c-5.21,3.66-9.72,6.95-10.7,8C164.47,453,163.43,461,166.25,461.44Z" style="fill:#dbdbdb"></path><path d="M235.75,444.66a12.21,12.21,0,0,1-.3-3.07,13,13,0,0,1,1.51-5.93,12.34,12.34,0,0,1,4.21-4.52,14.88,14.88,0,0,1,5.83-2c.11,0,.13.16,0,.18-3.86.52-7.42,3.57-9.08,7a12.33,12.33,0,0,0-1.23,5.47,12.65,12.65,0,0,0,.31,2.74,9.93,9.93,0,0,0,.37,1.32c.15.45.35.77.15,1.22a.45.45,0,0,1-.58.22C236.15,447,235.91,445.4,235.75,444.66Z" style="opacity:0.2"></path><path d="M173.11,446.68a9.39,9.39,0,0,1,5.66-.78,24.14,24.14,0,0,1,5.9,1.51,23.51,23.51,0,0,1,5.28,2.82,25.35,25.35,0,0,1,2.28,1.83,9.94,9.94,0,0,1,2,2.18.17.17,0,0,1-.23.24,23.14,23.14,0,0,1-2.06-1.64,28.64,28.64,0,0,0-2.4-1.68,31.13,31.13,0,0,0-5.09-2.57,18.45,18.45,0,0,0-11.06-1.17A.4.4,0,0,1,173.11,446.68Z" style="opacity:0.2"></path><path d="M196.15,427c12.39-2.65,44.17-9.54,47.66-10.39.11,0,.14.15,0,.18-12.17,3.59-44,10.24-47.6,10.73A.26.26,0,0,1,196.15,427Z" style="opacity:0.2"></path><path d="M242.18,414.73a.51.51,0,0,1-.12-.2,2.38,2.38,0,0,1-.05-.26c0-.16-.07-.33-.1-.49-.07-.35-.13-.69-.17-1-.08-.68-.13-1.36-.17-2.05,0-.1.16-.12.17,0,.11.67.24,1.34.38,2,.07.33.13.65.2,1,0,.17.07.34.11.52a1.16,1.16,0,0,1,0,.49A.16.16,0,0,1,242.18,414.73Z" style="opacity:0.2"></path><path d="M237.67,415.83a.63.63,0,0,1-.12-.21l-.06-.26-.09-.49c-.07-.34-.13-.69-.17-1-.08-.68-.13-1.37-.17-2.06a.09.09,0,0,1,.17,0c.11.68.24,1.35.38,2,.07.33.13.66.2,1s.07.35.1.52a1.06,1.06,0,0,1,0,.5A.17.17,0,0,1,237.67,415.83Z" style="opacity:0.2"></path><path d="M233.16,416.92a.51.51,0,0,1-.12-.2l-.06-.26-.09-.49c-.07-.35-.13-.7-.17-1.05-.08-.68-.13-1.37-.17-2.05,0-.1.15-.12.17,0,.1.67.24,1.34.38,2,.07.32.13.65.2,1,0,.17.07.34.1.51a1.07,1.07,0,0,1,0,.5A.16.16,0,0,1,233.16,416.92Z" style="opacity:0.2"></path><path d="M228.65,418a.63.63,0,0,1-.12-.21,2,2,0,0,1-.06-.26l-.09-.49c-.07-.35-.13-.69-.17-1-.08-.69-.13-1.37-.17-2.06,0-.1.15-.12.17,0,.1.67.23,1.34.38,2,.07.33.13.65.19,1,0,.17.08.34.11.52a1.06,1.06,0,0,1,0,.5A.17.17,0,0,1,228.65,418Z" style="opacity:0.2"></path><path d="M224.14,419.11a.55.55,0,0,1-.12-.21,2.27,2.27,0,0,1-.06-.25l-.09-.49c-.07-.35-.13-.7-.17-1.05-.08-.68-.13-1.37-.17-2.06,0-.09.15-.11.17,0,.1.68.23,1.35.38,2,.06.32.13.65.19,1s.08.35.11.52a1.07,1.07,0,0,1,0,.5A.17.17,0,0,1,224.14,419.11Z" style="opacity:0.2"></path><path d="M219.63,420.2a.51.51,0,0,1-.12-.2,2.44,2.44,0,0,1-.06-.26c0-.16-.06-.33-.1-.49-.06-.35-.12-.7-.16-1.05-.08-.68-.13-1.36-.17-2.05,0-.1.15-.12.17,0,.1.67.23,1.34.38,2,.06.32.13.65.19,1,0,.17.07.34.11.51a1.07,1.07,0,0,1,0,.5A.17.17,0,0,1,219.63,420.2Z" style="opacity:0.2"></path><path d="M215.12,421.3a.63.63,0,0,1-.12-.21,2,2,0,0,1-.06-.26c0-.16-.06-.32-.1-.49-.06-.34-.12-.69-.16-1-.08-.69-.14-1.37-.17-2.06,0-.09.15-.11.17,0,.1.68.23,1.35.37,2,.07.33.14.65.2,1,0,.17.07.35.11.52a1.06,1.06,0,0,1,0,.5A.17.17,0,0,1,215.12,421.3Z" style="opacity:0.2"></path><path d="M210.61,422.39a.51.51,0,0,1-.12-.2c0-.09,0-.18-.06-.26s-.07-.33-.1-.49c-.06-.35-.12-.7-.16-1.05-.09-.68-.14-1.37-.17-2.05,0-.1.15-.12.16,0,.11.67.24,1.34.38,2,.07.32.14.65.2,1s.07.35.11.52a1.07,1.07,0,0,1,0,.5A.17.17,0,0,1,210.61,422.39Z" style="opacity:0.2"></path><path d="M206.1,423.49a.92.92,0,0,1-.13-.21c0-.08,0-.17-.05-.26s-.07-.33-.1-.49c-.06-.35-.12-.69-.16-1-.09-.69-.14-1.37-.17-2.06,0-.1.15-.12.16,0,.11.67.24,1.34.38,2,.07.33.13.65.2,1,0,.17.07.34.11.52a1,1,0,0,1,0,.49C206.35,423.53,206.17,423.59,206.1,423.49Z" style="opacity:0.2"></path><path d="M201.59,424.58a.57.57,0,0,1-.13-.21c0-.08,0-.17-.05-.26s-.07-.32-.1-.49c-.06-.34-.12-.69-.16-1-.09-.68-.14-1.37-.18-2.06,0-.09.16-.11.17,0,.11.68.24,1.35.38,2,.07.33.13.66.2,1s.07.35.11.52a1.07,1.07,0,0,1,0,.5A.17.17,0,0,1,201.59,424.58Z" style="opacity:0.2"></path><path d="M197.08,425.67a.53.53,0,0,1-.13-.2c0-.09,0-.18,0-.26s-.07-.33-.1-.49c-.07-.35-.12-.7-.17-1.05-.08-.68-.13-1.37-.17-2.05,0-.1.16-.12.17,0,.11.67.24,1.34.38,2,.07.32.13.65.2,1,0,.17.07.34.11.51a1.07,1.07,0,0,1,0,.5A.17.17,0,0,1,197.08,425.67Z" style="opacity:0.2"></path><path d="M186.92,417l57.57-12.65S223.38,324.36,224.32,323c3.25-4.62,52.46-7.18,69.67-26,18.23-19.87,1.71-59.13,1.71-59.13l-46.55-6.58s-.46,27.81-2.53,29.69c-1.36,1.24-66.64,15.41-76.69,29.87C154.56,313,186.92,417,186.92,417Z" style="fill:#455a64"></path><path d="M165.79,298.82a23.39,23.39,0,0,1,3.48-6.75,26.81,26.81,0,0,1,6.07-5.67,92.73,92.73,0,0,1,15.44-8.35,172.16,172.16,0,0,1,16.85-6.55c5.81-1.92,11.71-3.6,17.63-5.15s11.84-2.84,17.78-4.23l2.8-.65c-3.14-1.08-6.27-2.23-9.4-3.36a.15.15,0,0,1,.07-.3A49.37,49.37,0,0,1,254.35,264a.09.09,0,0,1-.06.16c-2.72-.76-5.39-1.63-8-2.54-5.37,1.38-10.72,2.85-16.08,4.3-5.78,1.58-11.55,3.23-17.24,5.14-11.27,3.77-22.46,8.1-32.77,14.09-4.67,2.71-9.05,6-11.51,10.95-2.29,4.58-2.8,9.83-2.68,14.88a150.41,150.41,0,0,0,1.75,16.92c.88,6.37,1.84,12.72,2.92,19.06s7.64,39.05,8.21,40.44c.08.2-.24.34-.34.16-.73-1.33-11.25-48.74-12.12-55.19-.81-5.95-1.67-11.94-2-17.94C164,309.21,164.14,303.81,165.79,298.82Z" style="fill:#263238"></path><path d="M217,316.4a29.65,29.65,0,0,1,5-1.13l5.67-1.17,11.2-2.31c7.17-1.49,14.37-2.88,21.51-4.49,12.18-2.74,25.35-7.31,31.89-18.82a23.59,23.59,0,0,0,2.91-8.59,67.93,67.93,0,0,0,.24-11.14A142.1,142.1,0,0,0,293,246.41c-.35-1.81-.76-3.6-1.2-5.39a.09.09,0,0,1,.17-.05,150.62,150.62,0,0,1,3.69,21.8c.32,3.66.51,7.34.55,11a34,34,0,0,1-1.06,10c-3.5,11.83-15,18.67-26.15,22.08-6.84,2.1-13.94,3.34-20.95,4.77l-22.09,4.53-5.53,1.13c-1.48.3-4.2.37-4.42,2.32a6.11,6.11,0,0,0,.34,2.32c.25,1,.51,1.93.77,2.89.49,1.88,1,3.75,1.49,5.63q2.9,10.94,5.76,21.9c3.85,14.71,4.42,16.8,8.19,31.54.47,1.83.93,3.66,1.4,5.48,0,.1-.12.14-.14.05-4-14.68-4.87-16.68-8.79-31.37q-3-11.09-5.83-22.2-1.41-5.49-2.84-11a22.36,22.36,0,0,1-1.09-4.83A2.72,2.72,0,0,1,217,316.4Z" style="fill:#263238"></path><path d="M187.9,404.05c3.14-.91,6.25-1.89,9.43-2.66s6.36-1.48,9.56-2.16q9.51-2,19.1-3.72c3.6-.63,7.23-1.16,10.83-1.85.09,0,.1.16,0,.18-6.47,1.23-12.89,2.82-19.32,4.27s-12.57,2.89-18.88,4.24c-3.54.76-7.11,1.34-10.67,2C187.81,404.39,187.75,404.09,187.9,404.05Z" style="fill:#263238"></path><path d="M285.66,269a67.18,67.18,0,0,1-7.75-3.83c-2.09-1.17-4.23-2.37-5.53-4.45-2.54-4.07-2.18-9.35-1.31-13.86,0-.1-.16-.14-.19,0-1.16,4.82-3,10.16-.14,14.79a13,13,0,0,0,6,4.79,46.14,46.14,0,0,0,8.82,2.79A.11.11,0,0,0,285.66,269Z" style="fill:#263238"></path><path d="M245.06,124.2s11.12-6.15,21,0,14.59,21.31,12.9,34,8.67,21.11,9.79,30.56-5.08,13.82-7.16,18.78c-2.39,5.68,7.16,25.85-17.14,30.52-30.39,5.85-42-12.84-38.92-28.3,1.52-7.57,5.78-12.95,5.7-19.07s-4.41-11-2.15-18.77,5.25-6.71,6.48-18.91S234.3,126.27,245.06,124.2Z" style="fill:#263238"></path><path d="M264,123.91a37.65,37.65,0,0,1,14.37,17.29,34.82,34.82,0,0,1,2.57,11.06c.32,5-.45,9.62,1.4,14.45,3,7.72,8.89,14.17,8.61,22.77a21.27,21.27,0,0,1-3.66,11.23c-2.62,3.88-6.36,6.95-8.56,11.11-.09.17-.36,0-.28-.15,1.84-3.7,4.81-6.52,7.28-9.83a21.64,21.64,0,0,0,4.49-13.53c-.23-8.18-6.07-14.47-8.8-21.92a26,26,0,0,1-1.21-10.18,36.89,36.89,0,0,0-1.57-12.3A39.72,39.72,0,0,0,263.88,124C263.82,124,263.9,123.86,264,123.91Z" style="fill:#263238"></path><path d="M276.76,216.8a0,0,0,0,1,0,0S276.72,216.8,276.76,216.8Z" style="fill:#263238"></path><path d="M225.65,207.6c.76-3.65,2.68-7,3.44-10.61.92-4.39-.19-8.76-1-13.07-1.19-6.14-1.06-11.94,1.66-17.73,1.75-3.74,3.89-7.24,5.19-11.18a46.13,46.13,0,0,0,2.32-13.21c0-.09.16-.09.16,0a42.08,42.08,0,0,1-4.07,18.84c-1.65,3.45-3.72,6.7-4.67,10.43-1.14,4.48-.7,8.81.09,13.31a50.54,50.54,0,0,1,1.12,9.08,25.39,25.39,0,0,1-2.14,8.95,31.44,31.44,0,0,0,.13,23.19c.05.13-.18.23-.24.09A29.86,29.86,0,0,1,225.65,207.6Z" style="fill:#263238"></path><path d="M289.58,187.7c-.27-6.74-5-11.31-7.81-17.15-2.16-4.41-3.62-9.12-2.91-14,0-.08.16-.07.15,0-.36,7,2.59,13.42,6.49,19.31,2.59,3.92,4.73,7.69,4.75,12.4s-1.82,8.51-4.45,12.34c-1.87,2.72-3.72,5.26-4.51,8.48a34,34,0,0,0-.46,9.82c0,.17-.27.17-.28,0-.45-5.05-.52-9.94,2-14.55C285.69,198.72,289.85,194.55,289.58,187.7Z" style="fill:#263238"></path><path d="M224.48,202.82a41.77,41.77,0,0,1,3.87-6.52c2.58-3.79,3-6.86,2.15-11.36a.09.09,0,0,1,.17,0c1.24,3.7,1.53,6.78-.66,10.19-3.07,4.76-6.07,9.1-6.7,14.79-1.12,10.08,4.58,19.49,13.81,24.6.13.07,0,.25-.12.19-7.75-3.82-13.18-10.73-14.31-18.87A24.13,24.13,0,0,1,224.48,202.82Z" style="fill:#263238"></path><path d="M258.38,179.64c-6.32,19.5-20.82,43.75-31,46.37-6.87,1.78-29.83-14.11-38.34-20.3S202.13,179.13,207,183c7.52,6.05,16.61,13.36,18.66,12.86,2.56-.62,8.13-7.7,24.16-23.26C256.59,166.06,261.07,171.33,258.38,179.64Z" style="fill:#f7a9a0"></path><path d="M190.32,206.52c-3-1.25-18.74-9-22-11.76s-11.95-11.35-10.1-14,4.62-.38,4.62-.38-3.11-4.21-1-6.75,6.29,1.21,6.29,1.21-2.88-4.56-.59-6.94,5.86,2.08,5.86,2.08-2.83-4.05-.12-5.21c3.27-1.4,7.63,6.65,11.43,9.42.86.63,18.38,11.51,18.38,11.51Z" style="fill:#f7a9a0"></path><path d="M173.11,169.56c3.23,5.92,5.66,7.94,11.45,11.17.12.06.05.25-.08.19-6-2.64-9.38-4.75-11.66-11.21C172.71,169.39,173,169.28,173.11,169.56Z" style="fill:#263238"></path><path d="M167.91,174.32c3.89,5.85,6.51,8.07,12.32,11.9.08.05,0,.2-.09.15-6-3.27-9.38-5.45-12.49-11.81C167.5,174.28,167.73,174.06,167.91,174.32Z" style="fill:#263238"></path><path d="M163.17,180.53c4.17,5.39,6.94,7.95,13.06,10.94a.13.13,0,0,1-.1.23c-6.54-2.44-10-5.61-13.11-11C162.81,180.3,162.91,180.19,163.17,180.53Z" style="fill:#263238"></path><path d="M209.49,187.76s-3-7.89-5.08-11.07-14.19-12.15-16.28-9.64c-2.69,3.24,3.28,9.79,6.62,12.62,0,0-6.24,7.48-3,13.12S209.49,187.76,209.49,187.76Z" style="fill:#f7a9a0"></path><path d="M187.68,168.18c-.33,4.72,4.3,8.16,7.34,11.15a.38.38,0,0,1-.08.63c-2.4,3.31-4.83,8.68-3.42,12.76a.1.1,0,0,1-.18.08c-2.11-4.17-.15-9.64,2.72-13.1-3.17-3-7.66-6.66-6.42-11.52C187.65,168.15,187.69,168.15,187.68,168.18Z" style="fill:#263238"></path><path d="M245.32,213.55l-15.15-25.67a189.78,189.78,0,0,1,17.37-15c10.3-7.88,16-4.63,11,12.11A110.76,110.76,0,0,1,245.32,213.55Z" style="fill:#FFC727"></path><path d="M251.38,200c-.89.26-1.25,1.48-.69,2.62a3.4,3.4,0,0,0,.49.74c.44-.88.9-1.82,1.36-2.8A1,1,0,0,0,251.38,200Zm-8-18.26c-1.26-.39-1.6,1.82-1.6,1.82s-.31-2.21-1.58-1.83c-.89.26-1.25,1.48-.69,2.61a5.71,5.71,0,0,0,2.26,2.18,5.74,5.74,0,0,0,2.28-2.15C244.56,183.25,244.22,182,243.33,181.75Z" style="fill:#fff"></path><path d="M258.52,185a111,111,0,0,1-13.19,28.51l-13.5-22.86L257,168.9C260.63,169.49,261.63,174.69,258.52,185Z" style="opacity:0.1"></path><path d="M233.92,185.66c1.34,1.77,2.42,3.76,3.61,5.64s2.26,3.59,3.33,5.41q3.34,5.7,6.44,11.53c0,.06-.08.13-.12.07q-3.5-5.52-6.85-11.11c-1.12-1.86-2.18-3.74-3.24-5.63s-2.34-3.83-3.29-5.84C233.77,185.66,233.87,185.59,233.92,185.66Z" style="fill:#263238"></path><path d="M230.62,241.22l70.45,6s-7.24-33-17.54-59.12c-11-27.93-25.95-20.5-31.24-16.05-6.27,5.26-18.7,25.09-19.62,29-1.53,6.36,3.78,13.62,3.78,13.62Z" style="fill:#FFC727"></path><path d="M243.87,182.1c-.94,1.31-1.87,2.67-2.78,4a6.38,6.38,0,0,0,.63.39,5.74,5.74,0,0,0,2.28-2.15A2.07,2.07,0,0,0,243.87,182.1Zm21.92-.35c-1.26-.39-1.6,1.82-1.6,1.82s-.31-2.21-1.58-1.83c-.89.26-1.25,1.48-.69,2.61a5.71,5.71,0,0,0,2.26,2.18,5.74,5.74,0,0,0,2.28-2.15C267,183.25,266.68,182,265.79,181.75Zm-22.46,35.72c-1.26-.39-1.6,1.82-1.6,1.82s-.31-2.21-1.58-1.83c-.89.26-1.25,1.48-.69,2.62a5.73,5.73,0,0,0,2.26,2.17A5.74,5.74,0,0,0,244,220.1C244.56,219,244.22,217.75,243.33,217.47Zm22.46,0c-1.26-.39-1.6,1.82-1.6,1.82s-.31-2.21-1.58-1.83c-.89.26-1.25,1.48-.69,2.62a5.73,5.73,0,0,0,2.26,2.17,5.74,5.74,0,0,0,2.28-2.15C267,219,266.68,217.75,265.79,217.47Zm22.47,0c-1.27-.39-1.61,1.82-1.61,1.82s-.31-2.21-1.58-1.83c-.88.26-1.25,1.48-.69,2.62a5.73,5.73,0,0,0,2.26,2.17,5.74,5.74,0,0,0,2.28-2.15C289.49,219,289.14,217.75,288.26,217.47ZM232.8,200.59a3.35,3.35,0,0,0-.13.43,10.45,10.45,0,0,0-.27,2.22,3.92,3.92,0,0,0,.37-.59A2.18,2.18,0,0,0,232.8,200.59Zm21.76-.56c-1.26-.39-1.6,1.81-1.6,1.81s-.31-2.21-1.58-1.83c-.89.26-1.25,1.48-.69,2.62A5.65,5.65,0,0,0,253,204.8a5.74,5.74,0,0,0,2.28-2.15C255.8,201.52,255.45,200.3,254.56,200ZM277,200c-1.27-.39-1.61,1.81-1.61,1.81s-.31-2.21-1.58-1.83c-.89.26-1.25,1.48-.69,2.62a5.65,5.65,0,0,0,2.26,2.17,5.74,5.74,0,0,0,2.28-2.15C278.26,201.52,277.91,200.3,277,200ZM232.1,235.75a.91.91,0,0,0-.27-.05l-1,4.63a5.4,5.4,0,0,0,2-2C233.33,237.24,233,236,232.1,235.75Zm22.46,0c-1.26-.39-1.6,1.81-1.6,1.81s-.31-2.2-1.58-1.83c-.89.26-1.25,1.49-.69,2.62a5.65,5.65,0,0,0,2.26,2.17,5.74,5.74,0,0,0,2.28-2.15C255.8,237.24,255.45,236,254.56,235.75Zm22.47,0c-1.27-.39-1.61,1.81-1.61,1.81s-.31-2.2-1.58-1.83c-.89.26-1.25,1.49-.69,2.62a5.65,5.65,0,0,0,2.26,2.17,5.74,5.74,0,0,0,2.28-2.15C278.26,237.24,277.91,236,277,235.75Zm21.39.4a3.69,3.69,0,0,0-.54,1.41s-.31-2.2-1.58-1.83a1.8,1.8,0,0,0-.69,2.62,5.65,5.65,0,0,0,2.26,2.17,6.1,6.1,0,0,0,1.38-1C299,238.48,298.72,237.35,298.42,236.15Z" style="fill:#fff"></path><path d="M258,214.75a59.25,59.25,0,0,0-8.73.28c-1.43.17-2.85.41-4.28.68-.71.14-1.42.25-2.13.36a9,9,0,0,1-2.26.12.05.05,0,0,0,0,.1,13.89,13.89,0,0,0,2.13.24,16,16,0,0,0,2.07-.11c1.46-.16,2.91-.39,4.37-.57,2.94-.36,5.89-.72,8.85-.86A.12.12,0,0,0,258,214.75Z" style="fill:#263238"></path><path d="M264.81,218.23a62.66,62.66,0,0,0-7.09-1.28c-1.2-.14-2.39-.21-3.59-.26l-1.73,0c-.63,0-1.26.08-1.89.07a.06.06,0,0,0,0,.11c.59,0,1.18.15,1.78.22l1.78.18,3.58.39c2.39.23,4.77.48,7.15.8C264.92,218.44,264.93,218.26,264.81,218.23Z" style="fill:#263238"></path><path d="M267.69,171.41c-.11,1.27-4.82,10.11-10.48,10.67-1.85.17-3.26-9.85-3.26-9.85l-.28-.71-3.82-10,11-9.58,1.61-1.29s.86,2.81,1.9,6.33c.05.16.1.32.15.5s.13.38.18.57c.16.52.33,1,.48,1.59s.23.8.34,1.23.22.85.34,1.28A69.7,69.7,0,0,1,267.69,171.41Z" style="fill:#f7a9a0"></path><path d="M264.4,157a21.57,21.57,0,0,1-10.73,14.57l-3.82-10,11-9.58,1.61-1.29S263.36,153.43,264.4,157Z" style="fill:#263238"></path><path d="M232.7,147.06c.25,18.83,11.55,20.81,15.61,20.75,3.69-.05,16.23-.7,17.93-19.46s-7.14-24.59-15.58-24.91S232.45,128.24,232.7,147.06Z" style="fill:#f7a9a0"></path><path d="M265.83,152.8a7.92,7.92,0,0,1-4.54-6.39,20.9,20.9,0,0,1-8.56-6.67c.14.39,1.12,3.25,1.66,4.68C242.13,142.33,238.2,133,238.2,133a21.19,21.19,0,0,0-5.21,7.83s-.2-7.5,3.58-12.58c4.62-6.22,20.53-8.13,28-.22C272.68,136.59,265.83,152.8,265.83,152.8Z" style="fill:#263238"></path><path d="M245.07,142.54a22.3,22.3,0,0,0,6.3,2.21s0,0,0,0a19.15,19.15,0,0,1-9.06-5.29,18.47,18.47,0,0,1-2.7-3.64,12.72,12.72,0,0,1-1.69-4.64c0-.12-.2-.1-.19,0a14.84,14.84,0,0,0,1,4.8,13.42,13.42,0,0,0,2.78,4,15.49,15.49,0,0,0,3.51,2.56" style="fill:#263238"></path><path d="M234.67,144.78c.44-.09.83-.24,1.26-.37a2.2,2.2,0,0,0,1.21-.64.66.66,0,0,0-.07-.82,1.68,1.68,0,0,0-1.69-.25,2.47,2.47,0,0,0-1.47,1A.72.72,0,0,0,234.67,144.78Z" style="fill:#263238"></path><path d="M247.57,143.37a11.41,11.41,0,0,1-1.31-.15,2.11,2.11,0,0,1-1.31-.41.68.68,0,0,1-.07-.82,1.66,1.66,0,0,1,1.61-.55,2.48,2.48,0,0,1,1.63.73A.72.72,0,0,1,247.57,143.37Z" style="fill:#263238"></path><path d="M245,148.31c0-.05.1.06.11.11,0,1.3.32,2.78,1.52,3.13a0,0,0,0,1,0,.07C245.17,151.52,244.83,149.55,245,148.31Z" style="fill:#263238"></path><path d="M246.05,146.88c2.07-.3,2.53,3.87.6,4.14S244.31,147.13,246.05,146.88Z" style="fill:#263238"></path><path d="M246.89,147c.39.2.8.57,1.24.57s.85-.48,1.14-.94c0,0,.06,0,.07,0,.1.8-.12,1.65-1,1.86s-1.41-.45-1.69-1.23C246.63,147.17,246.74,146.93,246.89,147Z" style="fill:#263238"></path><path d="M237.86,149s-.09.07-.08.13c.18,1.28.16,2.79-1,3.34,0,0,0,.08,0,.07C238.25,152.2,238.24,150.2,237.86,149Z" style="fill:#263238"></path><path d="M236.57,147.79c-2.1.06-1.81,4.24.13,4.18S238.32,147.73,236.57,147.79Z" style="fill:#263238"></path><path d="M235.71,148.12c-.31.24-.61.67-1,.72s-.82-.37-1.14-.78c0,0-.07,0-.06.05,0,.8.35,1.62,1.13,1.72s1.18-.63,1.31-1.44C236,148.24,235.84,148,235.71,148.12Z" style="fill:#263238"></path><path d="M246.65,158.81c-.25.36-.48.83-.94.95a3.46,3.46,0,0,1-1.43-.08,0,0,0,0,0,0,.08,1.74,1.74,0,0,0,1.74.4,1.4,1.4,0,0,0,.81-1.31C246.79,158.77,246.69,158.76,246.65,158.81Z" style="fill:#263238"></path><path d="M240.7,154.8s0,2,.07,2.87c0,.09.24.1.55.08h0a4.37,4.37,0,0,0,4-2.12.09.09,0,0,0-.15-.11,6.57,6.57,0,0,1-3.81,1.6c-.1-.24.17-3.35,0-3.34a7.7,7.7,0,0,0-2,.72c0-4.08.55-8.14.45-12.2a.13.13,0,0,0-.25,0,65.86,65.86,0,0,0-1,13.12C238.57,155.91,240.35,155,240.7,154.8Z" style="fill:#263238"></path><path d="M241.4,157.3a5.31,5.31,0,0,0,2.2,1.54,2.39,2.39,0,0,0,1.45,0c1-.33,1-1.29.78-2.1a5.63,5.63,0,0,0-.53-1.23A6.88,6.88,0,0,1,241.4,157.3Z" style="fill:#263238"></path><path d="M243.6,158.84a2.39,2.39,0,0,0,1.45,0c1-.33,1-1.29.78-2.1A2.46,2.46,0,0,0,243.6,158.84Z" style="fill:#ff9bbc"></path><path d="M248,156.13a6.45,6.45,0,0,1-5.91-6.93h0a6.45,6.45,0,1,1,7.51,6.86A6.52,6.52,0,0,1,248,156.13Zm-5-6.86a5.58,5.58,0,1,0,6-5.13,5.82,5.82,0,0,0-1.39.07A5.58,5.58,0,0,0,243,149.27Z" style="fill:#455a64"></path><path d="M234.42,156.81c-2.64.14-4.94-2.63-5.13-6.18a7.73,7.73,0,0,1,1.12-4.57,4,4,0,0,1,6.87-.36,7.69,7.69,0,0,1,1.59,4.42c.18,3.36-1.6,6.23-4,6.64A2.68,2.68,0,0,1,234.42,156.81Zm-3.28-10.28a6.79,6.79,0,0,0-1,4.06c.17,3.07,2.06,5.48,4.23,5.36s3.8-2.71,3.63-5.78a6.89,6.89,0,0,0-1.4-3.93,3.43,3.43,0,0,0-2.82-1.43,1.84,1.84,0,0,0-.33,0A3.56,3.56,0,0,0,231.14,146.53Z" style="fill:#455a64"></path><path d="M242.36,149.93l.51-.69c-1-.77-3.33-1.75-4.81,0l.66.55C240,148.23,242.26,149.86,242.36,149.93Z" style="fill:#455a64"></path><path d="M269.68,150.2l.74-.44c-.2-.34-2-3.39-4-3.6s-11.85,1.37-12.33,1.44l.12.85c3.29-.49,10.72-1.58,12.12-1.43S269.18,149.36,269.68,150.2Z" style="fill:#455a64"></path><path d="M261.85,149.07s3.5-6.26,6.3-5.07.58,10-2.42,11.45a3.19,3.19,0,0,1-4.42-1.28Z" style="fill:#f7a9a0"></path><path d="M267.45,146.5a0,0,0,0,1,0,.08c-2.1,1.11-3.05,3.25-3.64,5.43a1.76,1.76,0,0,1,2.57-.74c.06,0,0,.13-.05.12a2,2,0,0,0-2.08.9,10.14,10.14,0,0,0-.85,1.83c-.08.21-.45.14-.39-.09a.43.43,0,0,1,0-.05C262.71,151.2,264.49,147.08,267.45,146.5Z" style="fill:#263238"></path><path d="M173.06,167.72a43,43,0,0,0-7.46-5c-3.55-1.7-11.44-4.71-12.79-5.63l-2.45-.51L159,206.33,180.09,215l37.84-3.63-6-46.92-2.49-.55s-4.83.63-8.77.79S183.41,163.3,173.06,167.72Z" style="fill:#fff"></path><path d="M173.06,167.72a37.25,37.25,0,0,0-9.77-5.92c-3-1.29-7.85-3.09-10.51-4.52l-2.45-.5.19-.19c0-.12,9.09,50.62,8.62,49.47-.19,0,21.73,8.76,20.92,8.59,9.42-.94,28.41-2.72,37.84-3.6l-.28.36-5.93-46.93.16.18-2.48-.56h.07c-6.09,1-12.25.7-18.38.58-6.1.08-12.31.7-18,3Zm0,0c5.66-2.42,11.89-3.13,18-3.28,6.14,0,12.24.23,18.33-.75h.07l2.48.56.15,0,0,.15,6.14,46.9,0,.33c-9.6.94-28.56,2.79-38.16,3.68H180l-.08,0-21.05-8.72-.15-.06c-.11,0-8.47-49.8-8.56-49.89l0-.25.24.06,2.45.52,0,0c6.71,3.44,14.47,5.48,20.17,10.71Z" style="fill:#dbdbdb"></path><polygon points="183.15 216.73 175.9 169.01 213.53 164.25 219.88 212.77 183.15 216.73" style="fill:#37474f"></polygon><polygon points="183.15 216.73 177.86 216.17 170.56 168.45 175.9 169.01 183.15 216.73" style="fill:#263238"></polygon><polygon points="177.86 216.17 170.56 168.45 149.36 156.03 158.37 206.68 177.86 216.17" style="fill:#37474f"></polygon><path d="M275.84,189.41c-6.91,37.79-19.63,58.87-28.74,61.76-10.15,3.22-10.29-31.85-9.1-32.93.91-.83,13.21-18.16,24.91-34C273.65,169.74,277.94,177.9,275.84,189.41Z" style="fill:#f7a9a0"></path><path d="M245.82,251.39c-6.74.45-12.48-5.72-32.89-28.07-2.82-3.09,14.57-27.67,17.75-24.52,4,4,15,15.3,16,16.62C254.46,226.59,251,251,245.82,251.39Z" style="fill:#f7a9a0"></path><path d="M240.78,211.42s-5.14-10.61-11.69-18.07c-4.52-5.16-15.63-15.28-35.75-11.46-4.77.91-10.93,5.58-2.6,6.93,5.92,1,10-.21,13.3,1,0,0-7.12,6.88-6,11.62a89.94,89.94,0,0,0,3.74,12.2,18.18,18.18,0,0,0,2.35-.49s3.2,8.06,10.51,12Z" style="fill:#f7a9a0"></path><path d="M224,189.12c-3.57-.48-11.14-1.36-17.59.08-7.16,1.59-20.52,6.59-19.29,11.86.9,3.87,6.17,2.41,6.17,2.41s-5.09,3.23-3.51,6.54c1.44,3,5.45,1.65,5.45,1.65s-2.75,2.49-.8,5.13c2.34,3.18,7.72-2.56,12.87-1.39C208.45,215.66,224,189.12,224,189.12Z" style="fill:#f7a9a0"></path><path d="M209.35,196.48a29.21,29.21,0,0,0-16,6.84c-.11.1-.09.24,0,.17a71.63,71.63,0,0,1,16-6.94S209.38,196.48,209.35,196.48Z" style="fill:#263238"></path><path d="M210.74,203.75c-2.94.4-10.8,3.05-15.58,7.79-.11.1-.08.24,0,.16a77.12,77.12,0,0,1,15.56-7.88S210.78,203.75,210.74,203.75Z" style="fill:#263238"></path><path d="M251.23,233.91c-.59-5.21-1.25-10.68-3.59-15.41-2.79-4.48-6.55-8.38-10.16-12.23-1.27-2.24-2.5-4.53-3.89-6.71a44.23,44.23,0,0,0-4.5-6.21,25,25,0,0,1,2.58,2.86,75,75,0,0,1,6.28,9.6c3.74,3.86,7.49,7.72,10.27,12.37,2.33,4.85,2.81,10.42,3,15.73Z" style="fill:#263238"></path><path d="M271.25,219.81l-20.58-21.57a191.07,191.07,0,0,1,13.53-18.51c8.25-10,14.54-8.13,13.44,9.31A111.14,111.14,0,0,1,271.25,219.81Z" style="fill:#FFC727"></path><path d="M265.79,181.75c-1.26-.39-1.6,1.82-1.6,1.82s-.31-2.21-1.58-1.83l-.06,0-.85,1.07a2.32,2.32,0,0,0,.22,1.52,5.71,5.71,0,0,0,2.26,2.18,5.74,5.74,0,0,0,2.28-2.15C267,183.25,266.68,182,265.79,181.75ZM254.56,200c-.69-.21-1.1.34-1.33.89l1.87,2,.13-.23C255.8,201.52,255.45,200.3,254.56,200Zm20.86,1.81s-.31-2.21-1.58-1.83c-.89.26-1.25,1.48-.69,2.62a5.65,5.65,0,0,0,2.26,2.17l.08-.05c.31-1.48.61-3,.88-4.68C275.64,200.44,275.42,201.84,275.42,201.84Z" style="fill:#fff"></path><path d="M253.82,195.22c1.71,1.43,3.21,3.12,4.79,4.68s3,3,4.48,4.52q4.55,4.8,8.87,9.77c.05.06,0,.15-.09.09q-4.67-4.58-9.2-9.26c-1.5-1.56-3-3.16-4.43-4.75s-3.14-3.2-4.52-5C253.68,195.26,253.76,195.17,253.82,195.22Z" style="fill:#263238"></path><path d="M252,195.47c.59-.92,1.2-1.81,1.83-2.7l.39-.55c.54-1.25,1.1-2.49,1.76-3.68,0,0,.09,0,.07,0a29.25,29.25,0,0,1-1.27,2.86c1-1.35,2-2.68,3.08-3.92,0,0,.09,0,.06.05-1.13,1.85-2.4,3.63-3.61,5.44-.58.88-3.55,5.14-3.51,5.19s1,1,1.07,1.19,0,.11-.07.06l-1.53-1.31S251.51,196.25,252,195.47Z" style="fill:#263238"></path><path d="M268.68,217.12c.92.84,1.8,1.71,2.7,2.56l-.31.06a151,151,0,0,0,4.7-17.62c.43-2,.8-4,1.19-6a74.62,74.62,0,0,1-1.83,12.09,70.76,70.76,0,0,1-3.83,11.95c-.87-1-1.76-2-2.62-3Z" style="fill:#263238"></path><path d="M278.13,200a12.37,12.37,0,0,1-2.67,5.11,24.38,24.38,0,0,1,2.67-5.11Z" style="fill:#263238"></path></g><g id="freepik--character-2--inject-946"><path d="M453.55,450.52c-2.88,1-88.16,2.72-91.37.77-.37-.2-1.76-28.42-1.76-28.42.1-.4-1.32-3.12-3.5-6.89-6.08-10.61-18-29.61-18-29.61l50.61-15.31,20.79,41.65,5.3,10.62s11.62,4.55,21.76,9.08c0,0,0,0,0,0,6.24,2.77,11.68,5.32,12.95,6.27C453.66,441.22,456.42,449.5,453.55,450.52Z" style="fill:#ad6359"></path><path d="M453.55,450.52c-2.88,1-88.16,2.72-91.37.77-.37-.2-1.76-28.42-1.76-28.42.1-.4-1.32-3.12-3.5-6.89l53.44-3.27,5.3,10.62s11.62,4.55,21.76,9.08c0,0,0,0,0,0,6.24,2.77,11.68,5.32,12.95,6.27C453.66,441.22,456.42,449.5,453.55,450.52Z" style="fill:#fff"></path><path d="M453.9,450.84c-3,1.05-88.35,2.51-91.64.51-1.25-.75-2.76-13.9-1.84-28.47l55.05-.88s31.88,14.09,35.26,16.67S456.87,449.79,453.9,450.84Z" style="fill:#FFC727"></path><path d="M362.27,451.35c1.2.72,13.33,1,28.4,1l-28.9-29.49h0l-1.34,0C359.5,437.45,361,450.6,362.27,451.35Z" style="opacity:0.1"></path><path d="M452.62,447.44c-14.32-.1-72.08.82-86.24,1.81-.12,0-.12.08,0,.09,14.19.41,71.94-1,86.25-1.66C452.93,447.66,452.92,447.45,452.62,447.44Z" style="fill:#263238"></path><path d="M445.18,435.69a11.48,11.48,0,0,0-8.5,3.65,11.12,11.12,0,0,0-3.07,7.69.09.09,0,0,0,.17,0,13.32,13.32,0,0,1,11.41-11.16A.09.09,0,0,0,445.18,435.69Z" style="fill:#263238"></path><path d="M420,423.36c-5.73,0-12.34,2.15-15.82,6.9-.14.18.13.37.3.28a79.15,79.15,0,0,1,15.63-6.48A.36.36,0,0,0,420,423.36Z" style="fill:#263238"></path><path d="M424.44,425c-5.73,0-12.34,2.16-15.82,6.91-.13.18.13.37.3.28a79.15,79.15,0,0,1,15.63-6.48A.36.36,0,0,0,424.44,425Z" style="fill:#263238"></path><path d="M428.89,426.65c-5.73,0-12.34,2.16-15.82,6.9-.13.19.13.38.3.29A78.55,78.55,0,0,1,429,427.36.36.36,0,0,0,428.89,426.65Z" style="fill:#263238"></path><path d="M433.34,428.3c-5.73,0-12.34,2.16-15.81,6.9-.14.19.12.37.29.28A80,80,0,0,1,433.45,429,.36.36,0,0,0,433.34,428.3Z" style="fill:#263238"></path><path d="M369.79,435.59c-6.43.13-6.24,10.12.2,10S376.23,435.46,369.79,435.59Z" style="fill:#263238"></path><path d="M425.92,408c-2.95-2.35-6.56.06-8.3,2.59a30.05,30.05,0,0,0-5,14.74.15.15,0,0,0,.18.16.7.7,0,0,0,1,.44c4-2.89,8.7-5.48,11.72-9.52C427.37,414,428.7,410.19,425.92,408Zm-6.82,12.3c-2,1.47-4,2.84-5.85,4.38a89.81,89.81,0,0,1,3.08-8.55,32.06,32.06,0,0,1,2-3.9c1.21-1.91,6.75-6.8,7.43-.57C426.16,415.05,421.42,418.51,419.1,420.26Z" style="fill:#263238"></path><path d="M398.46,427.65c5,.69,10.13-.82,15-1.67a.7.7,0,0,0,.42-1.05.15.15,0,0,0,0-.24,30.11,30.11,0,0,0-14-6.81c-3-.53-7.28.35-7.67,4.1C391.89,425.53,395.55,427.26,398.46,427.65Zm-3.51-3.2c-4-4.84,3.41-5.37,5.62-4.89a33.44,33.44,0,0,1,4.2,1.29,90.58,90.58,0,0,1,8.25,3.8c-2.42.27-4.8.74-7.22,1.1C402.93,426.17,397.13,427.13,395,424.45Z" style="fill:#263238"></path><path d="M353.05,415.79l56.8-8.61s-27.3-54.42-44.2-83.95c-9.4-16.42-35.11-17.22-47.61,2.45C301.34,352,288.38,376.59,281,390.24l-12.89,1.1,2.78,21.05L313.66,422c16.4,2,27.92-27.24,28.18-26.74C343.92,399.07,353.05,415.79,353.05,415.79Z" style="fill:#263238"></path><path d="M342.15,395.37c-1.62-3.31-2.88-6.82-4.32-10.21s-2.78-6.56-4.16-9.84c-2.79-6.64-5.67-13.24-8.37-19.91-1.52-3.75-2.91-7.54-4.33-11.32,0-.09-.18,0-.15,0q1.65,5.37,3.44,10.68c-.32-.61-.64-1.22-1-1.82-.91-1.63-1.85-3.24-2.8-4.85,0-.06-.13,0-.09.06.87,1.62,1.74,3.23,2.64,4.83.45.8.95,1.59,1.42,2.38a250.28,250.28,0,0,0,11.78,29.11c1.81,3.7,3.93,7.25,5.73,11C342,395.59,342.2,395.48,342.15,395.37Z" style="fill:#37474f"></path><path d="M354.32,405.69c-2.74-4.23-9.26-17-11.59-21.44-4.73-8.94-9.05-18.07-13.14-27.32-2.31-5.23-4.47-10.5-6.61-15.8,0,0-.07,0-.06,0a301.46,301.46,0,0,0,11.21,28.06c4.16,9.18,17.6,33.91,20,36.58C354.24,405.89,354.39,405.8,354.32,405.69Z" style="fill:#37474f"></path><path d="M319.06,348.2c-4.89,8.74-9.9,17.42-14.81,26.14q-3.74,6.62-7.43,13.25c-1.15,2.08-2.28,4.19-3.48,6.25a11.75,11.75,0,0,1-4.48,4.66,35.63,35.63,0,0,1-7.13,2.48c-2.76.81-5.5,1.68-8.28,2.44a.1.1,0,0,0,.06.2c2.47-.67,5-1.24,7.46-1.85a65.64,65.64,0,0,0,6.77-1.83,10.93,10.93,0,0,0,5-3.46,39.6,39.6,0,0,0,3.51-5.87q7.38-13.47,14.6-27c2.74-5.12,5.46-10.27,8.23-15.38C319.12,348.19,319.08,348.17,319.06,348.2Z" style="fill:#37474f"></path><path d="M351.76,407.82c3.41-.62,6.89-.92,10.32-1.36l10.33-1.34c6.86-.89,30.22-4.62,32-5.2a.12.12,0,0,0,0-.22c-1.67-.06-17,2-20.41,2.49-6.86,1-13.68,2.22-20.52,3.38-1.95.33-3.9.7-5.85,1.05s-3.89.76-5.85,1A.1.1,0,0,0,351.76,407.82Z" style="fill:#37474f"></path><path d="M387.29,465.88c-1.08-2.86-55.46-68.57-59-69.73-.41-.15-22.69,17.21-22.69,17.21-.89,1.3-45-6-45-6l1.86,52.73L342,454.91s11,5.85,21.08,10.57h0c6.19,2.93,11.67,5.38,13.21,5.72C380.32,472,388.4,468.73,387.29,465.88Z" style="fill:#ad6359"></path><path d="M376.29,471.19c-1.55-.32-7-2.78-13.2-5.71h0C353,460.76,342,454.9,342,454.9l-17.7,1.15L294.6,412.51c6.13.81,10.7,1.26,11,.84,0,0,22.26-17.35,22.67-17.19,3.57,1.15,57.94,66.85,59,69.72S380.32,472.05,376.29,471.19Z" style="fill:#fff"></path><path d="M387.77,466c-1.14-2.93-55.75-68.59-59.41-69.78-1.39-.46-12.33,7-22.78,17.19l35.26,42.28s31.48,15,35.64,15.84S388.91,468.88,387.77,466Z" style="fill:#FFC727"></path><path d="M384.36,467.19c-9.42-10.78-46.42-55.15-54.91-66.53-.07-.09,0-.14.07-.06,9.57,10.49,46.2,55.16,55,66.44C384.73,467.28,384.56,467.42,384.36,467.19Z" style="fill:#263238"></path><path d="M370.6,469.22a11.49,11.49,0,0,1-2.79-8.82,11.21,11.21,0,0,1,3.83-7.35c.07-.05.17.07.11.14a13.3,13.3,0,0,0-1,15.92A.09.09,0,0,1,370.6,469.22Z" style="fill:#263238"></path><path d="M344.81,458.18c-3.72-4.35-6.42-10.75-5.09-16.49,0-.22.37-.14.41,0a79.21,79.21,0,0,0,5.29,16.07A.36.36,0,0,1,344.81,458.18Z" style="fill:#263238"></path><path d="M349,460.48c-3.73-4.36-6.42-10.76-5.1-16.49.06-.22.37-.15.41,0a79.21,79.21,0,0,0,5.29,16.07A.36.36,0,0,1,349,460.48Z" style="fill:#263238"></path><path d="M353.12,462.78c-3.72-4.36-6.42-10.76-5.09-16.49.05-.22.36-.15.41,0a78.59,78.59,0,0,0,5.29,16.07A.36.36,0,0,1,353.12,462.78Z" style="fill:#263238"></path><path d="M357.27,465.07c-3.72-4.35-6.41-10.75-5.09-16.48.05-.23.37-.15.41,0a79.41,79.41,0,0,0,5.29,16.07A.36.36,0,0,1,357.27,465.07Z" style="fill:#263238"></path><path d="M321.33,412.16c-4.1-5,3.59-11.33,7.7-6.37S325.43,417.12,321.33,412.16Z" style="fill:#263238"></path><path d="M343.18,467c1.09-4.93,0-10.16-.43-15.1a.7.7,0,0,0-1-.5.16.16,0,0,0-.24,0,30,30,0,0,0-7.94,13.37c-.78,3-.25,7.28,3.46,8C340.52,473.37,342.54,469.87,343.18,467Zm-3.48,3.23c-5.16,3.55-5.07-3.83-4.41-6a31.83,31.83,0,0,1,1.63-4.08,90.16,90.16,0,0,1,4.46-7.91c.07,2.44.35,4.85.5,7.29C342.07,462.43,342.54,468.28,339.7,470.23Z" style="fill:#263238"></path><path d="M325.68,438.06c-2.59,2.74-.49,6.54,1.89,8.49a30,30,0,0,0,14.28,6.15.15.15,0,0,0,.17-.17.7.7,0,0,0,.53-1c-2.55-4.25-4.75-9.12-8.52-12.46C331.82,437.11,328.12,435.47,325.68,438.06Zm11.69,7.81c1.3,2.06,2.5,4.18,3.88,6.19a90.37,90.37,0,0,1-8.26-3.78,30.56,30.56,0,0,1-3.72-2.34c-1.81-1.36-6.22-7.29,0-7.45C332.76,438.4,335.81,443.41,337.37,445.87Z" style="fill:#263238"></path><path d="M274.44,390.93s-56.41-6.07-78.73-.06c-31.12,8.38-34.69,45.78-10.72,60,30.37,18,135.73,8,135.73,8l-29.41-49.57s-44.14-8.23-83.7-5l79.83,9.88Z" style="fill:#263238"></path><path d="M293.35,412.62a2,2,0,0,1-.07-.26l-.06-.22c0-.17-.09-.34-.14-.51-.11-.35-.24-.68-.38-1s-.28-.67-.44-1a8.64,8.64,0,0,0-.57-.91s-.06,0-.08-.05l-.05,0s-.05,0-.08,0l-.07,0c-4.85-.77-37.73-4.5-42.61-4.9S239,403,234,402.72a264.27,264.27,0,0,0-29.52.12c-.92.05-1.84.13-2.76.21-.2-.06-.41-.09-.61-.14-.48-.1-.95-.21-1.43-.29-.9-.15-1.8-.25-2.7-.37-1.87-.23-3.74-.36-5.61-.66-.11,0-.15.17,0,.19,1.88.37,3.74.89,5.62,1.25l1.63.31c-3.6.36-7.18.82-10.76,1.34-.12,0-.11.21,0,.2,4.88-.53,9.81-.79,14.72-.91s9.74-.21,14.62-.12c9.86.2,19.72.74,29.56,1.44,5.53.4,39.05,4.3,44.59,4.31h.06l.17.41.51.95a10.2,10.2,0,0,0,.54.9l.29.43.14.21a1.77,1.77,0,0,1,.16.22C293.24,412.85,293.43,412.75,293.35,412.62Z" style="fill:#37474f"></path><path d="M305.61,455.77c-1.73-2.85-3.24-5.91-4.85-8.86l-4.83-8.86c-3.23-5.89-14.73-25.68-15.84-27.06-.07-.08-.2,0-.17.13.57,1.54,7.79,14.66,9.44,17.59,3.32,5.84,6.78,11.57,10.2,17.33,1,1.65,2,3.27,3,4.91s2,3.24,3,4.93C305.53,456,305.67,455.87,305.61,455.77Z" style="fill:#37474f"></path><path d="M278.3,416.43c-2.93-.64-5.93-1-8.88-1.49s-5.93-1-8.9-1.44q-8.89-1.42-17.81-2.68c-11.85-1.67-23.74-3-35.66-3.7-6.73-.42-13.47-.59-20.21-.84-.14,0-.12.24,0,.24,12,.08,24,1.34,35.92,2.7s23.59,2.87,35.37,4.53l10,1.44c3.37.49,6.75,1.13,10.14,1.45A.11.11,0,0,0,278.3,416.43Z" style="fill:#37474f"></path><path d="M266.88,317c5.25,21.32,17.95,54.44,29.17,54.27,10.24-.16,33.09-18.33,42.66-24.28s-11.9-29.4-17.39-25.61c-8.5,5.88-21.23,16.38-23.38,15.69-2.68-.86-6.08-7.45-21.37-26.89C270.32,302.26,264.65,308,266.88,317Z" style="fill:#ad6359"></path><path d="M331.62,312.38c4.51-1.6,9.56-3.79,14.57-3.7s9.18,6.72,9.18,8.61S353.47,331,348.46,331s-2-9.08-2.18-10.12-.37-2.37-1.32-2.28-17.5,7.95-17.5,7.95Z" style="fill:#ad6359"></path><path d="M331.94,313.07c.28,0,13.71-5.3,18.73-5.21s9.17,6.72,9.17,8.61-1.89,13.72-6.9,13.72-2-9.08-2.18-10.12-.38-2.37-1.32-2.28-17.5,7.95-17.5,7.95Z" style="fill:#ad6359"></path><path d="M351.24,329.55a5.92,5.92,0,0,1-.84-3,10.44,10.44,0,0,1,.18-3.2,16.4,16.4,0,0,0,.61-2.76,5.52,5.52,0,0,0-.7-2.65c-.38-.7-1.12-.46-1.75-.24A24,24,0,0,0,346,319c-1,.47-1.91,1-2.86,1.46a25.76,25.76,0,0,0-2.91,1.6c-.06,0,0,.16.06.13a26.42,26.42,0,0,0,2.55-1.14c.95-.45,1.91-.89,2.87-1.31s1.77-.85,2.67-1.23a2.9,2.9,0,0,1,1.33-.4c.38.09.57,1,.65,1.33a4.73,4.73,0,0,1-.17,2.71,13.62,13.62,0,0,0-.52,2.75,7.17,7.17,0,0,0,.21,2.61,10.58,10.58,0,0,0,1.19,2.16C351.14,329.75,351.31,329.64,351.24,329.55Z" style="fill:#263238"></path><path d="M316,326.23s13.9-12.67,16.79-15.18c5.8-5.05,30.24-15,33.64-15.39s4.64,6.62-11.95,13.88c-8.74,3.82-10.29,8.82-10.13,11.6s2.82,7.95,7.48,7.82,7.7-6.94,12-7.69,1.45,7.1-1.57,11.64a28.67,28.67,0,0,1-12.56,9.8c-4,1.51-16.53,6.89-16.53,6.89Z" style="fill:#ad6359"></path><path d="M357.66,325.68c-1.76,1.36-3.75,3.12-6.07,3.21s-3.94-1.46-5-3.41a8.81,8.81,0,0,1-1.22-6.45,10.85,10.85,0,0,1,3.19-5.24,26.65,26.65,0,0,1,6.33-4.21c.1-.05,0-.19-.1-.15-2.15,1-8.82,3.7-10.16,9.6a9,9,0,0,0,1.3,6.57c1,1.86,2.54,3.65,4.8,3.84,2.76.22,5.13-2,7.11-3.7C357.88,325.67,357.75,325.61,357.66,325.68Z" style="fill:#263238"></path><path d="M316,324.46l20.79,32.26s-33,18.47-42.31,15.5S271.09,342.49,265.29,319s8.6-14.48,14.19-7.23,17.73,24,18.39,23.8S316,324.46,316,324.46Z" style="fill:#FFC727"></path><path d="M313.58,368c-7.51,3.06-14.89,5.29-18.74,4.32l-.33-.09c-9.33-3-23.42-29.72-29.23-53.19a36.84,36.84,0,0,1-1.34-9.65c0-.12,0-.22,0-.34a5.29,5.29,0,0,1,.05-.56.78.78,0,0,1,0-.22c0-.18,0-.35.06-.51Z" style="opacity:0.1"></path><path d="M325.21,353.55c-.65-1.15-1.32-2.29-2-3.43-1.34-2.27-9.39-15.78-12.57-19.89-.08-.11-.25,0-.2.14,2.22,4.72,10.57,18,12,20.17.71,1.12,1.42,2.23,2.14,3.34s1.59,2.15,2.31,3.27c.07.1.25,0,.19-.1C326.39,355.91,325.87,354.69,325.21,353.55Z" style="fill:#263238"></path><path d="M214.32,397.28c.2.22,78.27-2.57,79-3.44,1.06-1.22-11.45-70.53-16.77-83.63-3.42-8.44-17.47-9.83-23.61-3C229.07,333.87,213.62,396.5,214.32,397.28Z" style="fill:#FFC727"></path><path d="M247.19,327.1c3.71,21.73,21.95,62.39,33.84,66.21,13.76,4.43,61.53-10.84,70.91-17.7,3.73-2.74-16.16-26.81-20.8-25.1-19.45,7.16-36.7,10.83-39.2,9.13-3.85-2.62-19.54-25.1-29.74-39.05C249.38,303.07,245.53,317.35,247.19,327.1Z" style="fill:#ad6359"></path><polygon points="394.16 299.2 369.55 283.18 351.56 331.77 376.06 345.09 394.16 299.2" style="fill:#FFC727"></polygon><polygon points="394.16 299.2 369.55 283.18 351.56 331.77 376.06 345.09 394.16 299.2" style="opacity:0.1"></polygon><path d="M391.06,299.13l-20.92-13.39-.88,1.52L355,326.33a47.71,47.71,0,0,1,5,5.47c1.93,2.61,7.52,11,14,11.44Z" style="fill:#fff"></path><path d="M390.11,301.65s-5.56-2.41-8.37-5.07-5.53-5.62-7.81-6.89-4.56-2.6-4.56-2.6l.77-1.35,20.92,13.39Z" style="fill:#ebebeb"></path><polygon points="340.45 347.23 378.46 346.18 394.16 299.2 354.45 297.39 340.45 347.23" style="fill:#FFC727"></polygon><path d="M350.71,376.26c2.12-.76,16.76-11.38,21.07-16.37A64.05,64.05,0,0,0,383,342.45c4.34-10.11,6.38-17.51,5.34-20.83-1.22-3.85-1.56-4.47-11.68,12.31-5.72,9.49-11.18,10.56-15.92,10.47a72.87,72.87,0,0,0-33.61,7.52S342.54,379.17,350.71,376.26Z" style="fill:#ad6359"></path><path d="M348.36,337.54a38.68,38.68,0,0,0-9.14,3.58,23.63,23.63,0,0,0-6.61,6.19c-.08.1.06.24.15.14,4-4.92,9.94-7.39,15.64-9.77A.07.07,0,0,0,348.36,337.54Z" style="fill:#263238"></path><path d="M363.14,344.32c-4.89.08,11-9.84,11.24-15.41s-5.18-3.81-9.45-.67c-14.84,10.9-26,10.37-33.56,20.79S363.14,344.32,363.14,344.32Z" style="fill:#ad6359"></path><path d="M293,358.3c3.8,1,30.29-6.23,30.29-6.23l14.88,36s-46.12,10.74-56.88,7-27.53-40.3-32.95-61.56c-5.09-20,1.7-33,16-12.32C264.29,321.18,291,357.76,293,358.3Z" style="fill:#FFC727"></path><path d="M315.31,392.67c-1.1.2-2.21.4-3.34.58" style="fill:#ebebeb"></path><path d="M298.46,357.91c1-.17,2.1-.37,3.24-.6" style="fill:#ebebeb"></path><path d="M280.7,394c-9-4.62-20.14-28.79-22.28-33.54-1.37-3-2.63-6.12-3.86-9.22-2.45-6.2-4.72-12.47-6.87-18.78a.09.09,0,0,0-.17,0c1.18,4.87,2.61,9.7,4.26,14.45a54.73,54.73,0,0,1-2.94-5.5c0-.09-.2,0-.16.07a30.74,30.74,0,0,0,3.43,6.36c1.69,4.76,3.6,9.45,5.73,14,.62,1.32,13.48,30.93,23.56,33.68,3.51,1,15.5.09,18.05-.49.11,0,.13-.16,0-.16C296,394.82,283.92,395.6,280.7,394Z" style="fill:#263238"></path><path d="M328.19,383.7c-.45-1.25-.9-2.49-1.36-3.72-.92-2.48-6.47-17.2-8.88-21.79-.07-.13-.25,0-.22.09,1.35,5,7.24,19.56,8.22,22,.51,1.23,1,2.45,1.53,3.67s1.18,2.39,1.7,3.62c.05.12.24.07.2-.06C328.93,386.23,328.63,384.94,328.19,383.7Z" style="fill:#263238"></path><path d="M323.28,352.12c-2.2.1-22,4.71-26.4,5.69a8.69,8.69,0,0,1-3.23.45,4.75,4.75,0,0,1-2.6-1.94c-1.42-1.63-16.92-22.12-18.05-23.13-.42-.38-.76-.45-.35.19.69,1.11,15.76,21.35,17.13,22.94s2.46,3,4.6,2.94c.94,0,27.67-6,29-6.58C323.64,352.57,323.62,352.11,323.28,352.12Z" style="fill:#263238"></path><path d="M272.33,322.49s-12-11.83-19.79-11.59l-6.65,5.85s-2.17.7-2.84-.68c-1.65-3.41-2-11.65,5.16-17,6.51-4.87,17.13-4.46,26-2.09,8.5,2.28,15.86,8,13.23,13.5S272.33,322.49,272.33,322.49Z" style="fill:#FFC727"></path><path d="M273.19,319.88S283,313,284,308.82s-7.23-8.11-12.57-9.68c-8.26-2.43-13.9-1.93-18.55,2.47S273.19,319.88,273.19,319.88Z" style="opacity:0.1"></path><path d="M274,318.28c-4-.08-13-6.68-14.32-12.81-.08-.42,1.61-4.05,3.45-8.57,1.11-2.74,2.28-5.82,3.15-8.71C266.4,287.6,283,298,283,298A47.67,47.67,0,0,0,278,308.59a6.08,6.08,0,0,0-.23,1.22,1.77,1.77,0,0,1,0,.2C277.39,312.38,278.26,318.37,274,318.28Z" style="fill:#ad6359"></path><path d="M277.73,309.81a1.77,1.77,0,0,1,0,.2,11.64,11.64,0,0,1-1.88-.46c-10.6-3.43-9.41-17.62-8.94-21.16C270,289.81,283,298,283,298A48.25,48.25,0,0,0,278,308.59,7,7,0,0,0,277.73,309.81Z" style="fill:#263238"></path><path d="M269.6,264.69c-3.7,6-5.24,25.59-1.74,31,5.08,7.83,15.87,11.31,23.15,4.64,7.05-6.47,8.61-32.09,4.46-37.25C289.37,255.47,275.06,255.89,269.6,264.69Z" style="fill:#ad6359"></path><path d="M285.22,281c0-.05-.11.06-.11.11-.07,1.33-.37,2.83-1.61,3.17,0,0,0,.08,0,.08C285,284.31,285.37,282.31,285.22,281Z" style="fill:#263238"></path><path d="M284.15,279.56c-2.11-.34-2.63,3.91-.67,4.23S285.92,279.85,284.15,279.56Z" style="fill:#263238"></path><path d="M292.49,281.9s.1.07.09.13c-.2,1.31-.22,2.85.92,3.43,0,0,0,.08,0,.07C292.05,285.15,292.09,283.11,292.49,281.9Z" style="fill:#263238"></path><path d="M293.84,280.67c2.13.1,1.78,4.37-.2,4.27S292.05,280.59,293.84,280.67Z" style="fill:#263238"></path><path d="M282.72,277.41a16.8,16.8,0,0,0,1.71-.37,2.91,2.91,0,0,0,1.68-.72.92.92,0,0,0,0-1.11,2.26,2.26,0,0,0-2.22-.51,3.37,3.37,0,0,0-2.06,1.19A1,1,0,0,0,282.72,277.41Z" style="fill:#263238"></path><path d="M295.74,278.73c-.57-.17-1.08-.42-1.63-.64a2.86,2.86,0,0,1-1.54-1,.9.9,0,0,1,.18-1.09,2.25,2.25,0,0,1,2.27-.15,3.28,3.28,0,0,1,1.85,1.5A1,1,0,0,1,295.74,278.73Z" style="fill:#263238"></path><path d="M282.18,292.82c.27.34.54.81,1,.91a3.59,3.59,0,0,0,1.45-.16c.05,0,.09,0,.05.07a1.75,1.75,0,0,1-1.76.51,1.41,1.41,0,0,1-.89-1.29C282,292.78,282.14,292.77,282.18,292.82Z" style="fill:#263238"></path><path d="M284.05,289.05a4.5,4.5,0,0,0,2.74,2.36,5.78,5.78,0,0,0,1.61.27h.6a.32.32,0,0,0,.3-.26h0a.57.57,0,0,0,0-.13h0v-.12c.15-1,.24-2.56.24-2.56.35.23,2.14,1.31,2.17.78.28-4.42.59-9.33-.07-13.79a.12.12,0,0,0-.24,0c-.44,4.23-.13,8.51-.49,12.77a8.33,8.33,0,0,0-2-.9c-.15,0-.12,3-.23,3.46a.1.1,0,0,1,0,0,6.27,6.27,0,0,1-4.47-2C284.09,288.86,284,288.93,284.05,289.05Z" style="fill:#263238"></path><path d="M287.86,291.09a5.31,5.31,0,0,1-2.33,1.39,2.4,2.4,0,0,1-1.47-.09c-1-.4-.92-1.37-.63-2.17a5.78,5.78,0,0,1,.63-1.21A6.91,6.91,0,0,0,287.86,291.09Z" style="fill:#263238"></path><path d="M285.53,292.48a2.4,2.4,0,0,1-1.47-.09c-1-.4-.92-1.37-.63-2.17A2.48,2.48,0,0,1,285.53,292.48Z" style="fill:#ff9bbc"></path><path d="M268.12,280.73c3,.64,4.92-6.22,4.92-6.22s7.16,3.64,9.3-6.51c0,0,8.34,4.71,14.45,2.81,5.22-1.62,9.32-9.15,6.78-14.6-1.43-3.07-6.41-6.61-16.18-.31,0,0-9.22-9.44-15.73,2.64,0,0-5.64-.42-7.36,4.81C261.59,271.61,265.5,280.18,268.12,280.73Z" style="fill:#263238"></path><path d="M282.48,267.28a.09.09,0,0,0-.17,0c0,2.57-.06,5.37-2.41,7a6,6,0,0,1-7.37-.16c-.13-.1-.3.09-.17.19a6.59,6.59,0,0,0,7.3.63C282.47,273.39,282.94,270.19,282.48,267.28Z" style="fill:#263238"></path><path d="M268.66,279.21c-3.77-3-6.26-7.16-5.65-12.14a9.67,9.67,0,0,1,3-6.28c1.67-1.43,3.79-1.66,5.79-2.34a.05.05,0,0,0,0-.1c-11.67.63-12.32,16-3.45,21.33C268.61,279.85,268.92,279.41,268.66,279.21Z" style="fill:#263238"></path><path d="M305,256.58c-3.36-7.51-13.42-4.87-18-.23,0,0,0,0,0,0,4-3.38,11.44-6,15.72-1.87,5.17,5,.61,15.24-6.42,14.94a.19.19,0,0,0,0,.37C302.65,270.57,307.45,262.16,305,256.58Z" style="fill:#263238"></path><path d="M270.23,281.42s-2.77-7.12-5.9-6.28-2.08,10.45.87,12.45a3.4,3.4,0,0,0,4.85-.7Z" style="fill:#ad6359"></path><path d="M264.7,277.89c-.05,0-.08.05,0,.08,2,1.48,2.73,3.88,3,6.27a1.87,1.87,0,0,0-2.6-1.17.07.07,0,0,0,0,.14,2.09,2.09,0,0,1,2.06,1.25,10.54,10.54,0,0,1,.63,2.07c.05.23.45.21.43,0v-.06C269,283.54,267.74,278.94,264.7,277.89Z" style="fill:#263238"></path><path d="M273.19,319.88s-9.58-16.38-21.63-18l1,9.06s7.19.05,19.79,11.59Z" style="fill:#FFC727"></path><path d="M249.29,311.05a15.43,15.43,0,0,1,6.46.89,29.63,29.63,0,0,1,5.92,2.79,50.64,50.64,0,0,1,5.37,3.75l2.51,2.13,2.42,2.24.27.25.31-.15a56.24,56.24,0,0,0,6.51-3.89,33.66,33.66,0,0,0,3-2.31A20,20,0,0,0,284.7,314a33.09,33.09,0,0,1-6,4.46c-1.06.66-2.15,1.26-3.25,1.85s-2.21,1.17-3.33,1.69l.57.1-2.42-2.31c-.83-.74-1.69-1.46-2.54-2.18s-1.79-1.35-2.71-2-1.87-1.23-2.87-1.75a26.89,26.89,0,0,0-6.21-2.55c-.54-.15-1.1-.25-1.65-.36s-1.11-.16-1.67-.19A9.75,9.75,0,0,0,249.29,311.05Z" style="fill:#263238"></path><path d="M245.89,316.75a33.38,33.38,0,0,0,3.5-2.72,34.46,34.46,0,0,0,3.15-3.13,30.9,30.9,0,0,0-3.5,2.72A32.08,32.08,0,0,0,245.89,316.75Z" style="fill:#263238"></path><path d="M267.37,317.47a66.89,66.89,0,0,0-.17,11.47c.18,2.66,2,12.12,4.95,11.52s-2.42-6.34-3.7-11.3-.25-8.77-.33-11.8Z" style="fill:#FFC727"></path><g style="opacity:0.1"><path d="M267.37,317.47a66.89,66.89,0,0,0-.17,11.47c.18,2.66,2,12.12,4.95,11.52s-2.42-6.34-3.7-11.3-.25-8.77-.33-11.8Z"></path></g><path d="M277.91,317.1A96,96,0,0,1,281.06,328c.53,2.36,1.34,11.06-1.36,11.28s.48-6.13.33-10.78-2.1-8.63-2.81-11.28Z" style="fill:#FFC727"></path><g style="opacity:0.1"><path d="M277.91,317.1A96,96,0,0,1,281.06,328c.53,2.36,1.34,11.06-1.36,11.28s.48-6.13.33-10.78-2.1-8.63-2.81-11.28Z"></path></g></g></svg>
