<svg xmlns="http://www.w3.org/2000/svg" viewBox="0 0 500 500"><g id="freepik--background-complete--inject-979"><path d="M119.8,140.08c.67-5.73-6.26-10.44-11.48-10.93-2.48-.24-5.06.21-7.42-.75-5.1-2.07-7.14-9.75-12.12-12.2-3.72-1.83-8-.2-11.61,1.91S70,122.89,66,123.19c-3.51.27-7.31-1.25-10.38.75-2.29,1.48-3.49,4.55-5.59,6.37s-4.75,2.14-7.31,2.3-5.21.2-7.54,1.44a7.1,7.1,0,0,0-3.77,7Z" style="fill:#f5f5f5"></path><polygon points="195.24 420.77 204.36 420.77 202 343.61 192.87 343.61 195.24 420.77" style="fill:#ebebeb"></polygon><path d="M198.5,160.49c0,1,24.49,66.6,24.49,66.6l-12.25-10.57,17.64,45.82-11.62-13.75L230.46,306l-6.64-6,11.62,40.53-10-10.58,10,30.31-78.87-4.93,18.68-57.1L164,308.86l14.6-41.59-7.47,3.53,17-53.57-7.89,4.58Z" style="fill:#ebebeb"></path><path d="M195.85,277.49a5.49,5.49,0,0,0,.39,1c.32.68.73,1.57,1.23,2.66l4.42,9.18.19.4.25-.39a43.82,43.82,0,0,0,3.22-6.07c.35-.82.67-1.63.95-2.4H206c2.17,4.71,4.3,8.81,5.91,11.73.8,1.45,1.47,2.61,1.94,3.41l.56.9a1.58,1.58,0,0,0,.22.31,7.8,7.8,0,0,0-.61-1.28c-.45-.88-1.06-2-1.8-3.46-1.52-2.94-3.59-7.06-5.75-11.77l-.26-.58-.22.6c-.28.77-.6,1.57-.94,2.38a46.7,46.7,0,0,1-3.17,6l.44,0L197.75,281c-.56-1.07-1-1.95-1.36-2.61A4.6,4.6,0,0,0,195.85,277.49Z" style="fill:#f5f5f5"></path><path d="M187.45,253a3.16,3.16,0,0,0,.44-.71c.31-.53.68-1.2,1.14-2,1-1.7,2.4-4.08,4.26-6.74l-.45,0c.4,1.29.82,2.68,1.26,4.12l.81,2.62.19.59.29-.56c1.68-3.17,3.14-6,4.16-8l1.18-2.37a3.45,3.45,0,0,0,.37-.89,4.49,4.49,0,0,0-.53.82l-1.32,2.32c-1.1,2-2.62,4.76-4.32,7.93l.47,0c-.25-.84-.52-1.72-.8-2.62l-1.28-4.12-.15-.48-.3.43a66.52,66.52,0,0,0-4.12,6.84c-.46.87-.79,1.57-1,2.06A2.57,2.57,0,0,0,187.45,253Z" style="fill:#f5f5f5"></path><path d="M198.62,202.8a16.55,16.55,0,0,0,1.39,2.33c.92,1.43,2.23,3.41,3.75,5.66l.35.51.12-.58c.14-.65.28-1.33.43-2,.24-1.19.48-2.34.7-3.4l-.45.07c1.41,1.9,2.63,3.52,3.52,4.66a13,13,0,0,0,1.48,1.77,13.7,13.7,0,0,0-1.22-1.91c-.82-1.18-2-2.83-3.37-4.74l-.33-.46-.12.54c-.22,1.06-.47,2.21-.72,3.4-.14.69-.28,1.36-.42,2l.47-.07c-1.54-2.24-2.9-4.2-3.9-5.59A16.9,16.9,0,0,0,198.62,202.8Z" style="fill:#f5f5f5"></path><path d="M471.1,421.87c0,.15-99,.26-221.09.26S28.9,422,28.9,421.87s99-.26,221.11-.26S471.1,421.73,471.1,421.87Z" style="fill:#e0e0e0"></path><polygon points="73.7 423.92 82.83 423.92 80.47 346.77 71.34 346.77 73.7 423.92" style="fill:#ebebeb"></polygon><path d="M77,163.64c0,1.06,24.49,66.61,24.49,66.61L89.21,219.68l17.64,45.81L95.23,251.75l13.7,57.44-6.65-6,11.63,40.53-10-10.57,10,30.31L35,358.53l18.68-57.09L42.43,312,57,270.43,49.56,274l17-53.57L58.7,225Z" style="fill:#ebebeb"></path><path d="M74.32,280.64a4.81,4.81,0,0,0,.39,1c.31.67.73,1.56,1.23,2.65l4.42,9.18.19.4.25-.38A43.93,43.93,0,0,0,84,287.39c.36-.81.68-1.62,1-2.4l-.49,0c2.18,4.71,4.31,8.81,5.92,11.72.8,1.46,1.46,2.62,1.94,3.41l.55.91c.14.2.21.31.23.3a8.84,8.84,0,0,0-.61-1.28c-.46-.87-1.06-2-1.8-3.46-1.52-2.94-3.59-7.06-5.75-11.76l-.27-.58-.21.59c-.28.77-.6,1.58-1,2.38a45.4,45.4,0,0,1-3.16,6l.44,0-4.59-9.11c-.56-1.08-1-1.95-1.36-2.62A7.06,7.06,0,0,0,74.32,280.64Z" style="fill:#f5f5f5"></path><path d="M65.91,256.18a3.37,3.37,0,0,0,.45-.71l1.13-2c1-1.71,2.41-4.08,4.27-6.74l-.45,0c.39,1.29.82,2.68,1.26,4.12.28.89.55,1.77.81,2.62l.18.58.3-.55c1.68-3.18,3.13-6,4.16-8,.47-1,.86-1.74,1.18-2.37a4.3,4.3,0,0,0,.37-.88A4.16,4.16,0,0,0,79,243l-1.31,2.32c-1.11,2-2.62,4.75-4.32,7.92l.47,0c-.26-.85-.53-1.73-.8-2.63-.45-1.43-.88-2.82-1.28-4.11l-.15-.49-.3.44a64.11,64.11,0,0,0-4.13,6.84c-.45.87-.79,1.57-1,2A3.54,3.54,0,0,0,65.91,256.18Z" style="fill:#f5f5f5"></path><path d="M77.09,206a15.67,15.67,0,0,0,1.39,2.32c.92,1.43,2.23,3.42,3.75,5.67l.34.51.13-.58c.13-.65.28-1.33.42-2,.25-1.19.48-2.34.7-3.4l-.45.07c1.41,1.89,2.64,3.51,3.52,4.65A13.11,13.11,0,0,0,88.37,215,13.22,13.22,0,0,0,87.15,213c-.81-1.17-2-2.82-3.36-4.73l-.33-.46-.12.53c-.23,1.07-.47,2.21-.72,3.4-.15.69-.29,1.37-.42,2l.46-.07c-1.53-2.24-2.9-4.19-3.89-5.59A17.36,17.36,0,0,0,77.09,206Z" style="fill:#f5f5f5"></path><polygon points="135.54 354.97 119.07 346.94 113.6 322.85 109 323.93 112.99 346.68 97.2 337.62 93.75 340.98 114.64 352.27 135.54 360.58 135.54 354.97" style="fill:#ebebeb"></polygon><polygon points="142.2 421.89 130.13 421.89 133.25 319.83 145.33 319.83 142.2 421.89" style="fill:#ebebeb"></polygon><path d="M136,66c0,1.4-32.4,88.11-32.4,88.11l16.2-14-23.34,60.6,15.37-18.18-18.12,76,8.79-7.93L87.12,304.18l13.18-14L87.12,330.28l104.34-6.52-24.71-75.53,14.92,14-19.32-55,9.89,4.66L149.72,141l10.44,6.06Z" style="fill:#e0e0e0"></path><path d="M139.49,220.72A5.66,5.66,0,0,1,139,222l-1.63,3.52-5.84,12.14-.26.53-.33-.51a57.28,57.28,0,0,1-4.25-8c-.47-1.07-.89-2.15-1.26-3.18l.64,0c-2.88,6.24-5.7,11.66-7.82,15.51-1.07,1.93-2,3.47-2.57,4.52-.3.47-.54.87-.74,1.2a1.73,1.73,0,0,1-.29.4,10.67,10.67,0,0,1,.8-1.69c.6-1.16,1.41-2.7,2.38-4.58,2-3.89,4.75-9.34,7.61-15.56l.35-.77.28.79c.37,1,.79,2.08,1.26,3.15a59.56,59.56,0,0,0,4.18,8l-.58,0L137,225.4l1.8-3.46A8.31,8.31,0,0,1,139.49,220.72Z" style="fill:#ebebeb"></path><path d="M150.61,188.36a4.43,4.43,0,0,1-.59-.94l-1.5-2.65c-1.29-2.25-3.18-5.39-5.64-8.91l.59-.07-1.66,5.45-1.08,3.47-.24.78-.39-.74c-2.22-4.2-4.15-7.9-5.5-10.56-.62-1.26-1.15-2.31-1.56-3.14a5.07,5.07,0,0,1-.49-1.17,6.12,6.12,0,0,1,.71,1.09L135,174c1.46,2.62,3.46,6.29,5.71,10.49l-.62,0c.34-1.12.69-2.28,1.06-3.47l1.69-5.44.2-.65.4.58a86.12,86.12,0,0,1,5.45,9c.6,1.15,1.05,2.08,1.33,2.72A3.7,3.7,0,0,1,150.61,188.36Z" style="fill:#ebebeb"></path><path d="M135.83,121.93A21.76,21.76,0,0,1,134,125c-1.22,1.89-3,4.51-5,7.49l-.45.67-.17-.77c-.18-.86-.37-1.75-.56-2.67-.33-1.57-.64-3.09-.93-4.5l.59.1c-1.86,2.51-3.48,4.65-4.65,6.15a17.36,17.36,0,0,1-2,2.35,17.29,17.29,0,0,1,1.62-2.53c1.07-1.55,2.62-3.74,4.44-6.26l.45-.61.15.71c.3,1.4.62,2.92,1,4.49.19.92.37,1.81.55,2.67l-.62-.09c2-3,3.84-5.55,5.16-7.39A22.62,22.62,0,0,1,135.83,121.93Z" style="fill:#ebebeb"></path><polygon points="356.16 420.77 365.29 420.77 362.93 343.61 353.8 343.61 356.16 420.77" style="fill:#ebebeb"></polygon><path d="M359.42,160.49c0,1,24.5,66.6,24.5,66.6l-12.25-10.57,17.64,45.82-11.62-13.75L391.39,306l-6.64-6,11.62,40.53-10-10.58,10,30.31-78.87-4.93,18.68-57.1L324.9,308.86l14.6-41.59L332,270.8l17-53.57-7.89,4.58Z" style="fill:#ebebeb"></path><path d="M356.78,277.49a4.63,4.63,0,0,0,.39,1l1.23,2.66,4.42,9.18.19.4.25-.39a43.82,43.82,0,0,0,3.22-6.07c.35-.82.67-1.63.95-2.4H367c2.17,4.71,4.3,8.81,5.91,11.73.8,1.45,1.47,2.61,1.94,3.41l.56.9c.13.21.2.31.22.31a7.8,7.8,0,0,0-.61-1.28l-1.8-3.46c-1.52-2.94-3.59-7.06-5.75-11.77l-.26-.58-.22.6c-.28.77-.6,1.57-.95,2.38a45.47,45.47,0,0,1-3.16,6l.44,0L358.68,281c-.56-1.07-1-1.95-1.36-2.61A5.3,5.3,0,0,0,356.78,277.49Z" style="fill:#f5f5f5"></path><path d="M348.38,253a3.68,3.68,0,0,0,.44-.71l1.13-2c1-1.7,2.41-4.08,4.27-6.74l-.45,0c.4,1.29.82,2.68,1.26,4.12l.81,2.62.19.59.29-.56c1.68-3.17,3.14-6,4.16-8l1.18-2.37a3.45,3.45,0,0,0,.37-.89,3.92,3.92,0,0,0-.53.82c-.35.62-.8,1.39-1.32,2.32-1.11,2-2.62,4.76-4.32,7.93l.47,0c-.26-.84-.53-1.72-.8-2.62l-1.28-4.12-.15-.48-.3.43a66.9,66.9,0,0,0-4.13,6.84c-.45.87-.78,1.57-1,2.06A2.57,2.57,0,0,0,348.38,253Z" style="fill:#f5f5f5"></path><path d="M359.55,202.8a15.39,15.39,0,0,0,1.39,2.33c.92,1.43,2.23,3.41,3.75,5.66l.34.51.13-.58c.13-.65.28-1.33.42-2,.25-1.19.49-2.34.7-3.4l-.44.07c1.4,1.9,2.63,3.52,3.51,4.66a15.11,15.11,0,0,0,1.48,1.77,11.64,11.64,0,0,0-1.22-1.91c-.81-1.18-2-2.83-3.36-4.74l-.33-.46-.12.54c-.22,1.06-.47,2.21-.72,3.4-.15.69-.29,1.36-.42,2l.47-.07c-1.54-2.24-2.91-4.2-3.9-5.59A18.08,18.08,0,0,0,359.55,202.8Z" style="fill:#f5f5f5"></path><path d="M320.77,124.29c.67-5.73-6.26-10.44-11.48-10.93-2.48-.23-5.06.21-7.42-.75-5.1-2.07-7.14-9.75-12.12-12.2-3.72-1.83-8-.2-11.61,1.92s-7.18,4.78-11.21,5.08c-3.5.26-7.31-1.25-10.38.74-2.29,1.49-3.48,4.56-5.59,6.37s-4.75,2.15-7.31,2.31-5.21.19-7.53,1.43a7.13,7.13,0,0,0-3.78,7Z" style="fill:#f5f5f5"></path><polygon points="424.55 365.28 410.36 358.37 405.65 337.62 401.69 338.54 405.13 358.14 391.53 350.34 388.55 353.24 406.55 362.96 424.55 370.12 424.55 365.28" style="fill:#ebebeb"></polygon><polygon points="430.28 422.93 419.89 422.93 422.58 335.02 432.98 335.02 430.28 422.93" style="fill:#ebebeb"></polygon><path d="M424.94,116.35c0,1.2-27.91,75.89-27.91,75.89l14-12.05-20.1,52.2,13.24-15.66-15.61,65.45,7.57-6.82-13.25,46.17,11.36-12L382.84,344l89.87-5.62-21.28-65,12.85,12L447.64,238l8.51,4-19.39-61,9,5.22Z" style="fill:#e0e0e0"></path><path d="M428,249.66a6.39,6.39,0,0,1-.44,1.1l-1.41,3-5,10.46-.22.46-.28-.44a51.1,51.1,0,0,1-3.67-6.92c-.4-.93-.76-1.86-1.08-2.74l.55,0c-2.48,5.36-4.91,10-6.74,13.35-.91,1.66-1.67,3-2.21,3.89l-.63,1c-.15.24-.24.36-.26.35a10.76,10.76,0,0,1,.7-1.46l2-3.94c1.73-3.35,4.09-8,6.55-13.4l.3-.66.25.67c.31.88.68,1.8,1.07,2.72a53.27,53.27,0,0,0,3.61,6.87l-.5,0c2.1-4.17,3.9-7.76,5.23-10.39l1.55-3A6.12,6.12,0,0,1,428,249.66Z" style="fill:#ebebeb"></path><path d="M437.53,221.78A4,4,0,0,1,437,221l-1.29-2.28c-1.11-1.94-2.75-4.65-4.86-7.68l.51-.06-1.43,4.7-.93,3-.21.67-.33-.63c-1.92-3.62-3.58-6.81-4.74-9.1l-1.35-2.7a5,5,0,0,1-.42-1,4.23,4.23,0,0,1,.61.93l1.5,2.64c1.26,2.25,3,5.42,4.92,9l-.54,0c.3-1,.6-2,.92-3l1.46-4.69.17-.55.34.49a76,76,0,0,1,4.7,7.79c.51,1,.9,1.8,1.14,2.35A3.48,3.48,0,0,1,437.53,221.78Z" style="fill:#ebebeb"></path><path d="M424.8,164.56a18.59,18.59,0,0,1-1.59,2.65c-1,1.63-2.54,3.89-4.27,6.45l-.39.59-.14-.67c-.16-.74-.32-1.51-.49-2.29l-.8-3.88.51.08c-1.6,2.16-3,4-4,5.3a15.49,15.49,0,0,1-1.69,2,13.51,13.51,0,0,1,1.39-2.17c.93-1.35,2.26-3.22,3.83-5.4l.38-.53.13.62.83,3.87c.16.79.32,1.56.48,2.3l-.54-.08c1.75-2.55,3.31-4.78,4.44-6.37A20.32,20.32,0,0,1,424.8,164.56Z" style="fill:#ebebeb"></path><path d="M475.77,77.5c.54-3.86-4.91-7-9-7.37-2-.16-4,.14-5.83-.5-4-1.4-5.61-6.57-9.52-8.22-2.92-1.24-6.29-.14-9.12,1.29s-5.63,3.22-8.8,3.42c-2.75.18-5.74-.84-8.15.5-1.8,1-2.74,3.07-4.39,4.29a10.43,10.43,0,0,1-5.74,1.56,16.06,16.06,0,0,0-5.91,1c-1.83.83-3.35,2.77-3,4.74Z" style="fill:#f5f5f5"></path><path d="M261.74,59c.53-3.86-4.92-7-9-7.36-1.95-.16-4,.14-5.83-.51-4-1.39-5.61-6.57-9.52-8.22-2.92-1.23-6.28-.13-9.12,1.29s-5.63,3.22-8.8,3.43c-2.75.17-5.74-.85-8.15.5-1.79,1-2.73,3.07-4.39,4.29A10.51,10.51,0,0,1,201.18,54a16.13,16.13,0,0,0-5.91,1c-1.83.84-3.34,2.77-3,4.75Z" style="fill:#f5f5f5"></path></g><g id="freepik--Floor--inject-979"><path d="M470.34,473.11c0,.15-98.66.26-220.33.26s-220.35-.11-220.35-.26,98.64-.26,220.35-.26S470.34,473,470.34,473.11Z" style="fill:#263238"></path></g><g id="freepik--Plants--inject-979"><path d="M453.56,473.11a9.53,9.53,0,0,1-1-2c-.54-1.27-1.24-3-2-5s-1.4-3.53-2-5a14.87,14.87,0,0,1-.8-2.09,7.37,7.37,0,0,1,1.14,1.93c.61,1.25,1.36,3,2.13,5s1.42,3.75,1.87,5A10.55,10.55,0,0,1,453.56,473.11Z" style="fill:#263238"></path><path d="M458.16,473.31c-.15,0-.66-3.33-1.59-7.41s-1.9-7.32-1.76-7.37a8.61,8.61,0,0,1,.84,2.07c.44,1.31,1,3.14,1.43,5.19s.77,3.93.94,5.29A8.54,8.54,0,0,1,458.16,473.31Z" style="fill:#263238"></path><path d="M466.32,459.42c.14.08-1.36,3.08-2.88,6.91s-2.51,7-2.66,7a9.06,9.06,0,0,1,.46-2.15,53.35,53.35,0,0,1,3.93-9.86A8.66,8.66,0,0,1,466.32,459.42Z" style="fill:#263238"></path><path d="M225.88,473.11a74,74,0,0,1-6.08-10.68,71.59,71.59,0,0,1,6.08,10.68Z" style="fill:#263238"></path><path d="M230.2,473a79,79,0,0,1-2.66-12.67A82,82,0,0,1,230.2,473Z" style="fill:#263238"></path><path d="M239.31,461.69a39.45,39.45,0,0,1-3.08,5.76,41.06,41.06,0,0,1-3.53,5.49,39.66,39.66,0,0,1,3.08-5.75A42.46,42.46,0,0,1,239.31,461.69Z" style="fill:#263238"></path><path d="M55.68,473.11a29,29,0,0,1-2.94-4.68,29,29,0,0,1-2.49-4.93,29.84,29.84,0,0,1,2.94,4.68A29.92,29.92,0,0,1,55.68,473.11Z" style="fill:#263238"></path><path d="M58.09,457.6a60.92,60.92,0,0,1,1.17,7.73,56.51,56.51,0,0,1,.64,7.78,118.57,118.57,0,0,1-1.81-15.51Z" style="fill:#263238"></path><path d="M67.49,462.53a29.15,29.15,0,0,1-1.38,5.37,29.37,29.37,0,0,1-1.88,5.21,29.37,29.37,0,0,1,1.38-5.36A31.72,31.72,0,0,1,67.49,462.53Z" style="fill:#263238"></path><path d="M141.72,440a6.16,6.16,0,0,1,3.2,3.62,11,11,0,0,1,.43,4.91c-.37,3.19-2.18,6.4-4.12,8.95-2.69-2.34-3.3-6.43-3.49-8.52-.29-3.31,1.2-9.46,4-9" style="fill:#455a64"></path><path d="M144.34,462.69a5.24,5.24,0,0,1,1.71-5,7,7,0,0,1,5.15-1.61,2.94,2.94,0,0,1,2.27,1,2.26,2.26,0,0,1,0,2.29,4.49,4.49,0,0,1-1.69,1.66c-2.32,1.46-4.84,2.44-7.47,1.65" style="fill:#455a64"></path><path d="M140.9,472.46a4.38,4.38,0,0,1,.1-.65c.08-.46.19-1.06.32-1.77a18.5,18.5,0,0,1,1.83-5.65,11.28,11.28,0,0,1,4.06-4.31,7.33,7.33,0,0,1,1.65-.73,3,3,0,0,1,.48-.12c.11,0,.16,0,.17,0a11.36,11.36,0,0,0-2.22,1,11.75,11.75,0,0,0-3.94,4.28,20.19,20.19,0,0,0-1.87,5.57c-.16.74-.29,1.34-.39,1.76A2.49,2.49,0,0,1,140.9,472.46Z" style="fill:#263238"></path><path d="M141,444.74a1.36,1.36,0,0,1,0,.29l.05.82c0,.71.08,1.74.12,3,.08,2.55.14,6.08.13,10s-.11,7.42-.22,10c-.05,1.28-.1,2.31-.15,3,0,.33,0,.6-.05.82a1.33,1.33,0,0,1,0,.28,1.29,1.29,0,0,1,0-.29c0-.21,0-.48,0-.82,0-.74.05-1.77.08-3,.06-2.55.13-6.08.15-10s0-7.42-.07-10c0-1.25,0-2.28,0-3V445C141,444.84,141,444.74,141,444.74Z" style="fill:#263238"></path><path d="M139.7,464.63a12.32,12.32,0,0,0-6.72-9c-.9-.43-2.07-.71-2.81,0s-.57,1.86-.21,2.79a10.54,10.54,0,0,0,9.68,6.54" style="fill:#455a64"></path><path d="M133.41,458.63a3,3,0,0,1,.57.25,5.17,5.17,0,0,1,.64.34,9.69,9.69,0,0,1,.82.52,9.89,9.89,0,0,1,.94.7,11.62,11.62,0,0,1,1,.91,13.72,13.72,0,0,1,1.89,2.43,14,14,0,0,1,1.25,2.82,10.26,10.26,0,0,1,.31,1.31,9.15,9.15,0,0,1,.16,1.16,8.75,8.75,0,0,1,0,1c0,.28,0,.53,0,.73a4,4,0,0,1-.07.62s0-.89-.12-2.3a10.83,10.83,0,0,0-.19-1.14,11.51,11.51,0,0,0-.33-1.28,13.92,13.92,0,0,0-1.24-2.77,14.19,14.19,0,0,0-1.85-2.4,10.11,10.11,0,0,0-1-.91,10.49,10.49,0,0,0-.9-.72C134.19,459,133.39,458.68,133.41,458.63Z" style="fill:#263238"></path><path d="M411.83,430.38a8.16,8.16,0,0,1,4.22,4.79,14.35,14.35,0,0,1,.57,6.48c-.48,4.21-2.87,8.46-5.45,11.82-3.54-3.09-4.35-8.49-4.6-11.25-.38-4.36,1.58-12.49,5.26-11.84" style="fill:#455a64"></path><path d="M415.29,460.41a7,7,0,0,1,2.25-6.61,9.26,9.26,0,0,1,6.81-2.13,3.89,3.89,0,0,1,3,1.35,3,3,0,0,1,.05,3,6,6,0,0,1-2.23,2.2c-3.07,1.93-6.4,3.23-9.87,2.18" style="fill:#455a64"></path><path d="M410.75,473.31a5.31,5.31,0,0,1,.13-.86l.42-2.34a24.66,24.66,0,0,1,2.42-7.46,14.9,14.9,0,0,1,5.35-5.69,10.1,10.1,0,0,1,2.19-1,6.47,6.47,0,0,1,.63-.16.61.61,0,0,1,.22,0,13.81,13.81,0,0,0-8.13,7,26.37,26.37,0,0,0-2.46,7.36c-.22,1-.39,1.77-.53,2.32A4.05,4.05,0,0,1,410.75,473.31Z" style="fill:#263238"></path><path d="M410.88,436.7a1.65,1.65,0,0,1,.05.38q0,.42.06,1.08c.05.94.11,2.31.16,4,.11,3.38.19,8,.17,13.18s-.15,9.81-.28,13.18c-.07,1.69-.14,3.05-.2,4,0,.44,0,.8-.07,1.08a1.65,1.65,0,0,1,0,.38,2.21,2.21,0,0,1,0-.38c0-.28,0-.64,0-1.08,0-1,.06-2.34.1-4,.08-3.37.17-8,.2-13.17s0-9.8-.09-13.17c0-1.66,0-3-.06-4,0-.45,0-.81,0-1.09A2.79,2.79,0,0,1,410.88,436.7Z" style="fill:#263238"></path><path d="M409.16,463a16.22,16.22,0,0,0-8.88-11.92c-1.19-.57-2.73-.94-3.71-.06s-.75,2.46-.28,3.69a13.9,13.9,0,0,0,12.79,8.63" style="fill:#455a64"></path><path d="M400.85,455.05a3.47,3.47,0,0,1,.75.32,9.58,9.58,0,0,1,.85.46,10.94,10.94,0,0,1,1.08.68,12.91,12.91,0,0,1,1.24.93,15.58,15.58,0,0,1,1.32,1.19,16.82,16.82,0,0,1,4.15,6.94,16.17,16.17,0,0,1,.42,1.74,13.28,13.28,0,0,1,.21,1.53c.06.47,0,.9.06,1.28a9.24,9.24,0,0,1,0,1,4.38,4.38,0,0,1-.09.81c-.07,0,.05-1.17-.16-3-.06-.46-.12-1-.24-1.51s-.27-1.1-.44-1.69a18.46,18.46,0,0,0-1.64-3.65,19.56,19.56,0,0,0-2.44-3.18,17.44,17.44,0,0,0-1.28-1.2c-.41-.37-.83-.67-1.2-.95C401.89,455.59,400.82,455.11,400.85,455.05Z" style="fill:#263238"></path></g><g id="freepik--Birds--inject-979"><path d="M419.56,90.16s-.73-.25-2.08-.55a16.34,16.34,0,0,0-5.81-.22,15.61,15.61,0,0,0-7.82,3.37,16.24,16.24,0,0,0-5.53,8.77l0,.1-.16.62-.24-.59a17.57,17.57,0,0,0-6.61-8A17,17,0,0,0,383.21,91a17.82,17.82,0,0,0-5.77.53c-1.33.35-2,.66-2.05.62a2.61,2.61,0,0,1,.5-.24,12.41,12.41,0,0,1,1.51-.54,17.2,17.2,0,0,1,14.1,2,17.63,17.63,0,0,1,6.79,8.15l-.4,0,0-.1a16.52,16.52,0,0,1,5.69-9,15.76,15.76,0,0,1,8-3.37,16,16,0,0,1,5.89.36,12,12,0,0,1,1.53.48A3.75,3.75,0,0,1,419.56,90.16Z" style="fill:#263238"></path><path d="M425.26,51.74s-.41-.12-1.15-.27a9.34,9.34,0,0,0-3.18-.09,8.43,8.43,0,0,0-4.25,1.86,8.8,8.8,0,0,0-3,4.77l0,.05-.16.63-.24-.59a9.54,9.54,0,0,0-3.59-4.36,9.35,9.35,0,0,0-4.4-1.48,9.76,9.76,0,0,0-3.16.26c-.74.18-1.13.34-1.14.3s.09-.06.27-.15a5.58,5.58,0,0,1,.82-.31,9.21,9.21,0,0,1,3.23-.4,9.34,9.34,0,0,1,4.59,1.46,9.77,9.77,0,0,1,3.77,4.52l-.4,0,0,0a9.14,9.14,0,0,1,3.16-5,8.83,8.83,0,0,1,7.72-1.62,6.74,6.74,0,0,1,.84.28C425.17,51.68,425.27,51.72,425.26,51.74Z" style="fill:#263238"></path><path d="M360.17,49.34s-.4.45-1.12,1.26a27.21,27.21,0,0,0-2.72,3.68,26.83,26.83,0,0,0-4.05,14.32v.18l-.42,0a23.94,23.94,0,0,0-6.61-13.13,23.21,23.21,0,0,0-3.45-2.93c-.88-.61-1.39-.92-1.37-1a1.47,1.47,0,0,1,.39.18c.24.15.62.33,1.07.63a21.24,21.24,0,0,1,3.58,2.86,23.18,23.18,0,0,1,4.11,5.4,23.44,23.44,0,0,1,2.7,7.88l-.42,0V68.6a26.41,26.41,0,0,1,4.21-14.48,24.22,24.22,0,0,1,2.86-3.63c.37-.4.69-.67.9-.87A1.42,1.42,0,0,1,360.17,49.34Z" style="fill:#263238"></path></g><g id="freepik--Lines--inject-979"><path d="M155.45,292c0,.14-14,.26-31.2.26S93,292.15,93,292s14-.26,31.21-.26S155.45,291.86,155.45,292Z" style="fill:#263238"></path><path d="M136.75,284.1c0,.14-14,.26-31.2.26s-31.21-.12-31.21-.26,14-.26,31.21-.26S136.75,284,136.75,284.1Z" style="fill:#263238"></path><path d="M294.43,412.9c0,.14-8.07.26-18,.26s-18-.12-18-.26,8.06-.26,18-.26S294.43,412.76,294.43,412.9Z" style="fill:#263238"></path><path d="M283.64,405c0,.15-8.07.26-18,.26s-18-.11-18-.26,8.06-.26,18-.26S283.64,404.85,283.64,405Z" style="fill:#263238"></path></g><g id="freepik--Sun--inject-979"><circle cx="88.02" cy="72.37" r="14.66" style="fill:#FFC100"></circle><path d="M88,87a14.68,14.68,0,0,1-13.52-9,14.78,14.78,0,0,1,0-11.43A14.84,14.84,0,0,1,77.64,62,14.69,14.69,0,0,1,98.4,62a14.84,14.84,0,0,1,3.14,4.66A14.67,14.67,0,0,1,88,87Z" style="fill:#FFC100"></path><path d="M85.93,105.14c-.08,0-.15-2.7-.15-6s.07-6,.15-6a56.83,56.83,0,0,1,.16,6A56.56,56.56,0,0,1,85.93,105.14Z" style="fill:#FFC100"></path><path d="M85.93,105.16s-.08,0-.12-1.79c0-1.14,0-2.66,0-4.27s0-3.14,0-4.28c0-1.78.09-1.78.12-1.78s.08,0,.13,1.78c0,1.14,0,2.66,0,4.28s0,3.13,0,4.27C86,105.16,86,105.16,85.93,105.16Zm0-12.08c-.07.22-.14,2.52-.14,6s.07,5.79.14,6c.07-.23.14-2.52.14-6S86,93.3,85.93,93.08Z" style="fill:#FFC100"></path><path d="M77.48,89.64a63,63,0,0,1-3.07,5.64c-1.78,3.08-3.28,5.53-3.35,5.49a63.32,63.32,0,0,1,3.08-5.64C75.91,92.06,77.41,89.6,77.48,89.64Z" style="fill:#FFC100"></path><path d="M71.06,100.79h0s-.07,0,.84-1.7c.58-1.07,1.38-2.47,2.23-4s1.68-2.87,2.32-3.91c.89-1.46,1-1.58,1-1.58h0s.07,0-.84,1.7c-.58,1.07-1.37,2.48-2.23,4-1.52,2.64-3.22,5.46-3.35,5.5Zm6.41-11.12c-.18.17-1.46,2.25-3.32,5.47s-3,5.36-3.08,5.61c.18-.18,1.46-2.25,3.32-5.47S77.41,89.91,77.47,89.67Z" style="fill:#FFC100"></path><path d="M68.81,84.24a31,31,0,0,1-3.42,2.92,32.1,32.1,0,0,1-3.61,2.68,32.32,32.32,0,0,1,3.42-2.92A35.42,35.42,0,0,1,68.81,84.24Z" style="fill:#FFC100"></path><path d="M61.78,89.86h0s0-.06,1-.93c.65-.55,1.52-1.26,2.46-2a35.08,35.08,0,0,1,3.62-2.68h0a34.93,34.93,0,0,1-3.43,2.92c-.94.75-1.83,1.44-2.52,2A5,5,0,0,1,61.78,89.86Zm7-5.6a38.16,38.16,0,0,0-3.59,2.67,40.2,40.2,0,0,0-3.42,2.9,37.22,37.22,0,0,0,3.59-2.68A39.77,39.77,0,0,0,68.8,84.26Zm0,0Z" style="fill:#FFC100"></path><path d="M100.56,99.19a7.77,7.77,0,0,1-.39-1.49c-.21-.92-.51-2.19-.89-3.59s-.75-2.64-1-3.55a8.5,8.5,0,0,1-.41-1.48,7.14,7.14,0,0,1,.62,1.41c.33.89.75,2.14,1.12,3.54a36.32,36.32,0,0,1,.8,3.63A6.9,6.9,0,0,1,100.56,99.19Z" style="fill:#FFC100"></path><path d="M100.55,99.2s-.11-.22-.4-1.5c-.19-.86-.5-2.16-.88-3.58s-.78-2.72-1-3.55v0c-.37-1.2-.45-1.46-.4-1.48s0,0,.22.37.27.64.42,1c.23.6.68,1.87,1.13,3.54s.69,3,.8,3.62a7.38,7.38,0,0,1,.17,1.54,0,0,0,0,1,0,0h0Zm-2.7-10.09a13.79,13.79,0,0,0,.41,1.43v0c.26.83.65,2.1,1,3.55s.69,2.73.88,3.59.32,1.37.37,1.46a10.18,10.18,0,0,0-.18-1.5c-.11-.64-.35-2-.8-3.62s-.9-2.94-1.13-3.54A9.12,9.12,0,0,0,97.85,89.11Z" style="fill:#FFC100"></path><path d="M115.42,88.64a54.77,54.77,0,0,1-4.33-3.58A51.8,51.8,0,0,1,107,81.24a50.82,50.82,0,0,1,4.33,3.58A49.69,49.69,0,0,1,115.42,88.64Z" style="fill:#FFC100"></path><path d="M115.42,88.65a54.61,54.61,0,0,1-4.34-3.58c-1.13-1-2.18-1.93-3-2.65-1.22-1.13-1.19-1.17-1.17-1.19h0c.15,0,2.34,1.85,4.33,3.59,1.13,1,2.19,1.93,3,2.65,1.22,1.13,1.18,1.17,1.16,1.19h0ZM107,81.26c.11.18,1.67,1.64,4.12,3.78s4.11,3.5,4.3,3.58c-.1-.19-1.67-1.64-4.12-3.79S107.18,81.34,107,81.26Z" style="fill:#FFC100"></path><path d="M121.12,74.14a11.91,11.91,0,0,1-1.77-.26c-1.09-.18-2.59-.41-4.25-.6s-3.19-.3-4.29-.37a10.88,10.88,0,0,1-1.78-.16,8.74,8.74,0,0,1,1.79-.06,43.17,43.17,0,0,1,4.31.28c1.68.2,3.18.46,4.26.7A9.11,9.11,0,0,1,121.12,74.14Z" style="fill:#FFC100"></path><path d="M121.07,74.16c-.13,0-.49-.06-1.37-.2l-.35-.06c-1.49-.25-2.92-.45-4.26-.61s-2.77-.27-4.28-.37l-.35,0c-1.2-.08-1.44-.1-1.44-.15a0,0,0,0,1,0,0,9.68,9.68,0,0,1,1.79-.07,42.81,42.81,0,0,1,4.31.29,41.81,41.81,0,0,1,4.26.7,9.36,9.36,0,0,1,1.74.47h0S121.11,74.16,121.07,74.16Zm-12-1.41a13.35,13.35,0,0,0,1.41.12l.35,0c1.51.1,3,.22,4.28.37s2.77.36,4.25.61l.35.06c.71.12,1.24.2,1.37.2h0a12.87,12.87,0,0,0-1.7-.44,41.81,41.81,0,0,0-4.26-.7,43,43,0,0,0-4.31-.29A13.47,13.47,0,0,0,109.06,72.75Z" style="fill:#FFC100"></path><path d="M121.14,59.88c0,.08-3.16.93-7.09,1.89s-7.14,1.66-7.16,1.58,3.15-.92,7.09-1.88S121.12,59.8,121.14,59.88Z" style="fill:#FFC100"></path><path d="M106.92,63.37h0s0-.08,2.07-.64c1.34-.35,3.13-.8,5-1.27s3.7-.88,5-1.18c2.11-.47,2.13-.42,2.13-.39h0s0,.07-2.07.63c-1.34.36-3.12.81-5,1.27s-3.69.88-5,1.18A16,16,0,0,1,106.92,63.37Zm14.18-3.48c-.29,0-3,.59-7.12,1.59s-6.8,1.73-7.06,1.86c.29,0,3-.58,7.13-1.59S120.85,60,121.1,59.89Z" style="fill:#FFC100"></path><path d="M104.57,43.27a63.61,63.61,0,0,1-3.39,5.41c-1.94,2.94-3.58,5.29-3.65,5.24s1.45-2.47,3.39-5.41S104.5,43.22,104.57,43.27Z" style="fill:#FFC100"></path><path d="M97.53,53.93h0c0-.14,1.72-2.9,3.39-5.42.94-1.42,1.84-2.75,2.53-3.74,1.06-1.52,1.12-1.52,1.14-1.5h0s.07,0-.93,1.64c-.65,1-1.52,2.37-2.46,3.79s-1.83,2.75-2.52,3.74C97.7,53.81,97.57,53.93,97.53,53.93Zm7-10.64c-.19.17-1.59,2.15-3.62,5.23s-3.32,5.14-3.39,5.37c.19-.16,1.58-2.14,3.62-5.22S104.48,43.53,104.56,43.29Z" style="fill:#FFC100"></path><path d="M88.13,39.8a12.88,12.88,0,0,1,0,2c0,1.24,0,3,0,4.85s0,3.61.06,4.85a14.66,14.66,0,0,1,0,2,11.36,11.36,0,0,1-.2-2c-.08-1.24-.14-3-.14-4.86s0-3.61.13-4.86A12.13,12.13,0,0,1,88.13,39.8Z" style="fill:#FFC100"></path><path d="M88.15,53.54s-.05,0-.1-.55-.08-.88-.12-1.47c-.05-.84-.14-2.58-.14-4.86s.08-4,.13-4.86c0-.59.07-1.09.11-1.47s.08-.55.1-.55h0c.05,0,.07.19,0,2,0,1.17,0,2.94,0,4.85s0,3.54.05,4.77v.08c0,1.84,0,2,0,2Zm0-13.71a18,18,0,0,0-.18,2c0,.83-.13,2.58-.13,4.85s.09,4,.14,4.86a16.64,16.64,0,0,0,.19,2c0-.17,0-1.25,0-2v-.08c0-1.23-.05-2.92-.05-4.77s0-3.68,0-4.85C88.15,41.08,88.17,40,88.13,39.83Z" style="fill:#FFC100"></path><path d="M75.68,55.3c-.07.05-1.61-2.35-3.44-5.34S69,44.49,69.05,44.45s1.62,2.35,3.45,5.35A63,63,0,0,1,75.68,55.3Z" style="fill:#FFC100"></path><path d="M75.68,55.32s-.16-.12-1.07-1.54c-.65-1-1.5-2.37-2.39-3.82C70.65,47.39,69,44.59,69,44.45v0s.07,0,1.09,1.54c.65,1,1.5,2.37,2.38,3.82s1.71,2.82,2.31,3.86c.94,1.63.9,1.65.87,1.67h0ZM69.07,44.47c.06.24,1.26,2.34,3.18,5.48s3.24,5.16,3.42,5.33c-.07-.24-1.26-2.34-3.18-5.48S69.25,44.64,69.07,44.47Z" style="fill:#FFC100"></path><path d="M68.25,61.62a7,7,0,0,1-1.56-.24c-1-.2-2.26-.52-3.69-.94s-2.7-.87-3.6-1.21A7.56,7.56,0,0,1,58,58.59a8.28,8.28,0,0,1,1.52.43c.92.3,2.2.7,3.62,1.12s2.71.77,3.65,1A9.86,9.86,0,0,1,68.25,61.62Z" style="fill:#FFC100"></path><path d="M68.2,61.65l-.38,0c-.29,0-.68-.12-1.13-.22-.65-.13-2-.44-3.69-.94s-3-1-3.61-1.21l-1.07-.44c-.4-.17-.39-.2-.38-.22s.22,0,1.53.42c.74.24,2.12.68,3.62,1.13s2.6.74,3.65,1c1.34.36,1.53.43,1.52.48h0S68.26,61.65,68.2,61.65ZM58,58.6a9.9,9.9,0,0,0,1.42.61c.62.24,1.9.71,3.61,1.21s3,.81,3.68.94a10.47,10.47,0,0,0,1.51.26h0a15.06,15.06,0,0,0-1.48-.44c-1-.28-2.29-.62-3.65-1S60.2,59.27,59.46,59C58.88,58.85,58.1,58.6,58,58.6Z" style="fill:#FFC100"></path><path d="M65,72.89a38,38,0,0,1-4.68.6,37.31,37.31,0,0,1-4.71.3,35.07,35.07,0,0,1,4.68-.61A34.11,34.11,0,0,1,65,72.89Z" style="fill:#FFC100"></path><path d="M55.88,73.83a1,1,0,0,1-.27,0v0a39.32,39.32,0,0,1,4.69-.6,39.75,39.75,0,0,1,4.72-.3h0v0a40.29,40.29,0,0,1-4.69.61C58.52,73.68,56.59,73.83,55.88,73.83Zm-.24,0a43.5,43.5,0,0,0,4.68-.31A46,46,0,0,0,65,72.89a43.61,43.61,0,0,0-4.69.31A39.33,39.33,0,0,0,55.64,73.79Z" style="fill:#FFC100"></path></g><g id="freepik--Character--inject-979"><polygon points="321.8 444.95 329.21 464.08 345.52 460.25 349.11 451.5 343.59 433.36 321.8 444.95" style="fill:#ffbf9d"></polygon><path d="M349.94,449.25l.58,1.45s29,0,31.09,4.61l-49.89,19.33-5.66-16.58C334.79,458.56,342.7,455.93,349.94,449.25Z" style="fill:#455a64"></path><g style="opacity:0.6000000000000001"><path d="M333.13,461.32a2.15,2.15,0,0,0-.52,2.83,2.11,2.11,0,0,0,2.84.5,2.25,2.25,0,0,0,.53-3,2.19,2.19,0,0,0-3-.2" style="fill:#fff"></path></g><g style="opacity:0.6000000000000001"><path d="M331.72,474.64l-1.36-4,48.32-17.07s2.59.09,2.93,1.73Z" style="fill:#fff"></path></g><path d="M350.75,450.77c.08.24-1.1.82-2,2.06s-1.15,2.48-1.41,2.48-.44-1.54.68-3S350.71,450.53,350.75,450.77Z" style="fill:#263238"></path><path d="M356.81,450.87c.14.21-.76,1-1.19,2.36s-.26,2.5-.5,2.58-.93-1.21-.36-2.86S356.71,450.64,356.81,450.87Z" style="fill:#263238"></path><path d="M362.17,455.87c-.2.14-1-.93-.89-2.48s1.05-2.52,1.23-2.36-.25,1.14-.32,2.41S362.4,455.76,362.17,455.87Z" style="fill:#263238"></path><path d="M259.73,325.23c.43,1.14,27.19,31,33.15,39.7,6.74,9.84,8.16,18.16,8.49,20.11,1.86,11.15,3.25,19,8.31,31.15S324.73,454,324.73,454l23.63-6.09s-13.93-59.44-15.19-69.34S329.79,361,324.3,351.9s-29.71-58.77-29.71-58.77l-38.28,16.09Z" style="fill:#263238"></path><path d="M242.57,240.76s7.74.11,8.88.82,5.69,4.21,5.69,5a3,3,0,0,0,.32,1.38s2.86,4,1.57,5.71-2.24,2.27-2.21,2.8-.38,2.37-1.47,2.87a10.78,10.78,0,0,0-2.88,1.84,10.63,10.63,0,0,1-1.73,2.06,10.75,10.75,0,0,1-2.48,1.15,2.92,2.92,0,0,1-2.55,1.57c-1.64-.15-4.63-3.27-5.6-4.43-1.21-1.45-4.29-4-4.69-5.29a14.76,14.76,0,0,0-.92-2.3L227,246.85,238.7,235.1Z" style="fill:#ffbf9d"></path><path d="M257.7,248.6a20.35,20.35,0,0,1-2.46-2.31,19.31,19.31,0,0,1-2.41-2.36,11.74,11.74,0,0,1,4.87,4.67Z" style="fill:#ff9a6c"></path><path d="M238.46,161.84s-8.9,7.54-11,9.43S198,196.14,196.17,206.54c-1.16,6.66,4,11.87,6.77,16.24,2,3.26,14.32,25.66,25.83,26.31.68,0,4.15,4.28,4.15,4.28l12.49-10.65a52.68,52.68,0,0,1-4.73-7c-5-9.38-15.89-24-15.55-24.66,2.43-4.55-3.34-3.47-3.34-3.47l23.94-21.95Z" style="fill:#FFC100"></path><path d="M198.89,199.64s-1.73-3.09,0-5.67S225,171.68,225,171.68s1.19.31,2.06,2.27-27,26.62-27,26.62Z" style="fill:#263238"></path><path d="M207.41,192.32s14,15.79,16,15.27,11.7-7.84,12.14-10.22-13.33-19-13.33-19Z" style="fill:#263238"></path><path d="M187.57,91.83c3.07.73,5.47,3.21,8.28,4.74,5.27,2.86,11.66,2.1,16.68-.23s9.1-6,13.61-9.1,8.09-6.22,14.6-6.81c11.49-1,23,9.11,17.78,17.7l-9.65,3.37a60.17,60.17,0,0,1-25.79,32.32c-2.42,1.47-5.16,2.83-8.17,2.45s-6.07-3.25-5.43-6c-4.78,1-9.7,1.92-14.7,1.17s-10.19-3.54-12.41-8-.26-10.48,4.56-11.35c-4.45-2.73-8.26-7.18-8.54-12S182.57,90.64,187.57,91.83Z" style="fill:#263238"></path><path d="M283.46,72.49c-6.22-1.69-12,.21-17.71,3.25a32.78,32.78,0,0,0-16.23,33.58,25.23,25.23,0,0,0,10.86,16.58c7.83,5,18.5,4.54,26.4-.31s13-13.65,14.27-22.84A30.7,30.7,0,0,0,298,84.15a23.36,23.36,0,0,0-14.53-11.66" style="fill:#263238"></path><path d="M263.37,92.26c1.16-2.33,1.06-5.07,1.68-7.6,1.36-5.57,3.94-10.5,9.42-12.19,5.1-1.57,13.45.3,19.16,2.78a22.62,22.62,0,0,1,9.88,7.9,17.84,17.84,0,0,1,1.71,16.26l-28.5-7c-2.92,2-5.92,4-9.32,4.91a6,6,0,0,1-3.07.19,2.7,2.7,0,0,1-2.06-2.07C262.11,94.29,262.86,93.27,263.37,92.26Z" style="fill:#263238"></path><path d="M257.85,145l5-54.65a4.74,4.74,0,0,1,4.85-4.19l25.76-2.89c8.09.25,12,10.79,11.46,18.86-.65,9-1.81,19.89-3.77,26.38-3.94,13.05-14.39,13.35-14.39,13.35s-.06.52-.78,5.35c0,0-1.31,10-12.46,7.81C266.28,153.6,257.85,145,257.85,145Z" style="fill:#ffbf9d"></path><path d="M300.16,112.56a1.72,1.72,0,0,1-1.88,1.5,1.66,1.66,0,0,1-1.56-1.78,1.75,1.75,0,0,1,1.89-1.51A1.65,1.65,0,0,1,300.16,112.56Z" style="fill:#263238"></path><path d="M301.8,107.49c-.24.19-1.41-.94-3.25-1.19s-3.32.49-3.49.24.19-.49.84-.84a4.8,4.8,0,0,1,2.83-.46,4.49,4.49,0,0,1,2.54,1.22C301.78,107,301.92,107.4,301.8,107.49Z" style="fill:#263238"></path><path d="M284.13,110.14a1.73,1.73,0,0,1-1.89,1.5,1.66,1.66,0,0,1-1.55-1.78,1.74,1.74,0,0,1,1.89-1.51A1.65,1.65,0,0,1,284.13,110.14Z" style="fill:#263238"></path><path d="M284.19,104.44c-.24.2-1.41-.94-3.25-1.19s-3.32.49-3.49.24.19-.49.84-.83a4.73,4.73,0,0,1,2.83-.47,4.49,4.49,0,0,1,2.54,1.23C284.17,103.93,284.31,104.36,284.19,104.44Z" style="fill:#263238"></path><path d="M288.47,119.93a12.12,12.12,0,0,1,3.06-.14c.48,0,.94,0,1.06-.32a2.42,2.42,0,0,0-.12-1.44c-.29-1.2-.59-2.45-.9-3.77-1.24-5.36-2.06-9.74-1.84-9.79s1.39,4.26,2.62,9.62c.29,1.32.58,2.58.84,3.78a2.7,2.7,0,0,1,0,1.88,1.16,1.16,0,0,1-.86.58,3.79,3.79,0,0,1-.82,0A12.7,12.7,0,0,1,288.47,119.93Z" style="fill:#263238"></path><path d="M286.76,141.88a34.19,34.19,0,0,1-17.21-7.2s3.23,9.85,16.75,10.42Z" style="fill:#ff9a6c"></path><path d="M287.09,124.26a3.35,3.35,0,0,0-2.81-1.64,3,3,0,0,0-2.24.83,1.93,1.93,0,0,0-.45,2.18,2.26,2.26,0,0,0,2.33.94,7.25,7.25,0,0,0,2.55-1.08,2.35,2.35,0,0,0,.6-.48.64.64,0,0,0,.09-.68" style="fill:#ff9a6c"></path><path d="M282.88,120.46c.3,0,0,2,1.55,3.67s3.67,1.73,3.65,2c0,.13-.53.32-1.43.22a5,5,0,0,1-3.06-1.56,4.31,4.31,0,0,1-1.17-3.06C282.45,120.89,282.74,120.43,282.88,120.46Z" style="fill:#263238"></path><path d="M285.77,97.11c-.25.47-2.06,0-4.25,0s-4,.31-4.25-.17c-.1-.24.27-.67,1-1a7.07,7.07,0,0,1,3.26-.67,7.2,7.2,0,0,1,3.21.83C285.53,96.43,285.88,96.88,285.77,97.11Z" style="fill:#263238"></path><path d="M302.37,99.37c-.39.37-1.59-.24-3.12-.47s-2.85-.1-3.09-.58c-.1-.23.16-.62.78-.94a4.55,4.55,0,0,1,5,.84C302.42,98.73,302.54,99.18,302.37,99.37Z" style="fill:#263238"></path><path d="M259.12,87.91c3.37-7.43,15.81-16.79,23.82-15.28l12,9.26a12.54,12.54,0,0,1-9.57,8.54c-2.36.42-5.13.29-6.72,2.09s-1.15,4.86-2.69,6.77c-2.12,2.66-7,1.95-8.69,4.89-.75,1.28-.63,2.94-1.4,4.21-1,1.69-5.82,3.43-7.62,2.61s-1.44-4-1.85-5.74a9,9,0,0,1,.42-6C258.08,95.61,257.52,91.46,259.12,87.91Z" style="fill:#263238"></path><path d="M263.59,113.23c.13-1-.7-3.49-1.66-3.78-2.56-.76-7.31-1.2-8.27,5.45-1.3,9.09,8.09,8.52,8.15,8.26S263.13,116.66,263.59,113.23Z" style="fill:#ffbf9d"></path><path d="M259.53,119.32s-.18.09-.46.17a1.64,1.64,0,0,1-1.19-.14c-.91-.49-1.5-2.13-1.31-3.78a5.29,5.29,0,0,1,.77-2.2,1.83,1.83,0,0,1,1.36-1,.82.82,0,0,1,.88.56c.08.28,0,.45,0,.47s.22-.12.2-.51a1,1,0,0,0-.28-.62,1.23,1.23,0,0,0-.84-.36,2.24,2.24,0,0,0-1.85,1.18,5.24,5.24,0,0,0-.91,2.45c-.21,1.84.48,3.69,1.74,4.25a1.68,1.68,0,0,0,1.48,0C259.48,119.54,259.55,119.34,259.53,119.32Z" style="fill:#ff9a6c"></path><path d="M292.56,78.87c.48,3.8,5.66,9.12,7.86,12.25,4.19,6,4.95,7.91,3.7,20.24,2.65-4,4.76-8,5.06-12.88a20,20,0,0,0-4-13.6,15.6,15.6,0,0,0-12.61-6" style="fill:#263238"></path><path d="M254.48,87.34a9.48,9.48,0,0,0,1.51.54c.49.16,1.1.34,1.82.5s1.52.39,2.44.52a43.13,43.13,0,0,0,6.47.7,49.17,49.17,0,0,0,7.95-.43,48.36,48.36,0,0,0,7.76-1.81,44.66,44.66,0,0,0,6-2.47c.85-.39,1.56-.83,2.2-1.19s1.18-.7,1.6-1a10.08,10.08,0,0,0,1.31-.94,9,9,0,0,0-1.42.76c-.44.26-1,.58-1.64.9s-1.37.75-2.21,1.11a49.36,49.36,0,0,1-6,2.34,52.85,52.85,0,0,1-7.69,1.75,53.22,53.22,0,0,1-7.86.47,47.11,47.11,0,0,1-6.42-.58c-.91-.11-1.72-.3-2.43-.44s-1.33-.28-1.83-.41A8.25,8.25,0,0,0,254.48,87.34Z" style="fill:#455a64"></path><path d="M252.89,93.79a3.74,3.74,0,0,0,1,.36,27.49,27.49,0,0,0,2.91.67,36.71,36.71,0,0,0,19.39-1.88A24.88,24.88,0,0,0,279,91.73a3.77,3.77,0,0,0,.94-.55c0-.08-1.44.59-3.8,1.4a41.36,41.36,0,0,1-19.2,1.85C254.42,94.09,252.91,93.7,252.89,93.79Z" style="fill:#455a64"></path><polygon points="155.92 343.89 136.24 335.89 127.75 350.9 131.88 359.82 150.14 366.08 155.92 343.89" style="fill:#ffbf9d"></polygon><path d="M133,362.05l-1.5-.59s-20.27,21.82-25.21,20.16l20.18-51.36L143,337.79C136.53,344,133,351.84,133,362.05Z" style="fill:#455a64"></path><g style="opacity:0.6000000000000001"><path d="M135.6,340.8a2.25,2.25,0,0,0-1.79-2.4,2.14,2.14,0,0,0-2.36,1.78,2.36,2.36,0,0,0,1.9,2.53,2.23,2.23,0,0,0,2.26-2.12" style="fill:#fff"></path></g><g style="opacity:0.6000000000000001"><path d="M126.48,330.26l4,1.81-20.81,48.57s-1.87,1.89-3.35,1Z" style="fill:#fff"></path></g><path d="M131.3,361.58c-.25-.11.13-1.41-.17-3s-1.09-2.64-.9-2.83,1.46.76,1.8,2.65S131.5,361.73,131.3,361.58Z" style="fill:#263238"></path><path d="M127,366.08c-.26,0-.26-1.3-1-2.57s-1.72-2-1.61-2.22,1.57.16,2.42,1.77S127.23,366.17,127,366.08Z" style="fill:#263238"></path><path d="M119.45,366.56c0-.25,1.4-.09,2.5,1.1s1.17,2.58.93,2.6-.69-1-1.6-2S119.37,366.82,119.45,366.56Z" style="fill:#263238"></path><path d="M145.78,339.09s15.36,4.19,25.9,6.15,22.64,4.78,31,7c8.81,2.29,12.72,3.59,12.72,3.59s2,2.61,3.5-7.74,6.1-47.73,6.1-47.73l5.06-16.08,30.38-5.32,16.12,21.27s-14.57,47.3-19.53,57.09-12,38.32-29.14,33.87c-10.14-2.63-89.33-27.5-89.33-27.5Z" style="fill:#263238"></path><path d="M223.39,313.78l-.13,1.06-.33,2.63,23.27-11.21s.15,10.69,22,19l2.78-4.84V306.26l-16.89-13.13H242.41l-18.61,14" style="opacity:0.30000000000000004"></path><path d="M270.41,320.55a72.49,72.49,0,0,1-2.56,8.15,71.37,71.37,0,0,1-3.05,8,70.07,70.07,0,0,1,2.56-8.15A67,67,0,0,1,270.41,320.55Z" style="fill:#455a64"></path><path d="M223.88,365.86a37.35,37.35,0,0,0-3.49-5.44,37.33,37.33,0,0,0-4.76-4.36,5.42,5.42,0,0,1,1.7.91,17,17,0,0,1,3.46,3.12,17.56,17.56,0,0,1,2.49,3.93A5.55,5.55,0,0,1,223.88,365.86Z" style="fill:#455a64"></path><path d="M226.55,272.74s-5.06,13.2-4.88,20.65-2.73,22.38-2.73,22.38,27.33-14.67,29.37-16.45c0,0-2,14.72,21.22,21.58l2,.77,7.13-21.5a68.35,68.35,0,0,0,6.19-12c1.88-5.42,4.5-15.41,4.5-15.41L237.47,258Z" style="fill:#455a64"></path><path d="M289.38,287.64s12.76,17.61,12.94,20.49l-32.44,6.43-3-12.36-1.31-12.87Z" style="fill:#455a64"></path><path d="M239.86,171.23c.34.94,7,23.93,7,23.93l4,33.37s-6.73,19.75-12.4,26.21c-17.58,20.09-15.68,25.57-15.68,25.57s29.74-8,44.39-5.8,10.66,27.39,32,21.41L299,275.38s2.68-18.95,3.35-25.57-.24-30.41-.24-30.41,7.33-23.3,7.33-30.85,1.75-7.88-4.29-18.27-15-24.24-15-24.24l-33.63-2.84-18.64,19.21Z" style="fill:#e0e0e0"></path><path d="M281.7,292.51c.13,0-1.75,6.24-4.21,13.83s-4.56,13.72-4.7,13.67,1.75-6.23,4.21-13.83S281.56,292.46,281.7,292.51Z" style="fill:#263238"></path><path d="M238.71,172.17c-4.43,1.19-8.35,2.56-13.19,0s-8.89-7.36-9-12.84c-.06-4.48-.07-12.74,3.53-15.41s20.16-5.39,29.43-5.36c35.69.11,40.29,6,46,8.93a5.33,5.33,0,0,1-2.15,5.57" style="fill:#FFC100"></path><path d="M235.67,165.5s1,19.66,2.47,27.09,7.38,29.67,7.38,29.67-3.28,1.23-2.79,5.68c0,0-3.55,3.09-3.95,9.89s1.57,9.76,1.57,9.76l-3.84,7.72,64.36,12.17,1.08-7.27s4.66,3,5.51-11-.82-24.45-.08-37.3,5.53-17.86,4.3-29.47C311,175.62,289.35,147,289.35,147s-31.46-5.35-34.62-1.91S235.67,165.5,235.67,165.5Z" style="fill:#FFC100"></path><g style="opacity:0.30000000000000004"><path d="M304,226.09c-15.48-8.7-26.72-23.17-37.53-37.27L265.33,186c1.11,5.89,1.42,14.1,2.54,20a72.63,72.63,0,0,0,3.66,14.11,24.45,24.45,0,0,0,8.74,11.42c7,4.61,16.5,3.85,23.85-.1,1.08-.58,2.25-1.45,2.23-2.67S305.07,226.71,304,226.09Z"></path></g><path d="M234.28,178.25a10.43,10.43,0,0,1,.6,1.69c.35,1.09.82,2.69,1.37,4.67,1.11,4,2.45,9.48,3.87,15.59s2.72,11.64,3.75,15.61c.51,1.93.93,3.51,1.24,4.71a11.9,11.9,0,0,1,.41,1.74,11.81,11.81,0,0,1-.6-1.69c-.37-1.09-.84-2.68-1.4-4.66-1.13-4-2.5-9.48-3.91-15.59s-2.7-11.64-3.71-15.62c-.5-1.92-.91-3.51-1.22-4.71A12.51,12.51,0,0,1,234.28,178.25Z" style="fill:#263238"></path><path d="M265.5,233.75a26.55,26.55,0,0,1-3.27-1.23c-2-.79-4.76-1.89-7.89-2.86a49.52,49.52,0,0,0-8.18-1.79c-2.13-.26-3.46-.28-3.46-.37a2.82,2.82,0,0,1,.94-.08,20.82,20.82,0,0,1,2.56.09,39.56,39.56,0,0,1,8.29,1.66,69.24,69.24,0,0,1,7.89,3c1,.45,1.77.82,2.31,1.1A3.61,3.61,0,0,1,265.5,233.75Z" style="fill:#263238"></path><path d="M305.27,259.42a4.28,4.28,0,0,1-.58.35,10.73,10.73,0,0,1-1.82.75,18.56,18.56,0,0,1-7.17.46,230.88,230.88,0,0,1-23.22-4.74c-9-2.19-17.11-4.25-23-5.61l-7-1.56-1.91-.42a3.36,3.36,0,0,1-.66-.18,3.14,3.14,0,0,1,.68.08l1.93.32c1.67.29,4.07.77,7,1.4,5.93,1.27,14.07,3.28,23.05,5.47s17.16,4,23.14,4.87a19.12,19.12,0,0,0,7.08-.29A23.9,23.9,0,0,0,305.27,259.42Z" style="fill:#263238"></path><g style="opacity:0.30000000000000004"><path d="M227.92,172.83c2.38,4,7.5,5.94,12.14,5.33s8.78-3.37,11.94-6.83,5.46-7.59,7.73-11.68l6.17-11.12c-7.32,3.05-9.81,11.52-15.35,17.2s-16.27,9.44-22.63,7.1"></path></g><path d="M266.52,148.59s-.73.18-2,.74a14.62,14.62,0,0,0-4.52,3.43,41.85,41.85,0,0,0-4.84,7,47,47,0,0,1-2.83,4.21,21.16,21.16,0,0,1-3.91,3.82,30.22,30.22,0,0,1-9.38,4.72,25,25,0,0,1-8.49,1.18,12.17,12.17,0,0,1-5.58-1.48,6.62,6.62,0,0,1-1.27-.93,2.54,2.54,0,0,1-.38-.4,18.82,18.82,0,0,0,1.75,1.16,12.65,12.65,0,0,0,5.5,1.28,25.19,25.19,0,0,0,8.33-1.27,30.59,30.59,0,0,0,9.21-4.67,21.42,21.42,0,0,0,3.82-3.72,47.6,47.6,0,0,0,2.82-4.15,40.4,40.4,0,0,1,5-7,14.13,14.13,0,0,1,4.7-3.36,9.15,9.15,0,0,1,1.5-.47A2,2,0,0,1,266.52,148.59Z" style="fill:#263238"></path><path d="M260.76,225.38c-.07.16-3.33-1.38-7.65-2.23a77,77,0,0,0-7.93-.88,8.27,8.27,0,0,1,2.35-.19,29.41,29.41,0,0,1,5.68.56,28.85,28.85,0,0,1,5.45,1.66A8.68,8.68,0,0,1,260.76,225.38Z" style="fill:#263238"></path><path d="M243,227.38c.07.07-.77,1-1.77,2.64a19.77,19.77,0,0,0-1.48,3.08,21.77,21.77,0,0,0-1,4.05,21.32,21.32,0,0,0-.16,4.17,20.22,20.22,0,0,0,.55,3.38c.48,1.89,1,3,.94,3a3.32,3.32,0,0,1-.44-.74,7.08,7.08,0,0,1-.41-.93,12.82,12.82,0,0,1-.45-1.26,17.38,17.38,0,0,1-.66-3.44,19.55,19.55,0,0,1,.11-4.29,20.16,20.16,0,0,1,1.1-4.14,17.53,17.53,0,0,1,1.62-3.11,12.25,12.25,0,0,1,.78-1.08,8.48,8.48,0,0,1,.66-.77C242.77,227.57,243,227.36,243,227.38Z" style="fill:#263238"></path><g style="opacity:0.30000000000000004"><path d="M234.59,178.76a19.68,19.68,0,0,0,3.4,13.92h0C237,188,235.63,183.46,234.59,178.76Z"></path></g><path d="M340.48,208.44s5.27-6.17,6.6-6.62,7.22-1.77,7.88-1.22a3.09,3.09,0,0,0,1.33.67s5.11.33,5.66,2.55.34,3.33.78,3.66,1.67,1.89,1.33,3.11a11.48,11.48,0,0,0-.44,3.55,10.77,10.77,0,0,1,.5,2.78,11.39,11.39,0,0,1-.72,2.77,3.08,3.08,0,0,1-.45,3.11c-1.22,1.22-5.73,1.55-7.32,1.56-2,0-6.07.8-7.41.24a16.44,16.44,0,0,0-2.47-.8L335,225.08l-1.66-17.3Z" style="fill:#ffbf9d"></path><path d="M356.93,201.48a23.19,23.19,0,0,1-3.51.42,22.36,22.36,0,0,1-3.51.38,8.47,8.47,0,0,1,3.45-.9A8.38,8.38,0,0,1,356.93,201.48Z" style="fill:#ff9a6c"></path><path d="M264,182.13c4,10.83,7.79,25.38,10.6,33.79,3.81,11.43,15.63,15.68,21.67,16.14,7.73.58,45.4-6.55,45.4-6.55l-1.74-19-4.27.11a5.72,5.72,0,0,0-3-1.44c-7.93-1.87-29.3-.31-29.3-.31s-5.75-23.11-7-34.46c-1-9-1-23.68-15.07-24.53-9.15.43-15.06,3.81-17.29,13.61" style="fill:#FFC100"></path><path d="M264,159.53s0-.14.08-.4.16-.67.29-1.18a19.72,19.72,0,0,1,1.76-4.37,13.72,13.72,0,0,1,5.28-5.37,22.3,22.3,0,0,1,9.87-2.44h0l1.53.19a8.4,8.4,0,0,1,1.56.29l1.58.44,1.53.71a12.92,12.92,0,0,1,5,4.92,23.71,23.71,0,0,1,2.63,7.23,74,74,0,0,1,1.13,8.18,161.08,161.08,0,0,0,2.91,17.77c1.3,6.2,2.78,12.67,4.42,19.35l-.26-.18c5.12-.35,10.45-.59,15.92-.62,2.74,0,5.52,0,8.33.23a38.23,38.23,0,0,1,4.22.51,13.37,13.37,0,0,1,2.1.51,5.35,5.35,0,0,1,1.9,1.17l-.19-.07,4.27-.11h.24l0,.25,0,.26c.59,6.41,1.17,12.7,1.72,18.7l0,.23-.23,0c-7.65,1.43-15.09,2.73-22.26,3.88q-5.39.87-10.55,1.57c-3.45.47-6.82.88-10.14,1.06a22.36,22.36,0,0,1-9.5-1.65,28.77,28.77,0,0,1-7.87-4.54,23,23,0,0,1-5.39-6.5,36.76,36.76,0,0,1-2.74-7.26c-2.84-9.43-5-17-6.64-22.2-.82-2.6-1.49-4.59-1.95-5.94-.22-.66-.4-1.17-.52-1.53a5.06,5.06,0,0,1-.16-.52s.07.16.2.5.33.86.57,1.52c.49,1.34,1.19,3.32,2,5.91,1.72,5.16,3.91,12.75,6.79,22.16a36.86,36.86,0,0,0,2.75,7.18,22.52,22.52,0,0,0,5.32,6.37,28.72,28.72,0,0,0,7.76,4.45,22.15,22.15,0,0,0,9.33,1.59c3.29-.18,6.66-.6,10.1-1.07s6.95-1,10.53-1.59c7.16-1.16,14.6-2.46,22.24-3.89l-.21.27c-.55-6-1.13-12.28-1.72-18.69l0-.26.26.23-4.26.11h-.11l-.08-.08a6.64,6.64,0,0,0-3.74-1.54,36.32,36.32,0,0,0-4.16-.5c-2.78-.2-5.55-.24-8.28-.24-5.46,0-10.78.26-15.89.6l-.21,0-.05-.21c-1.64-6.69-3.11-13.16-4.39-19.37a156.74,156.74,0,0,1-2.88-17.83,74.73,74.73,0,0,0-1.1-8.14,23.43,23.43,0,0,0-2.55-7.13,12.64,12.64,0,0,0-4.89-4.8l-1.48-.7-1.54-.44a7.37,7.37,0,0,0-1.53-.29l-1.51-.2h0a22.13,22.13,0,0,0-9.77,2.35,13.6,13.6,0,0,0-5.25,5.24,20.45,20.45,0,0,0-1.82,4.31l-.33,1.17Z" style="fill:#263238"></path><path d="M298.27,216a19.44,19.44,0,0,0,5-11.61,5.13,5.13,0,0,1,.08,1.92,14.38,14.38,0,0,1-1.12,4.51,14.19,14.19,0,0,1-2.5,3.92A4.86,4.86,0,0,1,298.27,216Z" style="fill:#263238"></path><path d="M337,226a88.26,88.26,0,0,1-1.07-9.59,91.09,91.09,0,0,1-.54-9.64,87.31,87.31,0,0,1,1.06,9.6A89.66,89.66,0,0,1,337,226Z" style="fill:#263238"></path></g></svg>