<svg xmlns="http://www.w3.org/2000/svg" viewBox="0 0 500 500"><g id="freepik--Water--inject-873"><g id="freepik--Sea--inject-873"><g id="freepik--sea--inject-873"><ellipse cx="250" cy="321.34" rx="229.67" ry="136.34" style="fill:#FFC100"></ellipse><g style="opacity:0.5"><ellipse cx="250" cy="321.34" rx="229.67" ry="136.34" style="fill:#fff"></ellipse></g><path d="M440.2,395.25c-4.31-2.11-10.69-1.53-16.32-1.67-7.24-.18-14.7-1.94-18.71-5.42s-3.45-8.78,2.31-11.31a24.39,24.39,0,0,1,8.19-1.68,35.61,35.61,0,0,1,13.88,2c2.57.95,4.87,2.24,7.8,2.79a20.2,20.2,0,0,0,13.28-2.46c3.41-2.05,5.37-4.72,7.29-7.33a5.12,5.12,0,0,1,4-2.37,4.19,4.19,0,0,1,3.24,1.32,100.65,100.65,0,0,0,8.51-16.86,18,18,0,0,1-6,1.4c-3.59.25-7.48-.76-9.12-2.61a6.3,6.3,0,0,1-1.3-3c-.36-1.68-.73-3.36-1.09-5-.49-2.24-1-4.53-2.71-6.56a12.9,12.9,0,0,0-8.78-4.08c-2.23-.16-5.06,0-6.18-1.1s.6-2.46,2-3.51a12.36,12.36,0,0,0,4.44-5.77c.48-1.41.58-2.9,1.56-4.23,1.47-2,5-3.46,8.81-3.58s7.6,1.06,9.48,3a8.16,8.16,0,0,1,2,4.85c.73,4.46,1.44,8.91,2.18,13.37.42,2.56.87,5.21,3,7.46.93.95,2.16,1.81,3,2.78l.71.79c.32-1,.61-2.05.89-3.08-1.3-1.45-2.72-3.85-1.84-5a2.89,2.89,0,0,1,2.24-.65,6.79,6.79,0,0,1,.92.13c.23-1.13.43-2.27.61-3.4-1.57-1.35-2.86-2.91-4.41-4.23a2.61,2.61,0,0,1-.4-.63,10.53,10.53,0,0,1-1.62-7.22c.26-1.7.87-3.65-1.05-5a10.4,10.4,0,0,1-1.7-1.11c-1.21-1.28,1-2.8,3.42-3.28,2-.4,4.27-.44,6.2-.92a83.84,83.84,0,0,0-2.53-12.77l-.4-.13a2.58,2.58,0,0,1-1.56-3.34c.13-.47.3-.95.44-1.42-.38-1.1-.78-2.2-1.2-3.29a24.05,24.05,0,0,0-5-2.31,40.31,40.31,0,0,1-8.85-.58c-2.77-.64-5.25-2-5.41-3.77-.22-2.53,4.26-4.3,8.36-5.24,1.58-.36,3.2-.66,4.83-.93-1-1.71-2-3.4-3-5.08-.72.4-1.46.78-2.21,1.15a79.39,79.39,0,0,1-10,4.38c-3,1.38-4.16,3.95-2.68,6a6.28,6.28,0,0,1,.84,1.26c.55,1.76-2.72,3-5.12,4.11-3.62,1.71-6,4.28-6.35,7-.25,1.7.24,3.47-.83,5.05s-4.67,2.77-7,1.71c-2.68-1.23-.77-3.84-2.35-5.6-.68-.75-2-1.3-2.4-2.13-.58-1.13.74-2.25,1.87-3.22,2.44-2.06,4.43-4.41,4.51-6.89.13-3.35-3.2-6.4-6.58-9.14a4.86,4.86,0,0,1-1.48-1.58,2.21,2.21,0,0,1,.25-1.76c2.17-4.48,9.58-7.34,16.46-9.77A60.06,60.06,0,0,1,455,260.08c-.78-.92-1.57-1.83-2.38-2.73l-.91.11a65.78,65.78,0,0,0-22,6.55,16.59,16.59,0,0,0-4.47,3.1c-1.91,2.06-2.21,4.63-5.06,6.27-3.88,2.24-10.28,1.63-15.61.86a10,10,0,0,1-3.24-.84c-1.89-1-1.11-2.9.29-4.19a16,16,0,0,1,4.22-2.65c1.81-.79,3.9-1.39,5.58-2.28,3.16-1.68,4.53-4.41,3.43-6.82a4,4,0,0,0-1.92-1.93c-1-.48-2.34-.68-3.43-1.12a4.57,4.57,0,0,1-3-4.23c-.12-2.59,1.26-5.41,5-6.83,4-1.52,9.62-1,13.76-2.39a21.07,21.07,0,0,0,5.71-3.4q-4.61-3.5-9.65-6.85a3,3,0,0,1-.81,4.39c-3,2.65-6.53,1.56-10.05,2.62a25,25,0,0,1-6.44,1.22c-1.87.05-5.12-.18-6.56-1.57s-1-4-2.47-5.55a18.23,18.23,0,0,0-4.51-3.33c-1.75-1-3.73-1.91-4.65-3.23a1.45,1.45,0,0,1-.17-.26,3.86,3.86,0,0,1,.26-3.91c1.34-2.41,4.05-4.45,6.43-6.58-1.26-.59-2.53-1.17-3.8-1.74-2.82,2-6.64,3.59-8.68,5.89a5.19,5.19,0,0,0-.62,6.7c1.59,2.35,4.94,4.13,7.8,6s5.47,4.27,5,6.78a6.14,6.14,0,0,1-1.83,3,19.21,19.21,0,0,1-10,5.11c-4.3.84-9.47.42-12.72-1.41-1.12-.62-2-1.38-3-2.07-3.42-2.28-8.69-3.61-13.94-3.51s-10.33,1.64-13.48,4.06c-1.94,1.48-2.45,3.45-4.29,5s-4.72,1-7.34,1a4.05,4.05,0,0,1-1.67-.25c-.94-.45-.49-1.34.16-1.94,4.89-4.6,16.5-6.43,18.92-11.65.81-1.78.4-3.72,1.68-5.4,1.51-2,5-3.16,8.17-4.4s6.28-2.92,6.35-5.1c.09-2.61-4.22-4.56-5.27-7.08-1.15-2.75,1.76-5.52,5.17-7.55a38.21,38.21,0,0,1,5.4-2.66c-2-.7-4.1-1.37-6.16-2a9.94,9.94,0,0,1-3,2.2L347.1,208c-1.08.61-2.22,1.26-2.59,2.11-.91,2.09,3,3.72,4.92,5.58a3.74,3.74,0,0,1,.74,5,13.68,13.68,0,0,1-4.73,3.81,19.74,19.74,0,0,1-10.66,1.41c-3.12-.64-6-1.85-9.32-1.74-1.74,0-3.62.45-5.12-.06-2.26-.77-1.49-2.73-2-4.23s-2.74-2.8-3.64-4.31c-1.25-2.14.26-4.53,2.83-6.22s6.08-2.78,9.49-3.84,6.9-2.19,9.45-3.87c2.14-1.43,3.57-3.23,6.1-4.43l.71-.3c-2.76-.72-5.53-1.42-8.32-2.08-.26,1.75-2.19,3.39-4.53,4.56-2.76,1.4-6.13,2.35-9.11,3.58a28.73,28.73,0,0,0-8.29,5c-1.87,1.68-3.29,3.61-3.23,5.62.07,2.49,2.38,4.79,3.06,7.25s-.46,5.33-3.19,7.42a13,13,0,0,1-9.51,2.41c-5.25-.89-7.26-4.48-10.35-7.09a3.07,3.07,0,0,1-.39-.64,10.51,10.51,0,0,1-1.63-7.21c.26-1.71.87-3.65-1-5a11,11,0,0,1-1.71-1.11c-1.21-1.27,1-2.8,3.42-3.28s5.11-.44,7.22-1.22c3.07-1.13,3.76-3.58,3.23-5.66a5.78,5.78,0,0,1-.45-3c.39-1.4,2.18-2.5,4.06-3.41a42.17,42.17,0,0,1,8.85-2.95q-4.23-.7-8.49-1.29a22,22,0,0,0-2,1.17,20,20,0,0,1-3.87,2.36,7.78,7.78,0,0,1-5.29.23,2.59,2.59,0,0,1-1.57-3.35c.18-.63.44-1.27.56-1.91q-3.28-.35-6.58-.65a4,4,0,0,1,1.37,2.3c.36,2.49-2.23,5.31.37,7.31,1.79,1.38,5.61,1.82,6.41,3.48.54,1.15-.66,2.33-2.15,3.14a19.51,19.51,0,0,1-8.09,2.11c-3,.15-5.91-.26-8.87-.32a53.39,53.39,0,0,0-9.23.74c-3.85.6-7.93,1.6-9.82,3.65-2.66,2.86-.33,7-4.58,9.18-3,1.5-7.65,1-11.05-.1s-6.15-2.88-9.65-3.94a35,35,0,0,0-9.29-1.24,4.8,4.8,0,0,0-1.22.14c-2.11.8-5,.83-6.33-.4s-.23-3.21,1.07-4.45c1.86-1.78,5.14-2.94,8.61-3.49a52,52,0,0,1,10.68-.33c5,.27,10.3.82,14.74-.51a17.24,17.24,0,0,0,5-2.47,21.37,21.37,0,0,0,6.26-6.34c1.41-2.3,2.12-4.79,4.2-6.92a13.74,13.74,0,0,1,4-2.7c-2.74-.12-5.49-.2-8.24-.26a8.46,8.46,0,0,0-3.49,5.22c-.24,1.69.24,3.46-.83,5s-4.67,2.77-7,1.72c-2.67-1.24-.77-3.84-2.35-5.6-.67-.75-2-1.31-2.41-2.13-.56-1.13.75-2.26,1.88-3.23q.63-.53,1.2-1.08c-3.51,0-7,.13-10.53.27a5.22,5.22,0,0,0,1.43,6.12c1,.94,2.28,1.77,2.84,2.81,1.06,2-1.24,4.25-4.39,5.34s-7,1.33-10.62,1.56-7.46.47-10.59,1.6a20,20,0,0,0-6.91,4.5c-1.36,1.23-2.74,2.54-3,4s.66,2.77.29,4.13-2,2.61-3.84,3.56c-2.85,1.47-3.95,1.7-7.62,2.57,0,0-1.14.21-1.48.33-.66.21-2.09.48-3.31.73-5.87,1.22-9.94,2.39-16.07,1.74-3.33-.36-6.72-1.29-8.28-3a3.92,3.92,0,0,1-.89-3.63c1.1-5.24,8.62-9.1,15.63-12.47l18.52-8.89c5.22-2.51,10.78-5.35,12.41-9.08-1.85.2-3.69.41-5.54.63a6.88,6.88,0,0,1-3.2,2.61,26.85,26.85,0,0,1-10.86,1.23,15.56,15.56,0,0,1-3.3-.62,5.2,5.2,0,0,1-1-.5q-4.09.7-8.14,1.52l.35.2c2.67,1.31,7.76.85,9,2.74.6.89-.12,1.9-1,2.73-4.89,4.68-14.18,7.12-21.26,10.74-2.47,1.28-4.76,2.8-5.52,4.66-.46,1.12-.33,2.31-.73,3.44a4.22,4.22,0,0,1-3.5,2.6c-2.84.41-5.22-1.18-7.47-2.24-4.34-2.07-10.33-2.57-15.12-4.27-2.7-.95-6.15-2.74-7.78-5.31q-3.2,1.25-6.33,2.57a29.38,29.38,0,0,0,7.95,3.95c2.39.8,5.35,1.71,5.44,3.29s-3,2.63-5.12,3.69c-4.31,2.13-6,5.86-3.93,8.91.9,1.33,2.42,2.55,2.68,4s-.87,2.86-2.49,4c-1.33.89-2.82,1.28-4.17,2.07a33.14,33.14,0,0,1-4.41,2.23,39.38,39.38,0,0,1-9.6,2.51c-6,.85-12.16.36-18.18.68a23.58,23.58,0,0,1-12.49-2.61,8.88,8.88,0,0,1-4.43-5.06q-3.63,2.74-7,5.59a6,6,0,0,1,.44,5.67c-1.41,3.25-5.05,6-8.69,8.64-2.91,2.09-5.94,4.23-7.31,6.8s-.7,5.72,2.9,7.43A21.68,21.68,0,0,0,57,273.37a59.69,59.69,0,0,0,9.92-.28c3.45-.38,7.05-1.06,10.39-.41,4,.77,6.31,3.31,6.22,5.73s-2.22,4.66-4.87,6.51a22.55,22.55,0,0,1-5.92,3A26.79,26.79,0,0,1,56,287.63c-4.17-1.59-6.87-4.22-11-5.82s-8.77-1.92-13.63-2.22c-.47.87-.92,1.74-1.36,2.62h.66c7.24.18,14.7,1.95,18.71,5.42S52.79,296.42,47,299a24.15,24.15,0,0,1-8.19,1.68,35.56,35.56,0,0,1-13.87-2c-.45-.16-.89-.34-1.32-.52-.3,1-.58,2-.83,3.06,1.31,1.12,1.61,2.55,2.82,3.7,3.15,3,11.67,3.52,13.4,6.92,1.34,2.63-2.58,5.24-6.85,6.47-3.88,1.11-8.31,1.62-11.93,3a81.93,81.93,0,0,0,.51,9.25c1.58,1.58,2.45,3.46,1.54,5.2a4.33,4.33,0,0,1-.64.89,87.24,87.24,0,0,0,3.7,13.56,20.34,20.34,0,0,1,6.27,1c3.4,1.15,6.15,2.87,9.65,3.93a34.18,34.18,0,0,0,9.29,1.25,4.85,4.85,0,0,0,1.22-.15c2.11-.79,5-.83,6.33.4s.22,3.22-1.07,4.45c-1.87,1.78-5.15,2.94-8.62,3.5a52,52,0,0,1-10.67.33c-1.9-.11-3.85-.25-5.78-.31,1,1.73,2,3.45,3.07,5.17l.39-.15c3.15-1.08,7-1.32,10.61-1.55s7.46-.48,10.59-1.6a20.3,20.3,0,0,0,6.91-4.5c1.36-1.24,2.75-2.54,3-4s-.65-2.76-.29-4.12,2-2.61,3.85-3.57c2.85-1.47,4-1.69,7.63-2.56,0,0,1.14-.21,1.47-.32.66-.22,2.09-.49,3.32-.74,5.86-1.22,9.93-2.39,16.06-1.74,3.33.35,6.72,1.29,8.29,3a3.93,3.93,0,0,1,.87,3.64c-1.09,5.23-8.6,9.1-15.61,12.47l-18.53,8.89c-5.66,2.72-11.73,5.84-12.74,10.05-.79,3.26,1.68,6.68,0,9.8a8.07,8.07,0,0,1-3.46,3.05c1.22,1.11,2.46,2.21,3.74,3.31,1-1.14,2.34-2,3.15-3.31,1.24-2,1.24-4.51,1.17-6.79-.08-2.5-.19-5.16,1.09-7.31a7,7,0,0,1,3.42-3,26.87,26.87,0,0,1,10.86-1.23,14.74,14.74,0,0,1,3.3.62c3.25,1.17,3,4,1.12,6s-4.79,3.53-6,5.64-.41,4.16,1.18,6A24.26,24.26,0,0,0,87,400.62a8.22,8.22,0,0,1,2.66,1.92,2.65,2.65,0,0,1,.14,2.53c-1,2.54-3.66,4.73-6.57,6.72-.89.6-1.81,1.19-2.76,1.76q1.86,1.21,3.8,2.41l.63-.37a26.48,26.48,0,0,0,8.51-7.68,23.54,23.54,0,0,1,2.43-3.56,12.43,12.43,0,0,1,4.05-2.51c3.9-1.7,8.11-3.07,12.35-2.74a1.44,1.44,0,0,1,1,.34,1.38,1.38,0,0,1,.28.79,9.8,9.8,0,0,1-3,8.26c-2,1.89-4.74,2.81-7.38,3.68a84.09,84.09,0,0,0-14,5.79c-.27.15-.52.31-.78.48,1.23.71,2.45,1.42,3.7,2.12a25.19,25.19,0,0,1,6.14-2.83c4.79-1.56,10.26-2.65,13.93-5,4.23-2.72,5.21-6.58,6.61-10.15a14,14,0,0,1,9.59-9c1.9-.54,4.49-.69,5.83.25,1.11.76.82,1.93,0,2.83s-2,1.64-2.69,2.56a1.27,1.27,0,0,0-.3,1.31c.39.82,2.13,1.19,3.62,1.17s3-.29,4.46-.16c3.48.27,7.13-.58,9.75.77a3.54,3.54,0,0,1,2.14,4,10.31,10.31,0,0,1-2.47,4l-7.1,8.56c-1.7,2.05-3.94,4.35-7.82,4.73-3.7.38-7.5-1.18-11.07-.55a7.61,7.61,0,0,0-5.31,3.55c-1,1.53-1.53,3.19-3.18,4.5-.14.11-.3.2-.45.31l3.28,1.4.4-.27c1.94-1.48,2.46-3.45,4.29-5s4.72-1,7.34-1a4.05,4.05,0,0,1,1.67.25c.94.45.49,1.33-.16,1.94-2.38,2.23-6.35,3.82-10.07,5.45,1.4.57,2.82,1.14,4.24,1.69,2.47-1.22,5.19-2.28,7.69-3.47,7.74-3.74,13.39-8.91,15.89-14.54a31.59,31.59,0,0,1,2.08-4.57,12.19,12.19,0,0,1,3.78-3.62,15.57,15.57,0,0,1,7.79-2.35c3-.08,6.2,1,7,2.63,1.55,3.07-4.78,5.74-4.82,8.92,0,2.36,3.43,4.71,1.78,6.88s-8,2.42-10,4.65c-1.32,1.43-.39,3.22,1.14,4.58s3.65,2.48,5,3.91,2.86,3.94,1.95,5.14a2.91,2.91,0,0,1-2.24.66c-4.09-.31-6.3-3.8-10.39-3.64a12,12,0,0,0-4.31,1.16c-.56.24-1.12.49-1.66.75q3.42,1,6.88,2a11.1,11.1,0,0,1,6.12,1.65q5.86,1.51,11.85,2.81c-.14-.82-.27-1.64-.4-2.46-.42-2.56-.87-5.21-3-7.45-.94-1-2.16-1.82-3-2.79-1.34-1.48-2.29-2.39-1.88-4a6.24,6.24,0,0,1,.44-.76c1.61-1.86,5.2-3.09,8.79-3.33s7.48.77,9.11,2.63a6.15,6.15,0,0,1,1.31,3.05c.36,1.68.73,3.35,1.09,5a13.93,13.93,0,0,0,2.72,6.56,12.8,12.8,0,0,0,8.77,4.07c2.23.17,5.06,0,6.18,1.12s-.44,2.33-1.76,3.35c9,1.22,18.14,2.12,27.31,2.69-2.47-1.38-4.53-3.11-7.77-3.65s-7.48.12-9.43-1.48c-1.13-.93-.75-2.22.19-3.22s2.42-1.81,3.52-2.74c3.53-3,3-7.39-1.29-10.06-1.66-1-3.93-2-4.06-3.4-.12-1.16,1.37-2.21,3.13-2.78s4.1-1.17,5.8-1.8c2.41-.87,5.79-3,8.3-3.81a26.49,26.49,0,0,1,5.41-.92,21.18,21.18,0,0,1,6.34.9,9.75,9.75,0,0,1,3.68,1.61c1.78,1.54.65,3.59-.47,5.33s-2.09,3.83-.12,5.3c1.37,1,3.78,1.35,6,1.39s4.49-.16,6.69.08c5.06.53,8.79,3.42,9.21,6.39s-2,5.89-5.5,8.08-8.08,3.69-12.7,5c-.49.14-1,.27-1.51.4q5.64.13,11.28.09a15,15,0,0,1,1.84-1.11c2.85-1.47,3.95-1.7,7.62-2.56,0,0,1.14-.22,1.48-.33.66-.22,2.09-.48,3.31-.74,5.87-1.22,9.94-2.39,16.07-1.74,3.33.36,6.72,1.29,8.28,3a3.79,3.79,0,0,1,.73,1.17q5.61-.62,11.17-1.4a49.17,49.17,0,0,1-7-2.38c-3.11-1.35-6.07-3-9.9-3.49-4.73-.58-9.48.87-14.3,1a6,6,0,0,1-3.52-.66,1.89,1.89,0,0,1-.67-1.36c-.31-2-.6-3.94-.91-5.91a3.64,3.64,0,0,1,.6-3.36c.87-1,2.61-1.58,4.21-2.19,9.07-3.43,16.52-8.27,21.34-13.87a11.63,11.63,0,0,1,4.29-3.67c2.06-.89,5.5-.93,6.86.33,1,1,.56,2.42,1.2,3.55.83,1.48,2.2,1.34,3.62,1,3.79-.83,7.49-2.05,11.22-3.14,4.06-1.17,8.33-2.52,12.57-2.16,3.71.32,7.6.95,10,2.59,2.87,2,2.82,4.94,1,7.27s-5.24,4.13-8.66,5.76-7.05,3.18-9.72,5.24c-2.26,1.73-3.74,4.13-1.87,6,.85.87,2.3,1.47,3.29,2.29a3.19,3.19,0,0,1,1.31,2.71q2.71-.58,5.4-1.21a5,5,0,0,0-.85-2.65c-.9-1.33-2.42-2.55-2.68-4s.87-2.86,2.49-4c1.33-.89,2.82-1.27,4.17-2.07a33.87,33.87,0,0,1,4.42-2.23,39.64,39.64,0,0,1,9.59-2.51c6-.85,12.16-.36,18.18-.68a23.58,23.58,0,0,1,12.49,2.62c.1.05.19.12.29.18,3.45-1.44,6.86-2.95,10.2-4.51a6.61,6.61,0,0,1,.49-1.88c1.42-3.25,5.05-6,8.69-8.63,2.91-2.09,5.94-4.24,7.31-6.81s.7-5.71-2.9-7.42a21.47,21.47,0,0,0-7.82-1.57,59.54,59.54,0,0,0-9.91.28c-3.46.38-7.05,1.06-10.4.42-4-.77-6.31-3.32-6.22-5.73s2.23-4.66,4.87-6.52a22.55,22.55,0,0,1,5.92-3,26.86,26.86,0,0,1,16.73.32c4.17,1.59,6.87,4.22,11,5.82,7.26,2.79,17,1.8,25.33,3.35a4.73,4.73,0,0,1,2.6,1c.7.87-.54,1.88-2,2.32s-3.17.58-4.59,1.08c-2.54.89-3.54,2.81-3.1,4.51a4.3,4.3,0,0,0,.49,1.13,170,170,0,0,0,13.79-11.18C441.43,395.92,440.85,395.55,440.2,395.25Zm1.17-60.13a5.62,5.62,0,0,1,2-.35,4.35,4.35,0,0,1,1.43.35A9.12,9.12,0,0,1,450,340.4c.74,2,.83,4.12,1.51,6.15,1.25,3.66,4.5,7.08,9.18,9.65a26.83,26.83,0,0,1,4.54,1.26c2.53,1.23,2.09,3.64.21,5.22s-4.79,2.62-7.16,3.94a58.63,58.63,0,0,0-7.17,5.3,21.47,21.47,0,0,1-8.83,4.24c-3.66.77-8.3.32-10.52-1.52-1.35-1.12-1.64-2.57-2.86-3.74-3.15-3-11.67-3.52-13.4-6.91-1.34-2.63,2.58-5.24,6.85-6.47s9.18-1.7,13-3.37c1.7-.75,3.18-1.8,3.41-3,.35-1.93-2.32-3.55-4.21-5.15s-3.33-3.88-2.28-5.87C433.45,337.73,437.57,336.3,441.37,335.12Zm-41.62,10.75c-1.37-1-3.78-1.35-6-1.38s-4.48.14-6.67-.1c-5.08-.52-8.81-3.41-9.22-6.37s2-5.9,5.49-8.08,8.08-3.7,12.71-5c4.31-1.23,9.45-2.31,13.77-1.11s6.43,4.24,10.95,5c3.22.54,7.47-.12,9.41,1.47,1.14.94.76,2.24-.19,3.23a41.56,41.56,0,0,1-3.52,2.74c-3.52,3-3,7.38,1.29,10.06,1.67,1,3.94,2,4.08,3.4.11,1.16-1.38,2.21-3.15,2.77s-4.09,1.18-5.8,1.81c-2.4.87-5.78,3-8.29,3.81a27.94,27.94,0,0,1-5.41.92,21.09,21.09,0,0,1-6.34-.9,9.68,9.68,0,0,1-3.68-1.61c-1.78-1.54-.65-3.59.46-5.34S401.72,347.33,399.75,345.87Zm31.73-35.47a17.89,17.89,0,0,0,5-2.47,21.58,21.58,0,0,0,6.25-6.34c1.41-2.31,2.11-4.79,4.2-6.92,2.51-2.58,7.26-4.52,12.38-4.5s10.17,2.32,10.59,5.26c.35,2.48-2.23,5.3.37,7.31,1.78,1.37,5.6,1.81,6.41,3.48.55,1.15-.67,2.33-2.16,3.14a19.24,19.24,0,0,1-8.09,2.1c-2.95.16-5.9-.25-8.86-.32a53.31,53.31,0,0,0-9.23.74c-3.86.61-7.94,1.61-9.82,3.65-2.66,2.87-.33,7.05-4.58,9.19-3,1.49-7.65,1-11.06-.11s-6.15-2.87-9.64-3.93a35.11,35.11,0,0,0-9.3-1.25,4.85,4.85,0,0,0-1.22.15c-2.1.8-5,.83-6.33-.4s-.22-3.21,1.07-4.45c1.87-1.78,5.15-2.94,8.62-3.49a51.26,51.26,0,0,1,10.67-.33C421.72,311.17,427,311.72,431.48,310.4Zm-22.06-32.93c4.79.07,9.79,1.17,12.52,3.47a8,8,0,0,1,2.08,2.75,3.18,3.18,0,0,1,0,3.43,14.1,14.1,0,0,1-2.57,2.05c-3.3,2.5-3.65,6.18-.83,8.87,1,.93,2.28,1.76,2.83,2.8,1.07,2-1.23,4.25-4.39,5.35s-7,1.32-10.61,1.55-7.46.48-10.59,1.6a20.17,20.17,0,0,0-6.91,4.51c-1.36,1.23-2.75,2.53-3,4s.65,2.77.29,4.12-2,2.61-3.85,3.57c-2.85,1.47-4,1.69-7.63,2.56,0,0-1.14.21-1.47.33-.66.21-2.09.48-3.32.73-5.86,1.22-9.93,2.4-16.06,1.74-3.33-.35-6.72-1.28-8.29-3a3.91,3.91,0,0,1-.87-3.63c1.09-5.24,8.6-9.11,15.61-12.48l18.53-8.89c5.66-2.72,11.73-5.83,12.74-10,.79-3.27-1.68-6.69,0-9.81C395.69,279.39,402.83,277.38,409.42,277.47ZM150.09,344.53c-.81-2.52-4.11-4-4-6.68.1-1.68,1.62-2.91,3.14-3.62,3.67-1.71,8.15-1.81,11.17-4.51a32.37,32.37,0,0,1,2.9-2.84,9.89,9.89,0,0,1,3.84-1.38,58.88,58.88,0,0,1,26,.63c3,.75,6.3,2.1,7.28,5a6.37,6.37,0,0,1-.88,5.39,12.42,12.42,0,0,1-4.19,3.73c-5.77,3.44-13.22,4.68-17.18,10.11-1.43,2-2.26,4.34-3.83,6.2-5.26,6.29-17.51,6.93-23,.68a8.18,8.18,0,0,1-2.29-5C149.05,349.64,150.9,347,150.09,344.53Zm45.08-68.74a4.93,4.93,0,0,1,1.07,1.36c.34.94-.58,1.91-1.83,2.56a35.62,35.62,0,0,1-4.23,1.53c-5.17,1.82-8.74,5.06-9.36,8.53l-.21,1a13.66,13.66,0,0,1-6,6,19.31,19.31,0,0,1-11.27,1.83c-5.34-.83-8.65-4.17-8.74-7.36a33.39,33.39,0,0,1,.64-4.42,9.42,9.42,0,0,0-.51-4.28,3.68,3.68,0,0,0-2.08-2.33c-1.86-.78-4.48-.37-6.5.25-2.25.7-4.54,2.34-6.85,2.67-2.64.38-5.38-.26-8.05-.2a16.91,16.91,0,0,1-7-1.29c-3.67-1.68-6.8-6.86-4.95-10.85,1.51-3.25,5.77-4.31,8.88-5.28a62.19,62.19,0,0,1,17.18-2.71,33.37,33.37,0,0,0,5.6-.35,29,29,0,0,1,4.43-.91,11.11,11.11,0,0,1,6.47,2.18l6.07,3.86c3.84,2.42,8.72,5.07,14.32,4.51a16.48,16.48,0,0,0,7.69-2.95,8.82,8.82,0,0,1,2.45-1.34,4.35,4.35,0,0,1,3.17.14c1.24.77.11,2-.62,2.95A3.71,3.71,0,0,0,195.17,275.79Zm166.46,23.08c2.67,1.31,7.75.84,9,2.73.59.9-.13,1.91-1,2.74-4.89,4.68-14.18,7.11-21.25,10.74-2.47,1.28-4.77,2.8-5.53,4.66-.45,1.12-.32,2.3-.73,3.44a4.2,4.2,0,0,1-3.5,2.59c-2.84.42-5.2-1.17-7.46-2.24-4.34-2.07-10.33-2.56-15.12-4.26-4.1-1.46-9.95-4.8-8.5-9.94.84-2.95,2.45-4.13,5.46-4.34,2.65-.19,5.18.68,7.84.74a15.2,15.2,0,0,0,7.75-2.11c10-5.84,6.46-16.54,16.69-22.23a30.72,30.72,0,0,1,7.31-2.69c3.4-.87,7.65-1.41,10.67-.13,2.1.9,3,2.48,3,4a9.53,9.53,0,0,1-1.72,4.41L361,293C359.79,295,358.86,297.5,361.63,298.87Zm-57.21,32.4c.81,2.52,4.11,4.05,4,6.68-.1,1.68-1.62,2.91-3.14,3.62-3.67,1.71-8.15,1.81-11.17,4.51a31.09,31.09,0,0,1-2.9,2.84,10.07,10.07,0,0,1-3.84,1.39,59,59,0,0,1-26-.64c-3-.75-6.3-2.09-7.28-5a6.37,6.37,0,0,1,.88-5.39,12.63,12.63,0,0,1,4.19-3.73c5.77-3.43,13.22-4.68,17.18-10.1,1.43-2,2.26-4.34,3.83-6.21,5.26-6.28,17.51-6.93,23-.67a8.16,8.16,0,0,1,2.29,5C305.46,326.17,303.61,328.77,304.42,331.27Zm24.63-35.89a12.27,12.27,0,0,1-6.1,3.72,39.69,39.69,0,0,1-7.71,1.59c-2.14.25-4.3.39-6.42.8-5.64,1.12-10.5,4.32-15.75,6.4-4.74,1.88-10,1.59-15.07,1-7.25-.86-18.45-1.48-24.24-6.53a2,2,0,0,1-.68-.91,1.77,1.77,0,0,1,.25-1.28,7.38,7.38,0,0,1,4.82-3.41,34.66,34.66,0,0,1,6-.65c4.76-.34,10.68-1.16,14.36-4.34,3.06-2.64,4.82-6.9,9.34-7.2,4.22-.27,7.89.45,12-1.14,3.57-1.39,6.78-3.58,10.65-4.06a3.82,3.82,0,0,1,1.58.06c1.68.54,1.95,2.77,2.94,4.23,2.23,3.26,8.38,3.26,11.81,3a6,6,0,0,1,1.75,0,3.47,3.47,0,0,1,2.44,3.33A9.42,9.42,0,0,1,329.05,295.38Zm-33.33-16.86a30,30,0,0,1-10.05.69c-2.55-.25-5.31-.79-7.56-.06a3.91,3.91,0,0,0-2.88,4.05c0,1.54.45,3.16-.73,4.53-1.59,1.85-5.46,2.58-9,2.91a16.74,16.74,0,0,1-6.89-.43c-1-.38-1.83-1-2.79-1.41-4.32-2.11-10.68-1.53-16.32-1.67-7.23-.17-14.7-1.93-18.71-5.42s-3.45-8.78,2.31-11.31a24.5,24.5,0,0,1,8.19-1.68,35.72,35.72,0,0,1,13.87,2c2.59,1,4.89,2.24,7.81,2.79A20.23,20.23,0,0,0,266.27,271c3.4-2,5.37-4.72,7.29-7.32a5.09,5.09,0,0,1,4-2.38,4,4,0,0,1,3.6,1.81,10.69,10.69,0,0,1,.56,2.95c.43,2.06,2.45,4,5.41,5.21l.72.16a25.59,25.59,0,0,1,8.28-.35c2.71.42,5.15,1.76,5.24,3.38C301.5,276.33,298.66,277.79,295.72,278.52Zm-70.53,9c7.26,2.79,17,1.79,25.33,3.34a4.73,4.73,0,0,1,2.61,1.05c.7.87-.56,1.88-2,2.32s-3.18.58-4.6,1.07c-2.53.89-3.54,2.81-3.1,4.51s2.07,3.2,3.78,4.61a29.66,29.66,0,0,0,16.56,6.95l-.73-.12c3.9,0,9.35,1.89,9.59,6.46.18,3.52-.94,7.27-4.13,9.11a37.79,37.79,0,0,1-6.2,2.42,25.8,25.8,0,0,0-10.58,7.57,22.57,22.57,0,0,1-7.55,5.93,10.56,10.56,0,0,1-7.14.88,5.22,5.22,0,0,1-2.91-1.85c-1.14-1.61-.83-3.88.13-5.6a5.94,5.94,0,0,0,1.06-2.47c0-1.33-1.1-2.39-2.25-3.06-7-4.05-16.21-.5-23-5.13a9,9,0,0,1-2-1.63c-.94-1.17-.75-2.22-.2-3.49,1.41-3.26,5.06-6,8.69-8.63,2.92-2.1,5.94-4.25,7.31-6.82s.7-5.71-2.9-7.42a21.65,21.65,0,0,0-7.83-1.57,60.7,60.7,0,0,0-9.91.28c-3.45.38-7,1.06-10.38.42-4-.77-6.32-3.32-6.22-5.72s2.22-4.67,4.87-6.53a22.62,22.62,0,0,1,5.91-3,26.86,26.86,0,0,1,16.73.31C218.35,283.31,221,286,225.19,287.55ZM161.87,303l1.71.12c2.84.2,5.75.84,8.48.06a24.44,24.44,0,0,0,3.52-1.55c5-2.43,8.74-1.73,14.1-1.16,7.66.79,15.42-1.73,23-.62,2,.3,4.31,1.11,5,3.05a4.39,4.39,0,0,1-1.67,4.58,14.92,14.92,0,0,1-4.67,2.19,19.32,19.32,0,0,0-6.07,2.9c-1.71,1.42-2.06,3.45-3.23,5.3a5.75,5.75,0,0,1-5.87,2.79,45.71,45.71,0,0,0-7.9-.87q-10.71-.15-21.42-.32a2.49,2.49,0,0,1-1.59-.39c-.62-.48-.62-1.39-.66-2.19a10.28,10.28,0,0,0-8.74-9.27c-1.59-.17-3.72-.4-3.92-2C151.59,302.7,158.37,302.78,161.87,303ZM186,349a39.08,39.08,0,0,1,6.2-2.42,25.63,25.63,0,0,0,9.8-6.59c2.73-3,5-5.45,9-6.81A28.55,28.55,0,0,1,222.41,332a12.3,12.3,0,0,1,4.49,1,5.12,5.12,0,0,1,2.89,3.39c.43,2.06-.83,4.27-.12,6.25a5.44,5.44,0,0,0,2,2.36c3.43,2.51,7.8,3.23,11.81,4.61a6.77,6.77,0,0,1,2.32,1.17c2,1.69.62,5.37-.73,7.06a21.09,21.09,0,0,1-7.38,5.73c-3.32,1.65-6.23,3.64-9.87,4.6-3.45.91-7.75-.39-11.2-1a38.64,38.64,0,0,0-7.78-1.06c-6.22.12-12.52-.88-18.69-1.64-3.57-.44-8-2.2-8.26-6.39C181.71,354.54,182.83,350.8,186,349Zm21.66,30.34c.91-1.54.4-3.48.47-5.27a1.73,1.73,0,0,1,.68-1.51,2,2,0,0,1,.72-.15,31.37,31.37,0,0,1,6.49.69c1.78.25,3.43,1,5.22,1.24a17,17,0,0,0,5-.09,11.37,11.37,0,0,1,3.18-.16,4.7,4.7,0,0,1,.74.18c2.15.74,2,3.45,3.94,4.49s4.87,1,7.19,1.11a60.7,60.7,0,0,0,9.91-.28c3.45-.38,7.05-1.06,10.38-.42,4,.78,6.32,3.32,6.22,5.73s-2.22,4.67-4.87,6.52a22.32,22.32,0,0,1-5.91,3,26.72,26.72,0,0,1-16.73-.31c-4.18-1.59-6.87-4.23-11-5.83-7.26-2.79-17-1.79-25.33-3.33a4.73,4.73,0,0,1-2.61-1.06c-1.09-1.37,1.85-2.22,2.63-2.38A5.17,5.17,0,0,0,207.68,379.29Zm57.15-3.93c-7.66-.8-15.42,1.72-23,.61-2-.3-4.31-1.1-5-3.05a4.39,4.39,0,0,1,1.67-4.58,15.26,15.26,0,0,1,4.67-2.19c3.18-1.1,6.21-2.52,8.46-5.09,1.91-2.18,3.5-4.56,6.66-4.86a22.59,22.59,0,0,1,6,.66,35.69,35.69,0,0,0,10.82.17,49.75,49.75,0,0,1,7.76-1,9.8,9.8,0,0,1,5.66,1.64c1.66,1.22,1.4,2.68,2.17,4.44a10.26,10.26,0,0,0,7.95,6.07c1.59.17,3.72.4,3.92,2a2.21,2.21,0,0,1-1.5,2.12,16.48,16.48,0,0,1-7.24.86c-1.54-.14-3.09-.28-4.61-.57-4.13-.77-7.3-1.46-11.2.51a30.34,30.34,0,0,1-5.05,2.49C270.34,376.32,267.55,375.65,264.83,375.36Zm31.29-13.58c-2.87-2-2.82-4.94-1-7.28s5.23-4.12,8.67-5.76,7.05-3.17,9.72-5.23c2.25-1.72,3.73-4.14,1.86-6-.86-.87-2.31-1.48-3.29-2.29-3.06-2.52-.48-6.34,4.17-7.85s10.48-1.17,15.55-.2a53,53,0,0,1,10.9,3.31c3.12,1.35,6.09,3,9.9,3.48,4.75.58,9.48-.87,14.31-1a6.16,6.16,0,0,1,3.52.65,1.91,1.91,0,0,1,.67,1.37c.3,2,.61,3.94.9,5.91a3.66,3.66,0,0,1-.59,3.37c-.88,1-2.6,1.57-4.21,2.18-9.08,3.42-16.53,8.27-21.34,13.87A11.43,11.43,0,0,1,341.6,364c-2.07.9-5.5.94-6.86-.33-1-1-.57-2.41-1.2-3.54-.84-1.48-2.2-1.35-3.62-1-3.8.84-7.5,2.05-11.23,3.13-4.06,1.18-8.32,2.53-12.56,2.17C302.43,364.05,298.53,363.42,296.12,361.78ZM407.48,261.65c-1.62,5.43-10.64,4.29-12.18,10.06a17.24,17.24,0,0,1-1.1,3.9c-1,1.75-2.87,2.68-3.92,4.36-1.24,2-1.24,4.51-1.16,6.79.07,2.5.18,5.17-1.1,7.32A7,7,0,0,1,384.6,297a27,27,0,0,1-10.86,1.24,15.33,15.33,0,0,1-3.3-.62c-3.24-1.18-3-4-1.12-6s4.79-3.53,5.95-5.64.41-4.16-1.18-6a24.29,24.29,0,0,0-6.62-4.84,8.1,8.1,0,0,1-2.66-1.93,2.63,2.63,0,0,1-.14-2.52c1-2.55,3.66-4.74,6.57-6.72a54.23,54.23,0,0,1,14.66-7.14,32,32,0,0,1,13.86-1.36C404.39,256.25,408.3,258.93,407.48,261.65Zm-32-10.47c2.2-.64,4.52-.82,6.76-1.33,4.65-1.07,8.51-3.57,12.62-5.84,2.17-1.2,7.15-2.27,7.25,1.64.05,1.92-1.48,4.51-3.4,4.89-3.4.67-6.84,1.15-10.22,1.91a61,61,0,0,0-18.93,7.77,26.33,26.33,0,0,0-8.51,7.67,22.58,22.58,0,0,1-2.43,3.56,12.26,12.26,0,0,1-4.05,2.51c-3.9,1.71-8.11,3.07-12.35,2.74a1.44,1.44,0,0,1-1-.34,1.35,1.35,0,0,1-.28-.79,9.81,9.81,0,0,1,3-8.26c2-1.88,4.74-2.81,7.38-3.68a83.73,83.73,0,0,0,13.95-5.79C369,255.84,371.2,252.45,375.49,251.18Zm-43.74,1.64a7.67,7.67,0,0,0,5.32-3.56c.95-1.53,1.52-3.19,3.17-4.5,2.51-2,7.22-2.79,11.41-2.32a22.24,22.24,0,0,1,10.46,3.94c1.74,1.26,3.15,2.75,3.31,4.35.28,3.18-4.37,5.78-9.17,7.34s-10.26,2.65-13.93,5c-4.22,2.73-5.21,6.58-6.6,10.15s-3.91,7.42-9.6,9c-1.58.45-4.55,1.07-5.5-.78a4.9,4.9,0,0,1-.38-2.19,6.11,6.11,0,0,0-.27-2.21,3.64,3.64,0,0,0-2-1.91,7.32,7.32,0,0,0-2.79-.48c-2,0-4,.35-6.06.22-2.72-.18-6.51-2-5.81-5.34a10.5,10.5,0,0,1,2.47-4c2.37-2.85,4.72-5.7,7.1-8.55,1.7-2.06,3.94-4.35,7.82-4.74C324.38,251.88,328.18,253.44,331.75,252.82Zm-41.3-21a2.86,2.86,0,0,1,2.24-.65c4.09.3,6.3,3.79,10.39,3.63a12,12,0,0,0,4.31-1.15c4.29-1.86,8-4.19,12.88-5.48s11.43-1.27,14.7,1.18,1.83,5.9-1.3,8.27S326,241.51,322,243.41c-7.74,3.73-13.39,8.9-15.89,14.53a31.59,31.59,0,0,1-2.08,4.57,12.08,12.08,0,0,1-3.78,3.62,15.67,15.67,0,0,1-7.79,2.36c-3,.07-6.2-1-7-2.64-1.56-3.06,4.77-5.73,4.81-8.91,0-2.37-3.43-4.72-1.78-6.89s8-2.42,10-4.65c1.32-1.43.39-3.21-1.14-4.58s-3.65-2.48-5-3.9S289.54,233,290.45,231.77Zm-34.33-10.53a12.4,12.4,0,0,0,4.45-5.77c.48-1.41.58-2.9,1.55-4.23,1.47-2,5-3.45,8.81-3.58s7.61,1.06,9.48,3a8.13,8.13,0,0,1,2,4.84q1.09,6.69,2.18,13.37c.42,2.57.87,5.21,3,7.46.94,1,2.16,1.81,3,2.78,1.34,1.48,2.29,2.39,1.88,4a7,7,0,0,1-.44.77c-1.61,1.86-5.2,3.08-8.79,3.32s-7.48-.77-9.11-2.62a6.19,6.19,0,0,1-1.31-3c-.36-1.68-.73-3.35-1.09-5a14,14,0,0,0-2.71-6.57,12.87,12.87,0,0,0-8.78-4.07c-2.23-.17-5.06,0-6.18-1.11S254.76,222.29,256.12,221.24Zm-8.28,12.42c1.24-2.38,5.37-3.8,9.16-5a5.59,5.59,0,0,1,2-.35,4.24,4.24,0,0,1,1.42.36A9.1,9.1,0,0,1,265.6,234c.75,2,.83,4.12,1.52,6.15,1.24,3.66,4.49,7.08,9.17,9.65a27.79,27.79,0,0,1,4.54,1.26c2.54,1.23,2.09,3.64.22,5.22s-4.79,2.62-7.17,3.95a57.82,57.82,0,0,0-7.17,5.29,21.36,21.36,0,0,1-8.83,4.25c-3.65.76-8.29.32-10.51-1.52-1.35-1.12-1.64-2.57-2.86-3.75-3.16-3-11.68-3.52-13.41-6.9-1.33-2.64,2.59-5.25,6.85-6.47s9.18-1.71,13-3.37c1.7-.76,3.17-1.81,3.4-3,.36-1.93-2.3-3.54-4.19-5.14S246.79,235.66,247.84,233.66ZM199,223.49c3.52-2.19,8.08-3.7,12.7-5,4.32-1.22,9.45-2.31,13.77-1.11s6.44,4.25,10.94,5c3.23.54,7.48-.11,9.43,1.48,1.13.93.75,2.23-.19,3.23s-2.41,1.8-3.52,2.73c-3.53,3-3,7.39,1.29,10.06,1.66,1,3.93,2,4.06,3.41.12,1.16-1.37,2.2-3.13,2.77s-4.1,1.17-5.8,1.8c-2.41.87-5.79,3-8.3,3.81a26.49,26.49,0,0,1-5.41.92,20.86,20.86,0,0,1-6.34-.9,9.75,9.75,0,0,1-3.68-1.61c-1.78-1.54-.65-3.59.47-5.33s2.09-3.83.12-5.29c-1.37-1-3.78-1.36-6-1.39s-4.49.15-6.69-.09c-5.06-.53-8.79-3.42-9.21-6.38S195.45,225.67,199,223.49Zm-5.95,16a37.63,37.63,0,0,1,5.1.2c2.63.17,5.33.1,7.89.48s5.11,1.32,5.87,2.78c1.22,2.4-2.67,4.72-2.63,7.21,0,1.74,2.24,3.4,5.15,3.86a50.7,50.7,0,0,0,6.42.16c2.15.05,4.56.52,5.33,1.68.51.77.16,1.66.4,2.47.82,2.86,7.87,3.74,9.5,6.47a.78.78,0,0,1,.1.72c-.27.5-1.3.66-2.18.71-4.2.26-9.18-.13-12,1.71l-.57.15a15.4,15.4,0,0,0-6.39,5.12,15.93,15.93,0,0,1-2.12,3.12,6.6,6.6,0,0,1-4.65,1.71,9.55,9.55,0,0,1-4.94-1.82c-1.91-1.21-3.94-2.63-3.8-4.27.15-1.87,3.12-3.36,3.38-5.24.3-2.16-4-4.07-7.52-3.35-2.13.41-3.6,1.51-5.25,2.39A23.51,23.51,0,0,1,183.8,268a18.41,18.41,0,0,1-7.57.17,14.89,14.89,0,0,1-4.93-2.3c-2-1.35-3.88-2.82-4.62-4.55-1.41-3.24,1.4-6.57,4.53-9.38a79.85,79.85,0,0,1,13.08-9.38A19.41,19.41,0,0,1,193,239.54Zm-82.24,8.52c1.87-2.32,5.24-4.13,8.66-5.76s7-3.18,9.72-5.23c2.26-1.73,3.74-4.14,1.87-6-.85-.87-2.3-1.47-3.28-2.29-3.07-2.52-.49-6.33,4.17-7.84s10.47-1.17,15.54-.2a52.46,52.46,0,0,1,10.91,3.3c3.11,1.35,6.07,3,9.9,3.49,4.73.58,9.48-.87,14.3-1a6.06,6.06,0,0,1,3.52.65,1.89,1.89,0,0,1,.67,1.36c.31,2,.6,3.94.91,5.91a3.66,3.66,0,0,1-.6,3.37c-.87,1-2.61,1.58-4.21,2.18-9.07,3.43-16.52,8.27-21.34,13.87a11.45,11.45,0,0,1-4.29,3.67c-2.06.89-5.5.93-6.86-.33-1-1-.56-2.42-1.2-3.55-.83-1.48-2.2-1.34-3.62-1-3.79.84-7.49,2.06-11.22,3.14-4.06,1.18-8.32,2.52-12.57,2.16-3.7-.31-7.6-.95-10-2.59C108.88,253.37,108.93,250.4,110.78,248.06ZM80.47,268.91c-7.67-.8-15.43,1.73-23.06.61-2-.29-4.31-1.1-5-3a4.38,4.38,0,0,1,1.68-4.57,14.79,14.79,0,0,1,4.66-2.2c4-1.38,7.72-3.25,9.8-7A8.41,8.41,0,0,1,70.52,250c1.88-1.48,5.32-.52,7.52-.49,6.32.1,12.65.22,19,.28,3.79,0,5.85,1.07,7.63,3.37a24.58,24.58,0,0,1,1.9,3,10.38,10.38,0,0,0,7.72,5.59c1.59.18,3.73.4,3.92,2a2.19,2.19,0,0,1-1.5,2.12,12.38,12.38,0,0,1-2.72.55c-1.62.28-2.73,1.38-4.21,1.7-1.64.35-3.6-.43-5-1.12-1-.46-2.59-1.93-3.64-2a15.54,15.54,0,0,0-7.43,1.66,31.88,31.88,0,0,1-5,2.49C86,269.88,83.18,269.2,80.47,268.91Zm-.07,19.48c1.91-1.84,4.32-3.14,6-5.16,2.28-2.67,3.12-6.27,5.37-8.94,2.45-2.91,5.57-5.48,9.42-3.88,1.55.65,2.71,1.65,4.36,2.17,2,.62,4.07.93,6.06,1.57a5.71,5.71,0,0,1,1.78.84l.13.1a6.44,6.44,0,0,1,1.24,1.64c2.07,3.49,4.12,10.13,8.79,11,3.88,1.32,8.14-.39,12.22.06,1.63.18,3.27.71,4.88.36,2.32-.48,4.25-2.74,6.59-2.38s3.45,2.91,3.36,5.16-1.08,4.36-1.47,6.58a16.28,16.28,0,0,1-.86,4.17c-.84,1.81-2.68,2.92-4.47,3.82a46.49,46.49,0,0,1-11.7,4c-3.54.71-7.66.83-10.26-1.67a15.15,15.15,0,0,0-2.35-2.32c-2.19-1.31-5,.08-7.5,0-4.52-.09-7.5-4.54-11.16-7.2a15.64,15.64,0,0,0-10-2.94c-3,.17-5.83,1.19-8.73,1.79a4.32,4.32,0,0,1-2.64-.05,3,3,0,0,1-1.44-1.63C77,293.05,78.48,290.23,80.4,288.39Zm-9.22,57.48c-3.53,2.18-8.08,3.7-12.71,5-4.31,1.22-9.45,2.3-13.77,1.1s-6.43-4.24-11-5c-3.22-.54-7.47.12-9.41-1.47-1.14-.94-.76-2.23.19-3.23a43.72,43.72,0,0,1,3.52-2.74c3.52-3,3-7.38-1.29-10.06-1.66-1-3.94-2-4.08-3.4-.11-1.16,1.38-2.21,3.15-2.77s4.1-1.18,5.8-1.81c2.4-.87,5.78-3,8.29-3.81a27.35,27.35,0,0,1,5.41-.91,20.77,20.77,0,0,1,6.34.89,9.68,9.68,0,0,1,3.68,1.62c1.78,1.53.65,3.58-.46,5.33s-2.1,3.83-.13,5.3c1.37,1,3.78,1.34,6,1.38s4.49-.15,6.68.09c5.07.53,8.8,3.42,9.21,6.38S74.7,343.69,71.18,345.87Zm5.93-16.05a37.4,37.4,0,0,1-5.08-.2c-2.64-.16-5.34-.1-7.9-.48s-5.11-1.32-5.86-2.79c-1.23-2.4,2.65-4.71,2.62-7.21,0-1.74-2.23-3.4-5.15-3.86a48.76,48.76,0,0,0-6.41-.15c-2.16-.05-4.57-.53-5.34-1.69-.51-.77-.16-1.65-.4-2.47-.82-2.85-7.87-3.73-9.49-6.47a.72.72,0,0,1-.1-.72c.26-.49,1.3-.65,2.17-.7,4.21-.27,9.18.12,12-1.72l.57-.13a15.54,15.54,0,0,0,6.4-5.14A16.11,16.11,0,0,1,57.23,293a6.72,6.72,0,0,1,4.66-1.72,9.57,9.57,0,0,1,4.92,1.83c1.92,1.22,4,2.63,3.81,4.26-.15,1.88-3.11,3.37-3.38,5.25-.3,2.16,4,4.07,7.52,3.35,2.13-.41,3.61-1.51,5.25-2.39a23.81,23.81,0,0,1,6.34-2.24,18.54,18.54,0,0,1,7.56-.16,14.59,14.59,0,0,1,4.93,2.29c2,1.35,3.88,2.83,4.63,4.56,1.41,3.24-1.41,6.57-4.54,9.38a79.85,79.85,0,0,1-13.08,9.38A19.32,19.32,0,0,1,77.11,329.82Zm24.77,12c-4.75-.58-9.48.87-14.31,1a6.17,6.17,0,0,1-3.52-.66,1.91,1.91,0,0,1-.67-1.37l-.9-5.91a3.67,3.67,0,0,1,.59-3.36c.88-1,2.61-1.58,4.21-2.19,9.08-3.42,16.53-8.27,21.35-13.87a11.48,11.48,0,0,1,4.28-3.66c2.07-.9,5.5-.94,6.86.33,1,1,.57,2.41,1.2,3.55.84,1.48,2.2,1.34,3.62,1,3.8-.84,7.5-2.06,11.23-3.14,4.06-1.18,8.32-2.52,12.56-2.17,3.7.32,7.6.95,10,2.59,2.87,2,2.82,4.94,1,7.28s-5.23,4.12-8.66,5.76-7,3.17-9.72,5.23c-2.26,1.73-3.74,4.14-1.87,6,.86.87,2.31,1.48,3.29,2.3,3.06,2.52.48,6.33-4.17,7.84s-10.48,1.18-15.55.2a53.59,53.59,0,0,1-10.9-3.3C108.66,344,105.7,342.29,101.88,341.84Zm24.06,30.34c-10,5.84-6.46,16.54-16.69,22.23a31.16,31.16,0,0,1-7.31,2.7c-3.4.87-7.65,1.4-10.66.13-2.11-.9-3-2.49-3-4a9.45,9.45,0,0,1,1.72-4.4c1.18-2,2.37-4,3.56-6s2.09-4.52-.67-5.88-7.76-.85-9-2.74c-.59-.9.13-1.9,1-2.74,4.89-4.67,14.18-7.11,21.25-10.74,2.48-1.27,4.77-2.8,5.53-4.65.45-1.12.33-2.31.73-3.44a4.19,4.19,0,0,1,3.5-2.6c2.84-.42,5.2,1.17,7.46,2.25,4.35,2.06,10.33,2.55,15.13,4.25,4.09,1.46,9.94,4.8,8.49,9.94-.83,2.95-2.44,4.13-5.46,4.34-2.65.19-5.18-.68-7.84-.73A15.19,15.19,0,0,0,125.94,372.18Zm21.15,23.05c-2.66.43-5.85-.63-6.67-3.2a20.3,20.3,0,0,0-.72-3c-1.49-3-6.93-1.91-8.25-5a3.69,3.69,0,0,1,1.25-4.12,9,9,0,0,1,4.25-1.69c3.41-.64,7-.8,10.2-2,5.19-1.92,9.15-6.3,14.3-8.34,4.73-1.88,10-1.59,15.06-1,4.14.49,8.3.83,12.4,1.63s8.63,1.85,12.09,4.14a5.58,5.58,0,0,1,1.53,1.33,2.3,2.3,0,0,1,.44,1.92,3,3,0,0,1-1.45,1.64c-3.21,2-7.52,1.85-11.19,2.11-4.76.34-10.68,1.17-14.36,4.34-3.06,2.64-4.82,6.91-9.34,7.2-4.22.28-7.89-.45-12,1.15C152.1,393.35,149.74,394.81,147.09,395.23Zm20.26,9.28-.72-.15a26.17,26.17,0,0,1-8.28.35c-2.71-.43-5.14-1.77-5.24-3.38-.1-1.86,2.74-3.31,5.68-4.05a30.31,30.31,0,0,1,10.05-.69c2.55.25,5.31.79,7.56.06a3.9,3.9,0,0,0,2.88-4c0-1.54-.45-3.16.73-4.54,1.59-1.85,5.46-2.57,9-2.9a16.57,16.57,0,0,1,6.89.42,30.38,30.38,0,0,1,2.79,1.42c4.32,2.1,10.68,1.52,16.32,1.66,7.23.18,14.7,1.94,18.71,5.42s3.45,8.78-2.31,11.31a24.25,24.25,0,0,1-8.19,1.68,35.72,35.72,0,0,1-13.87-2c-2.59-1-4.89-2.24-7.81-2.78a20.24,20.24,0,0,0-13.29,2.45c-3.4,2.05-5.37,4.72-7.29,7.33a5.08,5.08,0,0,1-4,2.37,4,4,0,0,1-3.6-1.81,10.62,10.62,0,0,1-.56-2.94C172.33,407.66,170.31,405.71,167.35,404.51Zm49.21,20.22c-4.26,1.22-9.18,1.7-13,3.36-1.7.76-3.17,1.81-3.4,3-.36,1.93,2.3,3.54,4.19,5.14s3.33,3.89,2.28,5.88c-1.24,2.39-5.37,3.81-9.16,5a5.83,5.83,0,0,1-2,.35,4.24,4.24,0,0,1-1.42-.37,9.07,9.07,0,0,1-5.21-5.27c-.75-2-.83-4.12-1.52-6.15-1.24-3.66-4.49-7.07-9.17-9.65a26.83,26.83,0,0,1-4.54-1.26c-2.54-1.23-2.09-3.64-.22-5.22s4.79-2.62,7.17-3.94a58.9,58.9,0,0,0,7.17-5.3,21.61,21.61,0,0,1,8.83-4.25c3.65-.76,8.29-.31,10.51,1.53,1.35,1.12,1.64,2.57,2.86,3.74,3.16,3,11.68,3.52,13.41,6.91C224.74,420.9,220.82,423.51,216.56,424.73Zm66.74-.9a78.84,78.84,0,0,1-13.08,9.38,19.29,19.29,0,0,1-8.73,3.05,37.7,37.7,0,0,1-5.1-.19c-2.63-.17-5.33-.1-7.89-.49s-5.11-1.32-5.87-2.78c-1.22-2.4,2.67-4.72,2.63-7.21,0-1.74-2.24-3.4-5.14-3.86a49.11,49.11,0,0,0-6.43-.15c-2.15-.06-4.56-.53-5.32-1.69-.52-.77-.17-1.66-.41-2.47-.82-2.86-7.87-3.73-9.5-6.47a.78.78,0,0,1-.1-.72c.27-.49,1.3-.66,2.18-.71,4.2-.26,9.18.13,12-1.71l.57-.14a15.49,15.49,0,0,0,6.39-5.13,15.58,15.58,0,0,1,2.12-3.11,6.65,6.65,0,0,1,4.65-1.72,9.6,9.6,0,0,1,4.94,1.82c1.91,1.22,3.94,2.63,3.8,4.27-.15,1.88-3.12,3.36-3.38,5.24-.3,2.16,4,4.07,7.52,3.36,2.13-.41,3.6-1.51,5.26-2.4a23.66,23.66,0,0,1,6.32-2.23,18.24,18.24,0,0,1,7.57-.16,14.68,14.68,0,0,1,4.93,2.29c2,1.35,3.88,2.83,4.62,4.55C289.24,417.69,286.43,421,283.3,423.83ZM334,396.67c-.32,3.33-.82,6.76-2.58,9.62-2,3.25-5.38,5.4-8.87,7a43.87,43.87,0,0,1-6.68,2.38c-2.06.55-4.35.93-6.24,0-.9-.46-1.63-1.18-2.52-1.64-2.16-1.12-4.76-.51-7.13,0s-5.12.86-7-.64c-1.31-1-1.92-2.7-2.8-4.12a13.66,13.66,0,0,0-8.9-5.84,23.12,23.12,0,0,0-10.83.65A18.66,18.66,0,0,1,266,405a4.72,4.72,0,0,1-4-1.74,4.4,4.4,0,0,1-.09-4.36,9.44,9.44,0,0,1,3.08-3.3c2.65-1.93,5.85-3.51,7.22-6.49.91-2,.83-4.35,1.75-6.36,3.81-8.26,15.18-6.57,22.52-3.17A25,25,0,0,1,299.2,381a6.65,6.65,0,0,1,2.25,2,12,12,0,0,1,1,3.13,8.31,8.31,0,0,0,3.8,5.1c2.36,1.29,5.23,1,7.91.8q5.46-.46,10.93-.52C329.05,391.48,334.49,391.66,334,396.67Zm40,10.23c7.67.79,15.43-1.74,23.06-.62,2,.3,4.31,1.11,5,3.05a4.36,4.36,0,0,1-1.68,4.57,14.69,14.69,0,0,1-4.66,2.2c-3.27,1.13-6.58,2.62-8.67,5.35-2.48,3.22-5.07,3.93-9.11,4l-16.5.43c-3,.08-6.26.09-8.72-1.64a10.38,10.38,0,0,1-2.17-2.17c-.75-1-1.42-2.07-2.17-3.06a14.92,14.92,0,0,0-6.22-4.57c-1.54-.58-5.55-.1-5.84-2.4a2.21,2.21,0,0,1,1.5-2.12c5.14-2.14,10.72.41,15.94.52,4.81.1,7.82-2.61,12.15-3.82C368.55,405.92,371.33,406.61,374,406.9Zm4.74-20.75a35.79,35.79,0,0,1-4.24,1.54c-5.16,1.82-8.73,5.05-9.35,8.53l-.22,1a13.46,13.46,0,0,1-6,6,19.24,19.24,0,0,1-11.27,1.83c-5.34-.83-8.65-4.16-8.74-7.35a33.15,33.15,0,0,1,.64-4.42,9.39,9.39,0,0,0-.52-4.28,3.66,3.66,0,0,0-2.07-2.33c-3.28-1.39-8.14.23-11.51.63-4.07.48-8.16.71-12.25.83a14,14,0,0,1-4.61-.39,4.9,4.9,0,0,1-3.3-3c-.47-1.59.07-3.62-1.18-4.7-.48-.43-1.18-.62-1.55-1.15-.74-1.07.36-2.44,1.39-3.23,5.33-4.12,11.3-6,17-9.11,2-1.11,4.38-2.23,6.56-1.45a2,2,0,0,1,.95.63,4.07,4.07,0,0,1,.49,1.3c1,3.08,3.95,2.35,6.32,1.9a28.89,28.89,0,0,1,4.42-.91,11.15,11.15,0,0,1,6.47,2.17l6.08,3.86c3.83,2.42,8.72,5.07,14.31,4.52a16.44,16.44,0,0,0,7.69-2.95,8.75,8.75,0,0,1,2.46-1.35,4.26,4.26,0,0,1,3.16.15c1.26.77.12,2-.61,2.95a3.69,3.69,0,0,0,.24,4.84,5,5,0,0,1,1.07,1.37C381,384.54,380,385.51,378.78,386.15Zm20.61-6.44a15.81,15.81,0,0,1-2.11,3.11,6.63,6.63,0,0,1-4.66,1.72,9.48,9.48,0,0,1-4.92-1.83c-1.92-1.21-3.95-2.62-3.81-4.26.15-1.88,3.11-3.37,3.38-5.25.3-2.15-4-4.07-7.52-3.35-2.12.42-3.61,1.52-5.25,2.39a23.47,23.47,0,0,1-6.34,2.24,18.36,18.36,0,0,1-7.56.16,14.59,14.59,0,0,1-4.93-2.29c-2-1.35-3.88-2.82-4.63-4.56-1.41-3.24,1.41-6.56,4.54-9.37A80.49,80.49,0,0,1,368.66,349a19.56,19.56,0,0,1,8.74-3,37.62,37.62,0,0,1,5.09.21c2.64.16,5.33.1,7.89.48s5.11,1.32,5.86,2.78c1.23,2.4-2.65,4.72-2.62,7.21,0,1.74,2.23,3.4,5.15,3.86a48.76,48.76,0,0,0,6.41.15c2.16.05,4.57.53,5.34,1.69.52.77.16,1.65.4,2.47.82,2.85,7.87,3.74,9.49,6.47a.73.73,0,0,1,.1.72c-.26.49-1.3.66-2.17.7-4.21.27-9.18-.12-12,1.72l-.57.14A15.53,15.53,0,0,0,399.39,379.71Z" style="fill:#fff;opacity:0.2"></path><path d="M451.51,279.08c7.51,1.87,15.88,3.93,20.67,7.73a102.76,102.76,0,0,0-5.91-11.38c-.7-.19-1.41-.37-2.1-.51-4-.79-8-.82-12-1.69-3.5-.75-7.59-2.64-9.15-6a6.77,6.77,0,0,1,.28-6.09c.89-1.74,2.25-3.12,3.24-4.76a13.1,13.1,0,0,0,1.59-4.08q-4.58-4.62-9.8-9.06c2.71,4.65,1.48,9.39-1.65,13.23-3.29,4.05-8.65,8.17-5.33,13.11C434.39,274.24,443.48,277.1,451.51,279.08Zm-346,140.31a17.4,17.4,0,0,0-2.31-6.9,8.81,8.81,0,0,0-4.2-4c-3.31-1.46-7.47-1.1-10.56-.32A93.44,93.44,0,0,0,78,411.84q3.23,2.16,6.63,4.26c2.5-.48,4.94-.85,6.71-1.33a4.42,4.42,0,0,1,1.8-.24,4.94,4.94,0,0,1,3,2.1,11.33,11.33,0,0,1,1.43,3.28q.65,2.1,1.2,4.2c2.54,1.32,5.12,2.61,7.73,3.85a11,11,0,0,1-.54-1.55C105.43,424,105.78,421.74,105.55,419.39Zm214.14,32q5.58-1.05,11.1-2.27c-.51,0-1,.05-1.51.09A32.66,32.66,0,0,0,319.69,451.41Zm150.13-122c3.28-3.28,5.88-7.13,4.27-11.36-1.06-2.76-3.86-5.6-3.59-8.23s3.61-4.47,7.28-5.84a86.89,86.89,0,0,0-2.41-8.9,5.63,5.63,0,0,1-.66,1.23,14.28,14.28,0,0,1-7.39,5.16,17.94,17.94,0,0,1-8.35.66c-3.12-.51-6.12-1.47-9.21-2.13a48.54,48.54,0,0,0-15.81-.9c-5.28.66-10.49,2.3-16.18.84s-9.11-5.66-14.85-7.4c-6-1.82-12.48-.35-18.68-1.8s-10.55-6.13-8.33-9.13,8.87-3.68,12.23-6.16c2.89-2.13,2.89-5.55,0-8.46a29.73,29.73,0,0,1-2.88-2.82c-2.58-3.52,2-6.31,5.93-8.52,4.11-2.31,7.95-5.11,7.74-8.79-.07-1.44-.77-2.94-.58-4.34.27-1.81,2-3.25,3.73-4.58a22.06,22.06,0,0,1,11.74-5,30.51,30.51,0,0,1,14.68,2.65q-7.5-5.49-16.1-10.61l-2.73-1.58A38.91,38.91,0,0,0,398.41,229c-2.07,1.57-4.13,3.44-7.11,3.32-2.48-.09-5.05-1.52-7.44-2.92-1.88-1.08-3.94-2.33-4.93-4.19-1.48-2.73,0-5.24,1-7.56a17.08,17.08,0,0,0,.83-8.42q-6.17-2.55-12.55-4.81c.4.36.78.73,1.13,1.1,2.94,3.07,4.11,6.59,2.27,9.32-2.73,4-11,5.38-18.53,6.52s-15.68,2.76-17.78,7c-1.58,3.2.79,7.14-.1,10.52-1.12,4.18-6.59,5.69-10.78,6.25-5.79.79-12.29-1-18.46-1.92a46.56,46.56,0,0,0-13.45.05c-5.55.72-14,3.54-17.54.28-2.21-2.06,4.57-2.76,7.17-4,4.59-2.18,5.76-6.18,4-10s-6.15-7.55-11.4-10.67c-2.65-1.58-5.57-3-7.57-4.87-5.12-4.63-1.42-10.51,6.88-11,5.33-.31,11.3,1.23,16.77,1.2,8,0,13.34-3.33,18.52-6.17a51.85,51.85,0,0,1,15-5.65q-4.86-1-9.76-1.83c-5.09,1.81-10.39,3.47-15.13,5.53a27.81,27.81,0,0,1-6.17,2.23c-6.95,1.38-17.1-1.24-22.84,1.18-1.56.63-3,1.67-5.17,1.34a5.47,5.47,0,0,1-3.57-2,16.9,16.9,0,0,1-1.3-2.68,11.85,11.85,0,0,0-5.5-4.69c-2.38-1.13-5.68-2.29-5.73-3.85,0-.58.51-1.06,1.16-1.43a10.91,10.91,0,0,1,3.08-1.07q-7.45-.06-14.9.15c-1.44,2.84,6.52,6.53,8.76,8.16,4.83,3.5,7.09,8.82,8.14,13.72.36,1.6.67,3.27-.48,4.55-2,2.16-7.24,2.36-11.81,2.6-13,.73-24.87,3.53-33.89,8a18.23,18.23,0,0,0-6.28,4.47c-2.42,3.08-2,7.19-6.14,9.5-5.61,3.14-16.31,1.46-25.29-.36a20,20,0,0,1-5.6-1.72c-3.46-1.88-2.81-4.77-1-6.67a17.38,17.38,0,0,1,6-3.77c2.68-1.07,5.9-1.81,8.35-3,4.61-2.35,5.91-6.57,3.3-10.55a9.74,9.74,0,0,0-3.8-3.3c-1.82-.88-4.08-1.35-6-2.18a10.5,10.5,0,0,1-6.42-7.12,10.19,10.19,0,0,1-.34-3.08c-2.2.52-4.4,1.05-6.58,1.6,0,.47.11.93.2,1.4.16,1,.36,2.07-.36,2.52a2.43,2.43,0,0,1-1.44.18c-3.53-.25-7.08-.55-10.6-.73a271.36,271.36,0,0,0-51.86,21.16c1.13,2.55,2,5.21,1.5,6.38-.32.85-1.29,1.21-2.2,1.5-6.77,2.09-13.93,3.44-20.48,5.88-.73.27-1.46.57-2.18.87q-7.14,5.19-13.28,10.68c-.09.16-.19.31-.27.46-3.74,6.92-3.92,17-11.49,20.09a20.6,20.6,0,0,1-7.95,1c-1.83,2.52-3.51,5.07-5.07,7.65,3.62.38,7.34,1.6,11,1.91a20.69,20.69,0,0,0,12-2.51c14.34-8.25,4.94-25.78,19.76-33.76a40.34,40.34,0,0,1,11.07-3.51c5.28-1,12.06-1.39,17.44,1,3.75,1.66,5.82,4.31,6.28,6.73s-.44,4.65-1.33,6.86L106.36,261c-1.22,3.06-1.89,7,3.1,9.51,4.83,2.39,13,2.21,15.67,5.38,1.28,1.5.44,3-.7,4.27C118,287.13,103.61,290,93.25,295c-3.61,1.77-6.85,4-7.46,6.84-.36,1.75.25,3.66,0,5.43s-1.77,3.53-4.85,3.77c-4.51.36-8.94-2.45-13-4.42-7.82-3.8-17.8-5.25-26.23-8.51-4.8-1.85-11.16-5.13-14.69-9.5-1,2.47-1.92,4.94-2.71,7.43A73.93,73.93,0,0,0,32,299.4c4.19,1.54,9.36,3.32,10,5.87s-3.93,3.9-7.13,5.35c-6.34,2.92-7.75,8.71-3.41,13.83,1.93,2.24,4.84,4.37,5.74,6.68s-.43,4.49-2.72,6.06c-1.87,1.29-4.19,1.73-6.12,2.86a43.37,43.37,0,0,1-5.29,2.62c.44,1.67.92,3.34,1.47,5A56.42,56.42,0,0,1,31.73,344c5.06-2.22,10.46-4.3,14.14-7.3,3.11-2.52,4.71-6.21,1-9.41-1.71-1.49-4.29-2.62-6.18-4-5.88-4.38-2.94-10.19,4.17-12.1s16.77-.71,25.41,1.4a113,113,0,0,1,19,6.51c5.56,2.51,11,5.54,17.41,6.69,8,1.46,15.24-.34,23.11,0,2.09.08,4.52.4,6,1.44a4.31,4.31,0,0,1,1.56,2.25c1.17,3.21,2.33,6.39,3.5,9.58.7,1.84,1.36,3.79.18,5.33s-3.74,2.23-6.16,3c-13.71,4.49-24.27,11.42-30.26,19.85-1.42,2-2.69,4.2-5.77,5.4s-8.69.89-11.35-1.29c-2-1.67-1.75-3.93-3.19-5.82-1.87-2.46-4-2.39-6.27-2.05-5.94.92-11.59,2.46-17.34,3.78-6.25,1.44-12.78,3.12-19.84,2.07-2.25-.33-4.54-.74-6.77-1.25a119.74,119.74,0,0,0,12.32,16.62c9.45-3.75,21.77-5.48,34.77-4.86a53,53,0,0,0,9.07.06c2.36-.3,4.41-1,7-1,4.19.09,8.09,2.26,11.34,4.21L119.82,390c7.1,4.3,16,9.09,25,8.82a21,21,0,0,0,11.6-3.87A10,10,0,0,1,160,393a7.71,7.71,0,0,1,5.24.59c2.3,1.38.86,3.19,0,4.66-1.34,2.32-.57,5.26,2,7.79a11.93,11.93,0,0,1,2.22,2.3c.88,1.55-.29,3-2.12,3.89a46.93,46.93,0,0,1-6.42,2c-7.85,2.33-12.59,7.13-12.43,12.61v1.62a14.63,14.63,0,0,1-7.82,9,22.31,22.31,0,0,1-6.1,1.91q8,2.76,16.3,5.12a12.61,12.61,0,0,1,2.38-.82c4.05-.88,8.85.52,13.39,1.28,12.84,2.13,24.71-1.05,37.59,1.58,3.43.71,7.44,2.25,9.18,5.44a5.71,5.71,0,0,1,.6,4.15q4.93.47,9.9.8c.14-.3.27-.6.38-.91,1.37-4-.81-9.07-7.29-12.22-3.88-1.9-8.74-2.82-13.36-3.37a101.52,101.52,0,0,0-16.15-.66c-5.53.22-11.19.91-16.88-.49-6.76-1.67-11.49-6-12.14-9.86s2-7.23,5.75-9.9a26.08,26.08,0,0,1,8.66-4.19c7.77-2.14,18.87-1.19,27.53,2.36,7.38,3,12.7,7.53,20,10.56,12.86,5.27,28.49,4.76,42.66,8.16,1.76.42,3.69,1,4.63,2,1.43,1.47-.27,2.95-2.51,3.49s-5,.58-7.16,1.21c-3.85,1.15-4.85,4.11-3.54,6.89s4.36,5.26,7.58,7.65c2.77-.09,5.55-.2,8.32-.35-.58-.56-1.12-1.13-1.66-1.7q-2-2.16-4-4.29a4.57,4.57,0,0,1-1.34-2c-.13-.81.48-1.5,1.19-2.09a19.59,19.59,0,0,1,7.4-3.68c4.69-1.29,10.37-1.59,15.94-1.84s11.25-.54,16-1.83,8.33-3.79,8.11-7c-.13-1.76-1.35-3.68-.46-5.23s3.65-2.28,6.62-2.38a52.21,52.21,0,0,1,9.2.84c4.51.69,9.37,1.34,13,.39,3.49-.94,5.17-3.17,8.68-4.09,4.2-1.13,10.72.15,14.13,2.77a3.53,3.53,0,0,1,1.12,1.23,2.47,2.47,0,0,1-.14,1.54c-.59,2.49,1.79,5.54,5.86,7.43,0,0,1.06.52,2.6,1.37a255.51,255.51,0,0,0,32.53-14.82c1.25-4.21,2.55-8.38,5.16-11.65,7.29-9.11,22.8-9,32.84-15.13a136.74,136.74,0,0,0,14.56-15.6c-6.27.31-13.55-1-18.78-3.88-2.05-1.14-3.73-2.45-5.64-3.65-6.4-4.06-15.49-6.76-24.05-7.18s-16.39,1.47-20.71,5c-2.67,2.17-2.85,5.26-5.35,7.5s-7.38,1.1-11.67.74a7.78,7.78,0,0,1-2.84-.59c-1.68-.83-1.26-2.19-.41-3.09,6.47-6.83,24.86-8.47,27-16.56.74-2.76-.6-5.92.91-8.46,1.8-3,7.19-4.51,11.89-6.14s9.32-4,8.68-7.48c-.75-4.15-8.48-7.76-11-11.91-2.82-4.54,1-8.66,5.89-11.53a51.9,51.9,0,0,1,23.61-6.68,49.7,49.7,0,0,1,18.5,2.33c9.26,3.21,14.85,10.06,12.25,15s-12.18,7.38-15.72,12.14c-2.32,3.06-1.84,7.06,1.27,10.67,3.4,3.94,9.51,7.16,14.85,10.53,1.46.92,2.9,1.9,4.22,2.9q1.42-2.94,2.62-5.91L471.13,352c-3.21-1.77-6.77-3.48-8.73-5.69a6.27,6.27,0,0,1-1.28-6.67C462.56,335.77,466.57,332.7,469.82,329.42Zm-160.6-79.91c7.58.89,15.54,2.31,22.38,1.42,10.4-1.35,14.93-7.71,14.81-14.05a9.56,9.56,0,0,1,.31-4c1.89-4.35,12.12-5.25,20.57-3.26,7.74,1.83,14.69,5.59,18.3,9.92s3.79,9.07.5,12.55c-2.17,2.28-5.66,4-9,5.66-3.56,1.85-7.14,4.64-4.23,7.6,1.72,1.75,5.44,3.16,5.78,5,.2,1-.79,1.84-1.89,2.5-3.55,2.15-8.58,3.5-14.24,3.79-10.23.54-21.68-2.24-32-1.87-7.9.28-14.63,2.43-19.23,5.61-1.73,1.17-3.21,2.53-5.54,3.34a12.76,12.76,0,0,1-8.6-.22c-3-1.32-3.83-3.64-3.7-5.53s.79-3.81-.63-5.73c-1.82-2.42-8.05-4.91-11.21-6.16a72.4,72.4,0,0,1-14.71-1.91c-4.76-1.32-9.29-3.86-10.15-6.64-1.23-4.09,5.52-6.42,11.92-7.46A149.38,149.38,0,0,1,309.22,249.51Zm24.71,69.72c1,4,5.54,7.94,7.5,11.95,2.06,4.23,1.05,8.5-2.7,11.55-3.08,2.48-8.77,4.16-14.78,2.8-8.9-2-13.43-8-19.38-12.52a6.11,6.11,0,0,1-.86-1.06c-3.14-3.83-4.89-7.87-5.12-11.73-.16-2.72.17-5.76-3.42-8.1a26.74,26.74,0,0,1-3.17-2c-2.41-2.18.74-4.37,4.49-4.88s8.22-.14,11.42-1.15c4.63-1.48,4.94-5.32,3.36-8.71-.78-1.65-1.91-3.34-1.78-4.92.16-2.2,2.72-3.78,5.49-5,7.21-3.17,16.69-4.82,26.89-4.68a54.33,54.33,0,0,1,15.7,2.2c5,1.57,9.51,4.32,10.8,7.32,1.48,3.42-1.41,6.45-5.49,8.37s-9.24,3.07-13.72,4.72a32.47,32.47,0,0,0-11.85,7.16C334.8,313.08,333.15,316,333.93,319.23ZM188,350.07c-2.6-1.77-6.66-2.59-10.33-2.89s-7.31-.26-11-.89c-8.49-1.41-15.59-6.45-17.28-11.24s1.23-9.24,6.25-12.34,12-5,19.12-6.63c6.65-1.48,14.69-2.64,22.18-.24s12,7.52,19.64,9.21c5.48,1.23,12.22.65,15.94,3.41,2.18,1.62,2,3.66.79,5.15s-3.33,2.62-4.83,4c-4.76,4.42-2.36,11.51,5.54,16.26,3.08,1.85,7.13,3.63,7.83,5.91.59,1.87-1.5,3.38-4.2,4.1s-6.31,1.42-8.89,2.24c-3.65,1.13-8.46,4.14-12.29,5.18a39.79,39.79,0,0,1-8.56.87A39.87,39.87,0,0,1,197.22,370a21.89,21.89,0,0,1-6.59-3c-3.44-2.66-2.28-5.83-1-8.49S191.7,352.63,188,350.07ZM288.82,288.8c3.41,2.4,9.82,3.53,11.71,6.29,1.28,1.89-.3,3.66-2.47,4.79a26.77,26.77,0,0,1-12.54,2.47c-4.79-.09-9.76-1.06-14.64-1.49A84.54,84.54,0,0,0,256,301c-6.12.54-12.45,1.7-14.86,4.76-3.38,4.29,1.87,11.26-4.37,14.2-4.36,2.07-12.18.83-18.15-1.39s-11.07-5.29-17.15-7.37a65.7,65.7,0,0,0-15.66-3,7.68,7.68,0,0,0-1.95.11c-3.18,1-7.94.78-10.51-1.35s-1.47-5.18.24-7c2.45-2.64,7.43-4.14,12.92-4.64a87,87,0,0,1,17.39.66c8.25,1,17.16,2.46,24,.83a21.32,21.32,0,0,0,7.32-3.4,23,23,0,0,0,8.08-9.47c1.53-3.54,1.84-7.44,4.52-10.62,3.24-3.84,10.37-6.43,18.76-5.84s17.47,4.85,19.15,9.6C287.16,281.06,283.88,285.3,288.82,288.8Zm-59.88,82.44c6.57-1.49,14.46-1.71,20.09-4,2.54-1,4.6-2.53,4.55-4.46-.08-3.06-5-5.94-8.63-8.71-3.92-3-6.78-6.59-5.75-9.67,1.24-3.68,7.51-5.5,13.32-7a8.65,8.65,0,0,1,3.11-.35,9.11,9.11,0,0,1,2.46.75,21.81,21.81,0,0,1,10.33,9c1.91,3.33,2.77,6.7,4.57,10,3.3,6,9.79,11.84,18.34,16.48,2.57.81,5.61,1.39,7.87,2.52,4.57,2.26,4.67,6.07,2.13,8.39s-7,3.67-10.39,5.52c-4.06,2.2-6.72,5.08-10,7.69a25.76,25.76,0,0,1-13,5.83c-5.74.8-13.49-.42-17.76-3.61-2.59-2-3.56-4.31-6-6.32-6.2-5.2-20.34-6.93-24.33-12.56C216.84,376.47,222.37,372.72,228.94,371.24ZM302,370.06c-5.78,0-12.51-2.06-15.83-5.21a13.82,13.82,0,0,1-3.17-5l-3.51-8.16c-1.55-3.65-3.18-7.38-6.68-10.82a28.92,28.92,0,0,0-15.77-7.5c-3.71-.51-8.28-.54-10.5-2.47s.13-3.87,2-5.39a13.59,13.59,0,0,0,5.33-8.76c.3-2.21,0-4.58,1.1-6.6,1.73-3,7.07-5,13.22-4.75s12.82,2.54,16.55,5.8c2.85,2.48,3.92,5.28,4.94,8q4.08,10.85,8.14,21.67c1.55,4.15,3.2,8.44,7.54,12.28,1.85,1.64,4.15,3.14,5.93,4.8,2.69,2.51,4.57,4.07,4.45,6.65a6.44,6.44,0,0,1-.47,1.16C313.28,368.52,307.81,370.07,302,370.06ZM205,236.73c2-6.95,13.21-10.69,23.66-13.83,7.1-2.12,14.55-4.26,23.36-4.21s19.42,3,23.67,8a6.8,6.8,0,0,1,.3,9.16c-2.09,2.64-5.76,4.64-9.65,6.43-4.9,2.24-9.09,4.3-14.83,5.92-4.45,1.87-5.47,5.86-2.36,9.3a13.75,13.75,0,0,1,1.81,2.11c1.51,2.87-3.44,4.49-7,6-5.35,2.32-8.32,6.19-8.05,10.44.19,2.68,1.58,5.59.36,8s-6.7,3.93-10.82,2c-4.8-2.28-2.57-6.25-5.75-9.23-1.38-1.29-3.71-2.33-4.68-3.68-1.31-1.89.45-3.54,2-5,3.29-3,5.75-6.56,5.05-10.52-.93-5.36-7.43-10.62-13.9-15.38a11.38,11.38,0,0,1-3-2.71A3.3,3.3,0,0,1,205,236.73Zm-81.5,32.82c-5.71-2.24-6.21-6.77-3.87-9.68s6.65-5.13,7.83-8.37c1.11-3-.74-6.62-4-9.77s-7.78-5.9-12.5-8.49a19.2,19.2,0,0,1-5-3.38,4.59,4.59,0,0,1-1.09-4.06c.7-4,4.38-7.19,8.48-10a64.77,64.77,0,0,1,21.59-9.8,50.35,50.35,0,0,1,22.25-.64c7.83,1.68,15.15,6.4,14.74,10.67-.79,8.53-16,5.69-16.53,14.77-.13,2.05.17,4.28-.49,6.12-1,2.7-3.78,4-4.91,6.56-1.36,3.08-.51,7.08.39,10.75,1,4,2.07,8.29.72,11.6a7.69,7.69,0,0,1-4.61,4.35,41.8,41.8,0,0,1-17.39.76A30.14,30.14,0,0,1,123.49,269.55Zm13.33,50.65c-9.2,1.31-15.47,2.73-25.74,1-5.57-.93-11.45-2.8-14.6-5.77a7.72,7.72,0,0,1-2.69-5.91c0-8.26,11-13.63,21.35-18.24l27.33-12.18c8.35-3.74,17.24-8.05,17.46-14.69.17-5.14-5-10.89-3.28-15.71,2-5.6,13-8,23.85-7.14,7.88.65,16.46,3,21.71,6.95a18.87,18.87,0,0,1,4.34,4.63c1.25,1.86,2.13,3.87,1.17,5.49-.69,1.17-2.28,2-3.51,3-4.55,3.63-3.87,9.49,1.66,14.11,1.9,1.6,4.34,3.08,5.6,4.82,2.45,3.37-.57,6.67-5.36,8.08s-11,1.34-16.87,1.3-12.07-.06-16.82,1.39c-4.51,1.36-7.25,3.93-9.79,6.44-1.81,1.83-3.64,3.76-3.49,6.08.12,2.17,2,4.49,1.88,6.63s-2.39,4-5.08,5.29c-4.17,2-5.92,2.27-11.63,3.26,0,0-1.79.21-2.31.36C141,319.67,138.73,319.93,136.82,320.2Zm62.12,84c-.76,1.6-1.13,3.33-2.41,4.76a8.57,8.57,0,0,1-7,2.23c-3.3-.31-6.2-2-8.7-3.48-3.56-2.15-7.37-4.64-7.7-7.25-.39-3,4-5.05,3.75-8-.24-3.42-7.9-7-13.46-6.21-3.35.43-5.39,2-7.8,3.26a33.35,33.35,0,0,1-22,2.29,33.19,33.19,0,0,1-8.86-4.22c-3.75-2.39-7.33-5-9.14-7.81-3.42-5.35.05-10.37,4.24-14.52a86.72,86.72,0,0,1,18.23-13.58c3.52-2,7.69-4,13.28-3.92a68,68,0,0,1,8.42.89c4.37.56,8.77.76,13.1,1.65s8.82,2.69,10.55,5.11c2.83,4-2.75,7.26-1.83,11.27.63,2.79,4.81,5.68,9.74,6.75,3.52.76,7,.64,10.57.95s7.66,1.36,9.32,3.3c1.11,1.29.83,2.67,1.5,4,2.32,4.65,14.17,6.85,17.77,11.41a1.43,1.43,0,0,1,.41,1.17c-.27.76-1.91.9-3.34.89-6.79-.05-15.08-1.23-19,1.41l-.88.16C203.46,398.58,200.41,401.2,198.94,404.24Zm134,17.39a49.06,49.06,0,0,1-16.23,0c-4.26-.69-9-1.87-12.42-.95s-3.92,3.72-3.33,6.17,1.79,5.1.34,7.17c-2,2.79-8.06,3.53-13.74,3.67-3.75.08-7.91-.06-11.43-1.46-1.84-.72-3.34-1.74-5.07-2.57-7.78-3.85-18-3.63-27.3-4.48-11.92-1.08-24.76-4.74-32.52-10.76s-8.65-14.45-.07-17.87c3.49-1.37,8.12-1.85,12.86-1.77a67.89,67.89,0,0,1,23.4,4.69c4.56,1.82,8.76,4.14,13.74,5.33,8,1.92,16.06.43,20.94-2.46s7.2-7,9.45-10.93a5.92,5.92,0,0,1,5.8-3.35,9,9,0,0,1,6.51,3.29c1.12,1.57,1.27,3.19,1.93,4.79,1.41,3.36,5.38,6.72,10.65,9l1.23.32a42.43,42.43,0,0,1,13.45.35c4.59,1,9,3.4,9.73,6C341.7,418.76,337.55,420.79,333,421.63Zm50.29-37.18a8.64,8.64,0,0,0,7.49-5.11c1.05-2.34,1.41-4.94,3.67-6.86,3.44-2.89,10.89-3.66,17.91-2.45a48.75,48.75,0,0,1,18.48,7.49c3.3,2.21,6.12,4.75,6.92,7.34,1.53,5.12-5.21,8.76-12.53,10.73s-15.91,3.1-21.12,6.49c-6,3.9-6.29,10-7.36,15.53s-3.88,11.44-12.65,13.42c-2.91.66-7.12.61-9.63-1-2.08-1.36-2-3.21-1-4.55s2.7-2.41,3.52-3.8a1.78,1.78,0,0,0,0-2.07c-.92-1.36-3.89-2.14-6.33-2.28s-4.8.13-7.26-.23c-5.77-.83-11.47.13-16.23-2.32-3.37-1.74-4.9-4.33-4.87-6.58s1.36-4.25,2.68-6.21c2.91-4.3,5.8-8.6,8.71-12.91,2.09-3.1,5-6.53,11.22-6.72C370.87,382.13,377.62,385.06,383.27,384.45Zm-2.06-24.21c-4.33,3.45-11.26,5.45-17.12,8.06-11.41,5.12-18.91,12.77-21.08,21.52-.59,2.37-.8,4.82-1.85,7.08a12.79,12.79,0,0,1-5,5.38,20.88,20.88,0,0,1-12,2.91c-4.92-.21-10.48-2.24-12.43-5-3.59-5.08,5.87-8.66,4.85-13.75-.74-3.79-7.23-7.93-5.26-11.22,2.09-3.51,12.28-3,14.88-6.34,1.69-2.14-.45-5.11-3.44-7.46S316,357,313.36,354.6s-6-6.62-5-8.45c.62-1,2.72-.91,3.46-.81,6.79.94,11.6,6.78,18.26,7A16.79,16.79,0,0,0,336.8,351c6.39-2.5,11.73-5.82,19.23-7.36s18.31-.75,24.49,3.53C386.51,351.26,385.53,356.79,381.21,360.24Zm23.57-52.33c-3.89,2.12-7.77,4.25-11.66,6.35-1.57.87-3.2,1.8-3.51,3.11-.8,3.25,6.16,6.29,9.95,9.47,3.07,2.56,4.19,5.68,2.92,8.16s-4.08,4.45-6.44,5.6c-3.58,1.77-11.69,2.43-17,1.06s-10.5-3.62-15.86-3.82c-2.84-.12-5.78.32-8.41-.65-4-1.51-3.39-4.55-4.73-7s-5.44-4.79-7.44-7.32c-2.77-3.55-1.11-7.22,2.53-9.64s9-3.77,14.23-5.11S370,305.39,373.55,303c3-2,4.74-4.77,8.49-6.41,5.82-2.51,16.27-1.52,22.9,2.17,2.2,1.24,4.05,2.82,4.29,4.37C409.55,305.16,407.09,306.63,404.78,307.91Z" style="fill:#fff;opacity:0.1"></path></g></g></g><g id="freepik--Floor--inject-873"><g id="freepik--floor--inject-873"><path d="M112.61,281.79a163.06,163.06,0,0,0-20,13.55L363.84,452a206.51,206.51,0,0,0,23.48-11.57,161.83,161.83,0,0,0,21.21-14.5L137.74,269.54A208.19,208.19,0,0,0,112.61,281.79Z" style="fill:#f0f0f0"></path><path d="M61.6,333.66,297.48,469.84a278.21,278.21,0,0,0,62-16.1l-270-155.86C76.37,309,67.07,321.09,61.6,333.66Z" style="fill:#f5f5f5"></path><path d="M112.62,440.39c22.1,12.76,48.22,21.8,76,27.12l-123-71C74.86,412.55,90.51,427.63,112.62,440.39Z" style="fill:#f5f5f5"></path><path d="M62.41,390.32l136.92,79.06a334.88,334.88,0,0,0,92.09,1.29L60.17,337.16C53.57,354.69,54.32,373,62.41,390.32Z" style="fill:#f0f0f0"></path><path d="M142.17,267.78,411.59,423.33c13-11.2,22.07-23.44,27.3-36.12L204.72,252A280.49,280.49,0,0,0,142.17,267.78Z" style="fill:#f5f5f5"></path><path d="M387.32,281.79c-21-12.1-45.53-20.85-71.7-26.27l117.2,67.67C423.44,308.08,408.28,293.89,387.32,281.79Z" style="fill:#f5f5f5"></path><path d="M210.86,251.23,440.25,383.67c6.33-17.88,5.06-36.48-3.82-54.08L304.52,253.44A334.51,334.51,0,0,0,210.86,251.23Z" style="fill:#f0f0f0"></path><path d="M137.74,269.54,408.53,425.89c1.05-.85,2.07-1.7,3.06-2.56L142.17,267.78Q139.94,268.64,137.74,269.54Z" style="fill:#e0e0e0"></path><path d="M204.72,252,438.89,387.21c.49-1.17.94-2.35,1.36-3.54L210.86,251.23Q207.79,251.61,204.72,252Z" style="fill:#e0e0e0"></path><path d="M89.49,297.88l270,155.86c1.47-.58,2.94-1.17,4.39-1.78L92.58,295.34C91.52,296.18,90.49,297,89.49,297.88Z" style="fill:#e0e0e0"></path><path d="M315.62,255.52q-5.5-1.14-11.1-2.08l131.91,76.15c-1.09-2.15-2.29-4.29-3.61-6.4Z" style="fill:#e0e0e0"></path><path d="M60.17,337.16,291.42,470.67q3-.39,6.06-.83L61.6,333.66C61.1,334.82,60.62,336,60.17,337.16Z" style="fill:#e0e0e0"></path><path d="M65.64,396.51l123,71q5.32,1,10.72,1.87L62.41,390.32C63.37,392.4,64.46,394.46,65.64,396.51Z" style="fill:#e0e0e0"></path></g></g><g id="freepik--Sun--inject-873"><circle id="freepik--sun--inject-873" cx="301.4" cy="77.81" r="15.79" transform="translate(156.42 353.27) rotate(-76.72)" style="fill:#ffbda7"></circle></g><g id="freepik--Cloud--inject-873"><path id="freepik--cloud--inject-873" d="M365,110.49c0-5.2,5.74-8.81,12.24-9.42,5.73-.53,11.07,1.39,13.73,6.75a12.44,12.44,0,0,1,7.23.34,6.53,6.53,0,0,1,4.21,5.52,7.24,7.24,0,0,1,6.32.38,8.3,8.3,0,0,1,3.86,5.54,18.85,18.85,0,0,1,8.23,1.4,2,2,0,0,1,1.18.92c.42,1-.82,1.9-1.86,2.21A15.63,15.63,0,0,1,411,124a2.12,2.12,0,0,0-1-.15,2.24,2.24,0,0,0-1,.69,9.57,9.57,0,0,1-7.37,2.53,12.32,12.32,0,0,1-7.2-3.22,1.23,1.23,0,0,0-.85-.43,1.25,1.25,0,0,0-.66.41,13.09,13.09,0,0,1-9.61,3.43,18.56,18.56,0,0,1-9.73-3.53,38.11,38.11,0,0,1-4.94,2.8,23.63,23.63,0,0,1-5.38,1.06,13.26,13.26,0,0,1-10.27-3.88c-1.22,1.15-4.59,1.5-7.29.86-1.77-.42-2.18-1.17-2.18-1.17a15.59,15.59,0,0,1-3.26,1c-3.48.72-9.95,0-7.23-3.16.92-1.06,4.31-1.73,5.74-1.4,1.52-3,7.61-5.77,11.11-3.27.13-3.59,3.44-6.4,8.09-7.11C359.46,109.23,363.2,109,365,110.49Z" style="fill:#f5f5f5"></path></g><g id="freepik--Birds--inject-873"><g id="freepik--birds--inject-873"><path d="M419.9,58c-7.61-2.92-16,3.32-21.52,11.83-4.89-6.13-16.95-13.27-23.42-7.32C383.67,59.7,392.44,65,397.48,72c.34.44,1.42,1,1.89.12C404.63,62.57,412.81,57.65,419.9,58Z" style="fill:#455a64"></path><path d="M455.44,78.37c-6.14-1.53-11.87,6-13.48,12-4.35-4.26-11.35-8.89-17.13-5,7.11-1.73,12.1,1.94,16.64,6.8.31.3,1.29.64,1.47-.09C444.61,85.06,450,78.8,455.44,78.37Z" style="fill:#455a64"></path></g></g><g id="freepik--Flag--inject-873"><g id="freepik--flag--inject-873"><path d="M47.94,100.3c17.89-1.15,26.52-5.51,46.45-24.72,13-12.51,27.35-25.07,58.19-21.67l3.68,20.43s-8.21.65-16.81,8.36c3.71-.54,9.23-2.2,13.24-1.27a8.37,8.37,0,0,1,5.44,5,26.59,26.59,0,0,0-12.73,3.28c4.83-.56,10-1.06,14.84,1.15,1.49,5.61,2.75,11.25,3.75,16.88a33.62,33.62,0,0,0-18.29,3.6,47.24,47.24,0,0,1,15.74,1.83,2.73,2.73,0,0,1,1.29.65,2.77,2.77,0,0,1,.56,1.36c1.31,6.5,2.68,12.94,3.85,19.46-18-3.4-29.69,3-40.65,15.89-11.21,13.22-28.5,32.61-61,36.85C68.19,153.74,61.12,125.38,47.94,100.3Z" style="fill:#263238"></path><g id="freepik--Skull--inject-873"><path d="M95.33,150.5a1.4,1.4,0,0,1,1.19-.57,3.88,3.88,0,0,0,3.39-1.82l19.74-26.06a6.28,6.28,0,0,0,1-3.94v0c-.1-2,.74-3.74,1.84-4,.66-.13,1.27.54,1.58,1.57.25.82.73,1.32,1.26,1.23s1.16.3,1.47,1.13a5.48,5.48,0,0,1-.62,4.93,1.52,1.52,0,0,1-1.06.6,5.7,5.7,0,0,0-4.29,2.51L101.94,151a7.27,7.27,0,0,0-1.13,4.54v0c.08,2-.77,3.72-1.87,3.91-.66.12-1.26-.57-1.57-1.61-.24-.83-.71-1.34-1.25-1.26s-1.15-.34-1.46-1.18A5.45,5.45,0,0,1,95.33,150.5Z" style="fill:#fafafa"></path><path d="M108.89,126.64a14.29,14.29,0,0,0,5.88-7.47c-.56-3.09-.53-4.75.36-6.59s3.05-1.46,3.46-5.5-2.1-4-2.53-6.36.63-4.18-.64-11.2S108.91,77.73,101,82.91,90.5,98,91.77,105s2.68,7.2,3.11,9.58-1.57,5.27.06,8,3.21-.13,4.5.28,1.86,1.68,2.41,4.77C101.85,127.64,104.18,129.73,108.89,126.64Z" style="fill:#fafafa"></path><path d="M99.68,106.75a5.59,5.59,0,0,0-3.11,4.44c-.21,2,.59,5.45,2.66,5.61,1.43.11,4-2.46,4.45-5.59S102.19,105.62,99.68,106.75Z" style="fill:#263238"></path><path d="M109.74,100.15c1.51-1.33,3.09-1.44,3.88-.14a8.48,8.48,0,0,1-.28,7.54c-1.1,1.76-4,2.81-5.32.82S107.39,102.21,109.74,100.15Z" style="fill:#263238"></path><path d="M107.23,117.42c.71,1.6,1.83,1.49,2.26.66s.15-1.7-.59-2.92a19.28,19.28,0,0,0-2.62-3,54.91,54.91,0,0,0-1.1,5.43c-.19,1.83-.13,2.86.48,3S107.19,119.52,107.23,117.42Z" style="fill:#263238"></path><path d="M127.29,129.54a2,2,0,0,0-1.13,1,4.7,4.7,0,0,1-3.25,2.54l-24,2.6c-.86.09-1.61-.7-2-2v0c-.56-1.65-1.79-2.07-2.73-1a4.59,4.59,0,0,0-.74,3.09,3.66,3.66,0,0,1-.6,2.45,4.13,4.13,0,0,0-.79,2.62c0,1.95,1,3.38,2.08,3.15a1.78,1.78,0,0,0,1-.77c1.23-1.72,2.66-2.88,4.19-3l22.9-2.48c1-.11,1.85.79,2.35,2.24v0c.57,1.63,1.81,2,2.73.88a4.61,4.61,0,0,0,.72-3.11,3.65,3.65,0,0,1,.58-2.46,4.17,4.17,0,0,0,.77-2.63C129.34,130.69,128.39,129.29,127.29,129.54Z" style="fill:#fafafa"></path></g><path d="M96.08,357.07,41.84,88.68,45.38,88,99.63,356.37C99.86,357.78,96.33,358.43,96.08,357.07Z" style="fill:#455a64"></path><path d="M47.55,88.33a4,4,0,1,1-3.95-4A4,4,0,0,1,47.55,88.33Z" style="fill:#37474f"></path></g></g><g id="freepik--Shadow--inject-873"><g id="freepik--shadow--inject-873" style="opacity:0.1"><path id="freepik--shadow--inject-873" d="M382.27,357.68,372.5,352c-2.71-1.57-6.82-1.74-9.17-.38L235.06,425.72c-2.36,1.35-2.06,3.72.65,5.29l9.77,5.64c2.72,1.57,6.82,1.74,9.17.38l54.42-31.42,19.15,11.06,19.95-11.52L329,394.1,382.93,363C385.28,361.62,385,359.24,382.27,357.68Z"></path><ellipse id="freepik--shadow--inject-873" cx="220.96" cy="387.03" rx="69.15" ry="39.92"></ellipse></g></g><g id="freepik--Character--inject-873"><g id="freepik--character--inject-873"><g id="freepik--Bottom--inject-873"><path d="M189.59,196l60.34-.14c6.88,28.26,8.95,69.19,7,99.58-.94,14.94-6.09,57.47-6.11,69.13,0,.7-6.84,5.16-11.53,4.63s-6-2.11-6.05-2.61c-.11-1.72-1.94-4.17-2.18-5.88-1.58-11.17-4-25.72-5.61-37.16a94.68,94.68,0,0,1-.37-25.38L219,255.81c0,.35-3.38,21.93-4.86,28.6l-.52,3.33c-.37,3.88-6.46,5.65-8.4,6-5.24,1.05-10-.19-14.77-2.56s-8.23-4.76-8.39-9.22l-.13-2.32c-.48-7.3.32-23.4.42-26.9C183.24,223.1,186.64,202.55,189.59,196Z" style="fill:#263238"></path><path d="M219,255.81l3.81-22.4s10.28-1.59,16.3-10.65c0,0-.17,8.68-13.56,13.18l-3.27,19.11L225.22,298Z"></path><path d="M189.32,328.8l-11.55,74.64a8.7,8.7,0,0,0,4.83.78l11.55-74.64Z" style="fill:#b16668"></path><path d="M178.72,397.27c-.31,1.74,4.57,2.48,4.83.81.76.49,1.3.67.84,3s1,3.16.3,7.1c0,0-1.09,2-5.26,1.31-4.88-.85-4.93-3-4.93-3,.5-4.26,2.05-4.32,2.42-6.65C177.11,398.64,177.52,397.39,178.72,397.27Z" style="fill:#9a4a4d"></path><path d="M190.36,327.41a1.26,1.26,0,0,0-.91.85,1.29,1.29,0,0,0,.49,1.15,3.78,3.78,0,0,0,3.39.73,1.2,1.2,0,0,0,.9-.84,1.23,1.23,0,0,0-.49-1.15A3.79,3.79,0,0,0,190.36,327.41Z" style="fill:#455a64"></path><path d="M199,323.17a15.87,15.87,0,0,0-12.41-2c-1.85.58-2.88,1.56-3,2.68l-.61,3.92c-.17,1.12.51,2.38,2.09,3.51a15.87,15.87,0,0,0,12.41,2c1.85-.58,2.88-1.56,3.05-2.68l.61-3.93C201.27,325.56,200.59,324.31,199,323.17Z" style="fill:#9a4a4d"></path><path d="M208.49,295.13c-3.87-2.7-15.89-4.87-21.81-3.33-2.82.74-4.19,2.07-4.18,3.59l.3,27.74c0,.66,1.5,3.07,4.23,4.38a18,18,0,0,0,10.07,1.56c3.16-.46,5.12-2.26,5.33-2.88L211.36,300C211.85,298.56,211,296.82,208.49,295.13Z" style="fill:#b16668"></path><path d="M181.85,309.57v.08c0,.93,1,2.34,2.54,3.73.23.21.46.41.71.61a19.08,19.08,0,0,0,7.79,3.89c5.7,1.21,13.36.43,14.08-1.39s1.45-3.75,2.06-5.4a125.37,125.37,0,0,0,4.69-18.22c.82-5.22,1.32-8.17.41-8.46l-.57,3.17s-5.4,6.18-18.2,3.62c-5.13-1-8.26-2.72-10.16-4.35h0c-.25-.21-.47-.42-.67-.62a8.83,8.83,0,0,1-2.48-4.22l-.13-2.32c-1.07-.1-.86,1.58-.7,5.15s1,15.19.81,19.21C181.94,305.64,181.89,307.69,181.85,309.57Z" style="fill:#37474f"></path><path d="M184.39,313.38c.23.21.46.41.71.61,0-.12,0-.23,0-.35.1-1,.17-2,.22-3,.14-2.42.15-4.84,0-7.26-.15-3.68-.42-7.35-.4-11,0-1.68.06-3.36.14-5,0-.16,0-.31,0-.47h0c-.25-.21-.47-.42-.67-.62l0,.51c-.13,1.86-.2,3.72-.23,5.57,0,3.51.14,7,.31,10.51q.19,3.81,0,7.61C184.56,311.41,184.49,312.39,184.39,313.38Z" style="fill:#263238"></path><path d="M188.52,291.7a1,1,0,1,0-1.07,1A1,1,0,0,0,188.52,291.7Zm.25,6.5a1,1,0,1,0-1.07,1A1,1,0,0,0,188.77,298.2Zm-.88,8.11a1,1,0,0,0,1.08-1,1,1,0,1,0-1.08,1Zm-1.81,6.53a1,1,0,1,0,1.07-1A1,1,0,0,0,186.08,312.84Z" style="fill:#263238"></path><path d="M236.76,388.51l4.22-2.29s-3.38-3.42-5.18-3.26Z"></path><path d="M278.79,390.36c1.31,3.34-5.09,6.61-11.1,7-9.45.61-16.4-1.1-21.26-5.2-4-3.35-8.3-8.4-9.61-8.55l-.06,4.9s-6.57-1.76-8.52-3.69-1.32-9-1.32-9,13.33.45,22.58,5.5S278.79,390.36,278.79,390.36Z" style="fill:#263238"></path><path d="M256.33,313.14c-.9,17.12-5.6,42.13-4.79,47.29s8,14.44,16,19.47c10.18,6.37,14.38,9.78,9.27,13.38-8.06,5.68-23.24,2.63-28.47-1s-9.12-9.55-13-10.26-8.35-2.12-8.44-6.23,2.68-12.89,2.52-20.57-4.78-26.89-5.1-40.79c0,0,1.71,2.65,11.68,2.94C245.57,317.64,256.33,313.14,256.33,313.14Z" style="fill:#37474f"></path><path d="M256.3,311.55a50.25,50.25,0,0,1-18.41,4.57c-10.73.4-13.72-3.39-13.72-3.39l-1.62,12.75s1.85,5.1,15.55,5.17c14.22.07,21.23-6.19,21.23-6.19Z" style="fill:#455a64"></path></g><g id="freepik--Top--inject-873"><g id="freepik--Arm--inject-873"><path d="M328.65,140.69c0-.69-.48-1.29-1.7-1.31.49-1,.9-1.81.37-2.41a1.93,1.93,0,0,0-2-.45,5.65,5.65,0,0,0-1.85,1.21,2.37,2.37,0,0,0-2-.1,5.25,5.25,0,0,0-1.73,1.19,56.18,56.18,0,0,0-4.41,5.31,14.62,14.62,0,0,1-3.37,3.15c-.49.31-3.21,1.94-2.73.27a12.62,12.62,0,0,1,1.07-2,10.24,10.24,0,0,0,1.09-4.34c0-2.21-.75-3.48-1.54-3.59-.61-.08-.86,1.37-2.21,3.47-1.72,2.68-5.47,4.87-6.48,8.17a12.14,12.14,0,0,1-5,5.74c-7.48,4.59-18.69,10-18.69,10s-7.29-10.53-10.22-15.4-8.78-16.53-12.59-19.85c-3.22-2.8-6.3-5-13.82-5.17l4.92,32.53s10.91,17.22,14.45,21.68c4.71,5.93,8.45,8.62,12.64,8.93,3.89.29,7.41-.86,15.18-6.62,5.83-4.32,7.79-5.8,13-9.75,2.31-1.76,5.75-4.26,7.82-4.93,4.78-1.54,10-5.12,13.88-8.28,2.53-2,3.67-5.6,5-8.46a6.29,6.29,0,0,0,.62-3.86,1.58,1.58,0,0,0-.57-1c.17-.45.34-1.09.55-1.91A12.73,12.73,0,0,0,328.65,140.69Z" style="fill:#ffa8a7"></path><path d="M310,150.64c.37,3.73-2.53,7.55-5.05,9.15C309.51,159.33,311.59,154.61,310,150.64Z" style="fill:#9a4a4d"></path><path d="M323.43,137.73c-3,3.18-4.78,7.25-7.6,10.58,3.22-2.9,5.11-7.1,7.6-10.58Z" style="fill:#f28f8f"></path><path d="M327,139.38a2.17,2.17,0,0,0-1.47.89,32.64,32.64,0,0,0-2.79,4.4,47.29,47.29,0,0,1-4,5.6,28.77,28.77,0,0,0,6.08-8.41c.59-.91,1.07-2.18,2.21-2.48Z" style="fill:#f28f8f"></path><path d="M327.67,144.78c-1.91-1.21-3.13,2.52-3.89,3.73a28.08,28.08,0,0,1-1.52,2.52c-.54.83-1.09,1.65-1.69,2.44a15,15,0,0,0,2-2.23,31.08,31.08,0,0,0,2.93-5.18c.44-.79,1.17-1.84,2.19-1.28Z" style="fill:#f28f8f"></path><path d="M241.55,124.28c8.44.58,11.75,2.37,15.9,7.85s19.61,32.33,19.61,32.33l1.85-.18a23.66,23.66,0,0,0-5.43,11.27,28.22,28.22,0,0,0,.56,11.33s-4.05,1-6.51.19-7.21-6.51-11.27-11.6-11.65-18-11.65-18Z" style="fill:#37474f"></path><path d="M276.54,162.7l5.68-.16a23.54,23.54,0,0,0-4.74,12.66c-.36,5.84.52,10.81,1.9,12.72a21,21,0,0,1-12,0C266.59,180.33,268.29,166.35,276.54,162.7Z" style="fill:#FFC100"></path></g><path d="M189.53,108.82a25.42,25.42,0,0,1-8.26,10.26c-10.14,7.24-24.29,5.44-35.49,10.9a58.75,58.75,0,0,0-10.85,7.46c1.72-1.38,8.9.52,10.82,1.1,2.31.69,2.54,1,4.65-.25a27.93,27.93,0,0,1,5.1-2.55,19.11,19.11,0,0,0-4.35,4.62c-.8,1.19,4.37,4,5.51,5.2.73.77,4.49,4.31,3.78,5.52,2.41-4.08,6.73-6.66,11.09-8.51s9-3.18,13.07-5.6a27.43,27.43,0,0,0,6.76-5.71c1.67-1.92,3.76-3.55,4.91-5.83,2.9-5.73,3-12.6,3.08-18.87a1.31,1.31,0,0,0-1.31-1.65,50.84,50.84,0,0,0-6.84-.91A28.33,28.33,0,0,1,189.53,108.82Z" style="fill:#FFC100"></path><polygon points="196.1 156.27 211.4 156.27 202.42 98.27 196.1 98.27 196.1 156.27" style="fill:#FFC100"></polygon><polygon points="196.1 156.27 211.4 156.27 202.42 98.27 196.1 98.27 196.1 156.27" style="opacity:0.15"></polygon><g id="freepik--Chest--inject-873"><g id="freepik--chest--inject-873"><path d="M198.65,125.29c9,11.13,28.12,8.53,27.91-2.29l8.14.77a28.32,28.32,0,0,1,13.14,15.73c3.6,11.33,3.12,29.58,3.73,45.52.41,10.74.49,16,.49,16s-4.36,12.29-22,12.29c-23.91,0-43.05-11.93-43.05-11.93a55.89,55.89,0,0,0-.6-11.47c-1.15-8.37-3.6-14.13-5.66-22,0,0,8.19-1.72,7.8-18.74-.25-11.25-7.84-14.85-7.84-14.85Z" style="fill:#f0f0f0"></path><path d="M232.93,123.6c4.46,7.91,3.47,14.54,2.61,44.78C234.92,190.64,234,206,234,206l.53,7.54L238.14,263s21.71-10.4,22-27.5a126.81,126.81,0,0,1-6.15-24l-.71-25.43c.08-3.72-.59-11.43-.88-24.91-.48-22.58-3-27.61-10.87-36.87Z" style="fill:#455a64"></path><path d="M195.16,126.48c16.49,24.85,29.21,54,30.93,79.47l-.63,6.09c-1.9,25.6-4.39,34.36-7.16,53,0,0-30.35-5.51-42.17-19.26,4.23-16,14.37-41.58,8.91-58.5-4.46-16.88-8-23.79-8-23.79s-13.11-16.83-3.23-27.7Z" style="fill:#455a64"></path></g><path d="M201.24,116.39c.91,8.87,6.74,25.18,13.07,40.12s11.78,34.65,11.78,49.44c0,0-8.77-24.48-14.69-35.46-8.72-16.21-17.89-23.32-17.89-23.32l6.82-6.25-16.2-11.47Z" style="fill:#37474f"></path><path d="M226.09,206c-1-11.83-9.68-29.89-15.41-40.52a74.65,74.65,0,0,0-14.43-18.31l7-6.46L185.6,128.33l-1.47,1.12,16.2,11.47-6.82,6.25s9.17,7.11,17.89,23.32C217.32,181.47,226.09,206,226.09,206Z" style="fill:#FFC100"></path><path d="M234.26,205.78c-.43,7.87-1.17-26.52-.62-47.19a72,72,0,0,0-9.29-36.47s-.74-.43-.79-4.6l17.08,5L238,136.44l9.51,7s-4.27,4.42-6.2,13.65S234.91,193.94,234.26,205.78Z" style="fill:#37474f"></path><path d="M247.53,143.46l-9.51-7,2.62-13.93-2.35-.68-2.75,15.26,9.3,6.89s-3.81,4.47-6.11,16.57c-2.2,11.51-4.87,29.43-4.67,46.13.07.49.14.26.2-.9.65-11.84,5.14-39.44,7.07-48.67S247.53,143.46,247.53,143.46Z" style="fill:#FFC100"></path><path d="M185.72,189.94s32.63,15.57,45.16,14.67,22.53-14.67,22.53-14.67l.48,11.74s-6.48,13.21-23.86,14-44.31-14.26-44.31-14.26Z" style="fill:#37474f"></path><polygon points="206.24 196.03 202.21 230.57 207.58 237.5 214.11 232.26 217.85 198.88 206.24 196.03" style="fill:#37474f"></polygon><path d="M228.1,204.68l-24.35,1.68-1.81,11.93,25.84-1.79S223.21,209.22,228.1,204.68Z" style="fill:#263238"></path><path d="M236.47,207.65c-.09-2.73-1.61-4.23-4.51-4.46-.4,0-.86-.05-1.4-.05-3.07,0-5.61.26-5.73,4.06l-.06,1.29a29.16,29.16,0,0,0,.13,6.17,3.82,3.82,0,0,0,3.57,2.94,9.69,9.69,0,0,0,1.9-.09l.68-.06.31,0c1.46-.06,4.87-.21,5.1-3.48C236.57,212.43,236.51,209,236.47,207.65ZM234,213.58c-.09,1.34-1.95,1.31-3.27,1.37s-3.14.61-3.46-.7a31.74,31.74,0,0,1-.05-5.41l.05-1.34c.06-1.35-.17-1.88,3.46-1.86,2.92,0,3.23.47,3.27,1.89S234.11,212.23,234,213.58Z" style="fill:#e0e0e0"></path></g><g id="freepik--Head--inject-873"><g id="freepik--head--inject-873"><path d="M196.85,77.47s-2.34-.25-4.44,4C191.36,83.62,190,90,193,99a49.38,49.38,0,0,0,5.74,11.94,5.54,5.54,0,0,0,3.29,2.41l-.47-8.43L201.07,99s4.71-4.46,5-8.69c.38-5.45-1.87-8.46-1.87-8.46Z" style="fill:#263238"></path><path d="M195.68,77.79c-.48-.44,1.23-3.24,1.49-3.64,2.09-3.09,5.7-4.9,9.18-6.06,8-2.66,18.19-1.32,23.58,5.73a16.23,16.23,0,0,1,3.57,9.69c0,.85-.12,2.35-1,2.72s-2.3-.16-3.19-.18l-10.69-.2-14.43-.27Z" style="fill:#263238"></path><path d="M236.52,102.3a27.61,27.61,0,0,1-.93,7.1,10.43,10.43,0,0,1-8.45,7.64,26.05,26.05,0,0,1-3.58.49l.21,2.62c0,.27,0,.5.08.72l0,.15c0,.08,0,.15.05.21a4.63,4.63,0,0,0,.16.46,1.74,1.74,0,0,0,.23.4l0,0,.11.18L226.9,127c.88,13.82-.18,35.21-.18,35.21-8.19-12-15.55-21.19-20.88-27.8a102,102,0,0,1-4.4-16.42l-1.12-12.11s-2,3.7-6.55,1.71A7.85,7.85,0,0,1,189.64,97a5,5,0,0,1,7.69-2,8.17,8.17,0,0,1,2.51,3.72,27,27,0,0,0,3.62-3.34c3-3.56,2.53-10.72.15-13.13,1.78.74,8.4.07,11.11-1.06,6.52-2.73,10.82-6.18,15.62-4A6.16,6.16,0,0,1,234,82a53.12,53.12,0,0,0,1.13,7.86A59.18,59.18,0,0,1,236.52,102.3Z" style="fill:#ffa8a7"></path><path d="M223.56,117.53c-5.19.13-10.08-.35-13.18-1.51s-5.92-5.14-6.93-9.13c.1,3.24,1.71,8.93,6.42,11.16s10.5,2.07,13.89,2Z" style="fill:#f28f8f"></path><path d="M231.37,85.42l-4.19,2.29a2.31,2.31,0,0,1,.91-3.2A2.45,2.45,0,0,1,231.37,85.42Z" style="fill:#37474f"></path><path d="M216.85,87.25l-4.65-1.1A2.32,2.32,0,0,1,215,84.37,2.46,2.46,0,0,1,216.85,87.25Z" style="fill:#37474f"></path><path d="M227.9,90.88a2,2,0,1,0,1.9-2.12A2,2,0,0,0,227.9,90.88Z" style="fill:#263238"></path><path d="M220.72,87.65l1.95,12,6.45-2.56A28.35,28.35,0,0,0,220.72,87.65Z" style="fill:#f28f8f"></path><path d="M226.77,105.41l-6-1.06a3.17,3.17,0,0,0,2.53,3.6A3,3,0,0,0,226.77,105.41Z" style="fill:#b16668"></path><path d="M225.15,107.68a3.53,3.53,0,0,0-3.87-2.28,3,3,0,0,0-.43.11,3.12,3.12,0,0,0,2.48,2.44A2.82,2.82,0,0,0,225.15,107.68Z" style="fill:#f28f8f"></path><path d="M204.45,93.82c-1.51,2.51-1.32,5.7-.55,8.52a18.15,18.15,0,0,0,4,7.52,12.44,12.44,0,0,0,2.89,2.37,12.84,12.84,0,0,0,5.49,1.78c1.9.18,4,.07,5.56-1.18a6.7,6.7,0,0,0,1.19-1.19c.37-.52.61-1.12.95-1.67a1,1,0,0,1,.78-.59,1.06,1.06,0,0,1,.62.27c.71.56,1.2,1.35,1.88,1.94a4.16,4.16,0,0,0,2.59,1.06,5.11,5.11,0,0,0,3-1.11,9.66,9.66,0,0,0,3.47-6.06,14.75,14.75,0,0,0,0,2.3c0,.82-.06,1.65,0,2.47a29.29,29.29,0,0,1,0,4.19,15.77,15.77,0,0,1-2.68,8l-.88-1.87a11.05,11.05,0,0,1-3.34,6.93L228.07,124a16.41,16.41,0,0,1-1.86,6.18c-.37.71-1,2.15-1.79,2.44s-1.66-.69-2-1.35a29.76,29.76,0,0,1-3.38-8.57c-.09,1.83-.18,3.65-.28,5.48-5.16-.79-8.88-6.11-11.51-10.17a50,50,0,0,1-5-9.1,32.7,32.7,0,0,1-2.31-10.15,14.8,14.8,0,0,1,.42-2.8,5.19,5.19,0,0,1,1.3-1.93A4.08,4.08,0,0,1,204,92.37" style="fill:#263238"></path><path d="M218.09,88.91a104,104,0,0,0,8.42-10.68l-.83-.52a104.76,104.76,0,0,1-8.39,10.62c-1.86-1.1-4.28-.68-6.46.51a5.27,5.27,0,0,0-2.45,4.83,6.76,6.76,0,0,0,.1,1.26,20.3,20.3,0,0,1-5.73,1.23h0a29.1,29.1,0,0,1-4.24.07,6.56,6.56,0,0,1,.67,1c.26,0,.53,0,.82,0,.54,0,1.11,0,1.67-.06a23.9,23.9,0,0,0,7.08-1.34,2.45,2.45,0,0,0,1.63,1.59,7.41,7.41,0,0,0,5.07-.48,8.05,8.05,0,0,0,2.94-2,4.12,4.12,0,0,0,.88-4.47A5.78,5.78,0,0,0,218.09,88.91Z" style="fill:#37474f"></path></g><path d="M197.33,95s9.57-12.48,22.45-15.39S234,82,234,82s1.13-7.15-6.77-11.91S215.09,64.73,207.16,67c-8.33,2.37-19.88,13.64-15.78,27.82A5.24,5.24,0,0,1,197.33,95Z" style="fill:#FFC100"></path><path d="M177.78,84.06a22.85,22.85,0,0,1-2,2.62c-1.77,2-3.88,3.61-5.51,5.69s-2.77,4.78-2.16,7.35c1.14,4.77,5.91,6.48,10.1,7.47a40.36,40.36,0,0,0,7.66,1.06,64.05,64.05,0,0,0,8.3-.5c-2.47-1-4.46-2.9-4.82-5.49-.8-5.67,2.06-7.45,2.06-7.45l-.46-1.93s1.4-3.36,2-4.4a42.81,42.81,0,0,1,3.84-6c3.54-4.69,7.93-8.89,13.29-11.3s11.79-2.84,17.06-.23a10.78,10.78,0,0,1,4.28,3.54c1.77,2.63,2.7,7.79,3.18,12a38.2,38.2,0,0,0,.88,4.51C242.18,88.77,246,84,247.28,80.36a10.49,10.49,0,0,0-1.67-10.42c-2.27-2.62-5.55-4.1-8.55-5.83-6.78-3.92-12.15-10-19.49-12.92a25,25,0,0,0-19.56.54c-4.71,2.24-9.1,5.52-11.62,10.09C184,66.2,183.47,71.35,181.72,76A39.08,39.08,0,0,1,177.78,84.06Z" style="fill:#263238"></path><path d="M237.06,64.11c-6.78-3.92-12.15-10-19.49-12.92a25,25,0,0,0-19.56.54c-4.71,2.24-9.1,5.52-11.62,10.09C184,66.2,183.47,71.35,181.72,76a39.08,39.08,0,0,1-3.94,8,22.85,22.85,0,0,1-2,2.62c-1.77,2-3.88,3.61-5.51,5.69s-2.77,4.78-2.16,7.35a8.46,8.46,0,0,0,4.7,5.6,8.34,8.34,0,0,1-.86-11.94c2.91-3.49,9.64-8.1,11.75-17.44S188.91,58.62,197,54.51s15.43-4,22-.38,11.73,8.72,16.55,11.22,9.74,5.19,11,9.09a11.4,11.4,0,0,1-.95,9.13,14.93,14.93,0,0,0,1.69-3.21,10.49,10.49,0,0,0-1.67-10.42C243.34,67.32,240.06,65.84,237.06,64.11Z" style="fill:#FFC100"></path><path d="M230.61,158.69a.58.58,0,0,1-.26-.06l-12.46-4.8a.63.63,0,0,1-.44-.83.74.74,0,0,1,1-.29l12.45,4.8a.65.65,0,0,1,.45.83A.69.69,0,0,1,230.61,158.69Z" style="fill:#455a64"></path><path d="M221.54,160a1.06,1.06,0,0,1-.45-.16.56.56,0,0,1-.16-.88l7.73-8a.87.87,0,0,1,1.06,0,.57.57,0,0,1,.16.88l-7.74,8A.74.74,0,0,1,221.54,160Z" style="fill:#455a64"></path><path d="M215.54,151.68a.68.68,0,0,1-.31-.14.55.55,0,0,1,0-.85l12.83-11.75a.78.78,0,0,1,1,0,.55.55,0,0,1,0,.86L216.23,151.5A.77.77,0,0,1,215.54,151.68Z" style="fill:#455a64"></path><path d="M230.78,149.21l-.21,0L210.94,143a.67.67,0,0,1-.52-.81.72.72,0,0,1,.93-.35L231,148a.68.68,0,0,1,.52.81A.69.69,0,0,1,230.78,149.21Z" style="fill:#455a64"></path><path d="M218.09,103.15c-.7.73-1.22,1.62-1.91,2.37a6.89,6.89,0,0,1-3.86,2.09,5,5,0,0,0,3.72.65l-.64.71c3.38-.14,6.44-2.25,8.5-4.94a.73.73,0,0,1,.29-.26.71.71,0,0,1,.6.2,11.58,11.58,0,0,0,8.18,2.11,5.28,5.28,0,0,1-1.75-1.64c2,0,4.32,0,5.72-1.46a7.52,7.52,0,0,1-4.07-.26c-1.48-.53-2.78-1.52-4.29-1.92a5.94,5.94,0,0,0-3,0,11.58,11.58,0,0,1-1.21.42,12.34,12.34,0,0,1-1.34-.12A6.72,6.72,0,0,0,218.09,103.15Z" style="fill:#263238"></path></g><g id="freepik--Helm--inject-873"><path d="M368.22,276.33c-1,1.65-13.13-.54-15.92-4.8s-3.65-5.13-4.61-5.73c-1.49-.92-2.95.79-4.52-.18a2,2,0,0,1-.79-1.89,6.37,6.37,0,0,1,3-4.89,2,2,0,0,1,2.14-.06c1.42,1,.63,3,2.08,3.88,1,.6,2.12,1,7.18,1.57S369.24,274.69,368.22,276.33Z" style="fill:#FFC100"></path><path d="M368.22,276.33c-1,1.65-13.13-.54-15.92-4.8s-3.65-5.13-4.61-5.73c-1.49-.92-2.95.79-4.52-.18a2,2,0,0,1-.79-1.89,6.37,6.37,0,0,1,3-4.89,2,2,0,0,1,2.14-.06c1.42,1,.63,3,2.08,3.88,1,.6,2.12,1,7.18,1.57S369.24,274.69,368.22,276.33Z" style="fill:#fff;opacity:0.30000000000000004"></path><path d="M355.75,266.63c-.26-.15-.55-.35-.57-.65a.65.65,0,0,1,.45-.62,1.63,1.63,0,0,1,.82,0,11.84,11.84,0,0,1,6.47,3.69c.31.32,2.28,2.24,1.74,2.65s-3-1.57-3.49-1.85C359.36,268.78,357.56,267.7,355.75,266.63Z" style="fill:#fff;opacity:0.30000000000000004"></path><path d="M352.3,271.53c-2.8-4.26-3.65-5.13-4.61-5.73-1.49-.92-2.95.79-4.52-.18a2,2,0,0,1-.79-1.89,6.37,6.37,0,0,1,3-4.89,3.28,3.28,0,0,1,.66-.27,4.54,4.54,0,0,0-2.31,2.63c-.51,1.36.18,2.92,2.89,2.67s5.17,2.82,6.8,5.65,6.91,6.48,11.86,7.34C361.27,276.62,354.33,274.62,352.3,271.53Z" style="fill:#FFC100"></path><path d="M386.29,196.13c1,1.68-6.7,11.3-11.77,11.75s-6.24.78-7.23,1.35c-1.51.87-.7,3-2.3,3.89a2,2,0,0,1-2-.2,6.38,6.38,0,0,1-2.87-5,2,2,0,0,1,1-1.92c1.55-.78,2.93.86,4.4,0,1-.57,1.86-1.41,4.79-5.58S385.32,194.45,386.29,196.13Z" style="fill:#FFC100"></path><path d="M386.29,196.13c1,1.68-6.7,11.3-11.77,11.75s-6.24.78-7.23,1.35c-1.51.87-.7,3-2.3,3.89a2,2,0,0,1-2-.2,6.38,6.38,0,0,1-2.87-5,2,2,0,0,1,1-1.92c1.55-.78,2.93.86,4.4,0,1-.57,1.86-1.41,4.79-5.58S385.32,194.45,386.29,196.13Z" style="fill:#fff;opacity:0.30000000000000004"></path><path d="M371.84,202.52a1,1,0,0,1-.85.19.64.64,0,0,1-.32-.69,1.64,1.64,0,0,1,.37-.73,11.85,11.85,0,0,1,6.32-3.94c.43-.12,3-.95,3.16-.28s-2.81,1.91-3.28,2.2Z" style="fill:#fff;opacity:0.30000000000000004"></path><path d="M374.52,207.88c-5.08.45-6.24.78-7.23,1.35-1.51.87-.7,3-2.3,3.89a2,2,0,0,1-2-.2,6.38,6.38,0,0,1-2.87-5,3.08,3.08,0,0,1,.08-.71,4.52,4.52,0,0,0,1.22,3.28c.95,1.09,2.65,1.22,3.72-1.28s4.93-3.22,8.2-3.32,9-3,12.07-7C383.25,202.39,378.2,207.56,374.52,207.88Z" style="fill:#FFC100"></path><path d="M268.2,325.19c1.72.9,11-7.17,11.24-12.26s.52-6.27,1-7.28c.81-1.55,2.94-.82,3.79-2.46a2,2,0,0,0-.28-2,6.39,6.39,0,0,0-5.1-2.66,2,2,0,0,0-1.88,1c-.71,1.59,1,2.89.2,4.4-.53,1-1.33,1.92-5.38,5S266.48,324.29,268.2,325.19Z" style="fill:#FFC100"></path><path d="M268.2,325.19c1.72.9,11-7.17,11.24-12.26s.52-6.27,1-7.28c.81-1.55,2.94-.82,3.79-2.46a2,2,0,0,0-.28-2,6.39,6.39,0,0,0-5.1-2.66,2,2,0,0,0-1.88,1c-.71,1.59,1,2.89.2,4.4-.53,1-1.33,1.92-5.38,5S266.48,324.29,268.2,325.19Z" style="fill:#fff;opacity:0.30000000000000004"></path><path d="M274,310.48a1,1,0,0,0,.16-.85.65.65,0,0,0-.71-.3,1.79,1.79,0,0,0-.71.4,11.89,11.89,0,0,0-3.67,6.48c-.11.44-.82,3.09-.15,3.17s1.79-2.89,2.06-3.37Z" style="fill:#fff;opacity:0.30000000000000004"></path><path d="M279.44,312.93c.23-5.09.52-6.27,1-7.28.81-1.55,2.94-.82,3.79-2.46a2,2,0,0,0-.28-2,6.39,6.39,0,0,0-5.1-2.66,2.93,2.93,0,0,0-.7.11,4.5,4.5,0,0,1,3.32,1.08c1.14.91,1.34,2.6-1.12,3.77s-3,5.06-3,8.34-2.63,9.09-6.45,12.35C274.33,321.89,279.27,316.62,279.44,312.93Z" style="fill:#FFC100"></path><path d="M356.81,149.81c1.79.74,1.58,13-2.17,16.49s-4.47,4.42-4.9,5.48c-.67,1.61,1.25,2.77.55,4.49a2.06,2.06,0,0,1-1.74,1.08,6.36,6.36,0,0,1-5.31-2.2,1.94,1.94,0,0,1-.41-2.1c.75-1.57,2.84-1.1,3.5-2.68.43-1.06.6-2.25.38-7.34S355,149.07,356.81,149.81Z" style="fill:#FFC100"></path><path d="M356.81,149.81c1.79.74,1.58,13-2.17,16.49s-4.47,4.42-4.9,5.48c-.67,1.61,1.25,2.77.55,4.49a2.06,2.06,0,0,1-1.74,1.08,6.36,6.36,0,0,1-5.31-2.2,1.94,1.94,0,0,1-.41-2.1c.75-1.57,2.84-1.1,3.5-2.68.43-1.06.6-2.25.38-7.34S355,149.07,356.81,149.81Z" style="fill:#fff;opacity:0.30000000000000004"></path><path d="M349.25,163.69c-.11.28-.26.59-.55.67A.64.64,0,0,1,348,164a1.66,1.66,0,0,1-.15-.8,11.9,11.9,0,0,1,2.6-7c.27-.36,1.84-2.61,2.33-2.15s-1.06,3.23-1.25,3.75C350.79,159.77,350,161.73,349.25,163.69Z" style="fill:#fff;opacity:0.30000000000000004"></path><path d="M354.64,166.3c-3.74,3.45-4.47,4.42-4.9,5.48-.67,1.61,1.25,2.77.55,4.49a2.06,2.06,0,0,1-1.74,1.08,6.36,6.36,0,0,1-5.31-2.2,3.05,3.05,0,0,1-.37-.6,4.54,4.54,0,0,0,3,1.85c1.43.28,2.85-.65,2.17-3.29s1.94-5.55,4.48-7.63,5.27-7.86,5.32-12.88C358.22,156.62,357.37,163.8,354.64,166.3Z" style="fill:#FFC100"></path><path d="M340.63,266.11a2.86,2.86,0,0,1-1.2-2.64,9,9,0,0,1,4.08-7.06,2.9,2.9,0,0,1,2.89-.29l2.6,1.5a2.89,2.89,0,0,1,1.19,2.65,9,9,0,0,1-4.08,7.06,2.88,2.88,0,0,1-2.88.29Z" style="fill:#263238"></path><path d="M343.51,256.41a2.48,2.48,0,0,1,4.08,2.35,9,9,0,0,1-4.08,7.07,2.49,2.49,0,0,1-4.08-2.36A9,9,0,0,1,343.51,256.41Z" style="fill:#455a64"></path><path d="M363,216.38a2.88,2.88,0,0,1-2.88-.29A9,9,0,0,1,356,209a2.86,2.86,0,0,1,1.2-2.64l2.6-1.51a2.88,2.88,0,0,1,2.88.29,9,9,0,0,1,4.08,7.06,2.89,2.89,0,0,1-1.19,2.65Z" style="fill:#263238"></path><path d="M356,209a2.49,2.49,0,0,1,4.08-2.36,9,9,0,0,1,4.08,7.07,2.49,2.49,0,0,1-4.08,2.35A9,9,0,0,1,356,209Z" style="fill:#455a64"></path><path d="M276.89,295.85a2.88,2.88,0,0,1,2.65-1.19,9,9,0,0,1,7.06,4.08,2.88,2.88,0,0,1,.29,2.88c-.26.45-1.25,2.15-1.5,2.6a2.89,2.89,0,0,1-2.65,1.2,9,9,0,0,1-7.06-4.08,2.9,2.9,0,0,1-.29-2.89C275.65,298,276.64,296.3,276.89,295.85Z" style="fill:#263238"></path><path d="M286.6,298.74a2.49,2.49,0,0,1-2.35,4.08,9,9,0,0,1-7.07-4.08,2.48,2.48,0,0,1,2.36-4.08A9,9,0,0,1,286.6,298.74Z" style="fill:#455a64"></path><path d="M350.56,179.65a2.87,2.87,0,0,1-2.64,1.2,9,9,0,0,1-7.07-4.08,2.9,2.9,0,0,1-.29-2.89l1.51-2.6a2.85,2.85,0,0,1,2.64-1.19,9,9,0,0,1,7.06,4.08,2.88,2.88,0,0,1,.29,2.88C351.8,177.5,350.81,179.2,350.56,179.65Z" style="fill:#263238"></path><path d="M340.85,176.77a2.9,2.9,0,0,1-.29-2.89,2.86,2.86,0,0,1,2.64-1.19,9,9,0,0,1,7.07,4.08,2.49,2.49,0,0,1-2.35,4.08A9,9,0,0,1,340.85,176.77Z" style="fill:#455a64"></path><path d="M325.17,217.69c3,1.72,4.82,5.41,4.82,10.66,0,10.51-7.38,23.28-16.47,28.53-4.55,2.63-8.67,2.88-11.65,1.16l-8.47-4.89c-3-1.72-4.82-5.42-4.82-10.67,0-10.5,7.37-23.28,16.47-28.53,4.55-2.63,8.67-2.87,11.65-1.15Z" style="fill:#FFC100"></path><path d="M325.17,217.69c3,1.72,4.82,5.41,4.82,10.66,0,10.51-7.38,23.28-16.47,28.53-4.55,2.63-8.67,2.88-11.65,1.16l-8.47-4.89c-3-1.72-4.82-5.42-4.82-10.67,0-10.5,7.37-23.28,16.47-28.53,4.55-2.63,8.67-2.87,11.65-1.15Z" style="fill:#fff;opacity:0.30000000000000004"></path><path d="M313.52,256.88c-4.55,2.63-8.67,2.88-11.65,1.16s-4.82-5.41-4.82-10.67c0-10.5,7.37-23.28,16.47-28.53,4.55-2.63,8.67-2.87,11.65-1.15S330,223.1,330,228.35C330,238.86,322.62,251.63,313.52,256.88Z" style="fill:#FFC100"></path><path d="M291.58,249.35c0-.87.61-1.22,1.36-.78a3,3,0,0,1,1.37,2.36c0,.87-.61,1.22-1.37.79A3,3,0,0,1,291.58,249.35Z" style="fill:#37474f"></path><path d="M282.65,259.75c-2.12,1.22-9.19,4.84-12.66,5.84l-1.91-3.31c2.61-2.5,9.27-6.82,11.39-8s9.18-4.83,12.65-5.83l1.91,3.31C291.42,254.22,284.76,258.53,282.65,259.75Z" style="fill:#37474f"></path><path d="M267.81,263.07c0-.87.61-1.22,1.36-.79a3,3,0,0,1,1.37,2.37c0,.87-.62,1.22-1.37.78A3,3,0,0,1,267.81,263.07Z" style="fill:#455a64"></path><path d="M298.87,225.59c.8-.33,1.36.09,1.25.95a3,3,0,0,1-1.64,2.18c-.8.34-1.36-.08-1.26-.95A3,3,0,0,1,298.87,225.59Z" style="fill:#37474f"></path><path d="M285.81,221.43c-1.95-1.48-8-6.58-10.31-9.38l2.3-3.05c3.32,1.42,9.89,5.88,11.84,7.35s8,6.57,10.31,9.38l-2.31,3.05C294.32,227.35,287.75,222.9,285.81,221.43Z" style="fill:#37474f"></path><path d="M277,209.05c.8-.34,1.36.09,1.26.95a3,3,0,0,1-1.65,2.18c-.8.34-1.36-.09-1.26-1A3,3,0,0,1,277,209.05Z" style="fill:#455a64"></path><path d="M310.43,215.48a.84.84,0,0,1,0,1.58,3,3,0,0,1-2.73,0,.84.84,0,0,1,0-1.58A3,3,0,0,1,310.43,215.48Z" style="fill:#37474f"></path><path d="M305.89,202.55c0-2.44.4-10.37,1.27-13.88H311c.86,3.51,1.27,11.44,1.27,13.88s-.41,10.36-1.27,13.87h-3.82C306.29,212.91,305.89,205,305.89,202.55Z" style="fill:#37474f"></path><path d="M310.43,188a.83.83,0,0,1,0,1.57,3,3,0,0,1-2.73,0,.83.83,0,0,1,0-1.57A3,3,0,0,1,310.43,188Z" style="fill:#455a64"></path><path d="M349.45,174.76c-5.65-3.26-2-1.19-7.67-4.45-9.3-5.36-22.13-4.6-36.3,3.6-28.36,16.37-51.35,56.18-51.35,88.92,0,16.37,5.75,27.87,15,33.24,5.64,3.25,2,1.19,7.67,4.44,7.6,4.4,17.58,4.67,28.72.15.5-.2,1-.42,1.49-.64s1-.44,1.51-.69c.76-.36,1.51-.73,2.28-1.14s1.53-.83,2.3-1.27a76.22,76.22,0,0,0,7.35-4.84c1.43-1.06,2.85-2.19,4.25-3.37.83-.7,1.65-1.42,2.45-2.15.41-.36.82-.74,1.21-1.12q1.22-1.12,2.4-2.31c19.65-19.65,33.68-49.56,33.68-75.13C364.48,191.63,358.73,180.13,349.45,174.76Zm-73.3,113.91c-3.82-5.13-5.77-12.92-5.23-23,1.54-28.06,21.85-63.26,45.39-78.61,8.46-5.52,16.19-7.72,22.54-7a18.91,18.91,0,0,1,3,.59c5.11,5,7.83,13.57,7.19,25.27-1.53,28.06-21.84,63.25-45.38,78.61-9.82,6.39-18.64,8.33-25.48,6.39A17.39,17.39,0,0,1,276.15,288.67Z" style="fill:#FFC100"></path><path d="M349.45,174.76c-5.65-3.26-2-1.19-7.67-4.45-9.3-5.36-22.13-4.6-36.3,3.6-28.36,16.37-51.35,56.18-51.35,88.92,0,16.37,5.75,27.87,15,33.24,5.64,3.25,2,1.19,7.67,4.44,7.6,4.4,17.58,4.67,28.72.15.5-.2,1-.42,1.49-.64s1-.44,1.51-.69c.76-.36,1.51-.73,2.28-1.14s1.53-.83,2.3-1.27a76.22,76.22,0,0,0,7.35-4.84c1.43-1.06,2.85-2.19,4.25-3.37.83-.7,1.65-1.42,2.45-2.15.41-.36.82-.74,1.21-1.12q1.22-1.12,2.4-2.31c19.65-19.65,33.68-49.56,33.68-75.13C364.48,191.63,358.73,180.13,349.45,174.76Zm-73.3,113.91c-3.82-5.13-5.77-12.92-5.23-23,1.54-28.06,21.85-63.26,45.39-78.61,8.46-5.52,16.19-7.72,22.54-7a18.91,18.91,0,0,1,3,.59c5.11,5,7.83,13.57,7.19,25.27-1.53,28.06-21.84,63.25-45.38,78.61-9.82,6.39-18.64,8.33-25.48,6.39A17.39,17.39,0,0,1,276.15,288.67Z" style="fill:#fff;opacity:0.30000000000000004"></path><path d="M349.45,174.76c-9.29-5.37-22.13-4.59-36.31,3.59q-2.2,1.28-4.36,2.73c-24.86,16.77-44.67,51.08-46.78,81-.13,1.74-.19,3.48-.19,5.2,0,16.36,5.74,27.87,15,33.23,7.6,4.4,17.58,4.67,28.72.15.5-.2,1-.42,1.49-.64s1-.44,1.51-.69c.76-.35,1.51-.73,2.28-1.14l1.77-1,.53-.29a78.26,78.26,0,0,0,7.35-4.85c1.43-1.06,2.85-2.19,4.25-3.37.83-.7,1.65-1.41,2.45-2.15.41-.36.82-.74,1.21-1.12q1.22-1.12,2.4-2.31c19.65-19.65,33.68-49.56,33.68-75.13C364.48,191.63,358.73,180.13,349.45,174.76ZM310.76,288.67c-11.76,7.68-22.1,8.94-29.32,4.78-.25-.14-.5-.29-.75-.46s-.48-.32-.71-.49h0c-.24-.18-.46-.35-.68-.54s-.31-.26-.47-.39l-.29-.26-.38-.36a17.39,17.39,0,0,1-2-2.27c-3.82-5.13-5.77-12.92-5.23-23,1.54-28.06,21.85-63.26,45.39-78.61,8.46-5.52,16.19-7.72,22.54-7a18.91,18.91,0,0,1,3,.59l.5.15a3.4,3.4,0,0,1,.34.12,17.22,17.22,0,0,1,2.3,1c.23.12.46.24.68.37,7.21,4.16,11.29,13.76,10.52,27.79C354.62,238.13,334.31,273.32,310.76,288.67Z" style="fill:#FFC100"></path><path d="M336.18,253.8c.8-.34,1.36.09,1.26.95a3,3,0,0,1-1.65,2.18c-.8.34-1.36-.09-1.26-1A3,3,0,0,1,336.18,253.8Z" style="fill:#37474f"></path><path d="M337.26,253.94,335,257c-3.32-1.42-9.88-5.88-11.83-7.35-.23-.17-.53-.4-.87-.68a40.47,40.47,0,0,0,3.45-5.3l1.25.9C328.9,246,335,251.13,337.26,253.94Z" style="fill:#37474f"></path><path d="M349.37,216c0-.87.62-1.22,1.37-.79a3,3,0,0,1,1.36,2.37c0,.87-.61,1.22-1.36.78A3,3,0,0,1,349.37,216Z" style="fill:#37474f"></path><path d="M351.82,218.35c-2.6,2.5-9.26,6.81-11.38,8-1.36.79-7.53,4.16-10.72,5.59a24.81,24.81,0,0,0,.27-3.62,20.39,20.39,0,0,0-.2-2.89c2-1.32,6.53-4,7.47-4.58,2.12-1.23,9.19-4.84,12.65-5.84Z" style="fill:#37474f"></path><path d="M283.8,292c-.87,0-1.19.66-.73,1.39a3,3,0,0,0,2.42,1.27c.87,0,1.2-.67.73-1.4A3,3,0,0,0,283.8,292Z" style="fill:#37474f"></path><path d="M304.93,259.05c-1.39,4.26-7.4,16.49-8.44,18.49-1.14,2.16-7.83,14.09-10.22,16.81l-3.39-1.77c.86-3.51,6.84-15.82,8-18,1-1.94,7.37-13.36,10.15-17.16a7.66,7.66,0,0,0,.88.61A8.25,8.25,0,0,0,304.93,259.05Z" style="fill:#37474f"></path><path d="M345,182.06h0c-.86,3.51-7.88,17.3-9,19.47-1,1.94-7.19,13-10,16.76l-.36-.28c-.17-.11-.34-.22-.52-.32l-.18-.1-2.67-1.54c1.69-4.69,7.06-15.56,8.05-17.47,1.1-2.1,8.41-14.77,11-18l.41.1.5.15a3.4,3.4,0,0,1,.34.12,17.22,17.22,0,0,1,2.3,1l.08,0A.36.36,0,0,1,345,182.06Z" style="fill:#37474f"></path><path d="M303.3,172.73a2.87,2.87,0,0,1,1.69-2.36,9,9,0,0,1,8.16,0,2.89,2.89,0,0,1,1.69,2.36v3a2.89,2.89,0,0,1-1.69,2.36,9,9,0,0,1-8.16,0,2.87,2.87,0,0,1-1.69-2.36Z" style="fill:#263238"></path><path d="M313.15,170.37a2.49,2.49,0,0,1,0,4.71,9,9,0,0,1-8.16,0,2.49,2.49,0,0,1,0-4.71A9,9,0,0,1,313.15,170.37Z" style="fill:#455a64"></path><path d="M270.45,213.18a2.87,2.87,0,0,1-.86-2.77,9,9,0,0,1,4.92-6.51,2.88,2.88,0,0,1,2.89.07l2.4,1.81a2.88,2.88,0,0,1,.86,2.77,9,9,0,0,1-4.92,6.51,2.87,2.87,0,0,1-2.9-.07Z" style="fill:#263238"></path><path d="M274.51,203.9a2.48,2.48,0,0,1,3.75,2.84,9,9,0,0,1-4.91,6.51,2.49,2.49,0,0,1-3.76-2.84A9,9,0,0,1,274.51,203.9Z" style="fill:#455a64"></path><path d="M257.88,276.81a2.88,2.88,0,0,1-2.88-.29,9,9,0,0,1-4.08-7.06,2.85,2.85,0,0,1,1.19-2.64l2.6-1.51a2.9,2.9,0,0,1,2.89.29,9,9,0,0,1,4.08,7.06,2.88,2.88,0,0,1-1.2,2.65Z" style="fill:#263238"></path><path d="M250.92,269.46A2.49,2.49,0,0,1,255,267.1a9,9,0,0,1,4.08,7.07,2.49,2.49,0,0,1-4.08,2.35A9,9,0,0,1,250.92,269.46Z" style="fill:#455a64"></path><path d="M309,145.47c-1.93,0-6.44,11.45-4.29,16.07s2.45,5.79,2.45,6.93c0,1.75-2.22,2.09-2.22,3.94a2,2,0,0,0,1.19,1.66,6.33,6.33,0,0,0,5.75,0,1.94,1.94,0,0,0,1.18-1.79c-.1-1.73-2.21-2.1-2.21-3.81,0-1.14.29-2.31,2.44-6.93S310.93,145.47,309,145.47Z" style="fill:#FFC100"></path><path d="M309,145.47c-1.93,0-6.44,11.45-4.29,16.07s2.45,5.79,2.45,6.93c0,1.75-2.22,2.09-2.22,3.94a2,2,0,0,0,1.19,1.66,6.33,6.33,0,0,0,5.75,0,1.94,1.94,0,0,0,1.18-1.79c-.1-1.73-2.21-2.1-2.21-3.81,0-1.14.29-2.31,2.44-6.93S310.93,145.47,309,145.47Z" style="fill:#fff;opacity:0.30000000000000004"></path><path d="M310.69,161.18a1,1,0,0,0,.25.83.65.65,0,0,0,.76-.07,1.54,1.54,0,0,0,.44-.68,11.79,11.79,0,0,0,.26-7.45c-.11-.43-.7-3.11-1.33-2.87s-.25,3.39-.27,3.94Q310.74,158,310.69,161.18Z" style="fill:#fff;opacity:0.30000000000000004"></path><path d="M304.7,161.54c2.15,4.62,2.45,5.79,2.45,6.93,0,1.75-2.22,2.09-2.22,3.94a2,2,0,0,0,1.19,1.66,6.33,6.33,0,0,0,5.75,0,3.24,3.24,0,0,0,.57-.42,4.51,4.51,0,0,1-3.45.58c-1.42-.28-2.38-1.68-.75-3.86s.33-5.88-1.22-8.76-1.88-9.28,0-13.94C305.09,151.23,303.14,158.18,304.7,161.54Z" style="fill:#FFC100"></path><path d="M251.85,192.14c-1.17,1.54,5.26,12,10.24,13.11s6.09,1.54,7,2.22c1.4,1.06.33,3,1.81,4.15a2,2,0,0,0,2,0,6.36,6.36,0,0,0,3.47-4.59,2,2,0,0,0-.72-2c-1.44-1-3,.5-4.37-.53-.91-.69-1.67-1.63-4.06-6.13S253,190.59,251.85,192.14Z" style="fill:#FFC100"></path><path d="M251.85,192.14c-1.17,1.54,5.26,12,10.24,13.11s6.09,1.54,7,2.22c1.4,1.06.33,3,1.81,4.15a2,2,0,0,0,2,0,6.36,6.36,0,0,0,3.47-4.59,2,2,0,0,0-.72-2c-1.44-1-3,.5-4.37-.53-.91-.69-1.67-1.63-4.06-6.13S253,190.59,251.85,192.14Z" style="fill:#fff;opacity:0.30000000000000004"></path><path d="M265.41,200.25a.93.93,0,0,0,.81.3.63.63,0,0,0,.41-.65,1.64,1.64,0,0,0-.28-.76,11.88,11.88,0,0,0-5.78-4.7c-.42-.17-2.91-1.31-3.1-.67s2.55,2.25,3,2.59Z" style="fill:#fff;opacity:0.30000000000000004"></path><path d="M262.09,205.25c5,1.07,6.09,1.54,7,2.22,1.4,1.06.33,3,1.81,4.15a2,2,0,0,0,2,0,6.36,6.36,0,0,0,3.47-4.59,3.4,3.4,0,0,0,0-.71,4.53,4.53,0,0,1-1.62,3.1c-1.08,1-2.78.89-3.53-1.72s-4.5-3.81-7.73-4.31-8.53-4.1-11.12-8.4C254.09,198.72,258.47,204.47,262.09,205.25Z" style="fill:#FFC100"></path><path d="M231.16,285.81c1,1.67,13.14-.15,16.06-4.32s3.8-5,4.79-5.58c1.51-.88,2.92.88,4.52-.05a2,2,0,0,0,.84-1.86,6.38,6.38,0,0,0-2.87-5,2,2,0,0,0-2.14-.13c-1.45,1-.72,3-2.2,3.82-1,.57-2.15.9-7.23,1.35S230.19,284.13,231.16,285.81Z" style="fill:#FFC100"></path><path d="M231.16,285.81c1,1.67,13.14-.15,16.06-4.32s3.8-5,4.79-5.58c1.51-.88,2.92.88,4.52-.05a2,2,0,0,0,.84-1.86,6.38,6.38,0,0,0-2.87-5,2,2,0,0,0-2.14-.13c-1.45,1-.72,3-2.2,3.82-1,.57-2.15.9-7.23,1.35S230.19,284.13,231.16,285.81Z" style="fill:#fff;opacity:0.30000000000000004"></path><path d="M243.92,276.49c.26-.15.56-.34.59-.64a.63.63,0,0,0-.44-.62,1.7,1.7,0,0,0-.81-.05,11.9,11.9,0,0,0-6.58,3.5c-.32.31-2.34,2.16-1.82,2.59s3.06-1.47,3.54-1.74Z" style="fill:#fff;opacity:0.30000000000000004"></path><path d="M247.22,281.49c2.93-4.17,3.8-5,4.79-5.58,1.51-.88,2.92.88,4.52-.05a2,2,0,0,0,.84-1.86,6.38,6.38,0,0,0-2.87-5,3.62,3.62,0,0,0-.65-.29,4.56,4.56,0,0,1,2.22,2.7c.47,1.37-.26,2.91-3,2.58s-5.26,2.66-7,5.44-7.1,6.26-12.08,7C238.1,286.31,245.1,284.52,247.22,281.49Z" style="fill:#FFC100"></path><polygon points="306.51 248.16 306.51 399.91 327.8 412.2 315.63 253.42 306.51 248.16" style="fill:#263238"></polygon><polygon points="315.63 253.42 327.8 246.4 339.96 405.18 327.8 412.2 315.63 253.42" style="fill:#455a64"></polygon><path d="M329.81,228c2.07,1.19,3.35,3.76,3.35,7.4,0,7.3-5.12,16.17-11.44,19.82-3.16,1.82-6,2-8.09.8l-7.29-4.21c-2.07-1.2-3.35-3.76-3.35-7.41,0-7.29,5.12-16.17,11.44-19.81,3.16-1.83,6-2,8.08-.8Z" style="fill:#263238"></path><path d="M321.72,255.23c-3.16,1.82-6,2-8.09.8s-3.35-3.76-3.35-7.41c0-7.29,5.12-16.16,11.44-19.81,3.16-1.83,6-2,8.09-.8s3.35,3.76,3.35,7.4C333.16,242.71,328,251.58,321.72,255.23Z" style="fill:#455a64"></path></g><g id="freepik--arm--inject-873"><g id="freepik--arm--inject-873"><path d="M202.44,183,189.86,151.7s-3.7-13.09-15.67-15.54c-4.47,2-3.82,5.8-4.47,9.75-1.32,8,2.34,15.83,5.23,24.47,3.74,11.16,3.92,12.2,7.28,21.18,2.93,7.8,3.9,9.07,13.42,11.44,6.5,1.62,27.27,4.15,32.89,5.1l2.76-15.58ZM273.3,196.4a3.16,3.16,0,0,0-2-.86c-.68,0-1.32.36-2,.27a1.4,1.4,0,0,1-.34-.13,5.19,5.19,0,0,0-4.26.07c-1.12.41-2.21,1-3.22,1.36a16.22,16.22,0,0,1-3.25,1,8.71,8.71,0,0,1-4.67-.91l-.37-.14c-.73-.3-2.47-.85-2.49-1.87,0-.57.55-1,1.24-1.31-.26-.81-.32-1.43-.09-1.72.43-.57,2.33-.48,4.67.09a4.37,4.37,0,0,0,1.42-1c.93-1.08,1.28-2.47.67-3.28s-1.94-.09-4,.46-4.52.66-6.88,1.53-4.43,1.95-6.42,2.87c-2.42,1.13-6,.49-10-.32l-2.76,15.58c5,1.06,8.54,2.11,14.2,3.46a68.13,68.13,0,0,0,7.66,1.33c.75.08,1.5.3,2.25.37a14.3,14.3,0,0,0,2.17,0,29.86,29.86,0,0,0,4.73-.48,11.85,11.85,0,0,0,5.37-2.67,5.83,5.83,0,0,1,.94-.56c.37-.27.77-.5,1.13-.78a16,16,0,0,0,3.05-3,20,20,0,0,0,2.09-3.17,3,3,0,0,0,.28-.75,3.93,3.93,0,0,0-.06-1.28,1.56,1.56,0,0,1,.32-1c.27-.44.53-.88.79-1.32a1.82,1.82,0,0,0,.33-.85A1.48,1.48,0,0,0,273.3,196.4Z" style="fill:#ffa8a7"></path><path d="M260.75,203.24a23.32,23.32,0,0,0,6.41-3.34c1-.72,3.23-2.53,2.25-3.87,1,2.21-5.13,4.75-6.7,5.66a10.69,10.69,0,0,1-4.42,1.24c-1.56.16-3.15.24-4.74.34A24.82,24.82,0,0,0,260.75,203.24Zm3.46,3.1a31.78,31.78,0,0,1-4.9.87,38.35,38.35,0,0,1-5,.25,24,24,0,0,0,10.14-.42c3.19-1.28,5.63-4,7.64-6.71C269.7,202.57,267.25,205.11,264.21,206.34Zm.71,3.73a89.47,89.47,0,0,1-9.52,1.09A18.4,18.4,0,0,0,264.92,210.07Z" style="fill:#f28f8f"></path></g><path d="M174.91,135.26c-7.15,3.15-11.44,9.07-9,18.47,2.11,8.08,5.52,17.79,11.13,31.8,2.72,6.79,7.69,15.4,11.78,17.05-1.08-7.42,6.21-18.37,14.93-19.5l-1.12-.52s-5.79-17.82-9.26-27.84C188.91,141.75,182.71,137.38,174.91,135.26Z" style="fill:#37474f"></path><path d="M208.05,184.84l-5.28-2.76s-4,.1-10.18,5.28-7.71,13.29-7.71,13.29,4.5,5.1,10.36,5.53C196.9,193.22,201.41,188.14,208.05,184.84Z" style="fill:#FFC100"></path></g></g></g></g></svg>
