<svg xmlns="http://www.w3.org/2000/svg" viewBox="0 0 750 500"><g id="freepik--background-complete--inject-1007"><rect x="120.48" y="322.58" width="2.74" height="55.78" style="fill:#e0e0e0"></rect><rect x="112.39" y="303.28" width="18.93" height="18.93" rx="7.68" transform="translate(256.83 5.44) rotate(45)" style="fill:#f5f5f5"></rect><path d="M117.88,310.76l-.53.93a.19.19,0,0,1-.1.1l-1.4.59a.36.36,0,0,0-.19.45h0a.35.35,0,0,0,.46.2l1.47-.58a.16.16,0,0,0,.08-.06l.53-.6v1.65a.25.25,0,0,1,0,.08l-.85,2a.22.22,0,0,0,.2.3h.26l-.42,2.17a.39.39,0,0,0,.38.46h0a.39.39,0,0,0,.37-.27l.68-2.12a.2.2,0,0,1,.18-.15l.34,0,.7,2.23a.45.45,0,0,0,.47.31h0a.44.44,0,0,0,.37-.55l-.52-1.93.5,0a.22.22,0,0,0,.19-.29l-.2-.56,1.26-.28a.21.21,0,0,0,.16-.26l-.27-1.11a.23.23,0,0,0-.24-.16l-.56.06,0-.64a.21.21,0,0,1,.17-.2,3.7,3.7,0,0,0,1.34-.5,6.63,6.63,0,0,0,.59-.84v2.62a.29.29,0,0,1,0,.09,18.15,18.15,0,0,0-.79,1.86c0,.19,0,1.38,0,2.07a.51.51,0,0,0,.51.49h0a.5.5,0,0,0,.5-.51v-2a.19.19,0,0,1,0-.1l.54-.92a.21.21,0,0,1,.4.11V316a.19.19,0,0,0,0,.08l.74,1.81a.49.49,0,0,0,.74.2h0a.48.48,0,0,0,.16-.57l-.64-1.62a.26.26,0,0,1,0-.15l.08-.24,2.27-.52a.22.22,0,0,0,.16-.26l-.3-1.52a.21.21,0,0,0-.21-.17h-1l.07-1.12a1.28,1.28,0,0,0-.25-.85l-.58-.76a1,1,0,0,0-.84-.42h-1.27a1,1,0,0,0-.8.44l-.6,1a.18.18,0,0,1-.1.09l-.88.35a.22.22,0,0,1-.25-.08l-.7-1a.68.68,0,0,0-.54-.27h-1.34A.67.67,0,0,0,117.88,310.76Z" style="fill:#e0e0e0"></path><path d="M120.21,309a1.09,1.09,0,1,1-1.08-1.09A1.09,1.09,0,0,1,120.21,309Z" style="fill:#e0e0e0"></path><path d="M125.61,308.17a1.14,1.14,0,1,1-1.14-1.14A1.14,1.14,0,0,1,125.61,308.17Z" style="fill:#e0e0e0"></path><path d="M121.85,323.63a2.09,2.09,0,0,1-1.48-.61l-8.8-8.79a2.1,2.1,0,0,1,0-3l8.8-8.79a2.08,2.08,0,0,1,3,0l8.79,8.79a2.1,2.1,0,0,1,0,3L123.33,323A2.09,2.09,0,0,1,121.85,323.63Zm0-21.56a1.9,1.9,0,0,0-1.33.55l-8.79,8.8a1.88,1.88,0,0,0,0,2.65l8.79,8.79a1.9,1.9,0,0,0,1.33.55,1.86,1.86,0,0,0,1.32-.55l8.8-8.79a1.88,1.88,0,0,0,0-2.65l-8.8-8.8A1.86,1.86,0,0,0,121.85,302.07Z" style="fill:#e0e0e0"></path><path d="M716.82,378.05c0,.15-138.73.26-309.81.26s-309.84-.11-309.84-.26,138.69-.26,309.84-.26S716.82,377.91,716.82,378.05Z" style="fill:#e0e0e0"></path><rect x="202.48" y="64.79" width="83.35" height="264.16" style="fill:#f5f5f5"></rect><rect x="244.15" y="64.79" width="41.68" height="263.43" style="fill:#ebebeb"></rect><rect x="211.99" y="38.85" width="29.43" height="25.93" style="fill:#f5f5f5"></rect><rect x="234.41" y="38.85" width="7.02" height="25.93" style="fill:#ebebeb"></rect><polyline points="195.53 64.78 195.53 63.27 288.27 63.27 288.27 64.78" style="fill:#e0e0e0"></polyline><rect x="218.93" y="76.1" width="7.06" height="14.88" style="fill:#fafafa"></rect><path d="M244.15,96.81c0,.16-9.33.28-20.84.28s-20.83-.12-20.83-.28,9.32-.28,20.83-.28S244.15,96.65,244.15,96.81Z" style="fill:#e0e0e0"></path><rect x="260.97" y="76.1" width="7.06" height="14.88" style="fill:#e0e0e0"></rect><path d="M286.19,96.81c0,.16-9.33.28-20.84.28s-20.84-.12-20.84-.28,9.33-.28,20.84-.28S286.19,96.65,286.19,96.81Z" style="fill:#e0e0e0"></path><rect x="260.97" y="105.63" width="7.06" height="14.88" style="fill:#e0e0e0"></rect><path d="M286.19,126.35c0,.15-9.33.28-20.84.28s-20.84-.13-20.84-.28,9.33-.29,20.84-.29S286.19,126.19,286.19,126.35Z" style="fill:#e0e0e0"></path><rect x="260.97" y="136.06" width="7.06" height="14.88" style="fill:#e0e0e0"></rect><path d="M286.19,156.77c0,.16-9.33.29-20.84.29s-20.84-.13-20.84-.29,9.33-.28,20.84-.28S286.19,156.62,286.19,156.77Z" style="fill:#e0e0e0"></path><rect x="260.97" y="166.49" width="7.06" height="14.88" style="fill:#e0e0e0"></rect><path d="M286.19,187.2c0,.16-9.33.29-20.84.29s-20.84-.13-20.84-.29,9.33-.28,20.84-.28S286.19,187,286.19,187.2Z" style="fill:#e0e0e0"></path><rect x="260.97" y="196.04" width="7.06" height="14.88" style="fill:#e0e0e0"></rect><path d="M286.19,216.76c0,.16-9.33.28-20.84.28s-20.84-.12-20.84-.28,9.33-.29,20.84-.29S286.19,216.6,286.19,216.76Z" style="fill:#e0e0e0"></path><rect x="260.97" y="225.72" width="7.06" height="14.88" style="fill:#e0e0e0"></rect><rect x="260.97" y="255.78" width="7.06" height="14.88" style="fill:#e0e0e0"></rect><path d="M286.19,246.43c0,.16-9.33.29-20.84.29s-20.84-.13-20.84-.29,9.33-.28,20.84-.28S286.19,246.28,286.19,246.43Z" style="fill:#e0e0e0"></path><rect x="218.93" y="106.08" width="7.06" height="14.88" style="fill:#fafafa"></rect><path d="M244.15,126.8c0,.15-9.33.28-20.84.28s-20.83-.13-20.83-.28,9.32-.29,20.83-.29S244.15,126.64,244.15,126.8Z" style="fill:#e0e0e0"></path><rect x="218.93" y="136.07" width="7.06" height="14.88" style="fill:#fafafa"></rect><path d="M244.15,156.78c0,.16-9.33.29-20.84.29s-20.83-.13-20.83-.29,9.32-.28,20.83-.28S244.15,156.63,244.15,156.78Z" style="fill:#e0e0e0"></path><rect x="218.93" y="166.06" width="7.06" height="14.88" style="fill:#fafafa"></rect><path d="M244.15,186.77c0,.16-9.33.29-20.84.29s-20.83-.13-20.83-.29,9.32-.28,20.83-.28S244.15,186.61,244.15,186.77Z" style="fill:#e0e0e0"></path><rect x="218.93" y="196.04" width="7.06" height="14.88" style="fill:#fafafa"></rect><path d="M244.15,216.76c0,.16-9.33.28-20.84.28s-20.83-.12-20.83-.28,9.32-.29,20.83-.29S244.15,216.6,244.15,216.76Z" style="fill:#e0e0e0"></path><rect x="218.93" y="226.03" width="7.06" height="14.88" style="fill:#fafafa"></rect><path d="M244.15,246.75c0,.15-9.33.28-20.84.28s-20.83-.13-20.83-.28,9.32-.29,20.83-.29S244.15,246.59,244.15,246.75Z" style="fill:#e0e0e0"></path><rect x="218.93" y="256.02" width="7.06" height="14.88" style="fill:#fafafa"></rect><rect x="413.6" y="164.98" width="112.74" height="213.97" style="fill:#e0e0e0"></rect><rect x="473.48" y="164.98" width="52.86" height="213.97" style="fill:#ebebeb"></rect><rect x="437.24" y="185.11" width="10.14" height="24.63" style="fill:#f5f5f5"></rect><rect x="437.24" y="281.51" width="10.14" height="24.63" style="fill:#f5f5f5"></rect><path d="M473.48,219.41c0,.21-13.41.38-29.94.38s-29.94-.17-29.94-.38S427,219,443.54,219,473.48,219.2,473.48,219.41Z" style="fill:#f5f5f5"></path><rect x="437.24" y="233.67" width="10.14" height="24.63" style="fill:#f5f5f5"></rect><path d="M473.48,268c0,.21-13.41.38-29.94.38s-29.94-.17-29.94-.38,13.4-.38,29.94-.38S473.48,267.76,473.48,268Z" style="fill:#f5f5f5"></path><rect x="484.7" y="185.11" width="10.14" height="24.63" style="fill:#e0e0e0"></rect><rect x="506.69" y="185.11" width="10.14" height="24.63" style="fill:#e0e0e0"></rect><rect x="484.7" y="231.85" width="10.14" height="24.63" style="fill:#e0e0e0"></rect><rect x="506.69" y="231.85" width="10.14" height="24.63" style="fill:#e0e0e0"></rect><rect x="484.7" y="278.58" width="10.14" height="24.63" style="fill:#e0e0e0"></rect><rect x="506.69" y="278.58" width="10.14" height="24.63" style="fill:#e0e0e0"></rect><rect x="405.12" y="159.8" width="129.69" height="5.36" style="fill:#e0e0e0"></rect><path d="M527.13,165.67c0,.21-25.2.39-56.28.39s-56.28-.18-56.28-.39,25.19-.38,56.28-.38S527.13,165.46,527.13,165.67Z" style="fill:#ebebeb"></path><rect x="272.84" y="217.5" width="121.68" height="160.5" style="fill:#ebebeb"></rect><rect x="337.47" y="217.5" width="57.05" height="160.5" style="fill:#e0e0e0"></rect><rect x="298.35" y="239.23" width="10.94" height="26.58" style="fill:#f5f5f5"></rect><rect x="298.35" y="343.26" width="10.94" height="26.58" style="fill:#f5f5f5"></rect><path d="M337.47,276.24c0,.3-14.47.54-32.31.54s-32.32-.24-32.32-.54,14.46-.54,32.32-.54S337.47,275.94,337.47,276.24Z" style="fill:#f5f5f5"></path><rect x="298.35" y="291.64" width="10.94" height="26.58" style="fill:#f5f5f5"></rect><path d="M337.47,328.65c0,.3-14.47.54-32.31.54s-32.32-.24-32.32-.54,14.46-.54,32.32-.54S337.47,328.36,337.47,328.65Z" style="fill:#f5f5f5"></path><rect x="349.58" y="239.23" width="10.94" height="26.58" style="fill:#f5f5f5"></rect><rect x="373.32" y="239.23" width="10.94" height="26.58" style="fill:#f5f5f5"></rect><rect x="349.58" y="289.67" width="10.94" height="26.58" style="fill:#f5f5f5"></rect><rect x="373.32" y="289.67" width="10.94" height="26.58" style="fill:#f5f5f5"></rect><rect x="349.58" y="340.11" width="10.94" height="26.58" style="fill:#f5f5f5"></rect><rect x="373.32" y="340.11" width="10.94" height="26.58" style="fill:#f5f5f5"></rect><rect x="263.69" y="211.91" width="139.98" height="5.79" style="fill:#e0e0e0"></rect><path d="M395.37,218.24c0,.3-27.2.55-60.74.55s-60.74-.25-60.74-.55,27.19-.54,60.74-.54S395.37,218,395.37,218.24Z" style="fill:#ebebeb"></path><polygon points="273.13 378.02 150.48 378.02 149.94 184.18 272.6 184.18 273.13 378.02" style="fill:#ebebeb"></polygon><rect x="211.27" y="184.18" width="61.33" height="193.84" style="fill:#e0e0e0"></rect><rect x="163.95" y="146.01" width="43.31" height="38.16" style="fill:#ebebeb"></rect><rect x="196.94" y="146.01" width="10.32" height="38.16" style="fill:#e0e0e0"></rect><rect x="139.72" y="181.95" width="136.46" height="2.23" style="fill:#e0e0e0"></rect><rect x="174.15" y="200.82" width="10.38" height="21.89" style="fill:#fff"></rect><path d="M211.27,231.3c0,.23-13.73.42-30.66.42s-30.67-.19-30.67-.42,13.73-.42,30.67-.42S211.27,231.07,211.27,231.3Z" style="fill:#e0e0e0"></path><rect x="236.01" y="200.82" width="10.38" height="21.89" style="fill:#f5f5f5"></rect><path d="M273.13,231.3c0,.23-13.73.42-30.66.42s-30.67-.19-30.67-.42,13.73-.42,30.67-.42S273.13,231.07,273.13,231.3Z" style="fill:#ebebeb"></path><rect x="236.01" y="244.28" width="10.38" height="21.89" style="fill:#f5f5f5"></rect><path d="M273.13,274.77c0,.23-13.73.41-30.66.41s-30.67-.18-30.67-.41,13.73-.42,30.67-.42S273.13,274.54,273.13,274.77Z" style="fill:#ebebeb"></path><rect x="236.01" y="289.06" width="10.38" height="21.89" style="fill:#f5f5f5"></rect><path d="M273.13,319.54c0,.23-13.73.42-30.66.42s-30.67-.19-30.67-.42,13.73-.42,30.67-.42S273.13,319.31,273.13,319.54Z" style="fill:#ebebeb"></path><rect x="236.01" y="333.83" width="10.38" height="21.89" style="fill:#f5f5f5"></rect><path d="M273.13,364.31c0,.24-13.73.42-30.66.42s-30.67-.18-30.67-.42,13.73-.41,30.67-.41S273.13,364.08,273.13,364.31Z" style="fill:#ebebeb"></path><rect x="174.15" y="244.95" width="10.38" height="21.89" style="fill:#fff"></rect><path d="M211.27,275.43c0,.23-13.73.42-30.66.42s-30.67-.19-30.67-.42,13.73-.42,30.67-.42S211.27,275.2,211.27,275.43Z" style="fill:#e0e0e0"></path><rect x="174.15" y="289.07" width="10.38" height="21.89" style="fill:#fff"></rect><path d="M211.27,319.56c0,.23-13.73.41-30.66.41s-30.67-.18-30.67-.41,13.73-.42,30.67-.42S211.27,319.32,211.27,319.56Z" style="fill:#e0e0e0"></path><rect x="174.15" y="333.2" width="10.38" height="21.89" style="fill:#fff"></rect><path d="M211.27,363.68c0,.23-13.73.42-30.66.42s-30.67-.19-30.67-.42,13.73-.42,30.67-.42S211.27,363.45,211.27,363.68Z" style="fill:#e0e0e0"></path><path d="M517.17,47.21c.28-2-2.6-3.71-4.76-3.89a12,12,0,0,1-3.07-.26c-2.12-.74-3-3.47-5-4.34-1.55-.65-3.32-.07-4.82.68s-3,1.7-4.64,1.81c-1.45.09-3-.45-4.3.26-.95.53-1.44,1.62-2.32,2.26a5.51,5.51,0,0,1-3,.83,8.18,8.18,0,0,0-3.12.51,2.46,2.46,0,0,0-1.57,2.5Z" style="fill:#fafafa"></path><path d="M108.94,99.44c.54-3.92-5-7.14-9.14-7.47-2-.16-4,.14-5.91-.51-4.06-1.42-5.68-6.67-9.65-8.34-3-1.25-6.38-.14-9.25,1.31s-5.71,3.26-8.92,3.47c-2.79.18-5.83-.86-8.27.51-1.82,1-2.77,3.11-4.45,4.35a10.63,10.63,0,0,1-5.82,1.58,16.33,16.33,0,0,0-6,1c-1.86.85-3.39,2.81-3,4.81Z" style="fill:#ebebeb"></path><path d="M484.11,79.79c.54-3.91-5-7.13-9.14-7.47-2-.16-4,.15-5.91-.51-4.06-1.41-5.68-6.66-9.65-8.33-3-1.25-6.37-.14-9.25,1.31s-5.71,3.26-8.92,3.47c-2.79.18-5.83-.86-8.27.5-1.82,1-2.77,3.12-4.45,4.36a10.6,10.6,0,0,1-5.82,1.57,16.76,16.76,0,0,0-6,1c-1.86.85-3.39,2.82-3,4.82Z" style="fill:#ebebeb"></path><path d="M370.46,107.58c.36-2.59-3.3-4.72-6-4.94a15.87,15.87,0,0,1-3.91-.34c-2.69-.94-3.76-4.41-6.38-5.52-2-.83-4.22-.09-6.13.87s-3.78,2.16-5.9,2.3c-1.85.11-3.86-.57-5.47.33-1.21.67-1.84,2.06-2.95,2.88a7.1,7.1,0,0,1-3.85,1,10.81,10.81,0,0,0-4,.64,3.14,3.14,0,0,0-2,3.19Z" style="fill:#f5f5f5"></path><path d="M144.89,75.3c.35-2.59-3.3-4.72-6-4.94a15.87,15.87,0,0,1-3.91-.34c-2.69-.94-3.76-4.41-6.39-5.52-2-.83-4.22-.09-6.12.87s-3.78,2.16-5.91,2.29c-1.84.12-3.85-.56-5.47.34-1.2.67-1.83,2.06-2.94,2.88a7.13,7.13,0,0,1-3.86,1.05,10.85,10.85,0,0,0-4,.64,3.14,3.14,0,0,0-2,3.19Z" style="fill:#f5f5f5"></path><path d="M690.49,312.75a32.4,32.4,0,0,1-19.85-14.94,28.75,28.75,0,0,1-2.08-23.73c2.17-6,6.35-11.35,8.14-17.49,2-7,.82-14.37-.43-21.51s-2.54-14.5-.63-21.51,7.91-13.58,15.63-14.08C698.43,199,705,204,708,210.08s3,13.09,2.31,19.76-2.06,13.33-1.64,20c.87,13.54,9,26.29,8,39.83-.5,7.06-3.42,11.57-8.42,16.87-4.31,4.57-11.48,7.58-17.83,6.18" style="fill:#f5f5f5"></path><path d="M693,379.87c-.08,0-.14-30-.14-67s.06-67,.14-67,.13,30,.13,67S693.1,379.87,693,379.87Z" style="fill:#e0e0e0"></path><path d="M692.64,289.33a10,10,0,0,1-1.24-1.09c-.74-.7-1.74-1.68-2.79-2.81s-2-2.12-2.73-2.85a9.67,9.67,0,0,1-1.1-1.22,10,10,0,0,1,1.24,1.09c.74.7,1.74,1.69,2.79,2.81s2,2.13,2.73,2.86A11.17,11.17,0,0,1,692.64,289.33Z" style="fill:#e0e0e0"></path><rect x="670.99" y="374.31" width="44.82" height="5.48" style="fill:#e0e0e0"></rect><path d="M693.45,261.25a9.17,9.17,0,0,0,2.74-1.14,7.62,7.62,0,0,0,3.39-5.71v-.12l.15.13a6,6,0,0,0-3.3,1.82,13,13,0,0,0-1.84,2.46c-.44.76-.75,1.4-1,1.84a4.22,4.22,0,0,1-.34.68,4.69,4.69,0,0,1,.25-.72,16.67,16.67,0,0,1,.89-1.88,11.58,11.58,0,0,1,1.82-2.54,6,6,0,0,1,3.44-1.91l.17,0v.28a7.67,7.67,0,0,1-3.56,5.84,6.65,6.65,0,0,1-2,.86,3.24,3.24,0,0,1-.6.11Z" style="fill:#e0e0e0"></path><path d="M693.45,261.25a16.59,16.59,0,0,1,1.88-2.33,17.38,17.38,0,0,1,2.08-2.18,16.64,16.64,0,0,1-1.87,2.34A17.29,17.29,0,0,1,693.45,261.25Z" style="fill:#e0e0e0"></path><path d="M72.35,311.08A32.4,32.4,0,0,1,52.5,296.14a28.79,28.79,0,0,1-2.09-23.73c2.17-6,6.35-11.35,8.14-17.5,2-7,.83-14.37-.43-21.5s-2.53-14.5-.63-21.51,7.91-13.58,15.63-14.08c7.16-.46,13.77,4.49,16.76,10.59s3,13.08,2.31,19.76-2.06,13.33-1.63,20c.86,13.55,9,26.3,8,39.84-.49,7.05-3.42,11.57-8.42,16.87-4.31,4.57-11.47,7.58-17.82,6.18" style="fill:#f5f5f5"></path><path d="M74.88,378.2c-.07,0-.13-30-.13-67s.06-67,.13-67,.14,30,.14,67S75,378.2,74.88,378.2Z" style="fill:#e0e0e0"></path><path d="M74.49,287.66a10.46,10.46,0,0,1-1.23-1.09c-.74-.7-1.74-1.68-2.8-2.81s-2-2.13-2.73-2.86a10.3,10.3,0,0,1-1.09-1.21,10.46,10.46,0,0,1,1.23,1.09c.74.7,1.74,1.68,2.8,2.81s2,2.13,2.73,2.85A9,9,0,0,1,74.49,287.66Z" style="fill:#e0e0e0"></path><rect x="52.85" y="372.63" width="44.82" height="5.48" style="fill:#e0e0e0"></rect><path d="M75.3,259.58A9.17,9.17,0,0,0,78,258.44a7.58,7.58,0,0,0,2.2-2.21,7.34,7.34,0,0,0,1.19-3.5v-.12l.16.13a5.83,5.83,0,0,0-3.3,1.81A12.29,12.29,0,0,0,76.46,257c-.44.76-.75,1.39-1,1.84s-.33.68-.34.68a3,3,0,0,1,.24-.72,16.8,16.8,0,0,1,.89-1.88,11.92,11.92,0,0,1,1.82-2.54,6.11,6.11,0,0,1,3.45-1.91l.17,0,0,.16v.12a7.49,7.49,0,0,1-1.25,3.61,7.71,7.71,0,0,1-2.3,2.24,7.06,7.06,0,0,1-2,.86,4.14,4.14,0,0,1-.6.11Z" style="fill:#e0e0e0"></path><path d="M75.3,259.58a17.77,17.77,0,0,1,1.88-2.33,17,17,0,0,1,2.09-2.18,16.32,16.32,0,0,1-1.88,2.34A18.18,18.18,0,0,1,75.3,259.58Z" style="fill:#e0e0e0"></path></g><g id="freepik--Floor--inject-1007"><path d="M698.81,473.1c0,.15-147.67.26-329.79.26s-329.83-.11-329.83-.26,147.64-.26,329.83-.26S698.81,473,698.81,473.1Z" style="fill:#263238"></path></g><g id="freepik--Statue--inject-1007"><path d="M558.12,153.67c2.87,9.27,6.14,11.73,9.69,10.91s11.86-10.09,11.86-10.09l3.77-11.62-3,35.49s-3.2,37.25-3.24,59.54c0,19.89,5.64,50.85,5.64,50.85s.79,21,2.39,34.14c1.38,11.4,10.06,41.28,12.38,49.14h-8.69v12.75h56.22V372H630v0s12-37.13,12-57.09-1.19-38.73,4.4-55.71,11.72-46.18,9.32-65.34a48.38,48.38,0,0,0-3.6-12.68l.16.25s18-21.4,17.86-26.7-17.51-45.8-21.57-52.7-14.15-7.91-14.15-7.91h0L620.17,91l-29,1h0s-11.59.1-15.62,7.59a44.7,44.7,0,0,0-2.63,6.36L567,110.86S555.26,144.4,558.12,153.67Zm76.24,0,3.93-23.33,10.86,19.83-3.74,18.43A120.91,120.91,0,0,0,634.36,153.67ZM613.74,372c.18-6.39.92-35.59-.15-45.36-1.2-11-5.12-38.49-5.12-38.49l4.7-66.28s2.42,58.67,2.82,63.86,1.2,16.77,1.2,16.77-.8,36.33,0,57.89A33.32,33.32,0,0,1,615.81,372Z" style="fill:#455a64"></path><path d="M558.12,153.67c2.87,9.27,6.14,11.73,9.69,10.91s11.86-10.09,11.86-10.09l3.77-11.62-3,35.49s-3.2,37.25-3.24,59.54c0,19.89,5.64,50.85,5.64,50.85s.79,21,2.39,34.14c1.38,11.4,10.06,41.28,12.38,49.14h-8.69v12.75h56.22V372H630v0s12-37.13,12-57.09-1.19-38.73,4.4-55.71,11.72-46.18,9.32-65.34a48.38,48.38,0,0,0-3.6-12.68l.16.25s18-21.4,17.86-26.7-17.51-45.8-21.57-52.7-14.15-7.91-14.15-7.91h0L620.17,91l-29,1h0s-11.59.1-15.62,7.59a44.7,44.7,0,0,0-2.63,6.36L567,110.86S555.26,144.4,558.12,153.67Zm76.24,0,3.93-23.33,10.86,19.83-3.74,18.43A120.91,120.91,0,0,0,634.36,153.67ZM613.74,372c.18-6.39.92-35.59-.15-45.36-1.2-11-5.12-38.49-5.12-38.49l4.7-66.28s2.42,58.67,2.82,63.86,1.2,16.77,1.2,16.77-.8,36.33,0,57.89A33.32,33.32,0,0,1,615.81,372Z" style="fill:none"></path><path d="M613.74,372h.51l1.56,0,0,0a30.8,30.8,0,0,0,1.33-8.44c.07-2-.07-4.24-.14-6.76s-.15-5.26-.19-8.26c-.19-12-.14-27.69.2-46v0c-.4-5.74-.88-11.75-1.27-18s-.57-12.76-.87-19.46c-.6-13.4-1.23-27.59-1.88-42.28,0-.3,0-.6,0-.9h.52c-1.71,23.93-3.32,46.53-4.73,66.28v-.05c1.64,12.41,3.14,23.83,4.48,34,.33,2.54.71,5,.82,7.4s.19,4.71.24,6.93c.08,4.45.07,8.54,0,12.24-.06,7.4-.21,13.23-.32,17.21-.06,2-.11,3.5-.14,4.55,0,.5,0,.88-.06,1.16s0,.4,0,.4,0-.12,0-.38v-1.18c0-1.05,0-2.57.08-4.55.06-4,.16-9.82.18-17.21,0-3.7,0-7.79-.09-12.23-.06-2.22-.11-4.53-.27-6.92s-.5-4.84-.84-7.38c-1.36-10.15-2.9-21.56-4.56-34v-.05c1.39-19.75,3-42.36,4.67-66.29h.52c0,.29,0,.6,0,.9.64,14.68,1.27,28.87,1.86,42.27q.43,10.05.85,19.45c.37,6.26.84,12.27,1.23,18h0c-.38,18.35-.47,34.06-.35,46,.05,3,.1,5.75.14,8.26s.18,4.76.09,6.76a29.79,29.79,0,0,1-1.45,8.47v0h0l-1.59,0Z" style="fill:#e0e0e0"></path><path d="M634.36,153.67a1.83,1.83,0,0,1,.25.23l.66.73c.58.64,1.41,1.61,2.43,2.87a121,121,0,0,1,7.89,11l-.4.07,3.71-18.43,0,.18-2.13-3.9c-3.14-5.74-6.1-11.17-8.71-16l.44-.08c-1.2,6.87-2.21,12.67-2.93,16.8-.37,2-.66,3.63-.87,4.78-.11.53-.19,1-.25,1.28a2.41,2.41,0,0,1-.11.44,2.22,2.22,0,0,1,0-.42c.05-.33.11-.74.18-1.26.18-1.15.43-2.76.74-4.77.68-4.17,1.63-10,2.75-16.92l.11-.67.33.59c2.62,4.77,5.59,10.2,8.74,15.93l2.14,3.9,0,.08,0,.1c-1.39,6.79-2.69,13.09-3.78,18.41l-.11.53-.29-.46a131.57,131.57,0,0,0-7.72-11.06c-1-1.28-1.78-2.27-2.33-2.94l-.61-.76A1.68,1.68,0,0,1,634.36,153.67Z" style="fill:#263238"></path><path d="M558.12,153.67l-.18-.7a12.65,12.65,0,0,1-.27-2.15,41.43,41.43,0,0,1,.69-8.44c1.2-7.38,4-18.08,8.52-31.56v0l0,0,5.93-4.85,0,.06a50.74,50.74,0,0,1,2.12-5.35,13.89,13.89,0,0,1,1.56-2.6,12.8,12.8,0,0,1,2.23-2.18A18.27,18.27,0,0,1,584.5,93a26.66,26.66,0,0,1,6.67-1.1l-.15.15.15-.15,29-1.08h.05l14.19,3.1.14.18-.18-.19a23.19,23.19,0,0,1,10.87,4.21,13.84,13.84,0,0,1,3.9,4.62c1,1.79,1.85,3.65,2.74,5.52,3.51,7.5,6.92,15.39,10.31,23.6,1.69,4.12,3.38,8.3,5,12.6.8,2.16,1.57,4.34,2.28,6.56a23.8,23.8,0,0,1,.83,3.45,4.11,4.11,0,0,1-.26,1.81,12.47,12.47,0,0,1-.66,1.66,51.66,51.66,0,0,1-3.63,6.17c-1.33,2-2.74,4-4.19,5.89q-4.35,5.83-9.13,11.56l-.21.24-.17-.27-.16-.25.41-.22a53,53,0,0,1,3.05,9.41,34.49,34.49,0,0,1,.73,5c.07.83.19,1.67.22,2.51s.07,1.68.11,2.52a130.3,130.3,0,0,1-1.21,20.5,231.08,231.08,0,0,1-9.59,41.63,102.06,102.06,0,0,0-3.2,21.81c-.39,7.44-.28,15-.22,22.58,0,3.8.12,7.62-.08,11.47A114.62,114.62,0,0,1,640.71,330c-1.26,7.64-3,15.25-5,22.84q-2.54,9.76-5.53,19.28l0-.08v0l-.26-.26h15.45V385H588.69V371.79h8.94l-.24.31q-3.18-10.85-6-21.45c-1.89-7.07-3.7-14-5.15-21-.36-1.74-.69-3.48-1-5.22s-.45-3.49-.63-5.22c-.35-3.47-.62-6.92-.87-10.33-.48-6.84-.83-13.55-1.1-20.14v0q-2.05-11.56-3.45-22.66c-.92-7.39-1.69-14.61-2-21.66s-.07-13.9.16-20.52.62-13,1-19.16c.77-12.32,1.69-23.69,2.59-34s1.67-19.67,2.37-27.88l.23,0-3.79,11.61v0l0,0c-1.72,1.89-3.42,3.61-5.07,5.16a35,35,0,0,1-4.92,4,5.88,5.88,0,0,1-2.65,1,4.92,4.92,0,0,1-2.57-.44,8.41,8.41,0,0,1-3.21-3.13,25.81,25.81,0,0,1-2.56-5.54c-.44-1.31-.64-2-.64-2s.07.17.18.5.27.82.51,1.47a27.13,27.13,0,0,0,2.6,5.51,8.35,8.35,0,0,0,3.17,3.06,5,5,0,0,0,5.08-.6,35.31,35.31,0,0,0,4.89-4c1.64-1.55,3.33-3.28,5-5.17l0,0,3.76-11.62.31-1-.08,1c-.68,8.21-1.46,17.54-2.31,27.89s-1.79,21.72-2.54,34c-.38,6.16-.73,12.55-1,19.16s-.48,13.45-.14,20.48,1.1,14.24,2,21.63,2.09,14.94,3.46,22.63v0c.27,6.58.63,13.29,1.12,20.11.25,3.42.52,6.86.88,10.32.18,1.73.35,3.47.62,5.2s.59,3.46.95,5.19c1.45,6.93,3.26,13.91,5.16,21s3.93,14.21,6.05,21.43l.1.32h-9l.25-.25v12.75l-.25-.25h56.22l-.26.26V372l.26.26H629.71v-.37q3-9.48,5.51-19.25c2-7.58,3.71-15.18,5-22.79a114.31,114.31,0,0,0,1.36-11.44c.2-3.81.09-7.64.08-11.44-.06-7.6-.17-15.14.23-22.6a102.55,102.55,0,0,1,3.22-21.92,231.05,231.05,0,0,0,9.59-41.57,129.33,129.33,0,0,0,1.22-20.41l-.11-2.51c0-.84-.14-1.66-.21-2.49a36.3,36.3,0,0,0-.72-4.91,53.12,53.12,0,0,0-3-9.32l.42-.22.16.25-.38,0q4.77-5.7,9.12-11.52c1.45-1.94,2.86-3.89,4.18-5.88a49,49,0,0,0,3.6-6.1,12.32,12.32,0,0,0,.65-1.61,3.6,3.6,0,0,0,.23-1.64,23.61,23.61,0,0,0-.8-3.35q-1.07-3.31-2.27-6.53c-1.59-4.3-3.28-8.48-5-12.59-3.38-8.22-6.79-16.11-10.28-23.6-.89-1.87-1.76-3.73-2.72-5.5a13.36,13.36,0,0,0-3.8-4.5,19.65,19.65,0,0,0-5.11-2.77,27.18,27.18,0,0,0-2.75-.84c-.46-.13-.93-.22-1.4-.31L635,94.4l-.35-.05-.18,0h-.13c0-.08,0,.17,0-.18h-.19l.15.18-14.19-3.11h0l-29,1,.14-.16h-.15v.15h-.42l-.42,0c-.29,0-.57,0-.85.07-.56.06-1.12.13-1.67.22a26.57,26.57,0,0,0-3.23.74,18.09,18.09,0,0,0-5.7,2.77,12.64,12.64,0,0,0-2.19,2.13,14,14,0,0,0-1.53,2.54,50.31,50.31,0,0,0-2.12,5.32v0l0,0c-2.09,1.71-4.12,3.35-5.94,4.83l0,0c-4.59,13.45-7.38,24.14-8.62,31.5a42.27,42.27,0,0,0-.75,8.42A13.32,13.32,0,0,0,558,153C558.08,153.43,558.12,153.67,558.12,153.67Z" style="fill:#263238"></path><rect x="589.19" y="372.03" width="55.93" height="12.63" style="fill:#263238"></rect><path d="M604.36,158.57c.15,0,.21.7.15,1.54s-.23,1.52-.38,1.51-.21-.7-.14-1.55S604.22,158.55,604.36,158.57Z" style="fill:#263238"></path><path d="M613.17,222.76a4.58,4.58,0,0,1-.06-1.18c0-.75,0-1.84.07-3.19a87.08,87.08,0,0,1,1-10.5A45.57,45.57,0,0,1,617,197.7a25.47,25.47,0,0,1,1.42-2.87,5,5,0,0,1,.66-1c.08,0-.79,1.47-1.74,4a52.88,52.88,0,0,0-2.6,10.14c-.67,4-1,7.75-1.18,10.43-.1,1.26-.17,2.32-.24,3.18A6.05,6.05,0,0,1,613.17,222.76Z" style="fill:#263238"></path><path d="M597.66,197a22.75,22.75,0,0,1,2.38,2.11c1.44,1.32,3.46,3.12,5.77,5s4.5,3.48,6.09,4.62a22.32,22.32,0,0,1,2.55,1.89,16.93,16.93,0,0,1-2.76-1.59,73.43,73.43,0,0,1-11.91-9.66A16,16,0,0,1,597.66,197Z" style="fill:#263238"></path><path d="M607.52,32.68c-5,1.21-10.41-2-14.93.47a16.58,16.58,0,0,0-8.29,12.42c-.27,2.37,0,4.82-.7,7.11-.54,1.83-1.64,3.46-2.19,5.29-.94,3.15-.16,6.52.74,9.68,1.05,3.66,2,8,4,11.25,3.81,6.3,9.07,6.09,13.64,6.37a58.84,58.84,0,0,0,16.71-.92,31.05,31.05,0,0,0,15.13-9c1.35-1.51,2.26-5.84,2.83-7.78a8,8,0,0,0-.41-5.91c-.66-1.28-1.76-2.37-2.06-3.78-.48-2.22,1.17-4.44.88-6.69-.24-1.93-1.81-3.37-3.2-4.73a8.44,8.44,0,0,1-2.44-3.61,9.16,9.16,0,0,0-1.7-3.64C622.83,35.92,616.73,30.46,607.52,32.68Z" style="fill:#263238"></path><path d="M586.48,49.32c.43-6.57,4.8-14.61,11.34-13.91l20.41,5.21a3.86,3.86,0,0,1,3.44,3.91l-1.33,44.85a11.84,11.84,0,0,1-12.09,11.49h0a11.85,11.85,0,0,1-11.58-11.82v-7s-8.39-1.41-10.1-12.35C585.72,64.3,586,56.61,586.48,49.32Z" style="fill:#455a64"></path><path d="M590.13,57.78a1.4,1.4,0,0,0,1.35,1.42,1.35,1.35,0,0,0,1.45-1.26,1.41,1.41,0,0,0-1.35-1.42A1.34,1.34,0,0,0,590.13,57.78Z" style="fill:#263238"></path><path d="M588.41,54c.17.19,1.24-.6,2.75-.59s2.61.76,2.78.58-.1-.41-.58-.77a3.85,3.85,0,0,0-2.22-.69,3.76,3.76,0,0,0-2.19.7C588.48,53.55,588.32,53.88,588.41,54Z" style="fill:#263238"></path><path d="M604.62,57.78A1.4,1.4,0,0,0,606,59.2a1.35,1.35,0,0,0,1.45-1.26,1.41,1.41,0,0,0-1.35-1.42A1.33,1.33,0,0,0,604.62,57.78Z" style="fill:#263238"></path><path d="M603.25,54.28c.18.18,1.24-.6,2.75-.6s2.62.77,2.78.58-.09-.41-.58-.76a3.85,3.85,0,0,0-2.22-.69,3.72,3.72,0,0,0-2.19.7C603.33,53.86,603.17,54.19,603.25,54.28Z" style="fill:#263238"></path><path d="M597.75,65.46A10.09,10.09,0,0,0,595.3,65c-.39,0-.75-.12-.82-.39a2,2,0,0,1,.26-1.14c.37-.93.75-1.91,1.15-2.93,1.59-4.18,2.75-7.61,2.58-7.68s-1.6,3.28-3.19,7.45c-.39,1-.75,2-1.1,3A2.27,2.27,0,0,0,594,64.8a1,1,0,0,0,.64.56,2.3,2.3,0,0,0,.65.09A9.44,9.44,0,0,0,597.75,65.46Z" style="fill:#263238"></path><path d="M611.18,78.21s-3.56,7.52-14.51,6.47V82.1A27.5,27.5,0,0,0,611.18,78.21Z" style="fill:#263238"></path><path d="M598.38,69.1a2.74,2.74,0,0,1,2.44-1,2.46,2.46,0,0,1,1.71.92,1.58,1.58,0,0,1,.12,1.8,1.81,1.81,0,0,1-2,.5,5.72,5.72,0,0,1-1.93-1.16,1.63,1.63,0,0,1-.43-.44.53.53,0,0,1,0-.57" style="fill:#263238"></path><path d="M602.19,66.52c-.25,0-.25,1.62-1.66,2.78s-3.15,1-3.16,1.21.39.32,1.12.34a4,4,0,0,0,2.64-.91,3.6,3.6,0,0,0,1.29-2.34C602.48,66.92,602.3,66.51,602.19,66.52Z" style="fill:#263238"></path><path d="M634.36,153.67a2.05,2.05,0,0,1,.37.36l1,1.1c.84,1,2.06,2.38,3.52,4.16s3.15,3.94,4.9,6.43a73.91,73.91,0,0,1,5.2,8.42,58.7,58.7,0,0,1,6,16.93,49.12,49.12,0,0,1,.66,5.41c0,.6.07,1.08.09,1.48a1.72,1.72,0,0,1,0,.52,2.06,2.06,0,0,1-.1-.51c-.05-.39-.11-.88-.19-1.47-.11-1.28-.42-3.11-.82-5.36a62.23,62.23,0,0,0-6.08-16.75,77.78,77.78,0,0,0-5.14-8.4c-1.72-2.49-3.38-4.66-4.79-6.47l-3.39-4.26-.91-1.16C634.45,153.83,634.34,153.68,634.36,153.67Z" style="fill:#263238"></path><rect x="574.17" y="384.78" width="83.41" height="12.74" transform="translate(1231.75 782.3) rotate(180)" style="fill:#455a64"></rect><rect x="564.11" y="396.92" width="103.52" height="75.88" transform="translate(1231.75 869.72) rotate(180)" style="fill:#455a64"></rect><path d="M632.28,118.66a3.9,3.9,0,0,1-.26-.9,24.71,24.71,0,0,1-.36-2.54,27.89,27.89,0,0,1,.56-8.41,21.92,21.92,0,0,1,1.44-4.43,10.68,10.68,0,0,1,2.16-3.16A6.09,6.09,0,0,1,638,97.83a3.54,3.54,0,0,1,.69-.17c.15,0,.24,0,.24,0a7.87,7.87,0,0,0-2.85,1.83,10.9,10.9,0,0,0-2,3.1,24.18,24.18,0,0,0-1.37,4.35,31.31,31.31,0,0,0-.7,8.27C632.13,117.33,632.37,118.64,632.28,118.66Z" style="fill:#263238"></path><path d="M576.61,149.17a3.15,3.15,0,0,1,0-.46c0-.34,0-.79,0-1.37,0-1.23,0-3-.09-5.23-.06-4.56-.14-11.1-.24-19.12v0l0,0,2.17-4.78,0-.11h.15a6,6,0,0,0,1.8-.66,16,16,0,0,0,1.75-1.06c1.16-.78,2.26-1.71,3.42-2.62l7.19-5.73.06,0h.08c1.37-.06,2.78-.15,4.21-.3a12.61,12.61,0,0,0,2.1-.34c.19-.09.15,0,.17-.12a.85.85,0,0,0-.17-.37,4.25,4.25,0,0,0-.73-.74l-.39-.32.5-.13a1.83,1.83,0,0,0,.87-.46c.2-.22.16-.49-.05-.8a10.07,10.07,0,0,0-1.55-1.82l-.08-.09-.34-.29-.44-.33-.93-.66-1.92-1.29-4-2.57.15,0h-.14l-6.52.28.16-.06L567.14,111l.07-.1a228.3,228.3,0,0,0-8.49,30.53,49.16,49.16,0,0,0-1,9,17.78,17.78,0,0,0,.21,2.39l.12.61q0,.21,0,.21l-.06-.2c0-.16-.1-.35-.17-.6a15.6,15.6,0,0,1-.29-2.4,47.38,47.38,0,0,1,.83-9.05,218.88,218.88,0,0,1,8.33-30.64l0-.07.06,0,16.62-13.56.07,0h.08l6.52-.28h.22l.07,0,4,2.58,1.94,1.29.93.67a5,5,0,0,1,1,.81l-.08-.08a10,10,0,0,1,1.67,1.93,1.63,1.63,0,0,1,.26.69,1,1,0,0,1-.25.73,2.24,2.24,0,0,1-1.15.63l.1-.45a4.78,4.78,0,0,1,.83.85,1.29,1.29,0,0,1,.26.64.51.51,0,0,1-.16.43c-.17.16-.24.13-.35.19a12.81,12.81,0,0,1-2.22.36c-1.44.15-2.86.23-4.24.3l.15-.06L585.83,114c-1.16.91-2.26,1.84-3.44,2.63a16,16,0,0,1-1.81,1.08,5.79,5.79,0,0,1-2,.69l.19-.12-2.19,4.77,0-.09c0,8,0,14.55.06,19.12,0,2.24,0,4,0,5.23,0,.58,0,1,0,1.37A2.35,2.35,0,0,1,576.61,149.17Z" style="fill:#263238"></path><path d="M585.09,105.39c0-.07.76-.35,1.89-1.09a23.49,23.49,0,0,1,2.06-1.22,5,5,0,0,1,3-.53,7.87,7.87,0,0,1,2.79,1c.78.46,1.44.92,2,1.28,1.12.73,1.89,1,1.87,1.12a5.26,5.26,0,0,1-2.06-.81c-1.2-.61-2.72-1.81-4.69-2.12a4.64,4.64,0,0,0-2.68.45c-.79.36-1.48.78-2.08,1.1A4.61,4.61,0,0,1,585.09,105.39Z" style="fill:#263238"></path><path d="M583.16,102.35a9.34,9.34,0,0,1,1.87-1.91,10.39,10.39,0,0,1,2.48-1.57,6.77,6.77,0,0,1,3.59-.47,11.7,11.7,0,0,1,5.79,2.87,11,11,0,0,1,1.91,1.86,18.73,18.73,0,0,1-2.14-1.57A12.42,12.42,0,0,0,591,98.92a6.58,6.58,0,0,0-3.34.39,11,11,0,0,0-2.43,1.42A25,25,0,0,1,583.16,102.35Z" style="fill:#263238"></path><path d="M580.52,118.91c.11,0-.31,1.75-.29,4.59a36.91,36.91,0,0,0,.41,5c.29,1.86.69,3.89,1.13,6s.83,4.18,1.11,6.06a34,34,0,0,1,.35,5,15.73,15.73,0,0,1-.11,1.93,8.45,8.45,0,0,1-.2,1.45,5,5,0,0,1-.29,1.21c-.11,0,.28-1.75.23-4.59a37.6,37.6,0,0,0-.46-5c-.29-1.86-.7-3.89-1.14-6s-.83-4.18-1.09-6.06a32.16,32.16,0,0,1-.31-5,18,18,0,0,1,.13-1.94,9.52,9.52,0,0,1,.22-1.45A5.5,5.5,0,0,1,580.52,118.91Z" style="fill:#263238"></path><path d="M649.49,151s.24-.58.92-1.27a8.73,8.73,0,0,1,6.94-2.52,3.46,3.46,0,0,1,1.52.38,11.18,11.18,0,0,0-9.38,3.41Z" style="fill:#263238"></path><path d="M625,71.18a7.65,7.65,0,0,1-9.45-9.3,6.21,6.21,0,0,1-3.27-9.8,5.78,5.78,0,0,1-4.21-7.45,4.87,4.87,0,0,1-8.81-2.82,3.64,3.64,0,0,1-4.58-5,4.76,4.76,0,0,1-5.06,5.06,5.3,5.3,0,0,1-.71,3.13c-.66.87-2.17,1.14-2.78.24a2.31,2.31,0,0,1-.23-1.6c.64-5,5-9,9.86-10.37s10.09-.54,14.9,1c5.08,1.66,10.07,4.28,13.23,8.59a23.27,23.27,0,0,1,4,12.86,69.07,69.07,0,0,1-1.23,13.59c-.1-.38-.19-.75-.29-1.12" style="fill:#263238"></path><path d="M597.78,33s.15,0,.45,0a4.5,4.5,0,0,1,1.24.35,5.1,5.1,0,0,1,1.67,1.2A5,5,0,0,1,602.41,37l-.26-.11A5.73,5.73,0,0,1,611,41.69l-.24-.24A6.92,6.92,0,0,1,614.68,43a6.65,6.65,0,0,1,2.39,3.8,7,7,0,0,1-.35,4.22l-.26-.36A5.24,5.24,0,0,1,621.59,58l-.21-.31a4.92,4.92,0,0,1,4.36,2.56,4.48,4.48,0,0,1,.12,3.92,4.63,4.63,0,0,1-1.58,2,2.89,2.89,0,0,1-.58.33l-.22.08s.27-.16.72-.52a4.74,4.74,0,0,0,1.43-2,4.21,4.21,0,0,0-.21-3.64,4.52,4.52,0,0,0-4-2.3l-.34,0,.13-.32a4.77,4.77,0,0,0-4.68-6.65l-.42,0,.16-.38a6.4,6.4,0,0,0-5.53-8.84h-.23v-.24a5.42,5.42,0,0,0-3.25-4.87,5.51,5.51,0,0,0-4.9.37l-.22.14,0-.25A4.66,4.66,0,0,0,601,34.73a5,5,0,0,0-1.56-1.21A7,7,0,0,0,597.78,33Z" style="fill:#455a64"></path><path d="M619.52,49c.07-.14,2.3.95,5.26,1.59s5.45.61,5.45.77a13.18,13.18,0,0,1-5.56-.26A13,13,0,0,1,619.52,49Z" style="fill:#455a64"></path><path d="M621.74,54c.06-.14,1.81.56,4,1s4.12.57,4.12.73A13.17,13.17,0,0,1,621.74,54Z" style="fill:#455a64"></path><path d="M602.67,117.33c.1,0,.19,1.36.86,3.45a19.37,19.37,0,0,0,1.52,3.52,20.17,20.17,0,0,0,6.3,6.86,18.7,18.7,0,0,0,3.38,1.82c2,.84,3.39,1.05,3.37,1.15a3.14,3.14,0,0,1-1-.1,8,8,0,0,1-1.11-.25,11,11,0,0,1-1.44-.45,18.57,18.57,0,0,1-3.5-1.77,20.29,20.29,0,0,1-3.67-3.11,21,21,0,0,1-2.79-3.92,17.92,17.92,0,0,1-1.46-3.64,13.44,13.44,0,0,1-.33-1.47,6.65,6.65,0,0,1-.15-1.13A3.07,3.07,0,0,1,602.67,117.33Z" style="fill:#263238"></path><path d="M564.87,396.52c0-.15,23.15-.26,51.71-.26s51.71.11,51.71.26-23.15.26-51.71.26S564.87,396.66,564.87,396.52Z" style="fill:#263238"></path><rect x="600.56" y="388.21" width="29.72" height="5.45" transform="translate(1230.83 781.87) rotate(180)" style="fill:#263238"></rect><path d="M596.65,83.23a18.9,18.9,0,0,1,.26,4.38,18.9,18.9,0,0,1-.26,4.38,18.26,18.26,0,0,1-.26-4.38A18.26,18.26,0,0,1,596.65,83.23Z" style="fill:#263238"></path><path d="M620.8,70.89a15.48,15.48,0,0,1,.16,3c0,1.82,0,4.34-.14,7.12s-.2,5.12-.28,7.11a17,17,0,0,1-.22,3,16.2,16.2,0,0,1-.15-3c0-1.82,0-4.34.13-7.12s.21-5.12.29-7.11A19.06,19.06,0,0,1,620.8,70.89Z" style="fill:#263238"></path></g><g id="freepik--Plant--inject-1007"><path d="M318.23,420.76a9.75,9.75,0,0,1,5,5.71,17.3,17.3,0,0,1,.67,7.74c-.57,5-3.42,10.09-6.5,14.1-4.23-3.69-5.2-10.13-5.49-13.42-.45-5.21,1.89-14.91,6.28-14.13" style="fill:#FFC100"></path><path d="M322.36,456.6a8.28,8.28,0,0,1,2.68-7.89,11.06,11.06,0,0,1,8.14-2.54,4.63,4.63,0,0,1,3.57,1.6,3.54,3.54,0,0,1,.05,3.6,7.14,7.14,0,0,1-2.66,2.63c-3.67,2.3-7.64,3.85-11.78,2.6" style="fill:#FFC100"></path><path d="M316.94,472a5.19,5.19,0,0,1,.15-1c.13-.72.3-1.66.51-2.79a29.25,29.25,0,0,1,2.88-8.91,17.75,17.75,0,0,1,6.39-6.79,12.08,12.08,0,0,1,2.61-1.16c.32-.1.58-.14.75-.19s.26-.05.27,0a18.81,18.81,0,0,0-3.5,1.6,18.38,18.38,0,0,0-6.2,6.75,31.31,31.31,0,0,0-2.95,8.79c-.25,1.16-.46,2.11-.62,2.76A5.62,5.62,0,0,1,316.94,472Z" style="fill:#263238"></path><path d="M317.1,428.3a2.23,2.23,0,0,1,0,.45c0,.33,0,.76.07,1.29.06,1.13.13,2.75.19,4.77.14,4,.24,9.58.21,15.73s-.18,11.71-.34,15.73c-.08,2-.16,3.64-.23,4.76q-.06.8-.09,1.29a1.65,1.65,0,0,1-.06.45,2.19,2.19,0,0,1,0-.45c0-.33,0-.76,0-1.29,0-1.18.07-2.79.12-4.77.1-4,.21-9.58.24-15.72s0-11.7-.1-15.73c0-2-.06-3.59-.08-4.76,0-.54,0-1,0-1.3A1.72,1.72,0,0,1,317.1,428.3Z" style="fill:#263238"></path><path d="M315,459.66a19.43,19.43,0,0,0-10.6-14.23c-1.42-.67-3.26-1.12-4.42-.07s-.91,2.95-.34,4.41a16.59,16.59,0,0,0,15.26,10.3" style="fill:#FFC100"></path><path d="M305.12,450.2a4,4,0,0,1,.9.39,8.71,8.71,0,0,1,1,.54c.38.24.84.47,1.29.81a14.62,14.62,0,0,1,1.48,1.11,17,17,0,0,1,1.57,1.43,20,20,0,0,1,5,8.28,18.57,18.57,0,0,1,.49,2.07,14.89,14.89,0,0,1,.26,1.83,14.14,14.14,0,0,1,.07,1.52,8,8,0,0,1,0,1.15,5.67,5.67,0,0,1-.1,1c-.09,0,.06-1.4-.19-3.62a17.12,17.12,0,0,0-.29-1.8c-.12-.65-.32-1.32-.52-2a20.49,20.49,0,0,0-4.88-8.15c-.52-.52-1-1-1.52-1.43s-1-.79-1.44-1.13C306.36,450.85,305.08,450.27,305.12,450.2Z" style="fill:#263238"></path></g><g id="freepik--character-2--inject-1007"><path d="M436.5,191.1l-.63,10.09-10.45-36.63-13.26-.64c0,.76,0,50,6,60,3.82,6.34,9.81,10.41,16.81,10,6.43-.42,9.34-2.39,9.37-2.87s2.84-39.9,2.84-39.9Z" style="fill:#aa6550"></path><path d="M424.91,166.18l.17-3.82s1.65-7.92,1.43-9.38a7.64,7.64,0,0,0-.65-1.69c-1-2.12-2.91-5.13-2.91-5.13s0-1.82-.1-4.29c-.16-4.85-.52-12.21-1.32-13.18-.63-.78-2.74-1.36-3.08,3.19s-.64,9.47-.64,9.47-6.07-12.35-8-12.29-2.07.94-.32,4.63a64.79,64.79,0,0,1,3.1,8.86,3.22,3.22,0,0,0-2.75,2.73l-.49,2.53s-2.06,1.95-1.42,4.4c.09.35.26.87.47,1.5l1.81,4.92,2.43,6.59" style="fill:#aa6550"></path><path d="M418.76,160.09a1.81,1.81,0,0,1-.49-.47,5.07,5.07,0,0,1-.94-1.67,5.5,5.5,0,0,1-.2-3,5.78,5.78,0,0,1,2-3.28l.2.36a10.36,10.36,0,0,1-3.91.94,4.4,4.4,0,0,1-3.92-2.09c-.06-.1-.1-.21-.15-.31l-.09-.19.19-.1,5.89-3.34a7.62,7.62,0,0,1,1.42-.66,2.63,2.63,0,0,1,1.52,0,4.17,4.17,0,0,1,2.08,1.62,20.37,20.37,0,0,1,1.11,1.82,8.41,8.41,0,0,0,.91,1.28,6.4,6.4,0,0,0,1,.86.91.91,0,0,1-.33-.13,2.93,2.93,0,0,1-.82-.61,7.2,7.2,0,0,1-1-1.27c-.35-.52-.68-1.15-1.15-1.75a3.9,3.9,0,0,0-1.93-1.45,3.4,3.4,0,0,0-2.61.7l-5.88,3.36.11-.29c0,.09.07.18.12.27a4,4,0,0,0,3.51,1.86,10.22,10.22,0,0,0,3.76-.88l1.32-.52-1.12.88a5.39,5.39,0,0,0-1.84,5.85A7.29,7.29,0,0,0,418.76,160.09Z" style="fill:#7c3b29"></path><path d="M415.41,153s.13.13.27.4a3.85,3.85,0,0,1,.39,1.24,1.9,1.9,0,0,1-.8,1.83,1.45,1.45,0,0,1-1.27.09,3.5,3.5,0,0,1-1.05-.72,37.56,37.56,0,0,1-4.08-4.31,37.86,37.86,0,0,1,4.4,4c.56.56,1.25.93,1.78.61a1.63,1.63,0,0,0,.69-1.43,5.53,5.53,0,0,0-.23-1.21C415.42,153.15,415.38,153,415.41,153Z" style="fill:#7c3b29"></path><path d="M413.48,149.48c-.11.08-.65-.57-1.52-1.08s-1.68-.71-1.66-.85a2.37,2.37,0,0,1,1.91.45C413.17,148.58,413.59,149.43,413.48,149.48Z" style="fill:#7c3b29"></path><path d="M417.15,147c-.12.06-.71-1-1.73-2A11,11,0,0,0,414,143.9a1.41,1.41,0,0,0-.66-.2s0-.1.18-.16a.86.86,0,0,1,.63.07,5.52,5.52,0,0,1,1.56,1.13A4.24,4.24,0,0,1,417.15,147Z" style="fill:#7c3b29"></path><path d="M438.51,218.48c-.08,0,.26-1,.52-2.75a20.45,20.45,0,0,0-2.26-13c-.83-1.51-1.5-2.35-1.42-2.41s.21.17.53.54a12.78,12.78,0,0,1,1.2,1.68,18.51,18.51,0,0,1,2.32,13.22,12.74,12.74,0,0,1-.57,2C438.66,218.25,438.55,218.49,438.51,218.48Z" style="fill:#7c3b29"></path><path d="M459.48,102.53a19.34,19.34,0,0,1,19.25-17.84h1c10.81.61,16.33,10.13,15.42,20.91l-1.87,43.24h0l-24.7,9.69.08-19.32s-10.39-1.59-10.54-12C458.05,122.22,458.74,111.88,459.48,102.53Z" style="fill:#aa6550"></path><path d="M468.58,139.2a25.26,25.26,0,0,0,13.6-4s-3.19,7.48-13.55,6.56Z" style="fill:#7c3b29"></path><path d="M462.43,110.11a1.49,1.49,0,0,0,1.44,1.49,1.42,1.42,0,0,0,1.52-1.34,1.47,1.47,0,0,0-1.43-1.49A1.41,1.41,0,0,0,462.43,110.11Z" style="fill:#263238"></path><path d="M461.72,107.6c.18.2,1.31-.64,2.9-.64s2.77.8,2.94.6-.1-.43-.61-.8a4.06,4.06,0,0,0-2.36-.72,3.91,3.91,0,0,0-2.31.75C461.79,107.17,461.63,107.52,461.72,107.6Z" style="fill:#263238"></path><path d="M477,110.11a1.47,1.47,0,0,0,1.43,1.49,1.43,1.43,0,0,0,1.53-1.34,1.49,1.49,0,0,0-1.43-1.49A1.41,1.41,0,0,0,477,110.11Z" style="fill:#263238"></path><path d="M477.41,107.87c.18.19,1.3-.64,2.9-.64s2.77.8,2.94.6-.1-.44-.62-.81a4.15,4.15,0,0,0-2.35-.72,4,4,0,0,0-2.31.75C477.48,107.43,477.32,107.78,477.41,107.87Z" style="fill:#263238"></path><path d="M471.64,119.72a9.72,9.72,0,0,0-2.59-.47c-.41,0-.8-.12-.87-.4a2.16,2.16,0,0,1,.27-1.2l1.2-3.11c1.67-4.42,2.87-8.06,2.69-8.12s-1.67,3.46-3.33,7.88c-.41,1.09-.79,2.13-1.15,3.13a2.31,2.31,0,0,0-.21,1.6,1,1,0,0,0,.67.59,2.67,2.67,0,0,0,.69.1A10.75,10.75,0,0,0,471.64,119.72Z" style="fill:#263238"></path><path d="M476.34,120.81c-.26,0-.26,1.72-1.74,3s-3.33,1-3.34,1.29.41.33,1.19.35a4.3,4.3,0,0,0,2.79-1,3.81,3.81,0,0,0,1.35-2.48C476.65,121.23,476.46,120.8,476.34,120.81Z" style="fill:#263238"></path><path d="M477,101.62c.16.43,1.75.22,3.63.44s3.38.73,3.63.34c.11-.19-.15-.59-.76-1a6.33,6.33,0,0,0-5.53-.6C477.26,101.07,476.91,101.41,477,101.62Z" style="fill:#263238"></path><path d="M462.3,103c.28.36,1.38,0,2.7,0s2.44.23,2.7-.15c.11-.18-.07-.54-.56-.88a3.66,3.66,0,0,0-2.19-.59,3.77,3.77,0,0,0-2.16.73C462.33,102.43,462.17,102.81,462.3,103Z" style="fill:#263238"></path><path d="M460.47,97.76s2.72-6.51,5.85-8c3.8-1.85,5.44,2.32,9.06,1.3s6.88-2.25,10.94,0,1.87,3,2.8,7.55,3.56,17.3,5,17.41c1,.08,2.34-5.65,3.18-9.66a22.89,22.89,0,0,0-.5-11.59c-1-3.15-2.81-5.33-6-7.73-5.11-3.79-12.11-3.86-16.87-3.37S460,89.62,460.47,97.76Z" style="fill:#263238"></path><path d="M493.59,113.29c.18-.07,7.14-2.12,6.92,5s-7.29,5.42-7.3,5.22S493.59,113.29,493.59,113.29Z" style="fill:#aa6550"></path><path d="M494.84,120.86s.12.09.32.19a1.23,1.23,0,0,0,.93,0,3,3,0,0,0,1.49-2.7,3.93,3.93,0,0,0-.29-1.78,1.42,1.42,0,0,0-.9-1,.63.63,0,0,0-.74.32c-.1.19-.06.33-.1.35s-.15-.13-.08-.42a.8.8,0,0,1,.29-.44,1,1,0,0,1,.69-.16,1.77,1.77,0,0,1,1.26,1.14,4.31,4.31,0,0,1,.37,2c-.09,1.42-.86,2.74-1.9,3a1.35,1.35,0,0,1-1.12-.22C494.84,121,494.81,120.87,494.84,120.86Z" style="fill:#7c3b29"></path><path d="M465.84,88.08a3.48,3.48,0,0,1-2.25-1.18,2.32,2.32,0,0,1-.33-2.43,1.77,1.77,0,0,1,2.18-.88,4.53,4.53,0,0,1-1.25-4,3.62,3.62,0,0,1,2.9-2.83A3,3,0,0,1,470.38,79a5,5,0,0,1,9.55-.19A13.92,13.92,0,0,1,483.4,78a4.56,4.56,0,0,1,3.33,1,2.78,2.78,0,0,1,.71,3.24,5.22,5.22,0,0,1,3-.33,3.28,3.28,0,0,1,2.32,1.76,2.42,2.42,0,0,1-.53,2.78,2.23,2.23,0,0,1,1.56,4.13,4.73,4.73,0,0,1-3.39-.09,67.32,67.32,0,0,0-22.47-2.26" style="fill:#263238"></path><path d="M550,212.41c-3.52-8.35-7.9-16.44-9.86-25.29C539.38,183.65,539,180,537,177a11.87,11.87,0,0,0-13.78-4.55l-2.7.77a354.52,354.52,0,0,0-.33,84.64,5.18,5.18,0,0,0,.88,2.73,4.67,4.67,0,0,0,3.35,1.29,28.26,28.26,0,0,0,30.14-23C556.24,229.91,553.53,220.77,550,212.41Z" style="fill:#263238"></path><rect x="531.77" y="213.2" width="12.87" height="7.74" style="fill:#ebebeb"></rect><path d="M545.07,211.58c-.18-1.38-5.54-3-5.54-3v-2.22H536.4v2.22s-4.34,1.93-4.9,2.67.28,3.6.28,3.6h13.29A17.35,17.35,0,0,0,545.07,211.58Z" style="fill:#455a64"></path><path d="M544.71,218.62c0,.2-2.9.36-6.48.36s-6.48-.16-6.48-.36,2.9-.35,6.48-.35S544.71,218.42,544.71,218.62Z" style="fill:#e0e0e0"></path><path d="M544.91,211.53c0,.19-3,.64-6.81.66s-6.83-.39-6.81-.58,3.06-.11,6.81-.13S544.89,211.33,544.91,211.53Z" style="fill:#263238"></path><path d="M539.56,208.48c.16.12-.44.89-1.55.94s-1.76-.69-1.62-.82.78.15,1.59.11S539.44,208.33,539.56,208.48Z" style="fill:#263238"></path><path d="M529.94,220.94a.94.94,0,0,1,.29,0l.88,0,3.42,0,12.47-.12h.21v.21c.13,3.13.07,6.59,0,10.29,0,1.85-.06,3.75-.05,5.7,0,1,0,2,.05,3A10.46,10.46,0,0,1,547,243a4.55,4.55,0,0,1-2.76,3,8.62,8.62,0,0,1-3.93.52,34.39,34.39,0,0,1-3.74-.49,6.68,6.68,0,0,1-3.35-1.52,5.39,5.39,0,0,1-1.46-3.18c-.18-1.11-.24-2.18-.35-3.23-.2-2.08-.38-4-.55-5.8-.3-3.48-.56-6.31-.74-8.34-.07-.93-.14-1.68-.18-2.24a6.23,6.23,0,0,1,0-.75s0,.29.12.82.16,1.33.27,2.29c.23,2,.54,4.84.93,8.31.19,1.74.4,3.65.62,5.7.12,1,.19,2.09.37,3.17a4.92,4.92,0,0,0,1.34,2.9,6.24,6.24,0,0,0,3.12,1.39,35.71,35.71,0,0,0,3.67.46,8,8,0,0,0,3.69-.49,4.05,4.05,0,0,0,2.47-2.65,9.92,9.92,0,0,0,.17-2.94c0-1,0-2,0-3,0-2,0-3.87.06-5.72.07-3.69.15-7.15,0-10.27l.22.21L534.68,221,531.2,221l-.93,0Z" style="fill:#455a64"></path><path d="M429,435.14l.62,23.28s-25.11,9.3-24.89,14.68l46.59-.44-1.77-14,2.18-23.33Z" style="fill:#FFC100"></path><path d="M443.73,457.18a1.91,1.91,0,0,1,1.35,2.18,1.84,1.84,0,0,1-2.15,1.36,2,2,0,0,1-1.41-2.32,1.91,1.91,0,0,1,2.39-1.16" style="fill:#fff"></path><path d="M451.38,473.1l-.54-4.22-44.72,1.64a3.84,3.84,0,0,0-1.39,2.58Z" style="fill:#263238"></path><path d="M428.44,459.13c0,.23,1.16.32,2.3,1.05s1.75,1.69,2,1.59-.14-1.41-1.54-2.27S428.39,458.92,428.44,459.13Z" style="fill:#263238"></path><path d="M423.53,461.21c0,.23,1,.61,1.74,1.57s1,2,1.25,2,.36-1.31-.64-2.49S423.53,461,423.53,461.21Z" style="fill:#263238"></path><path d="M420.78,467.14c.21.05.52-1.1-.08-2.35s-1.68-1.74-1.78-1.55.58.86,1.06,1.89S420.56,467.12,420.78,467.14Z" style="fill:#263238"></path><path d="M428.81,453.58c.1.21,1.15-.12,2.44,0s2.32.47,2.44.28-.87-1-2.4-1.08S428.69,453.4,428.81,453.58Z" style="fill:#263238"></path><path d="M510,431.27l5.8,22.5s-22.35,14.66-20.93,19.85l45.22-10.84-4.85-13.2-3.09-23.18Z" style="fill:#FFC100"></path><path d="M529.21,449.42a1.92,1.92,0,0,1,1.8,1.82,1.84,1.84,0,0,1-1.79,1.8,2,2,0,0,1-1.89-1.94,1.9,1.9,0,0,1,2.06-1.66" style="fill:#fff"></path><path d="M540.2,463.19l-1.46-4L495.6,470.8a3.81,3.81,0,0,0-.77,2.82Z" style="fill:#263238"></path><path d="M514.77,454.73c.07.22,1.2,0,2.47.5s2.08,1.26,2.26,1.12-.45-1.35-2-1.87S514.68,454.53,514.77,454.73Z" style="fill:#263238"></path><path d="M510.46,457.85c0,.23,1.06.38,2,1.14s1.44,1.71,1.66,1.64.06-1.35-1.18-2.28S510.41,457.64,510.46,457.85Z" style="fill:#263238"></path><path d="M509.11,464.23c.22,0,.26-1.18-.6-2.27s-2-1.32-2.08-1.11.76.71,1.45,1.61S508.89,464.27,509.11,464.23Z" style="fill:#263238"></path><path d="M513.89,449.25c.14.18,1.09-.37,2.37-.59s2.36-.05,2.43-.27-1.07-.79-2.57-.51S513.74,449.1,513.89,449.25Z" style="fill:#263238"></path><path d="M525.22,371.47c-5-12.45-3.51-29.48-3.78-32.52s-3.14-43.83-3.14-43.83L515.63,272l-77,2L429,364.19,426.68,446l25.05,1.82s8-57.31,8-72.9V361.79l12.46-51.11s17.92,51,21.06,58.65a145.45,145.45,0,0,1,5.4,15.38C501,391.9,512.35,446,512.35,446l24.28-3.73S530.2,383.91,525.22,371.47Z" style="fill:#263238"></path><path d="M510.22,378.05a11.26,11.26,0,0,1-2.79-.51,32.54,32.54,0,0,1-12.1-6.24,11.22,11.22,0,0,1-2-2,22.63,22.63,0,0,1,2.27,1.68,41.33,41.33,0,0,0,5.73,3.59,41.8,41.8,0,0,0,6.25,2.58A26.71,26.71,0,0,1,510.22,378.05Z" style="fill:#455a64"></path><path d="M444,360.37a23.57,23.57,0,0,1-5.25,2.81,23.25,23.25,0,0,1-5.63,1.9c-.05-.14,2.43-1.07,5.43-2.37S444,360.24,444,360.37Z" style="fill:#455a64"></path><path d="M459,147.1s-14.26,5.89-17.67,18.41c-2.25,8.3-5.47,25.59-5.47,25.59h8.24l-2.24,40.52c-.62,3.39-1.07,11.35-1.26,14.79l-2.24,30.22s8.52,6.93,22.87,6.93,59.62-13.07,59.62-13.07l1.6-81.94s5.42-30-8-37-21-8.16-21-8.16-11.34,9.15-18.14,8.39c-7.48-.83-6.5-8.39-6.5-8.39Z" style="fill:#FFC100"></path><g style="opacity:0.30000000000000004"><path d="M513.17,234.47c-1.31-5-6.42-7.88-10.76-10.75-11.53-7.61-19.62-21-24-34.13-1.18,11.48,3.44,21,9.67,30.32,2.4,3.57,5.2,6.94,6.8,10.93,1.79,4.44,1.95,9.35,2.1,14.13q.26,8.55.52,17.08c0,1.33.2,2.87,1.32,3.58,1.62,1,3.63-.54,4.77-2.09,4.16-5.63,6.32-12.45,8.42-19.13C513,241.18,514,237.74,513.17,234.47Z"></path></g><path d="M446.31,166.91a5.58,5.58,0,0,1-.08,1.22c-.1.89-.22,2-.37,3.31-.32,2.78-.76,6.64-1.17,10.9s-.72,8.13-.93,10.92c-.11,1.32-.19,2.43-.27,3.32a4.68,4.68,0,0,1-.16,1.21,6.91,6.91,0,0,1,0-1.22c0-.79,0-1.92.1-3.33.12-2.81.37-6.68.78-11s.91-8.12,1.32-10.9c.21-1.39.4-2.51.54-3.29A5.59,5.59,0,0,1,446.31,166.91Z" style="fill:#263238"></path><path d="M466.34,250.67s0-.06,0-.17l.13-.48.56-1.88c.52-1.67,1.26-4.07,2.19-7.1,1.93-6.14,4.66-14.84,7.92-25.26l.3.28a71.58,71.58,0,0,0-19.08,11.71l-.77.66.36-.94,5.12-13.32c2.94-7.64,5.77-15,8.41-21.84l.28.32a45.56,45.56,0,0,0-16.6,7.64l-.57.42.25-.67a152.86,152.86,0,0,1,9.47-20.82c1.33-2.4,2.43-4.25,3.19-5.49l.89-1.41c.21-.32.33-.48.33-.48s-.09.18-.27.51l-.84,1.44c-.72,1.27-1.79,3.13-3.08,5.55a159.09,159.09,0,0,0-9.29,20.85l-.33-.25a45.69,45.69,0,0,1,16.74-7.77l.46-.1-.17.43c-2.63,6.85-5.45,14.21-8.39,21.86-1.75,4.56-3.47,9-5.12,13.31l-.4-.28a71.07,71.07,0,0,1,19.24-11.75l.45-.18-.15.46-8.1,25.19c-1,3-1.76,5.41-2.31,7.07-.26.79-.47,1.41-.62,1.86l-.17.47C466.37,250.62,466.35,250.67,466.34,250.67Z" style="fill:#fff"></path><g style="opacity:0.30000000000000004"><path d="M505,202.91c-1.48-.12-3.17-.21-4.53-.28s-2.35-.2-3.63-.3a15,15,0,0,0,3.22,1.85,6.51,6.51,0,0,0,4.2.11,1.07,1.07,0,0,0,.71-.71C505,203.27,505.25,202.93,505,202.91Z"></path></g><polygon points="462.1 145.94 463.91 202.33 495.35 143.79 497.62 144.33 464.64 207.86 460.45 207.86 459.01 147.1 462.1 145.94" style="fill:#455a64"></polygon><path d="M505.52,220.4a84.71,84.71,0,0,1-11.75-22.27,57.22,57.22,0,0,1-1.31-33.45A31.7,31.7,0,0,1,505,147.07a52.24,52.24,0,0,0-7.41-2.74c-7.95,2.64-13.55,10.82-16.14,18.79-4.08,12.54-4.56,26.36-.52,38.91s13.79,23.33,25.4,29.59C506.39,228.27,505.52,220.4,505.52,220.4Z" style="fill:#263238"></path><path d="M446.21,211.63c0,.24-1,17.51-.51,18s4.59.66,6,0l.69-.81,25.66.69.3-18.62-8.07.08-1.46-2.22a2,2,0,0,0-1.73-.9l-9.49.24-1,3.49-2.55-.05.18-2S446.47,207.35,446.21,211.63Z" style="fill:#263238"></path><path d="M452.88,228.7a15.48,15.48,0,0,1-.12-2.81c0-1.73.07-4.12.24-6.76s.41-5,.63-6.74a13.87,13.87,0,0,1,.48-2.76,17.21,17.21,0,0,1-.13,2.8c-.13,1.89-.3,4.19-.48,6.73s-.27,4.85-.38,6.74A15.1,15.1,0,0,1,452.88,228.7Z" style="fill:#455a64"></path><path d="M470.85,222.16c-.06,0,.14-.68.12-1.9a7.73,7.73,0,0,0-1.73-4.72,7.5,7.5,0,0,0-2.76-2.13,7.6,7.6,0,0,0-3.92-.63,7.52,7.52,0,0,0-4,1.7,7.48,7.48,0,0,0-2.17,8.61,7.56,7.56,0,0,0,9.93,4.13,7.72,7.72,0,0,0,3.76-3.33c.59-1.07.73-1.75.79-1.73a2.45,2.45,0,0,1-.1.48,5.7,5.7,0,0,1-.52,1.34,7.84,7.84,0,0,1-7.39,4.23,8,8,0,0,1-4-1.33,7.9,7.9,0,0,1-2.94-3.6,8,8,0,0,1-.36-5,8.09,8.09,0,0,1,2.67-4.21,7.91,7.91,0,0,1,11.3,1.22,7.7,7.7,0,0,1,1.65,4.94,5.72,5.72,0,0,1-.18,1.42A2.83,2.83,0,0,1,470.85,222.16Z" style="fill:#455a64"></path><circle cx="463.32" cy="220.25" r="5.18" transform="translate(38.11 507.25) rotate(-59.44)" style="fill:#455a64"></circle><rect x="459.41" y="208.61" width="5.23" height="2.38" transform="translate(-7.3 16.89) rotate(-2.08)" style="fill:#455a64"></rect><path d="M491.44,178.54s5.78,2.89,5.34,6.89,0,16.9,0,16.9a227.84,227.84,0,0,0,31.68,0c-.11-1.33-1.84-46.61-13.48-50.17C503,148.49,491.44,178.54,491.44,178.54Z" style="fill:#FFC100"></path><path d="M504.16,202.82,506.75,232l-15.81,55.11,11.92,4.09s24-44.78,24.34-53.63-.05-35.19-.05-35.19Z" style="fill:#aa6550"></path><path d="M528.48,202.33a2.75,2.75,0,0,1-.52.07l-1.5.12c-1.31.09-3.19.21-5.53.32-4.66.22-11.12.49-18.26.18-2-.1-4-.25-5.9-.44l-.22,0v-.22c-.16-5.67-.3-10.62-.4-14.25,0-1.71,0-3.12-.07-4.16a10.4,10.4,0,0,1,0-1.51,9.65,9.65,0,0,1,.14,1.5c.05,1.05.13,2.45.22,4.16.14,3.63.34,8.58.57,14.24l-.22-.25c1.86.19,3.83.33,5.86.42,7.11.32,13.56.11,18.23,0l5.53-.16,1.5,0A1.8,1.8,0,0,1,528.48,202.33Z" style="fill:#263238"></path><path d="M506.84,151.52c.06.08-1.33,1-3.24,2.88a31,31,0,0,0-3.08,3.51,31.05,31.05,0,0,0-5.06,10.19,30.49,30.49,0,0,0-.93,4.58c-.33,2.65-.23,4.32-.34,4.32a5.78,5.78,0,0,1-.11-1.17,9.94,9.94,0,0,1,0-1.37,17.75,17.75,0,0,1,.1-1.82A28.07,28.07,0,0,1,495,168a29,29,0,0,1,5.14-10.36,26.79,26.79,0,0,1,3.21-3.49c.48-.47,1-.84,1.38-1.18a10.67,10.67,0,0,1,1.11-.82A4.94,4.94,0,0,1,506.84,151.52Z" style="fill:#263238"></path><path d="M493.66,297.69c-.86-.14-35,1.73-35,1.73v18.49l2-.83,1.19,1.2L496,307.72l27.58,4.89-1.48-17.71Z" style="fill:#f5f5f5"></path><path d="M523.41,311.08A2,2,0,0,1,523,311l-1.32-.21L516.7,310l-16.89-3.12h.1l-8.19,1.6L483.81,310h0c-6.72,1.9-12.52,3.66-16.64,5-2.05.66-3.68,1.21-4.8,1.59l-1.29.43a1.33,1.33,0,0,1-.45.12,2.15,2.15,0,0,1,.42-.2l1.26-.52c1.1-.42,2.72-1,4.76-1.72,4.09-1.4,9.88-3.22,16.6-5.16h0l7.91-1.55,8.19-1.59h.1l16.85,3.31,4.9,1,1.31.3C523.26,311,523.42,311.06,523.41,311.08Z" style="fill:#263238"></path><path d="M478.89,300.08c.49-.41.51-1.51-.09-1.73l-17.83.94a2.48,2.48,0,0,0,0,2.67,7.93,7.93,0,0,0,1.87,1.52,3.09,3.09,0,0,1,1.41,1.89c.14.95-.48,1.84-.61,2.79a3,3,0,0,0,3.36,3.12c2.24-.48,3.4-3.51,5.69-3.59,1.47-.06,3.08,1.16,4.27.28,1-.72.71-2.25.28-3.4s-.85-2.6,0-3.48C477.73,300.63,478.4,300.48,478.89,300.08Z" style="fill:#e0e0e0"></path><path d="M505.43,296.48a25.93,25.93,0,0,0,.85,4.89,8.4,8.4,0,0,0,2.62,4.13c1.65,1.33,3.83,1.73,5.92,2.1,2.8.49,5.61,1,8.44,1.23l-1.2-13.93Z" style="fill:#e0e0e0"></path><path d="M491.05,286.72l-7.73,8.55-2.5,10.66s1.54,2.07,3.23-.54c0,0-.37,8.79.48,9.27s3.61.12,3.79-2.05a3.59,3.59,0,0,0,2.71,1.57c1.68,0,2.29-1,2.53-3,0,0,1.56,1.92,2.89,1.2A3.54,3.54,0,0,0,498,310s2.41.72,3-.48a21.67,21.67,0,0,0,1.45-6.26v-7.35l.39-4.66Z" style="fill:#aa6550"></path><path d="M488.43,306a10.4,10.4,0,0,1,.21,3.31,10.29,10.29,0,0,1-.32,3.29,21.49,21.49,0,0,1,.11-6.6Z" style="fill:#7c3b29"></path><path d="M493.7,305.78a13.64,13.64,0,0,1,0,5.3,7.13,7.13,0,0,1-.24-2.65A6.8,6.8,0,0,1,493.7,305.78Z" style="fill:#7c3b29"></path><path d="M498.11,305.47a6.76,6.76,0,0,1,0,2.26A9.59,9.59,0,0,1,498,310a3.54,3.54,0,0,1-.43-2.26A4.16,4.16,0,0,1,498.11,305.47Z" style="fill:#7c3b29"></path><path d="M483.92,299.42a12.28,12.28,0,0,1,.28,3.25,13,13,0,0,1-.07,3.26,9,9,0,0,1-.46-3.24A9.2,9.2,0,0,1,483.92,299.42Z" style="fill:#7c3b29"></path></g><g id="freepik--character-1--inject-1007"><path d="M141,291l13,68.91s-6.67,25.93-6,47.83c.49,16.64,3.24,45.82,3.24,45.82l18.54-1s12.75-82.74,13.87-91.22c2.64-20,1.18-76.64,1.18-76.64Z" style="fill:#eb996e"></path><path d="M173.41,433l-2,24.65s26.62,9.76,26.41,15.46l-49.34-.3L150.33,458,149,433Z" style="fill:#FFC100"></path><path d="M156.48,456.38a2,2,0,0,0-1.42,2.32,2,2,0,0,0,2.28,1.43,2.15,2.15,0,0,0,1.49-2.46,2,2,0,0,0-2.53-1.22" style="fill:#263238"></path><path d="M148.5,472.8l.5-4,47.36,1.57a4.07,4.07,0,0,1,1.48,2.73Z" style="fill:#263238"></path><path d="M172.68,458.39c0,.24-1.23.34-2.43,1.12s-1.84,1.79-2.07,1.69.15-1.5,1.62-2.41S172.73,458.17,172.68,458.39Z" style="fill:#263238"></path><path d="M177.89,460.58c.05.24-1,.64-1.83,1.67s-1.08,2.11-1.32,2.09-.39-1.38.67-2.64S177.89,460.35,177.89,460.58Z" style="fill:#263238"></path><path d="M180.82,466.85c-.22,0-.55-1.17.08-2.49s1.77-1.86,1.87-1.65-.6.91-1.11,2S181.06,466.83,180.82,466.85Z" style="fill:#263238"></path><path d="M172.28,452.52c-.11.22-1.22-.13-2.6,0s-2.45.51-2.57.3.91-1.07,2.53-1.15S172.4,452.33,172.28,452.52Z" style="fill:#263238"></path><path d="M172.4,447.34a4.76,4.76,0,0,1-2.5,0,11.12,11.12,0,0,1-2.6-.82,11.81,11.81,0,0,1-1.43-.77,3.11,3.11,0,0,1-.75-.59,1,1,0,0,1-.1-1.29,1.31,1.31,0,0,1,1.07-.55,3.21,3.21,0,0,1,.93.13,10.09,10.09,0,0,1,1.55.54,8.85,8.85,0,0,1,2.29,1.53c1.15,1.08,1.54,2,1.45,2s-.66-.68-1.83-1.57a10.22,10.22,0,0,0-2.22-1.27,9.17,9.17,0,0,0-1.43-.45c-.53-.14-1-.15-1.11.09-.05.08-.06.12.05.27a2.4,2.4,0,0,0,.55.44,13.77,13.77,0,0,0,1.31.76,15.15,15.15,0,0,0,2.41.94A17,17,0,0,1,172.4,447.34Z" style="fill:#263238"></path><path d="M172.08,447.68c-.09,0-.56-.83-.64-2.41a7.91,7.91,0,0,1,1-4.24,2,2,0,0,1,1.6-1.25,1.16,1.16,0,0,1,1,.7,3,3,0,0,1,.25.92,5.25,5.25,0,0,1,0,1.68,5.67,5.67,0,0,1-1.08,2.57c-1,1.28-2,1.57-2,1.49s.77-.59,1.52-1.83a5.73,5.73,0,0,0,.8-2.33,5.06,5.06,0,0,0,0-1.45c-.07-.53-.27-.95-.46-.9s-.68.39-.88.81a8.18,8.18,0,0,0-.63,1.35,8.93,8.93,0,0,0-.5,2.48C172,446.74,172.21,447.65,172.08,447.68Z" style="fill:#263238"></path><g style="opacity:0.30000000000000004"><path d="M173.41,433l-2,24.65s26.62,9.76,26.41,15.46l-49.34-.3L150.33,458,149,433Z"></path></g><path d="M145.43,291l13,68.91s-6.67,25.93-6,47.83c.49,16.64,3.24,45.82,3.24,45.82l18.54-1s12.75-82.74,13.87-91.22c2.64-20,1.18-76.64,1.18-76.64Z" style="fill:#ffbe9d"></path><path d="M143.05,181.87a5.5,5.5,0,0,1,1.29,3.21.54.54,0,0,1-.16.5c-.43.25-.79-.78-1.23-.57l.12,2.9a1,1,0,0,1-.15.71.68.68,0,0,1-.91,0,2,2,0,0,1-.49-.88l-.68,1.95c-.05.16-.13.35-.3.39s-.35-.09-.48-.23a7,7,0,0,1-1.1-7.61" style="fill:#263238"></path><path d="M170,181.69a3.93,3.93,0,0,1-1.7,3.28,9.8,9.8,0,0,0-1.15.74,4.54,4.54,0,0,0-1.12,3.1,3.58,3.58,0,0,1-.86-2.62,7.21,7.21,0,0,0-.9,2.23,6.22,6.22,0,0,1,1.57-8.94" style="fill:#263238"></path><path d="M170.5,178.28a2.53,2.53,0,0,1,.33,3.34,3.38,3.38,0,0,1-2.86.66,3.66,3.66,0,0,1-2.74-2.09,2.44,2.44,0,0,1,1.11-3.06,3.27,3.27,0,0,1,2.38.09,4.36,4.36,0,0,1,1.78,1.06,2.39,2.39,0,0,1,.7,1.91" style="fill:#455a64"></path><path d="M141.26,178.52a2.53,2.53,0,0,1,2.31,2.42,3.32,3.32,0,0,1-1.84,2.28,3.62,3.62,0,0,1-3.44.06,2.45,2.45,0,0,1-1-3.1,3.24,3.24,0,0,1,1.92-1.4,4.58,4.58,0,0,1,2.07-.26,2.38,2.38,0,0,1,1.72,1.07" style="fill:#455a64"></path><path d="M173.29,116c1.59.78,2.32,2.68,2.46,4.44s-.19,3.55,0,5.31c.21,2.3,1.17,4.91-.27,6.72a11,11,0,0,1-.54,11.1,7.46,7.46,0,0,1-.47,9.89,7.8,7.8,0,0,1,1.3,5.33c-.12,1.87-.55,3.71-.59,5.58a25.46,25.46,0,0,1-.11,5.17c-.39,1.69-1.75,3.35-3.48,3.28.41,1.83.81,3.79.11,5.53s-3,2.94-4.52,1.85c-1.27-.92-1.3-2.76-1.2-4.32s2.21-4,1.47-5.39c-1.5-2.93-.54-7,2.15-9.36a8,8,0,0,1,.28-6,4.4,4.4,0,0,0,.63-1.82,4.32,4.32,0,0,0-1.27-2.33,8.46,8.46,0,0,1-1.14-8,8.48,8.48,0,0,0,1-3.27,10.27,10.27,0,0,0-.85-2.71,6.4,6.4,0,0,1,1.55-6.45,7.43,7.43,0,0,1,.19-9.31,5.14,5.14,0,0,1-1-7.41" style="fill:#263238"></path><path d="M168.47,166.75a11.51,11.51,0,0,1,5.77-5.6,3.56,3.56,0,0,0-1.15.4,8.89,8.89,0,0,0-2.43,1.68,9.36,9.36,0,0,0-1.76,2.38A3.56,3.56,0,0,0,168.47,166.75Z" style="fill:#455a64"></path><path d="M170.63,160.7c0,.06.33.43.61,1s.36,1.08.44,1.07a1.52,1.52,0,0,0-.2-1.2C171.17,160.94,170.67,160.64,170.63,160.7Z" style="fill:#455a64"></path><path d="M170.77,157a11.35,11.35,0,0,1,1.23-2.6,11.65,11.65,0,0,1,2-2,4.71,4.71,0,0,0-2.25,1.88A4.77,4.77,0,0,0,170.77,157Z" style="fill:#455a64"></path><path d="M169.44,145.83a12.46,12.46,0,0,1,1.74-1.84,13.63,13.63,0,0,1,2.21-1.24,5.13,5.13,0,0,0-3.95,3.08Z" style="fill:#455a64"></path><path d="M169.59,140.45c0,.07.6.53,1.22,1.27s1,1.45,1,1.41a3.22,3.22,0,0,0-.83-1.59A3.07,3.07,0,0,0,169.59,140.45Z" style="fill:#455a64"></path><path d="M170.34,133.89a9.87,9.87,0,0,1,1.78-2.53,10,10,0,0,1,2.62-1.63,2.21,2.21,0,0,0-.91.22,6,6,0,0,0-3.22,3.05A2.14,2.14,0,0,0,170.34,133.89Z" style="fill:#455a64"></path><path d="M170.8,128.26a2.6,2.6,0,0,0,.73,1.31,2.72,2.72,0,0,0,1.18.93c0-.06-.45-.5-1-1.11S170.87,128.22,170.8,128.26Z" style="fill:#455a64"></path><path d="M170.55,122.8a11.86,11.86,0,0,1,1.73-1.8,10.86,10.86,0,0,1,2.24-1.11,4,4,0,0,0-2.4.89A3.91,3.91,0,0,0,170.55,122.8Z" style="fill:#455a64"></path><path d="M167.43,174a2.51,2.51,0,0,0,1.12.07,5.34,5.34,0,0,0,2.53-1,5.29,5.29,0,0,0,1.71-2.1,2.48,2.48,0,0,0,.29-1.08s-.15.4-.47,1a5.69,5.69,0,0,1-1.69,2,5.81,5.81,0,0,1-2.4,1C167.86,173.93,167.43,173.91,167.43,174Z" style="fill:#455a64"></path><path d="M136.1,119.62a6.78,6.78,0,0,0-3.25,5,15.34,15.34,0,0,0,.53,6.09,10.62,10.62,0,0,0-2.4,12.07,9.3,9.3,0,0,0,1.23,10.68,8.26,8.26,0,0,0-1.38,6c.18,1.19.81,2.49,2,2.73a14.61,14.61,0,0,0-1.08,4.8,5,5,0,0,0,2.07,4.26,2.4,2.4,0,0,1,1,.77,1.89,1.89,0,0,1,.15.95,13.83,13.83,0,0,0,.76,5.39,5.92,5.92,0,0,0,3.81,3.64,2.71,2.71,0,0,0,2.49-.43,3.23,3.23,0,0,0,.84-2.29,10.56,10.56,0,0,0-2.1-6.85,2.57,2.57,0,0,1-.56-1,2.86,2.86,0,0,1,.4-1.66,7.13,7.13,0,0,0-1.41-7.61,1.27,1.27,0,0,1-.49-.79,1.41,1.41,0,0,1,.31-.72,5.54,5.54,0,0,0-1.18-7.17c-.34-.26-.73-.53-.79-.95a1.6,1.6,0,0,1,.24-.86c1.39-2.9.76-6.42-.71-9.27a2.38,2.38,0,0,1-.33-.91,2.46,2.46,0,0,1,.47-1.25,7.87,7.87,0,0,0,.71-5.73,10.67,10.67,0,0,1-.44-1.75c-.06-.63,1.38-1.48,1.52-2.1.44-2-.34-3.85-.36-5.93a7.38,7.38,0,0,0-2.27-5.61" style="fill:#263238"></path><path d="M131.17,149s.11-.52.34-1.35a11.16,11.16,0,0,1,1.35-3,11.35,11.35,0,0,1,2.18-2.51c.66-.56,1.11-.85,1.09-.89a4.77,4.77,0,0,0-1.21.73,10,10,0,0,0-3.6,5.66A4.1,4.1,0,0,0,131.17,149Z" style="fill:#455a64"></path><path d="M130.65,140.77a3.23,3.23,0,0,0,1,1.68,3.18,3.18,0,0,0,1.71,1c0-.07-.76-.45-1.52-1.2S130.72,140.73,130.65,140.77Z" style="fill:#455a64"></path><path d="M131.8,136.63s.1-.4.33-1a5.43,5.43,0,0,1,1.43-2,5.19,5.19,0,0,1,2.22-1.11c.63-.15,1-.15,1-.19a2.28,2.28,0,0,0-1.08,0,4.84,4.84,0,0,0-2.36,1.1,4.76,4.76,0,0,0-1.43,2.18A2.24,2.24,0,0,0,131.8,136.63Z" style="fill:#455a64"></path><path d="M133.58,131c-.06,0,.07.39.3.79s.46.68.53.65-.07-.39-.29-.79S133.65,130.94,133.58,131Z" style="fill:#455a64"></path><path d="M133.61,159.9a11.38,11.38,0,0,1,3-7.28,3.61,3.61,0,0,0-.89.81,8.85,8.85,0,0,0-2.19,5.27A3.58,3.58,0,0,0,133.61,159.9Z" style="fill:#455a64"></path><path d="M133.06,153.8a1.78,1.78,0,0,0,.23,1.42c.38.74,1,1.06,1,1s-.45-.45-.8-1.12S133.15,153.8,133.06,153.8Z" style="fill:#455a64"></path><path d="M133.83,165.89a2.79,2.79,0,0,0,1-.39,7.67,7.67,0,0,0,2-1.58,7.87,7.87,0,0,0,1.38-2.17,2.83,2.83,0,0,0,.29-1,12.84,12.84,0,0,1-1.88,3A12.64,12.64,0,0,1,133.83,165.89Z" style="fill:#455a64"></path><path d="M135.31,164.87a2.56,2.56,0,0,0,.67,1.66,2.59,2.59,0,0,0,1.44,1.05c.05-.08-.65-.47-1.23-1.22S135.39,164.85,135.31,164.87Z" style="fill:#455a64"></path><path d="M136.38,175.94a10.67,10.67,0,0,1,3.28-6.66,3.39,3.39,0,0,0-.9.7,8.08,8.08,0,0,0-1.59,2.21,8.23,8.23,0,0,0-.79,2.62A2.82,2.82,0,0,0,136.38,175.94Z" style="fill:#455a64"></path><path d="M137.12,173.08a8.43,8.43,0,0,1,1.19.61c.6.43.84,1,.92,1a2,2,0,0,0-2.11-1.58Z" style="fill:#455a64"></path><path d="M140.66,142.5a72.27,72.27,0,0,1-3.51-12,25.38,25.38,0,0,1,.62-12.37c.21-.6,2-4.63,2.6-4.59.45,0-.6,3.78-.36,4.16a21.47,21.47,0,0,1,2.79,12.44,56.45,56.45,0,0,1-2.14,12.36" style="fill:#263238"></path><path d="M153,177.29a11.9,11.9,0,0,1-12-11.54l-1.17-38.92c-.65-10.45,4.89-19.53,15.35-19.89l1,0a18.72,18.72,0,0,1,18.23,17.65c.51,9.06,1,19.07.78,23.92-.36,10-10.44,11.35-10.44,11.35s0,2.33.06,5.28A11.9,11.9,0,0,1,153,177.29Z" style="fill:#ffbe9d"></path><path d="M164.67,160a24.35,24.35,0,0,1-13-4.18s3,7.37,13.05,6.71Z" style="fill:#eb996e"></path><path d="M171.74,132.53a1.42,1.42,0,0,1-1.41,1.41,1.38,1.38,0,0,1-1.45-1.33,1.42,1.42,0,0,1,1.41-1.41A1.37,1.37,0,0,1,171.74,132.53Z" style="fill:#263238"></path><path d="M172.09,129.74c-.18.18-1.25-.65-2.79-.68s-2.69.71-2.85.52.1-.42.61-.77a4,4,0,0,1,2.29-.64,3.78,3.78,0,0,1,2.21.77C172,129.32,172.18,129.66,172.09,129.74Z" style="fill:#263238"></path><path d="M157.29,132.53a1.43,1.43,0,0,1-1.42,1.41,1.38,1.38,0,0,1-1.45-1.33,1.43,1.43,0,0,1,1.42-1.41A1.37,1.37,0,0,1,157.29,132.53Z" style="fill:#263238"></path><path d="M162.2,140.75a10.42,10.42,0,0,1,2.52-.4c.39,0,.77-.1.84-.36a2,2,0,0,0-.23-1.18c-.35-1-.71-2-1.1-3-1.51-4.31-2.6-7.85-2.42-7.91s1.54,3.39,3.06,7.7l1,3a2.33,2.33,0,0,1,.17,1.56,1,1,0,0,1-.67.56,2.35,2.35,0,0,1-.67.07A10.66,10.66,0,0,1,162.2,140.75Z" style="fill:#263238"></path><path d="M156.13,124.64c-.12.43-1.56.31-3.22.63s-3,.88-3.24.52c-.11-.17.1-.58.63-1a5.28,5.28,0,0,1,2.36-1,5.2,5.2,0,0,1,2.56.18C155.85,124.13,156.18,124.44,156.13,124.64Z" style="fill:#263238"></path><path d="M172,124.72c-.29.37-1.52.09-3,.18s-2.66.41-3,.07c-.14-.17,0-.54.55-.9a4.46,4.46,0,0,1,2.37-.74,4.51,4.51,0,0,1,2.41.54C172,124.2,172.15,124.54,172,124.72Z" style="fill:#263238"></path><path d="M140.42,134.05c-.17-.07-6.85-2.2-6.8,4.67s6.94,5.39,6.95,5.2S140.42,134.05,140.42,134.05Z" style="fill:#ffbe9d"></path><path d="M138.45,141.33s-.12.09-.32.18a1.2,1.2,0,0,1-.89,0,3,3,0,0,1-1.39-2.65,3.86,3.86,0,0,1,.32-1.72,1.38,1.38,0,0,1,.89-.92.61.61,0,0,1,.71.32c.09.19,0,.33.09.34s.14-.11.09-.4a.82.82,0,0,0-.28-.43.9.9,0,0,0-.66-.17,1.69,1.69,0,0,0-1.24,1.08,4,4,0,0,0-.4,1.92,3.09,3.09,0,0,0,1.77,3,1.3,1.3,0,0,0,1.09-.19C138.44,141.5,138.48,141.34,138.45,141.33Z" style="fill:#eb996e"></path><path d="M169.92,113.22c1.1-.63-2.52-4.32-5.27-5.51-4.16-1.81-10.49-2.85-14.27-1.71-4.57,1.37-8.34,3.72-10.57,7.93a27,27,0,0,0-2.8,13.84,8.21,8.21,0,0,0,1,4.18c1,1.49,2.8,2.41,2.8,4.46a3,3,0,0,0,.65,2c1.29,1.49,2.87.18,3.57-1.13,1.46-2.7,1.58-5.91,1.66-9a29.4,29.4,0,0,0-.45-7.33,7.52,7.52,0,0,1-.28-2.32,6.65,6.65,0,0,1,1.08-3.61,4.44,4.44,0,0,1,.62-.63,6.15,6.15,0,0,1,6-1.14c3.91,1.3,7.08,3.44,11.55,1.52a5.6,5.6,0,0,0,1.92-1.73,2,2,0,0,1,2.71.05Z" style="fill:#263238"></path><path d="M159.85,143.87a1.9,1.9,0,0,1,1.45-.3,1.83,1.83,0,0,1,1.38,1.15,1.85,1.85,0,0,1-.08,1.31,3.36,3.36,0,0,1-.78,1.09,1.61,1.61,0,0,1-1.39.6,2.08,2.08,0,0,1-1.21-.69,2.87,2.87,0,0,1-.44-1.64,2.05,2.05,0,0,1,1.07-1.52" style="fill:#eb996e"></path><path d="M165.43,112.43c2.42-1.7,5.89-.79,8.15,1.11a6.26,6.26,0,0,1,1.31,2.3,1.3,1.3,0,0,1-.62,1.47,2.13,2.13,0,0,1-1.88-.48,26.54,26.54,0,0,0-3.25-1.72c-1.42-.63-3.07-1.13-4.47-.48" style="fill:#263238"></path><path d="M157.14,114.65c-2.3.07-4.76-1.11-6.77,0a9.55,9.55,0,0,0-2.55,2.74,11.66,11.66,0,0,1-10.37,4.24c-1.57-.19-3.4-1.09-3.41-2.67,0-1.26,1.16-2.18,2.23-2.84a77.1,77.1,0,0,1,8-4,13,13,0,0,1,3.4-1.19,9.3,9.3,0,0,1,4,.39,16.39,16.39,0,0,1,5.72,3" style="fill:#263238"></path><path d="M155.08,105.84s.64.31,1.61.89a13,13,0,0,1,1.63,1.16,15.45,15.45,0,0,1,1.74,1.71,14.92,14.92,0,0,1,1.41,2,14.58,14.58,0,0,1,.88,1.79c.42,1.05.58,1.75.63,1.74a2.52,2.52,0,0,0-.07-.5,9.59,9.59,0,0,0-.38-1.31,12,12,0,0,0-.84-1.85,13.72,13.72,0,0,0-1.42-2,14.39,14.39,0,0,0-1.79-1.73,12.73,12.73,0,0,0-1.69-1.13,10.2,10.2,0,0,0-1.24-.58A1.56,1.56,0,0,0,155.08,105.84Z" style="fill:#455a64"></path><path d="M136.56,133.47a1.32,1.32,0,0,0,.55-.65,3.77,3.77,0,0,0,.26-2,5,5,0,0,0-.66-1.94c-.28-.45-.54-.65-.56-.63s.17.28.39.73a5.93,5.93,0,0,1,.56,1.87,4.23,4.23,0,0,1-.17,1.93C136.75,133.2,136.52,133.43,136.56,133.47Z" style="fill:#455a64"></path><path d="M138.29,116.44a4.07,4.07,0,0,1,1.34-1.06,3.23,3.23,0,0,1,1.8-.25,2.68,2.68,0,0,1,1,.36,1.27,1.27,0,0,1,.62.85.65.65,0,0,1,0,.28l-.26.74.5-.61a4.68,4.68,0,0,1,1.81-1.11,4.4,4.4,0,0,1,1.68-.45,2.14,2.14,0,0,1,1.12.27c.24.13.35.25.36.24s-.07-.16-.3-.33a2.22,2.22,0,0,0-1.18-.37,4.47,4.47,0,0,0-1.78.41,4.71,4.71,0,0,0-1.93,1.17l.24.14a1.13,1.13,0,0,0,.05-.41,1.53,1.53,0,0,0-.76-1,3,3,0,0,0-1.11-.38,3.32,3.32,0,0,0-1.92.32,3,3,0,0,0-1,.83A1,1,0,0,0,138.29,116.44Z" style="fill:#455a64"></path><path d="M140.28,118.88a1.89,1.89,0,0,0,.68.73,3.93,3.93,0,0,0,4.56.12c.52-.35.74-.68.71-.7s-.29.24-.81.53a4.35,4.35,0,0,1-2.19.56,4.25,4.25,0,0,1-2.16-.67C140.57,119.13,140.32,118.85,140.28,118.88Z" style="fill:#455a64"></path><path d="M134,119.09s0,.12.13.33a3,3,0,0,0,.59.77,5.22,5.22,0,0,0,2.93,1.2,5.83,5.83,0,0,0,3.13-.53,3.9,3.9,0,0,0,1.13-.66s-.46.2-1.2.48a6.38,6.38,0,0,1-3,.43,5.39,5.39,0,0,1-2.84-1.07A8.66,8.66,0,0,1,134,119.09Z" style="fill:#455a64"></path><path d="M134.44,144c0-.07-.17-.06-.24.06s0,.25.06.25a.22.22,0,0,0,.18-.31Z" style="fill:#455a64"></path><path d="M136.49,116.11a1.65,1.65,0,0,0,0,1,3.39,3.39,0,0,0,1.16,2,3.35,3.35,0,0,0,2.19.76,1.81,1.81,0,0,0,.94-.2s-.37,0-.94,0a3.4,3.4,0,0,1-3.16-2.62C136.51,116.48,136.54,116.11,136.49,116.11Z" style="fill:#455a64"></path><path d="M137,115.93c0,.07.35,0,.68.1s.47.42.55.4,0-.11,0-.25a.82.82,0,0,0-.43-.41.79.79,0,0,0-.59,0C137,115.82,137,115.9,137,115.93Z" style="fill:#455a64"></path><path d="M136.15,128.21a2.75,2.75,0,0,0,.8-.76,6,6,0,0,0,1.12-2.42,5.93,5.93,0,0,0,0-2.67,2.51,2.51,0,0,0-.41-1s.11.41.22,1.07a6.86,6.86,0,0,1-.07,2.57,7,7,0,0,1-1,2.36A9.21,9.21,0,0,0,136.15,128.21Z" style="fill:#455a64"></path><path d="M143.8,115.09a7.24,7.24,0,0,1,2.47-1.42,8.86,8.86,0,0,1,3.06-.39,16.73,16.73,0,0,1,3.76.64c1.31.35,2.56.74,3.72,1a16.36,16.36,0,0,0,3.13.45,9,9,0,0,0,2.12-.19,4.73,4.73,0,0,0,.56-.16.61.61,0,0,0,.19-.08,12,12,0,0,1-2.87.23,16.48,16.48,0,0,1-3.07-.5c-1.15-.28-2.39-.67-3.71-1a16.91,16.91,0,0,0-3.82-.63,8.63,8.63,0,0,0-3.13.47,5.81,5.81,0,0,0-1.87,1,4.3,4.3,0,0,0-.42.4A.83.83,0,0,0,143.8,115.09Z" style="fill:#455a64"></path><path d="M142.7,114.71a11.05,11.05,0,0,1,7.48-5.06,27,27,0,0,1,6.57-.45l2,.08a3.75,3.75,0,0,0,.73,0,5.06,5.06,0,0,0-.73-.1c-.47,0-1.15-.11-2-.16a24,24,0,0,0-6.64.37,12,12,0,0,0-5.85,3.07,8.42,8.42,0,0,0-1.25,1.6c-.12.2-.19.37-.25.48S142.69,114.71,142.7,114.71Z" style="fill:#455a64"></path><path d="M169.3,111.27a3.94,3.94,0,0,0-1.14-.61,12.78,12.78,0,0,0-3-.86,13.09,13.09,0,0,0-3.13-.09,4.33,4.33,0,0,0-1.27.24,24.14,24.14,0,0,1,4.36.13A23.11,23.11,0,0,1,169.3,111.27Z" style="fill:#455a64"></path><path d="M171.54,112.12a1.92,1.92,0,0,0-.89-.34,4.25,4.25,0,0,0-4.14,1.56,1.91,1.91,0,0,0-.45.84s.21-.29.6-.71a4.56,4.56,0,0,1,4-1.49C171.18,112,171.52,112.16,171.54,112.12Z" style="fill:#455a64"></path><path d="M166.35,108.47a3.77,3.77,0,0,0-1.07-.51,11.3,11.3,0,0,0-5.69-.49,3.68,3.68,0,0,0-1.15.32,22,22,0,0,1,4-.17A22.06,22.06,0,0,1,166.35,108.47Z" style="fill:#455a64"></path><path d="M146.94,108.46s.6-.29,1.59-.67a13.59,13.59,0,0,1,4-.88,14.14,14.14,0,0,1,4.12.37c1,.26,1.64.52,1.66.47a2.07,2.07,0,0,0-.41-.22,9.07,9.07,0,0,0-1.2-.43,12.36,12.36,0,0,0-8.28.51,7.82,7.82,0,0,0-1.14.58C147.07,108.35,146.93,108.44,146.94,108.46Z" style="fill:#455a64"></path><path d="M141.57,129.48c-.06.05.12.36.41.7s.57.56.62.51-.12-.36-.41-.69S141.62,129.43,141.57,129.48Z" style="fill:#455a64"></path><path d="M140.57,129.62c-.06,0,.18.44.53.87s.69.75.75.7-.18-.44-.53-.87S140.63,129.57,140.57,129.62Z" style="fill:#455a64"></path><path d="M157.24,129.66c-.18.18-1.25-.65-2.79-.68s-2.69.71-2.85.52.1-.42.61-.77a4,4,0,0,1,2.29-.65,3.78,3.78,0,0,1,2.21.78C157.18,129.24,157.33,129.58,157.24,129.66Z" style="fill:#263238"></path><path d="M159.24,142.93c.22,0,.19,1.43,1.41,2.48s2.75.91,2.76,1.11-.35.28-1,.28a3.58,3.58,0,0,1-2.3-.85,3.13,3.13,0,0,1-1.09-2.07C159,143.27,159.14,142.92,159.24,142.93Z" style="fill:#263238"></path><path d="M177.85,433l-2,24.65s26.62,9.76,26.41,15.46l-49.34-.3L154.77,458l-1.38-25Z" style="fill:#FFC100"></path><path d="M160.92,456.38a2.05,2.05,0,0,0-1.42,2.32,2,2,0,0,0,2.28,1.43,2.15,2.15,0,0,0,1.49-2.46,2,2,0,0,0-2.53-1.22" style="fill:#263238"></path><path d="M152.94,472.8l.5-4,47.36,1.57a4.07,4.07,0,0,1,1.48,2.73Z" style="fill:#263238"></path><path d="M177.12,458.39c0,.24-1.23.34-2.43,1.12s-1.84,1.79-2.07,1.69.15-1.5,1.62-2.41S177.17,458.17,177.12,458.39Z" style="fill:#263238"></path><path d="M182.33,460.58c0,.24-1,.64-1.83,1.67s-1.08,2.11-1.32,2.09-.39-1.38.67-2.64S182.33,460.35,182.33,460.58Z" style="fill:#263238"></path><path d="M185.26,466.85c-.22,0-.55-1.17.08-2.49s1.77-1.86,1.87-1.65-.6.91-1.11,2S185.5,466.83,185.26,466.85Z" style="fill:#263238"></path><path d="M176.72,452.52c-.11.22-1.22-.13-2.6,0s-2.45.51-2.57.3.91-1.07,2.53-1.15S176.84,452.33,176.72,452.52Z" style="fill:#263238"></path><path d="M176.84,447.34a4.76,4.76,0,0,1-2.5,0,11.12,11.12,0,0,1-2.6-.82,11.81,11.81,0,0,1-1.43-.77,3.11,3.11,0,0,1-.75-.59,1,1,0,0,1-.1-1.29,1.31,1.31,0,0,1,1.07-.55,3.21,3.21,0,0,1,.93.13A9.73,9.73,0,0,1,173,444a8.85,8.85,0,0,1,2.29,1.53c1.15,1.08,1.54,2,1.45,2s-.66-.68-1.83-1.57a10,10,0,0,0-2.22-1.27,9.17,9.17,0,0,0-1.43-.45c-.53-.14-1-.15-1.11.09,0,.08-.06.12.05.27a2.4,2.4,0,0,0,.55.44,13.77,13.77,0,0,0,1.31.76,15.15,15.15,0,0,0,2.41.94A17,17,0,0,1,176.84,447.34Z" style="fill:#263238"></path><path d="M176.52,447.68c-.09,0-.56-.83-.64-2.41a7.91,7.91,0,0,1,1-4.24,2,2,0,0,1,1.6-1.25,1.16,1.16,0,0,1,1,.7,3,3,0,0,1,.25.92,5.56,5.56,0,0,1,0,1.68,5.79,5.79,0,0,1-1.09,2.57c-1,1.28-2,1.57-2,1.49s.77-.59,1.52-1.83A5.73,5.73,0,0,0,179,443a5.44,5.44,0,0,0,0-1.45c-.08-.53-.28-.95-.47-.9s-.68.39-.88.81a8.18,8.18,0,0,0-.63,1.35,8.93,8.93,0,0,0-.5,2.48C176.4,446.74,176.65,447.65,176.52,447.68Z" style="fill:#263238"></path><path d="M143.25,262s-4.1,5.59-3.08,23a154.05,154.05,0,0,0,5.26,31.54l47.45-1.47-2.24-42Z" style="fill:#455a64"></path><path d="M192.17,310.55a1.53,1.53,0,0,1-.49.08l-1.4.12c-1.21.09-3,.2-5.14.29-4.35.2-10.36.33-17,.21s-12.65-.49-17-.84c-2.17-.18-3.92-.35-5.13-.49l-1.39-.17a1.59,1.59,0,0,1-.48-.1,1.68,1.68,0,0,1,.49,0l1.4.08,5.14.32c4.33.26,10.33.56,17,.69s12.63,0,17-.05l5.14-.13,1.4,0A2.83,2.83,0,0,1,192.17,310.55Z" style="fill:#263238"></path><path d="M178.27,275.08a5,5,0,0,1-.54.88,19,19,0,0,1-1.75,2.17,25.55,25.55,0,0,1-3.06,2.82,29.48,29.48,0,0,1-4.31,2.71,28.7,28.7,0,0,1-4.76,1.83,25.6,25.6,0,0,1-4.08.77,19.55,19.55,0,0,1-2.8.1,3.65,3.65,0,0,1-1-.1c0-.1,1.46-.05,3.77-.37a28.27,28.27,0,0,0,4-.86,30.66,30.66,0,0,0,4.65-1.84,29.23,29.23,0,0,0,4.26-2.63,27.52,27.52,0,0,0,3.08-2.68C177.35,276.22,178.19,275,178.27,275.08Z" style="fill:#263238"></path><path d="M165.3,310.92c-.15,0-.33-5.76-.4-12.87s0-12.87.12-12.87.32,5.76.4,12.87S165.44,310.92,165.3,310.92Z" style="fill:#263238"></path><path d="M165.51,268.78c.15,0-.54,2.78-.9,6.24s-.28,6.28-.44,6.29a20.22,20.22,0,0,1-.08-6.35A19.81,19.81,0,0,1,165.51,268.78Z" style="fill:#263238"></path><path d="M232.31,156.26l-27.24,23.22-7.91.67-34.39-10.28-6.92,29.29s41.21,9.84,48.83,8.59,15.48-2.4,17.63-6.16,22.88-36.72,22.88-36.72Z" style="fill:#FFC100"></path><g style="opacity:0.30000000000000004"><path d="M232.31,156.26l-27.24,23.22-7.91.67-34.39-10.28-6.92,29.29s41.21,9.84,48.83,8.59,15.48-2.4,17.63-6.16,22.88-36.72,22.88-36.72Z"></path></g><path d="M150.75,162s-25.65,5.67-21.33,33a266.49,266.49,0,0,0,13,49.41s-5.89,8.1-2.54,15.93l2.54,3.79,50.5,9.72s-5.68-61.57-8.65-73.45-19.23-30.56-24.3-33.62C156.62,164.77,150.75,162,150.75,162Z" style="fill:#FFC100"></path><path d="M150.75,162c-2.39.29-23.71-5.6-31.91-7.9a2.87,2.87,0,0,0-3.63,2.43c-.9,7.77-2.46,26.83,2.87,33,6.75,7.83,10.85,3.24,10.85,3.24l29.45-27Z" style="fill:#FFC100"></path><path d="M148.23,199.44s23.49,8.75,40.07,9,26.47-1.84,31.31-4.49,29-35.11,29-35.11l-12.89-9.21L207,181.94s-5.76-.23-8.52,1.15c0,0-40.53-17-44.9-16.58s-10.91,6.37-13.12,11.75S141.1,195.06,148.23,199.44Z" style="fill:#FFC100"></path><path d="M200.15,208.15a3.18,3.18,0,0,1-.51.08l-1.45.13c-1.26.12-3.09.21-5.35.28a138.39,138.39,0,0,1-17.67-.7,156.21,156.21,0,0,1-17.46-2.84c-2.2-.49-4-.93-5.2-1.26l-1.41-.4a1.64,1.64,0,0,1-.48-.17,2.65,2.65,0,0,1,.51.07l1.42.3c1.24.27,3,.65,5.24,1.1,4.43.89,10.58,2,17.43,2.68a161.4,161.4,0,0,0,17.61.85c2.26,0,4.09-.06,5.35-.11l1.46,0A1.77,1.77,0,0,1,200.15,208.15Z" style="fill:#263238"></path><path d="M214.19,176.32a3.65,3.65,0,0,1-.46.41l-1.39,1.13-5.3,4.2,0,0h-.06a45.73,45.73,0,0,0-8.47,1.2h-.06l-.07,0c-7.53-3.22-17.48-7.2-28.45-11.12-3.15-1.11-6.24-2.16-9.25-3a44.67,44.67,0,0,0-4.48-1.07A6.06,6.06,0,0,0,154,168a14.71,14.71,0,0,0-2.12.41,16.38,16.38,0,0,0-7,4A15.64,15.64,0,0,0,141,178.2a16.63,16.63,0,0,0-.4,10.1,17.51,17.51,0,0,0,1,2.63l.32.65a1.67,1.67,0,0,1,.1.24,11.78,11.78,0,0,1-1.58-3.47,16.73,16.73,0,0,1-.69-4.42,16.47,16.47,0,0,1,.94-5.86,15.9,15.9,0,0,1,3.92-6,16.76,16.76,0,0,1,7.15-4.1,15.72,15.72,0,0,1,2.19-.44,6.84,6.84,0,0,1,2.3.06,43.86,43.86,0,0,1,4.54,1.07c3,.87,6.13,1.92,9.28,3,11,3.93,20.92,7.94,28.45,11.24h-.13a44.76,44.76,0,0,1,8.57-1.11l-.1,0,5.39-4.09,1.44-1.07A3.11,3.11,0,0,1,214.19,176.32Z" style="fill:#263238"></path><path d="M198.31,191.09c-.05,0-.39-.3-.74-1a6.4,6.4,0,0,1-.67-2.9,6.53,6.53,0,0,1,.67-2.9c.36-.68.7-1,.75-1a11.84,11.84,0,0,0-.9,3.88A12,12,0,0,0,198.31,191.09Z" style="fill:#263238"></path><path d="M209.53,189.44a7.75,7.75,0,0,1-2-3.45,7.65,7.65,0,0,1-.52-4c.15,0,.31,1.75,1,3.79S209.66,189.35,209.53,189.44Z" style="fill:#263238"></path><path d="M148.58,167.48a31.21,31.21,0,0,0-4.07,2.47,30.21,30.21,0,0,0-7.43,8.68c-2.31,3.87-4.1,7.56-5.58,10.14-.73,1.29-1.36,2.31-1.82,3a6.64,6.64,0,0,1-.75,1.05,5.51,5.51,0,0,1,.58-1.15c.4-.73,1-1.78,1.66-3.09,1.4-2.61,3.14-6.33,5.46-10.23a28.67,28.67,0,0,1,7.66-8.71,17.23,17.23,0,0,1,3.07-1.75A5.11,5.11,0,0,1,148.58,167.48Z" style="fill:#263238"></path><g style="opacity:0.30000000000000004"><path d="M151.81,203.89a26.11,26.11,0,0,0,15.09,7.87,26.49,26.49,0,0,0,16.82-3.43c-10.86-1.07-21.9-1.92-32.46-4.7"></path></g><path d="M146.53,165.25a4.61,4.61,0,0,1-1.11.41,26.66,26.66,0,0,1-3.12.77,36.73,36.73,0,0,1-4.75.61,41.3,41.3,0,0,1-5.85-.08,42.1,42.1,0,0,1-5.78-1,37.41,37.41,0,0,1-4.56-1.46,29.46,29.46,0,0,1-2.93-1.32,6,6,0,0,1-1-.6c0-.09,1.54.67,4.08,1.58a42.87,42.87,0,0,0,10.25,2.26,42.42,42.42,0,0,0,10.49-.37C144.89,165.64,146.5,165.16,146.53,165.25Z" style="fill:#263238"></path><g style="opacity:0.30000000000000004"><path d="M119.73,163.66c3,3,6.37,6.17,10.6,6.81,4.7.72,9.22-1.85,13.28-4.33-7.9,1.34-16.29,1-23.88-2.48"></path></g><g style="opacity:0.30000000000000004"><path d="M129.4,193.12c1.7-.19,2.9-1.74,3.73-3.24a23.92,23.92,0,0,0,2.85-9.45c-2.64,4.46-5,8.82-7,12.57"></path></g><path d="M174.57,254.92a6.48,6.48,0,0,1-1.27-.43l-3.39-1.31c-2.86-1.1-6.83-2.58-11.27-4s-8.51-2.63-11.47-3.42l-3.51-.93a5.62,5.62,0,0,1-1.28-.39,7.24,7.24,0,0,1,1.32.2c.85.15,2.06.41,3.56.76,3,.7,7.09,1.81,11.55,3.28s8.41,3,11.24,4.2c1.42.6,2.55,1.1,3.33,1.46A6.43,6.43,0,0,1,174.57,254.92Z" style="fill:#263238"></path><g style="opacity:0.30000000000000004"><path d="M173,248.85a7.63,7.63,0,0,0-3.78-1.08c-8.87-.9-17.4-2.32-26.28-3.22l6,1.29a191.13,191.13,0,0,0,20.85,7c1.4.38,3.17.63,4.06-.51S174.11,249.64,173,248.85Z"></path></g><g style="opacity:0.30000000000000004"><path d="M207,182.06a23.57,23.57,0,0,0,.92,5.86,7.9,7.9,0,0,0,3.58,4.57,1.27,1.27,0,0,0,1.32.09,1.17,1.17,0,0,0,.33-1c-.1-1.55-1.33-2.75-2.34-3.93a36.12,36.12,0,0,1-3.72-5.66"></path></g><path d="M250.15,131.48c-.81-.83-3.56,2.61-3.56,2.61l-3.34,2.6c-1.62,3.11-1.62,16.64-1.62,16.64l-5.69,5.36.79.72,6.3,5.34,5.59-7.09,3.16-11.83s-.68-6-.95-7.65-1.35-1.08-1.35-1.08.13-.32.67-2.48S251,132.31,250.15,131.48Z" style="fill:#eb996e"></path><rect x="246.59" y="122.85" width="3.01" height="25.03" style="fill:#263238"></rect><path d="M238.54,161.62l5-6.09a28.84,28.84,0,0,1,0-8c.66-3.19,1.26-9.26,1.59-10,.49-1,1.17-.21,1.38,1.12s.61,7.91.61,7.91a4.17,4.17,0,0,0,2.25-3.19c.23-2.25.32-10.4.32-10.4s2.52.23,2.47,4.17l0,2.92s1.79.75,1.67,4.61c0,0,2-.25,1.84,2.44l.25.17a2.29,2.29,0,0,1,1,1.86v1a18.73,18.73,0,0,1-.63,5.83c-.79,2.12-8.28,11.84-8.58,12.1Z" style="fill:#ffbe9d"></path><path d="M252.19,139.9a8.23,8.23,0,0,1,.18,2.91,8,8,0,0,1-.34,2.89,8.52,8.52,0,0,1-.18-2.91A8.25,8.25,0,0,1,252.19,139.9Z" style="fill:#eb996e"></path><path d="M253.88,144.75c.14,0,.24.69.21,1.52s-.16,1.51-.31,1.5-.24-.68-.21-1.52S253.73,144.75,253.88,144.75Z" style="fill:#eb996e"></path><path d="M255.7,146.94c.14,0,.21.63.15,1.39s-.23,1.37-.37,1.36-.21-.64-.15-1.4S255.56,146.92,255.7,146.94Z" style="fill:#eb996e"></path><path d="M184.1,208.44,139.68,269.2l-1.59,10.87s45.54-58,47.82-62.31,4.57-9.16,4.57-9.16Z" style="fill:#263238"></path><path d="M144.81,306.63a178.28,178.28,0,0,0-1.3-40.9l-.89-.35-17,21.48c-3,3.8-6.07,7.72-7.47,12.36s-.78,10.21,2.79,13.48c3.1,2.84,7.61,3.35,11.8,3.74,3.12.28,6.61.46,9-1.57S144.56,309.63,144.81,306.63Z" style="fill:#263238"></path><path d="M144.49,271.89a3.8,3.8,0,0,1-1.08,1.48,6.81,6.81,0,0,1-1.63,1.19,3.32,3.32,0,0,1-2.52.28,2.12,2.12,0,0,1-1.64-1.94,4,4,0,0,1,.64-2,4.6,4.6,0,0,1,1.11-1.45,8.58,8.58,0,0,1-.79,1.62,4.11,4.11,0,0,0-.48,1.77,1.66,1.66,0,0,0,1.3,1.46c1.57.47,2.94-.6,3.76-1.24S144.43,271.84,144.49,271.89Z" style="fill:#455a64"></path><path d="M121.17,313.19s-.09-.12-.23-.39a6.27,6.27,0,0,1-.44-1.21,10.25,10.25,0,0,1,.09-4.73,43.37,43.37,0,0,1,2.28-6.63c1-2.43,2.22-5.07,3.64-7.75a90.67,90.67,0,0,1,8.43-13.08c1.23-1.57,2.26-2.8,3-3.63a11.13,11.13,0,0,1,1.2-1.25,10.68,10.68,0,0,1-1,1.38c-.69.87-1.68,2.13-2.87,3.72a103.15,103.15,0,0,0-8.26,13.1c-1.41,2.67-2.63,5.29-3.65,7.7a45.39,45.39,0,0,0-2.37,6.52,10.58,10.58,0,0,0-.25,4.6C120.92,312.62,121.22,313.17,121.17,313.19Z" style="fill:#455a64"></path></g></svg>