<svg xmlns="http://www.w3.org/2000/svg" viewBox="0 0 500 500"><g id="freepik--Floor--inject-1012"><ellipse cx="250" cy="348.2" rx="223.88" ry="129.26" style="fill:#f5f5f5"></ellipse></g><g id="freepik--Shadow--inject-1012"><polygon points="436.98 314.01 210.56 446.14 58.89 358.57 285.31 226.44 436.98 314.01" style="fill:#e0e0e0"></polygon></g><g id="freepik--Clouds--inject-1012"><path d="M387.4,48.9l6.85,3.9V50.37a4.36,4.36,0,0,1,0-.51,3.91,3.91,0,0,1,0-.49v-.06h0c.24-3.21,2.68-4.44,5.65-2.73a11,11,0,0,1,3.37,3.24c.67-4.36,4.23-5.94,8.53-3.45,4.78,2.76,8.66,9.47,8.66,15v5.19a2.38,2.38,0,0,0,1.17,2l4,2.36a5.8,5.8,0,0,1,2.87,5A2.39,2.39,0,0,1,424.94,78L387.5,56.4a6.53,6.53,0,0,1-3.27-5.66A2.12,2.12,0,0,1,387.4,48.9Z" style="fill:#e6e6e6"></path><path d="M347.32,59.4l5.07,2.88V60.49c0-.13,0-.26,0-.38s0-.25,0-.37v0h0c.18-2.38,2-3.29,4.18-2a8.21,8.21,0,0,1,2.49,2.4c.5-3.23,3.13-4.39,6.31-2.56a14.17,14.17,0,0,1,6.41,11.09v3.85a1.74,1.74,0,0,0,.86,1.5l3,1.75a4.29,4.29,0,0,1,2.13,3.71A1.77,1.77,0,0,1,375.09,81l-27.7-16A4.85,4.85,0,0,1,345,60.76,1.56,1.56,0,0,1,347.32,59.4Z" style="fill:#e6e6e6"></path></g><g id="freepik--Sun--inject-1012"><circle cx="84.84" cy="61.77" r="17.28" style="fill:#f28f8f"></circle></g><g id="freepik--Track--inject-1012"><path d="M209.84,437c1-.71,61.1-43.58,106.15-98.19,22.2-26.91,35.7-61.79,35.49-96.68l0-5h0L213.3,157.42l0,5a148.93,148.93,0,0,1-34,95.69c-45.06,54.62-106.74,98.51-107.7,99.18h0L209.81,437h0Z" style="fill:#FFC100"></path><g style="opacity:0.5"><path d="M209.84,437c1-.71,61.1-43.58,106.15-98.19,22.2-26.91,35.7-61.79,35.49-96.68l0-5h0L213.3,157.42l0,5a148.93,148.93,0,0,1-34,95.69c-45.06,54.62-106.74,98.51-107.7,99.18h0L209.81,437h0Z" style="fill:#fff"></path></g><path d="M134.84,305a673.29,673.29,0,0,1-63.16,52.31h0L209.81,437h0a659.57,659.57,0,0,0,60.5-50.18Z" style="fill:#FFC100"></path><path d="M134.84,305a673.29,673.29,0,0,1-63.16,52.31h0L209.81,437h0a659.57,659.57,0,0,0,60.5-50.18Z" style="fill:#fff;opacity:0.4"></path><path d="M351.44,237.1l69.33-38.85V315.16L209.81,437s60.77-43.15,106.18-98.2c22.2-26.91,35.7-61.79,35.49-96.68Z" style="fill:#FFC100"></path><path d="M351.44,237.1l69.33-38.85V315.16L209.81,437s60.77-43.15,106.18-98.2c22.2-26.91,35.7-61.79,35.49-96.68Z" style="opacity:0.2"></path><polygon points="213.3 157.43 351.44 237.1 420.77 198.25 282.63 118.58 213.3 157.43" style="fill:#FFC100"></polygon><polygon points="351.44 237.1 361.14 231.66 223.1 151.9 213.3 157.43 351.44 237.1" style="fill:#FFC100"></polygon><polygon points="351.44 237.1 361.14 231.66 223.1 151.9 213.3 157.43 351.44 237.1" style="fill:#fff;opacity:0.30000000000000004"></polygon><path d="M361.15,231.66l-9.71,5.44,0,5c.21,34.89-13.29,69.77-35.49,96.68C270.58,393.86,209.81,437,209.81,437L361.15,349.6Z" style="fill:#FFC100"></path><path d="M361.15,231.66l-9.71,5.44,0,5c.21,34.89-13.29,69.77-35.49,96.68C270.58,393.86,209.81,437,209.81,437L361.15,349.6Z" style="fill:#fff;opacity:0.1"></path><path d="M204.9,212.9a148.31,148.31,0,0,1-25.52,45.25c-1.73,2.09-3.49,4.17-5.26,6.24l137.64,79.47c1.42-1.67,2.83-3.36,4.23-5.05a158.24,158.24,0,0,0,26.14-45.33Z" style="fill:#FFC100"></path><path d="M204.9,212.9a148.31,148.31,0,0,1-25.52,45.25c-1.73,2.09-3.49,4.17-5.26,6.24l137.64,79.47c1.42-1.67,2.83-3.36,4.23-5.05a158.24,158.24,0,0,0,26.14-45.33Z" style="fill:#fff;opacity:0.4"></path><path d="M238.45,112.09v36.18h0a1.14,1.14,0,0,0,.66.93,3.6,3.6,0,0,0,3.23,0,1.16,1.16,0,0,0,.67-.93V112.09Z" style="fill:#455a64"></path><path d="M258.7,100.82V137h0a1.16,1.16,0,0,0,.67.94,3.6,3.6,0,0,0,3.23,0,1.16,1.16,0,0,0,.67-.94V100.82Z" style="fill:#455a64"></path><path d="M280.25,88.51v36.18h0a1.11,1.11,0,0,0,.67.93,3.52,3.52,0,0,0,3.22,0,1.11,1.11,0,0,0,.67-.93V88.51Z" style="fill:#455a64"></path><path d="M313,102.72v39.67h0a1.15,1.15,0,0,0,.67.93,3.54,3.54,0,0,0,3.23,0,1.13,1.13,0,0,0,.66-.93V102.72Z" style="fill:#455a64"></path><path d="M342.1,119.56v40.08h0a1.13,1.13,0,0,0,.67.93,3.54,3.54,0,0,0,3.23,0,1.12,1.12,0,0,0,.66-.93V119.56Z" style="fill:#455a64"></path><path d="M371.19,136.19v40.7h0a1.16,1.16,0,0,0,.67.94,3.6,3.6,0,0,0,3.23,0,1.16,1.16,0,0,0,.67-.94v-40.7Z" style="fill:#455a64"></path><path d="M365.39,190.52v31.9h0a1.14,1.14,0,0,0,.67.94,3.58,3.58,0,0,0,3.22,0,1.14,1.14,0,0,0,.67-.94v-31.9Z" style="fill:#455a64"></path><path d="M385.65,179.45v31.7h0a1.11,1.11,0,0,0,.67.93,3.52,3.52,0,0,0,3.22,0,1.11,1.11,0,0,0,.67-.93v-31.7Z" style="fill:#455a64"></path><path d="M407.19,167.33v31.52h0a1.15,1.15,0,0,0,.67.93,3.54,3.54,0,0,0,3.23,0,1.15,1.15,0,0,0,.67-.93V167.33Z" style="fill:#455a64"></path><path d="M356.17,199.51a2.29,2.29,0,0,1-1.12-4.29l54.39-30.46a3.21,3.21,0,0,0,0-5.57L290.07,90.62a8.54,8.54,0,0,0-8.5,0l-53.38,30.63a2.28,2.28,0,0,1-2.28-4L279.3,86.65a13.15,13.15,0,0,1,13.05,0l119.39,68.58a7.76,7.76,0,0,1-.07,13.52l-54.38,30.46A2.3,2.3,0,0,1,356.17,199.51Z" style="fill:#455a64"></path></g><g id="freepik--Plants--inject-1012"><path d="M134.17,284.12l-8.87,5.16s4.47-14.3,2-28.69a27.5,27.5,0,0,0-3.61-9.57c-.7-1.45-6.05-10.43-1.34-14.56s15.77,4.09,15.27,26.25A85.79,85.79,0,0,1,134.17,284.12Z" style="fill:#FFC100"></path><path d="M134.17,284.12l-8.87,5.16s4.47-14.3,2-28.69a27.5,27.5,0,0,0-3.61-9.57c-.7-1.45-6.05-10.43-1.34-14.56s15.77,4.09,15.27,26.25A85.79,85.79,0,0,1,134.17,284.12Z" style="opacity:0.4"></path><path d="M130.05,286.94l-.15,0a.42.42,0,0,1-.25-.54c0-.09,3.34-9.28,3.17-24.07s-7.85-22.49-7.92-22.57a.4.4,0,0,1,0-.59.42.42,0,0,1,.59,0c.08.08,8,8.1,8.16,23.15s-3.18,24.28-3.21,24.37A.42.42,0,0,1,130.05,286.94Z" style="fill:#fff"></path><path d="M127.29,288.15l-14.67,8.62s-6.71-1-6.21-7.31,3.24-7.81-.16-10.58-4.27-3-4.11-5.69,2-3.91,2.86-5,3.26-3.34,1.57-6.62-4-6.46-.58-8c2-.9,5.44.23,7.71,2.63s4.13,4.13,6.27,4.68,6.61.61,6.46,4.3-1.11,5-.21,6.61C127.91,274.93,135.12,276.59,127.29,288.15Z" style="fill:#FFC100"></path><path d="M121.31,292.08h0a.42.42,0,0,1-.38-.45c0-.22,1.57-21.7-13.33-35.79a.42.42,0,1,1,.58-.61c15.2,14.37,13.6,36.25,13.58,36.47A.41.41,0,0,1,121.31,292.08Z" style="fill:#fff"></path><path d="M118.69,273.34h0a.42.42,0,0,1-.38-.45,13,13,0,0,1,4.79-9.32.43.43,0,0,1,.59.09.42.42,0,0,1-.1.59,12.43,12.43,0,0,0-4.45,8.7A.41.41,0,0,1,118.69,273.34Z" style="fill:#fff"></path><path d="M119.77,277.07a.38.38,0,0,1-.31-.14s-3.72-4-12.11-2.83a.43.43,0,0,1-.47-.36.42.42,0,0,1,.36-.47c8.84-1.21,12.68,2.93,12.84,3.1a.42.42,0,0,1,0,.59A.38.38,0,0,1,119.77,277.07Z" style="fill:#fff"></path><path d="M391.54,371.09l12.32,7.15s-6.22-19.83-2.77-39.78c1.3-7.52,4-11.26,5-13.27S414.49,310.73,408,305s-21.86,5.67-21.17,36.39A119.52,119.52,0,0,0,391.54,371.09Z" style="fill:#FFC100"></path><path d="M391.54,371.09l12.32,7.15s-6.22-19.83-2.77-39.78c1.3-7.52,4-11.26,5-13.27S414.49,310.73,408,305s-21.86,5.67-21.17,36.39A119.52,119.52,0,0,0,391.54,371.09Z" style="opacity:0.5"></path><path d="M397.27,374.83a.43.43,0,0,1-.4-.27c0-.13-4.69-13-4.44-33.74s11.16-31.88,11.27-32a.42.42,0,0,1,.59,0,.42.42,0,0,1,0,.6c-.11.1-10.78,11-11,31.4s4.36,33.31,4.4,33.44a.42.42,0,0,1-.25.54A.34.34,0,0,1,397.27,374.83Z" style="fill:#fff"></path><path d="M401.09,376.68l20.34,12s9.31-1.37,8.61-10.14-4.49-10.83.22-14.68,5.93-4.11,5.7-7.88-2.76-5.42-4-6.92-4.52-4.64-2.18-9.19,5.52-8.95.8-11c-2.81-1.24-7.54.32-10.68,3.65s-5.73,5.73-8.7,6.5-9.17.83-9,6,1.53,6.89.29,9.16C400.23,358.34,390.23,360.65,401.09,376.68Z" style="fill:#FFC100"></path><path d="M409.37,382a.41.41,0,0,1-.41-.39c0-.3-2.24-30.56,18.78-50.43a.44.44,0,0,1,.6,0,.41.41,0,0,1,0,.59c-20.73,19.6-18.55,49.46-18.53,49.75a.42.42,0,0,1-.38.46Z" style="fill:#fff"></path><path d="M413,356a.42.42,0,0,1-.42-.39,17.31,17.31,0,0,0-6.24-12.19.42.42,0,0,1,.49-.68,17.92,17.92,0,0,1,6.59,12.81.42.42,0,0,1-.39.45Z" style="fill:#fff"></path><path d="M411.52,361.16a.43.43,0,0,1-.28-.11.41.41,0,0,1,0-.59c.21-.25,5.48-5.93,17.66-4.25a.42.42,0,0,1,.36.47.43.43,0,0,1-.47.36c-11.75-1.62-16.88,3.92-16.93,4A.43.43,0,0,1,411.52,361.16Z" style="fill:#fff"></path></g><g id="freepik--Character--inject-1012"><path d="M205.33,344.88a11,11,0,0,1-5,8.64c-2.76,1.59-5,.3-5-2.88a11,11,0,0,1,5-8.64C203.09,340.41,205.33,341.7,205.33,344.88Z" style="fill:#263238"></path><polygon points="196.65 353.76 202.06 356.89 208.96 344.6 204 341.63 196.65 353.76" style="fill:#263238"></polygon><path d="M210.4,347.81a11,11,0,0,1-5,8.64c-2.75,1.59-5,.3-5-2.88a11,11,0,0,1,5-8.64C208.17,343.34,210.4,344.63,210.4,347.81Z" style="fill:#455a64"></path><path d="M263.93,298.15a11,11,0,0,1-5,8.64c-2.76,1.59-5,.3-5-2.88a11,11,0,0,1,5-8.64C261.69,293.68,263.93,295,263.93,298.15Z" style="fill:#263238"></path><polygon points="255.25 307.03 260.67 310.15 267.56 297.86 262.6 294.89 255.25 307.03" style="fill:#263238"></polygon><path d="M269,301.08a11,11,0,0,1-5,8.64c-2.75,1.59-5,.3-5-2.88a11,11,0,0,1,5-8.64C266.77,296.61,269,297.9,269,301.08Z" style="fill:#455a64"></path><path d="M172.46,332l67.95-53.51s12.75-15.9,24.22-10.05,5.41,21.4,2.54,25.51l-67.3,53.88s-16.91,14-32.09,5.77S158.53,336.26,172.46,332Z" style="fill:#FFC100"></path><path d="M172.46,332l67.95-53.51s12.75-15.9,24.22-10.05,5.41,21.4,2.54,25.51l-67.3,53.88s-16.91,14-32.09,5.77S158.53,336.26,172.46,332Z" style="opacity:0.6000000000000001"></path><path d="M172.27,330.23l67.15-52.9s12.64-15.74,24-9.95,5.33,21.17,2.49,25.23l-66.52,53.26s-16.67,13.86-31.68,5.68S158.5,334.45,172.27,330.23Z" style="fill:#FFC100"></path><path d="M172.27,330.23l67.15-52.9s12.64-15.74,24-9.95,5.33,21.17,2.49,25.23l-66.52,53.26s-16.67,13.86-31.68,5.68S158.5,334.45,172.27,330.23Z" style="opacity:0.4"></path><path d="M263.4,267.38c-11.34-5.79-24,9.95-24,9.95l26.47,15.28C268.73,288.55,274.74,273.16,263.4,267.38Z" style="fill:#FFC100"></path><path d="M263.4,267.38c-11.34-5.79-24,9.95-24,9.95l26.47,15.28C268.73,288.55,274.74,273.16,263.4,267.38Z" style="opacity:0.30000000000000004"></path><path d="M167.69,351.55c15,8.18,31.68-5.68,31.68-5.68l-27.1-15.64C158.5,334.45,152.68,343.37,167.69,351.55Z" style="fill:#FFC100"></path><path d="M167.69,351.55c15,8.18,31.68-5.68,31.68-5.68l-27.1-15.64C158.5,334.45,152.68,343.37,167.69,351.55Z" style="opacity:0.30000000000000004"></path><path d="M153.55,100.88a6.64,6.64,0,0,1,1.6-2.78,17.92,17.92,0,0,0,3.63-5.35c.77-1.88,2.82-2.79,3.07-3.28s-.7-2.46-3.56-1.48-3.14,2.67-3.14,2.67a42.88,42.88,0,0,1,2.57-8.34c1.44-2.79,2.07-6.16-2.57-5.17S142.87,81,142.33,86.27s.37,14.61.37,14.61Z" style="fill:#945959"></path><path d="M155.68,118.51l-1.67-19H142.68l-.38,22.3S153.11,126.18,155.68,118.51Z" style="fill:#945959"></path><path d="M155.68,118.51l1.29,8.57s11.59,12.53,18.8,15.78l-3.51,20.64s-22.94-18.66-28.55-26.91c-2.19-3.22-1.41-14.75-1.41-14.75S153.62,123.09,155.68,118.51Z" style="fill:#FFC100"></path><path d="M155.68,118.51l1.29,8.57s11.59,12.53,18.8,15.78l-3.51,20.64s-22.94-18.66-28.55-26.91c-2.19-3.22-1.41-14.75-1.41-14.75S153.62,123.09,155.68,118.51Z" style="opacity:0.6000000000000001"></path><path d="M155.15,90.66s-3.71.48-5.09,2.89A4.24,4.24,0,0,1,155.15,90.66Z" style="fill:#703838"></path><path d="M198.09,279.13a38.84,38.84,0,0,0-4.69-9.62,6,6,0,0,1-1.15-4.87l9.52-44.47-1.41-19.7-25,6-4.43,52a30.7,30.7,0,0,0,3.43,16.93l7,13.23C184.94,288.76,192.7,287.92,198.09,279.13Z" style="fill:#455a64"></path><path d="M183.44,210.36A28.6,28.6,0,0,0,194.13,223V255.4l7.64-35.23Z" style="fill:#37474f"></path><path d="M206.08,308.26S202.79,297,201.77,292a105.26,105.26,0,0,0-3.68-12.88c-5.39,8.79-13.15,9.63-16.74,9.48L195,314.54S205,315.76,206.08,308.26Z" style="fill:#945959"></path><path d="M203.28,298.23c-4.21,5.5-10.55,6.16-13.64,6.11l5.37,10.2s10,1.22,11.07-6.28C206.08,308.26,204.57,303.11,203.28,298.23Z" style="fill:#e0e0e0"></path><polygon points="228.17 264.78 248.15 254.4 246.58 241.13 222.71 247.61 228.17 264.78" style="fill:#945959"></polygon><path d="M219.72,193.44a93.78,93.78,0,0,1,3.92,32.37c-1,17.86-.93,21.8-.93,21.8s9.19,3.18,5.46,17.17l-5.9,3a13.86,13.86,0,0,1-19.65-8.64c-2.47-8.83-4.91-21.64-5.61-39,0,0-15.1-5.32-19-16.65Z" style="fill:#455a64"></path><path d="M183.31,142.86l12.88-.45,8.16.45,10.62,18-.87,10.25a24.46,24.46,0,0,0,2.1,12.34,63.36,63.36,0,0,1,3.52,10s-7.13,10-22.84,12.67-21.51.17-21.51.17l-4.53-29.38a57.17,57.17,0,0,1,2.92-28.62l2-5.42Z" style="fill:#FFC100"></path><path d="M183.31,142.86l12.88-.45,8.16.45,10.62,18-.87,10.25a24.46,24.46,0,0,0,2.1,12.34,63.36,63.36,0,0,1,3.52,10s-7.13,10-22.84,12.67-21.51.17-21.51.17l-4.53-29.38a57.17,57.17,0,0,1,2.92-28.62l2-5.42Z" style="opacity:0.30000000000000004"></path><path d="M199,121.84s10.9,9.09,5.73,14.81c-1.57,1.75-11,.85-13.43-1.65s-6.41-11.8-6.41-11.8Z" style="fill:#455a64"></path><circle cx="177.87" cy="117.66" r="10.95" style="fill:#263238"></circle><path d="M183.31,142.86s-3.8,8.36,3.49,8.4,9.39-8.85,9.39-8.85Z" style="fill:#945959"></path><polygon points="183.31 142.86 196.19 142.41 194.66 127.84 181.87 129.18 183.31 142.86" style="fill:#945959"></polygon><path d="M183.22,142a14,14,0,0,0,10.53-11.57l-.45-4.25-11.61,1.22Z" style="fill:#703838"></path><path d="M177.26,106.65s-12,1.72-7.78,20.86c2,9,3.25,14,11.05,13.14s18.68-7.89,16.3-23.46S177.26,106.65,177.26,106.65Z" style="fill:#945959"></path><polygon points="177.72 122.75 178.43 129.54 174.32 128.74 177.72 122.75" style="fill:#703838"></polygon><path d="M183.65,123.31a1.39,1.39,0,1,1-1.53-1.24A1.39,1.39,0,0,1,183.65,123.31Z" style="fill:#263238"></path><path d="M174.44,123.3a1.39,1.39,0,1,1-1.53-1.24A1.39,1.39,0,0,1,174.44,123.3Z" style="fill:#263238"></path><path d="M171.07,120.74l2.54-1.89s-1.15-1-2.12-.22A1.9,1.9,0,0,0,171.07,120.74Z" style="fill:#263238"></path><path d="M182.54,119.06l2.65,1.74s.51-1.42-.53-2.07A1.91,1.91,0,0,0,182.54,119.06Z" style="fill:#263238"></path><path d="M179.4,132.71s4.81-1.79,3.63-1.39c0,0,.46,1.94-1.15,2.48A2.14,2.14,0,0,1,179.4,132.71Z" style="fill:#703838"></path><path d="M169,111.36s4.21,3.19,14,1.42,9.2,1,8.61,5.76c-.41,3.26.41,11.69,2.43,7.31l4.87-.51-1-9.74a12.52,12.52,0,0,0-13.75-11.14L174,105.52Z" style="fill:#263238"></path><path d="M167.49,114.6c4.15-1.19,18.83-4.1,32.49,9.16,0,0,2.48-1.92,1.42-9.56s-8.16-12.16-12.65-13.71-20.51-3.34-22.3,13.21A.82.82,0,0,0,167.49,114.6Z" style="fill:#455a64"></path><path d="M193.82,125.36s0-4.71,3.23-5.14c3.54-.47,4.38,2.9,4.46,4.12.21,3.21-2,6.93-6.82,7.57Z" style="fill:#945959"></path><path d="M170.75,110.37s7.38-.86,10.67-.23c0,0,.28-4.68-4.51-4.4C173,106,172.07,106.61,170.75,110.37Z" style="fill:#263238"></path><path d="M230.61,187.06l1,12.1s-3.09,2.58-4.12,4.77-4.37,3.73-4.76,4.5,1.26,2.42,6.23.7c0,0-2.92,5.83-5.35,6.77s3.68,5.07,12.9,1.8c3.53-1.25,5.14-9.53,5.4-16l2-12.41S240.4,181.52,230.61,187.06Z" style="fill:#945959"></path><path d="M204.35,142.86s-6.39,12.92,10.43,21.41l14.42,9.66s.51,8,1.41,13.13c0,0,9.53-2.84,13.3,2.19a141.63,141.63,0,0,0,0-14.56,13,13,0,0,0-4.72-9.23l-20.84-17.28a22.79,22.79,0,0,0-12.1-5.11Z" style="fill:#FFC100"></path><path d="M204.35,142.86s-6.39,12.92,10.43,21.41l14.42,9.66s.51,8,1.41,13.13c0,0,9.53-2.84,13.3,2.19a141.63,141.63,0,0,0,0-14.56,13,13,0,0,0-4.72-9.23l-20.84-17.28a22.79,22.79,0,0,0-12.1-5.11Z" style="opacity:0.6000000000000001"></path><path d="M229.2,173.93a10.54,10.54,0,0,1,6.44-1.68s-5.89,1.94-6.28,3.74Z" style="fill:#FFC100"></path><path d="M229.2,173.93a10.54,10.54,0,0,1,6.44-1.68s-5.89,1.94-6.28,3.74Z" style="opacity:0.9"></path><path d="M222.71,247.61s6.75,19.79-7,24.29c-10.92,3.57-16.08-8.76-13.06-12.75,0,0,13.58,3.61,19.5-5.91Z" style="fill:#263238"></path><path d="M234,244.55s9.08,1.4,6.51,13.82l7.65-4s4.54-2.66,3.54-7.82a6.38,6.38,0,0,0-5.11-5.45Z" style="fill:#e0e0e0"></path><path d="M252.6,238s1.54-.75,2.11-.59,5,2.1,5.49,9.18,1.91,9.35,3.51,12.18,2.57,12.21-4.47,15S252.6,238,252.6,238Z" style="fill:#263238"></path><path d="M246.58,241.13l-1.58.45s-.09-1.78,2.63-2.1,5.56-3.64,9.19,1.05,1.67,11.68,4.43,16.11,4.46,14.57-2,17.13c-4.9,1.94-7.67-2.08-8.66-8.49-.09-.59-3.23-8.25-3.23-8.25L245,255.22s-1-4.1,5.26-4.34C250.26,250.88,251.63,243.36,246.58,241.13Z" style="fill:#455a64"></path><path d="M250.58,265.69l-.11,0a.41.41,0,0,1-.28-.51,5.83,5.83,0,0,1,5.55-3.77.44.44,0,0,1,.43.4.41.41,0,0,1-.39.42,5,5,0,0,0-4.81,3.18A.41.41,0,0,1,250.58,265.69Z" style="fill:#fafafa"></path><path d="M248.94,262l-.12,0a.41.41,0,0,1-.27-.5,5.8,5.8,0,0,1,5.55-3.77.42.42,0,0,1,.42.39.4.4,0,0,1-.39.42,5,5,0,0,0-4.8,3.19A.4.4,0,0,1,248.94,262Z" style="fill:#fafafa"></path><path d="M247.72,258.3l-.12,0a.4.4,0,0,1-.27-.51,5.82,5.82,0,0,1,5.55-3.77.42.42,0,0,1,.42.39.41.41,0,0,1-.39.43,5,5,0,0,0-4.8,3.18A.42.42,0,0,1,247.72,258.3Z" style="fill:#fafafa"></path><path d="M192.25,264.49s-11.3-7.64-21.42-.95c0,0-2.82,13.33,6,16.38,0,0,13.09-2.67,16.55-10.56C193.4,269.36,191.85,266.4,192.25,264.49Z" style="fill:#263238"></path><path d="M198.79,313.86s6.61-2.94,7.29-5.6l-.45-1.44s1.38.26,1.91,2.73c.49,2.3,2.57,5.82,4.15,10.42a2.53,2.53,0,0,1-.32,2.26c-1,1.44-3.32,3.89-8.19,5.65-1.71.62-7.25,7.23-13,9s-10.44.13-11.69-3.87,9.38-11.29,9.38-11.29l3.93-7.27s-3-5.62,1.09-5.31S197.84,310.84,198.79,313.86Z" style="fill:#37474f"></path><path d="M198.47,317.75a.4.4,0,0,1-.32-.17,7.1,7.1,0,0,0-6.31-2.7.41.41,0,0,1-.45-.34.4.4,0,0,1,.34-.45,7.79,7.79,0,0,1,7.07,3,.41.41,0,0,1-.09.55A.43.43,0,0,1,198.47,317.75Z" style="fill:#fafafa"></path><path d="M196.47,321.42a.39.39,0,0,1-.33-.16,7.1,7.1,0,0,0-6.31-2.7.41.41,0,0,1-.45-.34.4.4,0,0,1,.34-.45,7.82,7.82,0,0,1,7.07,3,.4.4,0,0,1-.09.56A.39.39,0,0,1,196.47,321.42Z" style="fill:#fafafa"></path><path d="M194.49,325a.38.38,0,0,1-.32-.16,7.12,7.12,0,0,0-6.32-2.7.4.4,0,0,1-.44-.34.4.4,0,0,1,.33-.45,7.79,7.79,0,0,1,7.07,3,.4.4,0,0,1-.09.56A.39.39,0,0,1,194.49,325Z" style="fill:#fafafa"></path><path d="M211.6,320.38c-1,1.5-3.47,4.07-8.57,5.91-1.79.64-7.58,7.56-13.62,9.45-4.14,1.3-7.74.87-10-.87,1.95,2.63,6,3.54,10.76,2,5.77-1.8,11.31-8.41,13-9,4.87-1.76,7.19-4.21,8.19-5.65a2.5,2.5,0,0,0,.36-2.09A1.41,1.41,0,0,1,211.6,320.38Z" style="fill:#263238"></path></g></svg>
