<svg xmlns="http://www.w3.org/2000/svg" viewBox="0 0 500 500"><g id="freepik--background-complete--inject-1053"><path d="M88.7,54.08h58.68s-5.19-9.44-20.29-8.06c-14.43,1.31-15.16-4.65-22.49-5.38S91.15,45.53,88.7,54.08Z" style="fill:#f5f5f5"></path><path d="M426.61,62.78h46.64s-4.13-7.51-16.13-6.41c-11.47,1-12.05-3.7-17.88-4.28S428.55,56,426.61,62.78Z" style="fill:#f5f5f5"></path><path d="M34.45,78.71H96.91s-5.52-10-21.6-8.59c-15.36,1.4-16.14-5-24-5.73S37.05,69.6,34.45,78.71Z" style="fill:#ebebeb"></path><path d="M240.66,250.62c0,.14-46.2.26-103.17.26s-103.17-.12-103.17-.26,46.19-.26,103.17-.26S240.66,250.48,240.66,250.62Z" style="fill:#e0e0e0"></path><path d="M57.55,165.82,98,182.56S98,161,57.55,165.82Z" style="fill:#ebebeb"></path><path d="M56.71,171.45l4.93.21a148.46,148.46,0,0,0,10.67,43c9.49,23.08,12.44,34.91,12.44,34.91H75.56s-6.78-22.14-11.85-38.41C58,192.88,56.71,171.45,56.71,171.45Z" style="fill:#e0e0e0"></path><path d="M57.88,164.26l23.77,36.61S93.64,179,57.88,164.26Z" style="fill:#f5f5f5"></path><path d="M57.16,166.74l46.71-4.15S89.08,139.38,57.16,166.74Z" style="fill:#f5f5f5"></path><path d="M58.52,165.36,42.17,200.87S27.06,184.52,58.52,165.36Z" style="fill:#ebebeb"></path><path d="M61.14,163.91l-34,23.9S23.33,163.91,61.14,163.91Z" style="fill:#f5f5f5"></path><path d="M63.12,166.66l-42.89-4.37S37.21,143.74,63.12,166.66Z" style="fill:#ebebeb"></path><path d="M57.54,170.92l29.95-36.74S61.69,128.06,57.54,170.92Z" style="fill:#ebebeb"></path><path d="M63.67,170.46l-34.42-35S55.06,124.49,63.67,170.46Z" style="fill:#f5f5f5"></path><path d="M57.16,173.85a4.26,4.26,0,1,0,4.26-4.26A4.26,4.26,0,0,0,57.16,173.85Z" style="fill:#e0e0e0"></path><path d="M52.12,171.6a4.26,4.26,0,1,0,4.26-4.26A4.26,4.26,0,0,0,52.12,171.6Z" style="fill:#e0e0e0"></path><path d="M57.81,166.66a4.26,4.26,0,1,0,4.26-4.26A4.26,4.26,0,0,0,57.81,166.66Z" style="fill:#ebebeb"></path><path d="M52.62,164.33a4.26,4.26,0,1,0,4.26-4.26A4.26,4.26,0,0,0,52.62,164.33Z" style="fill:#ebebeb"></path><path d="M114.24,239.17c-4.64,1.26-9.5,3.51-14,1.9-2.47-.88-4.4-2.8-6.49-4.4a29.34,29.34,0,0,0-45.69,14h101.9C141.61,241.55,126.13,236,114.24,239.17Z" style="fill:#ebebeb"></path></g><g id="freepik--Wave--inject-1053"><path d="M468.47,214.85c3.06,77-30.91,157.63-96,199-27.41,17.4-58.78,27.33-89.75,37.06-25,7.85-50.24,15.75-76.36,17.25-8.86.51-18.18.17-26-4.12s-13.44-13.54-11-22.08c-12.81,5.21-26.35,10.52-40.06,8.7S102.2,437,103.8,423.28c-10.12,3.15-20.73,5.68-31.26,4.43s-21.06-6.94-25.62-16.51-1.2-22.93,8.48-27.26c-14.27,3.92-30.77-6.48-33.39-21.05s15.69-55.42,64.8-54.58l230.07,2.81,151.59-96.27" style="fill:#f5f5f5"></path><path d="M107,306c-10.67.44-19.24,3.42-29.93,11.12-3,2.16-7.84,9.62-8.3,13.28-.66,5.3,5.71,8.43,10.93,9.61A157.57,157.57,0,0,0,115,344c-4.55,2.49-9.2,5.08-12.53,9.05s-5,9.73-2.92,14.46c3.25,7.2,12.85,8.3,20.75,8.37l50.91.41c-4.09-.4-7.54,4-7.08,8.09s3.87,7.35,7.72,8.77,8.08,1.33,12.17,1c22.77-1.69,44.69-9.05,66.32-16.36-5.47,5-1,15.09,6.08,17.43s32,1.25,39.2-.44c74.07-17.3,84.93-31.71,119.76-64.4" style="fill:#e0e0e0"></path><path d="M107,306c29.41-1.29,73.86-4.68,94.18-26s38-51.62,30.05-80c-3-10.75-6.68-24.85-17.3-37.57-13.82-16.54,7.38-38.85,22.66-54.05s35.6-24.35,56.22-30.65c30.31-9.27,63.71-12.89,93.34-1.62s54,40.28,52.21,71.93c-1.64-6.45,4.2-13.18,10.82-13.93s13.08,3.3,16.89,8.76,5.43,12.13,6.57,18.7c10.83,62.46-14.39,138.15-68,177.35C369,365.1,321.23,374.44,277.15,377.46c-48.51,3.32-99-13.82-145.16-29-7.57-2.48-15.27-5.42-21-10.93S93.48,313.71,107,306" style="fill:#e0e0e0"></path><path d="M418,94.29C395.77,49.2,311.15,30.93,258,34.16S156.22,57.35,112.65,87.9c-7.09,5-15.38,13.63-17.77,22a17.91,17.91,0,0,0,9,20.93c7.62,3.79,16-4.09,19.41-11.92-10.61,3.92-12,23.55-7.74,34,4.86,11.88,19.5,9.35,30.54,6.93s20.86-11.83,29.11-19.56c-4.17,4.06-6.46,16.23-2.05,20s12.89,4.3,18.15,1.8S202,150,204.62,144.77c-3.85,5,3,17.86,9.33,17.75s11.32-6.66,15.2-11.69c-3.53,6.65.28,15.7,7.12,18.82s15.22,1,21.18-3.64,9.47-14.71,12.21-21.72,4.52-14.36,7.28-21.36c9.27-23.45,29.84-42,53.94-49.43s51.23-3.84,72.93,9" style="fill:#f5f5f5"></path><path d="M452.52,103.77s.11-.1.37-.24a4.74,4.74,0,0,1,1.17-.48,7.35,7.35,0,0,1,4.6.23,7.2,7.2,0,0,1,2.71,1.78,6.31,6.31,0,0,1,1.61,3.36,7.32,7.32,0,0,1-.52,4.07,6.71,6.71,0,0,1-2.93,3.31,6.57,6.57,0,0,1-4.37.58,7.14,7.14,0,0,1-3.65-1.9,5.86,5.86,0,0,1-1.72-3.31,6.53,6.53,0,0,1,.36-3.22,6.64,6.64,0,0,1,2.94-3.54,4.81,4.81,0,0,1,.67-.31,2.66,2.66,0,0,1,.51-.16,1.41,1.41,0,0,1,.43-.07,14.79,14.79,0,0,0-1.5.72,6.57,6.57,0,0,0-2.7,3.48,6.23,6.23,0,0,0-.28,3,5.45,5.45,0,0,0,1.63,3,6.67,6.67,0,0,0,3.41,1.74,6.11,6.11,0,0,0,4-.54,6.2,6.2,0,0,0,2.7-3,6.92,6.92,0,0,0,.52-3.8,5.92,5.92,0,0,0-1.46-3.14,7,7,0,0,0-2.52-1.73,7.37,7.37,0,0,0-4.42-.37A16.15,16.15,0,0,0,452.52,103.77Z" style="fill:#263238"></path><path d="M414,181.67a2.64,2.64,0,0,1,0-.41c0-.3-.05-.71-.08-1.22,0-1.08-.15-2.66-.32-4.69a133.5,133.5,0,0,0-10.27-41.44c-.48-1.11-1-2.23-1.49-3.34a31.3,31.3,0,0,0-1.66-3.33,14,14,0,0,0-2.33-2.94,6,6,0,0,0-3.25-1.72,3.75,3.75,0,0,0-3.29,1.35,8.51,8.51,0,0,0-1.53,3.57,33.67,33.67,0,0,1-1.08,4,6.57,6.57,0,0,1-2.63,3.32,7.1,7.1,0,0,1-4.13.94,10.94,10.94,0,0,1-9.49-6.94,23.82,23.82,0,0,1-1.53-7.63c-.15-2.53-.12-5-.22-7.41a28.68,28.68,0,0,0-3.25-13.07,16.34,16.34,0,0,0-3.9-4.69,14.68,14.68,0,0,0-5-2.65,10.55,10.55,0,0,0-9.29,1.18,10,10,0,0,0-3.86,6,7.76,7.76,0,0,0,.33,4.57,5.59,5.59,0,0,0,.54,1.08,2.47,2.47,0,0,1,.2.37,1.81,1.81,0,0,1-.24-.34,4.81,4.81,0,0,1-.6-1.07,7.77,7.77,0,0,1-.43-4.65,10.22,10.22,0,0,1,3.89-6.25A10.87,10.87,0,0,1,358.69,93a15,15,0,0,1,5.11,2.68,16.66,16.66,0,0,1,4,4.79,28.92,28.92,0,0,1,3.36,13.27c.11,2.42.08,4.89.24,7.4a23.12,23.12,0,0,0,1.51,7.47,10.05,10.05,0,0,0,5.21,5.57,10.16,10.16,0,0,0,3.83,1,6.57,6.57,0,0,0,3.83-.86,6,6,0,0,0,2.41-3.07,33.23,33.23,0,0,0,1.07-3.92,9,9,0,0,1,1.63-3.77,4.27,4.27,0,0,1,3.75-1.53,6.52,6.52,0,0,1,3.54,1.86,14.86,14.86,0,0,1,2.4,3,34.24,34.24,0,0,1,1.68,3.38c.54,1.12,1,2.25,1.49,3.36a131.58,131.58,0,0,1,7.66,24.48,128.2,128.2,0,0,1,2.38,17.13c.13,2,.2,3.63.22,4.7,0,.52,0,.93,0,1.23A2.56,2.56,0,0,1,414,181.67Z" style="fill:#fff"></path><path d="M410,255.74s0-.08.09-.23l.32-.63,1.29-2.43c.57-1,1.25-2.33,2-3.85s1.64-3.22,2.49-5.17c.44-1,.9-2,1.39-3s.91-2.19,1.4-3.34c1-2.29,1.9-4.81,2.9-7.44,1.88-5.29,3.72-11.2,5.28-17.5s2.61-12.4,3.38-18c.33-2.8.68-5.45.85-7.94.1-1.25.23-2.45.3-3.61s.11-2.27.17-3.33c.14-2.13.13-4,.17-5.74s0-3.15,0-4.34,0-2.07,0-2.74v-.71a1.15,1.15,0,0,1,0-.25.92.92,0,0,1,0,.24c0,.19,0,.43,0,.72,0,.67.07,1.58.12,2.74s.1,2.65.08,4.34,0,3.62-.1,5.75c0,1.07-.09,2.18-.13,3.35s-.18,2.36-.26,3.61c-.16,2.51-.5,5.17-.82,8a177.19,177.19,0,0,1-3.34,18,181,181,0,0,1-5.34,17.55c-1,2.63-1.94,5.15-2.95,7.44-.5,1.15-.95,2.28-1.44,3.33s-1,2.07-1.42,3c-.87,1.95-1.8,3.64-2.56,5.15s-1.48,2.79-2.07,3.82l-1.37,2.38-.37.61A1,1,0,0,1,410,255.74Z" style="fill:#263238"></path><path d="M386.34,176.72a5.55,5.55,0,0,1,.13.75c.07.54.16,1.26.28,2.15.05.48.12,1,.18,1.56s.09,1.2.13,1.87c.08,1.34.23,2.86.21,4.55,0,.85,0,1.73,0,2.65s-.06,1.88-.1,2.88c0,2-.27,4.1-.48,6.32A100.15,100.15,0,0,1,384,213.72,101.47,101.47,0,0,1,379,227.39c-1,2-1.84,4-2.82,5.68-.48.87-.91,1.73-1.38,2.52l-1.38,2.27c-.85,1.46-1.76,2.7-2.51,3.81-.38.55-.72,1.07-1.06,1.53l-1,1.25-1.35,1.71a4.27,4.27,0,0,1-.49.57,5.18,5.18,0,0,1,.41-.64l1.26-1.76.92-1.27c.33-.47.66-1,1-1.56.73-1.12,1.61-2.36,2.43-3.83l1.35-2.28c.46-.79.88-1.65,1.35-2.52,1-1.73,1.82-3.66,2.76-5.68a104.91,104.91,0,0,0,4.88-13.61,103.57,103.57,0,0,0,2.77-14.18c.22-2.21.47-4.31.53-6.29,0-1,.12-1.94.13-2.86s0-1.8,0-2.64c0-1.69-.08-3.21-.13-4.54,0-.67,0-1.29-.08-1.87s-.1-1.08-.15-1.56q-.1-1.35-.18-2.16A4,4,0,0,1,386.34,176.72Z" style="fill:#263238"></path><path d="M344,194.55a3.84,3.84,0,0,1,.35-.57l1.08-1.55.79-1.12c.28-.41.55-.88.86-1.38.6-1,1.35-2.1,2-3.41l1.08-2c.37-.71.68-1.49,1.05-2.27.75-1.55,1.36-3.29,2.05-5.1a70.25,70.25,0,0,0,3-12.22,71.16,71.16,0,0,0,.58-12.58c-.15-1.93-.24-3.77-.53-5.47-.13-.85-.21-1.68-.36-2.47s-.32-1.53-.46-2.25c-.26-1.45-.66-2.72-1-3.84-.15-.56-.28-1.09-.43-1.57l-.44-1.29c-.25-.74-.44-1.34-.6-1.8a2.67,2.67,0,0,1-.17-.64,3.47,3.47,0,0,1,.27.6c.18.46.41,1,.69,1.77l.49,1.28c.16.48.3,1,.47,1.56.32,1.13.76,2.4,1,3.85.15.72.32,1.47.49,2.26s.26,1.62.4,2.48c.31,1.71.42,3.56.58,5.51a63,63,0,0,1-3.61,25c-.7,1.82-1.33,3.57-2.11,5.12-.38.78-.7,1.56-1.08,2.27l-1.12,2c-.68,1.31-1.45,2.4-2.08,3.39-.32.49-.6.95-.9,1.36l-.82,1.1-1.17,1.5A2.87,2.87,0,0,1,344,194.55Z" style="fill:#fff"></path><path d="M373,285.63l.24-.19.73-.52c.63-.46,1.62-1.07,2.81-2a88.77,88.77,0,0,0,9.63-8.18,98.71,98.71,0,0,0,12.07-14.31,117,117,0,0,0,11.13-20c6.49-15,9.5-29.58,11.16-40.11.82-5.28,1.33-9.57,1.66-12.54.16-1.46.28-2.61.37-3.43l.11-.89a1,1,0,0,1,.05-.3,1.23,1.23,0,0,1,0,.31c0,.23,0,.52-.06.89-.05.79-.13,2-.27,3.44-.26,3-.72,7.28-1.5,12.58a161.43,161.43,0,0,1-11,40.26,115.7,115.7,0,0,1-11.22,20.09,96.52,96.52,0,0,1-12.2,14.3,82.68,82.68,0,0,1-9.77,8.08c-1.21.89-2.22,1.47-2.87,1.91l-.76.48Z" style="fill:#fff"></path><path d="M282.32,50.4a2.09,2.09,0,0,1-.44,0l-1.27-.08-4.91-.37-3.55-.28c-1.3-.07-2.71-.07-4.23-.12-3,0-6.49-.26-10.31-.06l-6,.17c-2.08.07-4.24.32-6.48.48l-3.41.28c-.58.05-1.17.08-1.75.15l-1.77.24-7.31,1A221.21,221.21,0,0,0,199,59.4,221,221,0,0,0,168.7,72.09l-6.49,3.51-1.56.85c-.52.29-1,.61-1.5.91l-2.93,1.79c-1.9,1.19-3.79,2.26-5.51,3.43L145.77,86c-3.2,2.09-5.87,4.3-8.29,6.13-1.2.93-2.33,1.77-3.34,2.59L131.44,97l-3.75,3.19-1,.82a2.27,2.27,0,0,1-.35.27,3.47,3.47,0,0,1,.31-.31l1-.86,3.69-3.26L134,94.51c1-.83,2.13-1.68,3.32-2.63,2.41-1.85,5.06-4.08,8.26-6.2l4.93-3.43c1.72-1.19,3.61-2.27,5.51-3.47l2.92-1.8c.5-.31,1-.63,1.5-.92L162,75.2l6.49-3.54a218.31,218.31,0,0,1,30.34-12.75,218.25,218.25,0,0,1,32-7.6l7.33-1,1.77-.24c.59-.06,1.17-.09,1.75-.14l3.42-.27c2.25-.15,4.41-.39,6.5-.45l6-.14c3.82-.17,7.28.07,10.32.14,1.52.06,2.94.08,4.23.17l3.55.32,4.91.46,1.27.14A2.33,2.33,0,0,1,282.32,50.4Z" style="fill:#fff"></path><path d="M295.49,90.24s-.08.1-.26.26l-.82.72c-.72.63-1.8,1.53-3.21,2.67-2.83,2.27-7,5.47-12.45,9-1.36.89-2.8,1.8-4.32,2.71s-3.08,1.89-4.82,2.73a8.94,8.94,0,0,1-5.86.94,6.13,6.13,0,0,1-2.81-1.46A8.27,8.27,0,0,1,259,105.2a12.43,12.43,0,0,1-1.11-6.54A23.52,23.52,0,0,1,259.87,92c.9-2.16,1.92-4.3,2.65-6.58a16.84,16.84,0,0,0,.48-1.72,5.79,5.79,0,0,0,.22-1.73,1.94,1.94,0,0,0-.68-1.43A2.37,2.37,0,0,0,261,80.1a8.62,8.62,0,0,0-3.43.93l-3.34,1.45-6.54,2.83-12.35,5.34a18,18,0,0,1-6.08,1.69,7.45,7.45,0,0,1-5.6-2,5,5,0,0,1-1.43-2.51,5.39,5.39,0,0,1,.17-2.77,17.51,17.51,0,0,1,2.47-4.5,115.44,115.44,0,0,1,9.47-12.1c1.22-1.35,2.19-2.37,2.86-3.05l.77-.77c.18-.17.27-.25.28-.24l-.24.28-.73.8c-.65.71-1.6,1.75-2.79,3.11a121.66,121.66,0,0,0-9.31,12.18,17.29,17.29,0,0,0-2.4,4.4,5.08,5.08,0,0,0-.14,2.57,4.6,4.6,0,0,0,1.32,2.29,7,7,0,0,0,5.27,1.8,17.51,17.51,0,0,0,5.92-1.67l12.34-5.37L254,82l3.34-1.45a9.12,9.12,0,0,1,3.64-1,2.91,2.91,0,0,1,1.9.58,2.46,2.46,0,0,1,.86,1.8,6.51,6.51,0,0,1-.23,1.88c-.14.6-.31,1.18-.49,1.76-.75,2.32-1.78,4.47-2.68,6.62a23.23,23.23,0,0,0-1.93,6.48,12.06,12.06,0,0,0,1,6.29,6.59,6.59,0,0,0,4.39,3.85,8.54,8.54,0,0,0,5.58-.89c1.7-.81,3.27-1.79,4.8-2.68s3-1.8,4.32-2.68c5.46-3.49,9.66-6.64,12.52-8.86l3.27-2.59.85-.68Z" style="fill:#fff"></path><path d="M243.22,124.43a1.16,1.16,0,0,1-.25.15l-.74.38c-.66.33-1.64.79-2.95,1.3a41.06,41.06,0,0,1-11.53,2.65,42.2,42.2,0,0,1-8.21-.13A30,30,0,0,1,215,128a13.53,13.53,0,0,1-4.45-2.07,8.86,8.86,0,0,1-3.08-4.14,12.34,12.34,0,0,1-.62-5.35c.35-3.71,2.14-7.15,3.95-10.52l.29.37-1.65.42L187.88,112a26.17,26.17,0,0,1-5,.81,9.25,9.25,0,0,1-4.68-.91,7.12,7.12,0,0,1-3.08-3.21,9.74,9.74,0,0,1-.94-4A12,12,0,0,1,176.13,98a23.59,23.59,0,0,1,3.31-4.13c1-1,1.85-1.78,2.42-2.29l.65-.57.23-.18s-.06.08-.2.22l-.61.61c-.55.53-1.36,1.31-2.35,2.35a24.67,24.67,0,0,0-3.2,4.13,11.7,11.7,0,0,0-1.79,6.54,9.33,9.33,0,0,0,.93,3.83,6.68,6.68,0,0,0,2.92,3,8.74,8.74,0,0,0,4.46.83,25,25,0,0,0,4.87-.82l21.56-5.4,1.65-.41.57-.14-.27.51c-1.81,3.37-3.56,6.76-3.91,10.33a11.92,11.92,0,0,0,.58,5.13,8.35,8.35,0,0,0,2.91,3.93,13,13,0,0,0,4.28,2,30.26,30.26,0,0,0,4.45.85,43.26,43.26,0,0,0,8.13.19,42.82,42.82,0,0,0,11.49-2.48c1.31-.47,2.31-.9,3-1.2l.77-.34Z" style="fill:#fff"></path><path d="M378.72,333.58s-.17.1-.51.26l-1.51.71c-1.32.64-3.31,1.52-5.89,2.65a235.81,235.81,0,0,1-22.58,8.26,280.93,280.93,0,0,1-35.29,8.45,67.86,67.86,0,0,1-10.58,1.29,18.93,18.93,0,0,1-10.78-2.73,13.28,13.28,0,0,1-4.12-4.12,9.18,9.18,0,0,1-1.4-5.75,9.39,9.39,0,0,1,2.58-5.46,7,7,0,0,1,5.66-2.24l1.54.15-1.51.35c-9.25,2.1-18.92,4-28.89,5.6q-8.79,1.41-17.35,2.45c-2.85.32-5.66.74-8.5.8a17.48,17.48,0,0,1-8.24-1.52,8.9,8.9,0,0,1-3.17-2.7,8.8,8.8,0,0,1-1.51-3.84,12.46,12.46,0,0,1,1.68-7.75,18.94,18.94,0,0,1,5.33-5.58A59.45,59.45,0,0,1,240,319l.15.43c-11.52,1.92-22.17,3.41-31.65,4.56-2.37.28-4.66.57-6.89.78a22.54,22.54,0,0,1-6.48-.18,9.62,9.62,0,0,1-5.28-2.76,9.4,9.4,0,0,1-2.31-4.92,13.57,13.57,0,0,1,1.78-8.93,24.93,24.93,0,0,1,4.26-5.32,53.53,53.53,0,0,1,4.25-3.78l-.26.26-.81.72c-.71.65-1.78,1.58-3.08,2.9a24.83,24.83,0,0,0-4.17,5.33,13.34,13.34,0,0,0-1.7,8.77,9.12,9.12,0,0,0,2.26,4.76,9.41,9.41,0,0,0,5.12,2.65c4.06.77,8.54-.16,13.26-.66,9.47-1.18,20.11-2.69,31.63-4.64l1.33-.22-1.18.65a59.54,59.54,0,0,0-6.29,3.85,18.55,18.55,0,0,0-5.18,5.44,11.91,11.91,0,0,0-1.61,7.44,8.19,8.19,0,0,0,1.41,3.61,8.32,8.32,0,0,0,3,2.55,16.89,16.89,0,0,0,8,1.45c2.79-.05,5.6-.48,8.45-.8,5.69-.69,11.48-1.5,17.33-2.44,9.95-1.6,19.61-3.49,28.86-5.59l0,.5a6.52,6.52,0,0,0-5.25,2.09,9,9,0,0,0-2.44,5.16,8.72,8.72,0,0,0,1.32,5.45,12.79,12.79,0,0,0,4,4,18.48,18.48,0,0,0,10.52,2.67,66.39,66.39,0,0,0,10.5-1.26,285.19,285.19,0,0,0,35.28-8.32c9.77-3,17.41-6,22.6-8.12,2.59-1.1,4.59-1.95,5.92-2.56l1.53-.67Z" style="fill:#fff"></path><path d="M184.89,187.31a10.67,10.67,0,0,0-12.81-4.71h0c-5.26,1.19-7,7.82-5.15,12.9s8.39,7.78,13.29,5.53A10.41,10.41,0,0,0,184.89,187.31Z" style="fill:#f5f5f5"></path><path d="M184.89,187.31a7,7,0,0,1,.91,2.29,10.66,10.66,0,0,1-.71,6.64,10.42,10.42,0,0,1-2.81,3.74,8.91,8.91,0,0,1-4.95,2,11.16,11.16,0,0,1-2.93-.17,11.56,11.56,0,0,1-2.89-1,11.42,11.42,0,0,1-2.57-1.84,9.81,9.81,0,0,1-1.9-2.67,12.22,12.22,0,0,1-.45-8.68,8.56,8.56,0,0,1,2.13-3.48,7.08,7.08,0,0,1,3.34-1.8l.14.42h0l-.17-.41a10.58,10.58,0,0,1,6.11-.29,10.89,10.89,0,0,1,4.24,2,9.45,9.45,0,0,1,2,2.23c.19.29.3.53.39.69s.12.24.11.25a11.85,11.85,0,0,0-2.7-3,10.91,10.91,0,0,0-4.17-1.89,10.29,10.29,0,0,0-5.86.36l-.17-.41h0l.14.41a6.71,6.71,0,0,0-3.11,1.71,8.22,8.22,0,0,0-2,3.3,11.77,11.77,0,0,0,.44,8.3,9.38,9.38,0,0,0,1.79,2.52,11,11,0,0,0,2.45,1.76,11.16,11.16,0,0,0,2.75,1,10.92,10.92,0,0,0,2.78.17,8.56,8.56,0,0,0,4.73-1.89,10.26,10.26,0,0,0,2.75-3.56,10.7,10.7,0,0,0,.84-6.45A19.91,19.91,0,0,0,184.89,187.31Z" style="fill:#263238"></path><path d="M419.2,96.33s-.18-.26-.52-.78l-1.48-2.34c-.62-1-1.5-2.26-2.54-3.7-.53-.71-1.06-1.51-1.7-2.31l-2.06-2.53a96,96,0,0,0-11.8-11.93A124.88,124.88,0,0,0,381,59.93a169.67,169.67,0,0,0-24.36-11.52c-4.54-1.7-9.28-3.35-14.23-4.8s-10.1-2.83-15.42-4-10.81-2.24-16.45-3.1-11.43-1.57-17.34-2-11.95-.75-18.08-.74c-1.53,0-3.06,0-4.61,0s-3.08.14-4.64.2-3.1.13-4.66.24l-4.69.38a272.52,272.52,0,0,0-69,15.54c-10.27,3.69-19.84,7.7-28.62,11.82S142,70.28,134.74,74.15q-5.48,2.89-10.27,5.74c-3.18,1.91-6.1,3.85-8.74,5.79a62,62,0,0,0-12.08,11.58,55.75,55.75,0,0,0-3.49,5c-.86,1.54-1.61,2.85-2.14,3.94s-.88,1.94-1.15,2.51-.4.86-.4.86.11-.3.35-.88.62-1.43,1.1-2.54,1.26-2.41,2.11-4a56.48,56.48,0,0,1,3.46-5.08,61.25,61.25,0,0,1,12.07-11.68c2.63-2,5.55-3.92,8.74-5.84s6.62-3.85,10.27-5.79c7.28-3.88,15.27-8.13,24.06-12.27S177,53.37,187.27,49.66a272.22,272.22,0,0,1,69.15-15.6l4.7-.38c1.56-.11,3.13-.15,4.68-.23s3.1-.16,4.65-.21,3.09-.06,4.62-.05c6.14,0,12.19.28,18.12.76s11.72,1.19,17.37,2.06,11.16,1.9,16.49,3.12,10.49,2.54,15.44,4S352.2,46.3,356.74,48a168,168,0,0,1,24.39,11.6,124.74,124.74,0,0,1,18.16,12.91,95.52,95.52,0,0,1,11.77,12l2,2.55c.64.8,1.16,1.61,1.68,2.33,1,1.45,1.9,2.68,2.51,3.74l1.44,2.36C419.05,96.05,419.2,96.33,419.2,96.33Z" style="fill:#263238"></path><path d="M122.41,126.25s-.08.14-.26.38a9.14,9.14,0,0,1-.87,1,14,14,0,0,1-4,2.87,16.47,16.47,0,0,1-7,1.73,14.57,14.57,0,0,1-14.21-9.12A16.48,16.48,0,0,1,94.71,116a14.31,14.31,0,0,1,1-4.8,9.83,9.83,0,0,1,.56-1.21q.21-.4.24-.39s-.24.59-.61,1.67a15.08,15.08,0,0,0-.78,4.73,16.64,16.64,0,0,0,1.43,6.93,14.27,14.27,0,0,0,13.76,8.83,16.59,16.59,0,0,0,6.89-1.58,15.21,15.21,0,0,0,4-2.69C122,126.71,122.37,126.21,122.41,126.25Z" style="fill:#263238"></path><path d="M163,128.14l.3-.12a4.08,4.08,0,0,1,.92-.24,6.76,6.76,0,0,1,3.59.45,8.22,8.22,0,0,1,4.24,3.82,10.6,10.6,0,0,1,.62,7.52,16.93,16.93,0,0,1-4.88,7.8,52.53,52.53,0,0,1-8.47,6.38A67.09,67.09,0,0,1,148.87,159a51.58,51.58,0,0,1-12.11,3.41,26.13,26.13,0,0,1-12.5-1,15.17,15.17,0,0,1-8.6-7.74,19.73,19.73,0,0,1-1.61-10.44,25,25,0,0,1,1-4.72,30.26,30.26,0,0,1,1.67-4.12,53.25,53.25,0,0,1,7.63-11c1-1.19,1.85-2.09,2.41-2.71.27-.28.48-.51.64-.69s.23-.23.24-.22a2,2,0,0,1-.2.26l-.6.72-2.34,2.77a55.68,55.68,0,0,0-7.45,11,30.54,30.54,0,0,0-1.62,4.07,25.14,25.14,0,0,0-.91,4.66,19.37,19.37,0,0,0,1.61,10.19,14.72,14.72,0,0,0,8.35,7.46,25.67,25.67,0,0,0,12.25,1,51.44,51.44,0,0,0,12-3.37,68,68,0,0,0,10.38-5.23,52.41,52.41,0,0,0,8.42-6.28,16.63,16.63,0,0,0,4.82-7.58,10.29,10.29,0,0,0-.52-7.3,8,8,0,0,0-4.05-3.76,6.78,6.78,0,0,0-3.51-.54C163.41,128,163,128.17,163,128.14Z" style="fill:#263238"></path><path d="M201.48,150a2,2,0,0,1-.17.54,15.39,15.39,0,0,1-.62,1.51,24.2,24.2,0,0,1-3.17,5.09,20.3,20.3,0,0,1-6.91,5.58,16.84,16.84,0,0,1-10.74,1.34,14.65,14.65,0,0,1-5.23-2.22,11,11,0,0,1-2-1.79,6.21,6.21,0,0,1-.8-1.07,9,9,0,0,1-.61-1.14,15.83,15.83,0,0,1-1.24-4.62,21.92,21.92,0,0,1-.12-4.16,21.07,21.07,0,0,1,1.12-5.88,11.28,11.28,0,0,1,.68-1.49q.27-.5.3-.48c.05,0-.35.7-.78,2a22.82,22.82,0,0,0-1,5.84,23.14,23.14,0,0,0,.19,4.08,15.59,15.59,0,0,0,1.24,4.48,9.09,9.09,0,0,0,3.32,3.78,14.42,14.42,0,0,0,5,2.13,17,17,0,0,0,5.5.19,16.56,16.56,0,0,0,4.92-1.46,20.3,20.3,0,0,0,6.84-5.38,26.22,26.22,0,0,0,3.27-4.94C201.15,150.7,201.44,150,201.48,150Z" style="fill:#263238"></path><path d="M231.86,138.27a2,2,0,0,1,0,.56c0,.38-.05.92-.12,1.63a47.58,47.58,0,0,1-.89,5.92,27.16,27.16,0,0,1-3.24,8.29,17.53,17.53,0,0,1-8.11,7.18,12.77,12.77,0,0,1-10.72-.49,10.38,10.38,0,0,1-3.54-3.24,16.87,16.87,0,0,1-2-3.68,15,15,0,0,1-1.09-5.89,7.79,7.79,0,0,1,.24-1.62,2.18,2.18,0,0,1,.19-.54,12.83,12.83,0,0,0,1,7.92,16.86,16.86,0,0,0,2,3.56,10.19,10.19,0,0,0,3.42,3.07,12.41,12.41,0,0,0,10.3.43,17.19,17.19,0,0,0,7.89-7,27.07,27.07,0,0,0,3.29-8.11,55.6,55.6,0,0,0,1-5.86c.09-.66.16-1.19.22-1.62A2.15,2.15,0,0,1,231.86,138.27Z" style="fill:#263238"></path><path d="M429.48,110.21s-.15-.2-.41-.6l-1.18-1.8c-.52-.79-1.12-1.79-1.91-2.92l-2.88-3.8a28.1,28.1,0,0,0-1.81-2.17l-2.07-2.35c-.69-.84-1.54-1.6-2.37-2.44s-1.72-1.69-2.62-2.59a95.32,95.32,0,0,0-13.82-10.33,91.41,91.41,0,0,0-19-8.67,84.33,84.33,0,0,0-23.57-4.07,79.93,79.93,0,0,0-26.14,3.68c-.55.17-1.11.32-1.65.51l-1.63.61-3.27,1.23c-1.1.41-2.14,1-3.22,1.43s-2.15,1-3.21,1.51a91.29,91.29,0,0,0-12.26,7.61,87,87,0,0,0-19.88,20.23l-1.91,2.86c-.31.47-.65.93-.93,1.42l-.85,1.48L281.22,114c-.57,1-1,2-1.48,3s-.95,2-1.42,3-.78,2-1.18,3-.79,2-1.14,3-.67,2-1,3c-2.43,8.1-4.1,16.05-7.21,23s-7.48,12.84-13.12,16.1-11.9,4-16.78,2.32a14.23,14.23,0,0,1-6-3.78,15.6,15.6,0,0,1-3.23-5,13.35,13.35,0,0,1-.65-8.15,10.24,10.24,0,0,1,.77-2l.34-.65s-.09.24-.29.67a11.26,11.26,0,0,0-.72,2,13.23,13.23,0,0,0,.74,8,15.36,15.36,0,0,0,3.22,4.93,14,14,0,0,0,5.91,3.67c4.8,1.61,11,.89,16.5-2.36a27,27,0,0,0,7.42-6.62,43,43,0,0,0,5.5-9.33c3.07-6.88,4.71-14.82,7.14-22.95.3-1,.63-2,1-3.06s.76-2,1.15-3,.78-2,1.18-3.07l1.43-3c.49-1,.91-2,1.48-3l1.68-3,.84-1.48c.29-.5.63-1,.94-1.44l1.93-2.87a87.2,87.2,0,0,1,20-20.36A90.77,90.77,0,0,1,318.49,77c1.06-.55,2.16-1,3.23-1.52s2.13-1,3.24-1.43l3.29-1.24,1.63-.62c.55-.18,1.11-.33,1.67-.5A80.07,80.07,0,0,1,357.85,68a84.76,84.76,0,0,1,23.7,4.14,92,92,0,0,1,19.06,8.76,94.94,94.94,0,0,1,13.81,10.44L417,93.94c.83.85,1.68,1.61,2.37,2.46s1.39,1.62,2,2.37a28.14,28.14,0,0,1,1.8,2.2l2.84,3.83c.78,1.15,1.37,2.16,1.88,3l1.13,1.83C429.37,110,429.48,110.21,429.48,110.21Z" style="fill:#263238"></path><path d="M373,365.68s.22-.18.66-.51l2-1.45c1.73-1.29,4.35-3.11,7.63-5.57,6.57-4.9,16.05-12.07,26.91-21.92A196.49,196.49,0,0,0,426.83,319a178.45,178.45,0,0,0,16-22.36c2.54-4.11,5-8.44,7.44-12.88,1.24-2.21,2.43-4.48,3.67-6.76s2.35-4.63,3.54-7a158.44,158.44,0,0,0,10.87-30.69,180.64,180.64,0,0,0,3.75-19.71c.39-3.27.83-6.5,1.05-9.72.12-1.61.3-3.2.37-4.8s.15-3.17.23-4.75a232.07,232.07,0,0,0-1.45-35.82c-.61-5.58-1.35-11-3.13-15.86a26.33,26.33,0,0,0-3.51-6.67,20.49,20.49,0,0,0-5.2-4.95,15,15,0,0,0-6.32-2.42,11,11,0,0,0-3.24,0,12,12,0,0,0-3.05.84A12.34,12.34,0,0,0,443,139a9.53,9.53,0,0,0-2.14,5.08l-.07.73-.23-.7-6.76-21.31c-.77-2.46-1.37-4.36-1.77-5.65-.2-.64-.34-1.12-.45-1.46s-.14-.5-.14-.5.07.16.18.49l.49,1.44,1.84,5.63c1.61,4.94,3.94,12.15,6.9,21.27l-.29,0a9.81,9.81,0,0,1,2.18-5.25,12.58,12.58,0,0,1,4.94-3.63,12.13,12.13,0,0,1,3.12-.87,11.39,11.39,0,0,1,3.35,0,15.31,15.31,0,0,1,6.49,2.45,20.91,20.91,0,0,1,5.31,5,26.94,26.94,0,0,1,3.59,6.78c1.81,4.93,2.55,10.37,3.17,15.95a229,229,0,0,1,1.5,35.89c-.07,1.58-.15,3.17-.22,4.77s-.25,3.19-.37,4.81c-.22,3.22-.66,6.46-1,9.74a185.1,185.1,0,0,1-3.76,19.77,159.64,159.64,0,0,1-10.92,30.78c-1.2,2.36-2.33,4.72-3.55,7s-2.44,4.55-3.68,6.76c-2.47,4.44-4.92,8.77-7.48,12.9a178.68,178.68,0,0,1-16,22.38,196.83,196.83,0,0,1-16.68,17.26,337.68,337.68,0,0,1-27,21.81c-3.3,2.43-5.93,4.23-7.69,5.48l-2,1.41C373.28,365.53,373,365.68,373,365.68Z" style="fill:#263238"></path><path d="M443,438.64s-.06.1-.22.27-.38.43-.7.74a12.78,12.78,0,0,1-3.28,2.16,17.64,17.64,0,0,1-6,1.43,28.83,28.83,0,0,1-8.19-.77c-3-.71-6.11-1.87-9.49-3a37.75,37.75,0,0,0-11.06-2.31,12.52,12.52,0,0,0-1.5,0c-.51,0-1,0-1.52.1a29.9,29.9,0,0,0-3,.55,38.13,38.13,0,0,0-6.07,2c-4,1.63-8,3.78-12.36,5.53a30.18,30.18,0,0,1-13.28,2.6A40.22,40.22,0,0,1,354,444.91c-3.75-1.47-7.22-3.08-10.55-4.36a44.82,44.82,0,0,0-4.88-1.61,36.48,36.48,0,0,0-4.66-.88c-6-.8-11,.49-13.86,2.28a16.94,16.94,0,0,0-3.91,3.47,1.68,1.68,0,0,1,.2-.28l.63-.8a14,14,0,0,1,3-2.56c2.86-1.87,7.92-3.24,14-2.48a37.16,37.16,0,0,1,4.72.86,44.78,44.78,0,0,1,4.94,1.59c3.35,1.28,6.83,2.87,10.56,4.33a40.16,40.16,0,0,0,12.12,3,29.69,29.69,0,0,0,13.06-2.58c4.28-1.73,8.28-3.87,12.36-5.52a38,38,0,0,1,6.15-2,27.58,27.58,0,0,1,3.1-.55c.51-.06,1-.07,1.54-.1a11.36,11.36,0,0,1,1.54,0,38,38,0,0,1,11.18,2.38c3.39,1.14,6.51,2.32,9.45,3a29.07,29.07,0,0,0,8.09.84,17.57,17.57,0,0,0,6-1.33A13.34,13.34,0,0,0,443,438.64Z" style="fill:#263238"></path><path d="M198.86,456.74s-.08.09-.24.25-.41.4-.76.69a12.8,12.8,0,0,1-3.42,1.92,17.64,17.64,0,0,1-6.12,1,28.66,28.66,0,0,1-8.11-1.35c-2.92-.91-6-2.29-9.27-3.65a37.8,37.8,0,0,0-10.87-3.07,12.46,12.46,0,0,0-1.5-.07c-.5,0-1,0-1.52,0a29.65,29.65,0,0,0-3.07.33,39.41,39.41,0,0,0-6.2,1.57c-4.14,1.35-8.28,3.21-12.71,4.65a30.12,30.12,0,0,1-13.43,1.67,40.24,40.24,0,0,1-12-3.93c-3.63-1.74-7-3.58-10.21-5.09a43.44,43.44,0,0,0-4.76-1.95,37.67,37.67,0,0,0-4.59-1.21c-6-1.22-11-.28-14,1.31A17,17,0,0,0,71.93,453a3.46,3.46,0,0,1,.22-.27l.69-.75A13.63,13.63,0,0,1,76,449.64c3-1.67,8.13-2.68,14.15-1.49a36,36,0,0,1,4.64,1.19,45.26,45.26,0,0,1,4.82,1.93c3.26,1.51,6.62,3.34,10.24,5.06a40.15,40.15,0,0,0,11.87,3.85,29.82,29.82,0,0,0,13.21-1.65c4.39-1.43,8.54-3.29,12.72-4.65a39.39,39.39,0,0,1,6.27-1.57A30.5,30.5,0,0,1,157,452c.52,0,1,0,1.55,0a12.86,12.86,0,0,1,1.53.07,38,38,0,0,1,11,3.15c3.3,1.38,6.33,2.77,9.21,3.7a28.85,28.85,0,0,0,8,1.41,17.79,17.79,0,0,0,6.06-.91A13.79,13.79,0,0,0,198.86,456.74Z" style="fill:#263238"></path><path d="M437.42,334.52a1,1,0,0,1-.15.25l-.48.7-1.91,2.67c-.82,1.16-1.85,2.57-3.1,4.16s-2.62,3.44-4.26,5.39L425,350.78c-.89,1.07-1.86,2.14-2.84,3.27-1.95,2.28-4.15,4.61-6.44,7.08-4.66,4.86-10,10.05-15.79,15.19S388.22,386,382.79,390c-2.74,1.95-5.34,3.83-7.85,5.46-1.25.82-2.44,1.65-3.62,2.39L367.93,400c-2.14,1.38-4.16,2.5-5.9,3.53s-3.27,1.87-4.53,2.53l-2.89,1.55-.76.39a1,1,0,0,1-.27.11l.25-.16.73-.44,2.84-1.62c1.25-.7,2.76-1.56,4.48-2.61s3.73-2.19,5.86-3.59l3.37-2.14c1.16-.75,2.35-1.58,3.59-2.41,2.5-1.65,5.08-3.53,7.81-5.49,5.4-4,11.21-8.59,17.06-13.69s11.12-10.29,15.79-15.13c2.29-2.46,4.5-4.77,6.45-7,1-1.13,2-2.19,2.86-3.25l2.56-3.06c1.66-1.93,3.06-3.76,4.32-5.34s2.32-3,3.17-4.1l2-2.61.53-.67A1.51,1.51,0,0,1,437.42,334.52Z" style="fill:#263238"></path><path d="M205.85,274.2a4.32,4.32,0,0,1-.24.42l-.74,1.18a18.19,18.19,0,0,1-1.3,1.87,30,30,0,0,1-1.95,2.42l-1.24,1.38c-.45.47-.95.93-1.46,1.43l-.79.76-.87.73c-.59.49-1.19,1-1.85,1.53a58,58,0,0,1-9.58,6,91.17,91.17,0,0,1-12.67,5.16c-2.35.75-4.78,1.49-7.31,2.15s-5.17,1.25-7.85,1.9a284.14,284.14,0,0,1-35.5,5.62c-12.7,1.22-24.85,1.69-35.9,1.83s-21-.05-29.35-.29-15.11-.5-19.77-.69l-5.38-.25-1.39-.07a4.41,4.41,0,0,1-.48-.05h.48l1.4,0,5.38.14,19.77.54c8.35.19,18.29.32,29.33.17s23.18-.65,35.86-1.87a289.08,289.08,0,0,0,35.44-5.57c2.68-.64,5.32-1.19,7.84-1.87s5-1.38,7.29-2.12a90.34,90.34,0,0,0,12.64-5.08,57.87,57.87,0,0,0,9.57-5.87c.67-.48,1.26-1,1.86-1.5q.43-.37.87-.72l.79-.75c.51-.49,1-1,1.47-1.4l1.25-1.36c.81-.84,1.41-1.68,2-2.38a19.65,19.65,0,0,0,1.33-1.84l.79-1.15Z" style="fill:#263238"></path></g><g id="freepik--Character--inject-1053"><path d="M208.08,418.22c-30.81,12.84-56.41,15.2-84.9,10.94-4.13-.62-8.37-1.46-11.79-3.85s-5.81-6.73-4.7-10.75c.91-3.28,3.8-5.57,6.58-7.52,30.64-21.54,67.55-31.93,103.81-41.32,32.58-8.43,65.74-16.42,99.39-15.86,3.06.05,6.59.41,8.35,2.93,1.64,2.36.91,5.76-.92,8s-4.5,3.54-7.08,4.8L208.08,418.22" style="fill:#FFC100"></path><g style="opacity:0.30000000000000004"><path d="M178.15,378.38a6.41,6.41,0,0,1-.71.36l-2.07,1c-1.8.82-4.42,2-7.67,3.34-6.5,2.77-15.57,6.39-25.48,10.64s-18.72,8.49-24.73,12.16a19.24,19.24,0,0,0-6,5.6,16.29,16.29,0,0,0-1.34,2.74,8.92,8.92,0,0,1,1.16-2.85,18.91,18.91,0,0,1,6-5.8c6-3.78,14.82-8,24.73-12.33s19-7.82,25.54-10.5l7.73-3.19,2.11-.86A3.4,3.4,0,0,1,178.15,378.38Z" style="fill:#fff"></path></g><path d="M149.32,431.37a10,10,0,0,1-1.11-1.11c-.68-.74-1.66-1.82-2.85-3.17-2.4-2.69-5.65-6.46-9.2-10.65l-9.07-10.75c-1.11-1.32-2-2.42-2.73-3.27a11.15,11.15,0,0,1-1-1.24,8.12,8.12,0,0,1,1.11,1.11c.68.74,1.66,1.82,2.86,3.16,2.39,2.7,5.64,6.46,9.19,10.65l9.07,10.75,2.74,3.27A10,10,0,0,1,149.32,431.37Z" style="fill:#fff"></path><path d="M178.93,427.37c-.11.09-7.72-8.41-17-19s-16.74-19.24-16.63-19.33,7.73,8.4,17,19S179,427.28,178.93,427.37Z" style="fill:#fff"></path><path d="M204.14,419.83c-.11.1-7.94-8.85-17.49-20s-17.22-20.24-17.11-20.33,8,8.85,17.5,20S204.25,419.74,204.14,419.83Z" style="fill:#fff"></path><path d="M227.18,409c-.11.1-6.78-7.49-14.9-16.95s-14.61-17.21-14.5-17.3,6.78,7.5,14.9,17S227.29,408.87,227.18,409Z" style="fill:#fff"></path><path d="M250,397.9c-.11.09-6.6-7.29-14.49-16.49s-14.2-16.72-14.09-16.82,6.59,7.29,14.49,16.49S250.15,397.8,250,397.9Z" style="fill:#fff"></path><path d="M272.56,387a7.64,7.64,0,0,1-1-1c-.65-.69-1.56-1.71-2.67-3-2.23-2.54-5.23-6.1-8.49-10.08s-6.16-7.5-8.36-10.17l-2.54-3.08a7.74,7.74,0,0,1-.89-1.17,7.91,7.91,0,0,1,1,1c.64.69,1.55,1.7,2.67,3,2.23,2.53,5.23,6.09,8.49,10.08l8.36,10.17,2.54,3.07A7.15,7.15,0,0,1,272.56,387Z" style="fill:#fff"></path><path d="M295.77,375.76a5.53,5.53,0,0,1-.88-.85c-.53-.57-1.3-1.4-2.23-2.44-1.87-2.08-4.4-5-7.15-8.26l-7-8.35-2.11-2.55a5.44,5.44,0,0,1-.72-1,5.73,5.73,0,0,1,.87.85c.54.56,1.3,1.4,2.24,2.44,1.86,2.08,4.4,5,7.14,8.26l7,8.35,2.11,2.55A6.17,6.17,0,0,1,295.77,375.76Z" style="fill:#fff"></path><path d="M318.62,364.68a16,16,0,0,1-2-2c-1.19-1.31-2.84-3.11-4.54-5.22s-3.31-3.94-4.43-5.31a16,16,0,0,1-1.74-2.28,17.27,17.27,0,0,1,2,2c1.19,1.31,2.84,3.11,4.55,5.22s3.3,3.94,4.42,5.31A15.75,15.75,0,0,1,318.62,364.68Z" style="fill:#fff"></path><g style="opacity:0.30000000000000004"><path d="M264.19,359.33c-1.85,2.83-.17,6.81,2.51,8.86s6.11,2.84,9.23,4.13,5.82,3,8.92,4.08,6.72,1.25,9.46-.54c1.75-1.15,3-3.35,2.38-5.35-.57-1.82-2.44-2.86-4.17-3.67a111.94,111.94,0,0,0-25.2-8.35"></path></g><g style="opacity:0.30000000000000004"><path d="M182.53,382.46a128,128,0,0,0,4.37,35.38,8.49,8.49,0,0,0,1.47,3.46c2.2,2.62,6.34,1.84,9.6.83a32.68,32.68,0,0,0,7.69-3.13,11,11,0,0,0,5.07-6.35c1-3.95-1-8-3-11.5-4.07-7.19-8.43-14.42-14.68-19.83-1.79-1.55-3.92-3-6.29-2.94s-4.76,2.31-4.09,4.58"></path></g><path d="M324.63,352s-.07.19-.23.57a15.76,15.76,0,0,1-.79,1.64,22.53,22.53,0,0,1-4.26,5.52,39,39,0,0,1-9.09,6.26c-1.92,1-4,1.93-6.25,2.94l-7,3.19c-19.74,8.94-46.8,21.75-76.87,35.52a199.72,199.72,0,0,1-44.08,15,184.35,184.35,0,0,1-20.13,3.06,166.78,166.78,0,0,1-17.73.59c-1.36,0-2.68-.11-4-.17s-2.54-.09-3.76-.22l-3.54-.34c-1.15-.09-2.26-.21-3.32-.38l-3.09-.44c-1-.13-2-.26-2.85-.47a21.9,21.9,0,0,1-4.81-1.57c-2.78-1.26-4.53-3.09-5.11-4.6l-.22-.52c0-.17-.09-.33-.13-.48a3,3,0,0,1-.14-.75c0-.4,0-.61,0-.61a8.94,8.94,0,0,0,.63,2.32c.61,1.47,2.35,3.23,5.11,4.46a22.68,22.68,0,0,0,4.77,1.51c.9.19,1.85.32,2.84.45l3.08.41c1.07.16,2.17.27,3.32.36l3.54.32c1.21.12,2.47.13,3.75.2s2.6.16,4,.16a169.54,169.54,0,0,0,17.68-.66,186.31,186.31,0,0,0,20.07-3.1,199.94,199.94,0,0,0,44-15C250,393.4,277,380.64,296.82,371.79l7.06-3.17c2.23-1,4.33-1.91,6.24-2.89a39,39,0,0,0,9.09-6.15,23.49,23.49,0,0,0,4.31-5.42c.41-.69.65-1.24.83-1.61S324.63,352,324.63,352Z" style="fill:#263238"></path><path d="M223.8,237.39c-2.06,2.54-13.7,7.83-13.52,20.6S233,312.82,233,312.82l-43.25,59.49,13.43,11.92L252.85,327a21.28,21.28,0,0,0,5-16.87l-4.64-33.51Z" style="fill:#eb996e"></path><path d="M191.89,370c-.59.57-7,7-7,7s-3.12,3.9-2.43,4.69c2.7,3.09,24.82,22.72,24.82,22.72s2.71.42.08-7.17-4.18-13-4.18-13l5.8-6.69Z" style="fill:#eb996e"></path><polygon points="333.23 210.82 357.99 235.11 400.88 243.97 398.42 257.37 351.95 251.42 319.4 229.86 333.23 210.82" style="fill:#eb996e"></polygon><path d="M398.1,244.35c.7-.46,1.5-1,2.41-1.73a9.13,9.13,0,0,0,2-2.2,14,14,0,0,0,1.69-3.31,1.12,1.12,0,0,1,2.11-.36c.38,1,.18,4.43-2.08,7.33a1.5,1.5,0,0,0,.78,2.14c2.25,1.15,10.24,4.75,11.5,5.55s2.16,1.86.88,1.91-8-1.77-8-1.77,8.88,2.21,8.5,3.49c-.27.88-2.75,1-8.48-1,0,0,7.31,1.88,8,2.75,1.54,2-7.27-.2-7.27-.2,6.15,1.58,6.13,1.24,6.09,2.11,0,.65-1.47.73-4.91.35-2.8-.3-14.8-2.31-14.8-2.31" style="fill:#eb996e"></path><path d="M406.38,256.06a16.65,16.65,0,0,0,4.17,1.25,16.33,16.33,0,0,0,4.31.69,16.86,16.86,0,0,0-4.18-1.25A16.13,16.13,0,0,0,406.38,256.06Z" style="fill:#aa6550"></path><path d="M406.73,253.63a19.34,19.34,0,0,0,4.38,1.58,19,19,0,0,0,4.53,1c.05-.16-1.91-.87-4.37-1.59A18.58,18.58,0,0,0,406.73,253.63Z" style="fill:#aa6550"></path><path d="M407.12,251.11a17.18,17.18,0,0,0,4.11,1.57,17.47,17.47,0,0,0,4.28,1,16.7,16.7,0,0,0-4.11-1.57A16.94,16.94,0,0,0,407.12,251.11Z" style="fill:#aa6550"></path><path d="M252,273.71c.72.86,36.74,26,36.74,26L271,344.41l17.53,3.22,25.26-41.37a15.75,15.75,0,0,0-3.82-21.41l-42.52-31.08-16.28,17.15" style="fill:#eb996e"></path><path d="M271,344.41c-.24.79-6.62,13.67-6.62,13.67s-.82,4.92.17,5.27c3.86,1.37,32.75,7.7,32.75,7.7s2.58-1-3.43-6.3-10-9.28-10-9.28l6.32-10.66Z" style="fill:#eb996e"></path><path d="M292.07,306.12s.14.09.36.31a7,7,0,0,1,.87,1,10,10,0,0,1,1.71,4.63,14.43,14.43,0,0,1-1.11,7.23,22.13,22.13,0,0,1-5.39,7.16,83,83,0,0,1-7,5.57,57.57,57.57,0,0,0-5.6,4.62,26,26,0,0,0-3.19,3.68c-.67,1-1,1.51-1,1.49a1.78,1.78,0,0,1,.19-.43,12.06,12.06,0,0,1,.66-1.17,22.59,22.59,0,0,1,3.1-3.83,52.71,52.71,0,0,1,5.57-4.74c2.18-1.67,4.63-3.43,6.94-5.57a22.2,22.2,0,0,0,5.3-7,14.3,14.3,0,0,0,1.18-7,10.36,10.36,0,0,0-1.51-4.56C292.51,306.59,292,306.16,292.07,306.12Z" style="fill:#263238"></path><path d="M290.18,324.37a10.58,10.58,0,0,0,.47-2,5.29,5.29,0,0,0-.31-2.14,4.34,4.34,0,0,0-.6-1.12,3.43,3.43,0,0,0-.43-.49.68.68,0,0,0-.46-.2c-.19,0-.37.59-.47,1a5,5,0,0,0-.1,1.26,4.51,4.51,0,0,0,.66,2,9.85,9.85,0,0,0,1.37,1.52,3,3,0,0,1-1.67-1.31,4.45,4.45,0,0,1-.83-2.21,4.23,4.23,0,0,1,.08-1.41,4.56,4.56,0,0,1,.21-.72.92.92,0,0,1,.68-.67c.78,0,1.07.56,1.37.91a4.54,4.54,0,0,1,.64,1.26,5,5,0,0,1,.22,2.34A3.14,3.14,0,0,1,290.18,324.37Z" style="fill:#263238"></path><path d="M293.85,319.44a3.22,3.22,0,0,1,1.22-1.72,4.9,4.9,0,0,1,2.08-1,5.23,5.23,0,0,1,2.86.17l.35.12-.23.28,0,0a6.61,6.61,0,0,1-4.44,2.47,3.78,3.78,0,0,1-2.1-.21c0-.09.81.07,2.05-.15A6.73,6.73,0,0,0,299.7,317v0l.12.4a4.94,4.94,0,0,0-4.54.67A12.55,12.55,0,0,0,293.85,319.44Z" style="fill:#263238"></path><path d="M294.44,313.38c-.08,0-.07-.48-.4-1.12a2.48,2.48,0,0,0-2.2-1.33h-.11l.22-.36a8.72,8.72,0,0,0,2.53,3c0,.05-.49-.06-1.12-.49a5.44,5.44,0,0,1-1.89-2.3l-.15-.35h.52a2.7,2.7,0,0,1,2.54,1.7C294.66,312.89,294.5,313.4,294.44,313.38Z" style="fill:#263238"></path><path d="M294.3,309.5a7.85,7.85,0,0,0,.51-2.81l.48.12h0a7.91,7.91,0,0,0-.82,2.75c-.06,0-.21-.32-.22-.89a3.8,3.8,0,0,1,.61-2.14h0l.41-.66.07.77a3.91,3.91,0,0,1-.43,2.17C294.63,309.31,294.35,309.54,294.3,309.5Z" style="fill:#263238"></path><path d="M284.76,329.25a8,8,0,0,1,4.26.44,4.18,4.18,0,0,1,2.08,1.92l.11.25-.25.1-.14.06a5.09,5.09,0,0,1-2.86.24,4.89,4.89,0,0,1-2.11-1,3.17,3.17,0,0,1-1.23-1.71,11.51,11.51,0,0,0,1.46,1.42,4.79,4.79,0,0,0,4.55.57l.13,0-.14.35a3.81,3.81,0,0,0-1.8-1.71,7.24,7.24,0,0,0-2.05-.59A10.89,10.89,0,0,1,284.76,329.25Z" style="fill:#263238"></path><path d="M275.83,336.49a8.7,8.7,0,0,1,2.55-.06,8.23,8.23,0,0,1,2.73.66,5,5,0,0,1,2.55,2.36l.12.25-.25.1-.18.07a6.26,6.26,0,0,1-3.52.3,6.1,6.1,0,0,1-2.61-1.23,5.76,5.76,0,0,1-1.28-1.45c-.23-.39-.31-.63-.28-.65a11.14,11.14,0,0,0,1.78,1.81,6.06,6.06,0,0,0,5.72.74l.17-.07-.14.35a4.74,4.74,0,0,0-2.28-2.15,8.84,8.84,0,0,0-2.57-.73A20.21,20.21,0,0,1,275.83,336.49Z" style="fill:#263238"></path><path d="M279.39,333.35a14.83,14.83,0,0,0,1.23-1.84,9.36,9.36,0,0,0,.84-2.22,6.13,6.13,0,0,0-.06-2.85l.4.15-.07,0a6.17,6.17,0,0,0-2.48,4.49,15.67,15.67,0,0,0,.14,2.23,3.82,3.82,0,0,1-.5-2.25,6.18,6.18,0,0,1,2.54-4.89l.07,0,.3-.22.1.37a6.35,6.35,0,0,1,0,3.09,8.75,8.75,0,0,1-1,2.29C280.21,332.92,279.42,333.41,279.39,333.35Z" style="fill:#263238"></path><path d="M266.28,353.34s10.8,3.63,17.56,2.13l3.34-5.64-18.06-2.25Z" style="fill:#263238"></path><path d="M280.73,190.86c-1.13,1-56.93,46.53-56.93,46.53s6.45,24.34,43.61,16.38l33.85-13.42a51.91,51.91,0,0,0,9-4.6l9.18-5.89,14.21-18.3c-2.59-5.28-6.89-10.87-14.79-13.14l-19.57-5.12Z" style="fill:#FFC100"></path><path d="M231.67,312.2l-20.89-45.46a20.93,20.93,0,0,1,6.84-24.94l7.95-5.9,48,15.44,39.34,36.32-25.26,12.62-33.08-24.79,3.13,29.78Z" style="fill:#FFC100"></path><path d="M234.9,310.81S214.57,264.1,214.24,258s.06-6.74,1.83-10.17,53-38.86,53-38.86l6.61,0-55.19,39.68a11.64,11.64,0,0,0-2,8.65c1,4.78,20.7,52.82,20.7,52.82Z" style="fill:#f5f5f5"></path><path d="M251.91,259.09a72.9,72.9,0,0,1,1.48,8.47,72.39,72.39,0,0,1,1,8.54,68.14,68.14,0,0,1-1.48-8.47A72.17,72.17,0,0,1,251.91,259.09Z" style="fill:#263238"></path><path d="M280.69,245a9.24,9.24,0,0,1-1.5.62c-1,.37-2.41.86-4.2,1.42a119.51,119.51,0,0,1-28.71,5.18c-1.87.1-3.38.14-4.43.14a10.75,10.75,0,0,1-1.62-.05,8.62,8.62,0,0,1,1.61-.15c1-.06,2.55-.16,4.41-.31,3.72-.29,8.85-.85,14.45-1.85s10.6-2.29,14.18-3.32c1.8-.51,3.25-.94,4.24-1.25A10.24,10.24,0,0,1,280.69,245Z" style="fill:#263238"></path><path d="M278.42,250.34c0,.14-6.19,1.17-13.87,2.29s-13.93,1.93-14,1.78,6.19-1.17,13.88-2.29S278.4,250.19,278.42,250.34Z" style="fill:#263238"></path><g style="opacity:0.30000000000000004"><path d="M246.36,219.1a6.88,6.88,0,0,0,4.91,5.3,15,15,0,0,0,7.56,0,39.3,39.3,0,0,0,23.62-15.07c-8-1.52-16.5-3.62-23.95-.27l-12.14,10"></path></g><polygon points="252.61 263.97 282.45 296.4 254.54 275.5 252.61 263.97" style="opacity:0.30000000000000004"></polygon><g style="opacity:0.2"><path d="M249.9,251.5c-1.36.25-2.55-1.32-2.28-2.67a3.74,3.74,0,0,1,2.9-2.63,13.53,13.53,0,0,1,4.12-.09A39.42,39.42,0,0,0,282,237.17a9.93,9.93,0,0,1,3.51-2.26c1.35-.38,2.58-1.22,3.07.1a6.13,6.13,0,0,1-1.18,5.27c-5,4.77-11.64,7.63-18.4,9.19s-13.72,1.91-20.65,2.25"></path></g><path d="M313.12,154.49c-2.84.4-4.64,3.2-6,5.74s-2.95,5.38-5.74,6.05c-2.31.56-5.2-.42-6.79,1.33a2.69,2.69,0,0,0,2.41,4.47,4.66,4.66,0,0,0-1.68,5.19c.74,1.81,3.37,2.69,4.81,1.37a2.37,2.37,0,1,0,3.45,3.24" style="fill:#263238"></path><path d="M331.08,188.93a2.85,2.85,0,1,0,5.61,1c.18-1.19-.39-2.49.17-3.55.66-1.28,2.46-1.35,3.9-1.17s3.16.32,4.06-.81.41-2.68,0-4-.45-3.12.76-3.81a11.85,11.85,0,0,1,2.07-.53,3.13,3.13,0,0,0,1.63-3.95,5.73,5.73,0,0,0-3.36-3.16,41.73,41.73,0,0,0-4.56-1.31,19,19,0,0,1-11.61-9.85" style="fill:#263238"></path><path d="M308.91,164.82l-11.24,30.4a10.27,10.27,0,0,0,6.13,13.23h0a10.28,10.28,0,0,0,12.83-5.32c1.2-2.57,2.19-4.71,2.19-4.71s7.95,2.23,11.43-5.15c1.68-3.57,4.55-11.2,7.06-18.14a15.2,15.2,0,0,0-8-19l-.72-.32A15.1,15.1,0,0,0,308.91,164.82Z" style="fill:#eb996e"></path><path d="M318.88,198.32a19,19,0,0,1-8.43-7.17s-.15,6.39,7.57,9.1Z" style="fill:#aa6550"></path><path d="M332.07,178.8a1.16,1.16,0,0,1-1.51.6,1.11,1.11,0,0,1-.65-1.45,1.17,1.17,0,0,1,1.51-.61A1.11,1.11,0,0,1,332.07,178.8Z" style="fill:#263238"></path><path d="M334.05,178.05c-.19.08-.72-.88-1.87-1.4s-2.23-.33-2.29-.53.21-.28.7-.37a3.21,3.21,0,0,1,1.91.24,3.1,3.1,0,0,1,1.41,1.29C334.14,177.71,334.15,178,334.05,178.05Z" style="fill:#263238"></path><path d="M321,173.91a1.17,1.17,0,0,1-1.51.6,1.11,1.11,0,0,1-.65-1.46,1.16,1.16,0,0,1,1.51-.6A1.12,1.12,0,0,1,321,173.91Z" style="fill:#263238"></path><path d="M322.74,173.14c-.2.08-.73-.88-1.87-1.4s-2.24-.33-2.3-.52.21-.28.7-.38a3.19,3.19,0,0,1,1.92.25,3,3,0,0,1,1.41,1.29C322.83,172.81,322.83,173.11,322.74,173.14Z" style="fill:#263238"></path><path d="M323,183.5a8,8,0,0,1,2,.51c.3.1.6.17.74,0a1.56,1.56,0,0,0,.2-.95q.07-1.25.15-2.61a42,42,0,0,1,.72-6.69,43.14,43.14,0,0,1-.18,6.73c-.06.91-.13,1.78-.19,2.61a1.83,1.83,0,0,1-.37,1.21.83.83,0,0,1-.67.21,2.08,2.08,0,0,1-.53-.16A8.1,8.1,0,0,1,323,183.5Z" style="fill:#263238"></path><path d="M319.3,182.75c.19.08-.37,1.32.29,2.68s2,1.83,2,2-.41.1-1-.14a3.41,3.41,0,0,1-1.68-1.6,3,3,0,0,1-.16-2.21C318.94,183,319.22,182.71,319.3,182.75Z" style="fill:#263238"></path><path d="M325.07,168.81c-.25.25-1.32-.41-2.73-.86s-2.67-.58-2.72-.94c0-.17.31-.38.88-.48a4.76,4.76,0,0,1,2.23.21,4.7,4.7,0,0,1,1.92,1.16C325.05,168.32,325.19,168.68,325.07,168.81Z" style="fill:#263238"></path><path d="M335.14,174.55c-.32.17-1-.46-1.92-.9s-1.83-.62-1.89-1c0-.17.23-.37.69-.45a2.88,2.88,0,0,1,1.76.29,3,3,0,0,1,1.31,1.22C335.3,174.15,335.29,174.47,335.14,174.55Z" style="fill:#263238"></path><path d="M320.69,160.35l-.05,0a6.44,6.44,0,0,0-3.9,2.78l-.09.14c-1.26,2-2.19,4.17-3.46,6.14A10.62,10.62,0,0,1,308,174c-.92.3-2.25.2-2.45-.75a2.07,2.07,0,0,1,.17-1.09c1.94-5.29,2.62-10.47,5.07-15.81a4.93,4.93,0,0,1,3.54-2.82c1.49-.29,3.23-.5,4.21.66s1.52,4.22,2,5.65" style="fill:#263238"></path><path d="M309.88,169.32c-.1-.11-4.41-3.84-6.57,1.31s3.47,6.26,3.54,6.11S309.88,169.32,309.88,169.32Z" style="fill:#eb996e"></path><path d="M306.09,174.13s-.12,0-.3,0a.94.94,0,0,1-.67-.26,2.43,2.43,0,0,1-.2-2.43,3.35,3.35,0,0,1,.79-1.18,1.11,1.11,0,0,1,1-.4.49.49,0,0,1,.43.47c0,.17-.07.26,0,.28s.14,0,.19-.27a.64.64,0,0,0-.07-.41.74.74,0,0,0-.44-.34,1.36,1.36,0,0,0-1.27.41,3.28,3.28,0,0,0-.91,1.3,2.53,2.53,0,0,0,.38,2.78,1,1,0,0,0,.88.2C306,174.25,306.1,174.15,306.09,174.13Z" style="fill:#aa6550"></path><path d="M318,154.86c-.32-2.6,4.43-4,7.3-3.6s5.61,3.08,7.72,5.05c1.34,1.24,2.58,2.68,4.26,3.37a12.44,12.44,0,0,0,3.6.65,9.15,9.15,0,0,1,3.54.84,3.39,3.39,0,0,1,1.9,2.91,2.12,2.12,0,0,1-2.47,2,2.74,2.74,0,1,1-1.44,4.92c1-.22,1.66,1.19,1.16,2.05a2.88,2.88,0,0,1-2.61,1.13,10.44,10.44,0,0,1-6.73-3.19c-1.86-1.74-3.36-3.82-5.17-5.6s-4.81-4.87-7.34-5.09c-1.86-.17-3.86,1.26-4.57.42a3.42,3.42,0,0,1-.57-3,9.88,9.88,0,0,1,1.42-2.85" style="fill:#263238"></path><path d="M341.52,164.12a1.57,1.57,0,0,1,1.19.75,2.9,2.9,0,0,1-.4,3.68c-1.28,1.2-3.62,1.27-5.54.22a13.62,13.62,0,0,1-4.87-5,33.86,33.86,0,0,0-3.95-5.6,9.26,9.26,0,0,0-2.34-1.77,7,7,0,0,0-2.45-.65,5.22,5.22,0,0,0-3.51.89,9.44,9.44,0,0,0-1,1,1.48,1.48,0,0,1,.17-.33,3.7,3.7,0,0,1,.7-.79,5.31,5.31,0,0,1,3.66-1.1,7.26,7.26,0,0,1,2.62.63,9.4,9.4,0,0,1,2.49,1.82,32.41,32.41,0,0,1,4,5.65,13.5,13.5,0,0,0,4.65,4.85c1.78,1,3.93,1,5.08-.08a2.46,2.46,0,0,0,.83-1.79,2.59,2.59,0,0,0-.36-1.5A2.42,2.42,0,0,0,341.52,164.12Z" style="fill:#455a64"></path><path d="M328.82,155.22c-.06.07-.61-.44-1.68-1a8.25,8.25,0,0,0-4.44-.81,8.34,8.34,0,0,0-4.17,1.75c-.92.74-1.36,1.37-1.43,1.31a3.87,3.87,0,0,1,1.19-1.58,7.7,7.7,0,0,1,4.35-2,7.79,7.79,0,0,1,4.68,1A4,4,0,0,1,328.82,155.22Z" style="fill:#455a64"></path><path d="M309.32,162.21a2.61,2.61,0,0,1,.2-1.57,5.82,5.82,0,0,1,2.37-3,5.73,5.73,0,0,1,3.73-.82,2.61,2.61,0,0,1,1.5.5c0,.08-.59-.11-1.52-.14a6.23,6.23,0,0,0-3.44.91,6.14,6.14,0,0,0-2.3,2.69C309.48,161.63,309.4,162.22,309.32,162.21Z" style="fill:#455a64"></path><path d="M206.4,233.66l-1.17,2.11a51.79,51.79,0,0,0-1.75,4.91,26.4,26.4,0,0,0,.38,5.74c0,.09.06.2.09.27a1.2,1.2,0,0,1,.12.54,1.32,1.32,0,0,1-1.93,1.39c-.94-.61-2.17-3.58-2.13-7.4,0-.06,0-.12,0-.18-.06-3.88-3.74.9-5.11,2.62s-5.87,6.83-6.72,6.81c-1.25,0-1.46-1.4,0-3.08s5.29-7,4.37-7.74-7.78,8.15-7.78,8.15-1.17,2.14-2.27,1.36c-2-1.4,6-10.25,6.8-11.08.54-.57-.43-1.37-1-.72s-6.66,9-8.68,7.58c-1.55-1.08,6.5-7.35,6.83-9.8s-5.63,5.39-7.07,4.3c-.54-.41-.88-.79,3.17-4.78a121.53,121.53,0,0,1,10.43-8.38l5.69-5" style="fill:#eb996e"></path><path d="M289.7,201.42a9.1,9.1,0,0,0-9-10.56c-12.92,0-34.5,0-43.73,0a11.56,11.56,0,0,0-7.69,2.95l-36.57,32.7,10.12,10.36,35.24-28,42.58.19a9.09,9.09,0,0,0,9-7.64Z" style="fill:#eb996e"></path><path d="M250.67,209.08c-.07,0,.36-1,.9-2.61A32,32,0,0,0,253,200a31,31,0,0,0,0-6.61c-.16-1.69-.37-2.73-.29-2.75a10.09,10.09,0,0,1,.66,2.7,25.92,25.92,0,0,1-1.49,13.24A9.62,9.62,0,0,1,250.67,209.08Z" style="fill:#263238"></path><path d="M256.41,191.68a8.81,8.81,0,0,1,.63,2.56,23.47,23.47,0,0,1-1.6,12.54,9,9,0,0,1-1.26,2.32c-.07,0,.37-.94.92-2.45a28.31,28.31,0,0,0,1.58-12.37C256.53,192.68,256.33,191.69,256.41,191.68Z" style="fill:#263238"></path><path d="M255,206.59c0,.14-.58.38-1.36.28s-1.31-.48-1.25-.6.63,0,1.32.08S255,206.45,255,206.59Z" style="fill:#263238"></path><path d="M255.24,204.77c0,.14-.51.18-1.09.08s-1-.28-1-.42.51-.18,1.09-.09S255.26,204.62,255.24,204.77Z" style="fill:#263238"></path><path d="M256.1,202.63c0,.14-.54.27-1.21.16s-1.15-.41-1.1-.54.57-.07,1.18,0S256.1,202.48,256.1,202.63Z" style="fill:#263238"></path><path d="M256.55,200.26c0,.15-.57.28-1.28.31s-1.28-.07-1.29-.22.57-.28,1.28-.3S256.54,200.12,256.55,200.26Z" style="fill:#263238"></path><path d="M256.33,198.23c0,.14-.45.16-.94.17s-.91,0-.94-.17.38-.36.94-.35S256.37,198.09,256.33,198.23Z" style="fill:#263238"></path><path d="M256.36,195.69c0,.14-.45.32-1,.38s-1.09,0-1.11-.13.45-.31,1-.38S256.35,195.55,256.36,195.69Z" style="fill:#263238"></path><path d="M256.05,193.71c0,.14-.44.16-.93.18s-.89,0-.94-.1.35-.39.92-.42S256.09,193.57,256.05,193.71Z" style="fill:#263238"></path><path d="M255.89,192.25c-.08.12-.5,0-1-.06s-.93.05-1-.09.37-.48,1-.43S256,192.14,255.89,192.25Z" style="fill:#263238"></path><path d="M259,197.44c-.07,0,.16-.36.64-.18a.68.68,0,0,1,.41.73.82.82,0,0,1-.76.7.85.85,0,0,1-.83-.59.78.78,0,0,1,.18-.79c.34-.33.66-.22.64-.16s-.21.14-.35.39a.42.42,0,0,0,0,.39.38.38,0,0,0,.36.24.36.36,0,0,0,.31-.27.29.29,0,0,0-.12-.32C259.24,197.41,259,197.49,259,197.44Z" style="fill:#263238"></path><path d="M258.6,193.72c-.07,0,.17-.35.64-.17a.68.68,0,0,1,.42.73.82.82,0,0,1-.76.7.85.85,0,0,1-.83-.59.75.75,0,0,1,.18-.79c.34-.33.66-.22.64-.16s-.22.13-.35.38a.41.41,0,0,0,0,.4.42.42,0,0,0,.36.24.4.4,0,0,0,.31-.27.32.32,0,0,0-.12-.32C258.86,193.7,258.65,193.78,258.6,193.72Z" style="fill:#263238"></path><path d="M258.3,202c-.07,0,.16-.35.64-.17a.68.68,0,0,1,.41.73.82.82,0,0,1-.76.7.85.85,0,0,1-.83-.59.77.77,0,0,1,.18-.8c.34-.32.66-.22.64-.15s-.21.13-.35.38a.41.41,0,0,0,0,.4.42.42,0,0,0,.36.24.37.37,0,0,0,.31-.27.28.28,0,0,0-.12-.32C258.55,202,258.34,202.08,258.3,202Z" style="fill:#263238"></path><path d="M257.21,206.52c-.07,0,.17-.36.64-.18a.68.68,0,0,1,.42.73.84.84,0,0,1-.76.71.87.87,0,0,1-.83-.6.76.76,0,0,1,.18-.79c.34-.33.66-.22.64-.16s-.22.14-.35.39a.39.39,0,0,0,0,.39.41.41,0,0,0,.36.25.42.42,0,0,0,.31-.27.33.33,0,0,0-.12-.33C257.47,206.49,257.26,206.57,257.21,206.52Z" style="fill:#263238"></path><path d="M260.83,190.74a10.24,10.24,0,0,1,.7,2.67,28.12,28.12,0,0,1-.9,13.22,10.57,10.57,0,0,1-1.05,2.55,23.21,23.21,0,0,1,.7-2.66,35.83,35.83,0,0,0,1.07-6.48,36.2,36.2,0,0,0-.18-6.57A24.13,24.13,0,0,1,260.83,190.74Z" style="fill:#263238"></path><path d="M262.66,191.08a10.06,10.06,0,0,1,.71,2.59,26.69,26.69,0,0,1,.33,6.5,25.89,25.89,0,0,1-1.28,6.38,9.34,9.34,0,0,1-1.08,2.46c-.07,0,.29-1,.73-2.57a31.93,31.93,0,0,0,1.11-6.31,32.73,32.73,0,0,0-.18-6.4A20.29,20.29,0,0,1,262.66,191.08Z" style="fill:#263238"></path><path d="M268.24,199.68s-.25,0-.61.11a1.1,1.1,0,0,0-.61,1.31,1.54,1.54,0,0,0,1.83,1.05,1.5,1.5,0,0,0,1.08-.72,2,2,0,0,0,.21-1.44,2.28,2.28,0,0,0-2.08-1.76,3.19,3.19,0,0,0-2.32.69,7.76,7.76,0,0,0-1.49,1.85s0-.25.18-.65a4.18,4.18,0,0,1,1.08-1.48,3.41,3.41,0,0,1,2.59-.89,3,3,0,0,1,1.58.58,2.55,2.55,0,0,1,1,1.55,2.52,2.52,0,0,1-.28,1.81,2,2,0,0,1-1.45.93,2.16,2.16,0,0,1-1.51-.31,1.71,1.71,0,0,1-.75-1.14,1.52,1.52,0,0,1,.22-1.09,1.23,1.23,0,0,1,.68-.48C268,199.48,268.26,199.67,268.24,199.68Z" style="fill:#263238"></path><path d="M248.8,198.47s.23-.12.59.08a1.29,1.29,0,0,1,.53,1.51,1.53,1.53,0,0,1-2.26.56,2,2,0,0,1-.26-2.84,2.9,2.9,0,0,1,2.74-.95,2.75,2.75,0,0,1,2,1.35,2.44,2.44,0,0,1,.3,1.56c-.06.37-.18.55-.21.54a3.08,3.08,0,0,0-.4-1.91,2.56,2.56,0,0,0-4-.26,1.51,1.51,0,0,0,.14,2.12,1.13,1.13,0,0,0,1.64-.31,1.07,1.07,0,0,0-.31-1.2C249,198.51,248.8,198.52,248.8,198.47Z" style="fill:#263238"></path><path d="M251.7,197c-.14,0-.38-.52-.54-1.23s-.17-1.31,0-1.34.38.52.53,1.23S251.84,196.94,251.7,197Z" style="fill:#263238"></path><path d="M251.45,201.52c.08.12-.21.48-.66.81s-.88.5-1,.39.21-.48.66-.81S251.36,201.41,251.45,201.52Z" style="fill:#263238"></path><path d="M265.24,203.58c-.13.06-.4-.23-.6-.65s-.27-.82-.14-.88.4.23.6.65S265.37,203.51,265.24,203.58Z" style="fill:#263238"></path><path d="M266.58,195.55c.12.08-.19.71-.68,1.4s-1,1.19-1.12,1.11.2-.72.69-1.41S266.47,195.46,266.58,195.55Z" style="fill:#263238"></path></g></svg>